<svg width="78" height="57" viewBox="0 0 78 57" fill="none" xmlns="http://www.w3.org/2000/svg">
<path d="M18.5 19.5C22.5971 16.5882 22.0554 6.40653 24.1935 3.5C24.2328 0.593771 39.0267 10.6001 42 10.6001C51.2777 10.6001 56.8511 7.27111 64.7999 1.50003C67.0556 -0.137717 64.7999 8.7299 64.7999 10.6001C64.7999 15.9315 67.5 18.5 70.5 22C72.3825 24.3532 75.594 27.1494 76.4062 27.4697C76.4655 27.4671 76.4975 27.4761 76.4998 27.4974C76.4735 27.4932 76.4422 27.4839 76.4062 27.4697C75.1348 27.524 61.3136 32.8843 57.9677 36.5C53.5118 41.3153 50.3971 48.1276 47.5014 54.0395C46.5223 56.0385 46.1448 55.5735 45.4625 53.8678C44.8923 52.4422 43.8466 50.5563 42.7583 49.468C38.6428 45.3525 29.6619 44.4412 24.1935 45.2615C19.1545 46.0173 15.3673 49.279 11.9601 52.7517C9.26371 55.5 14.1922 46.1298 14.1922 42.1924C14.1922 37.9987 14.3401 33.4693 10.1573 31.2896C7.30201 29.8016 4.54474 27.5517 1.50039 26.5C0.323198 26.0933 3.27595 25.624 4.50029 25C10.9158 21.7294 12.6372 23.6665 18.5 19.5Z" fill="#FF0000"/>
<path d="M76.5 27.5C76.5 27 61.4759 32.709 57.9677 36.5C53.5118 41.3153 50.3971 48.1276 47.5014 54.0395C46.5223 56.0385 46.1448 55.5735 45.4625 53.8678C44.8923 52.4422 43.8466 50.5563 42.7583 49.468C38.6428 45.3525 29.6619 44.4412 24.1935 45.2615C19.1545 46.0173 15.3673 49.279 11.9601 52.7517C9.26371 55.5 14.1922 46.1298 14.1922 42.1924C14.1922 37.9987 14.3401 33.4693 10.1573 31.2896C7.30201 29.8016 4.54474 27.5517 1.50039 26.5C0.323198 26.0933 3.27595 25.624 4.50029 25C10.9158 21.7294 12.6372 23.6665 18.5 19.5C22.5971 16.5882 22.0554 6.40653 24.1935 3.5C24.2328 0.593771 39.0267 10.6001 42 10.6001C51.2777 10.6001 56.8511 7.27111 64.7999 1.50003C67.0556 -0.137717 64.7999 8.7299 64.7999 10.6001C64.7999 15.9315 67.5 18.5 70.5 22C72.5 24.5 76 27.5 76.5293 27.5" stroke="black" stroke-width="2" stroke-linecap="round"/>
<path d="M32.6895 16.9062C33.3613 16.9062 33.9316 18.9714 34.4004 23.1016C34.2285 24.3828 34.015 25.0234 33.7598 25.0234H32.9004C32.6191 25.0234 32.3353 24.5234 32.0488 23.5234H32.2598C32.1191 23.2734 32.0488 22.9896 32.0488 22.6719C31.5697 22.9583 29.791 23.2422 26.7129 23.5234C26.4264 23.0547 26.2832 22.6276 26.2832 22.2422V22.0312C26.2832 21.3854 28.1348 20.9583 31.8379 20.75V19.0391C29.6296 19.0391 27.5645 19.1823 25.6426 19.4688L25.002 18.3984C25.002 17.4036 25.9993 16.9062 27.9941 16.9062H32.6895ZM34.6113 26.0859C35.3249 26.2839 35.6816 26.7839 35.6816 27.5859L35.4629 28.4375C33.8014 28.4375 31.9525 28.5807 29.916 28.8672V28.6484L29.4863 28.8672L29.0566 28.6484C28.916 28.6484 28.8457 28.7214 28.8457 28.8672C26.9967 28.763 26.0723 28.4766 26.0723 28.0078V26.9453C26.0723 26.7005 26.4264 26.487 27.1348 26.3047C27.4941 26.3047 28.0645 26.375 28.8457 26.5156C32.1738 26.375 34.0957 26.2318 34.6113 26.0859ZM33.7598 29.2891C34.7546 29.2891 35.252 30.4297 35.252 32.7109C35.252 34.7005 33.8275 35.6953 30.9785 35.6953V36.125L32.4785 36.3359H33.3301L34.8223 35.9141L35.252 36.5547C35.252 37.5495 34.8249 38.2604 33.9707 38.6875H33.1191C30.5566 38.6875 29.2754 38.1172 29.2754 36.9766C28.9889 36.9766 28.8457 36.4089 28.8457 35.2734C28.8457 34.2474 30.2702 33.5339 33.1191 33.1328V32.0703C33.1191 31.7839 32.9056 31.6406 32.4785 31.6406C32.265 31.6406 30.9837 31.7839 28.6348 32.0703L27.9941 31.2109V30.3594C27.9941 29.7917 29.916 29.4349 33.7598 29.2891ZM41.2754 16.2422C43.4108 16.6328 44.4785 17.7734 44.4785 19.6641H44.2676L44.4785 20.0938C44.4785 21.5312 42.9108 22.599 39.7754 23.2969C39.7754 23.4427 39.7051 23.5156 39.5645 23.5156C39.7051 24.0833 40.0618 24.3672 40.6348 24.3672C41.8952 24.2266 42.679 24.1562 42.9863 24.1562L43.627 25.2266C43.627 25.9401 42.6999 26.4375 40.8457 26.7188C38.5645 26.7188 37.4238 25.4375 37.4238 22.875C37.4238 21.8958 38.9915 20.9688 42.127 20.0938V19.2344C42.127 19.0052 41.6999 18.7214 40.8457 18.3828C40.6634 18.5234 39.666 18.6667 37.8535 18.8125C37.2025 18.5365 36.8457 18.25 36.7832 17.9531V16.8828C36.8301 16.6016 36.9733 16.4609 37.2129 16.4609C38.3587 16.4609 39.7129 16.388 41.2754 16.2422ZM49.1816 18.5938H49.8223C50.6816 18.5938 51.1113 21.0182 51.1113 25.8672C50.7728 26.7214 50.4863 27.1484 50.252 27.1484H49.6113C49.3874 27.1484 49.1035 26.862 48.7598 26.2891V22.6562L48.541 21.375C48.541 21.2344 48.6139 21.1641 48.7598 21.1641L48.541 20.0938V19.875C48.6296 19.0208 48.8431 18.5938 49.1816 18.5938ZM47.2598 28.4297C49.3952 28.4297 50.4629 29.3568 50.4629 31.2109V31.4219C50.4629 33.0625 50.1087 33.9896 49.4004 34.2031H49.1816C48.3275 34.2031 47.9004 33.776 47.9004 32.9219L48.1113 31.6406V30.7812L47.0488 30.5703C45.1322 30.8568 43.9186 31 43.4082 31C42.6426 31 42.2155 30.6432 42.127 29.9297C42.4186 29.0703 42.7051 28.6406 42.9863 28.6406H43.4082C43.554 28.6406 43.627 28.7135 43.627 28.8594C44.4082 28.5729 45.6191 28.4297 47.2598 28.4297ZM52.8457 17.9531H53.4863C53.7728 18.2448 54.0592 20.8099 54.3457 25.6484L53.4863 26.2891H53.2754C52.9004 26.2891 52.6139 25.7188 52.416 24.5781V22.4453L52.2051 21.1562C52.2051 21.0156 52.2754 20.9453 52.416 20.9453L52.2051 19.875V18.5938C52.2051 18.3854 52.4186 18.1719 52.8457 17.9531ZM54.127 27.7891C54.5592 28.612 54.7754 29.112 54.7754 29.2891C54.5618 29.8568 54.3457 30.1406 54.127 30.1406C53.2728 30.1406 52.8457 29.7135 52.8457 28.8594C52.9342 28.4323 53.3613 28.0755 54.127 27.7891Z" fill="white"/>
</svg>
