<svg width="185" height="71" viewBox="0 0 185 71" fill="none" xmlns="http://www.w3.org/2000/svg">
<path d="M31.0029 7.37354V7.61963L31.4863 7.37354H31.7324C32.6289 7.37354 33.1885 7.7749 33.4111 8.57764C33.2178 9.70264 32.8164 10.2651 32.207 10.2651L30.5283 10.019C30.2471 10.1831 29.9248 10.2651 29.5615 10.2651V10.7397C29.5615 12.0288 30.042 12.6733 31.0029 12.6733C32.0811 12.6733 32.9658 12.9136 33.6572 13.394L33.4111 11.2231C33.4111 9.37744 34.2139 8.33447 35.8193 8.09424H37.2607C37.4248 8.09424 37.5068 8.17627 37.5068 8.34033L37.9902 8.09424H39.1855C39.4199 8.09424 39.6631 8.33447 39.915 8.81494V9.29834C39.915 10.4233 39.2734 10.9858 37.9902 10.9858C36.8418 10.8218 36.2002 10.7397 36.0654 10.7397V12.1899C36.0654 13.1509 36.7861 13.6313 38.2275 13.6313C38.4561 13.6313 38.6963 13.8716 38.9482 14.3521V14.5981C38.9482 15.4595 38.6289 16.019 37.9902 16.2769H36.3027C34.9785 16.2769 34.0967 15.395 33.6572 13.6313H33.4111C33.4111 14.9146 33.1709 15.5562 32.6904 15.5562H31.9697C28.6006 15.5562 26.916 14.1938 26.916 11.4692V10.019C26.916 9.63818 27.1562 8.91748 27.6367 7.85693L28.1201 8.09424V7.61963H29.8076L31.0029 7.37354ZM44.4854 8.09424H44.7227C44.9746 8.09424 45.2969 8.4165 45.6895 9.06104C45.8477 12.2134 45.9268 14.2993 45.9268 15.3188H45.6895C45.6895 15.4771 45.7686 15.5562 45.9268 15.5562C45.9268 15.978 45.6865 16.8599 45.2061 18.2017H44.002C43.75 18.2017 43.4307 17.8823 43.0439 17.2437C43.0439 16.8804 43.123 16.5581 43.2812 16.2769L43.0439 15.7935C43.2021 14.9263 43.2812 14.2056 43.2812 13.6313H40.1523C39.9004 13.6313 39.5781 13.312 39.1855 12.6733V12.4272C39.291 11.4663 39.5342 10.9858 39.915 10.9858H41.1191C41.2773 10.9858 41.3564 11.0649 41.3564 11.2231L41.8398 10.9858H43.0439C43.0439 10.6636 43.123 10.5024 43.2812 10.5024L43.0439 10.019V9.54443C43.0439 8.57764 43.5244 8.09424 44.4854 8.09424ZM36.3027 19.6519L41.8398 20.3726C42.6426 20.9702 43.0439 21.9312 43.0439 23.2554C43.0439 25.7925 42.4023 27.1577 41.1191 27.3511C40.3164 27.1284 39.915 26.5659 39.915 25.6636V25.4263C39.915 25.2739 40.0732 24.6323 40.3896 23.5015V22.7808H40.1523L36.7861 22.5347L36.3027 22.7808C35.3418 22.3647 34.8613 21.8022 34.8613 21.0933C35.0195 20.7827 35.0986 20.5425 35.0986 20.3726C34.9404 20.3726 34.8613 20.2905 34.8613 20.1265C35.8223 20.0151 36.3027 19.8569 36.3027 19.6519ZM55.3311 6.41553H55.8145C56.207 6.73779 56.5293 6.89893 56.7812 6.89893V9.30713L57.0186 10.5112H61.5889V10.2651C61.5889 7.86279 62.2305 6.66162 63.5137 6.66162L63.9971 7.38232C63.833 9.70264 63.751 10.9858 63.751 11.2319L63.9971 12.4272C63.9971 15.6382 63.1943 17.2437 61.5889 17.2437C60.9385 17.2437 59.4941 17.3228 57.2559 17.481C55.8145 17.481 54.8535 15.0757 54.373 10.2651V7.38232C54.373 7.13037 54.6924 6.80811 55.3311 6.41553ZM68.8047 7.61963C69.0332 7.61963 69.3525 8.021 69.7627 8.82373L69.5254 10.0278V11.2319C69.5254 11.4487 70.0059 11.689 70.9668 11.9526C71.1309 11.9526 71.2129 11.8706 71.2129 11.7065C72.4961 11.8999 73.1377 12.2222 73.1377 12.6733V13.6313C72.9736 14.1118 72.4902 14.3521 71.6875 14.3521H70.2461L69.7627 14.1147V17.7271C69.7627 17.9556 69.5225 18.1958 69.042 18.4478H67.8467C67.8467 18.1255 67.6855 17.9644 67.3633 17.9644V13.8774C67.3633 13.5142 67.2812 13.1919 67.1172 12.9106C67.1172 12.7524 67.1992 12.6733 67.3633 12.6733L67.1172 10.9858V8.34033C67.873 7.85986 68.4355 7.61963 68.8047 7.61963ZM57.9766 13.1567H57.502V13.394C57.6602 14.355 57.9004 14.8354 58.2227 14.8354C60.3086 14.7534 61.3516 14.5923 61.3516 14.3521C61.3516 14.2349 61.4307 13.7544 61.5889 12.9106C59.9893 13.0747 58.7852 13.1567 57.9766 13.1567ZM61.3516 19.6431C61.5098 19.6431 61.5889 19.7251 61.5889 19.8892L63.2764 19.6431L66.1592 19.8892C67.0029 19.7251 67.8057 19.6431 68.5674 19.6431C68.8838 20.1704 69.042 20.6538 69.042 21.0933V22.0513L66.1592 22.5347C65.8486 22.3765 65.6084 22.2974 65.4385 22.2974C65.1279 22.4556 64.8877 22.5347 64.7178 22.5347V22.2974L64.2344 22.5347H63.751L63.2764 22.2974C63.2764 22.4556 63.1943 22.5347 63.0303 22.5347C63.3525 24.2983 63.6748 25.1802 63.9971 25.1802H68.084C68.5645 25.1802 68.8047 25.4995 68.8047 26.1382C68.8047 27.2632 67.4424 27.8257 64.7178 27.8257C62.1514 27.8257 60.8682 26.4634 60.8682 23.7388C60.8682 23.5278 60.707 22.646 60.3848 21.0933V20.6099C60.3848 20.3579 60.707 20.0356 61.3516 19.6431ZM85.917 10.0366C87.0361 10.0366 87.5957 11.0005 87.5957 12.9282V14.6069C90.0039 14.6069 91.208 15.0874 91.208 16.0483V16.5317C90.5635 16.854 90.2412 17.0942 90.2412 17.2524L89.0371 17.0151H87.8418L88.0791 18.2104V21.3394C88.0791 21.5679 87.8389 21.8081 87.3584 22.0601H86.4004C85.7969 22.0601 85.3955 18.6147 85.1963 11.7241C85.0322 11.7241 84.9502 11.6421 84.9502 11.478C85.2783 10.5171 85.6006 10.0366 85.917 10.0366ZM77.7432 11.0034C78.1006 11.0034 78.4199 11.0825 78.7012 11.2407C78.9824 11.0825 79.3047 11.0034 79.668 11.0034C81.2031 11.0034 82.3252 12.2046 83.0342 14.6069V15.811C82.8291 18.5356 81.7861 19.8979 79.9053 19.8979H78.4639C75.7393 18.8784 74.377 17.4341 74.377 15.5649C74.377 13.0044 75.3379 11.4839 77.2598 11.0034H77.7432ZM76.7852 14.6069V15.0903C76.7852 16.4087 77.6641 17.2905 79.4219 17.7358C80.1543 17.4253 80.5557 17.103 80.626 16.769V14.3696C80.626 13.8188 79.7441 13.3384 77.9805 12.9282C77.1836 13.1509 76.7852 13.7104 76.7852 14.6069ZM104.945 5.4751H105.666C106.469 5.4751 106.87 7.23584 106.87 10.7573H108.312C109.214 10.7573 109.776 11.1587 109.999 11.9614C109.999 12.8052 109.196 13.2856 107.591 13.4028H107.107V13.8862C107.107 14.4604 107.189 15.1812 107.354 16.0483C107.113 16.6929 106.873 17.0151 106.633 17.0151H105.429C104.79 17.0151 104.31 13.5669 103.987 6.67041C104.298 5.94385 104.617 5.54541 104.945 5.4751ZM98.6963 5.7124C99.0889 5.7124 99.4902 8.03564 99.9004 12.6821C99.9004 12.9575 99.499 13.1978 98.6963 13.4028C97.8584 13.4028 97.2168 11.7212 96.7715 8.35791L93.6514 8.84131C92.8486 8.63623 92.4473 8.396 92.4473 8.12061V6.9165C92.4473 6.354 94.5303 5.95264 98.6963 5.7124ZM98.2129 18.2104H99.1797C99.6602 18.2104 100.141 19.4937 100.621 22.0601H103.987C104.849 22.0601 105.408 22.3794 105.666 23.0181V23.7388C105.408 24.3833 104.849 24.7056 103.987 24.7056C103.665 24.7056 103.504 24.6235 103.504 24.4595L102.3 24.7056H100.621C99.0332 24.7056 98.0723 23.5835 97.7383 21.3394L97.4922 18.9312C97.4922 18.7026 97.7324 18.4624 98.2129 18.2104ZM121.574 8.12061H122.295C122.658 8.12061 122.898 8.51904 123.016 9.31592C123.016 9.72607 122.775 10.6079 122.295 11.9614C125.389 14.5747 127.07 16.1772 127.34 16.769V17.7358C127.34 17.9644 127.1 18.2046 126.619 18.4565H125.661L121.574 14.6069H121.328C121.328 16.2944 121.088 17.7358 120.607 18.9312H118.929C118.929 18.6499 118.768 18.2515 118.445 17.7358C119.611 11.3257 120.654 8.12061 121.574 8.12061ZM131.664 8.59521C132.625 8.59521 133.105 9.31592 133.105 10.7573C133.105 11.8003 133.188 12.603 133.352 13.1655H136.718C136.993 13.1655 137.233 13.5669 137.438 14.3696C137.438 15.1665 136.076 15.5649 133.352 15.5649C133.352 16.0571 133.51 17.5015 133.826 19.8979L132.868 20.6187H132.631C131.67 20.6187 131.189 19.8979 131.189 18.4565L130.706 9.07861L131.664 8.59521ZM143.002 7.15381H143.248C145.018 7.15381 146.058 8.75635 146.368 11.9614V12.1987C146.368 13.8042 145.088 14.6069 142.527 14.6069L142.281 15.0903C142.867 15.5708 143.43 15.811 143.969 15.811H144.206C144.569 15.811 144.889 15.729 145.164 15.5649C145.967 15.77 146.368 16.0103 146.368 16.2856V17.4897C146.368 17.9116 145.727 18.2339 144.443 18.4565C141.402 18.4565 139.882 17.1733 139.882 14.6069C139.882 13.0659 141.083 12.1841 143.485 11.9614C143.808 11.9614 143.969 11.8003 143.969 11.478C143.746 10.3589 143.424 9.79932 143.002 9.79932H140.603V10.2827H139.636L138.678 9.56201C138.678 8.11475 139.398 7.39111 140.84 7.39111C141.438 7.23291 142.158 7.15381 143.002 7.15381ZM152.143 8.35791C152.939 8.45752 153.338 8.93799 153.338 9.79932V12.6821H153.584C155.465 12.6821 156.906 12.9224 157.908 13.4028V15.0903C157.428 15.0903 157.188 15.2485 157.188 15.5649L156.704 15.3276H153.584C153.742 16.7456 153.821 17.6274 153.821 17.9731C153.511 18.7056 153.191 19.1069 152.863 19.1772H152.617C151.656 19.1772 151.176 18.6147 151.176 17.4897H151.422L151.176 17.0063C151.018 13.561 150.938 11.1587 150.938 9.79932C150.938 9.21924 151.34 8.73877 152.143 8.35791ZM147.81 20.6187C150.856 20.6187 152.38 21.5796 152.38 23.5015V24.4595C152.38 27.1841 151.337 28.5464 149.251 28.5464H148.056C147.892 28.5464 147.81 28.4673 147.81 28.3091C147.651 28.3091 147.572 28.3882 147.572 28.5464C145.328 28.2417 144.206 27.603 144.206 26.6304C143.884 24.5327 143.723 23.0093 143.723 22.0601C143.723 21.0991 145.085 20.6187 147.81 20.6187ZM146.131 23.2642C146.453 24.6294 146.614 25.5083 146.614 25.9009H148.53C148.694 25.9009 148.776 25.9829 148.776 26.147C149.573 25.9419 149.972 25.7017 149.972 25.4263V23.9849C149.972 23.5044 149.093 23.2642 147.335 23.2642H146.131Z" fill="black"/>
<path d="M156.856 59.6342C157.226 59.3468 157.711 59.5356 158.309 60.2003L158.554 60.5167C159.13 60.0697 159.884 59.3714 160.816 58.4218C160.87 58.4913 160.932 58.4991 161.001 58.4452C160.398 57.5617 160.212 57.0302 160.444 56.8506L160.76 56.6051C160.971 56.4415 161.377 56.7468 161.977 57.5209C163.157 59.0409 163.276 60.3575 162.335 61.4707C162.89 62.0372 163.226 62.3964 163.344 62.5481L164.926 61.3209C165.381 61.0374 165.674 60.9792 165.804 61.1464L166.13 61.5669C166.208 61.6672 166.184 61.8545 166.059 62.1287L164.477 63.3559L163.818 64.0347L163.737 63.9305L163.605 64.1993L161.707 65.6719C161.247 65.8064 160.88 65.6975 160.607 65.3451C160.529 65.2448 160.553 65.0576 160.678 64.7834L162.368 63.4724L161.958 62.9438L161.443 62.4961C161.513 62.4423 161.521 62.3806 161.467 62.3112C160.201 63.2929 159.16 63.2565 158.342 62.202L156.818 60.6769C156.561 60.2012 156.573 59.8537 156.856 59.6342ZM159.476 61.4891L159.556 61.5932C159.689 61.7167 159.815 61.7326 159.933 61.6408C161.271 60.6032 161.803 59.9082 161.529 59.5559L161.421 59.6397C160.961 59.9968 160.312 60.6133 159.476 61.4891ZM162.942 65.7338L165.052 64.0966C165.685 63.6057 166.247 63.6766 166.737 64.3093C167.795 65.8534 168.086 66.8101 167.611 67.1792C167.183 67.2923 166.898 67.2889 166.756 67.1688L165.761 65.2336L164.496 66.2153C163.58 66.9257 162.959 67.07 162.632 66.6482C162.486 66.312 162.589 66.0072 162.942 65.7338ZM162.668 55.1128L162.88 54.9482C163.162 54.956 163.358 54.917 163.469 54.8312L164.289 55.8882L164.803 56.3359L166.809 54.7795L166.726 54.6715C165.907 53.617 165.78 52.8713 166.343 52.4343L166.801 52.586C167.519 53.6604 167.92 54.2515 168.004 54.3596L168.519 54.8004C169.612 56.2098 169.807 57.1879 169.102 57.7347C168.817 57.9561 168.21 58.4827 167.281 59.3144C166.648 59.8053 165.407 59.0768 163.558 57.1288L162.576 55.8635C162.491 55.7529 162.521 55.5027 162.668 55.1128ZM168.992 51.053C169.092 50.9751 169.369 51.0426 169.822 51.2552L170.128 51.8646L170.538 52.3931C170.612 52.4883 170.905 52.4301 171.417 52.2186C171.489 52.1627 171.497 52.0988 171.441 52.0268C172.07 51.6746 172.461 51.5976 172.615 51.7956L172.941 52.2161C173.033 52.4829 172.902 52.753 172.55 53.0263L171.917 53.5172L171.624 53.5777L172.854 55.1633C172.932 55.2636 172.909 55.4508 172.784 55.725L172.259 56.1321C172.149 55.9906 172.024 55.9748 171.882 56.0845L170.49 54.2906C170.367 54.1312 170.221 54.0176 170.053 53.9501C169.999 53.8806 170.008 53.818 170.08 53.7621L169.398 53.1052L168.497 51.944C168.665 51.4757 168.83 51.1787 168.992 51.053ZM166.125 57.1709L165.916 57.3325L165.997 57.4367C166.394 57.8046 166.663 57.9337 166.804 57.824C167.692 57.0776 168.095 56.6517 168.013 56.5462C167.973 56.4948 167.844 56.257 167.626 55.8327C166.98 56.4495 166.48 56.8955 166.125 57.1709ZM169.815 58.8687C169.884 58.8148 169.947 58.8239 170.003 58.8959L170.66 58.2132L172.009 57.3395C172.324 56.9801 172.648 56.6707 172.982 56.4113C173.301 56.5351 173.535 56.6934 173.684 56.8863L174.011 57.3068L172.91 58.5007C172.72 58.537 172.587 58.5841 172.513 58.642C172.43 58.8172 172.352 58.9337 172.277 58.9916L172.196 58.8874L172.065 59.1562L171.853 59.3208L171.564 59.3783C171.618 59.4477 171.609 59.5104 171.537 59.5662C172.279 60.2306 172.72 60.508 172.862 60.3982L174.656 59.0064C174.867 58.8428 175.081 58.9012 175.298 59.1815C175.681 59.6753 175.275 60.3861 174.079 61.314C172.953 62.188 171.925 62.027 170.998 60.8311C170.926 60.7385 170.555 60.4063 169.884 59.8345L169.72 59.6223C169.634 59.5117 169.666 59.2605 169.815 58.8687ZM172.397 46.903C173.043 46.4022 173.85 46.2825 174.819 46.5441C175.191 46.874 175.445 47.1277 175.583 47.3051C176.165 48.4319 176.16 49.2247 175.568 49.6836L175.144 50.0129C173.549 50.5702 172.343 50.3217 171.525 49.2672C171.197 48.8454 171.488 48.0573 172.397 46.903ZM172.665 48.5551L172.827 48.7634C173.663 49.0174 174.267 48.9997 174.64 48.7104C174.564 48.3203 174.444 48.0198 174.28 47.8089C173.765 47.7555 173.374 47.8325 173.106 48.04L172.665 48.5551ZM175.564 51.2073L175.644 51.3115L175.776 51.0427L178.098 49.2409C178.363 49.1467 178.632 49.2758 178.906 49.6281L178.986 49.7323C179.072 49.8429 179.04 50.0941 178.891 50.4859L176.993 51.9585C176.587 52.2738 176.05 52.7455 175.384 53.3737C175.06 53.5346 174.701 53.3617 174.308 52.855C174.492 52.3748 174.91 51.8255 175.564 51.2073ZM179.123 51.6532C179.545 51.3259 180.493 52.1126 181.968 54.0133C182.184 54.6322 182.059 55.1233 181.59 55.4864L181.274 55.7319C179.801 56.7385 178.879 57.0026 178.508 56.5242L176.79 54.3098C176.517 53.9574 177.295 53.0719 179.123 51.6532ZM178.499 54.3376L179.316 55.3908L180.477 54.4898L179.415 53.1203C178.694 53.7903 178.389 54.1961 178.499 54.3376ZM180.102 43.2923L180.206 43.2115C181.016 42.583 181.996 42.6115 183.146 43.2973C183.693 43.8535 184.138 44.3528 184.482 44.7952L185.628 46.2728C185.911 46.638 185.968 46.9317 185.799 47.1539L185.378 47.4801C185.008 47.5819 184.676 47.4437 184.383 47.0657L183.647 46.1166C183.302 46.384 182.433 47.2268 181.041 48.6449L180.315 48.3618C179.938 47.8757 180.748 46.7402 182.746 44.9554L182.339 44.4307C181.763 44.1979 181.422 44.1224 181.316 44.2042L180.155 45.1052C179.001 46.3423 178.381 46.9948 178.293 47.0626L177.567 46.7795C177.132 46.2188 177.977 45.0564 180.102 43.2923ZM185.92 38.7787L186.024 38.6979C186.834 38.0694 187.814 38.0979 188.964 38.7837C189.511 39.3399 189.956 39.8392 190.299 40.2816L191.446 41.7592C191.729 42.1244 191.786 42.4181 191.616 42.6403L191.196 42.9665C190.826 43.0683 190.494 42.9301 190.201 42.5521L189.464 41.603C189.12 41.8704 188.251 42.7132 186.859 44.1313L186.132 43.8482C185.755 43.3621 186.566 42.2266 188.563 40.4418L188.156 39.9171C187.58 39.6843 187.239 39.6088 187.134 39.6906L185.973 40.5916C184.819 41.8287 184.198 42.4812 184.111 42.549L183.384 42.2659C182.949 41.7052 183.795 40.5428 185.92 38.7787Z" fill="black"/>
<path d="M161.932 16.1053C163.683 16.1053 165.702 15.9457 167.292 16.8397C168.566 17.5564 169.95 19.0469 170.726 20.2936C172.429 23.0314 171.758 27.1173 171.758 30.1887C171.758 32.5878 171.666 34.6884 171.033 37.007C170.431 39.2175 167.777 40.5959 166.001 41.6519C162.969 43.4559 159.542 45.0356 156.106 45.8501C152.635 46.6731 149.119 46.4753 145.576 46.4753C144.674 46.4753 143.938 46.4487 143.174 45.9394" stroke="black" stroke-width="2.5" stroke-linecap="round"/>
<path d="M146.748 41.1157C145.056 42.1564 144.081 43.4589 142.917 44.9566C142.405 45.6144 142.623 46.5112 143.075 47.1897C144.041 48.6377 145.027 50.0621 145.924 51.5567C146.193 52.0061 146.289 52.8556 146.748 53.0851" stroke="black" stroke-width="2.5" stroke-linecap="round"/>
</svg>
