<svg width="247" height="72" viewBox="0 0 247 72" fill="none" xmlns="http://www.w3.org/2000/svg">
<path d="M59.0029 7.07617V7.32227L59.4863 7.07617H59.7324C60.6289 7.07617 61.1885 7.47754 61.4111 8.28027C61.2178 9.40527 60.8164 9.96777 60.207 9.96777L58.5283 9.72168C58.2471 9.88574 57.9248 9.96777 57.5615 9.96777V10.4424C57.5615 11.7314 58.042 12.376 59.0029 12.376C60.0811 12.376 60.9658 12.6162 61.6572 13.0967L61.4111 10.9258C61.4111 9.08008 62.2139 8.03711 63.8193 7.79688H65.2607C65.4248 7.79688 65.5068 7.87891 65.5068 8.04297L65.9902 7.79688H67.1855C67.4199 7.79688 67.6631 8.03711 67.915 8.51758V9.00098C67.915 10.126 67.2734 10.6885 65.9902 10.6885C64.8418 10.5244 64.2002 10.4424 64.0654 10.4424V11.8926C64.0654 12.8535 64.7861 13.334 66.2275 13.334C66.4561 13.334 66.6963 13.5742 66.9482 14.0547V14.3008C66.9482 15.1621 66.6289 15.7217 65.9902 15.9795H64.3027C62.9785 15.9795 62.0967 15.0977 61.6572 13.334H61.4111C61.4111 14.6172 61.1709 15.2588 60.6904 15.2588H59.9697C56.6006 15.2588 54.916 13.8965 54.916 11.1719V9.72168C54.916 9.34082 55.1562 8.62012 55.6367 7.55957L56.1201 7.79688V7.32227H57.8076L59.0029 7.07617ZM72.4854 7.79688H72.7227C72.9746 7.79688 73.2969 8.11914 73.6895 8.76367C73.8477 11.916 73.9268 14.002 73.9268 15.0215H73.6895C73.6895 15.1797 73.7686 15.2588 73.9268 15.2588C73.9268 15.6807 73.6865 16.5625 73.2061 17.9043H72.002C71.75 17.9043 71.4307 17.585 71.0439 16.9463C71.0439 16.583 71.123 16.2607 71.2812 15.9795L71.0439 15.4961C71.2021 14.6289 71.2812 13.9082 71.2812 13.334H68.1523C67.9004 13.334 67.5781 13.0146 67.1855 12.376V12.1299C67.291 11.1689 67.5342 10.6885 67.915 10.6885H69.1191C69.2773 10.6885 69.3564 10.7676 69.3564 10.9258L69.8398 10.6885H71.0439C71.0439 10.3662 71.123 10.2051 71.2812 10.2051L71.0439 9.72168V9.24707C71.0439 8.28027 71.5244 7.79688 72.4854 7.79688ZM64.3027 19.3545L69.8398 20.0752C70.6426 20.6729 71.0439 21.6338 71.0439 22.958C71.0439 25.4951 70.4023 26.8604 69.1191 27.0537C68.3164 26.8311 67.915 26.2686 67.915 25.3662V25.1289C67.915 24.9766 68.0732 24.335 68.3896 23.2041V22.4834H68.1523L64.7861 22.2373L64.3027 22.4834C63.3418 22.0674 62.8613 21.5049 62.8613 20.7959C63.0195 20.4854 63.0986 20.2451 63.0986 20.0752C62.9404 20.0752 62.8613 19.9932 62.8613 19.8291C63.8223 19.7178 64.3027 19.5596 64.3027 19.3545ZM83.3311 6.11816H83.8145C84.207 6.44043 84.5293 6.60156 84.7812 6.60156V9.00977L85.0186 10.2139H89.5889V9.96777C89.5889 7.56543 90.2305 6.36426 91.5137 6.36426L91.9971 7.08496C91.833 9.40527 91.751 10.6885 91.751 10.9346L91.9971 12.1299C91.9971 15.3408 91.1943 16.9463 89.5889 16.9463C88.9385 16.9463 87.4941 17.0254 85.2559 17.1836C83.8145 17.1836 82.8535 14.7783 82.373 9.96777V7.08496C82.373 6.83301 82.6924 6.51074 83.3311 6.11816ZM96.8047 7.32227C97.0332 7.32227 97.3525 7.72363 97.7627 8.52637L97.5254 9.73047V10.9346C97.5254 11.1514 98.0059 11.3916 98.9668 11.6553C99.1309 11.6553 99.2129 11.5732 99.2129 11.4092C100.496 11.6025 101.138 11.9248 101.138 12.376V13.334C100.974 13.8145 100.49 14.0547 99.6875 14.0547H98.2461L97.7627 13.8174V17.4297C97.7627 17.6582 97.5225 17.8984 97.042 18.1504H95.8467C95.8467 17.8281 95.6855 17.667 95.3633 17.667V13.5801C95.3633 13.2168 95.2812 12.8945 95.1172 12.6133C95.1172 12.4551 95.1992 12.376 95.3633 12.376L95.1172 10.6885V8.04297C95.873 7.5625 96.4355 7.32227 96.8047 7.32227ZM85.9766 12.8594H85.502V13.0967C85.6602 14.0576 85.9004 14.5381 86.2227 14.5381C88.3086 14.4561 89.3516 14.2949 89.3516 14.0547C89.3516 13.9375 89.4307 13.457 89.5889 12.6133C87.9893 12.7773 86.7852 12.8594 85.9766 12.8594ZM89.3516 19.3457C89.5098 19.3457 89.5889 19.4277 89.5889 19.5918L91.2764 19.3457L94.1592 19.5918C95.0029 19.4277 95.8057 19.3457 96.5674 19.3457C96.8838 19.873 97.042 20.3564 97.042 20.7959V21.7539L94.1592 22.2373C93.8486 22.0791 93.6084 22 93.4385 22C93.1279 22.1582 92.8877 22.2373 92.7178 22.2373V22L92.2344 22.2373H91.751L91.2764 22C91.2764 22.1582 91.1943 22.2373 91.0303 22.2373C91.3525 24.001 91.6748 24.8828 91.9971 24.8828H96.084C96.5645 24.8828 96.8047 25.2021 96.8047 25.8408C96.8047 26.9658 95.4424 27.5283 92.7178 27.5283C90.1514 27.5283 88.8682 26.166 88.8682 23.4414C88.8682 23.2305 88.707 22.3486 88.3848 20.7959V20.3125C88.3848 20.0605 88.707 19.7383 89.3516 19.3457ZM113.917 9.73926C115.036 9.73926 115.596 10.7031 115.596 12.6309V14.3096C118.004 14.3096 119.208 14.79 119.208 15.751V16.2344C118.563 16.5566 118.241 16.7969 118.241 16.9551L117.037 16.7178H115.842L116.079 17.9131V21.042C116.079 21.2705 115.839 21.5107 115.358 21.7627H114.4C113.797 21.7627 113.396 18.3174 113.196 11.4268C113.032 11.4268 112.95 11.3447 112.95 11.1807C113.278 10.2197 113.601 9.73926 113.917 9.73926ZM105.743 10.7061C106.101 10.7061 106.42 10.7852 106.701 10.9434C106.982 10.7852 107.305 10.7061 107.668 10.7061C109.203 10.7061 110.325 11.9072 111.034 14.3096V15.5137C110.829 18.2383 109.786 19.6006 107.905 19.6006H106.464C103.739 18.5811 102.377 17.1367 102.377 15.2676C102.377 12.707 103.338 11.1865 105.26 10.7061H105.743ZM104.785 14.3096V14.793C104.785 16.1113 105.664 16.9932 107.422 17.4385C108.154 17.1279 108.556 16.8057 108.626 16.4717V14.0723C108.626 13.5215 107.744 13.041 105.98 12.6309C105.184 12.8535 104.785 13.4131 104.785 14.3096ZM132.945 5.17773H133.666C134.469 5.17773 134.87 6.93848 134.87 10.46H136.312C137.214 10.46 137.776 10.8613 137.999 11.6641C137.999 12.5078 137.196 12.9883 135.591 13.1055H135.107V13.5889C135.107 14.1631 135.189 14.8838 135.354 15.751C135.113 16.3955 134.873 16.7178 134.633 16.7178H133.429C132.79 16.7178 132.31 13.2695 131.987 6.37305C132.298 5.64648 132.617 5.24805 132.945 5.17773ZM126.696 5.41504C127.089 5.41504 127.49 7.73828 127.9 12.3848C127.9 12.6602 127.499 12.9004 126.696 13.1055C125.858 13.1055 125.217 11.4238 124.771 8.06055L121.651 8.54395C120.849 8.33887 120.447 8.09863 120.447 7.82324V6.61914C120.447 6.05664 122.53 5.65527 126.696 5.41504ZM126.213 17.9131H127.18C127.66 17.9131 128.141 19.1963 128.621 21.7627H131.987C132.849 21.7627 133.408 22.082 133.666 22.7207V23.4414C133.408 24.0859 132.849 24.4082 131.987 24.4082C131.665 24.4082 131.504 24.3262 131.504 24.1621L130.3 24.4082H128.621C127.033 24.4082 126.072 23.2861 125.738 21.042L125.492 18.6338C125.492 18.4053 125.732 18.165 126.213 17.9131ZM149.574 7.82324H150.295C150.658 7.82324 150.898 8.22168 151.016 9.01855C151.016 9.42871 150.775 10.3105 150.295 11.6641C153.389 14.2773 155.07 15.8799 155.34 16.4717V17.4385C155.34 17.667 155.1 17.9072 154.619 18.1592H153.661L149.574 14.3096H149.328C149.328 15.9971 149.088 17.4385 148.607 18.6338H146.929C146.929 18.3525 146.768 17.9541 146.445 17.4385C147.611 11.0283 148.654 7.82324 149.574 7.82324ZM159.664 8.29785C160.625 8.29785 161.105 9.01855 161.105 10.46C161.105 11.5029 161.188 12.3057 161.352 12.8682H164.718C164.993 12.8682 165.233 13.2695 165.438 14.0723C165.438 14.8691 164.076 15.2676 161.352 15.2676C161.352 15.7598 161.51 17.2041 161.826 19.6006L160.868 20.3213H160.631C159.67 20.3213 159.189 19.6006 159.189 18.1592L158.706 8.78125L159.664 8.29785ZM171.002 6.85645H171.248C173.018 6.85645 174.058 8.45898 174.368 11.6641V11.9014C174.368 13.5068 173.088 14.3096 170.527 14.3096L170.281 14.793C170.867 15.2734 171.43 15.5137 171.969 15.5137H172.206C172.569 15.5137 172.889 15.4316 173.164 15.2676C173.967 15.4727 174.368 15.7129 174.368 15.9883V17.1924C174.368 17.6143 173.727 17.9365 172.443 18.1592C169.402 18.1592 167.882 16.876 167.882 14.3096C167.882 12.7686 169.083 11.8867 171.485 11.6641C171.808 11.6641 171.969 11.5029 171.969 11.1807C171.746 10.0615 171.424 9.50195 171.002 9.50195H168.603V9.98535H167.636L166.678 9.26465C166.678 7.81738 167.398 7.09375 168.84 7.09375C169.438 6.93555 170.158 6.85645 171.002 6.85645ZM180.143 8.06055C180.939 8.16016 181.338 8.64062 181.338 9.50195V12.3848H181.584C183.465 12.3848 184.906 12.625 185.908 13.1055V14.793C185.428 14.793 185.188 14.9512 185.188 15.2676L184.704 15.0303H181.584C181.742 16.4482 181.821 17.3301 181.821 17.6758C181.511 18.4082 181.191 18.8096 180.863 18.8799H180.617C179.656 18.8799 179.176 18.3174 179.176 17.1924H179.422L179.176 16.709C179.018 13.2637 178.938 10.8613 178.938 9.50195C178.938 8.92188 179.34 8.44141 180.143 8.06055ZM175.81 20.3213C178.856 20.3213 180.38 21.2822 180.38 23.2041V24.1621C180.38 26.8867 179.337 28.249 177.251 28.249H176.056C175.892 28.249 175.81 28.1699 175.81 28.0117C175.651 28.0117 175.572 28.0908 175.572 28.249C173.328 27.9443 172.206 27.3057 172.206 26.333C171.884 24.2354 171.723 22.7119 171.723 21.7627C171.723 20.8018 173.085 20.3213 175.81 20.3213ZM174.131 22.9668C174.453 24.332 174.614 25.2109 174.614 25.6035H176.53C176.694 25.6035 176.776 25.6855 176.776 25.8496C177.573 25.6445 177.972 25.4043 177.972 25.1289V23.6875C177.972 23.207 177.093 22.9668 175.335 22.9668H174.131Z" fill="black"/>
<path d="M207.856 49.3368C208.226 49.0495 208.711 49.2382 209.309 49.903L209.554 50.2193C210.13 49.7724 210.884 49.0741 211.816 48.1245C211.87 48.1939 211.932 48.2017 212.001 48.1478C211.398 47.2643 211.212 46.7328 211.444 46.5532L211.76 46.3078C211.971 46.1442 212.377 46.4494 212.977 47.2236C214.157 48.7436 214.276 50.0602 213.335 51.1733C213.89 51.7399 214.226 52.099 214.344 52.2507L215.926 51.0236C216.381 50.74 216.674 50.6819 216.804 50.849L217.13 51.2696C217.208 51.3699 217.184 51.5571 217.059 51.8313L215.477 53.0585L214.818 53.7373L214.737 53.6332L214.605 53.902L212.707 55.3746C212.247 55.5091 211.88 55.4001 211.607 55.0478C211.529 54.9475 211.553 54.7602 211.678 54.486L213.368 53.175L212.958 52.6465L212.443 52.1988C212.513 52.1449 212.521 52.0832 212.467 52.0138C211.201 52.9955 210.16 52.9592 209.342 51.9047L207.818 50.3795C207.561 49.9039 207.573 49.5563 207.856 49.3368ZM210.476 51.1917L210.556 51.2959C210.689 51.4194 210.815 51.4352 210.933 51.3434C212.271 50.3058 212.803 49.6109 212.529 49.2585L212.421 49.3423C211.961 49.6995 211.312 50.316 210.476 51.1917ZM213.942 55.4364L216.052 53.7992C216.685 53.3084 217.247 53.3793 217.737 54.012C218.795 55.5561 219.086 56.5127 218.611 56.8819C218.183 56.995 217.898 56.9915 217.756 56.8714L216.761 54.9362L215.496 55.918C214.58 56.6283 213.959 56.7726 213.632 56.3508C213.486 56.0146 213.589 55.7098 213.942 55.4364ZM213.668 44.8155L213.88 44.6509C214.162 44.6586 214.358 44.6196 214.469 44.5338L215.289 45.5909L215.803 46.0386L217.809 44.4822L217.726 44.3741C216.907 43.3197 216.78 42.5739 217.343 42.1369L217.801 42.2887C218.519 43.363 218.92 43.9542 219.004 44.0622L219.519 44.5031C220.612 45.9125 220.807 46.8906 220.102 47.4373C219.817 47.6588 219.21 48.1854 218.281 49.0171C217.648 49.5079 216.407 48.7794 214.558 46.8315L213.576 45.5661C213.491 45.4555 213.521 45.2053 213.668 44.8155ZM219.992 40.7556C220.092 40.6778 220.369 40.7452 220.822 40.9579L221.128 41.5672L221.538 42.0957C221.612 42.1909 221.905 42.1327 222.417 41.9212C222.489 41.8653 222.497 41.8014 222.441 41.7294C223.07 41.3773 223.461 41.3002 223.615 41.4983L223.941 41.9188C224.033 42.1855 223.902 42.4556 223.55 42.729L222.917 43.2199L222.624 43.2803L223.854 44.8659C223.932 44.9662 223.909 45.1535 223.784 45.4277L223.259 45.8347C223.149 45.6933 223.024 45.6774 222.882 45.7872L221.49 43.9933C221.367 43.8338 221.221 43.7203 221.053 43.6527C220.999 43.5833 221.008 43.5206 221.08 43.4647L220.398 42.8078L219.497 41.6466C219.665 41.1783 219.83 40.8813 219.992 40.7556ZM217.125 46.8735L216.916 47.0352L216.997 47.1393C217.394 47.5073 217.663 47.6363 217.804 47.5266C218.692 46.7802 219.095 46.3543 219.013 46.2489C218.973 46.1974 218.844 45.9596 218.626 45.5354C217.98 46.1521 217.48 46.5982 217.125 46.8735ZM220.815 48.5713C220.884 48.5174 220.947 48.5265 221.003 48.5985L221.66 47.9158L223.009 47.0421C223.324 46.6828 223.648 46.3734 223.982 46.114C224.301 46.2377 224.535 46.396 224.684 46.5889L225.011 47.0094L223.91 48.2033C223.72 48.2396 223.587 48.2867 223.513 48.3446C223.43 48.5198 223.352 48.6363 223.277 48.6942L223.196 48.59L223.065 48.8588L222.853 49.0234L222.564 49.0809C222.618 49.1503 222.609 49.213 222.537 49.2689C223.279 49.9333 223.72 50.2106 223.862 50.1008L225.656 48.7091C225.867 48.5454 226.081 48.6038 226.298 48.8841C226.681 49.3779 226.275 50.0888 225.079 51.0166C223.953 51.8906 222.925 51.7296 221.998 50.5337C221.926 50.4411 221.555 50.1089 220.884 49.5371L220.72 49.3249C220.634 49.2143 220.666 48.9631 220.815 48.5713ZM223.397 36.6057C224.043 36.1048 224.85 35.9852 225.819 36.2467C226.191 36.5766 226.445 36.8303 226.583 37.0078C227.165 38.1345 227.16 38.9273 226.568 39.3863L226.144 39.7155C224.549 40.2729 223.343 40.0243 222.525 38.9698C222.197 38.548 222.488 37.76 223.397 36.6057ZM223.665 38.2577L223.827 38.4661C224.663 38.72 225.267 38.7024 225.64 38.413C225.564 38.0229 225.444 37.7224 225.28 37.5115C224.765 37.4581 224.374 37.5351 224.106 37.7427L223.665 38.2577ZM226.564 40.91L226.644 41.0141L226.776 40.7454L229.098 38.9435C229.363 38.8493 229.632 38.9784 229.906 39.3308L229.986 39.4349C230.072 39.5455 230.04 39.7967 229.891 40.1885L227.993 41.6611C227.587 41.9764 227.05 42.4481 226.384 43.0763C226.06 43.2372 225.701 43.0643 225.308 42.5577C225.492 42.0774 225.91 41.5282 226.564 40.91ZM230.123 41.3558C230.545 41.0286 231.493 41.8153 232.968 43.7159C233.184 44.3349 233.059 44.8259 232.59 45.1891L232.274 45.4345C230.801 46.4411 229.879 46.7052 229.508 46.2269L227.79 44.0124C227.517 43.6601 228.295 42.7745 230.123 41.3558ZM229.499 44.0402L230.316 45.0934L231.477 44.1925L230.415 42.8229C229.694 43.493 229.389 43.8987 229.499 44.0402ZM231.102 32.995L231.206 32.9141C232.016 32.2856 232.996 32.3142 234.146 32.9999C234.693 33.5562 235.138 34.0555 235.482 34.4978L236.628 35.9754C236.911 36.3406 236.968 36.6343 236.799 36.8565L236.378 37.1828C236.008 37.2845 235.676 37.1464 235.383 36.7683L234.647 35.8193C234.302 36.0867 233.433 36.9294 232.041 38.3475L231.315 38.0644C230.938 37.5783 231.748 36.4429 233.746 34.658L233.339 34.1334C232.763 33.9006 232.422 33.8251 232.316 33.9069L231.155 34.8078C230.001 36.0449 229.381 36.6974 229.293 36.7652L228.567 36.4821C228.132 35.9215 228.977 34.7591 231.102 32.995ZM236.92 28.4814L237.024 28.4005C237.834 27.772 238.814 27.8006 239.964 28.4863C240.511 29.0426 240.956 29.5419 241.299 29.9842L242.446 31.4618C242.729 31.827 242.786 32.1207 242.616 32.3429L242.196 32.6692C241.826 32.7709 241.494 32.6328 241.201 32.2547L240.464 31.3057C240.12 31.5731 239.251 32.4158 237.859 33.8339L237.132 33.5508C236.755 33.0647 237.566 31.9293 239.563 30.1445L239.156 29.6198C238.58 29.387 238.239 29.3115 238.134 29.3933L236.973 30.2942C235.819 31.5313 235.198 32.1838 235.111 32.2516L234.384 31.9685C233.949 31.4079 234.795 30.2455 236.92 28.4814Z" fill="black"/>
<path d="M191.338 13.5936C192.906 13.3267 194.664 13.4318 196.245 13.5108C199.159 13.6566 201.83 14.6214 204.387 15.9823C205.247 16.4403 206.237 16.8708 206.87 17.6496C207.192 18.0458 207.432 18.5279 207.721 18.9503C208.328 19.8352 208.917 20.6643 209.371 21.6582C210.262 23.6089 210.92 25.8502 210.92 28.0082C210.92 30.4434 211.301 32.8703 210.642 35.2627C210.085 37.2871 209.345 39.295 207.881 40.8382C206.453 42.3438 204.709 43.2089 202.885 44.1373C200.973 45.1108 198.975 45.6737 196.896 46.1357C196.102 46.3122 195.365 46.6915 194.531 46.6915" stroke="black" stroke-width="2" stroke-linecap="round"/>
<path d="M197.703 39.7852C196.989 40.8418 196.303 41.9139 195.633 42.9998C195.122 43.8295 194.576 44.6678 194.132 45.5397C194.027 45.7457 193.989 45.9767 193.869 46.1758C193.806 46.2817 193.776 46.4315 193.759 46.5518C193.747 46.6347 193.668 46.6732 193.669 46.7542C193.676 47.0629 194.024 47.2411 194.248 47.3831C195.199 47.9865 196.029 48.7561 196.944 49.4121C197.671 49.933 198.427 50.3957 199.222 50.7929C199.456 50.9101 199.725 51.0461 199.916 51.2363" stroke="black" stroke-width="2" stroke-linecap="round"/>
</svg>
