<svg width="247" height="72" viewBox="0 0 247 72" fill="none" xmlns="http://www.w3.org/2000/svg">
<path d="M72.6689 8.53955V8.73096L73.0449 8.53955H73.2363C73.9336 8.53955 74.3688 8.85173 74.542 9.47607C74.3916 10.3511 74.0794 10.7886 73.6055 10.7886L72.2998 10.5972C72.0811 10.7248 71.8304 10.7886 71.5479 10.7886V11.1577C71.5479 12.1603 71.9215 12.6616 72.6689 12.6616C73.5075 12.6616 74.1956 12.8485 74.7334 13.2222L74.542 11.5337C74.542 10.0981 75.1663 9.28695 76.415 9.1001H77.5361C77.6637 9.1001 77.7275 9.1639 77.7275 9.2915L78.1035 9.1001H79.0332C79.2155 9.1001 79.4046 9.28695 79.6006 9.66064V10.0366C79.6006 10.9116 79.1016 11.3491 78.1035 11.3491C77.2103 11.2215 76.7113 11.1577 76.6064 11.1577V12.2856C76.6064 13.033 77.167 13.4067 78.2881 13.4067C78.4658 13.4067 78.6527 13.5936 78.8486 13.9673V14.1587C78.8486 14.8286 78.6003 15.2638 78.1035 15.4644H76.791C75.7611 15.4644 75.0752 14.7785 74.7334 13.4067H74.542C74.542 14.4048 74.3551 14.9038 73.9814 14.9038H73.4209C70.8005 14.9038 69.4902 13.8442 69.4902 11.7251V10.5972C69.4902 10.3009 69.6771 9.7404 70.0508 8.91553L70.4268 9.1001V8.73096H71.7393L72.6689 8.53955ZM83.1553 9.1001H83.3398C83.5358 9.1001 83.7865 9.35075 84.0918 9.85205C84.2148 12.3039 84.2764 13.9263 84.2764 14.7192H84.0918C84.0918 14.8423 84.1533 14.9038 84.2764 14.9038C84.2764 15.2319 84.0895 15.9178 83.7158 16.9614H82.7793C82.5833 16.9614 82.335 16.7131 82.0342 16.2163C82.0342 15.9338 82.0957 15.6831 82.2188 15.4644L82.0342 15.0884C82.1572 14.4139 82.2188 13.8534 82.2188 13.4067H79.7852C79.5892 13.4067 79.3385 13.1584 79.0332 12.6616V12.4702C79.1152 11.7228 79.3044 11.3491 79.6006 11.3491H80.5371C80.6602 11.3491 80.7217 11.4106 80.7217 11.5337L81.0977 11.3491H82.0342C82.0342 11.0985 82.0957 10.9731 82.2188 10.9731L82.0342 10.5972V10.228C82.0342 9.47607 82.4079 9.1001 83.1553 9.1001ZM76.791 18.0894L81.0977 18.6499C81.722 19.1147 82.0342 19.8621 82.0342 20.8921C82.0342 22.8654 81.5352 23.9272 80.5371 24.0776C79.9128 23.9045 79.6006 23.467 79.6006 22.7651V22.5806C79.6006 22.4621 79.7236 21.9631 79.9697 21.0835V20.5229H79.7852L77.167 20.3315L76.791 20.5229C76.0436 20.1994 75.6699 19.7619 75.6699 19.2104C75.793 18.9689 75.8545 18.7821 75.8545 18.6499C75.7314 18.6499 75.6699 18.5861 75.6699 18.4585C76.4173 18.3719 76.791 18.2489 76.791 18.0894ZM91.5908 7.79443H91.9668C92.2721 8.04508 92.5228 8.17041 92.7188 8.17041V10.0435L92.9033 10.98H96.458V10.7886C96.458 8.92008 96.957 7.98584 97.9551 7.98584L98.3311 8.54639C98.2035 10.3511 98.1396 11.3491 98.1396 11.5405L98.3311 12.4702C98.3311 14.9676 97.7067 16.2163 96.458 16.2163C95.9521 16.2163 94.8288 16.2778 93.0879 16.4009C91.9668 16.4009 91.2194 14.5301 90.8457 10.7886V8.54639C90.8457 8.35042 91.0941 8.09977 91.5908 7.79443ZM102.07 8.73096C102.248 8.73096 102.496 9.04313 102.815 9.66748L102.631 10.604V11.5405C102.631 11.7091 103.005 11.896 103.752 12.1011C103.88 12.1011 103.943 12.0373 103.943 11.9097C104.941 12.0601 105.44 12.3107 105.44 12.6616V13.4067C105.313 13.7804 104.937 13.9673 104.312 13.9673H103.191L102.815 13.7827V16.5923C102.815 16.77 102.629 16.9569 102.255 17.1528H101.325C101.325 16.9022 101.2 16.7769 100.949 16.7769V13.5981C100.949 13.3156 100.885 13.0649 100.758 12.8462C100.758 12.7231 100.822 12.6616 100.949 12.6616L100.758 11.3491V9.2915C101.346 8.91781 101.783 8.73096 102.07 8.73096ZM93.6484 13.0376H93.2793V13.2222C93.4023 13.9696 93.5892 14.3433 93.8398 14.3433C95.4622 14.2795 96.2734 14.1541 96.2734 13.9673C96.2734 13.8761 96.335 13.5024 96.458 12.8462C95.2139 12.9738 94.2773 13.0376 93.6484 13.0376ZM96.2734 18.0825C96.3965 18.0825 96.458 18.1463 96.458 18.2739L97.7705 18.0825L100.013 18.2739C100.669 18.1463 101.293 18.0825 101.886 18.0825C102.132 18.4927 102.255 18.8687 102.255 19.2104V19.9556L100.013 20.3315C99.7712 20.2085 99.5843 20.147 99.4521 20.147C99.2106 20.27 99.0238 20.3315 98.8916 20.3315V20.147L98.5156 20.3315H98.1396L97.7705 20.147C97.7705 20.27 97.7067 20.3315 97.5791 20.3315C97.8298 21.7033 98.0804 22.3892 98.3311 22.3892H101.51C101.883 22.3892 102.07 22.6375 102.07 23.1343C102.07 24.0093 101.011 24.4468 98.8916 24.4468C96.8955 24.4468 95.8975 23.3872 95.8975 21.2681C95.8975 21.104 95.7721 20.4181 95.5215 19.2104V18.8345C95.5215 18.6385 95.7721 18.3879 96.2734 18.0825ZM115.38 10.6108C116.25 10.6108 116.686 11.3605 116.686 12.8599V14.1655C118.559 14.1655 119.495 14.5392 119.495 15.2866V15.6626C118.994 15.9132 118.743 16.1001 118.743 16.2231L117.807 16.0386H116.877L117.062 16.9683V19.4019C117.062 19.5796 116.875 19.7664 116.501 19.9624H115.756C115.286 19.9624 114.974 17.2827 114.819 11.9233C114.692 11.9233 114.628 11.8595 114.628 11.7319C114.883 10.9845 115.134 10.6108 115.38 10.6108ZM109.022 11.3628C109.3 11.3628 109.549 11.4243 109.768 11.5474C109.986 11.4243 110.237 11.3628 110.52 11.3628C111.714 11.3628 112.586 12.297 113.138 14.1655V15.1021C112.978 17.2212 112.167 18.2808 110.704 18.2808H109.583C107.464 17.4878 106.404 16.3644 106.404 14.9106C106.404 12.9191 107.152 11.7365 108.646 11.3628H109.022ZM108.277 14.1655V14.5415C108.277 15.5669 108.961 16.2528 110.328 16.5991C110.898 16.3576 111.21 16.1069 111.265 15.8472V13.981C111.265 13.5526 110.579 13.1789 109.207 12.8599C108.587 13.033 108.277 13.4683 108.277 14.1655ZM130.18 7.06299H130.74C131.365 7.06299 131.677 8.43245 131.677 11.1714H132.798C133.5 11.1714 133.937 11.4836 134.11 12.1079C134.11 12.7642 133.486 13.1379 132.237 13.229H131.861V13.605C131.861 14.0516 131.925 14.6121 132.053 15.2866C131.866 15.7879 131.679 16.0386 131.492 16.0386H130.556C130.059 16.0386 129.685 13.3566 129.435 7.99268C129.676 7.42757 129.924 7.11768 130.18 7.06299ZM125.319 7.24756C125.625 7.24756 125.937 9.05452 126.256 12.6685C126.256 12.8826 125.944 13.0695 125.319 13.229C124.668 13.229 124.169 11.9211 123.822 9.30518L121.396 9.68115C120.771 9.52165 120.459 9.3348 120.459 9.12061V8.18408C120.459 7.74658 122.079 7.43441 125.319 7.24756ZM124.943 16.9683H125.695C126.069 16.9683 126.443 17.9663 126.816 19.9624H129.435C130.104 19.9624 130.54 20.2108 130.74 20.7075V21.2681C130.54 21.7694 130.104 22.02 129.435 22.02C129.184 22.02 129.059 21.9562 129.059 21.8286L128.122 22.02H126.816C125.581 22.02 124.834 21.1473 124.574 19.4019L124.383 17.5288C124.383 17.3511 124.57 17.1642 124.943 16.9683ZM143.113 9.12061H143.674C143.956 9.12061 144.143 9.4305 144.234 10.0503C144.234 10.3693 144.048 11.0552 143.674 12.1079C146.08 14.1405 147.388 15.3869 147.598 15.8472V16.5991C147.598 16.7769 147.411 16.9637 147.037 17.1597H146.292L143.113 14.1655H142.922C142.922 15.478 142.735 16.5991 142.361 17.5288H141.056C141.056 17.3101 140.93 17.0002 140.68 16.5991C141.587 11.6134 142.398 9.12061 143.113 9.12061ZM150.961 9.48975C151.708 9.48975 152.082 10.0503 152.082 11.1714C152.082 11.9826 152.146 12.6069 152.273 13.0444H154.892C155.106 13.0444 155.293 13.3566 155.452 13.981C155.452 14.6007 154.393 14.9106 152.273 14.9106C152.273 15.2935 152.396 16.4168 152.643 18.2808L151.897 18.8413H151.713C150.965 18.8413 150.592 18.2808 150.592 17.1597L150.216 9.86572L150.961 9.48975ZM159.779 8.36865H159.971C161.347 8.36865 162.156 9.61507 162.397 12.1079V12.2925C162.397 13.5412 161.402 14.1655 159.41 14.1655L159.219 14.5415C159.674 14.9152 160.112 15.1021 160.531 15.1021H160.716C160.998 15.1021 161.247 15.0382 161.461 14.9106C162.085 15.0701 162.397 15.257 162.397 15.4712V16.4077C162.397 16.7358 161.898 16.9865 160.9 17.1597C158.535 17.1597 157.353 16.1616 157.353 14.1655C157.353 12.967 158.287 12.2811 160.155 12.1079C160.406 12.1079 160.531 11.9826 160.531 11.7319C160.358 10.8615 160.107 10.4263 159.779 10.4263H157.913V10.8022H157.161L156.416 10.2417C156.416 9.11605 156.977 8.55322 158.098 8.55322C158.562 8.43018 159.123 8.36865 159.779 8.36865ZM166.889 9.30518C167.508 9.38265 167.818 9.75635 167.818 10.4263V12.6685H168.01C169.473 12.6685 170.594 12.8553 171.373 13.229V14.5415C170.999 14.5415 170.812 14.6646 170.812 14.9106L170.437 14.7261H168.01C168.133 15.8289 168.194 16.5148 168.194 16.7837C167.953 17.3534 167.704 17.6655 167.449 17.7202H167.258C166.51 17.7202 166.137 17.2827 166.137 16.4077H166.328L166.137 16.0317C166.014 13.3521 165.952 11.4836 165.952 10.4263C165.952 9.9751 166.264 9.6014 166.889 9.30518ZM163.519 18.8413C165.888 18.8413 167.073 19.5887 167.073 21.0835V21.8286C167.073 23.9478 166.262 25.0073 164.64 25.0073H163.71C163.582 25.0073 163.519 24.9458 163.519 24.8228C163.396 24.8228 163.334 24.8843 163.334 25.0073C161.589 24.7703 160.716 24.2736 160.716 23.5171C160.465 21.8856 160.34 20.7007 160.34 19.9624C160.34 19.215 161.399 18.8413 163.519 18.8413ZM162.213 20.8989C162.464 21.9608 162.589 22.6444 162.589 22.9497H164.079C164.207 22.9497 164.271 23.0135 164.271 23.1411C164.89 22.9816 165.2 22.7948 165.2 22.5806V21.4595C165.2 21.0858 164.517 20.8989 163.149 20.8989H162.213Z" fill="black"/>
<path d="M207.856 49.4838C208.226 49.1964 208.711 49.3852 209.309 50.05L209.554 50.3663C210.13 49.9193 210.884 49.2211 211.816 48.2715C211.87 48.3409 211.932 48.3487 212.001 48.2948C211.398 47.4113 211.212 46.8798 211.444 46.7002L211.76 46.4547C211.971 46.2911 212.377 46.5964 212.977 47.3705C214.157 48.8905 214.276 50.2071 213.335 51.3203C213.89 51.8868 214.226 52.246 214.344 52.3977L215.926 51.1705C216.381 50.887 216.674 50.8288 216.804 50.996L217.13 51.4165C217.208 51.5168 217.184 51.7041 217.059 51.9783L215.477 53.2055L214.818 53.8843L214.737 53.7802L214.605 54.0489L212.707 55.5215C212.247 55.656 211.88 55.5471 211.607 55.1947C211.529 55.0944 211.553 54.9072 211.678 54.633L213.368 53.322L212.958 52.7935L212.443 52.3457C212.513 52.2919 212.521 52.2302 212.467 52.1608C211.201 53.1425 210.16 53.1061 209.342 52.0516L207.818 50.5265C207.561 50.0508 207.573 49.7033 207.856 49.4838ZM210.476 51.3387L210.556 51.4429C210.689 51.5663 210.815 51.5822 210.933 51.4904C212.271 50.4528 212.803 49.7578 212.529 49.4055L212.421 49.4893C211.961 49.8465 211.312 50.4629 210.476 51.3387ZM213.942 55.5834L216.052 53.9462C216.685 53.4553 217.247 53.5262 217.737 54.1589C218.795 55.7031 219.086 56.6597 218.611 57.0288C218.183 57.1419 217.898 57.1385 217.756 57.0184L216.761 55.0832L215.496 56.0649C214.58 56.7753 213.959 56.9196 213.632 56.4978C213.486 56.1616 213.589 55.8568 213.942 55.5834ZM213.668 44.9625L213.88 44.7978C214.162 44.8056 214.358 44.7666 214.469 44.6808L215.289 45.7378L215.803 46.1855L217.809 44.6291L217.726 44.5211C216.907 43.4666 216.78 42.7209 217.343 42.2839L217.801 42.4356C218.519 43.51 218.92 44.1012 219.004 44.2092L219.519 44.65C220.612 46.0595 220.807 47.0375 220.102 47.5843C219.817 47.8058 219.21 48.3323 218.281 49.164C217.648 49.6549 216.407 48.9264 214.558 46.9785L213.576 45.7131C213.491 45.6025 213.521 45.3523 213.668 44.9625ZM219.992 40.9026C220.092 40.8247 220.369 40.8922 220.822 41.1048L221.128 41.7142L221.538 42.2427C221.612 42.3379 221.905 42.2797 222.417 42.0682C222.489 42.0123 222.497 41.9484 222.441 41.8764C223.07 41.5242 223.461 41.4472 223.615 41.6452L223.941 42.0657C224.033 42.3325 223.902 42.6026 223.55 42.876L222.917 43.3668L222.624 43.4273L223.854 45.0129C223.932 45.1132 223.909 45.3004 223.784 45.5746L223.259 45.9817C223.149 45.8403 223.024 45.8244 222.882 45.9341L221.49 44.1402C221.367 43.9808 221.221 43.8673 221.053 43.7997C220.999 43.7302 221.008 43.6676 221.08 43.6117L220.398 42.9548L219.497 41.7936C219.665 41.3253 219.83 41.0283 219.992 40.9026ZM217.125 47.0205L216.916 47.1821L216.997 47.2863C217.394 47.6542 217.663 47.7833 217.804 47.6736C218.692 46.9272 219.095 46.5013 219.013 46.3958C218.973 46.3444 218.844 46.1066 218.626 45.6823C217.98 46.2991 217.48 46.7452 217.125 47.0205ZM220.815 48.7183C220.884 48.6644 220.947 48.6735 221.003 48.7455L221.66 48.0628L223.009 47.1891C223.324 46.8297 223.648 46.5203 223.982 46.2609C224.301 46.3847 224.535 46.543 224.684 46.7359L225.011 47.1564L223.91 48.3503C223.72 48.3866 223.587 48.4337 223.513 48.4916C223.43 48.6668 223.352 48.7833 223.277 48.8412L223.196 48.737L223.065 49.0058L222.853 49.1704L222.564 49.2279C222.618 49.2973 222.609 49.36 222.537 49.4158C223.279 50.0802 223.72 50.3576 223.862 50.2478L225.656 48.856C225.867 48.6924 226.081 48.7508 226.298 49.0311C226.681 49.5249 226.275 50.2357 225.079 51.1636C223.953 52.0376 222.925 51.8766 221.998 50.6807C221.926 50.5881 221.555 50.2559 220.884 49.6841L220.72 49.4719C220.634 49.3613 220.666 49.1101 220.815 48.7183ZM223.397 36.7526C224.043 36.2518 224.85 36.1321 225.819 36.3937C226.191 36.7236 226.445 36.9773 226.583 37.1548C227.165 38.2815 227.16 39.0743 226.568 39.5332L226.144 39.8625C224.549 40.4199 223.343 40.1713 222.525 39.1168C222.197 38.695 222.488 37.907 223.397 36.7526ZM223.665 38.4047L223.827 38.613C224.663 38.867 225.267 38.8493 225.64 38.56C225.564 38.1699 225.444 37.8694 225.28 37.6585C224.765 37.6051 224.374 37.6821 224.106 37.8896L223.665 38.4047ZM226.564 41.057L226.644 41.1611L226.776 40.8923L229.098 39.0905C229.363 38.9963 229.632 39.1254 229.906 39.4777L229.986 39.5819C230.072 39.6925 230.04 39.9437 229.891 40.3355L227.993 41.8081C227.587 42.1234 227.05 42.5951 226.384 43.2233C226.06 43.3842 225.701 43.2113 225.308 42.7046C225.492 42.2244 225.91 41.6751 226.564 41.057ZM230.123 41.5028C230.545 41.1755 231.493 41.9622 232.968 43.8629C233.184 44.4818 233.059 44.9729 232.59 45.336L232.274 45.5815C230.801 46.5881 229.879 46.8522 229.508 46.3738L227.79 44.1594C227.517 43.8071 228.295 42.9215 230.123 41.5028ZM229.499 44.1872L230.316 45.2404L231.477 44.3394L230.415 42.9699C229.694 43.64 229.389 44.0457 229.499 44.1872ZM231.102 33.1419L231.206 33.0611C232.016 32.4326 232.996 32.4612 234.146 33.1469C234.693 33.7031 235.138 34.2024 235.482 34.6448L236.628 36.1224C236.911 36.4876 236.968 36.7813 236.799 37.0035L236.378 37.3297C236.008 37.4315 235.676 37.2934 235.383 36.9153L234.647 35.9662C234.302 36.2336 233.433 37.0764 232.041 38.4945L231.315 38.2114C230.938 37.7253 231.748 36.5898 233.746 34.805L233.339 34.2804C232.763 34.0475 232.422 33.972 232.316 34.0539L231.155 34.9548C230.001 36.1919 229.381 36.8444 229.293 36.9122L228.567 36.6291C228.132 36.0684 228.977 34.906 231.102 33.1419ZM236.92 28.6283L237.024 28.5475C237.834 27.919 238.814 27.9476 239.964 28.6333C240.511 29.1895 240.956 29.6888 241.299 30.1312L242.446 31.6088C242.729 31.974 242.786 32.2677 242.616 32.4899L242.196 32.8161C241.826 32.9179 241.494 32.7798 241.201 32.4017L240.464 31.4526C240.12 31.72 239.251 32.5628 237.859 33.9809L237.132 33.6978C236.755 33.2117 237.566 32.0762 239.563 30.2914L239.156 29.7668C238.58 29.5339 238.239 29.4584 238.134 29.5403L236.973 30.4412C235.819 31.6783 235.198 32.3308 235.111 32.3986L234.384 32.1155C233.949 31.5548 234.795 30.3924 236.92 28.6283Z" fill="black"/>
<path d="M179.338 13.7408C180.906 13.4739 187.277 12.4495 188.859 12.5286C191.773 12.6743 198.443 12.6392 201 14C202 14.5323 204.905 15.3778 206.87 17.7967C207.192 18.193 207.432 18.6751 207.721 19.0974C208.328 19.9823 208.917 20.8114 209.371 21.8053C210.262 23.756 210.92 25.9973 210.92 28.1553C210.92 30.5905 211.301 33.0174 210.642 35.4099C210.085 37.4342 209.345 39.4421 207.881 40.9853C206.453 42.4909 204.709 43.3561 202.885 44.2845C200.973 45.2579 198.975 45.8208 196.896 46.2829C196.102 46.4593 195.365 46.8386 194.531 46.8386" stroke="black" stroke-width="2" stroke-linecap="round"/>
<path d="M197.703 39.9321C196.989 40.9888 196.303 42.0609 195.633 43.1467C195.122 43.9765 194.576 44.8148 194.132 45.6866C194.027 45.8927 193.989 46.1236 193.869 46.3228C193.806 46.4287 193.776 46.5784 193.759 46.6987C193.747 46.7817 193.668 46.8202 193.669 46.9011C193.676 47.2099 194.024 47.388 194.248 47.5301C195.199 48.1335 196.029 48.903 196.944 49.5591C197.671 50.08 198.427 50.5427 199.222 50.9399C199.456 51.0571 199.725 51.1931 199.916 51.3833" stroke="black" stroke-width="2" stroke-linecap="round"/>
</svg>
