<svg width="350" height="103" viewBox="0 0 350 103" fill="none" xmlns="http://www.w3.org/2000/svg">
<path d="M85.7574 79.7439C83.0887 81.3344 79.9814 82.4316 77.5091 84.3222C74.7504 86.4316 84.0341 82.9316 85.5093 82.9316C87.4802 82.9316 89.3286 81.6531 91.2995 81.6531H100.882H118.176H130.113C132.894 81.6531 136.064 81.2572 138.825 81.7272C145.658 82.8904 152.802 82.3204 159.733 82.3204H179.752C188.922 82.3204 198.28 82.2062 207.407 83.0618C210.12 83.3161 212.721 84.3787 215.395 84.8042C217.989 85.2168 220.66 84.8883 223.273 85.0637C227.543 85.3502 233.722 83.6739 238 83.9316C248.236 84.5482 258.24 83.449 268.5 83.0618C279.35 82.6524 320.123 82.2784 327.195 73.3121C329.83 69.9714 332.806 66.8575 333.034 62.3019C333.201 58.9548 333.584 54.5574 331.792 51.6254C326.882 43.5919 307.555 43.2388 294.54 40.735C280.509 37.4188 261.78 35.761 250.009 34.9287C237.372 34.0352 225.671 35.8882 213 35.9316C200.325 35.975 183.788 37.7349 171.5 40.735C159.67 43.6232 149.715 41.9866 138.825 47.4316C131.712 50.9879 126.015 49.0404 120.011 54.2019C112.96 60.2631 105.467 65.8567 98.014 71.4196L97.5646 71.7551C93.7474 74.6045 89.8528 77.3032 85.7574 79.7439Z" fill="white" stroke="black" stroke-width="2" stroke-linecap="round"/>
<path d="M147.029 54.8242V55.0156L147.405 54.8242H147.597C148.294 54.8242 148.729 55.1364 148.902 55.7607C148.752 56.6357 148.44 57.0732 147.966 57.0732L146.66 56.8818C146.441 57.0094 146.191 57.0732 145.908 57.0732V57.4424C145.908 58.445 146.282 58.9463 147.029 58.9463C147.868 58.9463 148.556 59.1331 149.094 59.5068L148.902 57.8184C148.902 56.3828 149.527 55.5716 150.775 55.3848H151.896C152.024 55.3848 152.088 55.4486 152.088 55.5762L152.464 55.3848H153.394C153.576 55.3848 153.765 55.5716 153.961 55.9453V56.3213C153.961 57.1963 153.462 57.6338 152.464 57.6338C151.571 57.5062 151.072 57.4424 150.967 57.4424V58.5703C150.967 59.3177 151.527 59.6914 152.648 59.6914C152.826 59.6914 153.013 59.8783 153.209 60.252V60.4434C153.209 61.1133 152.961 61.5485 152.464 61.749H151.151C150.121 61.749 149.436 61.0632 149.094 59.6914H148.902C148.902 60.6895 148.715 61.1885 148.342 61.1885H147.781C145.161 61.1885 143.851 60.1289 143.851 58.0098V56.8818C143.851 56.5856 144.037 56.0251 144.411 55.2002L144.787 55.3848V55.0156H146.1L147.029 54.8242ZM157.516 55.3848H157.7C157.896 55.3848 158.147 55.6354 158.452 56.1367C158.575 58.5885 158.637 60.2109 158.637 61.0039H158.452C158.452 61.127 158.514 61.1885 158.637 61.1885C158.637 61.5166 158.45 62.2025 158.076 63.2461H157.14C156.944 63.2461 156.695 62.9977 156.395 62.501C156.395 62.2184 156.456 61.9678 156.579 61.749L156.395 61.373C156.518 60.6986 156.579 60.138 156.579 59.6914H154.146C153.95 59.6914 153.699 59.443 153.394 58.9463V58.7549C153.476 58.0075 153.665 57.6338 153.961 57.6338H154.897C155.021 57.6338 155.082 57.6953 155.082 57.8184L155.458 57.6338H156.395C156.395 57.3831 156.456 57.2578 156.579 57.2578L156.395 56.8818V56.5127C156.395 55.7607 156.768 55.3848 157.516 55.3848ZM151.151 64.374L155.458 64.9346C156.082 65.3994 156.395 66.1468 156.395 67.1768C156.395 69.1501 155.896 70.2119 154.897 70.3623C154.273 70.1891 153.961 69.7516 153.961 69.0498V68.8652C153.961 68.7467 154.084 68.2477 154.33 67.3682V66.8076H154.146L151.527 66.6162L151.151 66.8076C150.404 66.484 150.03 66.0465 150.03 65.4951C150.153 65.2536 150.215 65.0667 150.215 64.9346C150.092 64.9346 150.03 64.8708 150.03 64.7432C150.778 64.6566 151.151 64.5335 151.151 64.374ZM169.13 57.4629C169.754 57.8366 170.066 59.4567 170.066 62.3232V65.8711L168.754 66.2471C168.754 65.9964 168.631 65.8711 168.385 65.8711V62.3232H167.264L165.951 62.1318C165.628 63.7542 164.944 64.5654 163.9 64.5654H162.964C161.059 64.5654 159.938 63.1937 159.601 60.4502V60.2656C159.974 58.7708 160.722 58.0234 161.843 58.0234H162.219C162.342 58.0234 162.403 58.085 162.403 58.208L162.779 58.0234H163.524C164.582 58.0234 165.391 58.8324 165.951 60.4502H167.633L168.009 60.6416L168.193 60.2656V59.8896C168.193 59.443 168.132 58.8825 168.009 58.208C168.132 57.7113 168.506 57.4629 169.13 57.4629ZM171.557 57.6475C172.432 57.8115 172.992 59.68 173.238 63.2529C173.238 65.1214 172.865 66.0557 172.117 66.0557H171.933C171.737 66.0557 171.488 65.8073 171.188 65.3105L171.372 63.4443V61.9473C171.372 60.9857 171.124 59.9261 170.627 58.7686C170.627 58.1442 170.937 57.7705 171.557 57.6475ZM161.843 59.5137L161.282 60.4502C161.565 61.945 162.187 62.6924 163.148 62.6924H163.709C164.21 62.4919 164.461 62.0566 164.461 61.3867V60.8262C163.96 59.9512 163.087 59.5137 161.843 59.5137ZM184.859 54.4551C185.356 54.5781 185.791 54.6396 186.165 54.6396C186.407 54.5166 186.596 54.4551 186.732 54.4551C186.732 54.651 186.855 54.9017 187.102 55.207V56.1367C187.102 56.3874 186.479 56.5742 185.235 56.6973L184.859 56.5127C184.727 56.5127 184.54 56.5742 184.299 56.6973L183.547 56.5127C182.426 56.613 181.865 56.7998 181.865 57.0732V57.8252C181.865 58.0439 182.426 58.2923 183.547 58.5703C183.674 58.5703 183.738 58.5088 183.738 58.3857L184.675 58.5703L186.541 58.3857L187.102 59.1309V60.0674C186.814 60.0674 186.441 60.2542 185.98 60.6279L185.044 60.4434H183.547C181.305 60.4434 180.184 59.5068 180.184 57.6338V56.5127H179.808C179.808 56.3896 179.869 56.3281 179.992 56.3281L179.808 55.9521C179.808 55.2822 180.056 54.8447 180.553 54.6396H180.744C180.867 54.6396 180.929 54.7035 180.929 54.8311L181.305 54.6396H182.986C183.579 54.6396 184.203 54.5781 184.859 54.4551ZM180.368 61.1885L182.241 61.3799H187.293C187.667 61.5029 187.854 61.8766 187.854 62.501V63.0615C187.854 63.3122 187.728 63.4375 187.478 63.4375H185.796C185.422 63.4375 185.235 63.499 185.235 63.6221L184.299 63.4375H182.986C182.362 63.4375 181.428 63.3737 180.184 63.2461C180.184 63 180.058 62.877 179.808 62.877V62.3096C179.808 61.8584 179.994 61.4847 180.368 61.1885ZM181.12 64.1826H185.42C186.418 64.1826 186.917 64.9323 186.917 66.4316C186.917 67.4616 185.607 68.1475 182.986 68.4893C182.986 68.7354 183.173 68.8584 183.547 68.8584C183.674 68.8584 183.738 68.7969 183.738 68.6738L184.675 68.8584C185.627 68.8584 186.748 68.7354 188.038 68.4893L188.223 68.8584V69.4189C188.223 70.417 187.227 70.916 185.235 70.916L184.859 70.7314L184.483 70.916L184.107 70.7314C183.984 70.7314 183.923 70.793 183.923 70.916C181.804 70.6289 180.744 69.8815 180.744 68.6738V68.4893C180.744 67.2952 181.991 66.5456 184.483 66.2402V66.0557H181.305C181.09 66.0557 180.904 65.7435 180.744 65.1191C180.995 64.7135 181.12 64.4014 181.12 64.1826ZM199.283 57.6475C199.908 57.9938 200.22 58.4928 200.22 59.1445C200.22 59.2676 200.156 59.3291 200.028 59.3291C200.156 60.1038 200.343 62.4098 200.589 66.2471C200.466 66.4886 200.404 66.6755 200.404 66.8076H199.844L198.907 66.623C198.784 64.2806 198.661 62.8473 198.538 62.3232H195.544V61.5713C195.544 60.8239 196.043 60.4502 197.041 60.4502H198.538L198.347 59.1445V58.584C198.347 58.4154 198.659 58.1032 199.283 57.6475ZM191.62 58.208C191.62 58.4587 192.304 58.6455 193.671 58.7686C194.514 59.5023 195.077 60.6234 195.359 62.1318C194.858 63.6266 194.108 64.374 193.11 64.374H192.55C190.308 63.9046 189.187 62.6582 189.187 60.6348C189.515 59.5319 190.014 58.8483 190.684 58.584C191.089 58.3333 191.401 58.208 191.62 58.208ZM191.06 60.4502V60.8262C191.219 61.9473 191.78 62.5078 192.741 62.5078H193.11L193.671 62.1318C193.384 60.8877 192.762 60.2656 191.805 60.2656L191.06 60.4502ZM211.458 53.5322H211.643C212.39 53.5322 212.764 53.9059 212.764 54.6533V56.1504H213.324C214.445 56.1504 215.006 56.5241 215.006 57.2715C214.833 57.8958 214.397 58.208 213.7 58.208H212.948V59.7051C212.948 60.3522 212.761 60.7259 212.388 60.8262H211.643C211.146 60.8262 210.834 59.6413 210.706 57.2715L210.897 56.1504V55.7744L210.706 54.6533C210.961 53.9059 211.212 53.5322 211.458 53.5322ZM202.667 53.7168H205.661C206.532 53.7168 206.967 54.2158 206.967 55.2139V57.832L207.158 58.9531C206.917 59.5228 206.666 59.835 206.406 59.8896H205.846C205.349 59.6891 205.101 59.2539 205.101 58.584V55.9658C205.101 55.7152 204.975 55.5898 204.725 55.5898H202.106C201.929 55.5898 201.742 55.403 201.546 55.0293V54.8447C201.546 54.0928 201.92 53.7168 202.667 53.7168ZM207.719 61.7559H210.146C211.267 61.7559 211.827 62.4417 211.827 63.8135V64.75C211.827 65.9668 210.645 66.7142 208.279 66.9922C208.152 66.9922 208.088 67.056 208.088 67.1836V67.9287H211.082C211.952 67.9287 212.388 68.3024 212.388 69.0498C212.388 69.6742 211.827 69.9863 210.706 69.9863H208.84C207.094 69.9863 206.222 69.3005 206.222 67.9287C206.094 67.8057 206.03 67.3066 206.03 66.4316C206.03 65.5931 207.277 64.971 209.77 64.5654V63.6289H209.209C208.402 63.6289 207.53 63.7542 206.591 64.0049C206.094 63.818 205.846 63.6312 205.846 63.4443V62.6924C206.128 62.068 206.753 61.7559 207.719 61.7559ZM224.378 56.1572C225.03 56.2803 225.652 56.3418 226.244 56.3418H226.989C227.491 57.2806 227.741 57.9049 227.741 58.2148L227.55 59.3291V59.8896C227.568 60.1403 228.441 60.8877 230.168 62.1318C230.291 62.3506 230.353 62.6012 230.353 62.8838C230.229 63.3805 229.856 63.6289 229.231 63.6289L226.62 61.9473C226.743 62.1888 226.805 62.3757 226.805 62.5078C226.395 63.6289 225.834 64.1895 225.123 64.1895C225.123 63.9388 224.936 63.8135 224.562 63.8135V62.6924C225.433 61.0745 225.868 59.582 225.868 58.2148H222.32C222.02 57.9642 221.771 57.8389 221.575 57.8389C221.575 56.8408 222.074 56.3418 223.072 56.3418C223.446 56.3418 223.881 56.2803 224.378 56.1572ZM232.595 56.1572H232.971C233.549 56.1572 233.985 57.4652 234.276 60.0811H234.461L236.327 59.8896C236.081 58.7731 235.958 57.9642 235.958 57.4629V57.0938C236.204 56.5924 236.578 56.3418 237.079 56.3418C238.196 58.4928 238.754 61.4824 238.754 65.3105V65.4951C238.508 65.9919 238.136 66.2402 237.64 66.2402C237.079 66.2402 236.767 65.6182 236.703 64.374H236.888L236.703 63.998V62.1318L236.519 61.7627L236.143 61.9473H234.461L234.646 63.2529H234.461L234.646 63.6289V64.9346C234.399 65.4313 234.026 65.6797 233.524 65.6797C232.905 65.6797 232.595 64.9961 232.595 63.6289H232.779L232.595 63.2529V62.8838C232.595 62.3734 232.408 60.3796 232.034 56.9023V56.7178C232.034 56.54 232.221 56.3532 232.595 56.1572ZM241.591 55.0156H244.954C246.326 55.3073 247.012 56.3053 247.012 58.0098V59.5068C247.012 60.0674 245.64 60.5664 242.896 61.0039V61.1885C243.334 61.4391 245.018 61.6898 247.948 61.9404L248.133 62.877V63.6221L246.827 63.8066H244.954C242.211 63.5788 240.839 62.7061 240.839 61.1885C241.45 59.443 242.76 58.5703 244.77 58.5703H245.146C245.018 57.5723 244.831 57.0732 244.585 57.0732H242.521C242.397 57.0732 242.336 57.0117 242.336 56.8887C242.113 57.0117 241.488 57.137 240.463 57.2646C240.463 57.1917 240.215 56.8796 239.718 56.3281V55.9521C240 55.3278 240.625 55.0156 241.591 55.0156ZM243.457 65.1191H244.018C244.519 65.1191 244.831 66.1787 244.954 68.2979H245.515V67.5527L245.33 66.6162H245.515L245.33 66.2402C245.33 65.4928 245.768 65.1191 246.643 65.1191C246.834 65.1191 247.082 65.3675 247.388 65.8643V68.4893H247.764C248.042 68.4893 248.29 68.4255 248.509 68.2979C249.256 68.4756 249.63 68.8493 249.63 69.4189C249.548 69.7516 249.238 70.0638 248.7 70.3555H244.394C244.271 70.3555 244.209 70.2939 244.209 70.1709C244.081 70.1709 244.018 70.2324 244.018 70.3555C242.149 70.3555 241.215 69.8564 241.215 68.8584C241.338 68.4847 241.712 68.2979 242.336 68.2979H242.896V65.6797C242.896 65.502 243.083 65.3151 243.457 65.1191ZM254.887 52.958C256.012 53.4092 256.575 54.5326 256.575 56.3281C256.028 56.9525 254.905 57.3877 253.205 57.6338C253.082 57.6338 253.021 57.6976 253.021 57.8252V58.0098H253.205C253.925 58.0098 254.923 57.9482 256.199 57.8252C256.696 57.9482 256.944 58.3219 256.944 58.9463V59.3223C256.821 59.696 256.448 59.8828 255.823 59.8828H253.205C251.71 59.7552 250.963 59.0693 250.963 57.8252C250.963 56.3258 252.148 55.5762 254.518 55.5762C254.518 54.8288 254.267 54.4551 253.766 54.4551C252.294 54.7057 251.359 54.8311 250.963 54.8311L250.587 54.2705C250.91 53.3955 252.344 52.958 254.887 52.958ZM258.072 60.8193C258.642 61.0609 258.952 61.3092 259.002 61.5645L258.817 62.501H258.072L256.944 62.6855L256.575 62.501C256.356 62.624 256.106 62.6855 255.823 62.6855C255.7 62.6855 255.639 62.624 255.639 62.501C255.151 62.7516 254.465 62.877 253.581 62.877H252.084C251.801 62.877 251.551 62.9385 251.332 63.0615C250.835 62.8747 250.587 62.6878 250.587 62.501V61.3799C251.84 61.0062 254.335 60.8193 258.072 60.8193ZM256.944 63.6221C257.71 64.2965 258.147 64.9209 258.257 65.4951C258.257 66.8076 257.197 67.7419 255.078 68.2979V68.6738H256.015C256.138 68.6738 256.199 68.7354 256.199 68.8584C256.309 68.8584 256.808 68.6715 257.696 68.2979C258.444 68.4665 258.817 68.7171 258.817 69.0498C258.403 70.1709 257.717 70.7314 256.76 70.7314H255.454C253.955 70.7314 253.205 69.9202 253.205 68.2979C253.205 67.2861 254.142 66.4749 256.015 65.8643L256.199 65.4951H256.015C254.032 65.6182 252.847 65.6797 252.46 65.6797L252.269 65.3037V64.1826C253.754 63.8089 255.313 63.6221 256.944 63.6221ZM271.184 53.71C273.553 53.71 274.738 54.7057 274.738 56.6973C274.738 58.069 274.8 58.7549 274.923 58.7549C274.672 59.5068 274.424 59.8828 274.178 59.8828H273.986C272.993 59.8828 272.496 58.821 272.496 56.6973V55.9521H269.502C269.219 55.9521 268.969 56.0137 268.75 56.1367C268.627 56.1367 268.565 56.0752 268.565 55.9521L267.629 56.1367H266.508C265.883 55.7812 265.571 55.4076 265.571 55.0156C265.571 54.3594 266.196 53.9857 267.444 53.8945H270.438C270.716 53.8945 270.965 53.833 271.184 53.71ZM269.687 58.0098C270.201 58.1829 270.575 58.4951 270.808 58.9463V59.5068L270.623 60.6279C270.874 61.1383 270.999 61.512 270.999 61.749L272.305 61.5645H273.426C274.424 61.5645 274.923 62.0635 274.923 63.0615V63.2461C274.923 63.5742 274.488 63.8249 273.617 63.998V63.8066L273.241 63.998H272.305C271.334 63.998 269.65 64.1211 267.253 64.3672C266.255 64.2122 265.756 63.777 265.756 63.0615C265.756 62.3141 266.255 61.9404 267.253 61.9404H268.941L268.565 60.6279C268.565 58.8825 268.939 58.0098 269.687 58.0098ZM272.12 64.7432C273.866 64.8206 274.738 65.445 274.738 66.6162C274.738 67.8923 273.679 68.765 271.56 69.2344L271.368 69.6104H271.56L273.426 69.4189L275.675 69.7949C275.675 71.2943 274.303 72.0439 271.56 72.0439C270.311 72.0439 269.438 71.2327 268.941 69.6104C268.941 68.389 269.937 67.5163 271.929 66.9922V66.8008C270.935 67.0514 269.75 67.1768 268.374 67.1768C268.21 67.1768 267.9 66.8646 267.444 66.2402V65.6797C267.444 65.4837 267.693 65.2354 268.189 64.9346C270.377 64.807 271.687 64.7432 272.12 64.7432ZM279.811 56.8955V57.0869C280.052 56.9593 280.239 56.8955 280.371 56.8955C282.24 56.8955 283.174 58.3926 283.174 61.3867V61.7559C283.174 62.1296 281.991 62.5671 279.626 63.0684L279.25 63.6289V63.8135C279.25 63.9821 279.562 64.2943 280.187 64.75H282.429C283.126 64.75 283.561 65.0622 283.734 65.6865C283.734 66.4339 282.987 66.8076 281.492 66.8076H281.308C278.687 66.8076 277.377 65.748 277.377 63.6289C277.377 61.9154 278.623 60.9173 281.116 60.6348C281.244 60.6348 281.308 60.5732 281.308 60.4502C281.23 59.4521 281.043 58.9531 280.747 58.9531H280.187C279.53 58.9531 278.471 59.0169 277.008 59.1445L276.632 58.5771V57.6475C276.632 57.4652 276.819 57.2783 277.192 57.0869H278.874L279.811 56.8955ZM286.544 58.0166H287.474C287.847 59.0146 288.034 60.0127 288.034 61.0107H289.907C290.532 61.0107 290.905 61.2591 291.028 61.7559C290.933 62.6309 290.497 63.0684 289.723 63.0684H288.226V63.2529C288.349 64.9528 288.41 66.0124 288.41 66.4316C287.927 66.9329 287.492 67.1836 287.104 67.1836L286.353 66.0625C286.353 65.9258 286.416 65.7367 286.544 65.4951C286.416 62.3005 286.166 60.1836 285.792 59.1445C286.047 58.3926 286.298 58.0166 286.544 58.0166ZM292.546 55.2139H293.291C293.473 55.2139 293.662 55.4007 293.858 55.7744V57.832L294.043 58.208L294.419 58.0166H297.406V57.0869L297.598 55.7744H298.343C298.84 55.9795 299.088 56.417 299.088 57.0869V58.0166C299.088 60.8831 298.154 62.3164 296.285 62.3164H296.101L296.661 63.0684V65.4951H298.158C299.029 65.4951 299.464 65.9326 299.464 66.8076L298.719 67.3682H292.73C292.516 67.3682 292.329 67.056 292.17 66.4316C292.421 66.026 292.546 65.7139 292.546 65.4951H294.788V63.6289C294.788 63.2096 294.975 62.7721 295.349 62.3164C293.229 62.3164 292.17 61.5075 292.17 59.8896C292.17 58.4313 292.108 57.2464 291.985 56.335C292.149 55.5876 292.336 55.2139 292.546 55.2139ZM301.706 57.6475C302.358 57.6475 302.857 57.9574 303.203 58.5771V59.7051L303.388 61.9473H305.445C305.628 61.9473 305.814 62.1341 306.006 62.5078V63.0684C305.842 63.5651 305.281 63.8135 304.324 63.8135H303.388L303.579 64.75V65.126C303.579 65.249 303.515 65.3105 303.388 65.3105L303.579 65.6865V65.8711C303.579 65.9987 303.515 66.0625 303.388 66.0625L303.579 66.4316V66.623C303.251 67.2383 303 67.5482 302.827 67.5527H302.082C301.904 67.5527 301.717 67.3659 301.521 66.9922V64.1895C301.521 63.9069 301.583 63.6585 301.706 63.4443C301.583 63.2256 301.521 62.9749 301.521 62.6924H301.706L301.521 62.3164V61.1953C301.521 60.5117 301.46 59.639 301.337 58.5771C301.583 58.1761 301.706 57.8662 301.706 57.6475ZM296.285 59.8896H294.228V60.2656L295.164 60.4502H296.661C296.907 60.4502 297.03 60.3249 297.03 60.0742V59.8896C296.784 59.8896 296.661 59.8281 296.661 59.7051L296.285 59.8896Z" fill="black"/>
<path d="M121.764 33.0908L121.916 33.0494C122.538 32.8809 122.919 33.0549 123.059 33.5715C123.03 34.2837 123.423 36.5587 124.24 40.3966C124.396 40.5688 124.489 40.7096 124.518 40.819C124.471 41.0464 124.462 41.2148 124.491 41.3241L124.802 41.2399L126.616 40.5847L127.069 41.6277C126.798 42.0329 126.388 42.3645 125.839 42.6225C123.011 43.2264 121.535 43.2946 121.408 42.827L121.324 42.516C121.342 42.1792 121.609 41.9409 122.126 41.801L123.059 41.5482L122.388 39.0711C122.359 38.9655 122.396 38.8989 122.498 38.8714C122.47 38.7696 122.405 38.7325 122.304 38.76C122.338 38.4836 122.081 37.3349 121.534 35.314C121.027 35.8925 120.515 36.2516 119.999 36.3916C119.791 36.4477 119.66 36.3721 119.603 36.1648L119.562 36.0121C119.388 35.3711 120.046 34.5272 121.535 33.4804C121.514 33.2676 121.59 33.1377 121.764 33.0908ZM134.234 31.2126C134.957 31.0165 135.585 31.8988 136.116 33.8594C136.218 33.8318 136.282 33.8689 136.31 33.9707L137.044 33.6081L137.818 33.3983L137.566 32.4651C137.503 32.2351 137.395 32.0439 137.24 31.8915C137.073 31.2732 137.3 30.8798 137.922 30.7113L138.228 30.6285C138.455 30.6156 138.732 30.8158 139.058 31.2292C139.087 31.3348 139.048 31.4019 138.943 31.4304C140.203 34.0354 140.922 35.6678 141.101 36.3276C141.157 37.0893 141.05 37.5069 140.778 37.5804L140.156 37.7489C139.847 37.8327 139.323 36.9223 138.585 35.0179L137.857 35.3789L136.924 35.6317C136.993 35.8881 137.279 36.5311 137.78 37.5608L137.628 37.6022L137.863 37.8662L137.906 38.0246C137.784 38.6362 137.559 39.0292 137.23 39.2033C136.521 39.3953 135.717 38.0631 134.818 35.2066C134.662 35.0344 134.569 34.8936 134.539 34.7842L134.692 34.7429C134.343 34.2749 133.987 33.3736 133.626 32.0389C133.62 31.5993 133.823 31.3239 134.234 31.2126ZM128.593 33.0682L129.52 32.817C130.55 32.5382 131.232 33.019 131.568 34.2595C131.674 34.2309 131.824 34.5767 132.019 35.2968L132.732 37.9267C132.775 38.0888 132.624 38.3523 132.278 38.7173L131.814 38.8429C131.226 38.7189 130.856 38.376 130.704 37.8142L130.41 36.7283C130.382 36.6265 130.421 36.5613 130.527 36.5327C130.367 36.3615 130.272 36.2212 130.243 36.1118C130.215 36.01 130.254 35.9448 130.36 35.9163L129.992 35.1843L129.866 34.7206L129.713 34.7619C128.381 35.3414 127.532 35.6806 127.166 35.7796L127.008 35.8225C126.699 35.9063 126.381 35.5491 126.056 34.7509C126.158 34.7234 126.195 34.6587 126.167 34.5569C126.065 34.5845 126.001 34.5473 125.973 34.4455C127.32 33.6356 128.193 33.1765 128.593 33.0682ZM147.897 23.3654C149.138 23.0295 150.163 24.3564 150.973 27.3463C150.464 28.0385 149.863 28.4786 149.169 28.6665L149.631 30.3688L151.18 29.9491C152.024 29.8057 152.533 30.0563 152.707 30.701C152.717 31.1396 152.463 31.4288 151.947 31.5687L151.019 31.8199C150.917 31.8475 150.853 31.8104 150.825 31.7086L150.555 31.9456L147.151 32.8677C146.596 33.0179 146.181 32.9099 145.904 32.5439L145.735 31.9217C145.695 31.7747 145.808 31.5782 146.073 31.3324L147.159 31.0383C147.261 31.0107 147.326 31.0478 147.353 31.1496L147.623 30.9126L147.97 30.9826L148.045 30.6343L147.668 29.2431L146.624 29.6899C145.59 29.549 144.777 28.3851 144.185 26.1983L144.143 26.0456C144.088 25.065 144.426 24.4756 145.158 24.2775L147.013 23.775L147.897 23.3654ZM145.576 25.8215L146.626 27.8619C146.765 27.7152 147.562 27.3879 149.019 26.8799L148.359 25.0678C148.015 25.1607 147.745 25.1793 147.548 25.1234C146.897 25.409 146.24 25.6417 145.576 25.8215ZM148.952 33.3755L150.654 32.9144C151.619 32.653 152.301 33.1319 152.7 34.3513C153.103 35.8368 152.348 36.9275 150.436 37.6235L150.125 37.7077L150.166 37.8604C150.222 38.0678 150.677 38.1105 151.531 37.9887C152.042 37.7408 152.543 37.5506 153.033 37.4178L153.191 37.3749C153.221 37.4842 153.314 37.625 153.47 37.7973C153.693 38.623 153.083 39.2314 151.639 39.6226C149.85 39.9655 148.792 39.5318 148.464 38.3215C148.101 36.983 148.9 36.0482 150.861 35.5172C150.832 35.4116 150.92 35.3313 151.124 35.2761L150.915 34.507L149.988 34.7582C149.562 34.8736 149.01 35.0777 148.332 35.3704C147.777 35.3671 147.421 35.0751 147.263 34.4944C147.152 34.0835 147.715 33.7105 148.952 33.3755ZM152.528 24.4363L152.839 24.352C153.291 24.2295 153.838 25.0223 154.479 26.7306L155.144 26.7205L154.765 25.3236C154.726 25.1765 154.838 24.9801 155.104 24.7342L155.409 24.6515C155.748 24.5596 156.175 25.1098 156.688 26.3023L157.615 26.0511C157.486 25.5722 157.366 24.7184 157.255 23.4897L157.719 23.364C158.175 23.4186 158.478 23.723 158.628 24.2773L159.007 25.6742C159.76 28.4568 159.21 30.0993 157.355 30.6017L157.044 30.686C155.101 30.8642 153.922 30.1879 153.507 28.6571C152.763 27.1347 152.273 25.938 152.037 25.067L152.528 24.4363ZM160.98 23.1426L161.291 23.0583C161.672 22.9552 162.124 23.6078 162.647 25.0161L164.349 24.555C164.82 24.65 165.111 24.903 165.222 25.314C164.973 25.8268 164.667 26.1322 164.305 26.2302L163.066 26.5657L163.653 28.7318C163.693 28.8789 163.58 29.0753 163.315 29.3212L163.01 29.4039L162.192 29.4554L161.984 28.6862C161.689 27.6004 161.191 25.9627 160.489 23.7733L160.98 23.1426ZM157.217 27.6522L157.51 28.7324C157.717 28.6763 157.827 28.26 157.839 27.4837L157.217 27.6522ZM155.251 28.3487L155.335 28.6598C155.375 28.8068 155.572 28.9195 155.925 28.9979L155.715 28.2231L155.251 28.3487ZM159.813 31.0952L161.357 30.677C162.574 31.0759 163.301 31.7108 163.536 32.5818L163.703 33.1982C164.053 34.4877 163.385 35.4981 161.702 36.2293C159.983 36.0108 158.945 35.2418 158.588 33.9221C158.511 32.2796 158.92 31.3373 159.813 31.0952ZM160.006 33.0402L160.173 33.6566C160.802 34.2593 161.208 34.5357 161.393 34.4856L162.396 33.8861C161.926 32.6862 161.449 32.1516 160.966 32.2823L160.344 32.4508C160.197 32.4906 160.085 32.6871 160.006 33.0402Z" fill="black"/>
<path d="M170.681 23.69L171.324 23.6483C171.874 23.8515 172.509 24.562 173.23 25.7796C173.59 25.9716 173.864 26.0615 174.051 26.0493C174.421 25.7045 174.692 24.9353 174.865 23.7419L175.344 23.7109C175.671 23.7993 175.852 24.1086 175.886 24.6388L175.907 24.9604C175.976 26.0245 175.385 26.8144 174.134 27.3299L173.971 27.3405C172.926 27.4081 171.964 26.6112 171.086 24.9497C170.972 24.957 170.809 24.9147 170.596 24.8229C170.276 24.8436 169.991 25.3983 169.741 26.4871L169.419 26.5079C169.205 26.5218 169.091 26.4216 169.077 26.2072L169.035 25.5698C169.201 24.377 169.749 23.7503 170.681 23.69ZM183.485 20.1303L184.45 20.0678C185.331 20.0108 185.959 20.6121 186.334 21.8717L186.376 22.5149C186.401 22.9008 186.214 23.3415 185.816 23.8371C186.939 24.6216 187.532 25.4952 187.594 26.458C187.171 28.7363 186.122 29.9296 184.45 30.0379L183.971 30.069C183.012 30.1311 182.45 29.7388 182.286 28.8922L182.275 28.7285C182.265 28.5765 182.415 28.4063 182.723 28.218C183.837 28.2515 184.482 28.2626 184.657 28.2512C185.6 27.9397 186.038 27.2693 185.972 26.2402C185.944 25.8114 185.551 25.5159 184.793 25.3536C183.971 25.7278 183.448 25.9222 183.222 25.9369C182.793 25.9646 182.508 25.7149 182.369 25.1877C182.851 24.2875 183.555 23.5979 184.483 23.1189L184.922 22.4506C184.88 21.8074 184.38 21.5168 183.421 21.5789L183.263 21.5892C183.272 21.7256 182.967 22.0134 182.35 22.4527L181.713 22.494C181.699 22.2796 181.585 22.1793 181.37 22.1932L181.339 21.7138C181.312 21.3006 182.028 20.7728 183.485 20.1303ZM196.908 21.0342C197.656 20.9857 198.096 21.975 198.227 24.002C198.333 23.9952 198.389 24.0444 198.396 24.1496L199.186 23.9399L199.987 23.888L199.925 22.9232C199.91 22.6854 199.841 22.4765 199.72 22.2965C199.679 21.6572 199.979 21.3167 200.623 21.2751L200.938 21.2546C201.164 21.287 201.395 21.5382 201.633 22.0082C201.64 22.1173 201.589 22.1754 201.48 22.1825C202.198 24.9857 202.579 26.7284 202.623 27.4105C202.527 28.1683 202.339 28.5563 202.058 28.5745L201.415 28.6161C201.096 28.6368 200.763 27.6406 200.417 25.6275L199.632 25.8369L198.667 25.8994C198.685 26.1644 198.837 26.8514 199.124 27.9601L198.966 27.9704L199.144 28.2759L199.155 28.4396C198.914 29.0149 198.615 29.3553 198.258 29.4606C197.525 29.5081 197.002 28.0428 196.687 25.0647C196.569 24.8649 196.506 24.7085 196.499 24.5954L196.656 24.5852C196.407 24.0573 196.238 23.1033 196.148 21.7234C196.23 21.2914 196.483 21.0617 196.908 21.0342ZM191.011 21.7332L191.97 21.6711C193.034 21.6022 193.608 22.2089 193.691 23.4914C193.8 23.4843 193.879 23.8531 193.927 24.5976L194.103 27.3165C194.114 27.4841 193.913 27.7124 193.502 28.0013L193.022 28.0324C192.47 27.7941 192.176 27.3846 192.138 26.8038L192.065 25.6811C192.059 25.5759 192.11 25.5197 192.219 25.5126C192.096 25.3131 192.031 25.1568 192.024 25.0438C192.017 24.9385 192.068 24.8824 192.178 24.8753L191.962 24.0849L191.931 23.6054L191.773 23.6156C190.352 23.919 189.453 24.083 189.075 24.1075L188.911 24.1181C188.591 24.1388 188.351 23.7257 188.191 22.8788C188.296 22.872 188.345 22.816 188.338 22.7107C188.233 22.7176 188.177 22.6683 188.17 22.5631C189.651 22.0366 190.598 21.76 191.011 21.7332ZM213.867 19.6128L214.668 19.5609C214.917 20.1437 215.122 20.8272 215.282 21.6114L215.119 21.622C215.24 21.7982 215.378 22.2707 215.534 23.0396L215.845 22.8609L216.324 22.8298C216.43 22.823 216.486 22.8722 216.492 22.9775L216.804 22.7988L217.283 22.7677C217.61 22.8523 217.79 23.1616 217.825 23.6956C217.712 24.1296 217.246 24.3731 216.428 24.4261L215.79 24.4674C215.965 25.5247 216.069 26.3224 216.104 26.8603C216.061 27.3994 215.918 27.6768 215.676 27.6924L214.875 27.7443C214.864 27.5689 214.746 27.4141 214.522 27.2798C214.443 26.0597 214.072 23.6216 213.408 19.9654L213.867 19.6128ZM203.328 20.6183C206.224 20.6695 207.682 20.8413 207.701 21.1337C208.047 21.5262 208.228 21.8374 208.243 22.0674L208.722 22.0363C210.535 21.9189 211.479 22.4469 211.555 23.6202C211.687 24.0266 211.767 24.45 211.796 24.8905L211.92 26.8084C211.93 26.9682 211.728 27.1418 211.314 27.3291C210.66 27.1522 210.327 26.9605 210.313 26.7539L210.158 24.3507C210.128 23.8908 209.893 23.585 209.453 23.4335C209.253 23.5521 209.096 23.6151 208.983 23.6224L208.504 23.6534C208.511 23.7626 208.462 23.8206 208.357 23.8274C208.363 23.9326 208.419 23.9819 208.525 23.975C208.663 26.1073 208.36 27.1975 207.615 27.2457C207.338 27.2637 207.047 26.9087 206.742 26.1808C206.843 26.1077 206.816 24.8764 206.661 22.4869C206.257 22.3017 205.824 22.2241 205.36 22.2541L203.758 22.3579C203.594 22.3685 203.368 22.1679 203.079 21.756L203.069 21.5981C203.05 21.3058 203.136 20.9792 203.328 20.6183ZM220.45 19.3567C223.007 19.191 224.307 19.4279 224.348 20.0672L224.358 20.225C224.379 20.5447 224.319 21.2453 224.177 22.3271C225.975 23.6746 226.903 24.7908 226.96 25.6757L227.012 26.4767L226.221 26.6865C225.984 26.651 225.46 25.9901 224.648 24.7039L223.638 23.965C223.684 24.6822 223.325 25.7232 222.56 27.088C221.903 26.8566 221.559 26.5031 221.528 26.0275C222.318 23.3537 222.694 21.7244 222.656 21.1397L222.324 21.0027L219.126 21.2098C218.69 21.0619 218.453 20.7015 218.416 20.1285C218.856 19.6733 219.534 19.416 220.45 19.3567ZM228.622 19.1503L229.101 19.1193C229.421 19.0986 229.726 19.666 230.016 20.8215L229.858 20.8317L231.358 26.6767C231.334 27.2145 230.925 27.5092 230.13 27.5607C229.837 27.5796 229.136 25.0024 228.026 19.8289L228.622 19.1503ZM245.35 16.781L245.987 16.7397C246.381 16.7142 246.727 17.9228 247.026 20.3657C247.17 20.3563 247.75 20.2111 248.765 19.9301C249.262 20.1054 249.541 20.3006 249.602 20.5159L249.633 20.9954C249.667 21.5294 248.886 21.8482 247.287 21.9517L247.298 22.1154C247.336 22.6962 247.526 23.9679 247.868 25.9303C247.693 26.4309 247.496 26.7118 247.277 26.773L246.797 26.8041C246.271 26.8382 245.837 25.0989 245.496 21.5862C245.364 21.5948 245.162 20.1087 244.891 17.1278L245.35 16.781ZM240.683 19.1676C241.323 19.1262 241.667 19.4797 241.715 20.2282L241.964 24.0639C241.973 24.2159 241.824 24.3861 241.515 24.5744L240.878 24.6157C240.722 24.6258 240.552 24.4763 240.367 24.1673L240.16 20.9689C238.46 21.1847 237.56 21.3506 237.462 21.4666C236.961 21.2916 236.681 21.0945 236.619 20.8753L236.578 20.238C236.554 19.8637 237.922 19.507 240.683 19.1676ZM251.186 14.7824L251.501 14.7619C252.012 14.7289 252.408 15.8815 252.688 18.2198C253.117 18.192 253.335 18.2327 253.342 18.3419L254.454 18.1054L256.214 17.9914C256.319 17.9846 256.376 18.0358 256.383 18.1449C256.582 18.0224 256.738 17.9575 256.851 17.9501C257.399 18.1183 257.693 18.5278 257.735 19.1788C257.538 19.4538 257.445 19.6752 257.456 19.8428L253.936 20.0708C253.402 20.1054 252.599 20.1026 251.528 20.0623C251.255 19.1758 250.951 17.8039 250.615 15.9467C250.611 15.8804 250.801 15.4923 251.186 14.7824ZM251.125 21.3743L252.738 21.4342L254.019 21.3513C256.685 21.1786 258.035 21.3593 258.07 21.8933L258.111 22.5307C258.121 22.6827 257.972 22.8529 257.663 23.0412L255.102 23.2071C254.996 23.2139 254.94 23.1647 254.934 23.0594L254.622 23.2381L253.975 23.1215C253.775 23.2401 253.618 23.3031 253.505 23.3104L253.174 23.1734C253.064 23.1805 253.013 23.2366 253.02 23.3419C251.417 23.3752 250.598 23.1073 250.561 22.5382C250.653 22.3248 250.695 22.1616 250.687 22.0485C250.582 22.0554 250.526 22.0061 250.519 21.9009C250.761 21.8852 250.963 21.7097 251.125 21.3743ZM254.526 24.2073L254.848 24.1864C254.953 24.1796 255.009 24.2308 255.017 24.3399L255.328 24.1554C257.031 24.045 257.942 24.8981 258.059 26.7146C257.772 28.4439 257.028 29.3473 255.827 29.4251C253.994 29.2268 253.036 28.4864 252.953 27.2039L252.891 26.245C253.1 24.9436 253.645 24.2643 254.526 24.2073ZM254.34 26.3097C254.62 27.2545 255.185 27.6993 256.035 27.6443L256.463 26.818C256.286 26.3871 255.998 26.0828 255.599 25.9051L254.64 25.9672C254.428 26.0162 254.328 26.1304 254.34 26.3097Z" fill="black"/>
<path d="M20.5831 58.5064C20.7749 59.0908 21.2627 61.6803 22.2587 61.7913C20.0375 62.3484 18.605 66.0997 17.7239 67.8676C16.0328 71.2607 16.7247 75.9723 16.7247 79.6808C16.7247 83.9012 17.5498 87.2149 20.1835 90.6613C22.2666 93.3873 23.8849 95.4837 26.8396 97.3236C30.0675 99.3336 32.9851 99.5444 36.6778 99.5444C39.3652 99.5444 42.3034 99.8714 44.9788 99.5135C46.6913 99.2844 48.5525 98.476 50.1438 97.8171C52.0931 97.01 53.7191 96.0878 55.2474 94.6093C56.6895 93.2142 57.2176 91.9508 57.9948 90.0914L58.0144 90.0444C59.9956 85.3045 60.4432 80.7648 60.4432 75.6557C60.4432 73.1565 60.8501 69.6946 58.9213 67.7596C58.1874 67.0233 57.6023 66.105 56.9076 65.3384C56.3549 64.7284 55.3563 63.5981 54.9707 62.9017C54.4185 61.9046 52.866 60.2397 51.8655 59.5705C51.8655 50.7847 52.0558 41.1477 51.8655 32.3661C51.7826 28.5404 50.0216 25.1017 49.4367 21.3857L49.4316 21.3532C49.2729 20.3439 48.9614 18.3631 47.715 18.2242C46.5116 18.09 45.364 18.3634 44.1794 18.4863C43.12 18.5963 42.4896 21.3882 42.181 22.1105C39.5769 28.2065 38.0306 35.2349 38.0306 41.8815V51.3352C38.0306 51.9182 38.4209 55.7111 37.6001 55.9464C36.3378 56.3082 34.387 56.0327 33.0961 55.9464C32.1209 55.8812 31.9925 55.6923 31.9432 54.8514C31.8971 54.065 31.3311 52.5463 31.0516 51.7362C30.3975 49.8405 30.6067 47.7059 30.1139 45.7833C29.506 43.4117 28.7472 41.0671 28.1309 38.6892C27.352 35.6839 27.1513 32.529 26.4092 29.4977C25.583 26.123 24.8847 22.731 23.9497 19.3808C23.541 17.9166 22.9319 14.3232 21.3671 13.613C18.5767 12.3466 15.8158 17.9063 15.1875 19.6893C14.1224 22.7118 14.7878 26.7226 14.7878 29.8832C14.7878 34.1564 15.1258 38.1052 15.9561 42.2979C17.04 47.7712 18.8441 53.2052 20.5831 58.5064Z" fill="#AFAFAF" stroke="black" stroke-width="2" stroke-linecap="round"/>
<path d="M44.4201 86.1221C44.4221 86.1853 44.4508 86.3922 44.3903 86.43C44.5159 86.8068 44.6524 87.4151 44.6524 87.8114C44.6524 88.5546 44.9244 89.0827 44.6524 89.7897C44.4707 90.2621 44.2708 91.0466 43.8611 91.3723C43.5317 91.6341 42.668 92.0219 42.2785 92.1636C41.6736 92.3838 41.3338 92.5593 40.6959 92.5593C39.7806 92.5593 38.4127 92.081 37.7467 91.3254C37.1881 90.6916 36.8423 89.768 36.7749 88.9331C36.6892 87.8722 36.7573 86.7614 36.9868 85.7247C37.1254 85.0985 37.3233 84.4882 37.7285 83.9798C37.9563 83.694 38.246 83.3333 38.5993 83.205C39.1032 83.0221 39.7648 83.0548 40.2962 83.0941C40.5162 83.1104 40.7295 83.1942 40.9335 83.2713C41.3249 83.4191 41.7171 83.5687 42.1023 83.7315C42.5947 83.9395 43.0459 84.2512 43.4235 84.6288C43.743 84.9483 44.0647 85.278 44.2711 85.685C44.3378 85.8165 44.4152 85.9724 44.4201 86.1221Z" fill="white" stroke="black" stroke-width="2" stroke-linecap="round"/>
<path d="M22.4958 76.7327C22.3695 75.8869 23.1317 74.2984 23.6662 73.6541C24.0658 73.2597 24.4062 72.693 24.8697 72.3803C25.2621 72.1157 25.6567 71.8344 26.0567 71.589C26.2108 71.4945 26.6812 71.2805 26.848 71.1934C27.3396 70.9366 27.8866 70.8316 28.4307 70.7977C29.222 70.7977 29.222 70.7977 30.0133 71.1934C30.5624 71.2778 31.1196 71.6093 31.6278 71.8449C32.4114 72.2081 33.0539 72.9714 33.6417 73.585C34.2786 74.2498 34.7114 75.1898 34.8784 76.0946C34.9376 76.4153 34.8847 76.8022 34.8784 77.1284C34.869 77.6177 34.7682 78.0877 34.5358 78.5079C34.2175 79.0835 34.0375 79.8365 33.5742 80.2936C33.1913 80.6715 32.8113 81.1478 32.3873 81.4806C31.5319 82.1519 30.2692 82.3901 29.2256 82.7143C28.4992 82.94 27.8487 83.0086 26.8479 82.6676C25.7204 82.2834 24.6279 81.7579 23.86 80.8538C23.2414 80.1256 22.6738 79.5023 22.4957 78.3766C22.2986 77.8343 22.5813 77.3058 22.4958 76.7327Z" fill="white" stroke="black" stroke-width="2" stroke-linecap="round"/>
<path d="M42.0692 69.4279C42.6809 68.8626 44.1836 68.3342 45.0588 68.0857C46.1619 67.9387 46.631 68.0283 47.614 68.121C48.6093 68.4241 49.9384 68.0857 51.7501 70.798C53.3572 73.9633 52.8371 74.3567 52.6971 75.5264C52.5668 76.6151 52.3357 77.7122 51.7501 78.649C51.2801 79.4011 50.6387 80.0713 49.9384 80.6154C49.0933 81.2719 48.1299 81.3275 47.1014 81.3275C45.9074 81.3275 44.8044 81.007 43.6853 80.6154C42.7894 80.3018 41.9559 79.8603 41.2866 79.1754C40.5098 78.3803 40.1924 77.1837 39.9777 76.1193C39.8673 75.5721 39.908 74.983 39.9347 74.4288C39.956 73.9852 39.9591 73.5729 40.0755 73.1414C40.3417 72.1549 40.777 71.1845 41.3414 70.3318C41.5528 70.0125 41.787 69.6888 42.0692 69.4279Z" fill="white" stroke="black" stroke-width="2" stroke-linecap="round"/>
<path d="M28.4401 71.7554C28.6438 71.8905 28.8516 72.0188 29.0036 72.2137C29.0693 72.2981 29.1313 72.3854 29.1932 72.4726C29.2672 72.5768 29.3213 72.6916 29.382 72.8033C29.4545 72.9369 29.5155 73.0763 29.5653 73.2203C29.6223 73.3852 29.6985 73.5442 29.7379 73.7147C29.8246 74.0907 29.8045 74.483 29.799 74.8669C29.7954 75.1118 29.7218 75.3553 29.6696 75.5931C29.6075 75.8755 29.5153 76.1531 29.4233 76.4271C29.3165 76.7452 29.1382 77.0455 28.8769 77.2558C28.7041 77.3947 28.523 77.5192 28.3466 77.653C28.1655 77.7903 27.9783 77.9286 27.7714 78.0251C27.3841 78.2056 26.975 78.3198 26.5706 78.4529C26.2621 78.5545 25.9474 78.6062 25.627 78.6596C25.2894 78.7159 24.9557 78.7875 24.6132 78.8052C24.4721 78.8125 24.3302 78.8088 24.1889 78.8088C24.1313 78.8088 24.0839 78.7924 24.0757 78.8645C24.0584 79.0157 24.1197 79.1646 24.1925 79.2923C24.3677 79.5995 24.5516 79.8987 24.7749 80.1731C25.2755 80.7883 25.8466 81.4772 26.5994 81.7891C26.7637 81.8571 26.9526 81.9007 27.1279 81.9239C27.2958 81.9461 27.4425 81.9946 27.6024 82.0479C27.6386 82.06 27.6677 82.0734 27.6995 82.0893C27.6995 82.0893 27.6672 81.8974 27.6635 81.8826C27.5997 81.6273 27.5503 81.3708 27.5503 81.106C27.5503 80.694 27.675 80.3043 27.766 79.9071C27.8777 79.4196 27.976 78.9251 28.1201 78.4457C28.2412 78.0431 28.3573 77.6444 28.618 77.3079C28.86 76.9955 29.1694 76.7894 29.5329 76.6374C29.9822 76.4495 30.4695 76.4515 30.9422 76.366C31.3808 76.2867 31.8329 76.2796 32.2778 76.2851C32.4009 76.2866 32.4995 76.3295 32.6103 76.3786C32.7543 76.4424 32.9028 76.4964 33.0471 76.5601C33.0694 76.57 33.2884 76.6908 33.3059 76.6698C33.3465 76.6211 33.3134 76.3735 33.3023 76.3139C33.2103 75.82 32.7686 75.449 32.4305 75.1149C32.2408 74.9274 32.0391 74.7374 31.8895 74.5163C31.7649 74.3323 31.6706 74.1262 31.5426 73.9429C31.5282 73.9223 31.4093 73.7161 31.3754 73.7362C31.3523 73.7499 31.3478 73.7823 31.3359 73.8063C31.2814 73.9159 31.2265 74.0249 31.1651 74.1308C31.0559 74.3192 30.9308 74.4984 30.8056 74.6763C30.6181 74.9427 30.4731 75.2191 30.3095 75.4996C30.1015 75.8561 29.8692 76.1977 29.6372 76.5386C29.3592 76.9469 29.1051 77.3673 28.8121 77.7663C28.5391 78.1381 28.2348 78.4918 27.9296 78.8376C27.6724 79.1288 27.4236 79.4182 27.1189 79.6608C26.9276 79.8131 26.7722 80.0038 26.5742 80.148C26.4244 80.2571 26.3127 80.4046 26.1716 80.5236C26.0426 80.6325 25.9352 80.766 25.8193 80.8885C25.7897 80.9198 25.7229 81.0942 25.8211 81.0395C25.9624 80.9608 26.0994 80.857 26.2237 80.7537C26.2603 80.7233 26.3054 80.6992 26.3208 80.6531" stroke="black" stroke-width="2" stroke-linecap="round"/>
<path d="M46.3855 68.3398C46.8073 68.7975 47.206 69.2119 47.4179 69.7994C47.4988 70.0237 47.5574 70.2429 47.5826 70.4803C47.6313 70.9382 47.6025 71.4155 47.474 71.8568C47.2844 72.5081 47.0008 73.1281 46.5185 73.6104C46.2548 73.8741 45.9493 74.089 45.6313 74.2828C45.2492 74.5159 44.8332 74.7646 44.411 74.915C43.8041 75.131 43.2054 75.308 42.5732 75.436C42.311 75.4891 42.0547 75.5834 41.7873 75.6057C41.6856 75.6141 41.5887 75.6238 41.4883 75.6423C41.4373 75.6517 41.3635 75.6391 41.3163 75.6594C41.1353 75.7369 42.0028 77.1226 42.0765 77.2543C42.3016 77.6563 42.4573 78.0988 42.6245 78.5271C42.6799 78.6692 42.7356 78.8118 42.7794 78.9579C42.7848 78.9758 42.7831 78.8558 42.7831 78.8371C42.7831 78.2195 42.7317 77.5797 42.8038 76.9663C42.8113 76.9029 42.9322 77.273 42.9417 77.3117C43.0584 77.7863 43.161 78.2636 43.2834 78.737C43.367 79.06 43.4745 79.3503 43.5958 79.6535C43.6957 79.9031 43.9328 80.0991 44.1181 80.2844C44.2168 80.3831 44.253 80.0819 44.267 80.022C44.3327 79.7417 44.4522 79.4747 44.5501 79.2044C44.7057 78.775 44.8423 78.3402 45.0407 77.9267C45.1509 77.697 45.2178 77.4497 45.3214 77.2177C45.4125 77.0136 45.5191 76.8096 45.6179 76.6088C45.858 76.1206 46.0895 75.6128 46.3831 75.1541C46.6361 74.7588 46.9343 74.4066 47.3203 74.134C47.8691 73.7462 48.5164 73.5954 49.18 73.5702C49.485 73.5585 49.7926 73.565 50.0977 73.5677C50.2735 73.5693 50.4258 73.586 50.5859 73.6556C50.7967 73.7472 51.0334 73.8637 51.207 74.0168C51.2942 74.0937 51.4399 74.174 51.5475 74.2218C51.6153 74.252 51.611 73.9434 51.6122 73.9058C51.621 73.6277 51.6445 73.3196 51.5877 73.0466C51.5065 72.6558 51.3388 72.2982 51.1789 71.9349C50.9541 71.424 50.6966 70.8955 50.3857 70.4315C50.2489 70.2273 50.0999 70.0442 49.922 69.8762C49.8427 69.8014 49.7335 69.6552 49.6267 69.6163C49.5069 69.5728 49.4434 70.1922 49.4388 70.2509C49.4005 70.7297 49.3955 71.2088 49.3777 71.6884C49.3682 71.9467 49.3289 72.2068 49.3289 72.4645C49.3289 72.5352 49.3071 72.5839 49.2728 72.6464C49.1755 72.8232 49.0083 72.9228 48.8359 73.0186C48.4543 73.2306 48.0553 73.4015 47.6546 73.5726C47.2361 73.7513 46.8376 73.9187 46.5039 74.2279C46.1548 74.5515 45.8625 74.9443 45.541 75.2957C45.4007 75.4491 45.2533 75.5942 45.1103 75.7448C44.9396 75.9244 44.8062 76.1125 44.6087 76.2671C44.4671 76.3779 44.3393 76.5051 44.1889 76.6039C44.0947 76.6658 43.9713 76.7452 43.9034 76.8358C43.8558 76.8991 43.7497 77.0493 43.6837 77.0823" stroke="black" stroke-width="2" stroke-linecap="round"/>
<path d="M15.8108 11.6372C15.9784 11.3197 16.1653 10.6577 16.8539 10.2464C17.5426 9.8352 18.035 10.0725 18.6118 10.0725H20.2247C20.7321 10.0725 21.7871 10.051 22.1564 10.4202C22.685 10.9488 23.3963 11.4191 23.8466 12.0332C24.7094 13.2097 25.6813 14.324 26.4978 15.5488C26.6677 15.8036 26.7821 16.2104 26.8697 16.505C26.953 16.7853 27.1531 17.0128 27.2464 17.2873C27.5002 18.0347 27.8132 18.7604 28.0673 19.5088C29.5656 23.9203 30.0458 28.6043 30.4578 33.2189C30.7065 36.0049 30.8489 38.8192 30.8489 41.6168C30.8489 42.5516 28.0548 42.382 27.454 42.4571C26.0636 42.6309 24.6671 42.5827 23.2671 42.5827C21.0091 42.5827 18.7829 42.5413 16.5304 42.4088C15.9866 42.3768 14.1532 42.4049 13.8791 41.8873C13.7656 41.6728 13.6459 41.4856 13.6377 41.1919C13.5109 36.6278 13.5508 32.0521 13.5508 27.4818C13.5508 24.4212 13.3483 21.2946 13.7681 18.2628C14.0079 16.531 14.6411 15.0169 15.1347 13.3564C15.3143 12.7523 15.5179 12.1921 15.8108 11.6372Z" fill="#6C11A4" stroke="black" stroke-width="2" stroke-linecap="round"/>
<path d="M41.7043 16.9492C41.8284 16.8074 44.0206 14.2714 44.2348 14.5927L45.0364 14.5926C45.274 14.5926 45.8048 14.6025 46.0216 14.6988C46.652 14.979 47.1679 15.6616 47.6442 16.1379C48.2917 16.7854 48.8312 17.4409 49.2958 18.2434C49.4014 18.4259 49.609 18.5286 49.7111 18.7167C49.8409 18.9559 49.9015 19.1899 49.9912 19.4411C50.1417 19.8625 50.36 20.4088 50.5852 20.8029C50.8712 21.3034 50.9108 21.8214 51.0536 22.3724C51.236 23.0759 51.3514 23.7953 51.4979 24.5069C51.817 26.0568 52.0535 27.6171 52.3382 29.1671C52.4826 29.9534 52.739 30.8233 52.7535 31.6203C52.7673 32.3822 52.6872 33.2423 52.9273 33.977C53.2706 35.027 53.362 36.4446 53.362 37.5457V39.4967C53.362 39.9558 53.5695 40.7723 53.0964 40.9793C52.1642 41.3871 51.2762 41.5461 50.3147 41.8437C47.4416 42.733 44.3114 42.5826 41.3421 42.5826H39.0675C38.3028 42.5826 37.5215 42.8064 36.7737 42.7806C36.5155 42.7717 36.5491 41.9651 36.4984 41.8003C36.2889 41.1193 36.3246 40.2327 36.3246 39.5209V36.8262C36.3246 34.1833 36.7532 31.5245 37.3677 28.9642C37.7902 27.2039 37.9915 25.4125 38.6667 23.7246C39.1121 22.6111 39.4747 21.4117 39.8547 20.2717C40.2284 19.1507 40.9334 17.8302 41.7043 16.9492Z" fill="#6C11A4" stroke="black" stroke-width="2" stroke-linecap="round"/>
<circle cx="17.7479" cy="8.67955" r="3.74791" fill="#FFFF00" stroke="black" stroke-width="2"/>
<circle cx="46.2352" cy="14.2186" r="3.74791" fill="#FFFF00" stroke="black" stroke-width="2"/>
<path d="M39.0695 28.885C38.8834 28.439 38.1664 27.843 37.8199 27.4966C37.6549 27.7441 37.7337 28.1522 37.7337 28.435C37.7337 29.1097 37.7446 29.7856 37.7337 30.4602C37.72 31.312 37.4429 32.1411 37.3028 32.9738C37.0598 34.4183 37.1403 35.8848 36.8719 37.3211C36.7672 37.8817 36.8289 38.4909 36.8289 39.0591C36.8289 39.1558 36.7359 39.7926 36.9581 39.6815C37.1681 39.5766 37.3253 39.3353 37.5279 39.2075C37.8318 39.016 38.0398 38.7115 38.3466 38.5181C39.0294 38.0876 39.5561 37.4697 40.1276 36.9094C40.2828 36.7573 40.4527 36.7738 40.6016 36.9142C40.8244 37.1242 41.1919 37.1494 41.4491 37.3307C41.6011 37.4379 41.7469 37.5395 41.9135 37.6228C42.0904 37.7112 42.218 37.8661 42.3875 37.9579C42.612 38.0795 42.9795 38.0754 43.2301 38.1399C43.5935 38.2333 43.9308 38.3559 44.2643 38.5277C44.3198 38.5562 44.693 38.7913 44.6378 38.6809C44.5775 38.5604 44.5692 38.4143 44.4989 38.3026C44.4063 38.1555 44.3439 37.9888 44.2787 37.8287C44.0654 37.3051 43.7535 36.821 43.4839 36.3253C43.2162 35.8331 42.9457 35.3408 42.67 34.853C42.5339 34.6123 42.3126 34.3894 42.2678 34.1085C42.2315 33.8811 42.4246 33.7098 42.5599 33.5388C43.5417 32.297 44.7487 31.1745 45.5427 29.7804C45.7324 29.4472 45.8778 29.1863 45.8778 28.7965C45.8778 28.7184 45.933 28.4292 45.7916 28.4541C45.5297 28.5004 45.3028 28.5921 45.0304 28.6265C43.678 28.7975 42.3352 29.2436 41.1618 29.9336C40.7692 30.1644 40.402 30.4053 40.0702 30.7164C39.9442 30.8345 39.9831 30.7972 39.8883 30.7379C39.7943 30.6792 39.7489 30.4553 39.7063 30.3621C39.4833 29.8742 39.2761 29.38 39.0695 28.885Z" fill="#FFFF00" stroke="black" stroke-width="2" stroke-linecap="round"/>
<path d="M26.4877 18.17C26.6366 17.8775 26.7918 17.2565 27.1357 17.1519C27.6085 19.0826 28.0829 21.013 28.553 22.9445C28.6084 23.172 28.6728 23.4072 28.7159 23.6399C28.7777 23.974 28.8231 24.3134 28.8776 24.649C28.9503 25.0958 28.9767 25.5489 29.0471 25.9948C29.0891 26.2605 29.0768 26.5297 29.0768 26.7981V27.3439C29.0768 27.4862 29.0352 27.7063 29.1164 27.8281C28.8842 27.8281 28.3068 27.1926 28.0988 27.0825C27.857 26.9544 27.6853 26.8933 27.4141 26.8933C27.3031 26.8933 27.2424 26.9817 27.158 27.0418C26.846 27.2637 26.5722 27.5578 26.2818 27.8078C25.8704 28.162 25.4918 28.4994 25.0466 28.8133C24.6738 29.076 24.3578 29.4863 23.9645 29.7086C23.9412 29.7218 23.9821 29.1593 23.9861 29.1101C24.0234 28.6431 24.1129 28.1814 24.1177 27.7025C24.1238 27.1035 24.2541 26.2692 23.9861 25.7108C23.7396 25.1972 23.3011 24.8182 22.9016 24.4276C22.6234 24.1556 22.2917 23.9362 22.0015 23.6759C21.444 23.1758 20.9613 22.5926 20.5173 21.9906C20.4486 21.8974 20.1321 21.4453 20.3737 21.4185C20.663 21.3864 20.9435 21.3835 21.2355 21.3754C21.7973 21.3598 22.3594 21.2909 22.9208 21.2581C23.47 21.226 24.0203 21.2422 24.5702 21.2078C24.739 21.1973 24.9527 21.249 25.0897 21.1193C25.4508 20.7771 25.5806 20.1414 25.7719 19.7021C25.9984 19.182 26.2301 18.6759 26.4877 18.17Z" fill="#FFFF00" stroke="black" stroke-width="2" stroke-linecap="round"/>
<path d="M14.6954 33.4864C14.5106 33.5024 13.9936 33.3911 13.8065 33.3911C13.6547 35.6303 13.7914 38.0873 13.7914 40.3322L13.7913 41.5192C13.7913 41.6172 14.0507 41.9035 14.1871 41.9148C14.5969 41.949 14.354 41.7451 14.7641 41.7907C15.8587 41.9123 16.9785 41.8857 18.0783 41.8857C19.0303 41.8857 19.9824 41.8819 20.9343 41.8857C21.4201 41.8876 21.8997 41.9684 22.3838 41.9684C22.3838 41.5192 22.1001 41.1235 21.4246 40.6824C21.2664 40.5066 21.1458 40.2201 20.9626 40.0792C20.6554 39.8429 20.4302 39.4941 20.1559 39.2198C19.5748 38.6387 18.8923 38.037 18.5687 37.264C18.4244 36.9192 18.5662 36.6566 18.7315 36.3638C19.0594 35.7831 19.454 35.2387 19.8231 34.6833C20.2085 34.1035 20.7361 33.4812 20.9865 32.8209C21.0317 32.7018 21.0153 32.5627 21.0153 32.4379C21.0153 32.312 20.7863 32.3824 20.7184 32.3924C19.5059 32.5713 18.3177 32.9158 17.1132 33.1417C16.3132 33.2917 15.5066 33.4158 14.6954 33.4864Z" fill="#FFFF00" stroke="black" stroke-width="2" stroke-linecap="round"/>
<path d="M43.5024 89.8306C43.7101 89.8306 43.9178 89.8306 44.1254 89.8306C44.4877 89.8306 44.745 89.9959 45.0393 90.1952C45.1996 90.3038 45.385 90.3842 45.5537 90.4796C45.8291 90.6353 46.0801 90.8873 46.333 91.0787C46.7515 91.3954 47.1524 91.7421 47.5572 92.075C47.9249 92.3773 48.1652 92.8143 48.4103 93.2103C48.5099 93.3711 48.6249 93.5185 48.7381 93.6683C48.8531 93.8206 48.9114 94.0355 49.0376 94.1762C49.1288 94.2779 49.274 94.3768 49.3372 94.4975C49.4131 94.6424 49.4006 94.6979 49.5369 94.7971C49.5599 94.8138 49.7115 95.0138 49.7149 95.0358C49.7291 95.1282 49.7747 95.2089 49.793 95.3006" stroke="#B6F6FF" stroke-width="2" stroke-linecap="round"/>
</svg>
