<svg width="350" height="102" viewBox="0 0 350 102" fill="none" xmlns="http://www.w3.org/2000/svg">
<path d="M85.7574 78.8123C83.0887 80.4027 79.9814 81.5 77.5091 83.3906C74.7504 85.5 84.0341 82 85.5093 82C87.4802 82 89.3286 80.7215 91.2995 80.7215H100.882H118.176H130.113C132.894 80.7215 136.064 80.3256 138.825 80.7956C145.658 81.9588 152.802 81.3887 159.733 81.3887H179.752C188.922 81.3887 198.28 81.2745 207.407 82.1302C210.12 82.3845 212.721 83.447 215.395 83.8725C217.989 84.2852 220.66 83.9566 223.273 84.132C227.543 84.4186 233.722 82.7422 238 83C248.236 83.6166 258.24 82.5173 268.5 82.1302C279.35 81.7207 320.123 81.3468 327.195 72.3804C329.83 69.0397 332.806 65.9258 333.034 61.3703C333.201 58.0232 333.584 53.6257 331.792 50.6938C326.882 42.6603 307.555 42.3071 294.54 39.8034C280.509 36.4872 261.78 34.8294 250.009 33.9971C237.372 33.1036 225.671 34.9566 213 35C200.325 35.0434 183.788 36.8033 171.5 39.8034C159.67 42.6916 149.715 41.055 138.825 46.5C131.712 50.0563 126.015 48.1087 120.011 53.2702C112.96 59.3315 105.467 64.925 98.014 70.488L97.5646 70.8234C93.7474 73.6729 89.8528 76.3716 85.7574 78.8123Z" fill="white" stroke="black" stroke-width="2" stroke-linecap="round"/>
<path d="M136.391 54.2344V54.4531L136.82 54.2344H137.039C137.836 54.2344 138.333 54.5911 138.531 55.3047C138.359 56.3047 138.003 56.8047 137.461 56.8047L135.969 56.5859C135.719 56.7318 135.432 56.8047 135.109 56.8047V57.2266C135.109 58.3724 135.536 58.9453 136.391 58.9453C137.349 58.9453 138.135 59.1589 138.75 59.5859L138.531 57.6562C138.531 56.0156 139.245 55.0885 140.672 54.875H141.953C142.099 54.875 142.172 54.9479 142.172 55.0938L142.602 54.875H143.664C143.872 54.875 144.089 55.0885 144.312 55.5156V55.9453C144.312 56.9453 143.742 57.4453 142.602 57.4453C141.581 57.2995 141.01 57.2266 140.891 57.2266V58.5156C140.891 59.3698 141.531 59.7969 142.812 59.7969C143.016 59.7969 143.229 60.0104 143.453 60.4375V60.6562C143.453 61.4219 143.169 61.9193 142.602 62.1484H141.102C139.924 62.1484 139.141 61.3646 138.75 59.7969H138.531C138.531 60.9375 138.318 61.5078 137.891 61.5078H137.25C134.255 61.5078 132.758 60.2969 132.758 57.875V56.5859C132.758 56.2474 132.971 55.6068 133.398 54.6641L133.828 54.875V54.4531H135.328L136.391 54.2344ZM148.375 54.875H148.586C148.81 54.875 149.096 55.1615 149.445 55.7344C149.586 58.5365 149.656 60.3906 149.656 61.2969H149.445C149.445 61.4375 149.516 61.5078 149.656 61.5078C149.656 61.8828 149.443 62.6667 149.016 63.8594H147.945C147.721 63.8594 147.438 63.5755 147.094 63.0078C147.094 62.6849 147.164 62.3984 147.305 62.1484L147.094 61.7188C147.234 60.9479 147.305 60.3073 147.305 59.7969H144.523C144.299 59.7969 144.013 59.513 143.664 58.9453V58.7266C143.758 57.8724 143.974 57.4453 144.312 57.4453H145.383C145.523 57.4453 145.594 57.5156 145.594 57.6562L146.023 57.4453H147.094C147.094 57.1589 147.164 57.0156 147.305 57.0156L147.094 56.5859V56.1641C147.094 55.3047 147.521 54.875 148.375 54.875ZM141.102 65.1484L146.023 65.7891C146.737 66.3203 147.094 67.1745 147.094 68.3516C147.094 70.6068 146.523 71.8203 145.383 71.9922C144.669 71.7943 144.312 71.2943 144.312 70.4922V70.2812C144.312 70.1458 144.453 69.5755 144.734 68.5703V67.9297H144.523L141.531 67.7109L141.102 67.9297C140.247 67.5599 139.82 67.0599 139.82 66.4297C139.961 66.1536 140.031 65.9401 140.031 65.7891C139.891 65.7891 139.82 65.7161 139.82 65.5703C140.674 65.4714 141.102 65.3307 141.102 65.1484ZM161.648 57.25C162.362 57.6771 162.719 59.5286 162.719 62.8047V66.8594L161.219 67.2891C161.219 67.0026 161.078 66.8594 160.797 66.8594V62.8047H159.516L158.016 62.5859C157.646 64.4401 156.865 65.3672 155.672 65.3672H154.602C152.424 65.3672 151.143 63.7995 150.758 60.6641V60.4531C151.185 58.7448 152.039 57.8906 153.32 57.8906H153.75C153.891 57.8906 153.961 57.9609 153.961 58.1016L154.391 57.8906H155.242C156.451 57.8906 157.375 58.8151 158.016 60.6641H159.938L160.367 60.8828L160.578 60.4531V60.0234C160.578 59.513 160.508 58.8724 160.367 58.1016C160.508 57.5339 160.935 57.25 161.648 57.25ZM164.422 57.4609C165.422 57.6484 166.062 59.7839 166.344 63.8672C166.344 66.0026 165.917 67.0703 165.062 67.0703H164.852C164.628 67.0703 164.344 66.7865 164 66.2188L164.211 64.0859V62.375C164.211 61.276 163.927 60.0651 163.359 58.7422C163.359 58.0286 163.714 57.6016 164.422 57.4609ZM153.32 59.5938L152.68 60.6641C153.003 62.3724 153.714 63.2266 154.812 63.2266H155.453C156.026 62.9974 156.312 62.5 156.312 61.7344V61.0938C155.74 60.0938 154.742 59.5938 153.32 59.5938ZM179.625 53.8125C180.193 53.9531 180.69 54.0234 181.117 54.0234C181.393 53.8828 181.609 53.8125 181.766 53.8125C181.766 54.0365 181.906 54.3229 182.188 54.6719V55.7344C182.188 56.0208 181.477 56.2344 180.055 56.375L179.625 56.1641C179.474 56.1641 179.26 56.2344 178.984 56.375L178.125 56.1641C176.844 56.2786 176.203 56.4922 176.203 56.8047V57.6641C176.203 57.9141 176.844 58.1979 178.125 58.5156C178.271 58.5156 178.344 58.4453 178.344 58.3047L179.414 58.5156L181.547 58.3047L182.188 59.1562V60.2266C181.859 60.2266 181.432 60.4401 180.906 60.8672L179.836 60.6562H178.125C175.562 60.6562 174.281 59.5859 174.281 57.4453V56.1641H173.852C173.852 56.0234 173.922 55.9531 174.062 55.9531L173.852 55.5234C173.852 54.7578 174.135 54.2578 174.703 54.0234H174.922C175.062 54.0234 175.133 54.0964 175.133 54.2422L175.562 54.0234H177.484C178.161 54.0234 178.875 53.9531 179.625 53.8125ZM174.492 61.5078L176.633 61.7266H182.406C182.833 61.8672 183.047 62.2943 183.047 63.0078V63.6484C183.047 63.9349 182.904 64.0781 182.617 64.0781H180.695C180.268 64.0781 180.055 64.1484 180.055 64.2891L178.984 64.0781H177.484C176.771 64.0781 175.703 64.0052 174.281 63.8594C174.281 63.5781 174.138 63.4375 173.852 63.4375V62.7891C173.852 62.2734 174.065 61.8464 174.492 61.5078ZM175.352 64.9297H180.266C181.406 64.9297 181.977 65.7865 181.977 67.5C181.977 68.6771 180.479 69.4609 177.484 69.8516C177.484 70.1328 177.698 70.2734 178.125 70.2734C178.271 70.2734 178.344 70.2031 178.344 70.0625L179.414 70.2734C180.503 70.2734 181.784 70.1328 183.258 69.8516L183.469 70.2734V70.9141C183.469 72.0547 182.331 72.625 180.055 72.625L179.625 72.4141L179.195 72.625L178.766 72.4141C178.625 72.4141 178.555 72.4844 178.555 72.625C176.133 72.2969 174.922 71.4427 174.922 70.0625V69.8516C174.922 68.487 176.346 67.6302 179.195 67.2812V67.0703H175.562C175.318 67.0703 175.104 66.7135 174.922 66C175.208 65.5365 175.352 65.1797 175.352 64.9297ZM196.109 57.4609C196.823 57.8568 197.18 58.4271 197.18 59.1719C197.18 59.3125 197.107 59.3828 196.961 59.3828C197.107 60.2682 197.32 62.9036 197.602 67.2891C197.461 67.5651 197.391 67.7786 197.391 67.9297H196.75L195.68 67.7188C195.539 65.0417 195.398 63.4036 195.258 62.8047H191.836V61.9453C191.836 61.0911 192.406 60.6641 193.547 60.6641H195.258L195.039 59.1719V58.5312C195.039 58.3385 195.396 57.9818 196.109 57.4609ZM187.352 58.1016C187.352 58.388 188.133 58.6016 189.695 58.7422C190.659 59.5807 191.302 60.862 191.625 62.5859C191.052 64.2943 190.195 65.1484 189.055 65.1484H188.414C185.852 64.612 184.57 63.1875 184.57 60.875C184.945 59.6146 185.516 58.8333 186.281 58.5312C186.745 58.2448 187.102 58.1016 187.352 58.1016ZM186.711 60.6641V61.0938C186.893 62.375 187.534 63.0156 188.633 63.0156H189.055L189.695 62.5859C189.367 61.1641 188.656 60.4531 187.562 60.4531L186.711 60.6641ZM210.023 52.7578H210.234C211.089 52.7578 211.516 53.1849 211.516 54.0391V55.75H212.156C213.438 55.75 214.078 56.1771 214.078 57.0312C213.88 57.7448 213.383 58.1016 212.586 58.1016H211.727V59.8125C211.727 60.5521 211.513 60.9792 211.086 61.0938H210.234C209.667 61.0938 209.31 59.7396 209.164 57.0312L209.383 55.75V55.3203L209.164 54.0391C209.456 53.1849 209.742 52.7578 210.023 52.7578ZM199.977 52.9688H203.398C204.393 52.9688 204.891 53.5391 204.891 54.6797V57.6719L205.109 58.9531C204.833 59.6042 204.547 59.9609 204.25 60.0234H203.609C203.042 59.7943 202.758 59.2969 202.758 58.5312V55.5391C202.758 55.2526 202.615 55.1094 202.328 55.1094H199.336C199.133 55.1094 198.919 54.8958 198.695 54.4688V54.2578C198.695 53.3984 199.122 52.9688 199.977 52.9688ZM205.75 62.1562H208.523C209.805 62.1562 210.445 62.9401 210.445 64.5078V65.5781C210.445 66.9688 209.094 67.8229 206.391 68.1406C206.245 68.1406 206.172 68.2135 206.172 68.3594V69.2109H209.594C210.589 69.2109 211.086 69.638 211.086 70.4922C211.086 71.2057 210.445 71.5625 209.164 71.5625H207.031C205.036 71.5625 204.039 70.7786 204.039 69.2109C203.893 69.0703 203.82 68.5 203.82 67.5C203.82 66.5417 205.245 65.8307 208.094 65.3672V64.2969H207.453C206.531 64.2969 205.534 64.4401 204.461 64.7266C203.893 64.513 203.609 64.2995 203.609 64.0859V63.2266C203.932 62.513 204.646 62.1562 205.75 62.1562ZM224.789 55.7578C225.534 55.8984 226.245 55.9688 226.922 55.9688H227.773C228.346 57.0417 228.633 57.7552 228.633 58.1094L228.414 59.3828V60.0234C228.435 60.3099 229.432 61.1641 231.406 62.5859C231.547 62.8359 231.617 63.1224 231.617 63.4453C231.477 64.013 231.049 64.2969 230.336 64.2969L227.352 62.375C227.492 62.651 227.562 62.8646 227.562 63.0156C227.094 64.2969 226.453 64.9375 225.641 64.9375C225.641 64.651 225.427 64.5078 225 64.5078V63.2266C225.995 61.3776 226.492 59.6719 226.492 58.1094H222.438C222.094 57.8229 221.81 57.6797 221.586 57.6797C221.586 56.5391 222.156 55.9688 223.297 55.9688C223.724 55.9688 224.221 55.8984 224.789 55.7578ZM234.18 55.7578H234.609C235.271 55.7578 235.768 57.2526 236.102 60.2422H236.312L238.445 60.0234C238.164 58.7474 238.023 57.8229 238.023 57.25V56.8281C238.305 56.2552 238.732 55.9688 239.305 55.9688C240.581 58.4271 241.219 61.8438 241.219 66.2188V66.4297C240.938 66.9974 240.513 67.2812 239.945 67.2812C239.305 67.2812 238.948 66.5703 238.875 65.1484H239.086L238.875 64.7188V62.5859L238.664 62.1641L238.234 62.375H236.312L236.523 63.8672H236.312L236.523 64.2969V65.7891C236.242 66.3568 235.815 66.6406 235.242 66.6406C234.534 66.6406 234.18 65.8594 234.18 64.2969H234.391L234.18 63.8672V63.4453C234.18 62.862 233.966 60.5833 233.539 56.6094V56.3984C233.539 56.1953 233.753 55.9818 234.18 55.7578ZM244.461 54.4531H248.305C249.872 54.7865 250.656 55.9271 250.656 57.875V59.5859C250.656 60.2266 249.089 60.7969 245.953 61.2969V61.5078C246.453 61.7943 248.378 62.0807 251.727 62.3672L251.938 63.4375V64.2891L250.445 64.5H248.305C245.169 64.2396 243.602 63.2422 243.602 61.5078C244.299 59.513 245.797 58.5156 248.094 58.5156H248.523C248.378 57.375 248.164 56.8047 247.883 56.8047H245.523C245.383 56.8047 245.312 56.7344 245.312 56.5938C245.057 56.7344 244.344 56.8776 243.172 57.0234C243.172 56.9401 242.888 56.5833 242.32 55.9531V55.5234C242.643 54.8099 243.357 54.4531 244.461 54.4531ZM246.594 66H247.234C247.807 66 248.164 67.2109 248.305 69.6328H248.945V68.7812L248.734 67.7109H248.945L248.734 67.2812C248.734 66.4271 249.234 66 250.234 66C250.453 66 250.737 66.2839 251.086 66.8516V69.8516H251.516C251.833 69.8516 252.117 69.7786 252.367 69.6328C253.221 69.8359 253.648 70.263 253.648 70.9141C253.555 71.2943 253.201 71.651 252.586 71.9844H247.664C247.523 71.9844 247.453 71.9141 247.453 71.7734C247.307 71.7734 247.234 71.8438 247.234 71.9844C245.099 71.9844 244.031 71.4141 244.031 70.2734C244.172 69.8464 244.599 69.6328 245.312 69.6328H245.953V66.6406C245.953 66.4375 246.167 66.224 246.594 66ZM259.656 52.1016C260.943 52.6172 261.586 53.901 261.586 55.9531C260.961 56.6667 259.677 57.1641 257.734 57.4453C257.594 57.4453 257.523 57.5182 257.523 57.6641V57.875H257.734C258.557 57.875 259.698 57.8047 261.156 57.6641C261.724 57.8047 262.008 58.2318 262.008 58.9453V59.375C261.867 59.8021 261.44 60.0156 260.727 60.0156H257.734C256.026 59.8698 255.172 59.0859 255.172 57.6641C255.172 55.9505 256.526 55.0938 259.234 55.0938C259.234 54.2396 258.948 53.8125 258.375 53.8125C256.693 54.099 255.625 54.2422 255.172 54.2422L254.742 53.6016C255.112 52.6016 256.75 52.1016 259.656 52.1016ZM263.297 61.0859C263.948 61.362 264.302 61.6458 264.359 61.9375L264.148 63.0078H263.297L262.008 63.2188L261.586 63.0078C261.336 63.1484 261.049 63.2188 260.727 63.2188C260.586 63.2188 260.516 63.1484 260.516 63.0078C259.958 63.2943 259.174 63.4375 258.164 63.4375H256.453C256.13 63.4375 255.844 63.5078 255.594 63.6484C255.026 63.4349 254.742 63.2214 254.742 63.0078V61.7266C256.174 61.2995 259.026 61.0859 263.297 61.0859ZM262.008 64.2891C262.883 65.0599 263.383 65.7734 263.508 66.4297C263.508 67.9297 262.297 68.9974 259.875 69.6328V70.0625H260.945C261.086 70.0625 261.156 70.1328 261.156 70.2734C261.281 70.2734 261.852 70.0599 262.867 69.6328C263.721 69.8255 264.148 70.112 264.148 70.4922C263.674 71.7734 262.891 72.4141 261.797 72.4141H260.305C258.591 72.4141 257.734 71.487 257.734 69.6328C257.734 68.4766 258.805 67.5495 260.945 66.8516L261.156 66.4297H260.945C258.68 66.5703 257.326 66.6406 256.883 66.6406L256.664 66.2109V64.9297C258.362 64.5026 260.143 64.2891 262.008 64.2891ZM278.281 52.9609C280.99 52.9609 282.344 54.099 282.344 56.375C282.344 57.9427 282.414 58.7266 282.555 58.7266C282.268 59.5859 281.984 60.0156 281.703 60.0156H281.484C280.349 60.0156 279.781 58.8021 279.781 56.375V55.5234H276.359C276.036 55.5234 275.75 55.5938 275.5 55.7344C275.359 55.7344 275.289 55.6641 275.289 55.5234L274.219 55.7344H272.938C272.224 55.3281 271.867 54.901 271.867 54.4531C271.867 53.7031 272.581 53.276 274.008 53.1719H277.43C277.747 53.1719 278.031 53.1016 278.281 52.9609ZM276.57 57.875C277.159 58.0729 277.586 58.4297 277.852 58.9453V59.5859L277.641 60.8672C277.927 61.4505 278.07 61.8776 278.07 62.1484L279.562 61.9375H280.844C281.984 61.9375 282.555 62.5078 282.555 63.6484V63.8594C282.555 64.2344 282.057 64.5208 281.062 64.7188V64.5L280.633 64.7188H279.562C278.453 64.7188 276.529 64.8594 273.789 65.1406C272.648 64.9635 272.078 64.4661 272.078 63.6484C272.078 62.7943 272.648 62.3672 273.789 62.3672H275.719L275.289 60.8672C275.289 58.8724 275.716 57.875 276.57 57.875ZM279.352 65.5703C281.346 65.6589 282.344 66.3724 282.344 67.7109C282.344 69.1693 281.133 70.1667 278.711 70.7031L278.492 71.1328H278.711L280.844 70.9141L283.414 71.3438C283.414 73.0573 281.846 73.9141 278.711 73.9141C277.284 73.9141 276.286 72.987 275.719 71.1328C275.719 69.737 276.857 68.7396 279.133 68.1406V67.9219C277.997 68.2083 276.643 68.3516 275.07 68.3516C274.883 68.3516 274.529 67.9948 274.008 67.2812V66.6406C274.008 66.4167 274.292 66.1328 274.859 65.7891C277.359 65.6432 278.857 65.5703 279.352 65.5703ZM288.141 56.6016V56.8203C288.417 56.6745 288.63 56.6016 288.781 56.6016C290.917 56.6016 291.984 58.3125 291.984 61.7344V62.1562C291.984 62.5833 290.633 63.0833 287.93 63.6562L287.5 64.2969V64.5078C287.5 64.7005 287.857 65.0573 288.57 65.5781H291.133C291.93 65.5781 292.427 65.9349 292.625 66.6484C292.625 67.5026 291.771 67.9297 290.062 67.9297H289.852C286.857 67.9297 285.359 66.7188 285.359 64.2969C285.359 62.3385 286.784 61.1979 289.633 60.875C289.779 60.875 289.852 60.8047 289.852 60.6641C289.763 59.5234 289.549 58.9531 289.211 58.9531H288.57C287.82 58.9531 286.609 59.026 284.938 59.1719L284.508 58.5234V57.4609C284.508 57.2526 284.721 57.0391 285.148 56.8203H287.07L288.141 56.6016ZM295.836 57.8828H296.898C297.326 59.0234 297.539 60.1641 297.539 61.3047H299.68C300.393 61.3047 300.82 61.5885 300.961 62.1562C300.852 63.1562 300.354 63.6562 299.469 63.6562H297.758V63.8672C297.898 65.8099 297.969 67.0208 297.969 67.5C297.417 68.0729 296.919 68.3594 296.477 68.3594L295.617 67.0781C295.617 66.9219 295.69 66.7057 295.836 66.4297C295.69 62.7786 295.404 60.3594 294.977 59.1719C295.268 58.3125 295.555 57.8828 295.836 57.8828ZM302.695 54.6797H303.547C303.755 54.6797 303.971 54.8932 304.195 55.3203V57.6719L304.406 58.1016L304.836 57.8828H308.25V56.8203L308.469 55.3203H309.32C309.888 55.5547 310.172 56.0547 310.172 56.8203V57.8828C310.172 61.1589 309.104 62.7969 306.969 62.7969H306.758L307.398 63.6562V66.4297H309.109C310.104 66.4297 310.602 66.9297 310.602 67.9297L309.75 68.5703H302.906C302.661 68.5703 302.448 68.2135 302.266 67.5C302.552 67.0365 302.695 66.6797 302.695 66.4297H305.258V64.2969C305.258 63.8177 305.471 63.3177 305.898 62.7969C303.477 62.7969 302.266 61.8724 302.266 60.0234C302.266 58.3568 302.195 57.0026 302.055 55.9609C302.242 55.1068 302.456 54.6797 302.695 54.6797ZM313.164 57.4609C313.909 57.4609 314.479 57.8151 314.875 58.5234V59.8125L315.086 62.375H317.438C317.646 62.375 317.859 62.5885 318.078 63.0156V63.6562C317.891 64.224 317.25 64.5078 316.156 64.5078H315.086L315.305 65.5781V66.0078C315.305 66.1484 315.232 66.2188 315.086 66.2188L315.305 66.6484V66.8594C315.305 67.0052 315.232 67.0781 315.086 67.0781L315.305 67.5V67.7188C314.93 68.4219 314.643 68.776 314.445 68.7812H313.594C313.391 68.7812 313.177 68.5677 312.953 68.1406V64.9375C312.953 64.6146 313.023 64.3307 313.164 64.0859C313.023 63.8359 312.953 63.5495 312.953 63.2266H313.164L312.953 62.7969V61.5156C312.953 60.7344 312.883 59.737 312.742 58.5234C313.023 58.0651 313.164 57.7109 313.164 57.4609ZM306.969 60.0234H304.617V60.4531L305.688 60.6641H307.398C307.68 60.6641 307.82 60.5208 307.82 60.2344V60.0234C307.539 60.0234 307.398 59.9531 307.398 59.8125L306.969 60.0234Z" fill="black"/>
<path d="M112.21 32.8185L113.143 32.5657C113.995 32.3349 114.73 32.7996 115.348 33.9597L115.516 34.5818C115.617 34.955 115.522 35.4241 115.23 35.9888C116.486 36.5347 117.241 37.2733 117.493 38.2046C117.53 40.5217 116.74 41.8993 115.122 42.3374L114.658 42.463C113.731 42.7142 113.102 42.4413 112.773 41.6442L112.73 41.4858C112.69 41.3388 112.803 41.1423 113.068 40.8964C114.167 40.7082 114.801 40.5911 114.97 40.5452C115.833 40.0526 116.129 39.3087 115.859 38.3133C115.747 37.8985 115.303 37.6869 114.528 37.6784C113.797 38.2081 113.323 38.5026 113.104 38.5618C112.689 38.6742 112.361 38.4859 112.119 37.9969C112.413 37.0189 112.967 36.2031 113.781 35.5495L114.078 34.8074C113.91 34.1853 113.362 33.9999 112.434 34.2511L112.281 34.2925C112.317 34.4244 112.076 34.7669 111.558 35.32L110.942 35.487C110.885 35.2796 110.754 35.204 110.546 35.2602L110.421 34.7964C110.312 34.3968 110.909 33.7375 112.21 32.8185ZM125.545 31.0399C126.269 30.8439 126.896 31.7261 127.427 33.6867C127.529 33.6592 127.594 33.6963 127.621 33.7981L128.355 33.4355L129.129 33.2256L128.877 32.2925C128.814 32.0625 128.706 31.8713 128.551 31.7189C128.384 31.1006 128.611 30.7071 129.233 30.5386L129.539 30.4559C129.766 30.4429 130.043 30.6432 130.369 31.0566C130.398 31.1621 130.359 31.2292 130.254 31.2578C131.514 33.8628 132.233 35.4951 132.412 36.1549C132.468 36.9167 132.361 37.3343 132.089 37.4078L131.467 37.5763C131.158 37.66 130.634 36.7497 129.896 34.8453L129.168 35.2063L128.235 35.459C128.304 35.7154 128.59 36.3585 129.091 37.3882L128.939 37.4295L129.174 37.6936L129.217 37.8519C129.095 38.4636 128.87 38.8565 128.541 39.0307C127.832 39.2227 127.028 37.8904 126.129 35.034C125.973 34.8617 125.88 34.7209 125.85 34.6116L126.003 34.5702C125.654 34.1023 125.298 33.201 124.937 31.8663C124.931 31.4267 125.134 31.1513 125.545 31.0399ZM119.904 32.8956L120.831 32.6444C121.861 32.3656 122.543 32.8464 122.879 34.0869C122.985 34.0583 123.135 34.404 123.33 35.1242L124.043 37.754C124.087 37.9162 123.935 38.1797 123.589 38.5446L123.125 38.6703C122.537 38.5462 122.167 38.2033 122.015 37.6415L121.721 36.5557C121.693 36.4539 121.732 36.3887 121.838 36.3601C121.678 36.1888 121.583 36.0486 121.554 35.9392C121.526 35.8374 121.565 35.7722 121.671 35.7436L121.303 35.0117L121.177 34.5479L121.024 34.5893C119.692 35.1687 118.843 35.508 118.477 35.607L118.319 35.6499C118.01 35.7337 117.692 35.3765 117.367 34.5783C117.469 34.5507 117.506 34.486 117.478 34.3842C117.376 34.4118 117.312 34.3747 117.284 34.2729C118.631 33.4629 119.504 33.0038 119.904 32.8956ZM141.884 26.2804L142.659 26.0705C143.019 26.5922 143.355 27.2215 143.668 27.9583L143.51 28.0012C143.663 28.1498 143.893 28.5855 144.198 29.3082L144.467 29.0712L144.931 28.9456C145.033 28.9181 145.098 28.9552 145.125 29.057L145.395 28.82L145.859 28.6944C146.195 28.7125 146.434 28.9798 146.574 29.4963C146.549 29.9441 146.141 30.2752 145.349 30.4896L144.733 30.6566C145.113 31.6583 145.374 32.4194 145.515 32.9397C145.58 33.4766 145.495 33.7768 145.261 33.8401L144.486 34.05C144.44 33.8803 144.294 33.7519 144.048 33.6648C143.729 32.4847 142.881 30.1687 141.505 26.717L141.884 26.2804ZM131.754 29.358C134.603 28.8333 136.066 28.7123 136.142 28.9951C136.56 29.311 136.799 29.5802 136.859 29.8026L137.323 29.677C139.076 29.2022 140.106 29.5322 140.413 30.667C140.624 31.0391 140.786 31.4382 140.902 31.8643L141.404 33.7193C141.446 33.8739 141.282 34.0841 140.913 34.35C140.238 34.3064 139.873 34.1846 139.819 33.9848L139.189 31.6603C139.069 31.2154 138.778 30.9624 138.316 30.9013C138.144 31.0573 138.003 31.15 137.893 31.1796L137.43 31.3053C137.458 31.4108 137.422 31.4774 137.32 31.505C137.347 31.6068 137.412 31.6439 137.514 31.6163C138.073 33.6787 137.992 34.8075 137.272 35.0025C137.004 35.075 136.648 34.7849 136.204 34.1322C136.289 34.0405 136.018 32.839 135.392 30.5278C134.96 30.4263 134.519 30.4363 134.071 30.5578L132.521 30.9776C132.363 31.0205 132.101 30.8688 131.736 30.5224L131.695 30.3697C131.618 30.087 131.638 29.7497 131.754 29.358ZM148.286 24.7226C150.759 24.0526 152.079 24.0269 152.247 24.6452L152.288 24.7979C152.372 25.1071 152.452 25.8058 152.528 26.894C154.558 27.8579 155.688 28.7677 155.92 29.6236L156.13 30.3984L155.397 30.761C155.157 30.7732 154.512 30.2296 153.462 29.1301L152.324 28.6065C152.512 29.3002 152.367 30.3919 151.888 31.8813C151.198 31.7849 150.791 31.5067 150.666 31.0467C150.909 28.2693 150.955 26.5978 150.801 26.0323L150.449 25.9638L147.355 26.8017C146.898 26.7434 146.595 26.4371 146.445 25.8828C146.786 25.3493 147.399 24.9626 148.286 24.7226ZM156.254 22.8982L156.717 22.7726C157.027 22.6889 157.438 23.1845 157.952 24.2594L157.799 24.3008L160.43 29.7317C160.513 30.2635 160.17 30.6336 159.401 30.8419C159.118 30.9185 157.919 28.5318 155.804 23.6817L156.254 22.8982ZM172.178 17.2556L172.794 17.0886C173.175 16.9854 173.755 18.1013 174.533 20.4361C174.672 20.3983 175.212 20.1409 176.151 19.6639C176.673 19.7371 176.985 19.8732 177.087 20.0721L177.213 20.5358C177.353 21.0524 176.65 21.52 175.104 21.9387L175.147 22.0971C175.299 22.6589 175.737 23.8675 176.463 25.7229C176.39 26.2483 176.253 26.5627 176.05 26.6662L175.587 26.7918C175.078 26.9297 174.307 25.3111 173.276 21.936C173.148 21.9708 172.655 20.5543 171.797 17.6866L172.178 17.2556ZM168.079 20.521C168.697 20.3535 169.104 20.6317 169.3 21.3556L170.305 25.0657C170.345 25.2127 170.232 25.4092 169.967 25.655L169.35 25.822C169.2 25.8629 169.003 25.7501 168.761 25.4839L167.923 22.3903C166.299 22.9394 165.451 23.2805 165.378 23.4136C164.852 23.3415 164.538 23.204 164.434 23.0014L164.267 22.3849C164.169 22.023 165.44 21.4016 168.079 20.521ZM177.501 14.1383L177.807 14.0555C178.301 13.9217 178.917 14.9729 179.656 17.209C180.071 17.0966 180.293 17.0933 180.321 17.1988L181.364 16.7464L183.067 16.2853C183.169 16.2577 183.234 16.2967 183.262 16.4023C183.434 16.2426 183.574 16.1479 183.683 16.1183C184.253 16.1744 184.623 16.5173 184.793 17.147C184.655 17.4558 184.607 17.6912 184.651 17.8534L181.246 18.7755C180.73 18.9155 179.942 19.072 178.885 19.2452C178.441 18.4305 177.871 17.1462 177.173 15.3926C177.156 15.3285 177.265 14.9104 177.501 14.1383ZM178.751 20.611L180.343 20.3496L181.582 20.0141C184.161 19.3156 185.52 19.2246 185.66 19.7411L185.827 20.3576C185.867 20.5046 185.754 20.7011 185.489 20.947L183.012 21.6179C182.91 21.6455 182.845 21.6084 182.818 21.5066L182.548 21.7435L181.89 21.7578C181.718 21.9137 181.577 22.0065 181.468 22.0361L181.115 21.9677C181.01 21.9963 180.971 22.0615 180.998 22.1633C179.434 22.5141 178.577 22.4143 178.428 21.8638C178.476 21.6364 178.485 21.468 178.455 21.3587C178.354 21.3863 178.289 21.3492 178.261 21.2474C178.495 21.184 178.658 20.9719 178.751 20.611ZM182.646 22.7124L182.958 22.6282C183.059 22.6006 183.124 22.6396 183.153 22.7452L183.421 22.5026C185.069 22.0563 186.131 22.7116 186.607 24.4686C186.668 26.2205 186.119 27.2536 184.957 27.5682C183.121 27.7377 182.035 27.2022 181.699 25.9617L181.448 25.0342C181.395 23.7171 181.794 22.9432 182.646 22.7124ZM182.881 24.8101C183.343 25.6804 183.985 26.0042 184.807 25.7816L185.063 24.8868C184.804 24.4996 184.461 24.2585 184.035 24.1635L183.108 24.4147C182.909 24.5048 182.834 24.6366 182.881 24.8101Z" fill="black"/>
<path d="M20.5831 57.5748C20.7749 58.1592 21.2627 60.7486 22.2587 60.8597C20.0375 61.4168 18.605 65.168 17.7239 66.9359C16.0328 70.3291 16.7247 75.0407 16.7247 78.7492C16.7247 82.9696 17.5498 86.2832 20.1835 89.7297C22.2666 92.4557 23.8849 94.5521 26.8396 96.392C30.0675 98.402 32.9851 98.6127 36.6778 98.6127C39.3652 98.6127 42.3034 98.9398 44.9788 98.5819C46.6913 98.3528 48.5525 97.5443 50.1438 96.8855C52.0931 96.0784 53.7191 95.1562 55.2474 93.6777C56.6895 92.2826 57.2176 91.0191 57.9948 89.1597L58.0144 89.1128C59.9956 84.3729 60.4432 79.8332 60.4432 74.7241C60.4432 72.2248 60.8501 68.763 58.9213 66.828C58.1874 66.0917 57.6023 65.1734 56.9076 64.4067C56.3549 63.7968 55.3563 62.6665 54.9707 61.9701C54.4185 60.973 52.866 59.308 51.8655 58.6389C51.8655 49.853 52.0558 40.216 51.8655 31.4345C51.7826 27.6087 50.0216 24.17 49.4367 20.454L49.4316 20.4215C49.2729 19.4123 48.9614 17.4315 47.715 17.2925C46.5116 17.1584 45.364 17.4318 44.1794 17.5547C43.12 17.6647 42.4896 20.4566 42.181 21.1789C39.5769 27.2749 38.0306 34.3032 38.0306 40.9499V50.4036C38.0306 50.9866 38.4209 54.7795 37.6001 55.0147C36.3378 55.3766 34.387 55.1011 33.0961 55.0147C32.1209 54.9495 31.9925 54.7606 31.9432 53.9198C31.8971 53.1334 31.3311 51.6146 31.0516 50.8045C30.3975 48.9089 30.6067 46.7743 30.1139 44.8516C29.506 42.4801 28.7472 40.1355 28.1309 37.7575C27.352 34.7522 27.1513 31.5973 26.4092 28.566C25.583 25.1913 24.8847 21.7993 23.9497 18.4492C23.541 16.9849 22.9319 13.3915 21.3671 12.6814C18.5767 11.4149 15.8158 16.9746 15.1875 18.7576C14.1224 21.7802 14.7878 25.791 14.7878 28.9516C14.7878 33.2247 15.1258 37.1736 15.9561 41.3663C17.04 46.8396 18.8441 52.2735 20.5831 57.5748Z" fill="#AFAFAF" stroke="black" stroke-width="2" stroke-linecap="round"/>
<path d="M44.4201 85.1904C44.4221 85.2536 44.4508 85.4606 44.3903 85.4984C44.5159 85.8752 44.6524 86.4835 44.6524 86.8797C44.6524 87.623 44.9244 88.1511 44.6524 88.858C44.4707 89.3305 44.2708 90.115 43.8611 90.4407C43.5317 90.7025 42.668 91.0902 42.2785 91.232C41.6736 91.4522 41.3338 91.6277 40.6959 91.6277C39.7806 91.6277 38.4127 91.1494 37.7467 90.3937C37.1881 89.7599 36.8423 88.8364 36.7749 88.0015C36.6892 86.9406 36.7573 85.8298 36.9868 84.7931C37.1254 84.1669 37.3233 83.5565 37.7285 83.0482C37.9563 82.7624 38.246 82.4016 38.5993 82.2734C39.1032 82.0905 39.7648 82.1231 40.2962 82.1625C40.5162 82.1788 40.7295 82.2625 40.9335 82.3396C41.3249 82.4874 41.7171 82.6371 42.1023 82.7999C42.5947 83.0079 43.0459 83.3196 43.4235 83.6972C43.743 84.0167 44.0647 84.3464 44.2711 84.7534C44.3378 84.8849 44.4152 85.0408 44.4201 85.1904Z" fill="white" stroke="black" stroke-width="2" stroke-linecap="round"/>
<path d="M22.4958 75.8011C22.3695 74.9552 23.1317 73.3668 23.6662 72.7224C24.0658 72.328 24.4062 71.7613 24.8697 71.4487C25.2621 71.184 25.6567 70.9027 26.0567 70.6574C26.2108 70.5629 26.6812 70.3488 26.848 70.2617C27.3396 70.0049 27.8866 69.8999 28.4307 69.8661C29.222 69.8661 29.222 69.8661 30.0133 70.2617C30.5624 70.3462 31.1196 70.6777 31.6278 70.9133C32.4114 71.2765 33.0539 72.0398 33.6417 72.6533C34.2786 73.3181 34.7114 74.2581 34.8784 75.1629C34.9376 75.4836 34.8847 75.8706 34.8784 76.1967C34.869 76.6861 34.7682 77.156 34.5358 77.5763C34.2175 78.1519 34.0375 78.9049 33.5742 79.362C33.1913 79.7399 32.8113 80.2161 32.3873 80.549C31.5319 81.2202 30.2692 81.4585 29.2256 81.7827C28.4992 82.0084 27.8487 82.0769 26.8479 81.7359C25.7204 81.3517 24.6279 80.8263 23.86 79.9222C23.2414 79.194 22.6738 78.5707 22.4957 77.4449C22.2986 76.9027 22.5813 76.3741 22.4958 75.8011Z" fill="white" stroke="black" stroke-width="2" stroke-linecap="round"/>
<path d="M42.0692 68.4963C42.6809 67.931 44.1836 67.4026 45.0588 67.1541C46.1619 67.0071 46.631 67.0967 47.614 67.1893C48.6093 67.4924 49.9384 67.1541 51.7501 69.8664C53.3572 73.0317 52.8371 73.4251 52.6971 74.5948C52.5668 75.6835 52.3357 76.7805 51.7501 77.7174C51.2801 78.4694 50.6387 79.1397 49.9384 79.6837C49.0933 80.3403 48.1299 80.3959 47.1014 80.3959C45.9074 80.3959 44.8044 80.0754 43.6853 79.6837C42.7894 79.3701 41.9559 78.9287 41.2866 78.2437C40.5098 77.4487 40.1924 76.252 39.9777 75.1876C39.8673 74.6405 39.908 74.0514 39.9347 73.4972C39.956 73.0536 39.9591 72.6413 40.0755 72.2098C40.3417 71.2233 40.777 70.2529 41.3414 69.4002C41.5528 69.0808 41.787 68.7571 42.0692 68.4963Z" fill="white" stroke="black" stroke-width="2" stroke-linecap="round"/>
<path d="M28.4401 70.8237C28.6438 70.9589 28.8516 71.0871 29.0036 71.2821C29.0693 71.3664 29.1313 71.4538 29.1932 71.5409C29.2672 71.6451 29.3213 71.7599 29.382 71.8717C29.4545 72.0053 29.5155 72.1447 29.5653 72.2887C29.6223 72.4536 29.6985 72.6125 29.7379 72.783C29.8246 73.159 29.8045 73.5514 29.799 73.9352C29.7954 74.1801 29.7218 74.4236 29.6696 74.6614C29.6075 74.9438 29.5153 75.2214 29.4233 75.4955C29.3165 75.8136 29.1382 76.1139 28.8769 76.3241C28.7041 76.4631 28.523 76.5876 28.3466 76.7214C28.1655 76.8587 27.9783 76.997 27.7714 77.0935C27.3841 77.274 26.975 77.3882 26.5706 77.5213C26.2621 77.6228 25.9474 77.6746 25.627 77.728C25.2894 77.7842 24.9557 77.8559 24.6132 77.8736C24.4721 77.8809 24.3302 77.8772 24.1889 77.8772C24.1313 77.8772 24.0839 77.8607 24.0757 77.9329C24.0584 78.0841 24.1197 78.2329 24.1925 78.3607C24.3677 78.6679 24.5516 78.967 24.7749 79.2415C25.2755 79.8566 25.8466 80.5456 26.5994 80.8574C26.7637 80.9255 26.9526 80.969 27.1279 80.9923C27.2958 81.0145 27.4425 81.063 27.6024 81.1163C27.6386 81.1283 27.6677 81.1418 27.6995 81.1576C27.6995 81.1576 27.6672 80.9657 27.6635 80.9509C27.5997 80.6957 27.5503 80.4392 27.5503 80.1744C27.5503 79.7624 27.675 79.3727 27.766 78.9754C27.8777 78.488 27.976 77.9934 28.1201 77.5141C28.2412 77.1114 28.3573 76.7128 28.618 76.3762C28.86 76.0639 29.1694 75.8578 29.5329 75.7058C29.9822 75.5179 30.4695 75.5198 30.9422 75.4343C31.3808 75.355 31.8329 75.348 32.2778 75.3535C32.4009 75.355 32.4995 75.3978 32.6103 75.4469C32.7543 75.5108 32.9028 75.5647 33.0471 75.6285C33.0694 75.6383 33.2884 75.7591 33.3059 75.7381C33.3465 75.6895 33.3134 75.4419 33.3023 75.3822C33.2103 74.8883 32.7686 74.5173 32.4305 74.1833C32.2408 73.9958 32.0391 73.8057 31.8895 73.5847C31.7649 73.4007 31.6706 73.1946 31.5426 73.0113C31.5282 72.9907 31.4093 72.7845 31.3754 72.8046C31.3523 72.8183 31.3478 72.8507 31.3359 72.8747C31.2814 72.9843 31.2265 73.0932 31.1651 73.1991C31.0559 73.3875 30.9308 73.5668 30.8056 73.7447C30.6181 74.0111 30.4731 74.2874 30.3095 74.5679C30.1015 74.9245 29.8692 75.2661 29.6372 75.6069C29.3592 76.0152 29.1051 76.4357 28.8121 76.8346C28.5391 77.2065 28.2348 77.5602 27.9296 77.9059C27.6724 78.1972 27.4236 78.4866 27.1189 78.7292C26.9276 78.8815 26.7722 79.0722 26.5742 79.2163C26.4244 79.3254 26.3127 79.4729 26.1716 79.592C26.0426 79.7009 25.9352 79.8344 25.8193 79.9569C25.7897 79.9882 25.7229 80.1626 25.8211 80.1079C25.9624 80.0292 26.0994 79.9253 26.2237 79.8221C26.2603 79.7917 26.3054 79.7675 26.3208 79.7214" stroke="black" stroke-width="2" stroke-linecap="round"/>
<path d="M46.3855 67.4082C46.8073 67.8658 47.206 68.2803 47.4179 68.8677C47.4988 69.0921 47.5574 69.3112 47.5826 69.5487C47.6313 70.0065 47.6025 70.4839 47.474 70.9252C47.2844 71.5764 47.0008 72.1965 46.5185 72.6788C46.2548 72.9425 45.9493 73.1573 45.6313 73.3512C45.2492 73.5842 44.8332 73.833 44.411 73.9833C43.8041 74.1994 43.2054 74.3764 42.5732 74.5044C42.311 74.5575 42.0547 74.6517 41.7873 74.674C41.6856 74.6825 41.5887 74.6922 41.4883 74.7106C41.4373 74.72 41.3635 74.7075 41.3163 74.7277C41.1353 74.8053 42.0028 76.1909 42.0765 76.3227C42.3016 76.7246 42.4573 77.1672 42.6245 77.5955C42.6799 77.7375 42.7356 77.8801 42.7794 78.0263C42.7848 78.0442 42.7831 77.9242 42.7831 77.9054C42.7831 77.2879 42.7317 76.6481 42.8038 76.0347C42.8113 75.9713 42.9322 76.3414 42.9417 76.38C43.0584 76.8546 43.161 77.3319 43.2834 77.8054C43.367 78.1284 43.4745 78.4186 43.5958 78.7218C43.6957 78.9715 43.9328 79.1674 44.1181 79.3528C44.2168 79.4514 44.253 79.1503 44.267 79.0904C44.3327 78.81 44.4522 78.5431 44.5501 78.2728C44.7057 77.8434 44.8423 77.4085 45.0407 76.9951C45.1509 76.7654 45.2178 76.518 45.3214 76.2861C45.4125 76.0819 45.5191 75.878 45.6179 75.6771C45.858 75.1889 46.0895 74.6812 46.3831 74.2225C46.6361 73.8272 46.9343 73.475 47.3203 73.2023C47.8691 72.8146 48.5164 72.6638 49.18 72.6385C49.485 72.6269 49.7926 72.6334 50.0977 72.6361C50.2735 72.6376 50.4258 72.6543 50.5859 72.7239C50.7967 72.8156 51.0334 72.932 51.207 73.0852C51.2942 73.1621 51.4399 73.2423 51.5475 73.2902C51.6153 73.3203 51.611 73.0118 51.6122 72.9741C51.621 72.6961 51.6445 72.388 51.5877 72.115C51.5065 71.7241 51.3388 71.3666 51.1789 71.0033C50.9541 70.4923 50.6966 69.9638 50.3857 69.4998C50.2489 69.2956 50.0999 69.1126 49.922 68.9446C49.8427 68.8697 49.7335 68.7235 49.6267 68.6847C49.5069 68.6411 49.4434 69.2606 49.4388 69.3192C49.4005 69.798 49.3955 70.2771 49.3777 70.7568C49.3682 71.0151 49.3289 71.2751 49.3289 71.5329C49.3289 71.6036 49.3071 71.6523 49.2728 71.7147C49.1755 71.8916 49.0083 71.9912 48.8359 72.0869C48.4543 72.299 48.0553 72.4699 47.6546 72.641C47.2361 72.8197 46.8376 72.987 46.5039 73.2963C46.1548 73.6198 45.8625 74.0127 45.541 74.3641C45.4007 74.5174 45.2533 74.6625 45.1103 74.8131C44.9396 74.9928 44.8062 75.1809 44.6087 75.3354C44.4671 75.4462 44.3393 75.5734 44.1889 75.6723C44.0947 75.7341 43.9713 75.8135 43.9034 75.9041C43.8558 75.9675 43.7497 76.1176 43.6837 76.1506" stroke="black" stroke-width="2" stroke-linecap="round"/>
<path d="M15.8108 10.7055C15.9784 10.388 16.1653 9.72603 16.8539 9.31474C17.5426 8.90356 18.035 9.14089 18.6118 9.14089H20.2247C20.7321 9.14089 21.7871 9.11932 22.1564 9.48859C22.685 10.0172 23.3963 10.4874 23.8466 11.1015C24.7094 12.2781 25.6813 13.3923 26.4978 14.6172C26.6677 14.872 26.7821 15.2787 26.8697 15.5734C26.953 15.8536 27.1531 16.0811 27.2464 16.3557C27.5002 17.1031 27.8132 17.8288 28.0673 18.5771C29.5656 22.9887 30.0458 27.6727 30.4578 32.2872C30.7065 35.0733 30.8489 37.8876 30.8489 40.6852C30.8489 41.6199 28.0548 41.4504 27.454 41.5255C26.0636 41.6993 24.6671 41.651 23.2671 41.651C21.0091 41.651 18.7829 41.6097 16.5304 41.4772C15.9866 41.4452 14.1532 41.4733 13.8791 40.9556C13.7656 40.7411 13.6459 40.554 13.6377 40.2602C13.5109 35.6962 13.5508 31.1204 13.5508 26.5501C13.5508 23.4896 13.3483 20.363 13.7681 17.3312C14.0079 15.5994 14.6411 14.0853 15.1347 12.4247C15.3143 11.8207 15.5179 11.2605 15.8108 10.7055Z" fill="#6C11A4" stroke="black" stroke-width="2" stroke-linecap="round"/>
<path d="M41.7043 16.0176C41.8284 15.8757 44.0206 13.3397 44.2348 13.661L45.0364 13.6609C45.274 13.6609 45.8048 13.6708 46.0216 13.7672C46.652 14.0474 47.1679 14.7299 47.6442 15.2063C48.2917 15.8538 48.8312 16.5093 49.2958 17.3118C49.4014 17.4943 49.609 17.5969 49.7111 17.7851C49.8409 18.0242 49.9015 18.2583 49.9912 18.5094C50.1417 18.9308 50.36 19.4771 50.5852 19.8713C50.8712 20.3718 50.9108 20.8897 51.0536 21.4408C51.236 22.1443 51.3514 22.8637 51.4979 23.5753C51.817 25.1252 52.0535 26.6854 52.3382 28.2354C52.4826 29.0217 52.739 29.8916 52.7535 30.6887C52.7673 31.4505 52.6872 32.3106 52.9273 33.0453C53.2706 34.0954 53.362 35.5129 53.362 36.6141V38.5651C53.362 39.0241 53.5695 39.8407 53.0964 40.0476C52.1642 40.4555 51.2762 40.6145 50.3147 40.9121C47.4416 41.8014 44.3114 41.6509 41.3421 41.6509H39.0675C38.3028 41.6509 37.5215 41.8747 36.7737 41.8489C36.5155 41.84 36.5491 41.0335 36.4984 40.8686C36.2889 40.1877 36.3246 39.3011 36.3246 38.5892V35.8945C36.3246 33.2517 36.7532 30.5929 37.3677 28.0326C37.7902 26.2723 37.9915 24.4809 38.6667 22.7929C39.1121 21.6794 39.4747 20.48 39.8547 19.3401C40.2284 18.219 40.9334 16.8986 41.7043 16.0176Z" fill="#6C11A4" stroke="black" stroke-width="2" stroke-linecap="round"/>
<circle cx="17.7479" cy="7.74791" r="3.74791" fill="#FFFF00" stroke="black" stroke-width="2"/>
<circle cx="46.2352" cy="13.287" r="3.74791" fill="#FFFF00" stroke="black" stroke-width="2"/>
<path d="M39.0695 27.9534C38.8834 27.5074 38.1664 26.9114 37.8199 26.5649C37.6549 26.8124 37.7337 27.2205 37.7337 27.5034C37.7337 28.1781 37.7446 28.854 37.7337 29.5286C37.72 30.3803 37.4429 31.2095 37.3028 32.0422C37.0598 33.4867 37.1403 34.9531 36.8719 36.3895C36.7672 36.9501 36.8289 37.5593 36.8289 38.1275C36.8289 38.2242 36.7359 38.861 36.9581 38.7499C37.1681 38.6449 37.3253 38.4036 37.5279 38.2759C37.8318 38.0843 38.0398 37.7799 38.3466 37.5865C39.0294 37.156 39.5561 36.5381 40.1276 35.9778C40.2828 35.8257 40.4527 35.8421 40.6016 35.9825C40.8244 36.1926 41.1919 36.2178 41.4491 36.3991C41.6011 36.5063 41.7469 36.6078 41.9135 36.6911C42.0904 36.7796 42.218 36.9345 42.3875 37.0263C42.612 37.1479 42.9795 37.1438 43.2301 37.2082C43.5935 37.3016 43.9308 37.4242 44.2643 37.596C44.3198 37.6246 44.693 37.8597 44.6378 37.7492C44.5775 37.6287 44.5692 37.4826 44.4989 37.371C44.4063 37.2239 44.3439 37.0571 44.2787 36.897C44.0654 36.3734 43.7535 35.8893 43.4839 35.3936C43.2162 34.9014 42.9457 34.4092 42.67 33.9214C42.5339 33.6807 42.3126 33.4578 42.2678 33.1769C42.2315 32.9494 42.4246 32.7782 42.5599 32.6071C43.5417 31.3654 44.7487 30.2429 45.5427 28.8487C45.7324 28.5155 45.8778 28.2547 45.8778 27.8648C45.8778 27.7867 45.933 27.4975 45.7916 27.5225C45.5297 27.5687 45.3028 27.6604 45.0304 27.6949C43.678 27.8658 42.3352 28.312 41.1618 29.0019C40.7692 29.2328 40.402 29.4737 40.0702 29.7847C39.9442 29.9029 39.9831 29.8656 39.8883 29.8063C39.7943 29.7475 39.7489 29.5237 39.7063 29.4304C39.4833 28.9426 39.2761 28.4484 39.0695 27.9534Z" fill="#FFFF00" stroke="black" stroke-width="2" stroke-linecap="round"/>
<path d="M26.4877 17.2383C26.6366 16.9458 26.7918 16.3249 27.1357 16.2202C27.6085 18.151 28.0829 20.0814 28.553 22.0128C28.6084 22.2404 28.6728 22.4756 28.7159 22.7083C28.7777 23.0424 28.8231 23.3818 28.8776 23.7174C28.9503 24.1641 28.9767 24.6172 29.0471 25.0632C29.0891 25.3289 29.0768 25.5981 29.0768 25.8665V26.4123C29.0768 26.5546 29.0352 26.7747 29.1164 26.8965C28.8842 26.8965 28.3068 26.2609 28.0988 26.1508C27.857 26.0228 27.6853 25.9617 27.4141 25.9617C27.3031 25.9617 27.2424 26.0501 27.158 26.1101C26.846 26.3321 26.5722 26.6262 26.2818 26.8762C25.8704 27.2303 25.4918 27.5677 25.0466 27.8816C24.6738 28.1444 24.3578 28.5547 23.9645 28.7769C23.9412 28.7901 23.9821 28.2276 23.9861 28.1785C24.0234 27.7115 24.1129 27.2497 24.1177 26.7708C24.1238 26.1719 24.2541 25.3376 23.9861 24.7791C23.7396 24.2656 23.3011 23.8866 22.9016 23.496C22.6234 23.224 22.2917 23.0046 22.0015 22.7443C21.444 22.2442 20.9613 21.6609 20.5173 21.059C20.4486 20.9658 20.1321 20.5137 20.3737 20.4869C20.663 20.4547 20.9435 20.4519 21.2355 20.4438C21.7973 20.4282 22.3594 20.3592 22.9208 20.3265C23.47 20.2944 24.0203 20.3106 24.5702 20.2762C24.739 20.2656 24.9527 20.3174 25.0897 20.1876C25.4508 19.8455 25.5806 19.2097 25.7719 18.7704C25.9984 18.2504 26.2301 17.7443 26.4877 17.2383Z" fill="#FFFF00" stroke="black" stroke-width="2" stroke-linecap="round"/>
<path d="M14.6954 32.5547C14.5106 32.5708 13.9936 32.4595 13.8065 32.4595C13.6547 34.6987 13.7914 37.1557 13.7914 39.4006L13.7913 40.5875C13.7913 40.6855 14.0507 40.9718 14.1871 40.9832C14.5969 41.0174 14.354 40.8135 14.7641 40.8591C15.8587 40.9807 16.9785 40.9541 18.0783 40.9541C19.0303 40.9541 19.9824 40.9502 20.9343 40.9541C21.4201 40.956 21.8997 41.0368 22.3838 41.0368C22.3838 40.5875 22.1001 40.1919 21.4246 39.7508C21.2664 39.575 21.1458 39.2884 20.9626 39.1475C20.6554 38.9112 20.4302 38.5624 20.1559 38.2881C19.5748 37.7071 18.8923 37.1054 18.5687 36.3323C18.4244 35.9876 18.5662 35.7249 18.7315 35.4322C19.0594 34.8514 19.454 34.307 19.8231 33.7517C20.2085 33.1719 20.7361 32.5495 20.9865 31.8892C21.0317 31.7702 21.0153 31.6311 21.0153 31.5062C21.0153 31.3804 20.7863 31.4507 20.7184 31.4607C19.5059 31.6396 18.3177 31.9842 17.1132 32.21C16.3132 32.36 15.5066 32.4842 14.6954 32.5547Z" fill="#FFFF00" stroke="black" stroke-width="2" stroke-linecap="round"/>
<path d="M43.5024 88.8989C43.7101 88.8989 43.9178 88.8989 44.1254 88.8989C44.4877 88.8989 44.745 89.0643 45.0393 89.2636C45.1996 89.3722 45.385 89.4526 45.5537 89.548C45.8291 89.7036 46.0801 89.9557 46.333 90.1471C46.7515 90.4638 47.1524 90.8105 47.5572 91.1434C47.9249 91.4457 48.1652 91.8826 48.4103 92.2787C48.5099 92.4395 48.6249 92.5868 48.7381 92.7367C48.8531 92.8889 48.9114 93.1038 49.0376 93.2446C49.1288 93.3463 49.274 93.4452 49.3372 93.5659C49.4131 93.7108 49.4006 93.7663 49.5369 93.8654C49.5599 93.8822 49.7115 94.0822 49.7149 94.1042C49.7291 94.1966 49.7747 94.2772 49.793 94.369" stroke="#B6F6FF" stroke-width="2" stroke-linecap="round"/>
</svg>
