<svg width="39" height="43" viewBox="0 0 39 43" fill="none" xmlns="http://www.w3.org/2000/svg">
<path d="M11.9628 32.4333C7.25867 29.8121 7.16642 22.1833 2.14854 21.3301C1.33925 21.1925 0.916416 22.5989 1.01378 23.29C1.11668 24.0204 1.48387 24.7116 1.6236 25.445C1.81192 26.4335 2.2259 27.222 2.7156 28.0892C3.41823 29.3335 4.07217 30.6065 4.7436 31.8676C5.8433 33.9332 7.71224 35.7796 9.33852 37.4396C10.9041 39.0376 12.5519 40.5909 14.5787 41.5299C15.8586 42.1228 17.8117 42.3316 18.7198 41.0833C19.152 40.4891 19.75 39.8261 20.0316 39.1693C20.3598 38.4036 20.694 37.7235 21.1662 36.9859C25.0195 30.9666 28.0339 24.4062 32.0322 18.4853C33.4195 16.4309 34.5704 14.7081 35.6129 12.4559C36.3709 10.8184 37.3921 9.26457 37.6242 7.49576C37.8923 5.45216 38 3.45107 38 1.39216C38 0.659177 37.7159 1.11008 37.3051 1.48431C35.7439 2.90633 34.1646 4.35788 32.8095 5.97872C30.8027 8.37888 29.1798 11.0004 27.5622 13.6702C25.463 17.1349 23.2218 20.5493 21.3718 24.1548C20.0153 26.7986 18.4655 29.3612 17.1811 32.0378C17.0182 32.3772 15.9674 35.5304 15.38 35.3129C14.821 35.1059 12.4826 32.723 11.9628 32.4333Z" fill="#FF0000" stroke="black" stroke-width="2" stroke-linecap="round"/>
</svg>
