<svg width="278" height="68" viewBox="0 0 278 68" fill="none" xmlns="http://www.w3.org/2000/svg">
<path d="M278 36.0266C278 51.359 246.575 68 176.987 68C107.399 68 77.038 63.4615 26 36.0266C26 22.4927 71.7792 9 141.367 9C210.955 9.00019 278 13.5385 278 36.0266Z" fill="white"/>
<path d="M21.5514 34.9394C22.2941 33.4492 23.7015 29.9803 25.5738 29.5107C25.5738 26.8773 23.8853 24.1733 23.2854 21.6883C23.0759 20.82 22.7513 19.7539 22.2887 18.9733C22.0806 18.6222 21.7979 17.747 21.7457 17.3294C21.5712 15.9332 21.0707 14.6137 20.2208 13.521C19.9203 13.1346 19.9209 13.1862 19.3059 13.1862C18.659 13.1862 17.6265 13.1048 17.0372 13.454C16.4811 13.7835 15.4902 13.9997 14.8503 14.116C12.696 14.5077 10.5635 15.0506 8.42352 15.3359C7.14226 15.5068 5.77958 15.7302 4.48117 15.7302C3.67109 15.7302 2.80545 15.6892 2.26453 14.9938C2.00307 14.6576 1.30098 14.1666 1.26778 13.7516C1.19422 12.8321 1 11.9341 1 10.977C1 10.445 2.15897 10.221 2.60669 10.1365C3.71271 9.92782 4.92507 9.41642 5.89447 8.83478C7.97684 7.58536 10.5521 7.10645 12.8419 6.38755C14.1459 5.97817 15.6271 5.41349 17 5.2941C18.3636 5.17553 19.6867 5.23093 21.0539 5.04863C22.0908 4.91039 23.1835 4.88499 24.2301 4.88499H25.6955C26.3518 4.88499 26.8517 5.88447 27.2129 6.35779C27.8144 7.14599 28.3524 8.08504 28.775 8.96867C29.2277 9.91519 29.4298 10.9516 29.861 11.9217C30.1815 12.6428 30.2016 13.6159 30.3296 14.3838C30.4148 14.8952 30.59 15.4487 30.59 15.998C30.59 16.6851 30.8826 17.2939 30.9842 17.9543C31.1054 18.7419 31.4693 19.6053 31.5272 20.3866C31.623 21.68 32.2179 22.8761 32.6281 24.0612C32.8782 24.7837 33.1948 25.3122 33.7215 25.839C33.8212 25.9386 34.171 26.2548 34.1976 26.3745C34.2985 26.8285 36.896 25.8726 37.2845 25.9059C37.681 25.5455 37.7168 24.7527 37.8201 24.262C37.9992 23.411 38.3592 22.6127 38.5565 21.7627C38.9308 20.1501 39.6236 18.5694 40.2152 17.0245C40.5054 16.2669 40.6096 15.446 40.8996 14.6888C41.3369 13.547 41.8109 12.3972 42.1046 11.2076C42.7996 8.39279 44.2252 5.82489 44.3882 2.8915C44.4487 1.80253 44.5049 1.04506 45.7494 1.00215C48.6001 0.90385 50.1381 4.19607 50.1381 6.62558C50.1381 7.32391 49.9005 7.74385 50.6141 7.90499C51.2434 8.04708 51.6818 8.34737 52.2208 8.64139C52.8307 8.97403 53.458 9.10712 53.9465 9.57119C55.7451 11.2799 57.7056 12.6035 59.3022 14.5549C60.7662 16.3442 62.4077 17.7674 63.6611 19.7172C64.3659 20.8136 65 22.0442 65 23.362C65 24.0379 64.66 24.5905 63.9884 24.8348C63.3979 25.0495 62.89 25.696 62.3222 24.9389C61.8512 24.3109 60.8746 23.9098 60.2469 23.4215C59.5617 22.8886 58.8945 22.3444 58.2757 21.7255C57.4806 20.9305 56.5728 20.5328 55.6276 19.9552C54.687 19.3804 53.8684 18.7751 52.9795 18.1402C51.853 17.3355 50.8298 16.288 49.8703 15.3285C49.0988 14.557 49.048 15.9171 48.7248 16.3327C48.1375 17.0878 48.1257 18.1473 47.6537 18.9733C47.2212 19.7301 46.9556 20.6235 46.59 21.428C46.2949 22.0771 45.9457 22.7267 45.6899 23.3917C45.482 23.9323 44.9163 24.7203 44.9163 25.3034C44.9163 26.0457 45.8357 25.356 46.2255 25.6679C48.4437 26.3745 49.2496 26.9819 50.3309 27.9455C51.1743 28.5095 52.483 29.913 52.9484 30.7535C53.2735 31.3405 54.1152 32.2933 54.5811 32.8075C55.1667 33.4537 55.6599 34.2278 56.2786 34.8485C57.9044 36.4795 57.5614 39.3977 57.5614 41.5044C57.5614 45.8111 57.1842 49.6378 55.5141 53.6333L55.4975 53.6729L55.4975 53.6729C54.8424 55.2403 54.3973 56.3053 53.1817 57.4813C51.8934 58.7276 50.5228 59.5049 48.8796 60.1853C47.5382 60.7407 45.9694 61.4222 44.5258 61.6153C42.2706 61.9169 39.7938 61.6413 37.5285 61.6413C34.4158 61.6413 31.9564 61.4636 29.2354 59.7693C26.7448 58.2183 25.3807 56.4512 23.6247 54.1533C21.4046 51.2482 20.7091 48.4549 20.7091 44.8974C20.7091 41.7713 20.1259 37.7997 21.5514 34.9394Z" fill="url(#paint0_linear_254_852)" stroke="black" stroke-width="2" stroke-linecap="round"/>
<path d="M45.1117 49.1441C45.1134 49.1974 45.1376 49.3719 45.0866 49.4037C45.1925 49.7213 45.3076 50.2341 45.3076 50.5682C45.3076 51.1947 45.5368 51.6398 45.3076 52.2357C45.1544 52.634 44.9859 53.2953 44.6406 53.5698C44.3629 53.7905 43.6348 54.1174 43.3065 54.2369C42.7966 54.4225 42.5102 54.5704 41.9724 54.5704C41.2009 54.5704 40.0478 54.1672 39.4864 53.5302C39.0155 52.996 38.724 52.2175 38.6672 51.5137C38.595 50.6194 38.6524 49.6831 38.8459 48.8092C38.9627 48.2814 39.1295 47.7668 39.4711 47.3384C39.6631 47.0974 39.9073 46.7933 40.2051 46.6853C40.6299 46.5311 41.1875 46.5586 41.6355 46.5918C41.821 46.6055 42.0008 46.6761 42.1728 46.7411C42.5026 46.8657 42.8333 46.9918 43.158 47.129C43.5731 47.3044 43.9534 47.5671 44.2716 47.8854C44.541 48.1548 44.8122 48.4326 44.9861 48.7757C45.0423 48.8866 45.1076 49.018 45.1117 49.1441Z" fill="white" stroke="black" stroke-width="2" stroke-linecap="round"/>
<path d="M26.631 41.2293C26.5246 40.5163 27.1671 39.1773 27.6176 38.6342C27.9545 38.3017 28.2414 37.824 28.6321 37.5605C28.9629 37.3374 29.2955 37.1003 29.6327 36.8934C29.7626 36.8138 30.1591 36.6334 30.2997 36.5599C30.7141 36.3435 31.1752 36.2549 31.6338 36.2264C32.3008 36.2264 32.3008 36.2264 32.9679 36.5599C33.4308 36.6311 33.9005 36.9106 34.3289 37.1091C34.9893 37.4153 35.531 38.0587 36.0264 38.5759C36.5633 39.1363 36.9281 39.9287 37.0689 40.6914C37.1188 40.9617 37.0742 41.2879 37.0689 41.5628C37.0609 41.9753 36.976 42.3714 36.7801 42.7257C36.5118 43.2109 36.36 43.8457 35.9696 44.231C35.6467 44.5495 35.3265 44.951 34.969 45.2315C34.248 45.7973 33.1836 45.9982 32.3039 46.2715C31.6916 46.4617 31.1432 46.5195 30.2996 46.2321C29.3492 45.9082 28.4283 45.4653 27.781 44.7032C27.2596 44.0893 26.7811 43.5639 26.631 42.615C26.4648 42.1579 26.7031 41.7124 26.631 41.2293Z" fill="white" stroke="black" stroke-width="2" stroke-linecap="round"/>
<path d="M43.1302 35.0721C43.6458 34.5955 44.9125 34.1501 45.6502 33.9407C46.5801 33.8167 46.9755 33.8923 47.8041 33.9704C48.6431 34.2259 49.7634 33.9407 51.2906 36.227C52.6453 38.8952 52.2069 39.2268 52.0889 40.2128C51.9791 41.1305 51.7842 42.0552 51.2906 42.845C50.8944 43.4789 50.3537 44.0439 49.7634 44.5025C49.0511 45.0559 48.239 45.1028 47.372 45.1028C46.3655 45.1028 45.4358 44.8326 44.4924 44.5025C43.7372 44.2381 43.0346 43.866 42.4705 43.2886C41.8156 42.6185 41.5481 41.6098 41.3671 40.7125C41.2741 40.2513 41.3084 39.7547 41.3308 39.2876C41.3488 38.9136 41.3514 38.5661 41.4496 38.2023C41.674 37.3708 42.0409 36.5528 42.5166 35.834C42.6948 35.5648 42.8923 35.2919 43.1302 35.0721Z" fill="white" stroke="black" stroke-width="2" stroke-linecap="round"/>
<path d="M31.6419 37.0337C31.8136 37.1476 31.9887 37.2557 32.1169 37.4201C32.1723 37.4911 32.2246 37.5648 32.2767 37.6383C32.3391 37.7261 32.3847 37.8229 32.4358 37.9171C32.497 38.0297 32.5484 38.1472 32.5904 38.2686C32.6384 38.4075 32.7027 38.5416 32.7358 38.6853C32.809 39.0022 32.792 39.333 32.7873 39.6565C32.7844 39.8629 32.7223 40.0682 32.6783 40.2687C32.626 40.5067 32.5482 40.7407 32.4707 40.9717C32.3806 41.2399 32.2304 41.493 32.01 41.6702C31.8644 41.7873 31.7118 41.8923 31.5631 42.0051C31.4104 42.1208 31.2526 42.2374 31.0782 42.3187C30.7517 42.4709 30.4069 42.5672 30.066 42.6793C29.8059 42.765 29.5407 42.8086 29.2706 42.8536C28.986 42.901 28.7047 42.9614 28.416 42.9763C28.2971 42.9825 28.1775 42.9794 28.0584 42.9794C28.0098 42.9794 27.9699 42.9655 27.9629 43.0263C27.9484 43.1538 28 43.2792 28.0614 43.3869C28.2091 43.6459 28.3641 43.898 28.5523 44.1294C28.9743 44.6479 29.4557 45.2287 30.0903 45.4916C30.2288 45.5489 30.388 45.5856 30.5358 45.6052C30.6773 45.624 30.801 45.6648 30.9358 45.7098C30.9662 45.7199 30.9908 45.7312 31.0176 45.7446C31.0176 45.7446 30.9904 45.5828 30.9873 45.5704C30.9335 45.3552 30.8918 45.139 30.8918 44.9158C30.8918 44.5685 30.9969 44.24 31.0737 43.9051C31.1678 43.4943 31.2506 43.0773 31.3721 42.6733C31.4742 42.3339 31.5721 41.9978 31.7919 41.7142C31.9959 41.4509 32.2567 41.2771 32.5631 41.149C32.9418 40.9906 33.3526 40.9923 33.751 40.9202C34.1207 40.8533 34.5018 40.8474 34.8768 40.852C34.9806 40.8533 35.0638 40.8894 35.1571 40.9308C35.2785 40.9846 35.4037 41.0301 35.5253 41.0838C35.5441 41.0921 35.7288 41.194 35.7435 41.1763C35.7777 41.1353 35.7498 40.9265 35.7405 40.8763C35.6629 40.4599 35.2906 40.1472 35.0056 39.8656C34.8456 39.7075 34.6756 39.5474 34.5495 39.361C34.4445 39.2059 34.365 39.0322 34.2571 38.8777C34.245 38.8603 34.1448 38.6865 34.1162 38.7034C34.0967 38.715 34.0929 38.7423 34.0828 38.7625C34.037 38.8549 33.9906 38.9467 33.9389 39.036C33.8469 39.1948 33.7414 39.3459 33.6359 39.4959C33.4778 39.7205 33.3556 39.9534 33.2177 40.1899C33.0424 40.4904 32.8466 40.7784 32.651 41.0657C32.4167 41.4098 32.2024 41.7642 31.9555 42.1005C31.7253 42.414 31.4689 42.7121 31.2115 43.0036C30.9948 43.2491 30.7851 43.493 30.5282 43.6976C30.3669 43.826 30.2359 43.9867 30.0691 44.1082C29.9428 44.2002 29.8486 44.3245 29.7297 44.4249C29.6209 44.5166 29.5304 44.6292 29.4327 44.7324C29.4077 44.7588 29.3514 44.9058 29.4342 44.8597C29.5533 44.7934 29.6688 44.7058 29.7736 44.6188C29.8045 44.5932 29.8425 44.5728 29.8554 44.534" stroke="black" stroke-width="2" stroke-linecap="round"/>
<path d="M46.7686 34.1548C47.1241 34.5405 47.4602 34.8899 47.6388 35.3851C47.707 35.5742 47.7564 35.7589 47.7777 35.9591C47.8188 36.345 47.7945 36.7474 47.6861 37.1194C47.5263 37.6684 47.2873 38.191 46.8807 38.5976C46.6584 38.8199 46.4009 39.001 46.1329 39.1644C45.8107 39.3608 45.4601 39.5705 45.1042 39.6973C44.5926 39.8794 44.0879 40.0286 43.555 40.1365C43.334 40.1813 43.118 40.2607 42.8925 40.2795C42.8068 40.2866 42.7251 40.2948 42.6405 40.3103C42.5975 40.3183 42.5353 40.3077 42.4955 40.3247C42.343 40.3901 43.0742 41.5582 43.1363 41.6692C43.3261 42.008 43.4573 42.3811 43.5982 42.7421C43.6449 42.8619 43.6919 42.982 43.7289 43.1052C43.7334 43.1204 43.7319 43.0192 43.7319 43.0034C43.7319 42.4828 43.6886 41.9435 43.7494 41.4264C43.7557 41.373 43.8577 41.685 43.8657 41.7176C43.964 42.1176 44.0505 42.52 44.1537 42.919C44.2241 43.1913 44.3148 43.436 44.417 43.6916C44.5012 43.902 44.7011 44.0672 44.8573 44.2234C44.9405 44.3066 44.971 44.0527 44.9828 44.0022C45.0382 43.7659 45.1389 43.5409 45.2215 43.313C45.3526 42.9511 45.4677 42.5845 45.635 42.236C45.7279 42.0424 45.7843 41.8339 45.8716 41.6383C45.9484 41.4663 46.0383 41.2944 46.1215 41.125C46.3239 40.7135 46.5191 40.2855 46.7665 39.8989C46.9798 39.5656 47.2312 39.2688 47.5565 39.0389C48.0191 38.7121 48.5648 38.585 49.1242 38.5637C49.3813 38.5539 49.6405 38.5593 49.8978 38.5616C50.046 38.5629 50.1743 38.577 50.3092 38.6357C50.487 38.7129 50.6865 38.8111 50.8328 38.9402C50.9063 39.005 51.0291 39.0726 51.1198 39.113C51.177 39.1384 51.1734 38.8783 51.1744 38.8465C51.1818 38.6122 51.2016 38.3525 51.1538 38.1224C51.0853 37.7929 50.9439 37.4915 50.8092 37.1852C50.6197 36.7545 50.4026 36.309 50.1405 35.9179C50.0252 35.7458 49.8996 35.5915 49.7497 35.4499C49.6828 35.3868 49.5908 35.2635 49.5007 35.2308C49.3998 35.1941 49.3462 35.7162 49.3423 35.7657C49.3101 36.1693 49.3058 36.5731 49.2909 36.9775C49.2828 37.1952 49.2497 37.4144 49.2497 37.6317C49.2497 37.6912 49.2313 37.7323 49.2024 37.785C49.1204 37.934 48.9794 38.018 48.8341 38.0987C48.5124 38.2774 48.1761 38.4215 47.8384 38.5657C47.4856 38.7164 47.1496 38.8574 46.8684 39.1181C46.5741 39.3908 46.3277 39.722 46.0567 40.0182C45.9385 40.1475 45.8142 40.2698 45.6936 40.3967C45.5498 40.5481 45.4373 40.7067 45.2708 40.837C45.1515 40.9304 45.0437 41.0376 44.917 41.1209C44.8376 41.1731 44.7335 41.24 44.6763 41.3164C44.6362 41.3698 44.5467 41.4964 44.4911 41.5242" stroke="black" stroke-width="2" stroke-linecap="round"/>
<path d="M74.853 31.9731C75.6372 31.9731 76.0293 32.709 76.0293 34.1807C76.1296 34.1807 76.1797 34.229 76.1797 34.3257C77.1572 34.229 77.8913 34.1807 78.3818 34.1807H78.8223L78.9673 34.9111V35.502C78.38 35.5736 78.0864 35.672 78.0864 35.7974C78.2834 36.4312 78.3818 36.8716 78.3818 37.1187V37.2637C78.3818 38.1481 77.6478 38.7371 76.1797 39.0308C74.708 38.6655 73.9722 37.9297 73.9722 36.8232V36.5278L74.1172 36.2378C72.9427 36.2378 72.3555 35.894 72.3555 35.2065V34.7661C72.5094 34.7661 72.7046 34.6676 72.9409 34.4707H74.5576L74.2676 32.709C74.4574 32.2614 74.6525 32.0161 74.853 31.9731ZM75.4438 36.6782V36.8232C75.4438 36.9629 75.5907 37.1097 75.8843 37.2637H76.4697C76.6667 37.2637 76.7651 37.167 76.7651 36.9736C76.7651 36.7767 76.6667 36.6782 76.4697 36.6782H75.4438ZM78.9673 39.1758C79.4578 39.1758 79.7031 39.6663 79.7031 40.6475H79.5581C79.3934 40.8408 77.6299 41.0843 74.2676 41.3779C73.777 41.1846 73.5317 40.891 73.5317 40.4971C73.5317 39.8132 74.4627 39.4712 76.3247 39.4712V39.6162L78.9673 39.1758ZM78.6772 41.6733C79.3612 41.6733 79.7031 42.556 79.7031 44.3213C79.5778 44.8118 79.431 45.0571 79.2627 45.0571H78.3818L78.0864 44.0259V43.29C76.4321 43.5837 75.4528 43.7305 75.1484 43.7305L74.5576 42.7046C74.7546 42.7046 74.9515 42.5076 75.1484 42.1138C76.7025 41.8201 77.8787 41.6733 78.6772 41.6733ZM90.8911 35.7974H91.3315C91.3315 35.9478 91.43 36.1429 91.627 36.3828V38.1445C91.627 38.5921 91.7738 39.6699 92.0674 41.3779C91.8776 41.8255 91.6807 42.0708 91.4766 42.1138H91.1865C90.7676 42.1138 90.4238 40.7424 90.1553 37.9995H90.3057L90.1553 37.7041C90.2555 36.4329 90.5008 35.7974 90.8911 35.7974ZM83.248 36.0874C84.3258 36.159 84.8647 36.4526 84.8647 36.9683C85.0116 36.8716 85.6489 36.7749 86.7769 36.6782C87.561 37.4373 87.9531 38.6136 87.9531 40.207V40.4971C87.9531 41.0055 87.8063 41.2992 87.5127 41.3779H86.9219C86.6283 41.3779 86.4331 40.3986 86.3364 38.4399H85.4502C85.3105 38.4399 85.1637 38.5868 85.0098 38.8804V39.0308C85.0098 39.5428 85.0599 40.3753 85.1602 41.5283L84.5693 41.9688H84.2793C83.8854 41.9688 83.6401 41.283 83.5435 39.9116L83.6885 39.0308V37.9995C83.6885 37.8026 83.5417 37.7041 83.248 37.7041C83.0332 37.7041 82.2974 37.8026 81.0405 37.9995C80.6502 37.9028 80.4551 37.6092 80.4551 37.1187C80.4551 36.4312 81.2876 36.0874 82.9526 36.0874H83.248ZM101.048 34.7769H101.633C101.995 34.7769 102.24 35.903 102.369 38.1553C102.502 38.1553 103.041 38.0568 103.986 37.8599C104.43 38.0496 104.673 38.2448 104.716 38.4453V38.8857C104.716 39.3763 103.982 39.6216 102.514 39.6216V39.772C102.514 40.3055 102.613 41.48 102.81 43.2954C102.62 43.743 102.423 43.9883 102.219 44.0312H101.778C101.295 44.0312 101.001 42.4146 100.897 39.1812C100.776 39.1812 100.679 37.8097 100.607 35.0669L101.048 34.7769ZM96.6382 36.6836C97.2254 36.6836 97.519 37.0273 97.519 37.7148V41.2383C97.519 41.3779 97.3722 41.5247 97.0786 41.6787H96.4932C96.3499 41.6787 96.2031 41.5319 96.0527 41.2383V38.3003C94.4844 38.397 93.6519 38.4954 93.5552 38.5957C93.1076 38.4059 92.8623 38.209 92.8193 38.0049V37.4194C92.8193 37.0757 94.0923 36.8304 96.6382 36.6836ZM112.961 34.9219C113.151 35.0186 113.298 35.0669 113.401 35.0669V35.5073C113.208 36.2056 113.111 36.5977 113.111 36.6836C114.873 37.7936 115.754 38.6745 115.754 39.3262C115.754 39.4801 115.559 39.6771 115.168 39.917H114.873L112.375 37.8599C112.021 39.1346 111.53 39.772 110.904 39.772C110.904 39.575 110.757 39.4766 110.463 39.4766V39.1812C111.291 36.3416 112.123 34.9219 112.961 34.9219ZM110.759 43.2954H111.35C111.446 43.2954 111.495 43.3438 111.495 43.4404L111.79 43.2954H113.697C116.243 43.2954 117.516 43.4906 117.516 43.8809V44.1763C117.516 44.6668 117.27 44.9604 116.78 45.0571C115.827 44.8602 114.408 44.7617 112.521 44.7617H110.318C110.025 44.7617 109.878 44.4198 109.878 43.7358C110.129 43.4422 110.422 43.2954 110.759 43.2954ZM122.231 35.3623C122.819 35.3623 123.112 35.6577 123.112 36.2485V36.834C121.762 37.0309 120.686 37.1294 119.884 37.1294V38.5957C120.106 38.5957 120.987 38.4489 122.527 38.1553C122.917 38.252 123.112 38.5456 123.112 39.0361V39.1812C123.112 39.618 122.133 39.9618 120.174 40.2124C120.371 40.5311 120.47 40.8247 120.47 41.0933L121.936 40.9429H122.967L123.698 41.0933V42.1191C123.393 42.5094 122.317 42.7046 120.47 42.7046H120.174C119.48 42.7046 118.991 41.9222 118.708 40.3574C118.414 39.4766 118.268 38.1069 118.268 36.2485C118.268 35.8547 118.903 35.6094 120.174 35.5127V35.6577L120.47 35.5127H121.351L122.231 35.3623ZM127.221 35.8027H127.957C128.154 36.8734 128.252 37.6576 128.252 38.1553H130.745C130.745 38.3737 130.795 38.5688 130.895 38.7407C130.694 39.328 130.498 39.6216 130.304 39.6216H128.542V39.917C128.542 40.2428 128.641 40.9285 128.838 41.9741C128.741 42.5614 128.594 42.855 128.397 42.855H127.517C126.969 40.5275 126.675 38.3737 126.636 36.3936L127.221 35.8027ZM132.533 33.2944C132.966 33.2944 133.26 34.2254 133.414 36.0874C133.317 36.0874 133.269 36.1375 133.269 36.2378C133.692 36.4312 134.476 36.5278 135.622 36.5278H136.062V35.3516C136.062 35.1618 136.16 34.673 136.357 33.8853C136.454 33.8853 136.502 33.9336 136.502 34.0303L136.798 33.8853H137.093C137.326 33.8853 137.473 34.2773 137.534 35.0615C137.534 38.3916 137.142 40.0566 136.357 40.0566C136.357 40.1569 136.307 40.207 136.207 40.207H135.031C134.812 40.207 134.617 40.2554 134.445 40.3521C132.934 40.3521 132.102 39.029 131.948 36.3828C131.751 35.2764 131.652 34.5423 131.652 34.1807C131.867 33.5898 132.161 33.2944 132.533 33.2944ZM141.503 34.3257C141.99 34.3257 142.233 35.8439 142.233 38.8804V39.6162C142.233 39.8633 142.137 40.3037 141.943 40.9375H141.503C140.912 40.9375 140.617 40.694 140.617 40.207C140.717 39.2259 140.767 38.4901 140.767 37.9995H139.591C138.219 37.9995 137.534 37.7542 137.534 37.2637C137.731 36.6764 137.926 36.3828 138.119 36.3828H139.44C139.541 36.3828 139.591 36.4312 139.591 36.5278L139.886 36.3828H140.327L140.617 36.5278C140.617 35.1564 140.814 34.4707 141.208 34.4707L141.503 34.3257ZM133.709 37.8545V37.9995C133.717 38.1392 133.914 38.3844 134.3 38.7354C135.475 38.6602 136.062 38.5133 136.062 38.2949V37.9995H134.445L133.709 37.8545ZM136.207 41.5283H138.71C139.981 41.5283 140.617 41.7235 140.617 42.1138L140.767 43V44.0259C140.767 45.3006 140.423 45.938 139.736 45.938H139.44C139.44 45.6444 139.344 45.4976 139.15 45.4976C139.211 44.6131 139.308 44.1709 139.44 44.1709L139.295 43.8809V43.145H138.415C138.314 43.145 138.264 43.0967 138.264 43L137.974 43.145H137.238C137.142 43.145 137.093 43.0967 137.093 43C136.993 43 136.943 43.0483 136.943 43.145C136.062 43.0483 135.622 42.8031 135.622 42.4092C135.819 41.8219 136.014 41.5283 136.207 41.5283ZM146.068 34.9219C146.258 35.0186 146.405 35.0669 146.509 35.0669V35.5073C146.315 36.2056 146.219 36.5977 146.219 36.6836C147.98 37.7936 148.861 38.6745 148.861 39.3262C148.861 39.4801 148.666 39.6771 148.276 39.917H147.98L145.483 37.8599C145.128 39.1346 144.638 39.772 144.011 39.772C144.011 39.575 143.864 39.4766 143.571 39.4766V39.1812C144.398 36.3416 145.23 34.9219 146.068 34.9219ZM143.866 43.2954H144.457C144.554 43.2954 144.602 43.3438 144.602 43.4404L144.897 43.2954H146.804C149.35 43.2954 150.623 43.4906 150.623 43.8809V44.1763C150.623 44.6668 150.378 44.9604 149.887 45.0571C148.935 44.8602 147.515 44.7617 145.628 44.7617H143.426C143.132 44.7617 142.985 44.4198 142.985 43.7358C143.236 43.4422 143.53 43.2954 143.866 43.2954ZM164.883 34.3364H165.028C165.691 34.3364 166.18 36.6854 166.495 41.3833C166.495 42.1675 166.153 42.5596 165.469 42.5596C164.978 42.5596 164.733 41.3368 164.733 38.8911C164.636 38.8911 164.588 38.5975 164.588 38.0103C163.449 38.4006 162.715 38.5957 162.386 38.5957C162.232 38.5957 162.037 38.4006 161.8 38.0103V37.5698C161.994 37.3299 162.09 37.133 162.09 36.979H162.681C163.097 36.979 163.684 36.8322 164.443 36.5386C164.246 35.9012 164.147 35.4608 164.147 35.2173V34.4814L164.883 34.3364ZM159.303 34.6318H160.479C161.26 35.1081 161.7 36.9181 161.8 40.062C161.603 40.9536 161.505 41.4442 161.505 41.5337H160.479C160.336 41.5337 160.189 41.3869 160.039 41.0933C160.135 40.0907 160.184 39.3065 160.184 38.7407L157.101 39.3315C156.61 39.1632 156.365 38.918 156.365 38.5957C156.365 38.0622 157.344 37.6701 159.303 37.4194C159.303 37.3228 159.548 37.2744 160.039 37.2744C159.938 36.3936 159.741 35.9531 159.448 35.9531C157.829 36.3434 156.852 36.5386 156.515 36.5386C156.025 36.4705 155.779 36.3237 155.779 36.0981C155.779 35.1206 156.954 34.6318 159.303 34.6318ZM171.361 35.5127V35.6577C171.461 35.6577 171.511 35.6094 171.511 35.5127C172.879 35.5127 173.563 35.8547 173.563 36.5386C173.466 36.7104 173.418 36.9056 173.418 37.124H172.242C172.464 39.7702 172.709 41.0933 172.978 41.0933C173.661 41.0933 174.003 41.2401 174.003 41.5337V41.9741C173.81 42.2104 173.713 42.4056 173.713 42.5596L172.833 42.4146L172.537 42.5596L172.242 42.4146L171.952 42.5596C171.851 42.5596 171.801 42.5112 171.801 42.4146L170.335 42.5596H168.869C168.281 42.5596 167.988 42.2176 167.988 41.5337C168.31 41.2401 168.604 41.0933 168.869 41.0933C168.575 38.798 168.428 37.5251 168.428 37.2744H167.988L167.252 37.124V36.0981C167.875 35.8045 168.854 35.6577 170.19 35.6577H170.63L171.361 35.5127ZM177.237 36.0981C177.509 37.0578 177.851 39.2116 178.263 42.5596C177.969 42.9355 177.822 43.1808 177.822 43.2954H177.382L177.086 43.145C177.086 43.2453 177.038 43.2954 176.941 43.2954C176.573 42.0887 176.279 39.7881 176.061 36.3936C176.419 36.1966 176.811 36.0981 177.237 36.0981ZM169.895 37.4194L170.335 41.0933L171.216 40.9429C170.922 39.1597 170.775 37.8867 170.775 37.124H170.19C169.993 37.1562 169.895 37.2547 169.895 37.4194ZM181.072 33.5845C181.365 33.964 181.512 34.2594 181.512 34.4707L181.367 35.4966C182.542 36.7713 183.179 37.4087 183.279 37.4087H183.424C184.044 35.1564 184.633 34.0303 185.191 34.0303H185.487C185.487 34.1807 185.585 34.3758 185.782 34.6157C185.782 34.7625 185.684 35.203 185.487 35.937C186.858 36.1841 187.544 36.6263 187.544 37.2637V37.4087C187.544 37.5519 187.397 37.6987 187.104 37.8491C186.617 37.8491 185.881 37.6056 184.896 37.1187C184.896 37.7524 184.651 38.1929 184.16 38.4399L183.134 38.2949L182.984 38.585C182.375 38.585 181.641 38.0461 180.782 36.9683C180.631 38.0461 180.386 38.585 180.046 38.585H179.31C179.31 38.2913 179.212 38.1445 179.015 38.1445C179.799 35.1045 180.388 33.5845 180.782 33.5845H181.072ZM184.16 38.7354C184.457 38.7354 184.654 39.3727 184.751 40.6475H186.072L186.958 40.4971C187.349 40.6439 187.544 40.7907 187.544 40.9375V41.6733C187.544 41.8201 187.349 41.9688 186.958 42.1191C186.858 42.1191 186.808 42.069 186.808 41.9688C184.878 42.1657 183.163 42.2642 181.663 42.2642C181.663 42.0672 181.564 41.9688 181.367 41.9688V41.2329C181.464 40.9393 181.757 40.7925 182.248 40.7925H183.279V40.3521C183.279 39.2743 183.525 38.7354 184.015 38.7354H184.16ZM183.424 42.7046C183.722 42.7046 183.918 43.4404 184.015 44.9121H185.487C185.583 44.9121 185.632 44.9604 185.632 45.0571L185.927 44.9121H186.223L187.249 45.0571V45.4976C187.249 46.0884 186.856 46.3838 186.072 46.3838H184.896C184.799 46.3838 184.751 46.3337 184.751 46.2334C184.654 46.2334 184.606 46.2835 184.606 46.3838L183.87 46.2334H182.984C182.69 45.7178 182.543 45.1305 182.543 44.4717V43.145C182.644 42.8514 182.937 42.7046 183.424 42.7046ZM193.146 35.3569C193.343 35.6756 193.441 35.9692 193.441 36.2378V36.5278C193.291 37.0184 192.066 37.2637 189.768 37.2637V38.4399C189.768 40.105 190.16 40.9375 190.944 40.9375H192.851C192.951 40.9375 193.148 41.1344 193.441 41.5283C193.441 42.3125 193.148 42.7046 192.561 42.7046C191.998 42.7046 191.655 42.7529 191.529 42.8496C189.667 42.6204 188.736 42.1317 188.736 41.3833C188.443 40.4666 188.296 39.6323 188.296 38.8804V36.2378L188.881 35.502L189.913 35.647C191.782 35.4536 192.86 35.3569 193.146 35.3569ZM196.82 35.3569C197.214 35.8439 197.411 36.8232 197.411 38.2949H199.027L199.763 38.4399V39.4712C199.663 39.7648 199.368 39.9116 198.877 39.9116H197.411V42.2642C197.411 42.9481 197.067 43.29 196.379 43.29L195.939 42.7046V38.5903C195.939 38.021 195.891 37.2368 195.794 36.2378C195.955 35.6506 196.297 35.3569 196.82 35.3569ZM207.422 33.1602C208.991 33.9443 209.775 35.1672 209.775 36.8286C209.775 38.2 208.991 38.8857 207.422 38.8857C205.994 38.8857 205.161 37.7596 204.925 35.5073V35.0669C204.925 34.1144 205.757 33.4788 207.422 33.1602ZM213.153 33.8906H213.298C213.721 33.8906 214.063 35.4089 214.324 38.4453C214.228 38.8392 213.934 39.0361 213.443 39.0361C212.853 39.0361 212.511 37.7632 212.417 35.2173C212.321 35.0526 212.272 34.8073 212.272 34.4814C212.369 34.0876 212.663 33.8906 213.153 33.8906ZM206.396 35.0669V35.8027C206.529 36.7839 206.969 37.2744 207.718 37.2744H208.008C208.205 37.2744 208.303 37.1759 208.303 36.979V36.8286C208.074 35.4608 207.682 34.7769 207.127 34.7769C206.808 34.9702 206.565 35.0669 206.396 35.0669ZM211.682 39.917C212.663 39.917 213.153 40.7979 213.153 42.5596V42.71C213.153 43.5908 212.564 44.0312 211.386 44.0312H210.065C209.925 44.0312 209.778 44.1781 209.625 44.4717C209.625 45.0589 209.918 45.3525 210.505 45.3525C211.06 45.3525 211.599 45.2541 212.122 45.0571C212.312 45.1538 212.459 45.2021 212.562 45.2021V46.0884C212.562 46.4787 211.975 46.6738 210.801 46.6738H210.215C208.844 46.5413 208.158 45.9541 208.158 44.9121V44.0312C208.527 43.1504 209.408 42.71 210.801 42.71H211.386C211.583 42.71 211.682 42.5614 211.682 42.2642L211.537 41.5337C211.132 41.5337 210.153 41.6304 208.599 41.8237C207.868 41.8237 207.476 41.5802 207.422 41.0933C207.422 40.5168 208.842 40.1247 211.682 39.917ZM215.812 33.1494C216.815 33.443 218.186 33.5898 219.926 33.5898C220.22 34.1234 220.367 34.5638 220.367 34.9111C220.152 35.0687 219.711 35.2173 219.045 35.3569L218.31 35.2065H217.133C216.936 35.2388 216.838 35.3372 216.838 35.502V36.3828C216.838 37.167 217.377 37.5591 218.455 37.5591H219.486C219.876 37.7166 220.071 38.0604 220.071 38.5903V38.8804C220.01 39.174 219.62 39.3208 218.9 39.3208H218.605C216.449 39.3208 215.372 38.3898 215.372 36.5278V35.0615L215.517 34.7661C215.223 34.7661 215.076 34.5208 215.076 34.0303C215.076 33.6758 215.321 33.3822 215.812 33.1494ZM223.455 33.8853C223.652 33.8853 223.847 34.2272 224.041 34.9111H223.896L224.041 35.2065V36.8232L224.191 37.1187L224.481 36.9736H226.098L226.248 37.9995V38.1445C226.248 38.3773 225.512 38.6226 224.041 38.8804L224.191 39.1758C224.191 40.5472 223.994 41.2329 223.6 41.2329C223.074 41.2329 222.732 41.0378 222.574 40.6475V37.9995C222.574 37.9028 222.623 37.8545 222.719 37.8545L222.574 37.5591V37.4141C222.574 37.3138 222.623 37.2637 222.719 37.2637L222.574 36.9736C222.574 36.8734 222.623 36.8232 222.719 36.8232C222.623 36.6156 222.524 35.8815 222.424 34.6211C222.56 34.1305 222.904 33.8853 223.455 33.8853ZM218.605 41.6733H219.19C219.448 43.3384 219.792 44.1709 220.222 44.1709H222.719C222.916 44.2031 223.015 44.3016 223.015 44.4663V45.3472C223.015 45.741 222.426 45.938 221.248 45.938H220.222C218.936 45.938 218.2 45.007 218.014 43.145V42.2642C218.014 42.1102 218.211 41.9132 218.605 41.6733ZM232.876 31.3931C233.463 31.3931 233.757 31.7852 233.757 32.5693V34.3311H236.104C236.204 34.3311 236.254 34.3812 236.254 34.4814L236.544 34.3311H236.985C237.278 34.3311 237.475 34.7231 237.576 35.5073C237.379 35.5073 237.28 35.6541 237.28 35.9478H233.606C232.726 35.9478 232.285 35.1152 232.285 33.4502V32.2793C232.285 31.7887 232.482 31.4933 232.876 31.3931ZM231.845 36.979C232.826 37.0363 233.316 37.1348 233.316 37.2744L235.078 36.979L235.368 37.124C236.041 37.0273 236.58 36.979 236.985 36.979H237.425C237.683 36.979 237.88 37.321 238.016 38.0049C237.869 38.3988 237.722 38.5957 237.576 38.5957H235.959L235.223 38.7407L235.368 40.2124V40.5024L236.104 40.3574H236.695C237.085 40.3574 237.28 40.9447 237.28 42.1191V43C237.28 43.6875 236.595 44.2747 235.223 44.7617L234.487 44.6167H234.047V45.0571C234.831 45.1216 235.223 45.2201 235.223 45.3525L235.519 45.2021H237.425L237.721 45.0571L237.866 45.793V45.938C237.529 46.5252 236.648 46.8188 235.223 46.8188H234.638C233.531 46.8188 232.846 46.0848 232.581 44.6167C232.581 43.6857 233.56 43.1468 235.519 43C235.812 42.7493 235.959 42.4557 235.959 42.1191L235.664 41.9741H235.368L233.902 42.1191V41.9741L233.606 42.1191C232.726 42.1191 232.285 41.7772 232.285 41.0933V40.9429C232.285 40.7925 232.482 40.5973 232.876 40.3574C232.973 40.3574 233.021 40.4058 233.021 40.5024C233.118 40.5024 233.166 40.4541 233.166 40.3574L233.902 40.5024H234.047C233.854 39.5142 233.757 38.9269 233.757 38.7407H233.166C231.992 38.7407 231.404 38.3988 231.404 37.7148V37.124C231.508 37.124 231.655 37.0757 231.845 36.979ZM241.566 35.5073C243.035 35.5073 243.769 36.6335 243.769 38.8857C243.865 38.8857 243.964 39.328 244.064 40.2124C244.064 40.8963 243.231 41.2383 241.566 41.2383L241.416 41.5337V41.8237C241.416 41.967 241.563 42.1138 241.856 42.2642H243.473C243.573 42.2642 243.624 42.3143 243.624 42.4146L243.914 42.2642C244.057 42.2642 244.204 42.4128 244.354 42.71V42.855C244.257 43.6392 243.915 44.0312 243.328 44.0312C241.076 44.0312 239.95 43.2471 239.95 41.6787C239.95 40.3538 240.782 39.6198 242.447 39.4766C242.447 37.9082 242.055 37.124 241.271 37.124H240.976C240.012 37.321 239.473 37.4194 239.359 37.4194H239.069C238.872 37.4194 238.773 37.321 238.773 37.124V36.979C238.773 36.1877 239.361 35.6971 240.535 35.5073H241.566ZM247.147 36.2432H247.732C248.101 36.2432 248.397 37.5662 248.619 40.2124H248.468L248.619 40.5024V40.9429C248.619 41.3511 248.667 41.89 248.764 42.5596C248.567 42.8783 248.468 43.1235 248.468 43.2954H247.732C247.414 43.2954 247.219 42.658 247.147 41.3833V40.7979C246.95 40.7979 246.852 40.7495 246.852 40.6528L245.826 40.7979H245.385C244.798 40.7979 244.504 40.5042 244.504 39.917C244.504 39.3298 245.19 39.0361 246.562 39.0361C246.751 39.1328 246.898 39.1812 247.002 39.1812C247.002 39.0845 247.05 39.0361 247.147 39.0361C246.95 37.8044 246.852 37.1187 246.852 36.979C247.049 36.6603 247.147 36.415 247.147 36.2432ZM249.956 34.186H250.542C250.685 34.186 250.833 34.3328 250.987 34.6265V36.2432L251.132 36.5386L251.428 36.3882H253.775V35.6577L253.925 34.6265H254.511C254.901 34.7876 255.096 35.1313 255.096 35.6577V36.3882C255.096 38.6405 254.362 39.7666 252.894 39.7666H252.749L253.189 40.3574V42.2642H254.366C255.05 42.2642 255.392 42.6079 255.392 43.2954L254.806 43.7358H250.101C249.933 43.7358 249.786 43.4906 249.661 43C249.858 42.6813 249.956 42.436 249.956 42.2642H251.718V40.7979C251.718 40.4684 251.865 40.1247 252.158 39.7666C250.493 39.7666 249.661 39.131 249.661 37.8599C249.661 36.714 249.612 35.783 249.516 35.0669C249.645 34.4797 249.791 34.186 249.956 34.186ZM257.153 36.0981C257.665 36.0981 258.057 36.3416 258.33 36.8286V37.7148L258.475 39.4766H260.091C260.235 39.4766 260.381 39.6234 260.532 39.917V40.3574C260.403 40.7477 259.962 40.9429 259.21 40.9429H258.475L258.625 41.6787V41.9741C258.625 42.0708 258.575 42.1191 258.475 42.1191L258.625 42.4146V42.5596C258.625 42.6598 258.575 42.71 258.475 42.71L258.625 43V43.1504C258.367 43.6338 258.17 43.8773 258.034 43.8809H257.449C257.309 43.8809 257.162 43.734 257.008 43.4404V41.2383C257.008 41.0163 257.057 40.8211 257.153 40.6528C257.057 40.481 257.008 40.284 257.008 40.062H257.153L257.008 39.7666V38.8857C257.008 38.3486 256.96 37.6629 256.863 36.8286C257.057 36.5135 257.153 36.27 257.153 36.0981ZM252.894 37.8599H251.277V38.1553L252.013 38.3003H253.189C253.383 38.3003 253.479 38.2018 253.479 38.0049V37.8599C253.286 37.8599 253.189 37.8115 253.189 37.7148L252.894 37.8599Z" fill="black"/>
<path d="M132.588 55.4766H133.148C133.604 55.4766 134.134 55.758 134.738 56.3208C135.237 56.9064 135.486 57.5615 135.486 58.2861V59.0347C135.486 59.4175 134.987 60.0099 133.989 60.812L132.772 61V60.9043C132.711 60.9043 132.68 60.9362 132.68 61C131.058 61 130.247 60.0635 130.247 58.1904V57.7222C130.247 57.0819 130.746 56.4268 131.744 55.7568C132.156 55.57 132.438 55.4766 132.588 55.4766ZM130.995 57.9102C130.995 59.4072 131.494 60.1558 132.492 60.1558H132.96C133.833 60.1558 134.27 59.8447 134.27 59.2227L133.617 58.7544H133.521C133.521 59.3765 133.271 59.6875 132.772 59.6875H132.68C132.202 59.6875 131.92 59.5633 131.836 59.3149C131.9 59.3149 131.932 59.2842 131.932 59.2227H131.836C131.836 59.2842 131.805 59.3149 131.744 59.3149C131.495 59.0506 131.371 58.8011 131.371 58.5664V58.2861C131.51 57.2243 131.977 56.6934 132.772 56.6934H133.053C133.114 56.6934 133.24 56.8813 133.429 57.2573H133.521L133.429 57.4419C133.543 57.4487 133.823 57.7301 134.27 58.2861C134.368 58.2861 134.493 58.3488 134.646 58.4741V58.1904C134.315 56.944 133.784 56.3208 133.053 56.3208H132.96C132.035 56.3208 131.38 56.8506 130.995 57.9102ZM132.12 58.5664C132.347 58.7533 132.565 58.8467 132.772 58.8467V58.4741L132.68 57.5376H132.588C132.276 57.6743 132.12 58.0173 132.12 58.5664ZM137.746 58.7578L138.398 59.1304C138.772 58.882 139.115 58.7578 139.427 58.7578C140.259 58.7578 140.819 59.5052 141.109 61V61.0957C140.984 61.4694 140.859 61.6562 140.736 61.6562H140.456C140.244 61.6562 140.088 61.0946 139.988 59.9712L139.427 59.5986H139.239C139.144 59.5986 139.019 59.7228 138.867 59.9712C138.928 60.5933 138.959 61.0615 138.959 61.376L138.679 61.5605H138.398C138.15 61.5605 138.026 61 138.026 59.8789L137.558 59.7866C137.245 59.8732 137.089 60.0908 137.089 60.4395V61.5605C137.089 61.6585 136.965 61.7839 136.717 61.9365H136.621C136.311 61.9365 136.094 61.1265 135.968 59.5063C136.014 59.3195 136.138 59.1942 136.341 59.1304L136.905 59.2261C136.905 59.0392 137.185 58.8831 137.746 58.7578ZM143.741 56.0405C144.301 56.0793 144.582 56.1408 144.582 56.2251C145.732 57.827 146.387 58.8569 146.547 59.3149C146.426 59.5998 146.302 59.7559 146.174 59.7832H145.986C145.909 59.7832 145.629 59.471 145.146 58.8467C145.146 59.4437 144.708 59.8493 143.833 60.0635H142.992C142.336 59.7718 141.898 59.3354 141.68 58.7544C141.68 58.5675 141.649 58.4741 141.587 58.4741C141.587 57.3029 142.149 56.5225 143.272 56.1328L143.741 56.0405ZM142.524 58.2861C142.649 58.6439 142.867 58.8934 143.177 59.0347H143.833C144.145 58.8752 144.301 58.6257 144.301 58.2861V57.9102C144.301 57.5365 144.114 57.2562 143.741 57.0693H143.553C142.867 57.3815 142.524 57.7871 142.524 58.2861ZM148.618 55.9517C149.644 55.9517 150.298 56.6683 150.58 58.1016C150.705 58.1016 150.799 58.4764 150.86 59.2261H151.517C151.89 59.2648 152.077 59.3582 152.077 59.5063V59.7866C152.077 59.9735 151.672 60.0977 150.86 60.1592L150.956 60.3472C150.79 61.4683 150.321 62.0288 149.551 62.0288H149.179C148.502 62.0288 148.128 61.5617 148.058 60.6274C148.058 60.2424 148.712 59.806 150.02 59.3184V59.2261C149.958 59.1167 149.927 58.9914 149.927 58.8501H149.835C149.607 59.0369 149.388 59.1304 149.179 59.1304H148.43C147.733 59.1304 147.266 58.5698 147.029 57.4487V57.1685C147.471 56.3573 148.001 55.9517 148.618 55.9517ZM147.965 57.1685V57.541C147.965 57.8805 148.12 58.13 148.43 58.2896H149.086C149.335 58.1642 149.459 57.9774 149.459 57.729C149.286 57.1047 149.099 56.7925 148.898 56.7925H148.43C148.243 57.0431 148.088 57.1685 147.965 57.1685ZM148.991 60.8154C148.991 60.9111 149.116 61.0353 149.367 61.188H149.459C149.833 61.0308 150.02 60.7812 150.02 60.4395V60.2515H149.927C149.312 60.4884 149 60.6764 148.991 60.8154ZM153.12 55.4868H154.801C155.052 55.6144 155.177 55.7694 155.177 55.9517C155.113 56.2023 154.927 56.3276 154.617 56.3276H152.839C152.75 56.3276 152.657 56.2342 152.559 56.0474C152.559 55.6737 152.746 55.4868 153.12 55.4868ZM154.241 57.6367C154.507 57.6367 154.663 58.571 154.709 60.4395C154.709 60.6058 154.553 60.7619 154.241 60.9077C153.931 60.8211 153.776 60.6024 153.776 60.2515V59.3184C153.776 58.9766 153.744 58.5402 153.68 58.0093C153.744 57.7609 153.931 57.6367 154.241 57.6367ZM157.901 56.1328H158.558C159.12 56.1328 159.463 56.4131 159.586 56.9736V57.1616C159.586 57.2528 159.493 57.3462 159.306 57.4419C158.657 57.1935 158.251 57.0693 158.089 57.0693C157.091 57.1992 156.592 57.5729 156.592 58.1904V58.2861C156.592 59.1953 157.185 59.7251 158.37 59.8755C159.281 59.7502 159.78 59.6875 159.867 59.6875V60.0635C159.867 60.5465 159.43 60.8268 158.558 60.9043C157.193 60.9043 156.288 60.3438 155.844 59.2227C155.718 58.9652 155.656 58.7772 155.656 58.6587H155.748L155.656 58.4741V58.0981C155.963 56.7879 156.712 56.1328 157.901 56.1328ZM160.438 61.5605H163.435C163.542 61.5605 163.636 61.7166 163.715 62.0288L163.435 62.4971L162.967 62.4048H162.03C161.966 62.4048 161.935 62.3729 161.935 62.3091L161.75 62.4048H160.721C160.623 62.4048 160.498 62.2795 160.345 62.0288L160.438 61.5605ZM164.662 55.6714C165.036 55.6714 165.223 56.5441 165.223 58.2896C165.596 57.9159 166.001 57.729 166.436 57.729H166.716C167.347 57.729 167.753 58.04 167.933 58.6621C168.12 58.9834 168.213 59.2956 168.213 59.5986V60.3472C168.213 60.6707 168.12 60.8576 167.933 60.9077H167.653C167.418 60.9077 167.262 60.3472 167.185 59.2261L166.624 58.6621H166.156C165.88 58.6621 165.632 59.2853 165.411 60.5317L165.13 60.7197H164.847C164.493 60.7197 164.276 59.193 164.194 56.1396C164.299 55.8275 164.455 55.6714 164.662 55.6714ZM171.033 56.2251C172.343 56.4393 172.999 56.8141 172.999 57.3496L173.091 58.0059C172.813 58.7533 172.251 59.127 171.406 59.127C170.408 59.0654 169.878 59.0028 169.816 58.939C169.816 59.0028 169.785 59.0347 169.721 59.0347C169.901 59.9712 170.525 60.4395 171.594 60.4395H171.966C172.436 60.1273 172.748 59.9712 172.903 59.9712L173.091 60.2515V60.3438C173.091 61.0934 172.498 61.4683 171.313 61.4683C170.584 61.4683 169.867 61.0627 169.16 60.2515C168.848 59.3833 168.692 58.759 168.692 58.3784C168.988 57.255 169.394 56.6934 169.909 56.6934C169.909 56.5954 170.284 56.4393 171.033 56.2251ZM169.816 57.9102C170.06 58.0355 170.403 58.0981 170.845 58.0981H171.498C171.708 58.0981 171.926 58.0047 172.154 57.8179C172.154 57.4442 171.749 57.2573 170.938 57.2573C170.19 57.5649 169.816 57.7826 169.816 57.9102ZM176.659 57.729H176.939C177.108 57.729 177.513 58.5698 178.153 60.2515C178.032 60.5363 177.908 60.6924 177.78 60.7197C177.343 60.7197 177.124 60.4395 177.124 59.8789H177.032C176.795 60.5648 176.202 60.9077 175.254 60.9077C174.514 60.9077 173.953 60.2218 173.573 58.8501V58.4775C173.611 58.1038 173.705 57.917 173.853 57.917H174.133C174.3 57.917 174.456 58.4149 174.602 59.4106C174.914 59.8481 175.163 60.0669 175.35 60.0669C176.036 60.0669 176.379 59.5986 176.379 58.6621H176.471L176.379 58.4775V58.0093C176.379 57.9204 176.472 57.827 176.659 57.729ZM179.1 55.7671C179.473 55.7671 179.66 56.6387 179.66 58.3818C180.925 57.6982 181.704 57.3564 181.998 57.3564C182.094 57.3564 182.218 57.4806 182.371 57.729V57.8213C182.371 57.9307 181.778 58.3055 180.593 58.9458C180.593 59.1737 180.968 59.4539 181.718 59.7866C182.091 59.9142 182.278 60.1626 182.278 60.5317L181.902 60.8154H181.622C181.435 60.8154 180.844 60.4406 179.848 59.6909V60.1592C179.848 60.3825 179.879 60.6628 179.94 61C179.94 61.1663 179.784 61.3224 179.472 61.4683C179.094 61.4683 178.876 60.2845 178.819 57.917L178.631 56.2319C178.631 56.0679 178.787 55.9129 179.1 55.7671ZM183.317 55.7671C183.691 55.7671 183.878 56.6387 183.878 58.3818C185.143 57.6982 185.922 57.3564 186.216 57.3564C186.312 57.3564 186.436 57.4806 186.588 57.729V57.8213C186.588 57.9307 185.996 58.3055 184.811 58.9458C184.811 59.1737 185.186 59.4539 185.936 59.7866C186.309 59.9142 186.496 60.1626 186.496 60.5317L186.12 60.8154H185.84C185.653 60.8154 185.062 60.4406 184.066 59.6909V60.1592C184.066 60.3825 184.097 60.6628 184.158 61C184.158 61.1663 184.002 61.3224 183.69 61.4683C183.312 61.4683 183.094 60.2845 183.037 57.917L182.849 56.2319C182.849 56.0679 183.005 55.9129 183.317 55.7671ZM187.627 55.4868H189.309C189.56 55.6144 189.685 55.7694 189.685 55.9517C189.621 56.2023 189.434 56.3276 189.125 56.3276H187.347C187.258 56.3276 187.165 56.2342 187.067 56.0474C187.067 55.6737 187.254 55.4868 187.627 55.4868ZM188.749 57.6367C189.015 57.6367 189.171 58.571 189.217 60.4395C189.217 60.6058 189.061 60.7619 188.749 60.9077C188.439 60.8211 188.284 60.6024 188.284 60.2515V59.3184C188.284 58.9766 188.252 58.5402 188.188 58.0093C188.252 57.7609 188.439 57.6367 188.749 57.6367Z" fill="black"/>
<path d="M148.596 17.5771V17.709L148.859 17.5771H149.26C149.351 17.5771 149.396 17.6211 149.396 17.709L149.665 17.5771H149.797L149.929 18.3779C149.841 18.7653 149.618 18.9883 149.26 19.0469L148.728 18.915L147.927 19.0469V18.915C147.585 19.0908 146.649 19.2243 145.119 19.3154C145.451 21.721 145.718 22.9238 145.92 22.9238C148.173 22.2988 149.688 21.9863 150.466 21.9863C150.638 22.0775 150.772 22.123 150.866 22.123V22.792C150.515 23.1696 148.955 23.6595 146.188 24.2617V24.3936C146.485 25.3734 146.752 25.9984 146.989 26.2686L150.734 25.5996C151.089 25.6875 151.267 25.9544 151.267 26.4004C151.267 26.931 150.287 27.2435 148.327 27.3379L147.121 27.6016H146.989C146.052 27.6016 145.516 27.1117 145.383 26.1318C144.761 24.0127 144.271 21.874 143.913 19.7158C143.789 19.5368 143.656 19.4473 143.513 19.4473V18.5098C143.565 18.1842 145.17 17.9173 148.327 17.709C148.327 17.6211 148.417 17.5771 148.596 17.5771ZM152.351 20.7949C152.959 20.7949 153.627 21.6852 154.353 23.4658C154.532 23.4658 154.621 23.5993 154.621 23.8662C154.839 23.762 155.419 22.7822 156.359 20.9268L157.023 20.7949C157.29 21.0846 157.424 21.306 157.424 21.459C156.21 24.1315 155.231 25.4678 154.489 25.4678H154.353C153.412 24.2601 152.611 22.8799 151.95 21.3271C152.084 20.9723 152.217 20.7949 152.351 20.7949ZM161.457 19.1787C163.329 19.4847 164.265 20.0202 164.265 20.7852L164.396 21.7227C163.999 22.7904 163.197 23.3242 161.989 23.3242C160.563 23.2363 159.807 23.1468 159.719 23.0557C159.719 23.1468 159.673 23.1924 159.582 23.1924C159.839 24.5303 160.731 25.1992 162.258 25.1992H162.79C163.461 24.7533 163.907 24.5303 164.128 24.5303L164.396 24.9307V25.0625C164.396 26.1335 163.55 26.6689 161.857 26.6689C160.816 26.6689 159.79 26.0895 158.781 24.9307C158.335 23.6904 158.112 22.7985 158.112 22.2549C158.535 20.6501 159.115 19.8477 159.851 19.8477C159.851 19.7077 160.386 19.4847 161.457 19.1787ZM159.719 21.5859C160.067 21.765 160.557 21.8545 161.188 21.8545H162.121C162.421 21.8545 162.733 21.721 163.059 21.4541C163.059 20.9202 162.479 20.6533 161.32 20.6533C160.253 21.0928 159.719 21.4036 159.719 21.5859ZM168.425 21.8594C169.759 22.1751 170.427 22.8441 170.427 23.8662C170.515 24.1396 170.559 24.6735 170.559 25.4678V26C170.52 26.1855 170.298 26.3646 169.895 26.5371C169.449 26.5371 169.226 25.5573 169.226 23.5977L168.288 23.0654C167.562 23.0654 167.074 23.6432 166.823 24.7988C166.66 25.7786 166.438 26.2686 166.154 26.2686H165.754C165.487 26.1807 165.354 25.9137 165.354 25.4678V24.2666C165.354 23.8141 165.264 23.2786 165.085 22.6602C165.257 22.2565 165.435 22.0352 165.617 21.9961H165.886C165.974 21.9961 166.153 22.1735 166.423 22.5283C167.191 22.0824 167.858 21.8594 168.425 21.8594ZM174.05 19.0566L174.45 19.5889V21.3271C174.479 21.5062 174.569 21.5957 174.719 21.5957C174.774 21.5957 175.354 21.5501 176.457 21.459C176.691 21.459 176.913 21.682 177.121 22.1279C177.121 22.6618 176.32 22.9287 174.719 22.9287C174.719 24.2633 175.031 24.9307 175.656 24.9307C176.301 24.8428 176.701 24.7549 176.857 24.667C177.212 24.8005 177.39 24.9339 177.39 25.0674V25.4678C177.39 25.8226 176.812 26.0456 175.656 26.1367C174.23 26.1367 173.518 25.0674 173.518 22.9287H171.647C171.521 22.9287 171.387 22.7952 171.247 22.5283V22.1279C171.247 21.7731 171.914 21.5957 173.249 21.5957V19.8574C173.249 19.3236 173.516 19.0566 174.05 19.0566Z" fill="black"/>
<defs>
<linearGradient id="paint0_linear_254_852" x1="33" y1="1" x2="39" y2="62" gradientUnits="userSpaceOnUse">
<stop stop-color="#9B9B9B"/>
<stop offset="1" stop-color="#CBCBCB"/>
</linearGradient>
</defs>
</svg>
