<svg width="390" height="110" viewBox="0 0 390 110" fill="none" xmlns="http://www.w3.org/2000/svg">
<path d="M338.309 29.1394C338.309 22.6745 339.816 16.244 339.816 9.77734C340.6 8.99339 340.691 8.80802 341.85 8.80802C342.27 8.80802 342.992 8.93546 343.365 8.72777C343.715 8.53369 344.239 8.66383 344.623 8.64751C345.021 8.63057 345.338 8.36556 345.729 8.32649C346.544 8.24498 347.323 7.92631 348.136 7.84495C348.727 7.78587 349.231 7.36342 349.875 7.36342C350.546 7.36342 351.248 7.11688 351.917 7.02456C354.123 6.72036 359.076 6.98402 361.316 7.02438C361.816 7.36342 361.861 8.45521 361.694 9.37873C361.546 10.2042 361.373 10.9513 361.373 11.7864C361.373 12.3227 361.123 12.7376 361.017 13.2488C360.874 13.931 360.892 14.6161 360.892 15.3087C360.892 16.7956 360.731 18.2816 360.731 19.7763C360.731 28.3131 359.731 36.8499 359.731 45.3867C359.731 55.7889 357.892 66.1787 357.892 76.5794C357.892 82.7734 358.208 89.075 357.767 95.2522C357.557 98.1925 357.339 102.141 354.45 103.67C353.606 104.117 352.893 104.789 352.042 105.275C351.123 105.8 350.7 105.917 349.616 105.917C347.1 105.917 344.283 106.22 341.912 105.347C339.376 104.412 334.618 104.122 334.618 100.54V79.433C334.618 76.7736 334.431 74.0072 335.028 71.4074C335.359 69.9645 335.178 68.4715 335.456 67.0201C335.624 66.1429 335.902 65.0528 335.902 64.1755C335.902 62.7831 335.987 61.3064 336.294 59.9487C336.639 58.4199 336.219 56.8557 336.669 55.3206C337.142 53.7037 336.885 51.9367 337.257 50.3091L337.258 50.3072C337.467 49.3913 337.667 48.5145 337.667 47.5715C337.667 44.9886 337.988 42.4064 337.988 39.8045C337.988 38.3057 338.309 36.9216 338.309 35.4172V29.1394Z" fill="white" stroke="black" stroke-width="2.5" stroke-linecap="round"/>
<path d="M53.4445 25.7513C53.3855 21.1565 53.4445 17.8761 53.4445 13.2773C53.4445 11.901 52.212 11.7403 51.5476 11.5742C50.9421 11.4228 50.1895 11.5591 49.5601 11.5591C48.1718 11.5591 46.8093 11.5683 45.434 11.4155C44.8294 11.3484 44.3364 10.933 43.7261 10.811C42.4888 10.5635 41.277 9.81503 40.0987 9.33735C38.7682 8.79796 37.4357 8.33823 36.0481 8.09044C35.078 7.9172 34.1394 8.15845 33.2444 8.15845C32.6197 8.15845 32.2567 8.88105 31.8164 9.27734C31.4339 9.62156 31.3723 10.2458 31.3164 10.7773C31.0883 12.9442 31.3163 15.0987 31.3163 17.2773C31.3163 22.0993 31 45.7833 31 50.5989C31 57.7134 31.5441 64.7673 31.5441 71.8871C31.5441 75.7341 31.4908 79.5321 32.0202 83.3436C32.3605 85.7936 32.528 88.3156 32.7684 90.7797C32.8996 92.1254 32.8091 93.7261 33.1764 95.0117C33.8463 97.3562 33.3586 99.8736 34.0228 102.198C34.4049 103.536 35.1389 104.346 36.1086 105.342C36.5974 105.845 36.9404 106.324 37.5293 106.672C37.9458 106.918 38.2608 107.336 38.6855 107.594C39.1235 107.861 39.5981 107.949 40.0534 108.169C41.932 109.073 44.5081 108.307 46.4013 107.7C47.0869 107.48 47.7877 107.364 48.4795 107.171C49.2619 106.953 49.9273 106.447 50.6937 106.189C51.7141 105.844 52.6378 105.643 53.5049 104.979C54.0667 104.55 54.6388 104.426 54.6687 103.619C54.6858 103.157 54.6687 102.691 54.6687 102.229V92.3289V58.9267C54.6687 56.2408 54.9023 53.4366 54.6385 50.7651C54.5021 49.384 54.5464 48.0113 54.5327 46.6239C54.513 44.6338 54.1246 42.6921 54.1246 40.6991C54.1246 38.5376 54.006 36.4179 53.8854 34.2628L53.8828 34.2152C53.8088 32.8931 53.8704 31.5702 53.7845 30.2477C53.6874 28.7513 53.4637 27.2498 53.4445 25.7513Z" fill="white" stroke="black" stroke-width="2.5" stroke-linecap="round"/>
<path d="M53.7282 95.8932C53.7282 72.1873 53.2939 46.5602 53.408 22.8548C53.9605 21.1976 57.3251 20.3602 59.0976 20.2946C61.3449 20.2114 63.2678 19.0145 65.5693 19.0145C68.5143 19.0145 71.517 18.5385 74.4413 18.2322C78.1279 17.8459 81.8896 17.7244 85.5535 17.2009C92.887 16.1533 100.091 15.6466 107.493 15.2452C116.651 14.7487 125.685 13.3363 134.874 13.2539C145.51 13.1585 156.122 12.6138 166.77 12.6138H306.553C316.861 12.6138 327.579 13.1565 337.667 15.4941C339.983 16.0306 339.516 16.9147 339.516 19.0145C339.516 21.5728 339.054 24.2172 338.805 26.7663C338.377 31.1592 338.765 35.5707 338.236 39.9588C337.346 47.3456 336.064 54.7257 335.996 62.1832C335.928 69.661 335.996 77.1428 335.996 84.6209C335.996 89.9204 336.731 95.9474 335.285 101.12C334.932 102.382 332.776 101.903 331.693 101.903H65.3204C64.0655 101.903 53.8513 102.792 53.7282 101.191C53.5939 99.4466 53.7282 97.6436 53.7282 95.8932Z" fill="white"/>
<path d="M340.927 11.4256C336.739 6.97377 343.871 3.53966 347.816 2.77755C351.517 1.56687 361.732 1.20622 361.815 5.98379C361.907 11.2407 355.014 15.2071 348.957 14.7398C346.264 14.5321 342.609 13.2142 340.927 11.4256Z" fill="white"/>
<path d="M52.2695 15.7731C56.5307 11.3917 50.1229 7.53782 46.1911 6.70998C42.5108 5.43771 31.6378 5.20792 31.4747 9.98343C31.2951 15.2381 38.1212 19.319 44.1851 18.9528C46.8808 18.7901 50.5575 17.5333 52.2695 15.7731Z" fill="white"/>
<path d="M53.7282 95.8932C53.7282 72.1873 53.2939 46.5602 53.408 22.8548C53.9605 21.1976 57.3251 20.3602 59.0976 20.2946C61.3449 20.2114 63.2678 19.0145 65.5693 19.0145C68.5143 19.0145 71.517 18.5385 74.4413 18.2322C78.1279 17.8459 81.8896 17.7244 85.5535 17.2009C92.887 16.1533 100.091 15.6466 107.493 15.2452C116.651 14.7487 125.685 13.3363 134.874 13.2539C145.51 13.1585 156.122 12.6138 166.77 12.6138H306.553C316.861 12.6138 327.579 13.1565 337.667 15.4941C339.983 16.0306 339.516 16.9147 339.516 19.0145C339.516 21.5728 339.054 24.2172 338.805 26.7663C338.377 31.1592 338.765 35.5707 338.236 39.9588C337.346 47.3456 336.064 54.7257 335.996 62.1832C335.928 69.661 335.996 77.1428 335.996 84.6209C335.996 89.9204 336.731 95.9474 335.285 101.12C334.932 102.382 332.776 101.903 331.693 101.903H65.3204C64.0655 101.903 53.8513 102.792 53.7282 101.191C53.5939 99.4466 53.7282 97.6436 53.7282 95.8932Z" stroke="black" stroke-width="2.5" stroke-linecap="round"/>
<path d="M340.927 11.4256C336.739 6.97377 343.871 3.53966 347.816 2.77755C351.517 1.56687 361.732 1.20622 361.815 5.98379C361.907 11.2407 355.014 15.2071 348.957 14.7398C346.264 14.5321 342.609 13.2142 340.927 11.4256Z" stroke="black" stroke-width="2.5" stroke-linecap="round"/>
<path d="M52.2695 15.7731C56.5307 11.3917 50.1229 7.53782 46.1911 6.70998C42.5108 5.43771 31.6378 5.20792 31.4747 9.98343C31.2951 15.2381 38.1212 19.319 44.1851 18.9528C46.8808 18.7901 50.5575 17.5333 52.2695 15.7731Z" stroke="black" stroke-width="2.5" stroke-linecap="round"/>
<path d="M311.239 79.6103C311.147 83.4978 310.938 87.3863 310.938 91.2734C310.938 91.7652 310.909 92.2471 311.048 92.7235C311.089 92.8651 311.137 93.0076 311.151 93.1559C311.16 93.261 311.239 93.3463 311.239 93.4378C311.239 94.5329 313.43 94.5919 314.08 94.6132C316.449 94.6909 318.831 94.618 321.201 94.618C322.862 94.618 324.524 94.618 326.185 94.618C326.596 94.618 326.597 93.9615 326.663 93.6911C326.846 92.9383 327.018 92.1619 327.145 91.3976C327.246 90.7936 327.356 90.1913 327.451 89.5868C327.603 88.6165 327.818 87.6333 327.89 86.6531C327.978 85.4676 328.172 84.3062 328.301 83.1269C328.351 82.6726 328.311 82.1929 328.311 81.7365C328.311 81.136 328.311 80.5356 328.311 79.9352C328.311 79.6272 328.369 79.2497 328.301 78.9461C328.239 78.6642 327.883 78.6174 327.628 78.5782C326.324 78.3776 325.026 78.4062 323.7 78.4062C320.041 78.4062 316.382 78.4062 312.723 78.4062C312.369 78.4062 312.062 78.5352 311.712 78.5352C311.59 78.5352 311.422 78.5473 311.306 78.5806C311.259 78.594 311.215 78.7177 311.153 78.7502C311.002 78.8301 311.024 78.8423 311.024 79.0321C311.024 79.2105 311.024 79.3889 311.024 79.5673" stroke="#FF0000" stroke-width="2.5" stroke-linecap="round"/>
<path d="M313.354 81.2847C313.622 81.5017 313.917 81.7088 314.138 81.9762C314.179 82.0262 314.22 82.072 314.271 82.1125" stroke="#FF0000" stroke-width="2.5" stroke-linecap="round"/>
<path d="M311.669 84.8623C312.138 84.4916 312.654 84.1874 313.163 83.8743C314.01 83.3528 314.82 82.7722 315.67 82.2563C316.032 82.0367 316.416 81.8472 316.759 81.5985C316.864 81.5227 316.967 81.4478 317.08 81.3849C317.114 81.3661 317.131 81.3585 317.153 81.3291" stroke="#FF0000" stroke-width="2.5" stroke-linecap="round"/>
<path d="M313.384 84.064C313.395 84.5238 313.492 85.085 313.84 85.4208C313.972 85.548 314.143 85.6744 314.309 85.7542C314.473 85.8336 314.674 85.8269 314.852 85.8224C314.988 85.819 315.08 85.7703 315.196 85.705C315.337 85.6257 315.483 85.5543 315.629 85.4849C315.84 85.3844 316.063 85.3647 316.26 85.2319C316.403 85.1349 316.597 84.9587 316.618 84.7769C316.645 84.5428 316.642 84.2708 316.533 84.0575C316.455 83.9047 316.385 83.7529 316.288 83.6091C316.206 83.4873 316.117 83.3673 316.03 83.251" stroke="#FF0000" stroke-width="2.5" stroke-linecap="round"/>
<path d="M312.911 89.9476C313.08 89.8392 313.277 89.7506 313.461 89.6717C314.043 89.422 314.639 89.2058 315.224 88.9629C315.786 88.7297 316.303 88.4399 316.828 88.1351C317.336 87.8401 317.855 87.567 318.371 87.2867C318.573 87.1769 318.764 87.0565 318.952 86.9253C319.171 86.7725 319.413 86.6485 319.649 86.5237C319.886 86.3983 320.12 86.2684 320.349 86.1287C320.46 86.0612 320.568 85.9923 320.687 85.9414" stroke="#FF0000" stroke-width="2.5" stroke-linecap="round"/>
<path d="M317.567 91.056C317.625 90.9164 317.727 90.8331 317.856 90.7554C318.116 90.5994 318.408 90.4824 318.691 90.3777C318.953 90.2807 319.217 90.1903 319.484 90.1099C319.587 90.0791 319.72 90.0597 319.811 89.9999C319.891 89.9475 319.894 90.1236 319.906 90.1756C319.951 90.3635 319.983 90.5531 320.021 90.7423C320.051 90.8871 320.111 91.0179 320.148 91.1595C320.178 91.2745 320.195 91.3852 320.234 91.4979C320.261 91.5751 320.238 91.6686 320.251 91.7492C320.268 91.8613 320.266 91.9687 320.302 92.0761" stroke="#FF0000" stroke-width="2.5" stroke-linecap="round"/>
<path d="M319.962 89.5041C320.058 89.3697 320.251 89.2866 320.389 89.2068C320.662 89.0492 320.94 88.8971 321.224 88.76C321.629 88.5642 322.064 88.4045 322.487 88.2508C322.707 88.171 323.032 88.0247 323.223 88.2369C323.349 88.3769 323.467 88.5324 323.553 88.7009C323.629 88.8504 323.66 89.0163 323.703 89.1772C323.771 89.4373 323.791 89.6858 323.791 89.9542C323.791 90.1589 323.791 90.3637 323.791 90.5685" stroke="#FF0000" stroke-width="2.5" stroke-linecap="round"/>
<path d="M322.49 81.9941C322.665 82.2932 322.858 82.5813 323.062 82.8614C323.203 83.056 323.363 83.2341 323.514 83.4215C323.727 83.6874 323.914 83.9732 324.116 84.2469C324.546 84.8272 324.952 85.4224 325.366 86.0135C325.688 86.4716 326.049 86.9014 326.365 87.3629C326.542 87.6214 326.709 87.8763 326.901 88.1234C327.033 88.2922 327.117 88.4921 327.255 88.6564C327.306 88.7168 327.345 88.7766 327.383 88.8453C327.399 88.8723 327.416 88.9139 327.443 88.9274" stroke="#FF0000" stroke-width="2.5" stroke-linecap="round"/>
</svg>
