<svg width="390" height="373" viewBox="0 0 390 373" fill="none" xmlns="http://www.w3.org/2000/svg">
<path d="M224.546 271.327C223.246 270.147 -5.06931 152.018 -6.49509 151.003C-8.19393 156.967 -4.76591 304.546 -6.4951 310.503C-3.19894 310.15 209.454 274.098 212.758 273.823C216.816 273.485 220.845 273.209 224.916 273.374C225.797 273.409 227.447 273.817 226.142 272.848C225.548 272.406 225.094 271.824 224.546 271.327Z" fill="#FFFF00" stroke="black" stroke-width="2" stroke-linecap="round"/>
<path d="M215.639 250.573C215.168 245.013 215.497 241.89 216.017 236.337C216.111 235.325 218.718 238.757 219.826 240.382C220.93 242.001 223.343 243.329 224.859 244.565C227.634 246.828 229.254 250.589 233.023 250.206C233.497 250.019 236.998 248.002 240.049 247.177C241.628 246.332 243.053 245.871 244.151 245.167C246.191 243.858 248.296 243.599 250.593 243.069C251.334 242.898 252.467 242.273 252.487 243.383C252.511 244.667 252.16 245.86 251.752 247.065C250.328 251.271 248.989 255.497 247.612 259.717C246.962 261.709 245.057 263.735 246.721 265.579C247.53 266.476 247.949 267.617 248.571 268.632C249.467 270.093 250.464 271.453 251.152 273.043C252.9 277.084 255.614 280.734 257.483 284.697C258.441 286.729 258.81 288.102 256.607 288.576C256.365 288.628 255.461 288.084 255.188 287.966C254.646 287.733 254.247 287.531 253.722 287.103L249.413 283.589C248.35 282.722 246.77 281.525 245.529 280.969C245.142 280.796 241.185 278.331 242.051 279.697C243.593 282.13 243.897 285.203 245.103 287.796C246.36 290.5 247.092 293.316 247.975 296.14C249.256 300.237 251.018 304.383 251.886 308.556C252.442 311.231 253.48 314.005 254.361 316.595C255.121 318.829 255.528 321.359 256.568 323.478C257.692 325.766 257.905 328.407 258.861 330.782C259.766 333.029 260.676 335.432 261.232 337.798C261.765 340.063 262.953 348.334 258.822 347.562C255.479 346.937 256.989 343.934 255.168 342.119C254.192 341.146 254.284 338.471 253.808 337.218C252.124 332.776 251.22 328.112 249.795 323.584C247.824 317.317 246.025 311.082 243.638 304.958C241.636 299.82 240.344 294.306 237.979 289.317C236.708 286.637 235.608 282.972 232.847 281.418C231.99 280.936 230.826 283.082 230.409 283.593C227.641 286.987 224.659 290.212 221.906 293.588L218.411 297.874C217.871 298.536 217.114 300.078 217.286 298.559C217.591 295.866 217.336 292.919 217.447 290.187C217.542 287.841 217.681 285.454 217.859 283.114C217.933 282.141 218.632 280.304 217.712 279.554C216.225 278.341 213.586 277.567 211.751 277.155C209.245 276.594 206.265 275.729 204.02 274.506C202.69 273.782 201.51 272.707 200.357 271.734C199.795 271.26 200.151 271.076 200.543 270.596L202.582 268.095C203.239 267.29 203.884 267.346 204.796 266.89C206.555 266.01 208.93 265.697 210.48 264.495C212.321 263.066 215.745 262.045 217.243 260.208C219.166 257.85 215.881 253.424 215.639 250.573Z" fill="#FF00E5" stroke="black" stroke-width="2.5" stroke-linecap="round"/>
<path d="M306.695 292.372C307.079 292.4 307.697 292.343 307.929 292.723C307.821 294.353 307.107 296.023 306.327 297.464C306.061 297.956 305.886 298.539 305.585 299.017C305.201 299.627 304.846 300.142 304.714 300.866C304.585 301.571 304.272 302.208 303.934 302.841C303.641 303.391 303.497 304.006 303.25 304.578C303.08 304.973 302.977 305.356 302.773 305.749C302.648 305.991 302.539 306.587 302.261 306.703C301.782 306.904 300.925 306.603 300.418 306.641C299.106 306.739 297.871 306.702 296.556 306.615C294.76 306.496 292.967 306.635 291.171 306.607C289.587 306.583 287.994 306.407 286.414 306.302C284.621 306.183 282.825 306.154 281.031 306.035L269.65 305.281L258.433 304.538C255.763 304.361 253.184 303.811 250.577 303.249C248.425 302.784 246.266 302.35 244.119 301.862C242.395 301.471 240.715 300.763 239.177 299.908C238.35 299.447 237.798 299.016 237.257 298.233C236.517 297.162 236.366 295.681 236.834 294.441C237.384 292.984 238.992 291.786 240.383 291.202C241.419 290.767 242.579 290.605 243.689 290.423C247.169 289.853 250.753 290.127 254.256 290.205C266.555 290.478 278.842 289.215 291.103 290.754C293.744 291.086 296.402 291.217 299.04 291.575C300.609 291.787 302.163 292.06 303.743 292.176C304.726 292.248 305.711 292.3 306.695 292.372Z" fill="#AFAFAF" stroke="black" stroke-width="2.5" stroke-linecap="round"/>
<path d="M288.517 307.386C288.187 305.106 287.757 302.88 287.757 300.565C288.246 300.239 331.107 285.575 331.556 285.126C332.375 284.306 332.992 283.309 333.798 282.466C335.323 280.872 336.902 279.251 338.766 278.101C341.423 276.461 344.168 274.963 346.865 273.393C348.05 272.704 349.196 271.38 350.506 271.008C354.506 269.008 357.172 268.071 361.006 268.508C361.096 268.493 363.094 269.174 363.006 269.508C364.006 270.008 363.404 271.254 362.963 271.808C359.031 276.758 354.828 281.508 350.285 285.913C347.585 288.532 344.971 291.237 342.083 293.652C339.785 295.573 337.767 297.822 335.457 299.713C334.101 300.822 332.622 301.852 331.166 302.827C330.994 302.942 328.864 304.287 328.896 304.319C329.323 304.746 329.449 305.269 329.813 305.737C330.596 306.743 331.468 307.986 332.019 309.138C333.598 312.438 335.605 315.586 337.561 318.693C339.042 321.046 340.498 323.411 341.972 325.745C342.689 326.88 343.771 330.673 344.029 332.008C344.341 333.619 337.561 333.508 302.029 323.008C299.029 322.121 290.766 322.162 290.529 321.008C290.061 318.722 290.03 318.99 289.759 316.672C289.396 313.569 288.966 310.477 288.517 307.386Z" fill="#AFAFAF" stroke="black" stroke-width="2.5" stroke-linecap="round"/>
<path d="M281.089 252.475C281.332 253.213 281.948 256.486 283.207 256.626C280.4 257.33 278.59 262.071 277.476 264.305C275.339 268.593 276.213 274.547 276.213 279.233C276.213 284.567 277.256 288.754 280.584 293.11C283.217 296.554 285.262 299.204 288.996 301.529C293.075 304.069 296.762 304.335 301.428 304.335C304.825 304.335 308.538 304.748 311.919 304.296C314.083 304.007 316.435 302.985 318.446 302.152C320.909 301.132 322.964 299.967 324.895 298.099C326.717 296.336 327.385 294.739 328.367 292.389L328.367 292.389L328.392 292.33C330.896 286.34 331.461 280.603 331.461 274.147C331.461 270.988 331.975 266.614 329.538 264.168C328.61 263.238 327.871 262.077 326.993 261.109C326.295 260.338 325.033 258.909 324.545 258.029C323.848 256.769 321.886 254.665 320.621 253.82C320.621 242.717 320.862 230.539 320.621 219.441C320.517 214.606 318.291 210.261 317.552 205.565L317.546 205.524C317.345 204.248 316.951 201.745 315.376 201.57C313.856 201.4 312.405 201.746 310.908 201.901C309.569 202.04 308.773 205.568 308.383 206.481C305.092 214.185 303.138 223.066 303.138 231.466V243.413C303.138 244.149 303.631 248.942 302.594 249.24C300.999 249.697 298.534 249.349 296.902 249.24C295.67 249.157 295.508 248.919 295.445 247.856C295.387 246.862 294.672 244.943 294.319 243.919C293.492 241.524 293.756 238.826 293.134 236.397C292.365 233.4 291.406 230.437 290.628 227.432C289.643 223.634 289.39 219.647 288.452 215.816C287.408 211.552 286.525 207.265 285.344 203.031C284.827 201.181 284.058 196.64 282.08 195.743C278.554 194.142 275.065 201.168 274.271 203.421C272.925 207.241 273.766 212.309 273.766 216.303C273.766 221.703 274.193 226.694 275.242 231.992C276.612 238.909 278.892 245.776 281.089 252.475Z" fill="#AFAFAF" stroke="black" stroke-width="2.5" stroke-linecap="round"/>
<path d="M283.506 275.508C283.347 274.439 284.31 272.432 284.985 271.617C285.49 271.119 285.921 270.403 286.506 270.008C287.002 269.673 287.501 269.318 288.006 269.008C288.201 268.888 288.796 268.618 289.006 268.508C289.628 268.183 290.319 268.051 291.006 268.008C292.006 268.008 292.006 268.008 293.006 268.508C293.7 268.615 294.404 269.033 295.047 269.331C296.037 269.79 296.849 270.755 297.592 271.53C298.396 272.37 298.943 273.558 299.154 274.702C299.229 275.107 299.162 275.596 299.154 276.008C299.143 276.626 299.015 277.22 298.722 277.751C298.319 278.479 298.092 279.43 297.506 280.008C297.022 280.486 296.542 281.087 296.006 281.508C294.925 282.356 293.33 282.657 292.011 283.067C291.093 283.352 290.271 283.439 289.006 283.008C287.581 282.522 286.201 281.858 285.23 280.716C284.449 279.796 283.731 279.008 283.506 277.585C283.257 276.9 283.614 276.232 283.506 275.508Z" fill="white" stroke="black" stroke-width="2.5" stroke-linecap="round"/>
<path d="M308.242 266.277C309.015 265.562 310.914 264.894 312.02 264.58C313.414 264.395 314.006 264.508 315.249 264.625C316.506 265.008 318.186 264.58 320.475 268.008C322.506 272.008 321.849 272.505 321.672 273.983C321.508 275.359 321.215 276.745 320.475 277.929C319.881 278.88 319.071 279.727 318.186 280.414C317.118 281.244 315.901 281.314 314.601 281.314C313.092 281.314 311.698 280.909 310.284 280.414C309.152 280.018 308.098 279.46 307.253 278.595C306.271 277.59 305.87 276.078 305.598 274.732C305.459 274.041 305.51 273.297 305.544 272.596C305.571 272.036 305.575 271.515 305.722 270.969C306.059 269.723 306.609 268.496 307.322 267.419C307.589 267.015 307.885 266.606 308.242 266.277Z" fill="white" stroke="black" stroke-width="2.5" stroke-linecap="round"/>
<path d="M291.018 269.218C291.275 269.389 291.538 269.551 291.73 269.797C291.813 269.904 291.892 270.014 291.97 270.124C292.063 270.256 292.132 270.401 292.208 270.542C292.3 270.711 292.377 270.887 292.44 271.069C292.512 271.277 292.608 271.478 292.658 271.694C292.768 272.169 292.742 272.665 292.735 273.15C292.731 273.459 292.638 273.767 292.572 274.068C292.493 274.424 292.377 274.775 292.261 275.122C292.126 275.524 291.9 275.903 291.57 276.169C291.352 276.344 291.123 276.502 290.9 276.671C290.671 276.844 290.435 277.019 290.173 277.141C289.684 277.369 289.167 277.513 288.656 277.682C288.266 277.81 287.868 277.875 287.463 277.943C287.037 278.014 286.615 278.104 286.182 278.127C286.004 278.136 285.824 278.131 285.646 278.131C285.573 278.131 285.513 278.111 285.503 278.202C285.481 278.393 285.558 278.581 285.65 278.742C285.872 279.131 286.104 279.509 286.386 279.855C287.019 280.633 287.741 281.503 288.692 281.898C288.9 281.984 289.138 282.039 289.36 282.068C289.572 282.096 289.757 282.157 289.96 282.225C290.005 282.24 290.042 282.257 290.082 282.277C290.082 282.277 290.041 282.034 290.037 282.016C289.956 281.693 289.894 281.369 289.894 281.034C289.894 280.514 290.051 280.021 290.166 279.519C290.307 278.903 290.432 278.278 290.614 277.672C290.767 277.164 290.913 276.66 291.243 276.235C291.549 275.84 291.94 275.579 292.399 275.387C292.967 275.15 293.583 275.152 294.18 275.044C294.734 274.944 295.306 274.935 295.868 274.942C296.023 274.944 296.148 274.998 296.288 275.06C296.47 275.141 296.658 275.209 296.84 275.29C296.868 275.302 297.145 275.455 297.167 275.428C297.218 275.367 297.177 275.054 297.163 274.978C297.046 274.354 296.488 273.885 296.061 273.463C295.821 273.226 295.566 272.986 295.377 272.707C295.22 272.474 295.101 272.214 294.939 271.982C294.921 271.956 294.77 271.696 294.727 271.721C294.698 271.738 294.693 271.779 294.677 271.81C294.609 271.948 294.539 272.086 294.462 272.22C294.324 272.458 294.166 272.684 294.007 272.909C293.77 273.246 293.587 273.595 293.38 273.949C293.118 274.4 292.824 274.832 292.531 275.262C292.18 275.778 291.858 276.31 291.488 276.814C291.143 277.284 290.759 277.731 290.373 278.168C290.048 278.536 289.734 278.901 289.348 279.208C289.107 279.4 288.91 279.641 288.66 279.824C288.471 279.961 288.33 280.148 288.151 280.298C287.988 280.436 287.853 280.605 287.706 280.759C287.669 280.799 287.584 281.019 287.708 280.95C287.887 280.851 288.06 280.72 288.217 280.589C288.263 280.551 288.32 280.52 288.34 280.462" stroke="black" stroke-width="2.5" stroke-linecap="round"/>
<path d="M313.696 264.901C314.229 265.48 314.733 266.003 315.001 266.746C315.103 267.029 315.177 267.306 315.209 267.606C315.271 268.185 315.234 268.788 315.072 269.346C314.832 270.169 314.474 270.952 313.864 271.562C313.531 271.895 313.145 272.167 312.743 272.412C312.26 272.706 311.735 273.02 311.201 273.21C310.434 273.483 309.677 273.707 308.878 273.869C308.547 273.936 308.223 274.055 307.885 274.083C307.757 274.094 307.634 274.106 307.508 274.13C307.443 274.141 307.35 274.126 307.29 274.151C307.061 274.249 308.158 276 308.251 276.167C308.535 276.675 308.732 277.234 308.943 277.775C309.013 277.955 309.084 278.135 309.139 278.32C309.146 278.342 309.144 278.191 309.144 278.167C309.144 277.386 309.079 276.578 309.17 275.803C309.179 275.723 309.332 276.19 309.344 276.239C309.492 276.839 309.621 277.442 309.776 278.04C309.882 278.449 310.018 278.815 310.171 279.199C310.297 279.514 310.597 279.762 310.831 279.996C310.956 280.121 311.001 279.74 311.019 279.664C311.102 279.31 311.253 278.973 311.377 278.631C311.573 278.088 311.746 277.539 311.997 277.016C312.136 276.726 312.221 276.414 312.351 276.12C312.467 275.862 312.601 275.605 312.726 275.351C313.03 274.734 313.322 274.092 313.693 273.513C314.013 273.013 314.39 272.568 314.877 272.223C315.571 271.733 316.389 271.543 317.228 271.511C317.613 271.496 318.002 271.504 318.387 271.508C318.61 271.51 318.802 271.531 319.004 271.619C319.271 271.735 319.57 271.882 319.789 272.075C319.899 272.173 320.083 272.274 320.219 272.334C320.305 272.373 320.3 271.983 320.301 271.935C320.312 271.584 320.342 271.194 320.27 270.849C320.168 270.355 319.956 269.904 319.754 269.445C319.47 268.799 319.144 268.131 318.751 267.545C318.578 267.287 318.39 267.055 318.165 266.843C318.065 266.748 317.927 266.564 317.792 266.514C317.641 266.459 317.56 267.242 317.555 267.316C317.506 267.921 317.5 268.527 317.477 269.133C317.465 269.459 317.416 269.788 317.416 270.114C317.416 270.203 317.388 270.265 317.345 270.344C317.222 270.567 317.011 270.693 316.793 270.814C316.31 271.082 315.806 271.298 315.3 271.514C314.771 271.74 314.267 271.951 313.846 272.342C313.405 272.751 313.035 273.248 312.629 273.692C312.452 273.885 312.265 274.069 312.085 274.259C311.869 274.486 311.7 274.724 311.451 274.919C311.272 275.059 311.11 275.22 310.92 275.345C310.801 275.423 310.645 275.523 310.559 275.638C310.499 275.718 310.365 275.908 310.282 275.949" stroke="black" stroke-width="2.5" stroke-linecap="round"/>
<path d="M275.058 193.246C275.27 192.844 275.506 192.008 276.377 191.488C277.247 190.968 277.869 191.268 278.598 191.268H280.636C281.277 191.268 282.611 191.241 283.077 191.708C283.745 192.376 284.644 192.97 285.213 193.746C286.304 195.233 287.532 196.641 288.564 198.189C288.778 198.511 288.923 199.025 289.034 199.397C289.139 199.751 289.392 200.039 289.51 200.386C289.83 201.33 290.226 202.247 290.547 203.193C292.44 208.768 293.047 214.687 293.568 220.519C293.882 224.039 294.062 227.596 294.062 231.131C294.062 232.312 290.531 232.098 289.772 232.193C288.015 232.413 286.25 232.352 284.481 232.352C281.627 232.352 278.814 232.299 275.968 232.132C275.28 232.092 272.964 232.127 272.617 231.473C272.474 231.202 272.322 230.965 272.312 230.594C272.152 224.827 272.202 219.044 272.202 213.269C272.202 209.401 271.946 205.45 272.477 201.618C272.78 199.43 273.58 197.517 274.204 195.418C274.431 194.655 274.688 193.947 275.058 193.246Z" fill="#6C11A4" stroke="black" stroke-width="2.5" stroke-linecap="round"/>
<path d="M307.781 199.958C307.938 199.779 310.708 196.574 310.979 196.98L311.992 196.98C312.292 196.98 312.963 196.993 313.237 197.115C314.033 197.469 314.685 198.331 315.287 198.933C316.105 199.751 316.787 200.58 317.374 201.594C317.508 201.825 317.77 201.954 317.899 202.192C318.063 202.494 318.14 202.79 318.253 203.107C318.443 203.64 318.719 204.33 319.004 204.828C319.365 205.461 319.415 206.115 319.596 206.812C319.826 207.701 319.972 208.61 320.157 209.509C320.56 211.468 320.859 213.44 321.219 215.398C321.402 216.392 321.726 217.491 321.744 218.499C321.761 219.461 321.66 220.548 321.964 221.477C322.397 222.804 322.513 224.595 322.513 225.987V228.452C322.513 229.032 322.775 230.064 322.177 230.326C320.999 230.841 319.877 231.042 318.662 231.418C315.031 232.542 311.075 232.352 307.323 232.352H304.449C303.482 232.352 302.495 232.635 301.55 232.602C301.224 232.591 301.266 231.571 301.202 231.363C300.937 230.503 300.982 229.382 300.982 228.483V225.077C300.982 221.737 301.524 218.377 302.301 215.142C302.834 212.917 303.089 210.654 303.942 208.521C304.505 207.113 304.963 205.598 305.443 204.157C305.916 202.74 306.807 201.072 307.781 199.958Z" fill="#6C11A4" stroke="black" stroke-width="2.5" stroke-linecap="round"/>
<circle cx="277.506" cy="189.508" r="4.75" fill="#FFFF00" stroke="black" stroke-width="2.5"/>
<circle cx="313.506" cy="196.508" r="4.75" fill="#FFFF00" stroke="black" stroke-width="2.5"/>
<path d="M304.451 215.042C304.216 214.479 303.31 213.725 302.872 213.288C302.664 213.6 302.763 214.116 302.763 214.473C302.763 215.326 302.777 216.18 302.763 217.033C302.746 218.109 302.396 219.157 302.219 220.209C301.911 222.035 302.013 223.888 301.674 225.703C301.542 226.411 301.62 227.181 301.62 227.899C301.62 228.022 301.502 228.826 301.783 228.686C302.048 228.553 302.247 228.248 302.503 228.087C302.887 227.845 303.15 227.46 303.538 227.216C304.4 226.672 305.066 225.891 305.788 225.183C305.984 224.991 306.199 225.011 306.387 225.189C306.669 225.454 307.133 225.486 307.458 225.715C307.65 225.851 307.835 225.979 308.045 226.084C308.269 226.196 308.43 226.392 308.644 226.508C308.928 226.661 309.392 226.656 309.709 226.738C310.168 226.856 310.594 227.011 311.016 227.228C311.086 227.264 311.558 227.561 311.488 227.421C311.412 227.269 311.401 227.084 311.312 226.943C311.195 226.757 311.116 226.547 311.034 226.344C310.764 225.683 310.37 225.071 310.03 224.445C309.691 223.823 309.349 223.2 309.001 222.584C308.829 222.28 308.549 221.998 308.493 221.643C308.447 221.356 308.691 221.139 308.862 220.923C310.103 219.354 311.628 217.935 312.631 216.174C312.871 215.753 313.055 215.423 313.055 214.93C313.055 214.832 313.125 214.466 312.946 214.498C312.615 214.556 312.328 214.672 311.984 214.715C310.275 214.932 308.578 215.495 307.095 216.367C306.599 216.659 306.135 216.963 305.716 217.356C305.556 217.506 305.606 217.459 305.486 217.384C305.367 217.309 305.31 217.027 305.256 216.909C304.974 216.292 304.712 215.668 304.451 215.042Z" fill="#FFFF00" stroke="black" stroke-width="2.5" stroke-linecap="round"/>
<path d="M288.551 201.501C288.739 201.132 288.935 200.347 289.37 200.215C289.967 202.655 290.567 205.094 291.161 207.535C291.231 207.823 291.312 208.12 291.367 208.414C291.445 208.836 291.502 209.265 291.571 209.689C291.663 210.254 291.696 210.826 291.785 211.39C291.838 211.726 291.823 212.066 291.823 212.405V213.095C291.823 213.275 291.77 213.553 291.873 213.707C291.579 213.707 290.85 212.903 290.587 212.764C290.281 212.603 290.064 212.525 289.722 212.525C289.581 212.525 289.505 212.637 289.398 212.713C289.004 212.993 288.658 213.365 288.291 213.681C287.771 214.128 287.292 214.555 286.73 214.952C286.259 215.284 285.859 215.802 285.362 216.083C285.333 216.1 285.385 215.389 285.39 215.327C285.437 214.737 285.55 214.153 285.556 213.548C285.564 212.791 285.728 211.737 285.39 211.031C285.078 210.382 284.524 209.903 284.019 209.409C283.668 209.066 283.248 208.788 282.882 208.459C282.177 207.827 281.567 207.09 281.006 206.33C280.919 206.212 280.519 205.641 280.825 205.607C281.19 205.566 281.545 205.562 281.914 205.552C282.624 205.532 283.334 205.445 284.043 205.404C284.737 205.363 285.433 205.384 286.128 205.34C286.341 205.327 286.611 205.392 286.784 205.229C287.241 204.796 287.405 203.993 287.646 203.438C287.933 202.78 288.225 202.141 288.551 201.501Z" fill="#FFFF00" stroke="black" stroke-width="2.5" stroke-linecap="round"/>
<path d="M273.649 220.857C273.415 220.877 272.762 220.736 272.526 220.736C272.334 223.566 272.506 226.671 272.506 229.508L272.506 231.008C272.506 231.132 272.834 231.493 273.007 231.508C273.524 231.551 273.217 231.293 273.736 231.351C275.119 231.505 276.534 231.471 277.924 231.471C279.127 231.471 280.33 231.466 281.533 231.471C282.147 231.473 282.753 231.576 283.365 231.576C283.365 231.008 283.006 230.508 282.153 229.95C281.953 229.728 281.8 229.366 281.569 229.188C281.181 228.889 280.896 228.449 280.549 228.102C279.815 227.368 278.953 226.607 278.544 225.63C278.361 225.195 278.541 224.863 278.749 224.493C279.164 223.759 279.662 223.071 280.129 222.369C280.616 221.637 281.283 220.85 281.599 220.016C281.656 219.865 281.635 219.689 281.635 219.532C281.635 219.373 281.346 219.461 281.26 219.474C279.728 219.7 278.226 220.136 276.704 220.421C275.693 220.611 274.674 220.768 273.649 220.857Z" fill="#FFFF00" stroke="black" stroke-width="2.5" stroke-linecap="round"/>
<path d="M308.199 287.307C307.737 287.617 307.252 287.885 306.772 288.159C306.879 288.228 307.226 289.168 307.253 289.304L307.253 289.306C307.31 289.602 307.365 289.883 307.52 290.155C307.722 290.509 308.271 291.026 308.677 291.098C309.347 291.217 310.124 291.333 310.801 291.253C311.49 291.172 312.125 290.94 312.659 290.498C312.997 290.217 313.127 289.774 313.248 289.362C313.429 288.742 313.426 288.026 313.495 287.384C313.561 286.765 313.642 286.127 313.329 285.558C313.125 285.188 312.929 284.544 312.412 284.616C312.089 284.661 311.704 284.88 311.419 285.032C310.534 285.906 309.287 286.58 308.199 287.307Z" fill="white"/>
<path d="M301.71 288.472C302.16 288.521 302.61 288.569 303.061 288.617C303.916 288.709 304.782 288.792 305.64 288.678C305.807 288.656 305.982 288.63 306.125 288.542C306.808 288.119 307.527 287.757 308.199 287.307C309.287 286.58 310.534 285.906 311.419 285.032C311.704 284.88 312.089 284.661 312.412 284.616C312.929 284.544 313.125 285.188 313.329 285.558C313.642 286.127 313.561 286.765 313.495 287.384C313.426 288.026 313.429 288.742 313.248 289.362C313.127 289.774 312.997 290.217 312.659 290.498C312.125 290.94 311.49 291.172 310.801 291.253C310.124 291.333 309.347 291.217 308.677 291.098C308.271 291.026 307.722 290.509 307.52 290.155C307.365 289.883 307.31 289.601 307.253 289.304C307.226 289.168 306.879 288.228 306.772 288.159" stroke="black" stroke-width="2.5" stroke-linecap="round"/>
<path d="M350.03 330.974C358.37 333.53 367.367 333.205 376.013 333.183C374.259 333.213 372.179 333.869 370.467 334.285C368.602 334.739 366.79 335.336 365.025 336.093C363.146 336.898 361.62 338.108 360.191 339.537C359.142 340.586 357.614 341.3 356.69 342.429C355.374 344.038 353.855 345.159 352.085 346.197C350.87 346.91 348.907 346.54 347.537 346.54C346.445 346.54 345.621 346.207 345.044 345.17C344.195 343.64 343.322 343.799 341.676 343.799C337.353 343.799 330.061 342.939 327.424 347.301C326.051 349.571 324.444 351.528 323.371 353.942C322.431 356.057 322.744 357.5 320.307 357.5C315.799 357.5 313.587 356.15 309.195 355.574C307.721 355.381 306.213 354.587 307.465 352.979C308.558 351.574 305.579 349.759 305.579 348.062C303.477 352.867 300.641 358.361 298.729 363.247C298.29 364.369 297.829 365.822 297.701 367.014C297.615 367.819 296.02 367.411 295.494 367.357C290.017 366.797 284.41 365.378 278.901 365.378C277.515 365.378 277.766 363.177 277.15 362.219C276.014 360.451 274.758 358.804 273.402 357.177C271.679 355.109 270.051 352.409 267.56 351.164C265.882 350.324 265.505 350.462 265.505 348.595C265.505 347.582 265.534 345.87 266.019 344.998C266.381 344.346 266.835 342.451 266.875 341.744C266.995 339.65 267.613 337.519 268.169 335.503C268.558 334.091 268.236 332.952 269.082 331.621C269.6 330.808 269.32 330.441 270.471 330.441C271.258 330.441 272.027 330.272 272.774 330.023C274.624 329.406 276.225 329.071 278.178 329.071C282.364 329.071 285.447 330.009 286.474 325.151C287.2 321.723 288.508 318.739 292.069 318.092C298.046 317.005 304.896 317.768 310.983 317.768C313.894 317.768 316.748 317.943 319.622 318.377C321.805 318.707 324.37 318.807 326.435 319.652C330.533 321.329 334.684 322.865 338.803 324.466C342.894 326.057 345.822 329.685 350.03 330.974Z" fill="white"/>
<path d="M376.822 333.181C367.93 333.181 358.63 333.61 350.03 330.974C345.822 329.685 342.894 326.057 338.803 324.466C334.684 322.865 330.533 321.329 326.435 319.652C324.37 318.807 321.805 318.707 319.622 318.377C316.748 317.943 313.894 317.768 310.983 317.768C304.896 317.768 298.046 317.005 292.069 318.092C288.508 318.739 287.2 321.723 286.474 325.151C285.447 330.009 282.364 329.071 278.178 329.071C276.225 329.071 274.624 329.406 272.774 330.023C272.027 330.272 271.258 330.441 270.471 330.441C269.32 330.441 269.6 330.808 269.082 331.621C268.236 332.952 268.558 334.091 268.169 335.503C267.613 337.519 266.995 339.65 266.875 341.744C266.835 342.451 266.381 344.346 266.019 344.998C265.534 345.87 265.505 347.582 265.505 348.595C265.505 350.462 265.882 350.324 267.56 351.164C270.051 352.409 271.679 355.109 273.402 357.177C274.758 358.804 276.014 360.451 277.15 362.219C277.766 363.177 277.515 365.378 278.901 365.378C284.41 365.378 290.017 366.797 295.494 367.357C296.02 367.411 297.615 367.819 297.701 367.014C297.829 365.822 298.29 364.369 298.729 363.247C300.641 358.361 303.477 352.867 305.579 348.062M305.579 348.062C305.579 346.122 305.243 344.775 304.913 342.962C304.722 341.911 303.577 342.744 302.839 342.353C301.843 342.353 291.333 339.689 290.337 339.689C288.6 339.689 288.603 343.402 287.94 344.656C286.992 346.447 286.311 348.193 285.18 349.889M305.579 348.062C305.579 349.759 308.558 351.574 307.465 352.979C306.213 354.587 307.721 355.381 309.195 355.574C313.587 356.15 315.799 357.5 320.307 357.5C322.744 357.5 322.431 356.057 323.371 353.942C324.444 351.528 326.051 349.571 327.424 347.301C330.061 342.939 337.353 343.799 341.676 343.799C343.322 343.799 344.195 343.64 345.044 345.17C345.621 346.207 346.445 346.54 347.537 346.54C348.907 346.54 350.87 346.91 352.085 346.197C353.855 345.159 355.374 344.038 356.69 342.429C357.614 341.3 359.142 340.586 360.191 339.537C361.62 338.108 363.146 336.898 365.025 336.093C366.79 335.336 368.602 334.739 370.467 334.285C372.22 333.859 374.358 333.181 376.137 333.181" stroke="black" stroke-width="2.1866" stroke-linecap="round"/>
<path d="M282.606 51.0044C282.606 51.0044 397.078 6.27963 399.606 3.00472C401.305 8.96881 397.877 106.599 399.606 112.556C392.575 112.595 267.228 108.793 260.199 108.745C255.019 108.212 195.22 105.824 190.041 105.269C186.745 104.916 183.444 104.595 180.14 104.319C176.082 103.981 172.054 103.706 167.982 103.87C167.101 103.906 165.451 104.314 166.756 103.344C167.35 102.903 167.804 102.321 168.352 101.824C169.653 100.643 171.144 99.7432 172.57 98.7286C174.342 97.4677 280.885 52.3327 282.606 51.0044Z" fill="#FFFF00" stroke="black" stroke-width="2" stroke-linecap="round"/>
<path d="M85.4631 119.479C85.6295 119.732 86.1975 120.1 86.1659 120.439C86.5822 120.767 87.6334 121.621 87.8965 122.086C88.3747 122.93 89.0505 123.652 89.6578 124.396C90.3281 125.216 91.6565 125.574 92.6037 126.03C94.2192 126.808 95.9433 127.308 97.5471 128.134C99.0028 128.884 100.449 129.69 101.935 130.378C103.263 130.993 104.669 131.767 106.106 132.064C106.83 132.214 107.564 132.218 108.304 132.222L108.384 132.223C109.913 132.233 111.462 132.147 112.989 132.064L113.159 132.054C115.833 131.907 118.481 131.271 121.051 130.535C123.502 129.834 126.027 129.219 128.561 128.918C130.44 128.695 132.33 128.551 134.211 128.345L134.279 128.338C135.646 128.188 137.026 128.037 138.404 128.051C140.006 128.067 141.491 128.329 143.054 128.652C143.427 128.729 144.02 128.74 144.356 128.936C144.499 129.018 144.39 129.285 144.364 129.407C144.251 129.958 144.177 130.541 143.902 131.042C143.387 131.981 142.56 132.806 141.787 133.529C139.427 135.739 136.935 137.789 134.157 139.469C131.946 140.806 129.66 142.114 127.289 143.15C127.087 143.239 126.745 143.28 126.693 143.531C126.623 143.871 126.418 144.158 126.291 144.478C125.846 145.598 125.651 146.904 125.408 148.082C124.968 150.21 124.515 152.305 123.89 154.388C123.174 156.771 121.16 165.731 120.062 167.975C119.834 168.441 119.153 168.084 118.739 167.999L116.146 167.463L104.01 164.956C99.4324 164.011 94.8914 163 90.4038 161.695C87.7622 160.927 85.0806 160.193 82.5225 159.171C80.5459 158.381 78.6502 157.397 76.6891 156.571C75.9776 156.271 75.1904 155.742 74.7542 155.078C74.6085 154.857 76.0712 148.006 76.1208 147.766C76.2412 147.183 76.4288 146.612 76.5663 146.027C76.7258 145.348 77.0305 144.707 77.2352 144.042C77.6018 142.851 77.9843 141.668 78.2365 140.448L79.0693 136.416L79.0745 136.39C79.2147 135.712 79.3383 135.114 79.2228 134.42C79.1408 133.928 78.815 133.666 78.608 133.219C77.9813 131.867 76.6104 131.017 75.7162 129.861C75.0121 128.951 74.4745 127.773 73.9997 126.731C73.3417 125.286 72.9879 123.75 72.5569 122.229C71.8494 119.733 71.1697 117.017 71.7038 114.432C71.8888 113.536 72.1182 111.705 73.1992 111.462C73.4948 111.395 73.7281 111.226 74.0353 111.289C74.4029 111.365 74.7816 111.424 75.1394 111.537C75.9147 111.781 76.6278 111.913 77.3012 112.395C78.1441 113 78.9202 113.712 79.786 114.289C81.2287 115.251 82.7524 116.192 83.9271 117.493C84.4874 118.114 85.0039 118.78 85.4631 119.479Z" fill="#AFAFAF" stroke="black" stroke-width="2" stroke-linecap="round"/>
<path d="M95.3389 92.2258C95.4084 92.8369 95.3624 95.4715 96.3153 95.7817C94.0274 95.878 91.8656 99.2619 90.6451 100.815C88.3026 103.796 88.027 108.55 87.2768 112.182C86.4231 116.315 86.5607 119.727 88.4428 123.635C89.9315 126.726 91.0922 129.107 93.6136 131.506C96.3681 134.128 99.1828 134.924 102.799 135.671C105.431 136.215 108.242 137.129 110.935 137.32C112.658 137.442 114.644 137.027 116.336 136.704C118.408 136.308 120.187 135.733 121.983 134.595C123.678 133.52 124.45 132.39 125.588 130.726L125.616 130.684C128.516 126.443 129.872 122.087 130.906 117.084C131.411 114.636 132.51 111.328 131.013 109.043C130.443 108.174 130.056 107.156 129.53 106.265C129.112 105.556 128.363 104.247 128.126 103.487C127.787 102.398 126.604 100.454 125.759 99.5961C127.537 90.9919 129.672 81.5926 131.263 72.9542C131.955 69.1907 130.926 65.4669 131.105 61.7094L131.107 61.6765C131.156 60.656 131.251 58.6532 130.059 58.265C128.907 57.8901 127.728 57.9257 126.543 57.8065C125.483 57.6998 124.301 60.3066 123.853 60.9515C120.069 66.3946 117.133 72.9649 115.789 79.4741L113.876 88.7323C113.758 89.3033 113.373 93.0967 112.522 93.1611C111.213 93.2601 109.358 92.5957 108.111 92.25C107.169 91.9888 107.082 91.7779 107.203 90.9444C107.317 90.1649 107.07 88.5631 106.961 87.7132C106.703 85.7244 107.34 83.6763 107.246 81.6937C107.131 79.2482 106.862 76.7986 106.739 74.3451C106.585 71.2444 107.026 68.1141 106.913 64.9954C106.786 61.5233 106.789 58.0602 106.551 54.5901C106.447 53.0735 106.577 49.4312 105.188 48.4191C102.712 46.6144 98.8833 51.5006 97.9073 53.1197C96.2527 55.8643 96.0931 59.9267 95.4537 63.022C94.5893 67.2068 94.1214 71.1424 94.0864 75.4164C94.0407 80.9958 94.7082 86.6824 95.3389 92.2258Z" fill="#AFAFAF" stroke="black" stroke-width="2" stroke-linecap="round"/>
<path d="M113.097 124.093C113.086 124.155 113.072 124.363 113.005 124.388C113.052 124.783 113.063 125.406 112.982 125.794C112.832 126.522 112.992 127.094 112.582 127.731C112.309 128.157 111.954 128.885 111.487 129.121C111.112 129.311 110.187 129.516 109.777 129.576C109.14 129.669 108.772 129.772 108.147 129.643C107.251 129.458 106.008 128.713 105.509 127.838C105.09 127.105 104.938 126.13 105.041 125.299C105.172 124.243 105.463 123.169 105.897 122.2C106.16 121.615 106.477 121.057 106.977 120.641C107.258 120.407 107.614 120.112 107.986 120.058C108.517 119.981 109.158 120.147 109.671 120.293C109.883 120.353 110.075 120.479 110.259 120.595C110.612 120.819 110.966 121.045 111.31 121.283C111.751 121.586 112.129 121.982 112.423 122.429C112.671 122.806 112.919 123.194 113.039 123.634C113.078 123.777 113.122 123.945 113.097 124.093Z" fill="white" stroke="black" stroke-width="2" stroke-linecap="round"/>
<path d="M93.5248 110.462C93.5722 109.608 94.6401 108.207 95.2938 107.684C95.765 107.379 96.2129 106.893 96.7301 106.68C97.1679 106.5 97.6113 106.305 98.0527 106.145C98.2227 106.084 98.7267 105.97 98.9077 105.918C99.441 105.766 99.9979 105.774 100.538 105.851C101.313 106.011 101.313 106.011 102.007 106.558C102.528 106.752 103.007 107.189 103.457 107.523C104.151 108.037 104.626 108.915 105.077 109.634C105.566 110.414 105.8 111.423 105.781 112.342C105.774 112.668 105.644 113.037 105.571 113.355C105.463 113.832 105.269 114.272 104.957 114.636C104.529 115.136 104.2 115.837 103.654 116.191C103.202 116.483 102.734 116.873 102.251 117.113C101.278 117.597 99.9931 117.575 98.9054 117.682C98.1484 117.756 97.4975 117.691 96.5864 117.155C95.5599 116.551 94.5963 115.815 94.0271 114.774C93.5687 113.936 93.1389 113.211 93.1922 112.072C93.1089 111.501 93.4927 111.041 93.5248 110.462Z" fill="white" stroke="black" stroke-width="2" stroke-linecap="round"/>
<path d="M114.171 107.268C114.885 106.838 116.463 106.625 117.371 106.558C118.481 106.638 118.922 106.82 119.866 107.11C120.779 107.608 122.149 107.545 123.375 110.568C124.308 113.993 123.719 114.273 123.346 115.39C122.998 116.43 122.55 117.458 121.787 118.257C121.174 118.898 120.41 119.425 119.615 119.816C118.654 120.288 117.699 120.148 116.692 119.94C115.523 119.698 114.508 119.161 113.491 118.551C112.677 118.063 111.95 117.462 111.433 116.656C110.833 115.72 110.764 114.484 110.769 113.398C110.772 112.84 110.931 112.271 111.069 111.734C111.18 111.304 111.266 110.9 111.468 110.501C111.928 109.589 112.55 108.727 113.276 108.006C113.547 107.736 113.842 107.466 114.171 107.268Z" fill="white" stroke="black" stroke-width="2" stroke-linecap="round"/>
<path d="M100.353 106.79C100.525 106.964 100.703 107.131 100.812 107.353C100.86 107.449 100.903 107.547 100.946 107.645C100.997 107.762 101.027 107.885 101.064 108.007C101.108 108.153 101.139 108.301 101.159 108.453C101.181 108.625 101.224 108.797 101.228 108.972C101.237 109.357 101.138 109.738 101.055 110.112C101.002 110.351 100.88 110.575 100.781 110.797C100.663 111.061 100.517 111.315 100.371 111.564C100.202 111.854 99.9667 112.112 99.6683 112.265C99.471 112.366 99.2684 112.452 99.0686 112.547C98.8635 112.645 98.6522 112.742 98.43 112.795C98.0142 112.893 97.5904 112.923 97.1676 112.971C96.8448 113.008 96.5262 112.995 96.2016 112.983C95.8596 112.969 95.5183 112.972 95.1793 112.92C95.0396 112.899 94.9014 112.866 94.7631 112.838C94.7067 112.826 94.6636 112.801 94.6409 112.87C94.5934 113.014 94.6233 113.172 94.6688 113.312C94.7782 113.648 94.8978 113.979 95.061 114.292C95.4268 114.996 95.8467 115.786 96.5208 116.244C96.668 116.344 96.8441 116.425 97.0111 116.483C97.1711 116.539 97.305 116.616 97.4508 116.701C97.4837 116.72 97.5096 116.739 97.5374 116.761C97.5374 116.761 97.5447 116.566 97.5441 116.551C97.5332 116.288 97.5367 116.027 97.5902 115.768C97.6736 115.364 97.8745 115.008 98.044 114.637C98.252 114.182 98.4483 113.718 98.6864 113.278C98.8865 112.908 99.0808 112.541 99.4042 112.264C99.7044 112.007 100.049 111.868 100.436 111.792C100.914 111.699 101.391 111.8 101.871 111.812C102.316 111.823 102.761 111.907 103.195 112.003C103.316 112.029 103.403 112.091 103.502 112.161C103.63 112.253 103.765 112.336 103.893 112.428C103.913 112.442 104.103 112.604 104.124 112.587C104.174 112.548 104.192 112.299 104.193 112.238C104.203 111.736 103.845 111.283 103.582 110.888C103.434 110.666 103.275 110.439 103.173 110.192C103.088 109.986 103.037 109.766 102.949 109.56C102.939 109.537 102.864 109.311 102.827 109.324C102.802 109.333 102.791 109.363 102.774 109.385C102.699 109.481 102.623 109.576 102.541 109.668C102.396 109.83 102.238 109.98 102.079 110.129C101.841 110.352 101.644 110.594 101.427 110.835C101.151 111.142 100.854 111.43 100.558 111.717C100.203 112.06 99.8692 112.421 99.5016 112.752C99.159 113.061 98.7895 113.346 98.4206 113.623C98.1098 113.856 97.8076 114.089 97.4601 114.265C97.242 114.375 97.0512 114.531 96.8282 114.632C96.6594 114.708 96.5202 114.83 96.3579 114.918C96.2095 114.999 96.0773 115.108 95.939 115.204C95.9037 115.229 95.803 115.386 95.9102 115.353C96.0646 115.304 96.2197 115.23 96.3624 115.154C96.4044 115.132 96.4534 115.117 96.4778 115.075" stroke="black" stroke-width="2" stroke-linecap="round"/>
<path d="M118.619 107.076C118.939 107.609 119.246 108.096 119.334 108.714C119.368 108.95 119.381 109.177 119.358 109.414C119.313 109.873 119.188 110.334 118.973 110.74C118.656 111.34 118.253 111.89 117.683 112.264C117.371 112.469 117.028 112.618 116.678 112.743C116.256 112.894 115.799 113.054 115.355 113.116C114.717 113.204 114.095 113.257 113.45 113.254C113.182 113.253 112.912 113.294 112.646 113.261C112.544 113.249 112.447 113.239 112.345 113.237C112.294 113.236 112.224 113.208 112.173 113.219C111.981 113.258 112.55 114.79 112.595 114.934C112.734 115.374 112.797 115.838 112.874 116.292C112.9 116.442 112.926 116.593 112.939 116.745C112.941 116.764 112.963 116.646 112.967 116.627C113.092 116.023 113.171 115.386 113.366 114.799C113.386 114.739 113.43 115.126 113.431 115.166C113.449 115.654 113.453 116.142 113.477 116.631C113.494 116.964 113.54 117.27 113.598 117.591C113.645 117.856 113.838 118.096 113.982 118.315C114.058 118.431 114.155 118.144 114.181 118.088C114.302 117.827 114.473 117.589 114.623 117.345C114.863 116.955 115.084 116.557 115.362 116.193C115.517 115.99 115.632 115.761 115.781 115.555C115.911 115.373 116.057 115.195 116.194 115.019C116.528 114.589 116.857 114.139 117.238 113.749C117.565 113.413 117.929 113.128 118.362 112.939C118.978 112.671 119.642 112.654 120.297 112.763C120.598 112.814 120.898 112.882 121.196 112.947C121.368 112.984 121.514 113.031 121.657 113.131C121.845 113.264 122.053 113.426 122.192 113.611C122.262 113.704 122.388 113.812 122.484 113.88C122.544 113.924 122.602 113.621 122.611 113.584C122.676 113.314 122.761 113.017 122.761 112.738C122.761 112.339 122.669 111.954 122.586 111.566C122.469 111.02 122.324 110.451 122.113 109.934C122.02 109.706 121.911 109.496 121.771 109.296C121.709 109.207 121.631 109.041 121.535 108.982C121.426 108.915 121.239 109.509 121.222 109.565C121.088 110.026 120.986 110.494 120.872 110.961C120.81 111.212 120.719 111.458 120.667 111.711C120.652 111.78 120.621 111.823 120.575 111.877C120.444 112.031 120.26 112.095 120.072 112.154C119.655 112.284 119.23 112.371 118.803 112.457C118.357 112.548 117.933 112.631 117.543 112.866C117.136 113.112 116.77 113.438 116.384 113.717C116.216 113.839 116.042 113.951 115.872 114.07C115.668 114.211 115.5 114.368 115.275 114.48C115.114 114.56 114.963 114.658 114.796 114.725C114.691 114.766 114.554 114.819 114.469 114.894C114.41 114.946 114.275 115.072 114.204 115.091" stroke="black" stroke-width="2" stroke-linecap="round"/>
<path d="M170.611 91.7921C172.82 90.3915 174.19 89.8518 176.611 88.8649C177.052 88.6849 176.19 90.5121 175.755 91.3245C175.321 92.1347 175.292 93.4254 175.106 94.3233C174.767 95.9672 173.554 97.4555 174.53 98.9393C174.71 99.0961 176.307 100.114 177.311 101.204C178.005 101.677 178.505 102.17 179.036 102.474C180.022 103.038 180.585 103.857 181.303 104.697C181.535 104.968 182.04 105.304 181.583 105.553C181.055 105.84 180.482 105.953 179.894 106.045C177.836 106.364 175.789 106.723 173.736 107.065C172.768 107.226 171.513 106.873 171.107 107.964C170.909 108.495 170.525 108.916 170.238 109.395C169.825 110.084 169.476 110.793 168.964 111.423C167.663 113.025 166.733 114.945 165.491 116.58C164.853 117.419 164.363 117.869 163.688 117.056C163.614 116.967 163.645 116.473 163.634 116.334C163.614 116.058 163.611 115.849 163.676 115.538L164.203 112.985C164.333 112.355 164.488 111.439 164.451 110.803C164.439 110.605 164.606 108.425 164.226 109.081C163.549 110.25 162.337 111.042 161.52 112.105C160.669 113.213 159.657 114.128 158.674 115.106C157.248 116.527 155.906 118.157 154.36 119.422C153.368 120.233 152.439 121.265 151.554 122.193C150.79 122.993 149.826 123.71 149.171 124.601C148.463 125.564 147.411 126.225 146.631 127.137C145.893 128 145.091 128.899 144.228 129.643C143.402 130.355 140.221 132.641 139.647 130.756C139.182 129.231 140.758 129.208 141.118 128.058C141.311 127.441 142.443 126.9 142.861 126.431C144.343 124.768 146.085 123.382 147.659 121.809C149.837 119.632 152.04 117.533 154.069 115.214C155.771 113.269 157.783 111.537 159.345 109.473C160.183 108.364 161.469 107.112 161.517 105.628C161.531 105.167 160.387 105.148 160.084 105.086C158.074 104.67 156.087 104.129 154.087 103.716L151.548 103.192C151.156 103.111 150.351 103.13 151.02 102.872C152.205 102.416 153.375 101.672 154.535 101.126C155.531 100.657 156.553 100.198 157.564 99.7645C157.985 99.5845 158.9 99.4775 159.013 98.9324C159.195 98.0514 158.945 96.7865 158.718 95.9346C158.409 94.7711 158.123 93.3452 158.145 92.1467C158.158 91.437 158.349 90.7135 158.503 90.0235C158.579 89.6872 158.732 89.7952 159.017 89.8541L160.498 90.1601C160.975 90.2586 161.092 90.5392 161.479 90.8195C162.226 91.3601 162.871 92.2796 163.706 92.6633C164.699 93.1193 165.865 94.3213 166.953 94.5461C168.35 94.8346 169.478 92.5103 170.611 91.7921Z" fill="#FF00E5" stroke="black" stroke-width="2" stroke-linecap="round"/>
<path d="M100.147 45.3605C100.375 45.0835 100.692 44.473 101.45 44.2095C102.207 43.9461 102.641 44.2782 103.206 44.3948L104.786 44.7211C105.283 44.8238 106.32 45.0161 106.607 45.4524C107.018 46.077 107.619 46.6814 107.936 47.3739C108.543 48.7007 109.27 49.9885 109.821 51.3532C109.936 51.6371 109.966 52.0586 109.992 52.3649C110.017 52.6562 110.167 52.9195 110.203 53.2072C110.3 53.9905 110.46 54.7645 110.557 55.5488C111.132 60.1722 110.655 64.8565 110.125 69.459C109.805 72.2378 109.375 75.0227 108.809 77.7625C108.62 78.6779 105.918 77.9466 105.314 77.8986C103.918 77.7875 102.56 77.4578 101.189 77.1746C98.9774 76.7178 96.8056 76.227 94.6265 75.6415C94.1004 75.5002 92.2992 75.1568 92.1355 74.5944C92.0677 74.3614 91.9883 74.1539 92.0398 73.8646C92.8389 69.3693 93.8035 64.8961 94.7281 60.4203C95.3472 57.423 95.7814 54.3201 96.8058 51.436C97.391 49.7885 98.3174 48.4338 99.1368 46.9074C99.4348 46.3522 99.7476 45.8448 100.147 45.3605Z" fill="#6C11A4" stroke="black" stroke-width="2" stroke-linecap="round"/>
<path d="M124.43 55.8007C124.58 55.6868 127.24 53.6468 127.385 54.0047L128.17 54.1668C128.403 54.2149 128.92 54.332 129.113 54.4701C129.674 54.8721 130.041 55.6449 130.411 56.2077C130.914 56.9728 131.31 57.7239 131.603 58.6038C131.669 58.8039 131.852 58.9464 131.914 59.1513C131.992 59.4118 132.004 59.6533 132.041 59.9174C132.104 60.3605 132.207 60.9397 132.348 61.3712C132.526 61.9192 132.46 62.4345 132.489 63.003C132.525 63.7289 132.493 64.4568 132.492 65.1833C132.491 66.7657 132.407 68.3415 132.372 69.9171C132.355 70.7164 132.43 71.6201 132.283 72.4036C132.142 73.1525 131.89 73.9786 131.976 74.7467C132.1 75.8445 131.903 77.2512 131.68 78.3296L131.285 80.2403C131.193 80.6898 131.231 81.5315 130.725 81.6385C129.73 81.8493 128.828 81.8254 127.826 81.9223C124.833 82.212 121.798 81.4315 118.89 80.8308L116.662 80.3707C115.913 80.216 115.103 80.2771 114.376 80.1005C114.125 80.0396 114.321 79.2565 114.305 79.0848C114.237 78.3756 114.451 77.5145 114.595 76.8174L115.14 74.1784C115.675 71.5902 116.633 69.073 117.752 66.69C118.522 65.0516 119.082 63.3379 120.085 61.8215C120.746 60.8211 121.344 59.7198 121.946 58.6803C122.539 57.658 123.497 56.5075 124.43 55.8007Z" fill="#6C11A4" stroke="black" stroke-width="2" stroke-linecap="round"/>
<circle cx="102.642" cy="42.8558" r="3.74791" transform="rotate(11.6711 102.642 42.8558)" fill="#FFFF00" stroke="black" stroke-width="2"/>
<circle cx="129.42" cy="54.0428" r="3.74791" transform="rotate(11.6711 129.42 54.0428)" fill="#FFFF00" stroke="black" stroke-width="2"/>
<path d="M119.435 66.9566C119.343 66.4821 118.762 65.7534 118.492 65.344C118.281 65.553 118.275 65.9686 118.218 66.2456C118.082 66.9064 117.956 67.5705 117.808 68.229C117.623 69.0603 117.184 69.8163 116.878 70.6034C116.348 71.9689 116.13 73.4213 115.577 74.7737C115.361 75.3015 115.298 75.9106 115.183 76.467C115.163 76.5617 114.943 77.1666 115.183 77.1027C115.41 77.0424 115.613 76.8379 115.837 76.7538C116.174 76.6277 116.439 76.3716 116.779 76.2442C117.534 75.9608 118.175 75.4622 118.848 75.0291C119.031 74.9115 119.194 74.962 119.311 75.1297C119.487 75.3804 119.842 75.4794 120.057 75.709C120.184 75.8447 120.307 75.9737 120.453 76.089C120.608 76.2114 120.702 76.3889 120.849 76.5131C121.045 76.6776 121.405 76.7479 121.638 76.8617C121.975 77.0267 122.28 77.215 122.572 77.4507C122.621 77.4899 122.938 77.7956 122.907 77.6763C122.872 77.5461 122.894 77.4013 122.847 77.2778C122.786 77.115 122.759 76.939 122.728 76.7691C122.625 76.2131 122.417 75.6759 122.253 75.136C122.091 74.5998 121.925 74.063 121.754 73.5295C121.669 73.2662 121.498 73.0032 121.511 72.7191C121.521 72.489 121.745 72.3603 121.912 72.2202C123.125 71.2027 124.534 70.3476 125.593 69.1429C125.847 68.8549 126.042 68.6289 126.121 68.2471C126.137 68.1706 126.249 67.8986 126.106 67.8944C125.84 67.8867 125.599 67.9306 125.325 67.9092C123.966 67.8031 122.561 67.9684 121.272 68.4067C120.841 68.5533 120.433 68.715 120.045 68.9525C119.898 69.0427 119.943 69.014 119.862 68.9368C119.782 68.8602 119.783 68.6318 119.76 68.5319C119.64 68.009 119.537 67.4831 119.435 66.9566Z" fill="#FFFF00" stroke="black" stroke-width="2" stroke-linecap="round"/>
<path d="M109.281 53.918C109.486 53.6617 109.763 53.085 110.121 53.052C110.194 55.0385 110.268 57.025 110.338 59.0116C110.346 59.2456 110.361 59.489 110.357 59.7256C110.349 60.0653 110.325 60.4069 110.311 60.7466C110.292 61.1988 110.226 61.6478 110.205 62.0988C110.192 62.3675 110.125 62.6287 110.071 62.8915L109.961 63.4261C109.932 63.5654 109.847 63.7726 109.902 63.9082C109.674 63.8613 109.237 63.1221 109.056 62.9722C108.845 62.7979 108.689 62.7033 108.424 62.6484C108.315 62.626 108.237 62.7002 108.143 62.742C107.792 62.8963 107.465 63.1289 107.13 63.3149C106.655 63.5786 106.216 63.8324 105.717 64.0497C105.298 64.2317 104.906 64.5695 104.476 64.7076C104.45 64.7158 104.604 64.1733 104.618 64.1259C104.749 63.6761 104.93 63.242 105.032 62.774C105.159 62.1887 105.455 61.398 105.306 60.7968C105.168 60.244 104.815 59.7842 104.503 59.3209C104.286 58.9982 104.005 58.7162 103.774 58.4026C103.329 57.8001 102.974 57.1312 102.661 56.4519C102.613 56.3467 102.394 55.84 102.636 55.8626C102.926 55.8896 103.201 55.9436 103.489 55.9947C104.042 56.0931 104.607 56.1393 105.163 56.2207C105.707 56.3004 106.243 56.4276 106.789 56.5052C106.956 56.529 107.155 56.6229 107.315 56.5235C107.738 56.2615 107.994 55.6652 108.27 55.2736C108.597 54.8101 108.926 54.3614 109.281 53.918Z" fill="#FFFF00" stroke="black" stroke-width="2" stroke-linecap="round"/>
<path d="M94.634 66.532C94.4498 66.5103 93.966 66.2967 93.7827 66.2589C93.1811 68.4211 92.8179 70.8549 92.3638 73.0534L92.1236 74.2158C92.1038 74.3118 92.2999 74.6446 92.4312 74.6834C92.8256 74.7997 92.6289 74.5509 93.0214 74.6785C94.0687 75.019 95.1708 75.2195 96.2478 75.442C97.1801 75.6346 98.1133 75.8234 99.0448 76.0197C99.5202 76.1199 99.9735 76.2961 100.448 76.394C100.538 75.954 100.341 75.5092 99.7684 74.9406C99.649 74.7364 99.5888 74.4313 99.438 74.2563C99.1849 73.9627 99.0349 73.5756 98.8217 73.2515C98.3702 72.5649 97.8236 71.8376 97.663 71.015C97.5915 70.6482 97.7835 70.4197 98.0045 70.1664C98.4431 69.664 98.9397 69.2107 99.4136 68.7415C99.9083 68.2516 100.551 67.7489 100.93 67.1529C100.998 67.0454 101.01 66.9059 101.035 66.7836C101.061 66.6604 100.822 66.6829 100.754 66.679C99.5302 66.6089 98.2968 66.706 97.0716 66.6835C96.2577 66.6686 95.4427 66.627 94.634 66.532Z" fill="#FFFF00" stroke="black" stroke-width="2" stroke-linecap="round"/>
<path d="M100.043 160.369C103.785 161.824 125.156 168.171 129.005 169.35C127.299 169.765 125.642 170.311 124.027 171.003C122.309 171.74 120.913 172.847 119.606 174.154C118.646 175.114 103.517 177.019 102.671 178.052C98.7171 178.052 92.0473 177.266 89.6352 181.255C88.3798 183.331 86.9091 185.121 85.9279 187.329C85.0681 189.264 85.3549 190.584 83.1258 190.584C79.0024 190.584 76.9792 189.349 72.9616 188.822C71.7994 188.67 70.6148 188.11 71.0425 187.016C69.4002 189.494 62.5542 198.303 62.4489 199.286C62.3701 200.022 60.9112 199.649 60.4299 199.6C55.4202 199.087 50.2917 197.789 45.253 197.789C43.9853 197.789 44.215 195.776 43.6517 194.9C42.612 193.283 41.4631 191.776 40.223 190.288C38.6474 188.397 37.1582 185.927 34.8797 184.788C33.3448 184.021 33 184.146 33 182.438C33 181.512 33.0268 179.947 33.4699 179.149C33.8013 178.552 34.2162 176.819 34.2531 176.173C34.3626 174.257 34.928 172.308 35.4367 170.464C35.7929 169.173 35.4976 168.13 36.2721 166.913C36.7453 166.17 36.4895 165.834 37.5426 165.834C38.2624 165.834 38.9654 165.679 39.6486 165.451C41.3411 164.887 42.805 164.581 44.5916 164.581C48.4205 164.581 51.2402 165.439 52.1801 160.996C52.8435 157.86 54.0405 155.131 57.2971 154.539C62.7646 153.544 69.03 154.243 74.5974 154.243C77.26 154.243 79.87 154.403 82.4992 154.8C84.4953 155.101 86.8416 155.193 88.7301 155.966C92.4785 157.499 96.2761 158.904 100.043 160.369Z" fill="white"/>
<path d="M71.379 186.448C70.9772 187.475 62.5657 198.196 62.4489 199.286C62.3701 200.022 60.9112 199.649 60.4299 199.6C55.4202 199.087 50.2917 197.789 45.253 197.789C43.9853 197.789 44.215 195.776 43.6517 194.9C42.612 193.283 41.4631 191.776 40.223 190.288C38.6474 188.397 37.1582 185.927 34.8797 184.788C33.3448 184.021 33 184.146 33 182.438C33 181.512 33.0268 179.947 33.4699 179.149C33.8013 178.552 34.2162 176.819 34.2531 176.173C34.3626 174.257 34.928 172.308 35.4367 170.464C35.7929 169.173 35.4976 168.13 36.2721 166.913C36.7453 166.17 36.4895 165.834 37.5426 165.834C38.2624 165.834 38.9654 165.679 39.6486 165.451C41.3411 164.887 42.805 164.581 44.5916 164.581C48.4205 164.581 51.2402 165.439 52.1801 160.996C52.8435 157.86 54.0405 155.131 57.2971 154.539C62.7646 153.544 69.03 154.243 74.5974 154.243C77.26 154.243 79.87 154.403 82.4992 154.8C84.4953 155.101 86.8416 155.193 88.7301 155.966C92.4785 157.499 96.2761 158.904 100.043 160.369C103.785 161.824 125.156 168.171 129.005 169.35C127.299 169.765 125.642 170.311 124.027 171.003C122.309 171.74 120.913 172.847 119.606 174.154C118.646 175.114 103.517 177.019 102.671 178.052C98.7171 178.052 92.0473 177.266 89.6352 181.255C88.3798 183.331 86.9091 185.121 85.9279 187.329C85.0681 189.264 85.3549 190.584 83.1258 190.584C79.0024 190.584 76.9792 189.349 72.9616 188.822C71.6133 188.646 70.2347 187.92 71.379 186.448ZM71.379 186.448C71.2041 185.487 67.8235 177.087 67.1482 176.73C66.2373 176.73 56.6241 174.293 55.7132 174.293C54.124 174.293 51.6036 175.653 50.9965 176.799C50.1294 178.437 52.0303 182.071 50.9965 183.622" stroke="black" stroke-width="2" stroke-linecap="round"/>
</svg>
