<svg width="72" height="54" viewBox="0 0 72 54" fill="none" xmlns="http://www.w3.org/2000/svg">
<path d="M5.14913 10.7784C3.89852 9.83749 2.3555 8.6753 1.54854 7.28676C1.40357 7.03675 3.18555 6.48938 3.82781 6.32998C4.88635 6.06725 5.90768 6.08691 6.96403 5.89266C9.72225 5.38546 12.4611 5.71909 15.2157 5.40353C17.3629 5.15756 19.4759 5.03158 21.6313 4.91714C23.3935 4.82357 25.1597 5.19483 26.9214 5.08846C28.8023 4.97488 30.6512 4.68209 32.5464 4.60985C33.6425 4.56808 34.8195 4.56384 35.9037 4.398C37.495 4.15458 39.064 4.23495 40.6466 3.89876C42.7476 3.45246 45.1041 3.34305 47.2486 3.17171C50.4755 2.9139 53.714 2.6283 56.9473 2.79122C60.6555 2.97808 64.3684 3.1255 68.0743 3.35193C68.694 3.38978 70.5581 3.41007 70.5117 4.33205C70.4858 4.84524 70.3329 5.23452 70.244 5.7236C69.9448 7.37021 69.0273 8.64194 68.3383 10.1046C67.4895 11.9065 66.1686 13.9575 64.5434 15.0811C59.8366 18.3351 53.7761 17.786 48.3752 18.8625C46.026 19.3307 43.6798 19.0266 41.2958 19.1487C39.2736 19.2523 37.3104 19.5909 35.2827 19.4887C32.0366 19.3251 28.7786 19.3753 25.5242 19.2113C23.713 19.12 21.7849 19.0694 20.0244 18.5888C17.8494 17.9951 15.6046 16.8348 13.6117 15.789C10.711 14.2669 7.78479 12.7612 5.14913 10.7784Z" fill="#FF2D2D" stroke="black" stroke-width="2" stroke-linecap="round"/>
<path d="M31.0769 25.4253C31.3506 25.7903 31.8117 26.6386 32.296 26.7354L40.4643 26.8556C41.0488 26.8556 41.6355 26.8718 42.2194 26.8493C42.6457 26.8329 43.0611 26.7869 43.4844 26.7418C43.9064 26.6968 44.3283 26.604 44.7494 26.571C45.2588 26.5311 45.7338 26.3127 46.1061 25.967C46.22 25.8612 46.3618 25.7429 46.5109 25.6887C46.5966 25.6575 46.6347 25.5688 46.7244 25.5464C46.795 25.5287 47.8061 24.4904 47.8538 24.4427C47.8538 23.0862 48.5088 21.8774 48.5088 20.5214C48.5088 19.1437 48.6344 17.7934 48.6726 16.4182C48.702 15.3587 48.9917 14.1255 50.1465 14.1255C50.6979 14.1255 51.1877 14.2893 51.7113 14.2893C52.5195 14.2893 52.603 14.4074 52.603 15.19C52.603 16.3507 52.6282 17.5141 52.603 18.6745C52.5779 19.8287 52.1117 20.8548 52.1117 22.0226C52.1117 25.8262 51.8686 29.4993 50.9926 33.2224C50.7119 34.4151 50.8015 35.6695 50.8015 36.8889C50.8015 38.4135 51.9479 39.633 51.9479 41.0922C51.9479 42.8618 52.1032 44.7141 51.866 46.4692C51.7561 47.2825 51.8063 47.8539 51.2564 48.5162C51.0251 48.7948 49.9559 50.124 49.5005 49.7445C48.4729 48.8881 47.8619 47.3164 47.1987 46.1871C46.6 45.1676 45.4213 43.361 44.0872 43.4395C43.2582 43.4883 42.4495 44.9813 42.4495 45.6594C42.4495 46.678 41.8409 47.8621 41.5033 48.8074C41.3294 49.2942 40.942 49.8969 40.6553 50.3428L40.6481 50.354C40.2045 51.044 39.2452 53.0877 38.4281 52.0372C37.962 51.4378 37.8819 50.7381 37.4637 50.0811C36.7461 48.9534 37.3172 47.0553 36.9179 45.7686C36.0974 43.1248 35.7781 40.269 34.6615 37.7168C34.2859 36.8583 33.6091 36.1393 33.033 35.415C32.3024 34.4966 31.6398 33.3674 30.7494 32.5946C29.5611 31.5633 28.3332 30.4285 27.0555 29.5194C25.0429 28.0873 23.8334 25.0661 23.2252 22.7687C23.0972 22.2848 22.8259 20.3412 23.1616 19.8937C23.1775 19.8724 24.3422 20.3982 24.4353 20.4305C26.1617 21.0281 27.6603 22.1488 29.0571 23.2782C29.8334 23.9058 30.4832 24.6337 31.0769 25.4253Z" fill="#AFAFAF" stroke="black" stroke-width="2" stroke-linecap="round"/>
<path d="M33.2718 29.1069C33.3849 26.2814 35.7674 23.4392 37.9828 21.9055C37.8424 21.6248 37.8384 21.3515 37.6744 21.0728C37.4452 20.6832 36.9226 20.5241 36.7415 20.1013C36.5519 19.6591 36.0329 19.1483 35.6312 18.9139C35.1887 18.6558 34.8559 18.0539 34.4052 17.742C33.0642 16.8135 33.1553 15.1721 34.1816 13.9177C34.5032 13.5247 35.0075 13.518 35.4847 13.5861C35.8853 13.6434 36.1657 14.2544 36.487 14.4728C37.4885 15.1538 38.6487 16.0379 39.1548 17.1946C39.3416 17.6216 39.6059 18.0101 39.7793 18.4436C39.8619 18.6502 39.9258 19.3125 39.9258 18.7829V17.4336C39.9258 16.5485 39.9272 15.7171 40.1725 14.8583C40.2528 14.5772 40.2954 13.7285 40.558 13.5784C41.1924 13.216 42.6248 12.4128 42.7015 13.7172C42.764 14.7794 42.8403 15.937 42.8403 17.0558V20.163C42.8403 20.8013 42.6395 21.6163 43.1179 22.0443C44.0839 22.9087 45.4441 23.3228 46.3176 24.342C46.9546 25.0851 47.6224 26.141 47.9445 27.0714C48.3965 28.3774 48.2015 30.2262 47.7594 31.4894C47.4112 32.4843 46.8024 33.4654 45.9552 34.1109C45.1026 34.7605 43.9855 34.6737 42.9791 34.6737C40.1202 34.6737 36.7946 34.9855 34.5132 32.9235C33.2133 31.7486 33.206 30.7538 33.2718 29.1069Z" fill="#AFAFAF" stroke="black" stroke-width="2" stroke-linecap="round"/>
<path d="M33.2718 29.1069C33.3849 26.2814 35.7674 23.4392 37.9828 21.9055C37.8424 21.6248 37.8384 21.3515 37.6744 21.0728C37.4452 20.6832 36.9226 20.5241 36.7415 20.1013C36.5519 19.6591 36.0329 19.1483 35.6312 18.9139C35.1887 18.6558 34.8559 18.0539 34.4052 17.742C33.0642 16.8135 33.1553 15.1721 34.1816 13.9177C34.5032 13.5247 35.0075 13.518 35.4847 13.5861C35.8853 13.6434 36.1657 14.2544 36.487 14.4728C37.4885 15.1538 38.6487 16.0379 39.1548 17.1946C39.3416 17.6216 39.6059 18.0101 39.7793 18.4436C39.8619 18.6502 39.9258 19.3125 39.9258 18.7829V17.4336C39.9258 16.5485 39.9272 15.7171 40.1725 14.8583C40.2528 14.5772 40.2954 13.7285 40.558 13.5784C41.1924 13.216 42.6248 12.4128 42.7015 13.7172C42.764 14.7794 42.8403 15.937 42.8403 17.0558V20.163C42.8403 20.8013 42.6395 21.6163 43.1179 22.0443C44.0839 22.9087 45.4441 23.3228 46.3176 24.342C46.9546 25.0851 47.6224 26.141 47.9445 27.0714C48.3965 28.3774 48.2015 30.2262 47.7594 31.4894C47.4112 32.4843 46.8024 33.4654 45.9552 34.1109C45.1026 34.7605 43.9855 34.6737 42.9791 34.6737C40.1202 34.6737 36.7946 34.9855 34.5132 32.9235C33.2133 31.7486 33.206 30.7538 33.2718 29.1069Z" fill="#AFAFAF" stroke="black" stroke-width="2" stroke-linecap="round"/>
<path d="M36.3545 29.3277C37.0261 29.2211 37.6821 29.0986 38.3603 29.0986C38.5194 29.0986 38.6105 29.13 38.7268 29.2463C38.9305 29.4499 39.0434 29.8824 39.1392 30.1321C39.2253 30.3565 39.2868 30.5548 39.2868 30.7939" stroke="black" stroke-width="2" stroke-linecap="round"/>
<path d="M44.0059 28.1362C43.4278 28.1509 42.9248 28.4111 42.3564 28.4111" stroke="black" stroke-width="2" stroke-linecap="round"/>
</svg>
