<svg width="184" height="47" viewBox="0 0 184 47" fill="none" xmlns="http://www.w3.org/2000/svg">
<path d="M4.55856 41.7094C4.55856 30.4349 0 7.59131 1.49959 7.27465C2.5 6.59131 28.9107 7.27465 42.2403 7.27465C50.5754 7.27465 58.3868 7.07868 66.6565 6.14249C73.893 5.32326 81.2823 3.81408 88.5947 3.81408C93.0401 3.81408 97.8787 3.43292 102.287 2.85281C105.632 2.4127 109.07 2.46941 112.434 2.23333C115.391 2.02583 118.158 1.50704 121.15 1.50704C127.125 1.50704 133.078 1.12253 139.051 1.12253H158.191C163.729 1.12253 169.486 0.701015 174.981 1.42159C176.12 1.57105 177.202 1.11079 177.202 2.46831C177.202 3.41767 177.587 4.30096 177.587 5.26666C177.587 6.97659 177.91 8.61904 177.971 10.2653C178.048 12.3271 178.684 14.0769 178.74 16.1183C178.78 17.563 179.392 18.9317 179.488 20.3693C179.627 22.4541 179.642 24.6529 179.979 26.7136C180.637 30.7352 182.201 34.6561 182.201 38.7829C182.201 40.7326 178.919 39.9578 177.373 39.9578C173.788 39.9578 170.314 40.0122 166.799 40.3636C159.315 41.1121 151.626 40.7268 144.092 40.7268H113.374C105.178 40.7268 97.0104 41.1113 88.8084 41.1113H88.7171C81.3025 41.1113 73.4082 41.1112 66.0797 42.2648C59.1745 43.3517 52.1178 43.2601 45.2309 44.5718C41.3664 45.3079 37.2378 44.9564 33.3112 44.9564C26.8746 44.9564 20.4367 44.9979 14.0003 44.9564C11.2387 44.9385 7.29324 45.2434 4.77217 43.8028C4.31768 43.5431 4.55856 42.1867 4.55856 41.7094Z" fill="#05FF00" stroke="black" stroke-width="2" stroke-linecap="round"/>
<path d="M31.3672 16.9663C33.2214 16.9663 34.1484 18.2502 34.1484 20.8179V21.2476C34.1484 23.5288 33.151 25.5965 31.1562 27.4507C32.2969 27.4507 32.8672 27.521 32.8672 27.6616L33.2891 27.4507C33.4453 27.4507 33.6615 27.521 33.9375 27.6616L35.2188 27.4507C35.7865 28.1694 36.0703 28.5965 36.0703 28.7319C35.8411 29.4455 35.4141 29.8022 34.7891 29.8022L34.3594 29.5835C34.2188 29.5835 34.1484 29.6564 34.1484 29.8022C32.9505 29.6564 30.8125 29.5132 27.7344 29.3726L27.5156 28.3022V27.8726C30.6562 25.2788 32.2266 23.284 32.2266 21.8882V20.3882C32.2266 19.6486 32.0104 19.2215 31.5781 19.1069H30.5078C29.8464 19.1069 28.9922 19.8205 27.9453 21.2476H27.5156C27.1615 21.2476 26.9479 20.9611 26.875 20.3882C27.5677 18.1069 28.7786 16.9663 30.5078 16.9663H31.3672ZM42.3047 16.7554C45.1589 17.9793 46.5859 20.047 46.5859 22.9585V23.8101C46.5859 25.409 45.3021 26.7632 42.7344 27.8726H41.875C39.3125 27.0184 38.0312 26.0913 38.0312 25.0913C37.6562 25.0913 37.3698 24.521 37.1719 23.3804V21.6694C37.599 18.534 39.026 16.9663 41.4531 16.9663C41.5208 16.9663 41.8047 16.896 42.3047 16.7554ZM39.0938 22.0991V22.7397C39.0938 23.8075 40.0208 24.8075 41.875 25.7397C43.7292 25.5106 44.6562 24.6538 44.6562 23.1694V22.7397C44.6562 21.5158 44.0156 20.3752 42.7344 19.3179C41.6979 18.7502 41.1276 18.4663 41.0234 18.4663C40.1589 18.4663 39.5156 19.6772 39.0938 22.0991ZM52.1797 16.9663C54.0339 16.9663 54.9609 18.2502 54.9609 20.8179V21.2476C54.9609 23.5288 53.9635 25.5965 51.9688 27.4507C53.1094 27.4507 53.6797 27.521 53.6797 27.6616L54.1016 27.4507C54.2578 27.4507 54.474 27.521 54.75 27.6616L56.0312 27.4507C56.599 28.1694 56.8828 28.5965 56.8828 28.7319C56.6536 29.4455 56.2266 29.8022 55.6016 29.8022L55.1719 29.5835C55.0312 29.5835 54.9609 29.6564 54.9609 29.8022C53.763 29.6564 51.625 29.5132 48.5469 29.3726L48.3281 28.3022V27.8726C51.4688 25.2788 53.0391 23.284 53.0391 21.8882V20.3882C53.0391 19.6486 52.8229 19.2215 52.3906 19.1069H51.3203C50.6589 19.1069 49.8047 19.8205 48.7578 21.2476H48.3281C47.974 21.2476 47.7604 20.9611 47.6875 20.3882C48.3802 18.1069 49.5911 16.9663 51.3203 16.9663H52.1797ZM60.9766 15.2554H62.2656C63.4427 15.2554 64.2266 16.1095 64.6172 17.8179V18.6772C64.6172 19.1929 64.3307 19.7632 63.7578 20.3882C65.1849 21.5288 65.8984 22.7424 65.8984 24.0288C65.138 27.0236 63.6406 28.521 61.4062 28.521H60.7656C59.4844 28.521 58.7708 27.9507 58.625 26.8101V26.5913C58.625 26.3882 58.8385 26.1746 59.2656 25.9507C60.7448 26.0913 61.6016 26.1616 61.8359 26.1616C63.1172 25.8283 63.7578 24.9741 63.7578 23.5991C63.7578 23.0262 63.2604 22.5991 62.2656 22.3179C61.1406 22.745 60.4271 22.9585 60.125 22.9585C59.5521 22.9585 59.1953 22.6017 59.0547 21.8882C59.7734 20.7319 60.7708 19.8752 62.0469 19.3179L62.6875 18.4663C62.6875 17.6069 62.0469 17.1772 60.7656 17.1772H60.5547C60.5547 17.3595 60.125 17.7163 59.2656 18.2476H58.4141C58.4141 17.9611 58.2708 17.8179 57.9844 17.8179V17.1772C57.9844 16.6252 58.9818 15.9845 60.9766 15.2554ZM77.0391 14.2085C77.7057 14.2085 78.1328 15.2762 78.3203 17.4116H79.1719C79.4948 17.4116 79.7786 17.3413 80.0234 17.2007C81.0234 17.5132 81.5234 17.8674 81.5234 18.2632C81.5234 19.1174 81.237 19.5444 80.6641 19.5444V20.1851C81.2786 20.1851 81.6354 21.1825 81.7344 23.1772C81.2135 24.6043 80.2161 25.3179 78.7422 25.3179H78.3203C76.3255 24.6877 75.3281 23.7606 75.3281 22.5366V21.6851L75.7578 20.1851L75.3281 20.4038H74.8984C73.9036 20.4038 73.4062 20.047 73.4062 19.3335C73.4062 18.5627 73.763 18.0653 74.4766 17.8413C74.6172 17.8413 74.6875 17.9116 74.6875 18.0522C75.2552 17.9116 75.7526 17.8413 76.1797 17.8413L75.9688 15.2788H76.1797L75.9688 14.8491C75.9688 14.5262 76.3255 14.3127 77.0391 14.2085ZM85.1484 16.1304H85.7891C86.112 16.1304 86.3984 16.6278 86.6484 17.6226L86.4297 18.0522C86.5755 18.2866 86.6484 18.6434 86.6484 19.1226H88.5703L88.3516 17.8413C88.6432 16.9871 88.9297 16.5601 89.2109 16.5601C90.3516 16.5601 90.9219 17.9116 90.9219 20.6147C91.0625 20.6147 91.1328 21.3986 91.1328 22.9663V24.6772C90.4661 25.1043 89.9688 25.3179 89.6406 25.3179L88.9922 24.4585V21.4663H87.0703V21.896L87.2891 22.9663H87.0703L87.2891 23.396V23.8179C87.0026 24.1668 86.8594 24.4533 86.8594 24.6772H85.7891C85.138 24.6772 84.7109 22.5392 84.5078 18.2632V17.4116C84.6016 16.5575 84.8151 16.1304 85.1484 16.1304ZM77.6797 21.0444L77.4609 21.896C77.6953 22.6095 78.1224 22.9663 78.7422 22.9663C79.3151 22.7528 79.6016 22.5392 79.6016 22.3257C79.3047 21.4715 78.7344 21.0444 77.8906 21.0444H77.6797ZM83.6562 25.7397H84.9375C86.2656 25.7397 87.1198 26.2397 87.5 27.2397C87.8802 27.2397 88.3073 28.3075 88.7812 30.4429C88.4531 32.5783 87.4557 33.646 85.7891 33.646H84.7266C82.9766 33.646 81.8359 32.3647 81.3047 29.8022C81.3047 27.9585 82.0885 26.6043 83.6562 25.7397ZM83.4453 29.5835C83.8047 30.7241 84.5156 31.2944 85.5781 31.2944H85.7891C86.0651 31.1538 86.2786 31.0835 86.4297 31.0835V30.0132C86.1484 28.7319 85.7943 28.0913 85.3672 28.0913H84.2969C83.9792 28.0913 83.6953 28.5887 83.4453 29.5835ZM95.4375 13.7788H96.2969C96.5625 13.7788 97.1302 13.9924 98 14.4194L97.7891 14.8413L98.2188 14.6304C99.2135 15.0575 99.7109 15.9116 99.7109 17.1929V18.6929C99.0964 19.8335 98.3125 20.4038 97.3594 20.4038H96.9375C94.625 20.4038 93.2708 19.0496 92.875 16.3413C93.2708 14.633 94.125 13.7788 95.4375 13.7788ZM95.2266 15.9116C95.2266 16.3387 95.1562 16.5522 95.0156 16.5522C95.0156 17.4689 95.6562 18.0392 96.9375 18.2632H97.1484C97.3516 18.2632 97.5651 18.0496 97.7891 17.6226C97.7891 16.4819 97.2188 15.9116 96.0781 15.9116H95.2266ZM93.0859 22.5366C97.4193 22.8231 99.9844 22.9663 100.781 22.9663L101.422 23.8179V24.4585C101.422 24.6825 101.138 24.9689 100.57 25.3179C99.5911 25.172 98.8073 25.0991 98.2188 25.0991H98L98.2188 26.1694V28.0913L97.1484 28.3101H96.7188C96.3438 28.3101 95.9896 27.1694 95.6562 24.8882C93.375 24.8882 92.2344 24.4611 92.2344 23.6069C92.5104 22.9559 92.7943 22.5991 93.0859 22.5366ZM93.5156 27.2397C94.5156 27.2397 95.0156 28.2371 95.0156 30.2319C97.1302 30.5496 98.7682 30.9038 99.9297 31.2944L100.141 32.3647L99.5 33.2241C95.224 32.9793 93.0859 32.4793 93.0859 31.7241C92.8047 30.1772 92.6641 29.1799 92.6641 28.7319C92.8568 27.7371 93.1406 27.2397 93.5156 27.2397ZM105.297 15.4897C108 15.4897 109.352 16.9845 109.352 19.9741C109.352 21.3647 108.354 22.2892 106.359 22.7476C104.427 22.7476 103.146 21.396 102.516 18.6929C102.516 17.2762 103.229 16.2788 104.656 15.7007C105.083 15.7007 105.297 15.6304 105.297 15.4897ZM104.656 18.4741C104.969 19.3647 105.536 20.0783 106.359 20.6147C106.932 20.4012 107.219 20.1877 107.219 19.9741V19.5444C107.219 18.4559 106.932 17.8153 106.359 17.6226H105.297C104.938 17.6226 104.724 17.9064 104.656 18.4741ZM114.484 17.8335H114.695C115.091 17.8335 115.448 19.1877 115.766 21.896H115.547C116.12 25.6408 116.406 27.7788 116.406 28.3101C115.854 28.7371 115.427 28.9507 115.125 28.9507C114.271 28.9507 113.844 27.4533 113.844 24.4585C113.557 21.5418 113.271 19.7606 112.984 19.1147C112.984 18.2606 113.484 17.8335 114.484 17.8335ZM107.219 25.0991L107.641 25.3179L108.5 25.0991C110.349 25.2085 111.273 25.3517 111.273 25.5288L111.492 26.3804C111.492 26.9533 110.992 27.383 109.992 27.6694L107.859 27.4507H106.148L104.656 27.6694C104.656 27.5236 104.583 27.4507 104.438 27.4507C104.438 27.5965 104.367 27.6694 104.227 27.6694C104.227 27.383 103.799 27.0965 102.945 26.8101V25.9585C102.945 25.7502 103.159 25.5366 103.586 25.3179H105.938L107.219 25.0991ZM127.109 16.3491C127.854 16.4897 128.565 16.5601 129.242 16.5601H130.094C130.667 17.633 130.953 18.3465 130.953 18.7007L130.734 19.9741V20.6147C130.755 20.9012 131.753 21.7554 133.727 23.1772C133.867 23.4272 133.938 23.7137 133.938 24.0366C133.797 24.6043 133.37 24.8882 132.656 24.8882L129.672 22.9663C129.812 23.2424 129.883 23.4559 129.883 23.6069C129.414 24.8882 128.773 25.5288 127.961 25.5288C127.961 25.2424 127.747 25.0991 127.32 25.0991V23.8179C128.315 21.9689 128.812 20.2632 128.812 18.7007H124.758C124.414 18.4142 124.13 18.271 123.906 18.271C123.906 17.1304 124.477 16.5601 125.617 16.5601C126.044 16.5601 126.542 16.4897 127.109 16.3491ZM136.5 16.3491H136.93C137.591 16.3491 138.089 17.8439 138.422 20.8335H138.633L140.766 20.6147C140.484 19.3387 140.344 18.4142 140.344 17.8413V17.4194C140.625 16.8465 141.052 16.5601 141.625 16.5601C142.901 19.0184 143.539 22.4351 143.539 26.8101V27.021C143.258 27.5887 142.833 27.8726 142.266 27.8726C141.625 27.8726 141.268 27.1616 141.195 25.7397H141.406L141.195 25.3101V23.1772L140.984 22.7554L140.555 22.9663H138.633L138.844 24.4585H138.633L138.844 24.8882V26.3804C138.562 26.9481 138.135 27.2319 137.562 27.2319C136.854 27.2319 136.5 26.4507 136.5 24.8882H136.711L136.5 24.4585V24.0366C136.5 23.4533 136.286 21.1746 135.859 17.2007V16.9897C135.859 16.7866 136.073 16.5731 136.5 16.3491ZM146.781 15.0444H150.625C152.193 15.3778 152.977 16.5184 152.977 18.4663V20.1772C152.977 20.8179 151.409 21.3882 148.273 21.8882V22.0991C148.773 22.3856 150.698 22.672 154.047 22.9585L154.258 24.0288V24.8804L152.766 25.0913H150.625C147.49 24.8309 145.922 23.8335 145.922 22.0991C146.62 20.1043 148.117 19.1069 150.414 19.1069H150.844C150.698 17.9663 150.484 17.396 150.203 17.396H147.844C147.703 17.396 147.633 17.3257 147.633 17.1851C147.378 17.3257 146.664 17.4689 145.492 17.6147C145.492 17.5314 145.208 17.1746 144.641 16.5444V16.1147C144.964 15.4012 145.677 15.0444 146.781 15.0444ZM148.914 26.5913H149.555C150.128 26.5913 150.484 27.8022 150.625 30.2241H151.266V29.3726L151.055 28.3022H151.266L151.055 27.8726C151.055 27.0184 151.555 26.5913 152.555 26.5913C152.773 26.5913 153.057 26.8752 153.406 27.4429V30.4429H153.836C154.154 30.4429 154.438 30.37 154.688 30.2241C155.542 30.4272 155.969 30.8543 155.969 31.5054C155.875 31.8856 155.521 32.2424 154.906 32.5757H149.984C149.844 32.5757 149.773 32.5054 149.773 32.3647C149.628 32.3647 149.555 32.4351 149.555 32.5757C147.419 32.5757 146.352 32.0054 146.352 30.8647C146.492 30.4377 146.919 30.2241 147.633 30.2241H148.273V27.2319C148.273 27.0288 148.487 26.8153 148.914 26.5913Z" fill="black"/>
</svg>
