<svg width="169" height="43" viewBox="0 0 169 43" fill="none" xmlns="http://www.w3.org/2000/svg">
<path d="M4.10168 38.1188C4.10168 28.0873 -0.104184 7.76209 1.27939 7.48034C2.20239 6.87234 26.5697 7.48034 38.868 7.48034C46.5582 7.48034 53.7653 7.30598 61.3951 6.473C68.0718 5.74409 74.8894 4.4013 81.6361 4.4013C85.7375 4.4013 90.2017 4.06216 94.2694 3.54601C97.3555 3.15441 100.527 3.20487 103.631 2.99482C106.359 2.81019 108.912 2.3486 111.672 2.3486C117.185 2.3486 122.678 2.00648 128.188 2.00648H145.847C150.957 2.00648 156.269 1.63144 161.338 2.27257C162.39 2.40555 163.388 1.99604 163.388 3.20389C163.388 4.04859 163.743 4.8345 163.743 5.69374C163.743 7.21514 164.041 8.67652 164.098 10.1412C164.168 11.9758 164.755 13.5327 164.807 15.349C164.844 16.6345 165.409 17.8522 165.497 19.1313C165.625 20.9863 165.639 22.9427 165.95 24.7762C166.557 28.3544 168 31.843 168 35.5149C168 37.2496 164.972 36.5602 163.546 36.5602C160.238 36.5602 157.032 36.6086 153.79 36.9213C146.885 37.5873 139.791 37.2445 132.84 37.2445H104.498C96.9361 37.2445 89.4006 37.5866 81.8332 37.5866H81.7489C74.908 37.5866 67.6245 37.5865 60.863 38.6129C54.4921 39.58 47.9813 39.4984 41.6272 40.6656C38.0618 41.3206 34.2526 41.0077 30.6297 41.0077C24.6912 41.0077 18.7514 41.0447 12.813 41.0077C10.265 40.9919 6.62479 41.2632 4.29877 39.9814C3.87944 39.7503 4.10168 38.5434 4.10168 38.1188Z" fill="#05FF00" stroke="black" stroke-width="2" stroke-linecap="round"/>
<path d="M32.3838 15.9404C34.0062 15.9404 34.8174 17.0638 34.8174 19.3105V19.6865C34.8174 21.6826 33.9447 23.4919 32.1992 25.1143C33.1973 25.1143 33.6963 25.1758 33.6963 25.2988L34.0654 25.1143C34.2021 25.1143 34.3913 25.1758 34.6328 25.2988L35.7539 25.1143C36.2507 25.7432 36.499 26.1169 36.499 26.2354C36.2985 26.8597 35.9248 27.1719 35.3779 27.1719L35.002 26.9805C34.8789 26.9805 34.8174 27.0443 34.8174 27.1719C33.7692 27.0443 31.8984 26.9189 29.2051 26.7959L29.0137 25.8594V25.4834C31.7617 23.2139 33.1357 21.4684 33.1357 20.2471V18.9346C33.1357 18.2874 32.9466 17.9137 32.5684 17.8135H31.6318C31.0531 17.8135 30.3057 18.4378 29.3896 19.6865H29.0137C28.7038 19.6865 28.5169 19.4359 28.4531 18.9346C29.0592 16.9385 30.1188 15.9404 31.6318 15.9404H32.3838ZM41.9541 15.7559C44.4515 16.8268 45.7002 18.6361 45.7002 21.1836V21.9287C45.7002 23.3278 44.5768 24.5127 42.3301 25.4834H41.5781C39.3359 24.736 38.2148 23.9248 38.2148 23.0498C37.8867 23.0498 37.6361 22.5508 37.4629 21.5527V20.0557C37.8366 17.3122 39.0853 15.9404 41.209 15.9404C41.2682 15.9404 41.5166 15.8789 41.9541 15.7559ZM39.1445 20.4316V20.9922C39.1445 21.9264 39.9557 22.8014 41.5781 23.6172C43.2005 23.4167 44.0117 22.667 44.0117 21.3682V20.9922C44.0117 19.9212 43.4512 18.9232 42.3301 17.998C41.4232 17.5013 40.9242 17.2529 40.833 17.2529C40.0765 17.2529 39.5137 18.3125 39.1445 20.4316ZM50.5947 15.9404C52.2171 15.9404 53.0283 17.0638 53.0283 19.3105V19.6865C53.0283 21.6826 52.1556 23.4919 50.4102 25.1143C51.4082 25.1143 51.9072 25.1758 51.9072 25.2988L52.2764 25.1143C52.4131 25.1143 52.6022 25.1758 52.8438 25.2988L53.9648 25.1143C54.4616 25.7432 54.71 26.1169 54.71 26.2354C54.5094 26.8597 54.1357 27.1719 53.5889 27.1719L53.2129 26.9805C53.0898 26.9805 53.0283 27.0443 53.0283 27.1719C51.9801 27.0443 50.1094 26.9189 47.416 26.7959L47.2246 25.8594V25.4834C49.9727 23.2139 51.3467 21.4684 51.3467 20.2471V18.9346C51.3467 18.2874 51.1576 17.9137 50.7793 17.8135H49.8428C49.264 17.8135 48.5166 18.4378 47.6006 19.6865H47.2246C46.9147 19.6865 46.7279 19.4359 46.6641 18.9346C47.2702 16.9385 48.3298 15.9404 49.8428 15.9404H50.5947ZM58.292 14.4434H59.4199C60.4499 14.4434 61.1357 15.1908 61.4775 16.6855V17.4375C61.4775 17.8887 61.2269 18.3877 60.7256 18.9346C61.9743 19.9326 62.5986 20.9945 62.5986 22.1201C61.9333 24.7406 60.623 26.0508 58.668 26.0508H58.1074C56.9863 26.0508 56.362 25.5518 56.2344 24.5537V24.3623C56.2344 24.1846 56.4212 23.9977 56.7949 23.8018C58.0892 23.9248 58.8389 23.9863 59.0439 23.9863C60.165 23.6947 60.7256 22.9473 60.7256 21.7441C60.7256 21.2428 60.2904 20.8691 59.4199 20.623C58.4355 20.9967 57.8112 21.1836 57.5469 21.1836C57.0456 21.1836 56.7334 20.8714 56.6104 20.2471C57.2393 19.2354 58.112 18.4857 59.2285 17.998L59.7891 17.2529C59.7891 16.501 59.2285 16.125 58.1074 16.125H57.9229C57.9229 16.2845 57.5469 16.5967 56.7949 17.0615H56.0498C56.0498 16.8109 55.9245 16.6855 55.6738 16.6855V16.125C55.6738 15.6419 56.5465 15.0814 58.292 14.4434ZM72.3467 13.5273C72.93 13.5273 73.3037 14.4616 73.4678 16.3301H74.2129C74.4954 16.3301 74.7438 16.2686 74.958 16.1455C75.833 16.4189 76.2705 16.7288 76.2705 17.0752C76.2705 17.8226 76.0199 18.1963 75.5186 18.1963V18.7568C76.0563 18.7568 76.3685 19.6296 76.4551 21.375C75.9993 22.6237 75.1266 23.248 73.8369 23.248H73.4678C71.7223 22.6966 70.8496 21.8854 70.8496 20.8145V20.0693L71.2256 18.7568L70.8496 18.9482H70.4736C69.6032 18.9482 69.168 18.6361 69.168 18.0117C69.168 17.3372 69.4801 16.902 70.1045 16.7061C70.2275 16.7061 70.2891 16.7676 70.2891 16.8906C70.7858 16.7676 71.221 16.7061 71.5947 16.7061L71.4102 14.4639H71.5947L71.4102 14.0879C71.4102 13.8053 71.7223 13.6185 72.3467 13.5273ZM79.4424 15.209H80.0029C80.2855 15.209 80.5361 15.6442 80.7549 16.5146L80.5635 16.8906C80.6911 17.0957 80.7549 17.4079 80.7549 17.8271H82.4365L82.2451 16.7061C82.5003 15.9587 82.751 15.585 82.9971 15.585C83.9951 15.585 84.4941 16.7676 84.4941 19.1328C84.6172 19.1328 84.6787 19.8187 84.6787 21.1904V22.6875C84.0954 23.0612 83.6602 23.248 83.373 23.248L82.8057 22.4961V19.8779H81.124V20.2539L81.3154 21.1904H81.124L81.3154 21.5664V21.9355C81.0648 22.2409 80.9395 22.4915 80.9395 22.6875H80.0029C79.4333 22.6875 79.0596 20.8167 78.8818 17.0752V16.3301C78.9639 15.5827 79.1507 15.209 79.4424 15.209ZM72.9072 19.5088L72.7158 20.2539C72.9209 20.8783 73.2946 21.1904 73.8369 21.1904C74.3382 21.0036 74.5889 20.8167 74.5889 20.6299C74.3291 19.8825 73.8301 19.5088 73.0918 19.5088H72.9072ZM78.1367 23.6172H79.2578C80.4199 23.6172 81.1673 24.0547 81.5 24.9297C81.8327 24.9297 82.2064 25.8639 82.6211 27.7324C82.334 29.6009 81.4613 30.5352 80.0029 30.5352H79.0732C77.542 30.5352 76.5439 29.4141 76.0791 27.1719C76.0791 25.5586 76.765 24.3737 78.1367 23.6172ZM77.9521 26.9805C78.2666 27.9785 78.8887 28.4775 79.8184 28.4775H80.0029C80.2445 28.3545 80.4313 28.293 80.5635 28.293V27.3564C80.3174 26.2354 80.0075 25.6748 79.6338 25.6748H78.6973C78.4193 25.6748 78.1709 26.11 77.9521 26.9805ZM88.4453 13.1514H89.1973C89.4297 13.1514 89.9264 13.3382 90.6875 13.7119L90.5029 14.0811L90.8789 13.8965C91.7493 14.2702 92.1846 15.0176 92.1846 16.1387V17.4512C91.6468 18.4492 90.9609 18.9482 90.127 18.9482H89.7578C87.7344 18.9482 86.5495 17.7633 86.2031 15.3936C86.5495 13.8988 87.2969 13.1514 88.4453 13.1514ZM88.2607 15.0176C88.2607 15.3913 88.1992 15.5781 88.0762 15.5781C88.0762 16.3802 88.6367 16.8792 89.7578 17.0752H89.9424C90.1201 17.0752 90.307 16.8883 90.5029 16.5146C90.5029 15.5166 90.0039 15.0176 89.0059 15.0176H88.2607ZM86.3877 20.8145C90.1794 21.0651 92.4238 21.1904 93.1211 21.1904L93.6816 21.9355V22.4961C93.6816 22.6921 93.4333 22.9427 92.9365 23.248C92.0798 23.1204 91.3939 23.0566 90.8789 23.0566H90.6875L90.8789 23.9932V25.6748L89.9424 25.8662H89.5664C89.2383 25.8662 88.9284 24.8682 88.6367 22.8721C86.6406 22.8721 85.6426 22.4984 85.6426 21.751C85.8841 21.1813 86.1325 20.8691 86.3877 20.8145ZM86.7637 24.9297C87.6387 24.9297 88.0762 25.8024 88.0762 27.5479C89.9264 27.8258 91.3597 28.1357 92.376 28.4775L92.5605 29.4141L92 30.166C88.2585 29.9518 86.3877 29.5143 86.3877 28.8535C86.1416 27.5 86.0186 26.6273 86.0186 26.2354C86.1872 25.3649 86.4355 24.9297 86.7637 24.9297ZM97.0723 14.6484C99.4375 14.6484 100.62 15.9564 100.62 18.5723C100.62 19.7891 99.7474 20.598 98.002 20.999C96.3112 20.999 95.1901 19.8164 94.6387 17.4512C94.6387 16.2116 95.263 15.3389 96.5117 14.833C96.8854 14.833 97.0723 14.7715 97.0723 14.6484ZM96.5117 17.2598C96.7852 18.0391 97.2819 18.6634 98.002 19.1328C98.5033 18.946 98.7539 18.7591 98.7539 18.5723V18.1963C98.7539 17.2438 98.5033 16.6833 98.002 16.5146H97.0723C96.7578 16.5146 96.571 16.763 96.5117 17.2598ZM105.111 16.6992H105.296C105.642 16.6992 105.954 17.8841 106.232 20.2539H106.041C106.542 23.5306 106.793 25.4014 106.793 25.8662C106.31 26.2399 105.936 26.4268 105.672 26.4268C104.924 26.4268 104.551 25.1165 104.551 22.4961C104.3 19.944 104.049 18.3854 103.799 17.8203C103.799 17.0729 104.236 16.6992 105.111 16.6992ZM98.7539 23.0566L99.123 23.248L99.875 23.0566C101.493 23.1523 102.302 23.2777 102.302 23.4326L102.493 24.1777C102.493 24.679 102.056 25.055 101.181 25.3057L99.3145 25.1143H97.8174L96.5117 25.3057C96.5117 25.1781 96.4479 25.1143 96.3203 25.1143C96.3203 25.2419 96.2588 25.3057 96.1357 25.3057C96.1357 25.055 95.762 24.8044 95.0146 24.5537V23.8086C95.0146 23.6263 95.2015 23.4395 95.5752 23.248H97.6328L98.7539 23.0566ZM116.158 15.4004C116.81 15.5234 117.432 15.585 118.024 15.585H118.77C119.271 16.5238 119.521 17.1481 119.521 17.458L119.33 18.5723V19.1328C119.348 19.3835 120.221 20.1309 121.948 21.375C122.071 21.5938 122.133 21.8444 122.133 22.127C122.01 22.6237 121.636 22.8721 121.012 22.8721L118.4 21.1904C118.523 21.432 118.585 21.6188 118.585 21.751C118.175 22.8721 117.614 23.4326 116.903 23.4326C116.903 23.182 116.716 23.0566 116.343 23.0566V21.9355C117.213 20.3177 117.648 18.8252 117.648 17.458H114.101C113.8 17.2074 113.551 17.082 113.355 17.082C113.355 16.084 113.854 15.585 114.853 15.585C115.226 15.585 115.661 15.5234 116.158 15.4004ZM124.375 15.4004H124.751C125.33 15.4004 125.765 16.7083 126.057 19.3242H126.241L128.107 19.1328C127.861 18.0163 127.738 17.2074 127.738 16.7061V16.3369C127.984 15.8356 128.358 15.585 128.859 15.585C129.976 17.736 130.534 20.7256 130.534 24.5537V24.7383C130.288 25.235 129.917 25.4834 129.42 25.4834C128.859 25.4834 128.547 24.8613 128.483 23.6172H128.668L128.483 23.2412V21.375L128.299 21.0059L127.923 21.1904H126.241L126.426 22.4961H126.241L126.426 22.8721V24.1777C126.18 24.6745 125.806 24.9229 125.305 24.9229C124.685 24.9229 124.375 24.2393 124.375 22.8721H124.56L124.375 22.4961V22.127C124.375 21.6165 124.188 19.6227 123.814 16.1455V15.9609C123.814 15.7832 124.001 15.5964 124.375 15.4004ZM133.371 14.2588H136.734C138.106 14.5505 138.792 15.5485 138.792 17.2529V18.75C138.792 19.3105 137.42 19.8096 134.677 20.2471V20.4316C135.114 20.6823 136.798 20.9329 139.729 21.1836L139.913 22.1201V22.8652L138.607 23.0498H136.734C133.991 22.8219 132.619 21.9492 132.619 20.4316C133.23 18.6862 134.54 17.8135 136.55 17.8135H136.926C136.798 16.8154 136.611 16.3164 136.365 16.3164H134.301C134.178 16.3164 134.116 16.2549 134.116 16.1318C133.893 16.2549 133.269 16.3802 132.243 16.5078C132.243 16.4349 131.995 16.1227 131.498 15.5713V15.1953C131.781 14.571 132.405 14.2588 133.371 14.2588ZM135.237 24.3623H135.798C136.299 24.3623 136.611 25.4219 136.734 27.541H137.295V26.7959L137.11 25.8594H137.295L137.11 25.4834C137.11 24.736 137.548 24.3623 138.423 24.3623C138.614 24.3623 138.863 24.6107 139.168 25.1074V27.7324H139.544C139.822 27.7324 140.07 27.6686 140.289 27.541C141.036 27.7188 141.41 28.0924 141.41 28.6621C141.328 28.9948 141.018 29.307 140.48 29.5986H136.174C136.051 29.5986 135.989 29.5371 135.989 29.4141C135.862 29.4141 135.798 29.4756 135.798 29.5986C133.929 29.5986 132.995 29.0996 132.995 28.1016C133.118 27.7279 133.492 27.541 134.116 27.541H134.677V24.9229C134.677 24.7451 134.864 24.5583 135.237 24.3623Z" fill="black"/>
</svg>
