<svg width="290" height="82" viewBox="0 0 290 82" fill="none" xmlns="http://www.w3.org/2000/svg">
<path d="M233.518 1.01992C238.466 1.01992 244.138 1.92477 249.065 2.45744C250.033 2.55937 252.957 3.02126 253.566 3.9358C254.09 4.72204 255.37 4.30506 256.079 4.79578C257.075 5.48555 258.233 5.68105 259.223 6.34106C261.009 7.5312 262.937 8.49218 264.45 10.0901C265.233 10.9159 266.347 11.5749 267.205 12.3878C268.026 13.1654 268.902 14.0539 269.624 14.9275C270.31 15.7586 270.607 16.7652 271.303 17.588C271.801 18.1762 272.74 19.0695 272.996 19.7649C273.66 21.5664 274.753 23.0599 275.415 24.8576C275.79 25.875 275.55 27.3021 275.55 28.3647V33.0677C275.55 38.662 274.115 43.8756 271.68 48.8565C271.031 50.1839 269.422 51.1162 268.347 52.0545C267.002 53.2289 265.956 54.1816 264.424 55.1451C260.377 57.6889 256.485 60.2325 252.196 62.4012C248.465 64.2873 244.835 66.3491 241.07 68.1523C239.414 68.945 237.281 69.4908 235.507 69.8992C232.075 70.689 228.635 71.7027 225.133 72.1298C216.395 73.1953 207.793 74.71 199.065 75.8116C194.547 76.3818 190.202 76.9082 185.735 77.8272C181.6 78.6778 177.348 79.5365 173.131 79.8159C165.085 80.349 157.093 80.3534 149.025 80.3534H135.977C131.478 80.3534 127.011 79.7024 122.513 79.5068C117.377 79.2835 112.227 79.3859 107.087 79.3859C102.848 79.3859 98.5811 79.6143 94.3887 78.9156C88.4678 77.9287 82.3982 77.7622 76.45 76.8328C73.9074 76.4355 71.4834 75.6048 68.9655 75.086C66.4112 74.5596 63.8439 74.2174 61.3466 73.4466C55.6765 71.6966 49.6764 70.3076 44.4425 67.3999C40.3611 65.1324 35.9454 62.8679 32.8328 59.3106C29.2457 55.2112 25.6759 50.319 23.7626 45.1881C22.3486 41.396 22.5533 37.7 22.5533 33.6993C22.5533 30.8642 23.4068 26.9479 25.6976 25.0188C28.7772 22.4254 31.744 19.7879 34.9962 17.3596C38.8107 14.5114 42.4199 11.9391 46.8747 10.1572C50.4943 8.70938 54.5436 8.30241 58.3232 7.41604C63.5887 6.18121 68.8619 5.09779 74.2598 4.64797C90.3776 3.30482 106.512 1.06543 122.714 1.01992C138.669 0.975103 154.624 1.01992 170.578 1.01992H196.485H217.071H233.518Z" fill="white" stroke="black" stroke-width="2" stroke-linecap="round"/>
<path d="M68.1488 20.1893C68.3936 20.1893 68.8207 20.3324 69.4302 20.6188C69.5552 20.6188 70.1255 20.5457 71.1411 20.3997C74.4171 20.3991 76.0553 21.1826 76.0556 22.7503C76.0557 23.3389 76.1287 23.9092 76.2746 24.4612C76.2753 27.8831 75.4917 29.5942 73.924 29.5945L72.635 29.5947C69.9266 29.5952 68.5723 28.7413 68.572 27.033C68.0037 24.0748 67.7195 22.1504 67.7193 21.2597C68.0057 20.7961 68.1489 20.4393 68.1488 20.1893ZM79.266 20.1872L80.1176 20.1871C80.1176 20.4006 80.3312 20.6844 80.7584 21.0385L80.7591 24.6791C83.1862 24.9079 84.3998 25.3347 84.3999 25.9597L84.4 26.6003C84.4001 26.8035 84.184 27.017 83.7517 27.2411C82.5434 27.2413 81.6189 27.0983 80.9782 26.8119C80.9782 26.9578 80.9053 27.0307 80.7595 27.0307L80.9783 27.4525L80.9787 29.3822C80.9787 29.5229 80.9058 29.5932 80.76 29.5932L80.9788 30.0229L80.9789 30.6635C80.979 30.8562 80.6223 31.213 79.9088 31.734C79.0546 31.4373 78.6274 30.867 78.6272 30.0233L78.6256 21.4686C78.714 20.6144 78.9275 20.1873 79.266 20.1872ZM70.0712 22.7515C70.4155 25.7462 70.7726 27.2435 71.1423 27.2435C72.4028 27.3838 73.1867 27.454 73.4939 27.454C73.7803 26.8966 73.9234 26.1127 73.9232 25.1023L73.9232 24.8914L73.704 22.7508C73.5634 22.7508 73.4931 22.8237 73.4931 22.9696L72.4227 22.751L70.0712 22.7515ZM86.9998 16.9748L87.2107 16.9748C87.3518 19.4019 87.5656 20.6154 87.852 20.6153C88.2947 20.6152 89.6489 20.5421 91.9145 20.3958L91.9142 18.9036L92.3436 17.4035C93.1978 17.4034 93.625 17.8304 93.6251 18.6845L93.6254 20.3955L93.8364 20.3954C95.602 20.2545 96.529 20.184 96.6176 20.184L96.6173 18.473C96.6172 18.2699 96.8307 18.0563 97.2578 17.8323L98.3281 17.8321C98.6147 18.9675 98.7582 20.3216 98.7585 21.8945L98.7593 25.957C98.7595 26.9518 98.2596 27.4493 97.2596 27.4495C97.1137 27.4495 96.8298 27.1657 96.4078 26.5981L96.6184 24.4574L96.618 22.5355L96.407 22.1059C94.4123 22.4344 93.4149 22.6481 93.4149 22.7471C92.5977 25.3149 91.3141 26.599 89.5641 26.5994L89.1344 26.3807L88.7047 26.5995C86.7098 26.1051 85.7123 25.1079 85.712 23.6079C85.5711 22.2381 85.5005 20.7408 85.5002 19.1158L85.5001 18.4751C85.4999 17.4751 85.9998 16.975 86.9998 16.9748ZM87.8524 22.5372C87.8524 22.6778 87.7821 22.7481 87.6415 22.7482C87.8969 23.8887 88.4673 24.4589 89.3528 24.4588C90.4673 24.1357 91.1781 23.6381 91.4853 22.9662L91.4852 22.5365L90.8446 22.5366C90.3342 22.5367 89.6936 22.6072 88.9227 22.7479C88.6883 22.6073 88.3316 22.5371 87.8524 22.5372ZM94.908 27.4499L95.7674 27.4498C96.1372 27.4497 96.4211 27.9496 96.6192 28.9496C96.266 33.7934 95.3393 36.2155 93.8393 36.2158L91.7065 36.2162C90.0555 36.2165 88.9847 33.7948 88.4942 28.9511C88.4941 28.3782 88.7805 27.9511 89.3534 27.6697L89.994 27.6696C90.4211 27.6695 90.778 28.7372 91.0649 30.8725L94.479 30.8719C94.4789 30.4396 94.5517 29.9422 94.6974 29.3797L94.6972 28.0906C94.8378 28.0906 94.9081 27.877 94.908 27.4499ZM91.4871 32.7943L91.4872 33.224C91.4873 33.448 91.7738 33.7344 92.3468 34.0832L93.4171 34.083C93.8441 33.9371 94.0576 33.5074 94.0575 32.7938L93.6278 33.0127L91.9169 33.013L91.4871 32.7943ZM102.641 18.4875C105.344 18.487 106.696 19.9816 106.696 22.9711C106.696 24.3618 105.699 25.2864 103.705 25.7451C101.772 25.7455 100.491 24.3942 99.8601 21.6912C99.8598 20.2745 100.573 19.277 102 18.6986C102.427 18.6985 102.641 18.6282 102.641 18.4875ZM102.001 21.472C102.313 22.3626 102.881 23.076 103.704 23.6123C104.277 23.3987 104.563 23.1851 104.563 22.9715L104.563 22.5419C104.563 21.4533 104.277 20.8127 103.704 20.6201L102.641 20.6203C102.282 20.6204 102.068 20.9043 102.001 21.472ZM111.829 20.8296L112.04 20.8295C112.435 20.8294 112.792 22.1835 113.111 24.8918L112.892 24.8919C113.466 28.6365 113.752 30.7745 113.752 31.3058C113.2 31.7329 112.773 31.9466 112.471 31.9466C111.617 31.9468 111.19 30.4495 111.189 27.4547C110.902 24.5381 110.615 22.7569 110.329 22.1111C110.329 21.2569 110.829 20.8297 111.829 20.8296ZM104.564 28.0965L104.986 28.3152L105.846 28.0963C107.695 28.2053 108.619 28.3484 108.619 28.5255L108.838 29.377C108.838 29.9499 108.338 30.3797 107.338 30.6663L105.205 30.448L103.495 30.4483L102.002 30.6673C102.002 30.5215 101.929 30.4486 101.784 30.4486C101.784 30.5945 101.713 30.6674 101.573 30.6674C101.573 30.381 101.145 30.0946 100.291 29.8083L100.291 28.9567C100.291 28.7484 100.505 28.5348 100.932 28.316L103.283 28.3155L104.564 28.0965ZM124.883 17.8193L124.883 18.038L125.312 17.8192L125.531 17.8192C126.328 17.819 126.826 18.1757 127.024 18.8892C126.852 19.8892 126.495 20.3893 125.954 20.3894L124.461 20.1709C124.211 20.3168 123.925 20.3898 123.602 20.3898L123.602 20.8117C123.602 21.9575 124.029 22.5304 124.884 22.5302C125.842 22.53 126.628 22.7434 127.243 23.1704L127.024 21.2408C127.024 19.6001 127.737 18.6729 129.164 18.4591L130.445 18.4589C130.591 18.4588 130.664 18.5317 130.664 18.6776L131.094 18.4587L132.156 18.4585C132.365 18.4585 132.581 18.672 132.805 19.099L132.805 19.5287C132.805 20.5287 132.235 21.0288 131.094 21.0291C130.073 20.8834 129.503 20.8106 129.383 20.8106L129.384 22.0997C129.384 22.9539 130.024 23.3808 131.306 23.3806C131.509 23.3805 131.722 23.594 131.946 24.0211L131.946 24.2398C131.947 25.0055 131.663 25.5029 131.095 25.7322L129.595 25.7325C128.418 25.7327 127.634 24.949 127.243 23.3813L127.024 23.3814C127.025 24.522 126.811 25.0924 126.384 25.0924L125.744 25.0926C122.749 25.0931 121.251 23.8825 121.251 21.4606L121.25 20.1715C121.25 19.833 121.464 19.1923 121.891 18.2495L122.32 18.4604L122.32 18.0385L123.82 18.0382L124.883 17.8193ZM136.867 18.4577L137.078 18.4576C137.302 18.4576 137.589 18.744 137.938 19.3168C138.079 22.1189 138.15 23.973 138.15 24.8793L137.939 24.8793C137.939 25.02 138.009 25.0903 138.15 25.0902C138.15 25.4652 137.936 26.2491 137.51 27.4419L136.439 27.4421C136.215 27.4422 135.931 27.1584 135.588 26.5907C135.587 26.2678 135.658 25.9813 135.798 25.7313L135.587 25.3017C135.728 24.5308 135.798 23.8902 135.798 23.3797L133.017 23.3803C132.793 23.3803 132.506 23.0965 132.157 22.5289L132.157 22.3101C132.251 21.4559 132.467 21.0288 132.805 21.0287L133.876 21.0285C134.016 21.0285 134.087 21.0988 134.087 21.2394L134.516 21.0284L135.586 21.0282C135.586 20.7418 135.657 20.5985 135.797 20.5985L135.586 20.1688L135.586 19.747C135.586 18.8876 136.013 18.4578 136.867 18.4577ZM129.596 28.7325L134.518 29.3722C135.231 29.9033 135.588 30.7574 135.589 31.9345C135.589 34.1897 135.019 35.4033 133.878 35.5754C133.165 35.3776 132.808 34.8777 132.808 34.0756L132.808 33.8647C132.808 33.7293 132.948 33.1589 133.229 32.1537L133.229 31.513L133.018 31.5131L130.026 31.2949L129.596 31.5137C128.742 31.1441 128.315 30.6442 128.315 30.014C128.455 29.7379 128.526 29.5243 128.526 29.3733C128.385 29.3733 128.315 29.3004 128.315 29.1546C129.169 29.0555 129.596 28.9148 129.596 28.7325ZM142.453 16.7691C143.166 16.769 143.523 16.9095 143.523 17.1908L143.953 16.9798C145.802 17.568 146.727 18.5652 146.727 19.9714L146.727 21.4636C146.727 22.7397 146.017 23.7372 144.595 24.4562L143.736 24.4564C141.574 24.4568 140.079 23.1758 139.25 20.6135L139.25 19.7619C139.25 18.6317 139.747 17.7748 140.742 17.1913L140.961 17.1913L141.39 17.4099L141.39 17.1912C141.245 17.1912 141.172 17.1209 141.172 16.9803C141.281 16.9803 141.708 16.9099 142.453 16.7691ZM141.391 19.5427L141.391 19.7615C141.391 20.9698 142.173 21.8238 143.735 22.3236C144.339 22.3234 144.696 21.6827 144.805 20.4015C144.805 19.5473 143.88 19.1204 142.031 19.1208L141.813 19.1208C141.531 19.1625 141.391 19.3032 141.391 19.5427ZM140.322 26.1679C143.478 26.3132 145.186 26.3858 145.447 26.3857L145.877 26.1669C148.012 26.1665 149.08 26.7366 149.08 27.8772L149.08 28.0882C149.08 28.2028 148.867 28.4163 148.44 28.7289C142.314 28.5374 139.252 28.2541 139.252 27.8791L139.252 26.5978L140.322 26.1679ZM141.174 30.8709L141.393 30.8709C141.612 30.8708 141.896 31.1546 142.245 31.7223C142.245 31.8681 142.174 31.941 142.034 31.9411C142.034 33.6494 142.389 34.5035 143.097 34.5034L144.597 34.714C145.159 34.5733 145.657 34.5029 146.089 34.5028L146.089 34.7137L146.519 34.5027C146.743 34.5027 147.027 34.7865 147.37 35.3541L147.371 36.4244L145.879 36.8544L143.957 36.8548C141.389 36.8552 140.105 36.2852 140.105 35.1446L140.104 31.7227C140.115 31.53 140.471 31.246 141.174 30.8709ZM163.843 16.7495L163.844 16.9604L164.273 16.7494L164.703 16.9602C164.979 16.8196 165.192 16.7492 165.343 16.7492C166.344 18.0302 166.844 19.1708 166.844 20.1708L166.844 21.8817C166.845 22.9703 166.558 23.6109 165.985 23.8037C164.845 23.6633 164.274 23.0931 164.274 22.0931L164.493 21.0228C164.347 20.028 164.13 19.5307 163.844 19.5307L163.422 19.5308C162.657 19.5309 160.946 19.6719 158.289 19.9536C157.909 19.86 157.552 19.5059 157.219 18.8913L157.219 18.6726C157.219 17.532 157.859 16.9615 159.14 16.9613L161.711 16.9608L163.843 16.7495ZM160.852 21.6641L161.071 21.664C162.212 21.6638 162.782 22.3773 162.782 23.8043L162.782 24.6637C162.783 24.9814 162.71 25.2653 162.564 25.5153C162.71 25.7653 162.783 26.0491 162.783 26.3668L162.783 27.2262L164.275 27.2259C164.421 27.2259 164.494 27.2962 164.494 27.4368L164.916 27.2258L167.267 27.2254C167.981 27.5377 168.338 28.0351 168.338 28.7174C168.338 29.4726 167.625 29.9024 166.198 30.0068L165.346 30.007C159.643 30.0081 156.791 29.6518 156.791 28.9383L156.58 27.868C156.845 27.1544 157.416 26.7975 158.291 26.7974L160.213 27.0158L160.213 26.797C160.213 26.6929 160.142 26.2658 160.001 25.5158L160.212 23.3751C160.071 23.0991 160.001 22.8856 160.001 22.7346C160.277 22.0835 160.561 21.7266 160.852 21.6641ZM161.924 30.8592L162.143 30.8592C165.56 30.8585 167.268 31.9988 167.269 34.2801C167.108 36.9884 165.967 38.3428 163.848 38.3432L163.637 38.3433C161.767 38.3436 160.556 36.9897 160.003 34.2814L160.003 33.4299C160.003 32.6642 160.643 31.8074 161.924 30.8592ZM162.354 33.4294L162.355 34.281C162.355 34.5049 162.782 34.932 163.636 35.562C164.157 35.4213 164.584 35.1373 164.917 34.7102C164.917 33.856 164.276 33.4291 162.995 33.4293L162.354 33.4294ZM173.922 16.7632C176.062 17.5336 177.133 18.7444 177.133 20.3954C177.274 20.3954 177.344 20.536 177.344 20.8172C176.964 21.9527 176.11 22.9503 174.782 23.8099L174.142 23.81C171.86 23.3105 170.72 22.3862 170.719 21.0372L170.719 19.756C170.719 18.4226 171.786 17.4251 173.922 16.7632ZM173.281 18.8961L172.641 19.7556L172.641 20.8181C173.527 21.3909 174.167 21.6772 174.563 21.6771L175.204 20.8176L175.204 20.3958C174.453 19.3959 173.813 18.896 173.281 18.8961ZM170.08 25.9514C176.632 26.4085 179.908 27.0485 179.908 27.8714L179.908 28.9418C179.591 28.9418 179.307 29.1554 179.057 29.5825L177.986 29.364L177.346 29.3641C177.773 30.9734 177.987 32.3275 177.987 33.4265L177.987 33.6374C177.743 33.6375 177.386 33.8511 176.917 34.2783C176.032 34.2784 175.461 32.7134 175.205 29.5833L175.205 29.3645L175.424 29.3645C175.341 28.7968 174.77 28.513 173.713 28.5132C173.572 28.7893 173.502 29.0029 173.502 29.1539C173.502 29.5966 173.43 30.9508 173.284 33.2164C173.003 33.2165 172.862 33.3571 172.862 33.6384L171.362 33.6387C171.362 33.321 171.292 33.0371 171.151 32.7871C171.437 30.3288 171.58 28.8339 171.58 28.3027L170.51 28.3029C170.317 28.3029 169.96 27.9462 169.439 27.2328L169.439 26.8031C169.725 26.2353 169.939 25.9514 170.08 25.9514ZM184.414 17.6206L184.633 17.6206C184.914 18.6257 185.128 19.6934 185.274 20.8236L186.977 20.8232C187.831 20.8231 188.258 21.1772 188.259 21.8855C188.259 22.4584 187.832 22.7449 186.977 22.7451C187.978 23.7814 188.478 24.7058 188.478 25.5183C188.478 25.6641 188.405 25.737 188.259 25.7371L188.478 26.1589C187.926 28.1538 186.999 29.1514 185.697 29.1516C183.682 29.152 182.4 27.871 181.853 25.3086C181.941 24.4856 182.155 23.845 182.493 23.3866C181.498 23.3868 181.001 23.2436 181.001 22.9572L181.001 22.5275C181.001 21.5327 181.711 21.0352 183.133 21.0349L183.133 18.9021C183.133 18.0479 183.56 17.6208 184.414 17.6206ZM193.383 19.7517L193.813 19.7516C194.24 19.7516 194.597 20.8192 194.884 22.9546C194.967 22.9545 195.892 22.8841 197.657 22.7431L198.298 23.5945C198.298 24.5945 197.23 25.0947 195.095 25.0951L195.306 26.5873L195.306 27.017C195.307 27.7774 195.023 28.2748 194.455 28.5093L193.814 28.5094C193.252 28.5096 192.824 26.1607 192.532 21.4628C192.391 21.4628 192.321 21.1764 192.321 20.6035L193.383 19.7517ZM184.415 24.2378L183.993 24.8785L183.994 25.3082C183.994 26.0217 184.348 26.519 185.056 26.8002L186.127 26.8C186.127 26.6958 186.197 26.2687 186.337 25.5187C186.337 24.8416 185.697 24.4146 184.415 24.2378ZM192.533 29.1503C194.382 29.15 195.307 29.8607 195.307 31.2826L195.307 32.3529C195.308 33.7748 194.099 34.486 191.683 34.4864L191.464 34.9161L191.464 35.1271C193.256 34.9861 194.323 34.9156 194.667 34.9155C195.381 35.1446 195.738 35.5716 195.738 36.1966C195.004 36.9311 193.722 37.3584 191.894 37.4786C190.045 37.2497 189.121 36.4661 189.12 35.1275C189.12 33.5338 190.471 32.5387 193.175 32.1424L193.174 31.7127C193.174 31.4262 193.031 31.283 192.745 31.2831C192.245 31.2832 190.609 31.4267 187.839 31.7137C187.552 31.2502 187.409 30.8935 187.409 30.6435C188.028 29.6486 189.666 29.1509 192.322 29.1504L192.533 29.1503ZM203.023 18.2499L203.664 18.2498C203.862 18.2602 204.146 18.6169 204.516 19.3199C204.235 20.2262 204.094 20.7966 204.094 21.031C207.105 22.671 208.743 23.7384 209.009 24.2332L209.009 24.6628C209.009 24.866 208.796 25.0795 208.369 25.3036L207.298 25.3038C204.986 24.0959 203.631 23.3123 203.235 22.953C202.954 24.5208 202.6 25.6614 202.173 26.3751C201.033 26.2607 200.462 25.904 200.462 25.3051C201.701 20.6017 202.555 18.25 203.023 18.2499ZM200.033 28.7192L207.299 28.7179C209.434 28.7174 210.502 29.2172 210.502 30.2172C210.289 30.785 210.075 31.0689 209.862 31.0689L209.221 31.0691L206.659 30.8586C206.659 30.9992 206.588 31.0695 206.448 31.0696L206.659 31.4992L206.659 34.9211C206.659 35.1242 206.446 35.3378 206.019 35.5618L205.16 35.562C204.732 35.4163 204.519 34.9866 204.519 34.2731L204.518 30.859L200.463 30.8598C199.75 30.5734 199.393 30.0032 199.393 29.149L200.033 28.7192ZM216.508 16.7552L217.359 16.755C218.786 16.7548 219.784 17.8223 220.352 19.9576L220.352 21.2388C219.571 22.6661 217.933 23.3799 215.438 23.3804L215.439 23.5913L219.501 23.5906C220.267 23.5904 220.694 23.9471 220.782 24.6606C220.783 25.5148 219.929 25.942 218.22 25.9424L218.431 26.3642L218.432 27.8642L220.572 27.8638C221.426 27.8636 221.853 28.2906 221.854 29.1448L221.854 29.3557C221.791 29.6526 221.435 29.9392 220.784 30.2153C218.159 30.07 215.95 29.9975 214.158 29.9978C213.507 29.7219 213.151 29.4381 213.088 29.1465L213.088 28.2949C213.088 28.0866 213.304 27.873 213.736 27.6541L216.299 27.6537L216.08 27.224L216.08 25.9428L215.439 25.9429C213.59 25.4276 212.665 24.5736 212.665 23.3809L212.665 22.3106C212.847 21.4928 214.628 20.9222 218.008 20.5986L218.008 19.7471C218.008 19.4242 217.508 19.1378 216.508 18.888C215.893 19.1746 214.753 19.318 213.086 19.3183L212.664 19.3184C212.195 18.8914 211.839 18.6779 211.594 18.678C211.594 17.5374 212.021 16.967 212.875 16.9668C213.969 16.826 215.179 16.7554 216.508 16.7552ZM215.44 31.4976L218.651 31.497C220.359 31.4966 221.214 32.3507 221.214 34.059C221.214 36.1944 220.858 37.2622 220.144 37.2623L219.504 37.2624C219.28 37.2625 218.996 36.9787 218.652 36.411C218.761 34.9839 218.901 34.2704 219.073 34.2703C218.933 33.9943 218.862 33.7808 218.862 33.6297L217.151 33.6301C216.797 33.6301 216.157 33.7735 215.23 34.0601C214.464 33.7738 214.037 33.4171 213.948 32.99C213.948 31.9952 214.445 31.4978 215.44 31.4976ZM105.083 44.1902L105.294 44.1902L105.724 45.6823L105.724 47.8229L108.506 47.8224C108.709 47.8223 108.922 48.0358 109.146 48.4629L109.146 48.6738C109.147 49.4394 108.79 49.8692 108.076 49.9631C108.504 50.6922 108.717 51.4031 108.717 52.0958C108.431 54.2364 107.361 55.307 105.507 55.3073L105.085 55.3074C103.09 54.7088 102.093 53.7819 102.092 52.5267L102.092 52.3158C102.092 51.6178 102.306 50.9043 102.733 50.175L101.662 50.3862L101.233 50.3862C101.03 50.3863 100.816 50.1728 100.592 49.7457L100.592 49.1051L100.803 48.6754C100.662 48.6754 100.592 48.6051 100.592 48.4645C100.878 48.4644 101.021 48.3212 101.021 48.0347L102.092 48.0345L103.584 47.8233L103.583 46.1124C103.583 44.8311 104.083 44.1904 105.083 44.1902ZM104.444 51.0263C104.157 51.3753 104.014 51.6618 104.014 51.8857C104.014 52.4534 104.585 52.8804 105.725 53.1666C106.293 52.953 106.577 52.7394 106.577 52.5259L106.577 51.8852C106.577 51.5259 105.866 51.2395 104.444 51.0263ZM103.796 55.7295L104.445 55.7294C104.788 56.0158 105.072 56.159 105.296 56.1589L105.297 58.5105C105.297 58.8334 105.367 59.1198 105.508 59.3698C105.367 59.6459 105.297 59.8594 105.297 60.0105L106.367 60.0103L106.367 57.229C106.367 56.4634 106.65 55.9633 107.218 55.7289L107.648 55.7288C108.221 55.7287 108.507 56.5854 108.508 58.2989L108.508 60.0099L110 60.0096C110.802 60.0094 111.302 60.3661 111.5 61.0796C111.5 61.5067 111.071 61.9339 110.211 62.3611C107.982 62.2157 106.344 62.1431 105.297 62.1433L102.305 62.3626C101.732 62.2169 101.446 61.7898 101.446 61.0815C101.445 60.368 102.089 60.0111 103.375 60.0108L103.156 59.5812L103.156 56.7999C103.583 56.3363 103.796 55.9795 103.796 55.7295ZM120.505 46.1092C121.5 46.8486 121.998 48.4162 121.998 50.812C122.285 50.812 122.428 51.4526 122.428 52.7338C122.283 53.3068 121.856 53.5933 121.147 53.5934C120.137 53.5936 119.423 51.9531 119.006 48.672L118.576 48.8908C118.316 48.8908 116.605 48.9615 113.443 49.1027C112.876 48.9622 112.592 48.5351 112.592 47.8216L112.591 47.181C112.591 46.957 112.875 46.6705 113.443 46.3214C117.323 46.1801 119.677 46.1093 120.505 46.1092ZM124.99 46.538C126.417 46.5378 127.131 48.1756 127.131 51.4517C129.699 51.4512 130.983 51.878 130.983 52.7322L130.983 52.951C130.785 53.5395 130.429 53.9667 129.913 54.2324L127.561 54.2328L127.773 56.3734L127.773 57.225C127.773 58.225 127.346 58.7251 126.492 58.7252C125.534 58.7254 124.963 57.1578 124.78 54.0224C124.639 50.986 124.352 48.9887 123.92 48.0304C124.211 47.1449 124.568 46.6475 124.99 46.538ZM116.655 52.313L117.295 52.3129C117.91 52.3128 118.481 53.8075 119.007 56.797C120.221 56.6561 121.148 56.5856 121.788 56.5855C122.502 56.7833 122.859 57.2832 122.859 58.0853C122.859 59.0801 121.005 59.5778 117.297 59.5785L116.016 59.5788C115.151 59.5789 114.51 59.0817 114.093 58.0869C114.276 57.0869 114.773 56.5868 115.585 56.5867L116.445 56.7974L116.445 56.5865C116.012 55.8782 115.796 54.6674 115.796 52.9538L116.655 52.313ZM144.044 46.1204L144.896 46.1202C145.422 46.1201 145.779 47.7581 145.967 51.0341C146.16 51.034 146.944 50.8907 148.319 50.6039C148.965 50.8799 149.319 51.1637 149.381 51.4553L149.381 52.0959C149.382 52.8095 148.314 53.1664 146.178 53.1668L146.179 53.3856C146.179 54.1616 146.322 55.8699 146.609 58.5105C146.333 59.1616 146.047 59.5184 145.75 59.581L145.109 59.5811C144.406 59.5812 143.979 57.2298 143.827 52.5267C143.65 52.5267 143.509 50.5319 143.404 46.5424L144.044 46.1204ZM137.631 48.895C138.485 48.8949 138.912 49.3948 138.912 50.3948L138.913 55.5198C138.913 55.7229 138.7 55.9365 138.273 56.1605L137.421 56.1607C137.213 56.1607 136.999 55.9472 136.78 55.5202L136.78 51.2467C134.498 51.3878 133.288 51.5313 133.147 51.6771C132.496 51.4012 132.139 51.1148 132.076 50.8179L132.076 49.9664C132.076 49.4664 133.928 49.1093 137.631 48.895ZM160.091 43.5627L160.091 43.7736L160.513 43.5626L162.434 43.5622C162.716 43.5622 163.002 43.9892 163.294 44.8433C163.008 45.7184 162.865 46.2861 162.865 46.5465C165.349 47.395 166.631 48.0354 166.709 48.4677C166.709 48.6135 166.636 48.6864 166.49 48.6865L166.709 49.1083C166.709 49.3114 166.495 49.525 166.068 49.749L165.85 49.7491C165.371 49.7492 164.162 49.252 162.224 48.2576C161.98 48.2576 161.623 49.0389 161.155 50.6015L160.733 50.8204L160.514 50.8204C159.78 50.8205 159.355 50.6071 159.24 50.18C159.24 49.6644 159.808 48.0992 160.943 45.4844L160.732 45.4844C158.94 45.6254 157.872 45.6959 157.529 45.696C157.253 45.5554 157.039 45.4851 156.888 45.4851L156.888 44.4148C156.888 43.9461 157.955 43.662 160.091 43.5627ZM163.936 50.1791L164.577 51.0306L164.577 53.1634L166.921 53.1629C167.775 53.1628 168.202 53.5898 168.202 54.444C168.202 54.6783 167.775 54.9623 166.921 55.2958C166.77 55.2958 166.556 55.2255 166.28 55.0849C164.296 55.2259 163.015 55.2965 162.437 55.2966C160.447 55.297 159.452 54.943 159.452 54.2347C159.666 53.6669 159.879 53.383 160.093 53.383L162.655 53.3825L162.655 50.82C162.795 50.3929 163.222 50.1793 163.936 50.1791ZM163.937 55.9369C164.364 56.4525 164.578 57.0228 164.578 57.6478L166.281 57.6474C166.63 57.9338 166.914 58.077 167.133 58.077L167.133 59.1395C167.133 59.4259 166.849 59.5692 166.281 59.5693C166.599 59.9547 166.883 60.6656 167.133 61.702C166.8 63.2697 166.019 64.0537 164.79 64.054C162.514 63.7211 161.376 62.8671 161.375 61.4921L161.586 61.4921C161.446 61.2161 161.375 61.0025 161.375 60.8515C161.656 60.3827 161.797 59.9556 161.797 59.5702C161.062 59.5703 160.635 59.3568 160.515 58.9298C160.515 58.0756 160.942 57.6484 161.797 57.6483L162.656 57.6481L162.656 56.5778C162.796 56.1507 163.223 55.9371 163.937 55.9369ZM163.719 59.9917C163.292 60.5438 163.078 60.971 163.078 61.273C163.683 61.8458 164.253 62.1322 164.79 62.1321L165 62.1321L165.211 61.0617C164.789 60.3482 164.292 59.9916 163.719 59.9917ZM174.857 48.0208C175.628 48.0207 176.126 48.4503 176.35 49.3096C176.35 49.5388 175.993 49.893 175.28 50.3723L174.209 50.1616L171.436 50.1621L171.436 50.8027C171.436 53.6517 171.934 55.0761 172.929 55.0759L173.359 55.0758C173.681 55.0757 173.965 55.0054 174.21 54.8647C174.46 55.0053 174.747 55.0755 175.069 55.0755L176.351 55.0752C176.351 55.3252 176.494 55.682 176.781 56.1455C176.781 56.4163 176.424 56.8435 175.711 57.4269L174.21 57.2163L170.578 57.2169C170.15 56.3368 169.723 54.0556 169.295 50.3734C169.295 48.8057 170.079 48.0217 171.646 48.0214L174.857 48.0208ZM179.982 48.6605L180.412 48.6604C180.751 51.2281 181.035 52.5119 181.264 52.5118L182.975 52.5115C182.975 52.1886 182.905 51.9047 182.764 51.66L182.975 51.2302L182.764 50.8006C182.936 49.5193 183.219 48.8786 183.615 48.8786C184.615 48.8784 185.116 51.0866 185.116 55.5033C185.257 55.5032 185.327 56.2871 185.328 57.8548C185.13 58.5684 184.633 58.9252 183.836 58.9254C183.409 58.7848 183.195 58.3578 183.195 57.6443L183.194 55.0739C183.194 54.7927 183.051 54.6521 182.765 54.6522L181.054 54.6525C181.341 56.6837 181.484 57.8243 181.484 58.0743C180.984 58.6421 180.484 58.926 179.984 58.9261C179.417 58.7856 179.133 58.3586 179.132 57.645L179.343 57.645L179.132 57.2153L179.132 55.7231L178.913 54.6529L179.132 54.6528C178.986 54.3768 178.913 54.1633 178.913 54.0123C178.913 53.4289 178.842 52.1451 178.701 50.1607L178.912 50.1607C178.772 49.8847 178.701 49.6711 178.701 49.5201C178.842 48.9472 179.269 48.6606 179.982 48.6605ZM187.06 45.0263L187.7 45.0262C187.987 45.3178 188.274 47.8829 188.561 52.7214L187.702 53.3622L187.491 53.3622C187.116 53.3623 186.829 52.792 186.631 51.6514L186.631 49.5186L186.42 48.2296C186.42 48.089 186.49 48.0186 186.631 48.0186L186.419 46.9483L186.419 45.6671C186.419 45.4588 186.633 45.2452 187.06 45.0263ZM188.343 54.862C188.775 55.6849 188.992 56.1848 188.992 56.3619C188.778 56.9297 188.562 57.2136 188.343 57.2136C187.489 57.2138 187.062 56.7868 187.062 55.9326C187.15 55.5055 187.577 55.1486 188.343 54.862Z" fill="black"/>
<path d="M21.8019 18.5449C17.4603 22.755 14.4052 28.7303 13.704 34.7408C13.3787 37.5294 12.5297 40.8141 13.1659 43.6415C13.7413 46.1988 14.7488 48.3763 16.0946 50.6192C16.9207 51.9961 18.0321 53.4208 18.6263 54.9063" stroke="black" stroke-width="2" stroke-linecap="round"/>
<path d="M7.51172 27.5952C11.5315 27.8185 15.4677 29.0006 19.4205 29.6594" stroke="black" stroke-width="2" stroke-linecap="round"/>
<path d="M6.3999 43.156C8.36808 42.9489 10.2382 42.249 12.222 42.0446C13.8285 41.879 15.426 41.8858 17.0384 41.8858" stroke="black" stroke-width="2" stroke-linecap="round"/>
<path d="M281.291 41.9224C280.921 46.0222 279.829 50.5527 277.731 54.1426C275.799 57.4481 273.129 59.8121 270.236 62.2409C268.573 63.6379 266.871 65.1036 265.282 66.5711C264.604 67.1968 263.826 67.629 262.929 67.7786" stroke="black" stroke-width="2" stroke-linecap="round"/>
<path d="M266.302 59.3472C267.708 60.7538 269.095 62.3565 270.34 63.9064C271.549 65.41 273.106 66.519 274.546 67.7785" stroke="black" stroke-width="2" stroke-linecap="round"/>
<path d="M275.857 49.979C278.669 50.3539 280.822 52.715 283.247 53.9553C284.458 54.5745 285.486 55.4795 286.724 55.9746" stroke="black" stroke-width="2" stroke-linecap="round"/>
</svg>
