<svg width="20" height="19" viewBox="0 0 20 19" fill="none" xmlns="http://www.w3.org/2000/svg">
<path d="M1.30355 2.20547C1.21098 6.09305 1.00253 9.98153 1.00253 13.8686C1.00253 14.3604 0.973454 14.8423 1.11243 15.3187C1.15372 15.4603 1.20167 15.6029 1.21515 15.7512C1.2247 15.8562 1.30355 15.9415 1.30355 16.0331C1.30355 17.1281 3.49452 17.1872 4.14408 17.2085C6.51297 17.2861 8.89509 17.2132 11.2657 17.2132C12.9269 17.2132 14.588 17.2132 16.2492 17.2132C16.6603 17.2132 16.6612 16.5567 16.727 16.2863C16.9103 15.5335 17.0822 14.7571 17.2096 13.9928C17.3103 13.3888 17.4209 12.7865 17.5154 12.182C17.667 11.2118 17.8829 10.2285 17.955 9.24827C18.0421 8.06278 18.2364 6.90145 18.3659 5.72209C18.4157 5.26784 18.3754 4.78811 18.3754 4.33169C18.3754 3.73125 18.3754 3.13081 18.3754 2.53037C18.3754 2.22244 18.4333 1.84488 18.3659 1.54132C18.3032 1.25944 17.9471 1.21264 17.6922 1.17342C16.3883 0.972818 15.0908 1.00141 13.7646 1.00141C10.1055 1.00141 6.44629 1.00141 2.78712 1.00141C2.43344 1.00141 2.12657 1.13041 1.77657 1.13041C1.65441 1.13041 1.48692 1.14252 1.37044 1.1758C1.32357 1.1892 1.27899 1.31289 1.21754 1.34542C1.06666 1.4253 1.08853 1.43753 1.08853 1.62733C1.08853 1.80571 1.08853 1.98409 1.08853 2.16247" stroke="#FF0000" stroke-width="2" stroke-linecap="round"/>
<path d="M3.41846 3.87988C3.68598 4.09693 3.98096 4.30399 4.20196 4.5714C4.24325 4.62136 4.28441 4.66726 4.33501 4.70774" stroke="#FF0000" stroke-width="2" stroke-linecap="round"/>
<path d="M1.7334 7.45747C2.20289 7.08682 2.71889 6.78259 3.22731 6.46947C4.07401 5.94801 4.88444 5.36742 5.73468 4.85154C6.0966 4.63196 6.48029 4.44237 6.8237 4.1937C6.92842 4.11787 7.03163 4.04305 7.14483 3.98016C7.17874 3.96132 7.19586 3.95373 7.21792 3.92432" stroke="#FF0000" stroke-width="2" stroke-linecap="round"/>
<path d="M3.44824 6.65926C3.45939 7.11901 3.5563 7.6802 3.90488 8.01602C4.03687 8.14319 4.20749 8.26962 4.37301 8.34946C4.53747 8.42879 4.73829 8.42214 4.91669 8.41763C5.0524 8.41419 5.14483 8.36552 5.26081 8.30018C5.4015 8.22092 5.54787 8.14949 5.69363 8.08008C5.90464 7.9796 6.1279 7.95992 6.32437 7.82712C6.46792 7.73009 6.66147 7.55396 6.68245 7.37213C6.70946 7.13802 6.70596 6.866 6.59704 6.65269C6.51902 6.49991 6.44912 6.34812 6.3523 6.20427C6.27035 6.08252 6.18166 5.96253 6.09441 5.84619" stroke="#FF0000" stroke-width="2" stroke-linecap="round"/>
<path d="M2.9751 12.5428C3.14444 12.4345 3.34139 12.3458 3.52536 12.2669C4.10704 12.0172 4.70392 11.801 5.28865 11.5581C5.85001 11.3249 6.36788 11.0352 6.89261 10.7303C7.40024 10.4353 7.91931 10.1622 8.43498 9.88188C8.63696 9.77209 8.82803 9.65174 9.01645 9.52052C9.23579 9.36776 9.47756 9.24371 9.71372 9.11891C9.95094 8.99355 10.1843 8.8636 10.4134 8.72387C10.524 8.65646 10.6323 8.58751 10.751 8.53662" stroke="#FF0000" stroke-width="2" stroke-linecap="round"/>
<path d="M7.63184 13.6513C7.68986 13.5116 7.79184 13.4283 7.92093 13.3507C8.18032 13.1946 8.47217 13.0776 8.75535 12.9729C9.01736 12.8759 9.28116 12.7855 9.54871 12.7051C9.65118 12.6744 9.78408 12.6549 9.87558 12.5951C9.95575 12.5427 9.95846 12.7188 9.97085 12.7708C10.0156 12.9587 10.0477 13.1483 10.0858 13.3375C10.115 13.4823 10.1752 13.6131 10.2123 13.7547C10.2424 13.8697 10.2595 13.9804 10.2985 14.0931C10.3253 14.1703 10.3024 14.2638 10.315 14.3444C10.3325 14.4565 10.3309 14.5639 10.3667 14.6713" stroke="#FF0000" stroke-width="2" stroke-linecap="round"/>
<path d="M10.0269 12.0993C10.1228 11.9649 10.3158 11.8818 10.4539 11.802C10.7267 11.6445 11.0047 11.4923 11.2883 11.3552C11.6934 11.1594 12.1282 10.9997 12.5515 10.846C12.7712 10.7662 13.096 10.6199 13.2873 10.8321C13.4136 10.9721 13.5319 11.1277 13.6175 11.2961C13.6935 11.4456 13.7248 11.6116 13.767 11.7724C13.8352 12.0325 13.8557 12.281 13.8557 12.5494C13.8557 12.7541 13.8557 12.9589 13.8557 13.1637" stroke="#FF0000" stroke-width="2" stroke-linecap="round"/>
<path d="M12.5547 4.58936C12.7295 4.88846 12.9225 5.17652 13.1263 5.45663C13.2678 5.65117 13.4276 5.82935 13.578 6.01674C13.7914 6.28258 13.978 6.56838 14.1808 6.84213C14.6107 7.42245 15.0161 8.01759 15.4308 8.60871C15.7522 9.06686 16.1135 9.49666 16.4295 9.95808C16.6066 10.2166 16.7736 10.4715 16.9658 10.7186C17.0971 10.8874 17.1817 11.0873 17.3198 11.2516C17.3705 11.312 17.4094 11.3719 17.4479 11.4405C17.463 11.4675 17.4801 11.5091 17.507 11.5226" stroke="#FF0000" stroke-width="2" stroke-linecap="round"/>
</svg>
