<svg width="286" height="171" viewBox="0 0 286 171" fill="none" xmlns="http://www.w3.org/2000/svg">
<path d="M79.7816 44.0874C85.2581 35.3041 92.4641 28.085 102.863 25.9135C103.944 25.3717 105.108 25.3277 106.369 25.3277C107.833 25.3277 109.563 24.6926 110.979 24.1563C112.183 23.7004 113.089 23.6055 113.089 22.2526V19.7633C113.089 17.6057 112.212 15.5763 112.212 13.483C112.212 10.8731 112.471 7.89138 114.16 5.80338C115.587 4.04032 118.278 1.11706 120.978 2.25646C121.741 2.57855 122.414 2.73386 123.169 3.06997C124.071 3.47187 124.307 4.33844 125.068 4.76208C126.41 5.50965 127.834 7.87034 128.72 9.23641C130.331 11.7204 131.568 14.5591 132.957 17.1438C133.409 17.9867 134.181 21.7792 135.067 21.8133C136.35 21.8628 137.645 21.8133 138.93 21.8133C141.016 21.8133 145.228 22.8754 145.228 19.9097C145.228 15.6569 144.405 9.79661 148.149 6.87722C149.777 5.60796 151.124 5.4129 153.116 5.4129C154.606 5.4129 157.153 5.09001 158.521 5.85219C160.8 7.12101 162.691 9.9888 163.781 12.2952C164.727 14.2972 165.664 16.0787 166.426 18.1525C167.056 19.8657 167.64 21.3062 167.952 23.1475C168.172 24.4475 169.087 24.7057 170.354 24.742C173.042 24.819 176.092 25.9725 178.535 27.15C182.098 28.8668 186.138 29.8162 189.41 32.1287C194.567 35.772 199.601 39.4948 204.116 43.9409C208.705 48.4599 211.131 53.6898 213.531 59.593C215.758 65.0737 216.912 71.0183 218.562 76.6768C219.327 79.2993 220.11 81.948 220.754 84.6004C221.437 87.4147 222.82 90.0976 223.594 92.9145C224.512 96.2516 224.04 100.558 224.609 103.98C225.299 108.133 223.847 110.319 223.594 114.529C223.082 123.059 218.68 131.081 214.411 138.442C210.237 145.638 205.453 150.126 199.29 155.321C195.668 158.374 193.741 158.78 189.443 160.596C185.986 162.057 183.025 163.637 179.597 165.168C176.966 166.343 173.954 167.233 171.157 167.981C168.679 168.643 164.549 169.466 162.014 169.352C158.72 169.205 156.163 169.763 152.889 169.352C142.815 168.09 130.63 167.921 120.871 165.168C112.493 162.804 105.807 157.643 98.3181 153.082C93.4444 150.114 89.4078 146.721 85.3166 142.767C78.2611 135.947 72.5076 126.379 69.9939 116.848C66.7658 104.609 67.2718 92.1351 67.835 79.5729C68.1019 73.6208 70.1805 67.8623 71.6008 62.1311C73.117 56.0129 76.4546 49.4231 79.7816 44.0874Z" fill="#FF774D" stroke="black" stroke-width="2" stroke-linecap="round"/>
<path d="M118.651 33.0566C118.651 31.42 120.815 30.91 122.113 30.91C122.804 30.91 123.751 30.7762 124.398 31.0638C124.618 31.1613 124.917 31.3254 125.16 31.3254" stroke="black" stroke-width="2" stroke-linecap="round"/>
<path d="M127.059 37.0879C127.405 37.6982 127.745 38.2201 128.42 38.5021C129.006 38.7467 129.72 38.7201 130.346 38.6822C130.765 38.6568 131.094 38.4943 131.453 38.298C131.582 38.2273 131.918 38.131 131.986 37.9955" stroke="black" stroke-width="2" stroke-linecap="round"/>
<path d="M134.622 31.945C134.732 31.6802 135.241 31.4046 135.472 31.2535C135.769 31.0589 136.088 30.9077 136.446 30.9077C136.76 30.9077 137.029 31.0532 137.325 31.143C138.155 31.3942 139.032 31.41 139.88 31.5776C140.249 31.6505 140.471 31.805 140.737 32.0122C140.96 32.1858 141.2 32.334 141.494 32.334" stroke="black" stroke-width="2" stroke-linecap="round"/>
<path d="M76.9316 128.12C84.4234 130.42 92.5057 130.127 100.273 130.107C98.6976 130.134 96.8292 130.725 95.2906 131.1C93.6157 131.508 91.9878 132.046 90.4017 132.727C88.7145 133.451 87.3431 134.541 86.0598 135.826C85.1172 136.771 83.7447 137.413 82.9145 138.429C81.7323 139.877 80.3679 140.886 78.7778 141.82C77.6859 142.462 75.923 142.129 74.6923 142.129C73.7109 142.129 72.9706 141.829 72.453 140.896C71.6898 139.519 70.9059 139.662 69.4273 139.662C65.5437 139.662 58.993 138.888 56.6239 142.814C55.3909 144.857 53.9466 146.618 52.9829 148.79C52.1384 150.694 52.4201 151.993 50.2308 151.993C46.181 151.993 44.1939 150.778 40.2481 150.26C38.9238 150.086 37.5698 149.372 38.6937 147.924C39.6756 146.659 37 145.026 37 143.499C35.1116 147.823 32.5636 152.768 30.8462 157.165C30.4515 158.175 30.0378 159.483 29.9231 160.556C29.8457 161.28 28.4128 160.913 27.9402 160.864C23.0199 160.36 17.983 159.083 13.0342 159.083C11.7892 159.083 12.0148 157.102 11.4615 156.24C10.4404 154.649 9.31203 153.166 8.09402 151.702C6.54658 149.841 5.08399 147.411 2.84615 146.29C1.33862 145.535 1 145.659 1 143.978C1 143.067 1.02628 141.526 1.46154 140.741C1.78699 140.154 2.19452 138.448 2.23077 137.813C2.3383 135.928 2.89356 134.01 3.39316 132.196C3.74303 130.925 3.45304 129.899 4.21368 128.702C4.67843 127.97 4.42717 127.64 5.46154 127.64C6.16844 127.64 6.85884 127.488 7.52991 127.263C9.1922 126.708 10.6299 126.407 12.3846 126.407C16.1451 126.407 18.9146 127.251 19.8376 122.879C20.4892 119.793 21.6648 117.108 24.8632 116.526C30.2332 115.547 36.3867 116.234 41.8547 116.234C44.4697 116.234 47.0331 116.392 49.6154 116.782C51.5758 117.079 53.8803 117.17 55.735 117.93C59.4165 119.439 63.1463 120.821 66.8462 122.263C70.5212 123.695 73.1516 126.959 76.9316 128.12Z" fill="white"/>
<path d="M101 130.106C93.0114 130.106 84.6575 130.492 76.9316 128.12C73.1517 126.959 70.5212 123.695 66.8462 122.263C63.1463 120.821 59.4165 119.439 55.735 117.93C53.8803 117.17 51.5758 117.079 49.6154 116.782C47.0331 116.392 44.4697 116.234 41.8547 116.234C36.3867 116.234 30.2332 115.547 24.8632 116.526C21.6648 117.108 20.4892 119.793 19.8376 122.879C18.9146 127.251 16.1451 126.407 12.3846 126.407C10.6299 126.407 9.1922 126.708 7.52991 127.263C6.85884 127.488 6.16844 127.64 5.46154 127.64C4.42717 127.64 4.67843 127.97 4.21368 128.702C3.45304 129.899 3.74303 130.925 3.39316 132.196C2.89356 134.01 2.3383 135.928 2.23077 137.813C2.19452 138.448 1.78699 140.154 1.46154 140.741C1.02628 141.526 1 143.067 1 143.978C1 145.659 1.33862 145.535 2.84615 146.29C5.08399 147.411 6.54658 149.842 8.09402 151.702C9.31203 153.166 10.4404 154.649 11.4615 156.24C12.0148 157.102 11.7892 159.083 13.0342 159.083C17.983 159.083 23.0199 160.36 27.9402 160.864C28.4128 160.913 29.8457 161.28 29.9231 160.556C30.0378 159.483 30.4515 158.175 30.8462 157.165C32.5636 152.768 35.1116 147.823 37 143.499M37 143.499C37 141.753 36.6979 140.541 36.4017 138.909C36.2299 137.962 35.2017 138.713 34.5385 138.361C33.6439 138.361 24.2023 135.963 23.3077 135.963C21.7468 135.963 21.7501 139.305 21.1538 140.433C20.3022 142.045 19.6905 143.617 18.6752 145.143M37 143.499C37 145.026 39.6756 146.659 38.6937 147.924C37.5698 149.372 38.9238 150.086 40.2481 150.26C44.1939 150.778 46.181 151.993 50.2308 151.993C52.4201 151.993 52.1384 150.694 52.9829 148.79C53.9466 146.618 55.3909 144.857 56.6239 142.814C58.993 138.888 65.5437 139.662 69.4273 139.662C70.9059 139.662 71.6898 139.519 72.453 140.896C72.9706 141.829 73.7109 142.129 74.6923 142.129C75.923 142.129 77.6859 142.462 78.7778 141.82C80.3679 140.886 81.7323 139.877 82.9145 138.429C83.7447 137.413 85.1172 136.771 86.0598 135.826C87.3431 134.541 88.7145 133.451 90.4017 132.727C91.9878 132.046 93.6157 131.508 95.2906 131.1C96.8658 130.716 98.7865 130.106 100.385 130.106" stroke="black" stroke-width="2" stroke-linecap="round"/>
<path d="M253.342 24.2627C257.044 25.6945 278.192 31.9391 282 33.0996C280.312 33.5078 278.672 34.0455 277.074 34.7265C275.374 35.451 273.993 36.5406 272.7 37.8263C271.75 38.7707 256.779 40.6459 255.942 41.6625C252.029 41.6625 245.429 40.8883 243.042 44.8136C241.8 46.8566 240.345 48.6182 239.374 50.7905C238.523 52.6942 238.807 53.993 236.601 53.993C232.521 53.993 230.519 52.7783 226.543 52.2598C225.393 52.1099 224.221 51.5585 224.644 50.4821C223.019 52.9209 216.245 61.5886 216.141 62.5559C216.063 63.2796 214.619 62.9126 214.143 62.8641C209.186 62.36 204.111 61.0831 199.125 61.0831C197.87 61.0831 198.098 59.1024 197.54 58.2402C196.511 56.6488 195.375 55.1662 194.147 53.7019C192.588 51.8415 191.115 49.4111 188.86 48.2901C187.341 47.535 187 47.6588 187 45.9782C187 45.0669 187.026 43.5263 187.465 42.7414C187.793 42.1545 188.204 40.4485 188.24 39.8129C188.348 37.9276 188.908 36.01 189.411 34.1956C189.764 32.925 189.471 31.8995 190.238 30.702C190.706 29.9703 190.453 29.6402 191.495 29.6402C192.207 29.6402 192.903 29.4875 193.579 29.2634C195.254 28.7083 196.702 28.4071 198.47 28.4071C202.259 28.4071 205.049 29.2508 205.979 24.8792C206.636 21.7934 207.82 19.1082 211.043 18.5256C216.453 17.5474 222.653 18.2344 228.162 18.2344C230.797 18.2344 233.379 18.392 235.981 18.7825C237.956 19.0789 240.278 19.1697 242.147 19.9299C245.856 21.4387 249.614 22.8212 253.342 24.2627Z" fill="white"/>
<path d="M224.977 49.9239C224.58 50.9343 216.256 61.4829 216.141 62.5559C216.063 63.2796 214.619 62.9126 214.143 62.8641C209.186 62.36 204.111 61.0831 199.125 61.0831C197.87 61.0831 198.098 59.1024 197.54 58.2402C196.511 56.6488 195.375 55.1662 194.147 53.7019C192.588 51.8415 191.115 49.4111 188.86 48.2901C187.341 47.535 187 47.6588 187 45.9782C187 45.0669 187.026 43.5263 187.465 42.7414C187.793 42.1545 188.204 40.4485 188.24 39.8129C188.348 37.9276 188.908 36.01 189.411 34.1956C189.764 32.925 189.471 31.8995 190.238 30.702C190.706 29.9703 190.453 29.6402 191.495 29.6402C192.207 29.6402 192.903 29.4875 193.579 29.2634C195.254 28.7083 196.702 28.4071 198.47 28.4071C202.259 28.4071 205.049 29.2508 205.979 24.8792C206.636 21.7934 207.82 19.1082 211.043 18.5256C216.453 17.5474 222.653 18.2344 228.162 18.2344C230.797 18.2344 233.379 18.392 235.981 18.7825C237.956 19.0789 240.278 19.1697 242.147 19.9299C245.856 21.4387 249.614 22.8212 253.342 24.2627C257.044 25.6945 278.192 31.9391 282 33.0996C280.312 33.5078 278.672 34.0455 277.074 34.7265C275.374 35.451 273.993 36.5406 272.7 37.8263C271.75 38.7707 256.779 40.6459 255.942 41.6625C252.029 41.6625 245.429 40.8883 243.042 44.8136C241.8 46.8566 240.345 48.6182 239.374 50.7905C238.523 52.6942 238.807 53.993 236.601 53.993C232.521 53.993 230.519 52.7783 226.543 52.2598C225.209 52.0858 223.845 51.3716 224.977 49.9239ZM224.977 49.9239C224.804 48.9775 221.459 40.7127 220.791 40.3609C219.889 40.3609 210.377 37.9633 209.476 37.9633C207.903 37.9633 205.409 39.3011 204.808 40.4294C203.95 42.0411 205.831 45.617 204.808 47.1427" stroke="black" stroke-width="2" stroke-linecap="round"/>
</svg>
