<svg width="389" height="401" viewBox="0 0 389 401" fill="none" xmlns="http://www.w3.org/2000/svg">
<path d="M23.7891 165.75C23.7891 165.896 23.9323 165.969 24.2188 165.969V167.25C24.2188 167.536 23.9349 167.68 23.3672 167.68C23.6484 169.055 23.7891 170.406 23.7891 171.734H25.0703L25.2891 173.656C24.7318 173.943 23.9479 174.086 22.9375 174.086H19.7344L18.6641 174.297C18.0911 173.578 17.8047 173.151 17.8047 173.016C17.8047 172.885 18.0911 172.458 18.6641 171.734C18.3776 170.396 18.2344 169.328 18.2344 168.531V168.102C17.3802 168.102 16.9531 167.604 16.9531 166.609V166.391C16.9531 165.823 19.2318 165.539 23.7891 165.539V165.75ZM28.7031 166.18H29.7734C30.0599 166.935 30.2734 168.146 30.4141 169.812L30.8438 169.602H31.0547C31.2005 169.602 31.2734 169.672 31.2734 169.812L31.6953 169.602H32.7656C32.9792 169.602 33.1927 169.885 33.4062 170.453C33.4062 171.453 32.7656 171.953 31.4844 171.953C31.2344 171.807 30.9479 171.734 30.625 171.734V173.234C30.625 173.552 30.6979 173.836 30.8438 174.086C30.6406 174.94 30.2135 175.367 29.5625 175.367C29.0312 175.367 28.6745 174.727 28.4922 173.445H28.7031C28.4583 172.133 28.2448 169.997 28.0625 167.039C28.276 166.466 28.4896 166.18 28.7031 166.18ZM20.375 167.891C20.375 168.177 20.3021 168.32 20.1562 168.32L20.7969 171.953L21.8672 171.734L21.4375 167.891H20.375ZM27.6406 176.227C28.9219 176.768 29.5625 177.906 29.5625 179.641V180.711C29.5625 181.372 28.3516 182.013 25.9297 182.633V182.852L26.3516 183.062H26.5703C27.0443 183.062 28.0417 182.919 29.5625 182.633V183.492C29.5625 184.445 28.7057 185.086 26.9922 185.414H26.7812C25.0417 185.414 24.0443 184.344 23.7891 182.203C24.7109 180.781 25.9948 180.07 27.6406 180.07L27.4219 178.578C26.474 178.578 25.1927 178.719 23.5781 179C22.8646 178.719 22.5078 178.292 22.5078 177.719C22.7943 177.255 22.9375 176.898 22.9375 176.648H23.7891C24.9297 176.648 26.2135 176.508 27.6406 176.227ZM35.1406 165.328C35.2812 165.328 35.3516 165.398 35.3516 165.539L37.9219 165.328H39.625C41.7917 165.328 43.0755 166.823 43.4766 169.812V170.453C43.4766 171.734 41.9089 172.375 38.7734 172.375C37.9193 172.714 37.4922 173 37.4922 173.234V173.445C37.4922 173.648 37.7057 173.862 38.1328 174.086H42.1953C43.0495 174.086 43.4766 174.513 43.4766 175.367V175.586C43.1901 175.93 43.0469 176.214 43.0469 176.438C41.7188 176.438 40.5078 176.508 39.4141 176.648C36.5651 176.336 35.1406 175.125 35.1406 173.016V172.594C35.7292 170.74 37.5807 169.812 40.6953 169.812C40.9818 169.812 41.125 169.742 41.125 169.602C40.8073 168.32 40.4505 167.68 40.0547 167.68H38.5625C37.349 167.68 36.4219 167.82 35.7812 168.102C34.9271 167.815 34.5 167.531 34.5 167.25V166.18C34.9271 165.826 35.1406 165.542 35.1406 165.328ZM39.8438 177.078C40.6979 177.078 41.1953 178.219 41.3359 180.5L41.7656 180.711C42.3594 180.711 43.1432 180.641 44.1172 180.5C44.9714 180.833 45.3984 181.331 45.3984 181.992C44.8828 182.706 44.4557 183.062 44.1172 183.062C38.5599 183.062 35.7812 182.562 35.7812 181.562V181.352C36.0573 180.701 36.3438 180.344 36.6406 180.281H36.8516L38.9844 180.5L38.7734 178.359V178.148C39.1068 177.529 39.4635 177.172 39.8438 177.078ZM50.1328 165.117C52.5495 165.117 53.7578 166.042 53.7578 167.891C53.9036 167.891 53.9766 168.177 53.9766 168.75V169.172C53.6901 170.74 52.9062 171.523 51.625 171.523H50.1328C48.138 171.523 47.1406 170.242 47.1406 167.68C47.6823 165.971 48.6797 165.117 50.1328 165.117ZM50.3438 166.188V166.609H50.7734L50.5547 167.039C50.7005 167.039 50.7734 167.109 50.7734 167.25L49.7031 167.039H49.4922L49.2734 167.891C49.4453 169.031 49.7318 169.602 50.1328 169.602H50.7734C51.4818 169.602 51.9089 169.318 52.0547 168.75C52.0547 167.75 51.6979 167.25 50.9844 167.25V166.828L51.1953 166.398H50.9844C50.9844 166.539 50.9141 166.609 50.7734 166.609V166.188H50.3438ZM50.3438 174.086V174.305L50.7734 174.086H51.4141C51.5547 174.086 51.625 174.159 51.625 174.305L52.0547 174.086C52.1953 174.086 52.2656 174.159 52.2656 174.305L53.7578 174.086H55.2578C55.8255 174.32 56.1094 174.82 56.1094 175.586C55.9688 176.013 55.5417 176.227 54.8281 176.227H52.6953V178.359C52.6953 179.411 52.4818 179.982 52.0547 180.07H50.9844C50.5573 179.398 50.3438 178.898 50.3438 178.57V176.227C50.3438 175.94 50.2005 175.797 49.9141 175.797V176.008C50.0599 176.008 50.1328 176.081 50.1328 176.227H47.3516C47.1328 176.227 46.849 175.94 46.5 175.367V174.945C46.5 174.518 47.7812 174.232 50.3438 174.086ZM66.3906 166.18H67.6719C69.3698 166.18 70.5807 167.604 71.3047 170.453V170.883L71.0859 172.164L70.6641 171.953L70.875 172.375C69.9323 173.802 68.9349 174.516 67.8828 174.516C65.0339 173.849 63.6094 172.424 63.6094 170.242V169.383C63.8958 167.247 64.8229 166.18 66.3906 166.18ZM75.5781 166.18C76.224 166.456 76.5781 166.742 76.6406 167.039V169.602L76.8594 170.031C77.099 169.885 77.9531 169.742 79.4219 169.602C79.4219 169.888 79.6354 170.031 80.0625 170.031C80.0625 170.172 79.9922 170.242 79.8516 170.242L80.0625 170.672C80.0625 171.281 78.9948 171.779 76.8594 172.164L77.0703 172.594V175.586C77.0703 175.805 76.7865 176.089 76.2188 176.438C75.6094 176.438 75.1094 176.154 74.7188 175.586C74.7188 175.435 74.7917 175.221 74.9375 174.945L74.5078 167.25C74.5078 166.87 74.8646 166.513 75.5781 166.18ZM65.5312 169.602V169.812C65.9219 171.521 66.7057 172.375 67.8828 172.375C68.3776 172.375 68.8047 171.807 69.1641 170.672C68.8464 168.958 68.0625 168.102 66.8125 168.102H66.3906C65.8177 168.336 65.5312 168.836 65.5312 169.602ZM69.5938 177.289H70.2344C70.7083 177.289 71.0651 178.43 71.3047 180.711L71.7266 180.922H72.3672C73.0859 180.922 74.1562 180.852 75.5781 180.711L75.7891 181.781V181.992C75.7891 182.706 74.4349 183.062 71.7266 183.062C69.8776 183.062 68.9531 181.568 68.9531 178.578V177.93C68.9531 177.727 69.1667 177.513 69.5938 177.289ZM84.3594 167.039H85.2109C85.638 167.039 86.138 168.604 86.7109 171.734H88.4141C88.737 171.734 89.0234 171.664 89.2734 171.523C90.1276 171.815 90.5547 172.099 90.5547 172.375C90.5547 173.375 89.9844 173.875 88.8438 173.875C89.5573 174.693 89.9141 175.404 89.9141 176.008V176.648C89.737 178.93 88.6693 180.07 86.7109 180.07C84.8516 180.07 83.5703 179.003 82.8672 176.867L83.2891 174.086C82.5443 174.232 82.1172 174.305 82.0078 174.305C81.4401 174.091 81.1562 173.878 81.1562 173.664V173.234C81.1562 172.38 81.7969 171.953 83.0781 171.953C83.1875 171.953 83.6146 171.88 84.3594 171.734C83.9323 169.995 83.7188 168.927 83.7188 168.531C83.8594 167.536 84.0729 167.039 84.3594 167.039ZM93.9688 169.172C94.9635 169.172 95.4609 170.026 95.4609 171.734L95.6797 173.234L97.8125 173.023H98.8828C99.2266 173.305 99.5104 173.445 99.7344 173.445V174.086C99.3698 174.94 98.5885 175.367 97.3906 175.367H96.1016C96.1016 175.716 96.2448 176.927 96.5312 179C96.2812 179.995 95.9974 180.492 95.6797 180.492H94.8203C94.3255 180.492 93.9714 178.643 93.7578 174.945C93.5286 174.945 93.3151 173.448 93.1172 170.453C93.4036 169.599 93.6875 169.172 93.9688 169.172ZM85.4297 174.945L85 175.797C85.1667 177.078 85.737 177.719 86.7109 177.719H87.1328C87.1328 177.63 87.276 177.203 87.5625 176.438C87.0938 175.443 86.3828 174.945 85.4297 174.945ZM102.109 165.109L103.18 165.328H106.172C108.734 165.328 110.016 165.755 110.016 166.609C110.156 167.354 110.227 168.065 110.227 168.742L110.016 169.172H110.227C110.227 168.969 110.44 168.755 110.867 168.531H114.078V167.461C114.359 167.117 114.5 166.833 114.5 166.609H114.719C115.573 166.698 116 166.911 116 167.25V170.242C116 174.513 115.643 176.648 114.93 176.648H114.289C113.862 176.508 113.648 176.081 113.648 175.367V173.875H113.438C111.156 173.875 110.016 173.589 110.016 173.016H109.805C109.805 174.547 109.234 175.474 108.094 175.797H107.664L105.102 175.586C104.331 175.727 103.69 175.797 103.18 175.797C102.716 175.51 102.359 175.367 102.109 175.367V173.875C102.109 173.729 102.18 173.656 102.32 173.656C101.326 170.135 100.828 167.573 100.828 165.969C101.203 165.542 101.63 165.328 102.109 165.328V165.109ZM103.18 167.68L104.25 173.445H107.664C107.951 171.477 108.094 169.555 108.094 167.68H103.18ZM110.016 169.812V171.734L110.656 171.312C111.188 171.312 112.255 171.453 113.859 171.734V170.883H110.656L110.227 169.812H110.016ZM106.812 177.93H107.883C108.508 180.352 109.005 181.562 109.375 181.562C111.359 181.422 112.641 181.352 113.219 181.352C113.792 181.492 114.078 181.919 114.078 182.633C113.88 183.346 113.38 183.703 112.578 183.703H111.086C110.372 183.703 109.305 183.773 107.883 183.914C106.742 182.081 106.172 180.302 106.172 178.578C106.172 178.37 106.385 178.154 106.812 177.93ZM130.555 165.312H131.195C133.049 165.542 133.977 166.396 133.977 167.875V172.156C133.977 172.479 133.62 172.693 132.906 172.797C132.052 172.797 131.625 171.799 131.625 169.805L131.836 168.734C131.695 167.734 131.482 167.234 131.195 167.234H129.914L128.844 167.453V167.234C128.547 167.349 127.763 167.492 126.492 167.664V167.453C126.216 167.594 126.003 167.664 125.852 167.664L125.422 167.453C125.172 167.594 124.888 167.664 124.57 167.664C124.102 167.237 123.745 167.023 123.5 167.023C123.5 166.883 123.57 166.812 123.711 166.812L123.5 166.383V166.172C123.589 165.74 124.159 165.523 125.211 165.523V165.742L125.641 165.523C125.781 165.523 125.852 165.596 125.852 165.742L126.281 165.523H126.492C126.633 165.523 126.703 165.596 126.703 165.742C127.427 165.456 128.711 165.312 130.555 165.312ZM125 174.719C126.984 174.865 128.266 174.938 128.844 174.938C129.75 174.938 131.604 174.865 134.406 174.719V174.938L134.828 174.719C135.401 174.953 135.688 175.453 135.688 176.219C135.688 176.5 135.544 176.641 135.258 176.641C131.836 176.786 130.125 176.93 130.125 177.07C126.562 177.07 124.781 176.5 124.781 175.359C124.927 175.083 125 174.87 125 174.719ZM127.562 178.352C128.13 178.352 128.557 179.279 128.844 181.133C130.411 181.247 131.195 181.391 131.195 181.562L131.625 181.352C132.766 181.352 133.336 181.779 133.336 182.633V183.055C133.336 183.273 133.049 183.49 132.477 183.703C130.086 183.417 128.732 183.273 128.414 183.273C128.414 183.039 127.987 182.753 127.133 182.414C126.706 181.904 126.422 180.693 126.281 178.781C126.75 178.495 127.177 178.352 127.562 178.352ZM139.344 164.047C139.844 164.047 140.201 164.758 140.414 166.18C143.565 167.966 145.203 169.034 145.328 169.383V170.242C145.328 170.456 145.044 170.669 144.477 170.883C143.174 170.393 141.536 169.466 139.562 168.102C139.224 170.242 138.724 171.312 138.062 171.312H137.633C137.263 171.312 136.979 170.812 136.781 169.812C137.208 168.922 137.779 167.07 138.492 164.258C138.81 164.258 139.094 164.188 139.344 164.047ZM140.844 170.672C141.839 170.672 142.336 171.667 142.336 173.656V174.727H144.258C145.258 174.727 145.758 175.227 145.758 176.227C145.758 176.456 145.401 176.81 144.688 177.289L143.617 177.078H137.422C137.219 177.078 137.005 176.865 136.781 176.438V175.367C136.828 175.086 136.971 174.945 137.211 174.945H140.203V171.953C140.292 171.099 140.505 170.672 140.844 170.672ZM139.344 177.93H139.773C140.294 177.93 140.651 179 140.844 181.141H142.766L144.047 180.922C144.76 181.104 145.117 181.318 145.117 181.562V181.992C145.117 182.992 144.19 183.492 142.336 183.492C139.914 183.492 138.703 182.779 138.703 181.352V178.578C138.703 178.37 138.917 178.154 139.344 177.93ZM148.57 165.539H149.641C149.844 165.539 150.057 165.753 150.281 166.18V166.398C150.281 167.013 150.138 167.581 149.852 168.102C151.565 170.107 152.706 171.318 153.273 171.734C153.414 171.984 153.484 172.271 153.484 172.594V172.805C153.484 173.008 153.271 173.221 152.844 173.445C151.917 173.445 150.706 172.448 149.211 170.453C149.07 172.589 148.714 173.656 148.141 173.656H147.5L146.859 172.594C147 171.312 147.57 168.961 148.57 165.539ZM157.547 167.039H158.188C158.698 167.039 159.195 169.245 159.68 173.656C159.539 173.896 159.469 174.253 159.469 174.727H158.828C157.688 174.727 157.117 173.516 157.117 171.094V168.742C157.117 168.424 157.044 168.141 156.898 167.891C157.112 167.323 157.328 167.039 157.547 167.039ZM155.836 176.008C157.544 176.237 158.398 177.094 158.398 178.578V179.43C158.398 180.659 157.401 181.513 155.406 181.992V182.633L155.617 183.062C156.758 182.776 157.969 182.633 159.25 182.633C159.458 182.633 159.672 182.846 159.891 183.273V183.914C159.891 184.628 158.466 184.984 155.617 184.984C154.253 184.984 153.471 184.057 153.273 182.203C153.273 180.75 154.341 179.826 156.477 179.43V179.219L156.258 178.148C155.169 178.148 153.958 178.362 152.625 178.789C152.167 178.503 151.812 178.359 151.562 178.359V177.93L151.984 176.438C152.13 176.438 152.203 176.508 152.203 176.648C153.818 176.221 155.029 176.008 155.836 176.008ZM30.8047 198.727C31.0807 198.867 31.2943 198.938 31.4453 198.938C31.5859 198.938 31.6562 198.867 31.6562 198.727C33.5104 198.826 34.4375 199.253 34.4375 200.008L33.7969 201.078C32.375 200.938 31.3047 200.867 30.5859 200.867H28.875L27.3828 201.078L26.9531 200.438V200.008L27.1641 198.938H28.875C29.3906 198.938 30.0339 198.867 30.8047 198.727ZM44.9297 193.164H46.2188C47.3958 193.164 48.1797 194.018 48.5703 195.727V196.586C48.5703 197.102 48.2839 197.672 47.7109 198.297C49.138 199.438 49.8516 200.651 49.8516 201.938C49.0911 204.932 47.5938 206.43 45.3594 206.43H44.7188C43.4375 206.43 42.724 205.859 42.5781 204.719V204.5C42.5781 204.297 42.7917 204.083 43.2188 203.859C44.6979 204 45.5547 204.07 45.7891 204.07C47.0703 203.737 47.7109 202.883 47.7109 201.508C47.7109 200.935 47.2135 200.508 46.2188 200.227C45.0938 200.654 44.3802 200.867 44.0781 200.867C43.5052 200.867 43.1484 200.51 43.0078 199.797C43.7266 198.641 44.724 197.784 46 197.227L46.6406 196.375C46.6406 195.516 46 195.086 44.7188 195.086H44.5078C44.5078 195.268 44.0781 195.625 43.2188 196.156H42.3672C42.3672 195.87 42.224 195.727 41.9375 195.727V195.086C41.9375 194.534 42.9349 193.893 44.9297 193.164ZM56.5156 195.945C57.2865 195.945 57.7839 196.375 58.0078 197.234C58.0078 197.464 57.651 197.818 56.9375 198.297L55.8672 198.086H53.0938V198.727C53.0938 201.576 53.5911 203 54.5859 203H55.0156C55.3385 203 55.6224 202.93 55.8672 202.789C56.1172 202.93 56.4036 203 56.7266 203H58.0078C58.0078 203.25 58.151 203.607 58.4375 204.07C58.4375 204.341 58.0807 204.768 57.3672 205.352L55.8672 205.141H52.2344C51.8073 204.26 51.3802 201.979 50.9531 198.297C50.9531 196.729 51.737 195.945 53.3047 195.945H56.5156ZM61.6406 196.586H62.0703C62.4089 199.154 62.6927 200.438 62.9219 200.438H64.6328C64.6328 200.115 64.5625 199.831 64.4219 199.586L64.6328 199.156L64.4219 198.727C64.5938 197.445 64.8776 196.805 65.2734 196.805C66.2734 196.805 66.7734 199.013 66.7734 203.43C66.9141 203.43 66.9844 204.214 66.9844 205.781C66.7865 206.495 66.2891 206.852 65.4922 206.852C65.0651 206.711 64.8516 206.284 64.8516 205.57V203C64.8516 202.719 64.7083 202.578 64.4219 202.578H62.7109C62.9974 204.609 63.1406 205.75 63.1406 206C62.6406 206.568 62.1406 206.852 61.6406 206.852C61.0729 206.711 60.7891 206.284 60.7891 205.57H61L60.7891 205.141V203.648L60.5703 202.578H60.7891C60.6432 202.302 60.5703 202.089 60.5703 201.938C60.5703 201.354 60.5 200.07 60.3594 198.086H60.5703C60.4297 197.81 60.3594 197.596 60.3594 197.445C60.5 196.872 60.9271 196.586 61.6406 196.586ZM75.3438 194.234H75.9844C76.2656 194.234 76.4062 194.448 76.4062 194.875H82.6172C83.1849 195.104 83.4688 195.604 83.4688 196.375V196.586C83.4688 196.789 83.2552 197.003 82.8281 197.227H81.1172C80.9714 197.227 80.8984 197.156 80.8984 197.016L80.4766 197.227C80.3307 197.227 80.2578 197.156 80.2578 197.016L78.7656 197.227H77.6953C77.5495 197.227 77.4766 197.156 77.4766 197.016C77.0495 197.156 76.8359 197.299 76.8359 197.445L77.0547 199.367C78.2109 198.94 79.2786 198.727 80.2578 198.727C82.3047 198.727 83.5885 200.294 84.1094 203.43C83.6562 206.284 81.9453 207.711 78.9766 207.711H77.4766C77.2734 207.711 77.0599 207.497 76.8359 207.07V206.43C76.8359 206.206 77.1224 205.919 77.6953 205.57H78.1172C78.263 205.57 78.3359 205.641 78.3359 205.781C80.9036 205.391 82.1875 204.536 82.1875 203.219C82.1875 202.036 81.3307 201.323 79.6172 201.078H79.4062C78.3854 201.281 77.5286 201.638 76.8359 202.148H76.625C75.625 202.148 75.125 201.151 75.125 199.156C75.125 198.568 74.9115 197.141 74.4844 194.875L75.3438 194.234ZM90.3359 194.664C93.1901 195.888 94.6172 197.956 94.6172 200.867V201.719C94.6172 203.318 93.3333 204.672 90.7656 205.781H89.9062C87.3438 204.927 86.0625 204 86.0625 203C85.6875 203 85.401 202.43 85.2031 201.289V199.578C85.6302 196.443 87.0573 194.875 89.4844 194.875C89.5521 194.875 89.8359 194.805 90.3359 194.664ZM87.125 200.008V200.648C87.125 201.716 88.0521 202.716 89.9062 203.648C91.7604 203.419 92.6875 202.562 92.6875 201.078V200.648C92.6875 199.424 92.0469 198.284 90.7656 197.227C89.7292 196.659 89.1589 196.375 89.0547 196.375C88.1901 196.375 87.5469 197.586 87.125 200.008ZM100.852 194.664C103.706 195.888 105.133 197.956 105.133 200.867V201.719C105.133 203.318 103.849 204.672 101.281 205.781H100.422C97.8594 204.927 96.5781 204 96.5781 203C96.2031 203 95.9167 202.43 95.7188 201.289V199.578C96.1458 196.443 97.5729 194.875 100 194.875C100.068 194.875 100.352 194.805 100.852 194.664ZM97.6406 200.008V200.648C97.6406 201.716 98.5677 202.716 100.422 203.648C102.276 203.419 103.203 202.562 103.203 201.078V200.648C103.203 199.424 102.562 198.284 101.281 197.227C100.245 196.659 99.6745 196.375 99.5703 196.375C98.7057 196.375 98.0625 197.586 97.6406 200.008ZM109.867 189.961C111.008 189.961 111.578 191.031 111.578 193.172C111.724 193.172 111.797 193.242 111.797 193.383C113.219 193.242 114.286 193.172 115 193.172H115.641L115.852 194.234V195.094C114.997 195.198 114.57 195.341 114.57 195.523C114.857 196.445 115 197.086 115 197.445V197.656C115 198.943 113.932 199.799 111.797 200.227C109.656 199.695 108.586 198.625 108.586 197.016V196.586L108.797 196.164C107.089 196.164 106.234 195.664 106.234 194.664V194.023C106.458 194.023 106.742 193.88 107.086 193.594H109.438L109.016 191.031C109.292 190.38 109.576 190.023 109.867 189.961ZM110.727 196.805V197.016C110.727 197.219 110.94 197.432 111.367 197.656H112.219C112.505 197.656 112.648 197.516 112.648 197.234C112.648 196.948 112.505 196.805 112.219 196.805H110.727ZM115.852 200.438C116.565 200.438 116.922 201.151 116.922 202.578H116.711C116.471 202.859 113.906 203.214 109.016 203.641C108.302 203.359 107.945 202.932 107.945 202.359C107.945 201.365 109.299 200.867 112.008 200.867V201.078L115.852 200.438ZM115.43 204.07C116.424 204.07 116.922 205.354 116.922 207.922C116.74 208.635 116.526 208.992 116.281 208.992H115L114.57 207.492V206.422C112.164 206.849 110.74 207.062 110.297 207.062L109.438 205.57C109.724 205.57 110.01 205.284 110.297 204.711C112.557 204.284 114.268 204.07 115.43 204.07ZM133.195 195.523H133.836C133.836 195.742 133.979 196.026 134.266 196.375V198.938C134.266 199.589 134.479 201.156 134.906 203.641C134.63 204.292 134.344 204.648 134.047 204.711H133.625C133.016 204.711 132.516 202.716 132.125 198.727H132.344L132.125 198.297C132.271 196.448 132.628 195.523 133.195 195.523ZM122.078 195.945C123.646 196.049 124.43 196.477 124.43 197.227C124.643 197.086 125.57 196.945 127.211 196.805C128.352 197.909 128.922 199.62 128.922 201.938V202.359C128.922 203.099 128.708 203.526 128.281 203.641H127.422C126.995 203.641 126.711 202.216 126.57 199.367H125.281C125.078 199.367 124.865 199.581 124.641 200.008V200.227C124.641 200.971 124.714 202.182 124.859 203.859L124 204.5H123.578C123.005 204.5 122.648 203.503 122.508 201.508L122.719 200.227V198.727C122.719 198.44 122.505 198.297 122.078 198.297C121.766 198.297 120.695 198.44 118.867 198.727C118.299 198.586 118.016 198.159 118.016 197.445C118.016 196.445 119.227 195.945 121.648 195.945H122.078ZM146.258 198.727C146.534 198.867 146.747 198.938 146.898 198.938C147.039 198.938 147.109 198.867 147.109 198.727C148.964 198.826 149.891 199.253 149.891 200.008L149.25 201.078C147.828 200.938 146.758 200.867 146.039 200.867H144.328L142.836 201.078L142.406 200.438V200.008L142.617 198.938H144.328C144.844 198.938 145.487 198.867 146.258 198.727Z" fill="black"/>
<path d="M188.981 342.264C186.345 334.356 179.192 327.71 179.192 319.108C178.744 317.764 178.149 316.156 177.664 314.847C177.238 313.696 176.258 312.637 175.936 311.51C175.195 308.917 174.122 306.674 173.483 303.992C173.043 302.144 172.318 300.581 172.318 298.565V294.685C172.318 290.278 171.495 285.173 172.498 280.956C172.969 278.979 174.305 277.337 174.488 275.047C174.536 274.446 175.363 274.623 175.574 274.042C175.762 273.524 175.809 272.926 176.016 272.434C176.211 271.97 176.172 271.181 176.659 270.986C176.915 270.884 177.265 270.669 177.383 270.403C177.797 269.473 177.685 268.015 178.147 267.207C178.499 266.591 178.83 266.959 178.83 266.001C178.83 265.708 178.727 265.169 178.911 264.916C179.332 264.336 179.168 263.647 179.212 262.946C179.309 261.392 179.62 259.801 179.919 258.268L179.956 258.081C179.956 254.03 177.156 248.345 176.217 244.332C175.717 242.194 174.397 240.493 174.127 238.262C173.948 236.787 173.765 235.41 173.765 233.92V227.407C173.765 224.03 173.269 220.307 173.845 216.995C174.132 215.346 174.797 214.032 175.252 212.553C176.053 209.952 177.279 207.517 178.187 204.894C179.312 201.645 180.808 198.503 182.127 195.326C184.033 190.733 185.542 184.7 187.427 180.224C186.957 179.331 187.602 174.218 186.978 173.456C184.665 170.629 185.503 165.937 185.503 162.339C185.503 159.202 187.537 158.053 189.42 155.674C190.798 153.934 194.147 152.857 195.177 150.968C196.297 148.916 208.978 146.763 210.919 145.728C213.556 144.321 216.189 144.518 218.855 143.566C221.252 142.71 224.046 141.505 226.639 141.505H229.59C231.699 141.505 233.295 140.22 235.238 140.131C238.802 139.969 242.402 140.131 245.973 140.131H251.823C253.696 140.131 253.187 140.94 255.044 140.94C255.219 140.06 255.422 139.595 255.737 138.793C256.049 137.999 256.45 137.864 256.906 137.217C257.187 136.817 257.253 136.382 257.422 135.939C257.605 135.459 258.108 135.255 258.373 134.825C258.754 134.208 259.357 133.962 259.746 133.358C260.242 132.585 261.194 132.084 261.879 131.523C262.149 131.302 262.147 130.911 262.45 130.667C263.239 130.032 264.231 129.525 265.154 129.118C266.449 128.546 267.733 127.754 269.026 127.107C271.783 125.729 275.186 123.729 277.687 121.853C278.672 121.115 281 117.247 283.826 116.727C284.377 116.727 284.6 116.817 285.151 116.791C286.516 116.727 287.88 116.581 289.242 116.461C290.277 116.37 291.319 116.326 292.358 116.282L292.571 116.273C293.725 116.224 294.87 116.15 296.026 116.15H307.308C308.176 116.15 309.055 116.189 309.922 116.132C310.371 116.102 310.815 116.024 311.266 116.007C311.592 115.995 311.92 116.002 312.247 116.002C312.653 116.002 313.05 115.987 313.447 116.09C313.855 116.195 314.243 116.354 314.639 116.495C315.17 116.684 315.695 116.817 316.242 116.92C316.356 116.941 316.461 117 316.571 117.036C316.74 117.093 316.915 117.136 317.083 117.196C317.197 117.238 317.243 117.24 317.319 117.341C318.435 118.35 319.742 119.114 320.934 120.041C321.532 120.506 322.938 121.513 323.665 121.604C324.782 121.743 326.505 121.806 327.483 122.365C328.082 122.707 328.96 123.043 329.657 123.085C330.535 123.138 330.991 123.889 331.777 124.063C333.626 124.474 335.254 125.754 337.009 126.4C340.123 127.548 342.071 130.304 344.659 132.27C345.443 132.867 346.195 133.961 346.779 134.771C347.151 135.288 347.615 136.033 348.124 136.415C348.463 136.669 348.505 137.098 348.69 137.355C358.434 135.86 369.219 136.926 379.117 136.926H395.398C399.208 136.926 402.592 139.693 405.802 141.429C407.3 142.239 408.028 143.335 409.542 144.023C410.637 144.521 411.802 144.587 412.543 145.524C413.302 146.482 414.658 145.57 415.316 146.338C416.115 147.271 417.641 147.86 418.598 148.73C419.683 149.716 421.238 151.178 422.591 151.63C423.913 152.07 423.741 171.016 423.741 172.388C424.028 176.124 426.82 180.603 428.759 183.796C429.7 185.346 429.177 189.744 430.619 190.609C431.451 191.108 432.112 195.163 432.27 196.19C432.399 197.028 432.293 197.945 432.293 198.794C432.293 200.419 433.131 200.664 433.131 202.212C433.131 206.232 433.968 210.267 433.968 214.35V241.207C433.968 242.719 435.69 243.227 436.014 244.765C436.555 247.336 435.67 249.862 436.665 252.438C437.29 254.056 437.402 257.191 438.479 258.484C440.074 260.398 441.905 263.69 442.548 266.134C442.883 267.407 444.056 268.432 444.617 269.715C445.225 271.104 446.119 272.233 446.71 273.668C447.785 276.278 448.187 279.183 448.942 281.923C449.606 284.327 449.035 287.607 449.035 290.084C449.035 294.172 448.427 301.224 448.617 302.338C450.213 307.128 449.035 314.21 449.035 319.266C449.035 320.967 449.872 322.509 449.872 324.336C449.872 325.451 450.66 326.07 450.71 327.358C450.767 328.857 453.375 330.966 454.104 332.241C455.431 334.563 458.52 336.846 460.313 338.938C462.152 341.084 461.173 346.142 461.173 348.797C461.173 356.594 455.644 363.837 448.012 365.632C444.135 366.545 439.541 366.376 435.549 366.376C431.453 366.376 426.349 367.24 422.434 366.144C417.761 364.835 416.389 363.596 416.389 358.47C416.389 356.26 416.3 354.029 416.389 351.82C416.438 350.597 417.226 349.303 417.226 347.96C417.226 345.092 419.829 342.569 420.737 339.845C421.456 337.688 420.993 334.929 420.993 332.683V327.451C420.993 324.848 419.828 322.643 419.737 320.104C419.581 315.733 418.79 311.714 417.691 307.594C416.886 304.575 416.728 301.237 416.342 298.153C416.119 296.371 415.824 294.753 415.665 293.039C415.258 292.555 414.76 292.112 414.203 291.689C412.721 290.563 411.339 287.697 410.622 286.108C409.495 283.612 407.66 281.841 406.855 279.225C406.511 278.108 406.343 276.944 406.343 275.761C406.343 266.663 405.948 256.666 405.948 247.509C405.831 246.689 405.551 246.666 404.855 246.253C404.17 245.846 404.378 245.221 403.995 244.625C403.291 243.53 402.019 242.42 401.112 241.416C397.558 237.489 396.354 235.959 394.206 231.185C391.389 231.498 390.075 236.484 388.997 238.487C387.613 241.057 386.146 243.156 385.184 246.044C384.636 247.685 383.671 249.303 382.905 250.857C382.199 252.289 380.552 253.712 380.045 255.066C379.757 255.832 379.794 256.564 379.37 257.321C378.859 258.237 377.907 258.727 377.557 259.74C377.064 261.162 375.888 262.193 375.185 263.599C374.417 265.134 373.325 266.806 372.86 268.436C372.462 269.827 370.915 270.404 370.767 271.97C370.633 273.393 369.588 274.063 369.511 275.365C369.419 276.931 369.093 278.472 369.093 280.016V310.919C369.093 314.362 369.295 317.209 370.767 320.336C372.144 323.263 372.441 325.448 372.441 328.707C373.699 330.3 376.649 338.42 377.743 340.101C380.107 343.732 383.483 346.585 386.067 350.03C388.552 353.343 392.188 356.255 395.229 359.052C397.163 360.831 399.402 363.244 401.553 364.377C402.007 364.615 403.679 367.376 403.925 367.958C404.617 369.592 405.925 371.456 405.925 373.329C405.925 377.558 406.343 381.628 406.343 385.862V405.952C406.343 409.429 405.129 412.157 404.576 415.532C404.269 417.413 404.135 419.359 403.646 421.206C403.116 423.21 402.158 424.629 402.158 426.787C402.158 428.85 400.969 430.544 400.484 432.484C400.088 434.068 398.952 436.033 398.81 437.53C398.679 438.898 398.339 441.1 397.763 442.366C397.37 443.231 397.73 444.152 397.507 445.04C397.276 445.965 396.925 447.326 396.717 448.365V463.689C396.717 470.446 395.239 479.327 397.972 485.476C399.101 488.016 398.81 491.655 398.81 494.452V523.495C398.81 525.294 398.121 525.006 396.531 525.006H382.812C379.259 525.006 372.633 526.324 370.069 523.657C367.821 521.319 369.093 515.11 369.093 512.031C369.093 507.998 368.756 503.779 367.442 500.056C366.448 497.241 367.293 494.006 365.768 491.336C364.605 489.302 364.211 485.776 364.07 483.477C363.803 479.112 361.238 475.148 361.14 470.595C361.103 468.86 361.14 467.121 361.14 465.386C361.14 464.702 361.754 464.517 361.931 463.898C362.593 461.582 362.611 459.051 363.279 456.713C364.079 453.915 364.983 451.133 365.884 448.365C366.57 446.255 366.927 441.724 364.907 438.134C363.635 435.937 361.761 433.454 360.094 431.53C357.879 428.975 356.23 426.126 353.513 423.903C350.4 421.356 348.536 417.851 346.049 414.742C344.142 412.358 344.461 411.169 344.398 408.138C344.295 403.196 342.862 398.284 342.329 393.396C341.983 390.225 341.812 386.899 341.213 383.769C340.811 381.67 340.213 379.84 340.213 377.677C340 374.247 337.646 393.775 337.074 400.069C336.727 403.884 335.692 407.222 335.609 411.068C335.51 415.623 333.965 419.849 333.539 424.322C332.66 433.555 328.947 442.117 326.633 451.039C326.008 453.452 323.963 455.087 323.145 457.294C322.624 458.701 322.427 459.723 321.243 461.387C319.927 463.723 314.839 473.836 313.844 479.803C313.625 481.118 312.325 481.89 312.147 483.407C311.964 484.966 310.627 485.414 310.17 486.686C309.455 488.679 308.753 490.68 308.403 492.778C307.785 496.487 306.729 500.04 306.729 503.66V523.611C306.729 524.757 307.101 526.646 306.636 527.75C306.15 528.905 305.337 529.61 304.125 529.61H280.546C277.124 529.61 282.453 520.297 282.453 519.402V495.429C282.453 493.401 281.616 491.778 281.616 489.871C281.616 488.178 280.838 486.696 280.779 485.151C280.724 483.726 281.469 480.022 280.57 478.943C279.604 477.783 279.245 476.086 278.779 474.687C278.086 472.607 277.012 471.406 277.012 469.107C277.012 466.735 276.548 463.818 277.105 461.48C277.432 460.105 278.405 458.856 278.779 457.387C279.19 455.776 280.36 452.588 280.36 450.923V440.878C280.36 439.626 279.523 439.675 279.523 438.46C279.523 437.596 279.254 436.475 278.779 435.762C278.4 435.193 278.686 433.799 278.686 433.111C278.686 431.435 278.299 429.661 277.803 428.066C275.531 420.763 273.846 413.415 272.175 405.976C271.057 400.993 269.969 394.233 271.803 389.303C273.18 385.605 271.97 381.107 273.245 377.282C274.892 372.342 274.88 366.881 276.687 361.912C277.633 359.309 278.5 354.747 278.175 354.052C277.5 352.247 277.523 342.099 277.338 341.031C276.984 338.989 276.594 337.176 276.594 335.078C276.594 333.562 275.54 332.276 275.245 330.8C274.932 329.234 274.762 327.604 274.408 326.056C274.224 325.256 273.531 324.718 273.292 323.94C272.841 322.476 272.661 320.738 272.431 319.243C272.132 317.298 271.342 316.097 270.827 314.244C270.002 311.273 270.296 310.06 267.362 308.593C266.471 308.148 265.875 306.776 265.06 306.105C264.356 305.525 263.818 305.151 262.991 304.803C262.116 304.435 262.02 303.436 261.107 303.176C258.553 302.446 257.348 300.095 255.271 298.571C252.958 296.875 250.961 294.959 249.295 292.619C247.951 290.731 246.593 288.87 245.295 286.945C244.525 285.803 243.366 285.116 242.598 283.922C241.63 282.416 240.889 280.746 239.738 279.365C236.873 275.927 234.785 271.964 231.995 268.413C229.436 265.156 230.723 257.526 230.723 253.224C226.347 261.101 226.739 264.53 219.36 269.449C219.36 277.354 217.817 304.805 216.841 312.615C216.041 319.017 216.097 325.483 216.097 332.133C216.097 335.355 217.656 338.717 218.811 341.721C219.237 342.828 219.611 344.338 219.716 345.521C219.795 346.422 220.641 347.119 220.881 348.053C221.078 348.818 221.325 350.27 221.525 350.586C221.927 351.224 223.641 353.517 224.138 354.646C224.356 355.143 224.761 355.679 225.062 356.094C225.33 356.462 225.077 356.904 225.525 357.239C225.867 357.496 226.281 357.495 226.59 357.822C226.963 358.217 226.826 358.612 226.992 359.069C227.161 359.535 227.795 359.696 228.037 360.154C228.523 361.072 228.61 361.757 229.485 362.446C230.956 363.605 231.255 364.138 232.017 365.903C232.317 366.598 232.988 366.899 233.264 367.652C233.583 368.524 233.64 369.479 234.269 370.205C236.227 372.464 237.445 376.143 237.445 379.089C237.445 383.111 236.909 386.676 233.585 389.099C227.556 393.496 219.099 392.46 212.117 391.753C208.841 391.421 204.109 390.292 201.504 388.034C199.06 385.916 197.645 384.415 197.645 381.2V372.858C197.645 369.713 197.865 367.211 198.871 364.194C199.199 363.211 199.409 361.291 198.871 360.335C198.224 359.185 197.825 357.147 197.062 356.214C195.991 354.906 194.406 352.735 194.006 351.068C193.615 349.439 192.47 347.542 191.634 346.063C190.907 344.775 189.456 343.687 188.981 342.264Z" fill="#AFAFAF"/>
<path d="M283.826 116.727C284.818 120.832 285.806 125.019 286.501 129.186C286.631 129.967 287.114 130.576 287.289 131.346C287.579 132.621 288.316 133.709 288.648 134.961C288.955 136.122 289.807 137.005 290.115 138.113C290.454 139.334 291.049 140.616 291.692 141.728C292.069 142.381 292.168 143.096 292.507 143.725C292.823 144.313 293.324 144.758 293.594 145.397C294.038 146.448 294.766 147.197 295.116 148.278C295.469 149.37 296.624 150.411 297.073 151.512C297.369 152.239 297.712 152.885 298.241 153.414M283.826 116.727C281 117.247 278.672 121.115 277.687 121.853C275.186 123.729 271.783 125.729 269.026 127.107C267.733 127.754 266.449 128.546 265.154 129.118C264.231 129.525 263.239 130.032 262.45 130.667C262.147 130.911 262.149 131.302 261.879 131.523C261.194 132.084 260.242 132.585 259.746 133.358C259.357 133.962 258.754 134.208 258.373 134.825C258.108 135.255 257.605 135.459 257.422 135.939C257.253 136.382 257.187 136.817 256.906 137.217C256.45 137.864 256.049 137.999 255.737 138.793C255.422 139.595 255.219 140.06 255.044 140.94M283.826 116.727C284.377 116.727 284.6 116.817 285.151 116.791C286.516 116.727 287.88 116.581 289.242 116.461C290.277 116.37 291.319 116.326 292.358 116.282L292.571 116.273C293.725 116.224 294.87 116.15 296.026 116.15H307.308C308.176 116.15 309.055 116.189 309.922 116.132C310.371 116.102 310.815 116.024 311.266 116.007C311.592 115.995 311.92 116.002 312.247 116.002C312.653 116.002 313.05 115.987 313.447 116.09C313.855 116.195 314.243 116.354 314.639 116.495C315.17 116.684 315.695 116.817 316.242 116.92C316.356 116.941 316.461 117 316.571 117.036C316.74 117.093 316.915 117.136 317.083 117.196C317.197 117.238 317.243 117.24 317.319 117.341M310.471 146.565C310.471 144.642 311.742 143.053 311.938 141.184C312.064 139.988 312.826 139.324 312.93 138.127C313.017 137.131 313.406 136.181 313.406 135.192C313.406 134.563 313.781 134.252 314.031 133.738C314.399 132.98 314.43 132.058 314.792 131.292C315.528 129.73 316.14 127.705 316.558 126.033C316.899 124.67 317.319 123.067 317.319 121.672V117.341M317.319 117.341C318.435 118.35 319.742 119.114 320.934 120.041C321.532 120.506 322.938 121.513 323.665 121.604C324.782 121.743 326.505 121.806 327.483 122.365C328.082 122.707 328.96 123.043 329.657 123.085C330.535 123.138 330.991 123.889 331.777 124.063C333.626 124.474 335.254 125.754 337.009 126.4C340.123 127.548 342.071 130.304 344.659 132.27C345.443 132.867 346.195 133.961 346.779 134.771C347.151 135.288 347.615 136.033 348.124 136.415C348.463 136.669 348.505 137.098 348.69 137.355M348.69 137.355C344.757 137.96 341.052 139.551 336.991 140.131C335.082 140.404 331.342 142.872 329.894 143.998C329.09 144.624 327.169 144.225 326.205 144.252C324.183 144.31 322.717 146.084 320.507 146.084M348.69 137.355C358.434 135.86 369.219 136.926 379.117 136.926H395.398C399.208 136.926 402.592 139.693 405.802 141.429C407.3 142.239 408.028 143.335 409.542 144.023C410.637 144.521 411.802 144.587 412.543 145.524C413.302 146.482 414.658 145.57 415.316 146.338C416.115 147.271 417.641 147.86 418.598 148.73C419.683 149.716 421.238 151.178 422.591 151.63C423.913 152.07 423.741 171.016 423.741 172.388M255.044 140.94C255.919 140.94 257.671 142.946 258.463 143.311C259.721 143.892 261.084 144.191 262.355 144.736C263.613 145.275 264.393 146.254 265.738 146.771C266.965 147.243 268.095 147.572 269.198 148.399C270.261 149.196 271.46 150.064 272.454 150.892C273.391 151.672 275.031 151.447 276.092 152.037C278.427 153.334 280.642 155.7 283.418 155.7M255.044 140.94C253.187 140.94 253.696 140.131 251.823 140.131H245.973C242.402 140.131 238.802 139.969 235.238 140.131C233.295 140.22 231.699 141.505 229.59 141.505H226.639C224.046 141.505 221.252 142.71 218.855 143.566C216.189 144.518 213.556 144.321 210.919 145.728C208.978 146.763 196.297 148.916 195.177 150.968C194.147 152.857 190.798 153.934 189.42 155.674C187.537 158.053 185.503 159.202 185.503 162.339C185.503 165.937 184.665 170.629 186.978 173.456C187.602 174.218 186.957 179.331 187.427 180.224M423.741 172.388C423.741 178.434 423.921 173.132 423.075 179.052M423.741 172.388C424.028 176.124 426.82 180.603 428.759 183.796C429.7 185.346 429.177 189.744 430.619 190.609C431.451 191.108 432.112 195.163 432.27 196.19C432.399 197.028 432.293 197.945 432.293 198.794C432.293 200.419 433.131 200.664 433.131 202.212C433.131 206.232 433.968 210.267 433.968 214.35V241.207C433.968 242.719 435.69 243.227 436.014 244.765C436.555 247.336 435.67 249.862 436.665 252.438C437.29 254.056 437.402 257.191 438.479 258.484C440.074 260.398 441.905 263.69 442.548 266.134C442.883 267.407 444.056 268.432 444.617 269.715C445.225 271.104 446.119 272.233 446.71 273.668C447.785 276.278 448.187 279.183 448.942 281.923C449.606 284.327 449.035 287.607 449.035 290.084C449.035 294.172 448.427 301.224 448.617 302.338C450.213 307.128 449.035 314.21 449.035 319.266C449.035 320.967 449.872 322.509 449.872 324.336C449.872 325.451 450.66 326.07 450.71 327.358C450.767 328.857 453.375 330.966 454.104 332.241C455.431 334.563 458.52 336.846 460.313 338.938C462.152 341.084 461.173 346.142 461.173 348.797C461.173 356.594 455.644 363.837 448.012 365.632C444.135 366.545 439.541 366.376 435.549 366.376C431.453 366.376 426.349 367.24 422.434 366.144C417.761 364.835 416.389 363.596 416.389 358.47C416.389 356.26 416.3 354.029 416.389 351.82C416.438 350.597 417.226 349.303 417.226 347.96C417.226 345.092 419.829 342.569 420.737 339.845C421.456 337.688 420.993 334.929 420.993 332.683V327.451C420.993 324.848 419.828 322.643 419.737 320.104C419.581 315.733 418.79 311.714 417.691 307.594C416.886 304.575 416.728 301.237 416.342 298.153C416.119 296.371 415.824 294.753 415.665 293.039C415.258 292.555 414.76 292.112 414.203 291.689C412.721 290.563 411.339 287.697 410.622 286.108C409.495 283.612 407.66 281.841 406.855 279.225C406.511 278.108 406.343 276.944 406.343 275.761C406.343 266.663 405.948 256.666 405.948 247.509M187.427 180.224C187.825 180.98 190.994 188.647 191.455 189.224C192.556 190.599 192.691 192.476 193.643 193.904M187.427 180.224C185.542 184.7 184.033 190.733 182.127 195.326C180.808 198.503 179.312 201.645 178.187 204.894C177.279 207.517 176.053 209.952 175.252 212.553C174.797 214.032 174.132 215.346 173.845 216.995C173.269 220.307 173.765 224.03 173.765 227.407V233.92C173.765 235.41 173.948 236.787 174.127 238.262C174.397 240.493 175.717 242.194 176.217 244.332C177.156 248.345 179.956 254.03 179.956 258.081M241.575 199.351C240.229 200.36 241.081 205.565 241.081 207.14V214.27C241.081 217.186 240.144 219.602 239.6 222.443C239.107 225.02 239.248 227.664 238.585 230.204C237.936 232.695 237.438 235.063 236.885 237.609C236.432 239.693 235.813 240.827 234.993 242.765C234.33 244.33 231.561 251.715 230.723 253.224M230.723 253.224C226.347 261.101 226.739 264.53 219.36 269.449M230.723 253.224C230.723 257.526 229.436 265.156 231.995 268.413C234.785 271.964 236.873 275.927 239.738 279.365C240.889 280.746 241.63 282.416 242.598 283.922C243.366 285.116 244.525 285.803 245.295 286.945C246.593 288.87 247.951 290.731 249.295 292.619C250.961 294.959 252.958 296.875 255.271 298.571C257.348 300.095 258.553 302.446 261.107 303.176C262.02 303.436 262.116 304.435 262.991 304.803C263.818 305.151 264.356 305.525 265.06 306.105C265.875 306.776 266.471 308.148 267.362 308.593C270.296 310.06 270.002 311.273 270.827 314.244C271.342 316.097 272.132 317.298 272.431 319.243C272.661 320.738 272.841 322.476 273.292 323.94C273.531 324.718 274.224 325.256 274.408 326.056C274.762 327.604 274.932 329.234 275.245 330.8C275.54 332.276 276.594 333.562 276.594 335.078C276.594 337.176 276.984 338.989 277.338 341.031C277.523 342.099 277.5 352.247 278.175 354.052C278.5 354.747 277.633 359.309 276.687 361.912C274.88 366.881 274.892 372.342 273.245 377.282C271.97 381.107 273.18 385.605 271.803 389.303C269.969 394.233 271.057 400.993 272.175 405.976C273.846 413.415 275.531 420.763 277.803 428.066C278.299 429.661 278.686 431.435 278.686 433.111C278.686 433.799 278.4 435.193 278.779 435.762C279.254 436.475 279.523 437.596 279.523 438.46C279.523 439.675 280.36 439.626 280.36 440.878V450.923C280.36 452.588 279.19 455.776 278.779 457.387C278.405 458.856 277.432 460.105 277.105 461.48C276.548 463.818 277.012 466.735 277.012 469.107C277.012 471.406 278.086 472.607 278.779 474.687C279.245 476.086 279.604 477.783 280.57 478.943C281.469 480.022 280.724 483.726 280.779 485.151C280.838 486.696 281.616 488.178 281.616 489.871C281.616 491.778 282.453 493.401 282.453 495.429V519.402C282.453 520.297 277.124 529.61 280.546 529.61H304.125C305.337 529.61 306.15 528.905 306.636 527.75C307.101 526.646 306.729 524.757 306.729 523.611V503.66C306.729 500.04 307.785 496.487 308.403 492.778C308.753 490.68 309.455 488.679 310.17 486.686C310.627 485.414 311.964 484.966 312.147 483.407C312.325 481.89 313.625 481.118 313.844 479.803C314.839 473.836 319.927 463.723 321.243 461.387C322.427 459.723 322.624 458.701 323.145 457.294C323.963 455.087 326.008 453.452 326.633 451.039C328.947 442.117 332.66 433.555 333.539 424.322C333.965 419.849 335.51 415.623 335.609 411.068C335.692 407.222 336.727 403.884 337.074 400.069C337.646 393.775 340 374.247 340.213 377.677C340.213 379.84 340.811 381.67 341.213 383.769C341.812 386.899 341.983 390.225 342.329 393.396C342.862 398.284 344.295 403.196 344.398 408.138C344.461 411.169 344.142 412.358 346.049 414.742C348.536 417.851 350.4 421.356 353.513 423.903C356.23 426.126 357.879 428.975 360.094 431.53C361.761 433.454 363.635 435.937 364.907 438.134M219.36 269.449C218.927 263.724 217.427 264.224 216.821 261.579M219.36 269.449C219.36 277.354 217.817 304.805 216.841 312.615C216.041 319.017 216.097 325.483 216.097 332.133C216.097 335.355 217.656 338.717 218.811 341.721C219.237 342.828 219.611 344.338 219.716 345.521C219.795 346.422 220.641 347.119 220.881 348.053C221.078 348.818 221.325 350.27 221.525 350.586C221.927 351.224 223.641 353.517 224.138 354.646C224.356 355.143 224.761 355.679 225.062 356.094C225.33 356.462 225.077 356.904 225.525 357.239C225.867 357.496 226.281 357.495 226.59 357.822C226.963 358.217 226.826 358.612 226.992 359.069C227.161 359.535 227.795 359.696 228.037 360.154C228.523 361.072 228.61 361.757 229.485 362.446C230.956 363.605 231.255 364.138 232.017 365.903C232.317 366.598 232.988 366.899 233.264 367.652C233.583 368.524 233.64 369.479 234.269 370.205C236.227 372.464 237.445 376.143 237.445 379.089C237.445 383.111 236.909 386.676 233.585 389.099C227.556 393.496 219.099 392.46 212.117 391.753C208.841 391.421 204.109 390.292 201.504 388.034C199.06 385.916 197.645 384.415 197.645 381.2V372.858C197.645 369.713 197.865 367.211 198.871 364.194C199.199 363.211 199.409 361.291 198.871 360.335C198.224 359.185 197.825 357.147 197.062 356.214C195.991 354.906 194.406 352.735 194.006 351.068C193.615 349.439 192.47 347.542 191.634 346.063C190.907 344.775 189.456 343.687 188.981 342.264C186.345 334.356 179.192 327.71 179.192 319.108C178.744 317.764 178.149 316.156 177.664 314.847C177.238 313.696 176.258 312.637 175.936 311.51C175.195 308.917 174.122 306.674 173.483 303.992C173.043 302.144 172.318 300.581 172.318 298.565V294.685C172.318 290.278 171.495 285.173 172.498 280.956C172.969 278.979 174.305 277.337 174.488 275.047C174.536 274.446 175.363 274.623 175.574 274.042C175.762 273.524 175.809 272.926 176.016 272.434C176.211 271.97 176.172 271.181 176.659 270.986C176.915 270.884 177.265 270.669 177.383 270.403C177.797 269.473 177.685 268.015 178.147 267.207C178.499 266.591 178.83 266.959 178.83 266.001C178.83 265.708 178.727 265.169 178.911 264.916C179.332 264.336 179.168 263.647 179.212 262.946C179.309 261.392 179.62 259.801 179.919 258.268L179.956 258.081M179.956 258.081C180.45 255.551 181.578 253.336 181.725 250.725C181.799 249.406 182.04 248.066 183.534 247.83M386.5 202.747C386.5 211.779 389.433 219.433 393.089 227.558L394.206 231.185M394.206 231.185C396.354 235.959 397.558 237.489 401.112 241.416C402.019 242.42 403.291 243.53 403.995 244.625C404.378 245.221 404.17 245.846 404.855 246.253C405.551 246.666 405.831 246.689 405.948 247.509M394.206 231.185C391.389 231.498 390.075 236.484 388.997 238.487C387.613 241.057 386.146 243.156 385.184 246.044C384.636 247.685 383.671 249.303 382.905 250.857C382.199 252.289 380.552 253.712 380.045 255.066C379.757 255.832 379.794 256.564 379.37 257.321C378.859 258.237 377.907 258.727 377.557 259.74C377.064 261.162 375.888 262.193 375.185 263.599C374.417 265.134 373.325 266.806 372.86 268.436C372.462 269.827 370.915 270.404 370.767 271.97C370.633 273.393 369.588 274.063 369.511 275.365C369.419 276.931 369.093 278.472 369.093 280.016V310.919C369.093 314.362 369.295 317.209 370.767 320.336C372.144 323.263 372.441 325.448 372.441 328.707C373.699 330.3 376.649 338.42 377.743 340.101C380.107 343.732 383.483 346.585 386.067 350.03C388.552 353.343 392.188 356.255 395.229 359.052C397.163 360.831 399.402 363.244 401.553 364.377C402.007 364.615 403.679 367.376 403.925 367.958C404.617 369.592 405.925 371.456 405.925 373.329C405.925 377.558 406.343 381.628 406.343 385.862V405.952C406.343 409.429 405.129 412.157 404.576 415.532C404.269 417.413 404.135 419.359 403.646 421.206C403.116 423.21 402.158 424.629 402.158 426.787C402.158 428.85 400.969 430.544 400.484 432.484C400.088 434.068 398.952 436.033 398.81 437.53C398.679 438.898 398.339 441.1 397.763 442.366C397.37 443.231 397.73 444.152 397.507 445.04C397.276 445.965 396.925 447.326 396.717 448.365M405.948 247.509C406.366 250.437 410.947 250.782 410.947 254.205M396.717 448.365V463.689C396.717 470.446 395.239 479.327 397.972 485.476C399.101 488.016 398.81 491.655 398.81 494.452V523.495C398.81 525.294 398.121 525.006 396.531 525.006H382.812C379.259 525.006 372.633 526.324 370.069 523.657C367.821 521.319 369.093 515.11 369.093 512.031C369.093 507.998 368.756 503.779 367.442 500.056C366.448 497.241 367.293 494.006 365.768 491.336C364.605 489.302 364.211 485.776 364.07 483.477C363.803 479.112 361.238 475.148 361.14 470.595C361.103 468.86 361.14 467.121 361.14 465.386C361.14 464.702 361.754 464.517 361.931 463.898C362.593 461.582 362.611 459.051 363.279 456.713C364.079 453.915 364.983 451.133 365.884 448.365C366.57 446.255 366.927 441.724 364.907 438.134M396.717 448.365V447.993M364.907 438.134C367.362 442.374 370.038 445.807 371.604 450.504" stroke="black" stroke-width="2" stroke-linecap="round"/>
<path d="M310.356 344.482C300.195 346.814 289.882 348.229 279.513 348.229C277.487 348.229 281.188 355.554 283.424 356.863C285.979 358.359 287.604 360.407 290.651 360.792C294.187 361.239 297.319 362.635 300.562 364.054C302.106 364.729 304.154 364.904 305.789 365.435C306.958 365.815 309.137 366.387 310.332 366.387C316.425 366.387 321.986 369.294 327.471 371.721C330.81 373.198 333.571 375.87 336.911 377.197C339.338 378.161 342.091 377.959 344.657 377.959C346.697 377.959 347.816 378.01 348.871 376.03C349.533 374.785 350.393 373.642 351.013 372.387C351.851 370.693 352.79 369.185 353.555 367.483C354.097 366.278 355.438 365.431 355.792 364.149C357.04 359.628 361.558 356.414 363.255 352.03C364.084 349.886 365.143 347.821 366.315 345.816C367.293 344.141 368.458 343.423 368.599 341.435C368.673 340.376 369.6 339.551 369.964 338.577C370.85 336.21 371.546 333.61 371.895 331.101C372.14 329.339 370.934 330.11 370.058 330.363C366.286 331.453 362.736 335.232 358.758 335.53C357.341 335.636 356.179 336.34 354.615 336.387C351.513 336.479 348.301 338.301 345.174 338.697C339.759 339.381 334.33 339.607 328.93 340.482C322.638 341.503 316.561 343.058 310.356 344.482Z" fill="#FF0000" stroke="black" stroke-width="2" stroke-linecap="round"/>
<path d="M301.04 165.804V179.657C301.04 185.432 302.697 190.921 302.697 196.778C302.697 198.601 302.752 200.432 302.697 202.255C302.641 204.075 299.775 205.347 298.785 206.788C296.656 209.884 292.697 212.606 289.419 214.497C288.246 215.174 287.124 216.091 286.105 216.983C284.852 218.079 283.371 218.409 281.986 219.261C279.768 220.625 277.314 221.463 274.944 222.551C271.467 224.149 268.911 224.208 265.164 224.208C261.801 224.208 257.87 224.89 254.97 223.15C253.498 222.267 250.42 222.697 249.309 221.309C248.857 220.744 247.525 220.48 246.778 220.48M304.768 204.326C310.249 207.686 316.107 208.317 322.303 209.435C325.323 209.979 328.449 209.813 331.461 210.332C333.522 210.687 335.084 211.368 337.214 211.368H372.699C374.175 211.368 376.74 209.934 378.106 209.25C379.281 208.663 379.362 207.225 380.753 207.225C381.316 207.225 382.236 206.066 382.732 205.661C385.116 203.71 387.096 201.577 388.853 198.941M205.243 267.259C205.243 273.043 208.346 278.446 208.499 284.265C208.554 286.365 208.499 288.475 208.499 290.576C208.499 293.94 206.572 296.844 205.102 299.783C204.65 300.687 204.66 301.577 204.439 302.516C204.159 303.706 203.374 304.041 203.072 305.25M275.658 249.121C275.961 249.928 278.867 249.496 279.469 249.496C283.236 249.496 287.013 249.581 290.778 249.475C295.345 249.346 300.289 247.011 304.316 244.997C304.813 244.748 305.264 244.662 305.722 244.664M305.722 244.664C306.172 244.666 306.629 244.752 307.148 244.851C311.877 245.757 316.397 247.085 321.227 247.413C327.881 247.865 334.596 247.621 341.263 247.621M305.722 244.664C305.754 246.485 305.853 248.284 306.065 250.037C306.419 252.952 307.443 255.892 307.523 258.868C307.596 261.576 308.599 263.817 308.648 266.532C308.702 269.567 309.168 272.586 309.695 275.602M305.722 244.664C305.639 239.862 306.024 234.907 306.024 230.231V218.755M278.657 275.737C281.651 277.83 283.315 279.111 286.905 279.111H293.736C295.89 279.111 298.688 279.571 300.692 278.695C301.634 278.283 302.178 277.543 303.233 277.32C303.923 277.174 304.672 277.185 305.232 276.695C305.605 276.369 307.025 276.046 307.584 275.919L307.648 275.904C308.307 275.753 308.993 275.658 309.695 275.602M309.695 275.602C312.373 275.388 315.294 275.737 317.853 275.737C323.695 275.737 329.484 275.335 335.264 274.613M309.695 275.602C310.277 278.934 310.933 282.264 311.189 285.609C311.651 291.668 311.649 297.705 311.647 303.774L311.647 304.177M286.905 307.228C287.964 313.373 299.222 310.173 302.775 309.102C304.926 308.453 305.798 307.221 307.898 306.561C308.671 306.318 308.493 305.492 309.21 305.332C309.737 305.215 310.649 304.938 311.064 304.583C311.244 304.428 311.439 304.294 311.647 304.177M311.647 304.177C314.884 302.37 321.286 304.994 324.372 305.895C327.789 306.891 331.008 306.853 334.515 306.853H343.512M311.647 304.177L311.647 304.978M343.892 144.608C344.712 145.373 345.084 147.065 345.1 148.176C345.108 148.755 345.1 149.334 345.1 149.913C345.1 150.692 345.177 150.891 344.556 151.369C343.476 152.199 341.724 152.571 340.445 153.005C339.837 153.212 339.095 153.262 338.459 153.421M341.236 159.096C341.311 157.863 343.024 156.954 343.919 156.373C344.896 155.737 346.297 155.112 347.487 155.112C348.419 155.112 349.117 155.719 349.634 156.493C349.956 156.977 350.22 157.487 350.6 157.935C350.853 158.235 351.015 158.036 351.015 158.492M348.239 144.246C348.346 145.801 348.971 147.163 349.634 148.525L349.656 148.571C349.993 149.265 350.489 150.284 351.384 150.396C352.129 150.489 352.694 151.007 353.49 151.007C354.181 151.007 354.918 150.872 355.483 151.248M209.154 213.547C209.631 214.778 209.627 216.314 209.737 217.618C209.833 218.742 209.878 219.863 209.878 220.992C209.878 222.353 209.613 223.574 208.523 224.493C206.346 226.329 203.639 227.472 201.427 229.242M202.996 232.743C203.664 232.589 204.393 231.917 204.901 231.482C205.851 230.67 206.855 230.047 208.06 229.678C209.685 229.18 211.685 229.338 212.816 230.691C213.711 231.761 214.858 233.08 215.083 234.487C215.177 235.074 215.293 236.226 215.673 236.607M215.794 215.599C213.934 217.9 214.466 220.959 214.466 223.715C214.466 224.141 214.425 224.592 214.466 225.016C214.531 225.695 215.907 226.45 216.493 226.772L216.545 226.8C217.769 227.473 219.25 227.552 220.623 227.552C221.395 227.552 222.244 227.648 222.971 227.887C223.956 228.211 225.152 228.035 226.177 228.035" stroke="black" stroke-width="2" stroke-linecap="round"/>
<path d="M275.583 68.9672C275.825 69.7056 276.442 72.978 277.701 73.1183C274.894 73.8223 273.083 78.5628 271.97 80.797C269.833 85.0849 270.707 91.0391 270.707 95.7255C270.707 101.059 271.75 105.246 275.078 109.602C277.711 113.047 279.756 115.696 283.489 118.021C287.569 120.561 291.256 120.827 295.922 120.827C299.318 120.827 303.031 121.241 306.412 120.788C308.576 120.499 310.928 119.477 312.939 118.645C315.403 117.625 317.457 116.459 319.389 114.591C321.211 112.828 321.878 111.231 322.861 108.882L322.861 108.881L322.885 108.822C325.389 102.832 325.955 97.0954 325.955 90.6389C325.955 87.4806 326.469 83.1058 324.032 80.6606C323.104 79.7301 322.365 78.5696 321.487 77.6008C320.788 76.83 319.526 75.4016 319.039 74.5215C318.341 73.2615 316.379 71.1575 315.115 70.3119C315.115 59.2091 315.355 47.0307 315.115 35.9333C315.01 31.0986 312.785 26.7531 312.046 22.0572L312.039 22.0161C311.839 20.7407 311.445 18.2375 309.87 18.0619C308.349 17.8924 306.899 18.2379 305.402 18.3933C304.063 18.5322 303.267 22.0604 302.877 22.9732C299.586 30.6767 297.632 39.5586 297.632 47.958V59.9048C297.632 60.6415 298.125 65.4347 297.088 65.732C295.492 66.1892 293.027 65.8411 291.396 65.732C290.163 65.6496 290.001 65.4109 289.939 64.3483C289.881 63.3545 289.165 61.4352 288.812 60.4115C287.986 58.0159 288.25 55.3185 287.627 52.8888C286.859 49.8917 285.9 46.9289 285.121 43.9238C284.137 40.126 283.883 36.1391 282.946 32.3084C281.901 28.0437 281.019 23.7572 279.837 19.5236C279.321 17.6732 278.551 13.1322 276.574 12.2347C273.048 10.6344 269.559 17.6602 268.765 19.9134C267.419 23.7331 268.259 28.8015 268.259 32.7956C268.259 38.1957 268.687 43.1859 269.736 48.4842C271.106 55.401 273.385 62.2679 275.583 68.9672Z" fill="#AFAFAF" stroke="black" stroke-width="2" stroke-linecap="round"/>
<path d="M269.552 9.7377C269.764 9.33646 270 8.49987 270.87 7.98012C271.74 7.4605 272.363 7.76042 273.092 7.76042H275.13C275.771 7.76042 277.104 7.73316 277.571 8.19982C278.239 8.86781 279.138 9.46207 279.707 10.2381C280.797 11.725 282.025 13.133 283.057 14.6809C283.272 15.0029 283.417 15.5169 283.527 15.8892C283.633 16.2434 283.885 16.5309 284.003 16.8779C284.324 17.8224 284.72 18.7395 285.041 19.6851C286.934 25.26 287.541 31.1793 288.062 37.0107C288.376 40.5315 288.556 44.088 288.556 47.6234C288.556 48.8046 285.025 48.5904 284.266 48.6852C282.509 48.9049 280.744 48.8439 278.975 48.8439C276.121 48.8439 273.308 48.7917 270.461 48.6242C269.774 48.5838 267.457 48.6193 267.111 47.9651C266.967 47.6941 266.816 47.4576 266.806 47.0863C266.646 41.3187 266.696 35.5362 266.696 29.7607C266.696 25.893 266.44 21.9419 266.971 18.1106C267.274 15.9221 268.074 14.0087 268.698 11.9103C268.925 11.1469 269.182 10.439 269.552 9.7377Z" fill="#6C11A4" stroke="black" stroke-width="2" stroke-linecap="round"/>
<path d="M302.274 16.4507C302.431 16.2714 305.202 13.0666 305.472 13.4727L306.485 13.4725C306.786 13.4725 307.456 13.4851 307.73 13.6068C308.527 13.9609 309.179 14.8235 309.781 15.4254C310.599 16.2437 311.281 17.072 311.868 18.0862C312.001 18.3168 312.264 18.4465 312.393 18.6843C312.557 18.9865 312.633 19.2823 312.747 19.5997C312.937 20.1322 313.213 20.8226 313.497 21.3206C313.859 21.9531 313.909 22.6077 314.089 23.304C314.32 24.1931 314.466 25.1022 314.651 26.0014C315.054 27.9601 315.353 29.9318 315.713 31.8905C315.895 32.8842 316.219 33.9835 316.238 34.9907C316.255 35.9535 316.154 37.0404 316.457 37.9688C316.891 39.2958 317.006 41.0872 317.006 42.4788V44.9443C317.006 45.5244 317.269 46.5562 316.671 46.8178C315.493 47.3332 314.371 47.5341 313.156 47.9102C309.525 49.034 305.569 48.8439 301.817 48.8439H298.942C297.976 48.8439 296.989 49.1267 296.044 49.0941C295.717 49.0829 295.76 48.0636 295.696 47.8553C295.431 46.9947 295.476 45.8744 295.476 44.9748V41.5694C295.476 38.2296 296.018 34.8697 296.794 31.6342C297.328 29.4097 297.583 27.1459 298.436 25.0128C298.999 23.6056 299.457 22.0899 299.937 20.6493C300.409 19.2327 301.3 17.564 302.274 16.4507Z" fill="#6C11A4" stroke="black" stroke-width="2" stroke-linecap="round"/>
<circle cx="272" cy="6" r="5" fill="#FFFF00" stroke="black" stroke-width="2"/>
<circle cx="308" cy="13" r="5" fill="#FFFF00" stroke="black" stroke-width="2"/>
<path d="M298.945 31.5344C298.71 30.9707 297.803 30.2176 297.366 29.7798C297.157 30.0925 297.257 30.6082 297.257 30.9657C297.257 31.8184 297.271 32.6724 297.257 33.525C297.239 34.6014 296.889 35.6492 296.712 36.7015C296.405 38.5269 296.507 40.3801 296.168 42.1952C296.035 42.9036 296.113 43.6734 296.113 44.3915C296.113 44.5137 295.996 45.3185 296.277 45.1781C296.542 45.0454 296.741 44.7405 296.997 44.5791C297.381 44.337 297.644 43.9522 298.031 43.7078C298.894 43.1638 299.56 42.383 300.282 41.6749C300.478 41.4827 300.693 41.5035 300.881 41.6809C301.162 41.9463 301.627 41.9782 301.952 42.2073C302.144 42.3428 302.328 42.4711 302.539 42.5764C302.762 42.6882 302.924 42.8839 303.138 42.9999C303.421 43.1536 303.886 43.1484 304.203 43.2298C304.662 43.3479 305.088 43.5028 305.51 43.7199C305.58 43.756 306.051 44.0531 305.981 43.9135C305.905 43.7613 305.895 43.5766 305.806 43.4356C305.689 43.2496 305.61 43.0389 305.528 42.8366C305.258 42.1749 304.864 41.5631 304.523 40.9367C304.185 40.3147 303.843 39.6926 303.495 39.0762C303.323 38.772 303.043 38.4904 302.986 38.1354C302.941 37.848 303.185 37.6315 303.356 37.4154C304.596 35.8462 306.122 34.4277 307.125 32.6658C307.365 32.2448 307.549 31.9152 307.549 31.4225C307.549 31.3238 307.618 30.9583 307.44 30.9899C307.109 31.0483 306.822 31.1642 306.478 31.2077C304.769 31.4238 303.072 31.9876 301.589 32.8594C301.093 33.1512 300.629 33.4556 300.209 33.8487C300.05 33.998 300.099 33.9508 299.979 33.8759C299.861 33.8017 299.803 33.5188 299.75 33.401C299.468 32.7844 299.206 32.1599 298.945 31.5344Z" fill="#FFFF00" stroke="black" stroke-width="2" stroke-linecap="round"/>
<path d="M283.045 17.9936C283.233 17.624 283.429 16.8393 283.863 16.707C284.461 19.147 285.06 21.5864 285.655 24.0272C285.725 24.3148 285.806 24.612 285.86 24.9061C285.938 25.3283 285.996 25.7572 286.065 26.1813C286.157 26.7459 286.19 27.3184 286.279 27.882C286.332 28.2178 286.316 28.558 286.316 28.8971V29.5869C286.316 29.7667 286.264 30.0449 286.367 30.1988C286.073 30.1988 285.343 29.3956 285.081 29.2565C284.775 29.0947 284.558 29.0175 284.215 29.0175C284.075 29.0175 283.998 29.1292 283.892 29.205C283.497 29.4856 283.151 29.8572 282.784 30.1731C282.265 30.6207 281.786 31.0471 281.223 31.4437C280.752 31.7758 280.353 32.2942 279.856 32.5751C279.826 32.5918 279.878 31.881 279.883 31.8188C279.93 31.2287 280.043 30.6452 280.05 30.04C280.057 29.2831 280.222 28.2288 279.883 27.523C279.572 26.874 279.018 26.3951 278.513 25.9015C278.161 25.5578 277.742 25.2805 277.375 24.9516C276.671 24.3196 276.061 23.5825 275.5 22.8219C275.413 22.7041 275.013 22.1328 275.318 22.0988C275.684 22.0582 276.038 22.0546 276.407 22.0444C277.117 22.0247 277.828 21.9376 278.537 21.8962C279.231 21.8556 279.926 21.8761 280.621 21.8326C280.835 21.8193 281.105 21.8846 281.278 21.7207C281.734 21.2883 281.898 20.4849 282.14 19.9298C282.426 19.2726 282.719 18.633 283.045 17.9936Z" fill="#FFFF00" stroke="black" stroke-width="2" stroke-linecap="round"/>
<path d="M268.143 37.3488C267.909 37.3691 267.256 37.2285 267.019 37.2285C266.827 40.0582 267 43.1631 267 46L267 47.5C267 47.6238 267.328 47.9856 267.5 48C268.018 48.0432 267.711 47.7855 268.229 47.8431C269.613 47.9968 271.028 47.9632 272.418 47.9632C273.621 47.9632 274.824 47.9583 276.027 47.9632C276.641 47.9656 277.247 48.0677 277.858 48.0677C277.858 47.5 277.5 47 276.646 46.4426C276.446 46.2204 276.294 45.8583 276.063 45.6802C275.674 45.3816 275.39 44.9408 275.043 44.5942C274.309 43.8599 273.446 43.0995 273.037 42.1226C272.855 41.687 273.034 41.355 273.243 40.9851C273.657 40.2512 274.156 39.5632 274.623 38.8614C275.11 38.1287 275.776 37.3423 276.093 36.5078C276.15 36.3574 276.129 36.1816 276.129 36.0238C276.129 35.8648 275.84 35.9537 275.754 35.9663C274.222 36.1924 272.72 36.6278 271.198 36.9132C270.187 37.1028 269.168 37.2597 268.143 37.3488Z" fill="#FFFF00" stroke="black" stroke-width="2" stroke-linecap="round"/>
<path d="M283 91.0558C283 88.7288 286.077 88.0036 287.923 88.0036C288.905 88.0036 290.252 87.8135 291.172 88.2224C291.484 88.3611 291.909 88.5944 292.255 88.5944" stroke="black" stroke-width="2" stroke-linecap="round"/>
<path d="M293.954 95.7876C294.446 96.6553 294.929 97.3974 295.89 97.7985C296.722 98.1461 297.739 98.1084 298.628 98.0545C299.224 98.0183 299.692 97.7873 300.202 97.5083C300.385 97.4077 300.863 97.2708 300.96 97.0781" stroke="black" stroke-width="2" stroke-linecap="round"/>
<path d="M302.708 88.4749C302.865 88.0984 303.588 87.7065 303.917 87.4916C304.339 87.2149 304.793 87 305.303 87C305.749 87 306.131 87.2069 306.552 87.3346C307.732 87.6918 308.979 87.7142 310.185 87.9525C310.709 88.0561 311.025 88.2759 311.404 88.5704C311.721 88.8173 312.061 89.0279 312.479 89.0279" stroke="black" stroke-width="2" stroke-linecap="round"/>
<path d="M263.477 186.266C264.279 186.266 264.776 187.688 264.969 190.531H267.742C267.966 190.531 268.253 190.818 268.602 191.391V192.031C268.602 192.125 268.245 192.479 267.531 193.094V193.312C267.818 193.656 267.961 193.94 267.961 194.164H268.383C268.383 193.643 269.38 193.216 271.375 192.883L271.164 190.961L272.016 190.109H272.656C273.323 190.109 273.82 192.602 274.148 197.586C273.878 198.232 273.594 198.586 273.297 198.648H273.086C272.232 198.648 271.805 198.008 271.805 196.727L271.586 195.445L269.023 195.875C268.747 195.734 268.534 195.664 268.383 195.664V197.156C267.69 198.151 266.909 198.648 266.039 198.648H264.969C263.495 198.648 262.497 197.581 261.977 195.445V194.594C261.977 194.208 262.12 193.781 262.406 193.312H262.195L260.914 193.523C260.201 193.237 259.844 192.81 259.844 192.242C259.844 191.247 260.841 190.75 262.836 190.75C262.69 190.604 262.547 189.464 262.406 187.328C262.406 186.953 262.763 186.599 263.477 186.266ZM275.859 189.891C277.141 189.891 277.781 191.529 277.781 194.805C277.927 194.805 278 195.445 278 196.727V196.945C278 197.68 277.786 198.107 277.359 198.227H276.5C275.974 198.227 275.477 195.661 275.008 190.531L275.859 189.891ZM264.328 194.164L264.117 195.234C264.398 195.948 264.896 196.305 265.609 196.305H265.82C266.107 196.305 266.25 196.161 266.25 195.875C266.25 194.734 265.753 194.164 264.758 194.164H264.328ZM274.148 199.078C275.201 199.078 275.844 200.003 276.078 201.852C276.078 203.336 274.654 204.404 271.805 205.055V205.273C271.805 205.555 272.018 205.695 272.445 205.695C273.607 205.414 274.531 205.13 275.219 204.844C275.792 205.057 276.078 205.271 276.078 205.484V206.125C276.078 206.964 274.794 207.604 272.227 208.047H271.164C270.164 207.557 269.664 206.703 269.664 205.484V204.633C270.201 203.352 270.914 202.711 271.805 202.711C273.086 202.216 273.727 201.859 273.727 201.641H273.508C271.018 201.781 269.453 201.852 268.812 201.852C268.385 201.331 268.172 200.833 268.172 200.359L269.242 199.289C269.383 199.289 269.453 199.362 269.453 199.508C270.016 199.362 271.581 199.219 274.148 199.078Z" fill="black"/>
<path d="M342.789 185.758C343.362 186.352 343.648 187.062 343.648 187.891V188.75L343.43 189.172C344.997 190.677 345.781 191.604 345.781 191.953H345.57L345.781 192.383C345.781 192.586 345.568 192.799 345.141 193.023C344.823 193.023 344.182 192.594 343.219 191.734H343.008L342.578 193.023H342.148L341.086 192.805V192.594C341.086 192.417 341.299 190.992 341.727 188.32V187.891L339.164 188.109L338.734 187.469V187.039C339.021 186.471 339.234 186.188 339.375 186.188C340.016 186.188 341.154 186.044 342.789 185.758ZM352.398 186.609H353.258C353.727 186.609 354.01 187.607 354.109 189.602L356.672 189.391H356.891V190.031L356.672 190.453H357.102C357.102 190.74 356.888 190.883 356.461 190.883L356.672 191.312H354.539V191.523C354.539 191.831 354.609 192.615 354.75 193.875C354.609 194.443 354.253 194.727 353.68 194.727C352.971 194.727 352.474 192.234 352.188 187.25C352.328 186.974 352.398 186.76 352.398 186.609ZM347.914 187.25C348.487 187.797 348.844 188.724 348.984 190.031C350.266 190.698 350.906 191.482 350.906 192.383C350.62 192.383 350.477 192.523 350.477 192.805H349.625C348.906 192.237 348.479 191.953 348.344 191.953L347.492 193.445H346.633C346.352 193.445 346.211 193.305 346.211 193.023V192.383L347.062 189.172H346.852C346.492 189.172 345.852 189.315 344.93 189.602C344.357 189.388 344.07 189.174 344.07 188.961V188.75C344.07 187.896 344.711 187.469 345.992 187.469C346.523 187.323 347.164 187.25 347.914 187.25ZM349.414 196.008H350.266C352.401 196.008 353.469 197.289 353.469 199.852C353.469 201.102 352.544 201.885 350.695 202.203C350.57 202.203 350 201.99 348.984 201.562V201.773C348.125 201.773 347.484 200.565 347.062 198.148C347.625 196.721 348.409 196.008 349.414 196.008ZM349.195 197.508L348.984 198.57C348.984 199.612 349.768 200.182 351.336 200.281L351.758 199.641V198.789C351.263 197.935 350.622 197.508 349.836 197.508H349.195Z" fill="black"/>
</svg>
