<svg width="290" height="74" viewBox="0 0 290 74" fill="none" xmlns="http://www.w3.org/2000/svg">
<path d="M233.727 1.01801C238.679 1.01801 244.356 1.83623 249.288 2.3179C250.257 2.41007 253.183 2.82773 253.793 3.65471C254.318 4.36568 255.599 3.98862 256.308 4.43236C257.305 5.05608 258.464 5.23286 259.455 5.82969C261.242 6.90587 263.172 7.77484 264.687 9.21973C265.47 9.96651 266.585 10.5624 267.444 11.2975C268.266 12.0006 269.143 12.8041 269.865 13.594C270.552 14.3456 270.849 15.2558 271.546 15.9998C272.044 16.5317 272.984 17.3394 273.241 17.9682C273.905 19.5973 274.999 20.9478 275.662 22.5733C276.037 23.4934 275.796 24.7838 275.796 25.7447V29.9974C275.796 35.056 274.36 39.7705 271.923 44.2745C271.273 45.4748 269.663 46.3179 268.587 47.1663C267.241 48.2283 266.194 49.0898 264.66 49.961C260.61 52.2613 256.714 54.5613 252.421 56.5224C248.688 58.2279 245.054 60.0923 241.285 61.7229C239.629 62.4397 237.493 62.9332 235.717 63.3025C232.283 64.0167 228.839 64.9333 225.335 65.3195C216.589 66.283 207.979 67.6526 199.243 68.6488C194.721 69.1644 190.372 69.6404 185.901 70.4714C181.763 71.2406 177.506 72.017 173.286 72.2697C165.233 72.7518 157.234 72.7557 149.158 72.7557H136.099C131.596 72.7557 127.125 72.1671 122.623 71.9902C117.482 71.7883 112.327 71.8808 107.183 71.8808C102.941 71.8808 98.6695 72.0874 94.4734 71.4556C88.5472 70.5632 82.4722 70.4126 76.5187 69.5722C73.9738 69.213 71.5476 68.4618 69.0275 67.9926C66.4709 67.5166 63.9013 67.2072 61.4018 66.5102C55.7267 64.9278 49.7212 63.6717 44.4826 61.0424C40.3975 58.9921 35.9779 56.9444 32.8625 53.7277C29.2722 50.0207 25.6992 45.597 23.7842 40.9573C22.3689 37.5283 22.5738 34.1862 22.5738 30.5685C22.5738 28.0048 23.4281 24.4635 25.7209 22.7191C28.8033 20.3741 31.7728 17.989 35.0278 15.7933C38.8458 13.2178 42.4582 10.8918 46.9169 9.28048C50.5398 7.97125 54.5927 7.60324 58.3757 6.80174C63.6459 5.68513 68.9238 4.70545 74.3265 4.2987C90.4587 3.08415 106.607 1.05917 122.824 1.01801C138.793 0.977486 154.762 1.01801 170.731 1.01801H196.661H217.265H233.727Z" fill="white" stroke="black" stroke-width="2" stroke-linecap="round"/>
<path d="M77.868 18.4971C78.0822 18.497 78.4559 18.6223 78.9891 18.8728C79.0985 18.8728 79.5975 18.8089 80.4862 18.6812C83.3527 18.6806 84.7861 19.3662 84.7864 20.738C84.7865 21.2529 84.8504 21.7519 84.9781 22.235C84.9786 25.2291 84.293 26.7263 82.9213 26.7266L81.7934 26.7268C79.4236 26.7273 78.2385 25.9801 78.2382 24.4853C77.741 21.8968 77.4923 20.213 77.4922 19.4337C77.7428 19.028 77.868 18.7158 77.868 18.4971ZM87.5955 18.4952L88.3406 18.4951C88.3407 18.682 88.5276 18.9303 88.9013 19.2401L88.9019 22.4257C91.0257 22.6258 92.0876 22.9993 92.0877 23.5462L92.0878 24.1067C92.0878 24.2844 91.8987 24.4713 91.5205 24.6674C90.4632 24.6676 89.6543 24.5424 89.0937 24.2918C89.0937 24.4194 89.0299 24.4833 88.9023 24.4833L89.0938 24.8524L89.0941 26.5409C89.0941 26.6639 89.0303 26.7254 88.9027 26.7255L89.0942 27.1014L89.0943 27.662C89.0943 27.8306 88.7822 28.1428 88.158 28.5987C87.4105 28.339 87.0367 27.8401 87.0366 27.1018L87.0352 19.6164C87.1125 18.869 87.2993 18.4953 87.5955 18.4952ZM79.55 20.7389C79.8513 23.3593 80.1637 24.6695 80.4873 24.6694C81.5902 24.7923 82.2761 24.8537 82.545 24.8536C82.7955 24.3659 82.9207 23.68 82.9205 22.7959L82.9205 22.6114L82.7288 20.7383C82.6057 20.7384 82.5442 20.8022 82.5442 20.9298L81.6077 20.7386L79.55 20.7389ZM94.3626 15.6844L94.5471 15.6844C94.6706 17.808 94.8576 18.8699 95.1083 18.8698C95.4957 18.8697 96.6805 18.8057 98.6629 18.6777L98.6627 17.3721L99.0384 16.0595C99.7858 16.0594 100.16 16.433 100.16 17.1804L100.16 18.6775L100.345 18.6774C101.889 18.5541 102.701 18.4924 102.778 18.4924L102.778 16.9953C102.778 16.8176 102.965 16.6307 103.338 16.4347L104.275 16.4345C104.526 17.4279 104.651 18.6128 104.651 19.9891L104.652 23.5438C104.652 24.4142 104.215 24.8495 103.34 24.8497C103.212 24.8497 102.964 24.6014 102.595 24.1047L102.779 22.2316L102.779 20.55L102.594 20.1741C100.848 20.4615 99.9758 20.6485 99.9758 20.7351C99.2608 22.982 98.1376 24.1056 96.6063 24.1059L96.2303 23.9145L95.8544 24.106C94.1089 23.6734 93.236 22.8008 93.2357 21.4883C93.1125 20.2898 93.0507 18.9796 93.0504 17.5577L93.0503 16.9971C93.0502 16.1221 93.4876 15.6846 94.3626 15.6844ZM95.1086 20.5514C95.1086 20.6745 95.0471 20.736 94.9241 20.7361C95.1476 21.7341 95.6467 22.233 96.4214 22.2328C97.3966 21.9501 98.0186 21.5148 98.2874 20.9268L98.2873 20.5509L97.7268 20.551C97.2802 20.551 96.7196 20.6127 96.0452 20.7358C95.8401 20.6128 95.5279 20.5514 95.1086 20.5514ZM101.282 24.8501L102.034 24.85C102.358 24.8499 102.606 25.2873 102.78 26.1623C102.47 30.4007 101.66 32.5199 100.347 32.5202L98.481 32.5205C97.0363 32.5208 96.0994 30.4018 95.6702 26.1636C95.6701 25.6623 95.9207 25.2886 96.4219 25.0424L96.9825 25.0423C97.3562 25.0422 97.6685 25.9764 97.9195 27.8449L100.907 27.8443C100.907 27.466 100.97 27.0308 101.098 26.5386L101.098 25.4107C101.221 25.4107 101.282 25.2238 101.282 24.8501ZM98.289 29.5264L98.2891 29.9024C98.2891 30.0984 98.5398 30.349 99.0412 30.6542L99.9777 30.6541C100.351 30.5264 100.538 30.1504 100.538 29.526L100.162 29.7175L98.665 29.7178L98.289 29.5264ZM108.048 17.008C110.414 17.0076 111.596 18.3153 111.597 20.9312C111.597 22.148 110.725 22.957 108.979 23.3584C107.288 23.3587 106.167 22.1763 105.615 19.8112C105.615 18.5716 106.239 17.6988 107.488 17.1927C107.862 17.1926 108.048 17.131 108.048 17.008ZM107.488 19.6194C107.762 20.3987 108.259 21.0229 108.979 21.4922C109.48 21.3053 109.731 21.1184 109.731 20.9315L109.731 20.5555C109.73 19.6031 109.48 19.0426 108.978 18.874L108.049 18.8742C107.734 18.8743 107.547 19.1227 107.488 19.6194ZM116.088 19.0573L116.272 19.0572C116.619 19.0572 116.931 20.242 117.21 22.6117L117.018 22.6118C117.52 25.8884 117.771 27.7591 117.771 28.2239C117.288 28.5977 116.915 28.7847 116.65 28.7847C115.903 28.7848 115.529 27.4747 115.528 24.8543C115.277 22.3022 115.026 20.7437 114.776 20.1786C114.775 19.4312 115.213 19.0574 116.088 19.0573ZM109.732 25.4159L110.101 25.6072L110.853 25.4157C112.471 25.5111 113.279 25.6362 113.28 25.7912L113.471 26.5363C113.471 27.0376 113.034 27.4136 112.159 27.6645L110.293 27.4734L108.795 27.4737L107.49 27.6653C107.49 27.5377 107.426 27.4739 107.298 27.474C107.298 27.6016 107.237 27.6654 107.114 27.6654C107.114 27.4148 106.74 27.1642 105.993 26.9137L105.992 26.1685C105.992 25.9863 106.179 25.7994 106.553 25.6079L108.611 25.6075L109.732 25.4159ZM127.51 16.4233L127.51 16.6147L127.886 16.4232L128.078 16.4232C128.775 16.423 129.21 16.7351 129.383 17.3595C129.233 18.2345 128.921 18.672 128.447 18.6721L127.141 18.481C126.923 18.6086 126.672 18.6725 126.389 18.6725L126.39 19.0417C126.39 20.0443 126.764 20.5455 127.511 20.5454C128.349 20.5452 129.038 20.7319 129.576 21.1055L129.384 19.4171C129.384 17.9815 130.008 17.1702 131.256 16.9831L132.377 16.9829C132.505 16.9829 132.569 17.0467 132.569 17.1743L132.945 16.9828L133.875 16.9826C134.057 16.9826 134.246 17.1694 134.442 17.5431L134.442 17.9191C134.442 18.7941 133.943 19.2316 132.945 19.2318C132.052 19.1044 131.553 19.0407 131.448 19.0407L131.448 20.1686C131.449 20.916 132.009 21.2896 133.13 21.2894C133.308 21.2894 133.495 21.4762 133.691 21.8499L133.691 22.0413C133.691 22.7112 133.443 23.1465 132.946 23.3471L131.634 23.3473C130.604 23.3475 129.918 22.6618 129.576 21.2901L129.384 21.2901C129.384 22.2882 129.198 22.7872 128.824 22.7873L128.263 22.7874C125.643 22.7879 124.332 21.7286 124.332 19.6094L124.332 18.4815C124.332 18.1853 124.519 17.6247 124.892 16.7998L125.268 16.9843L125.268 16.6151L126.581 16.6149L127.51 16.4233ZM137.997 16.9819L138.181 16.9818C138.377 16.9818 138.628 17.2324 138.933 17.7336C139.057 20.1854 139.119 21.8078 139.119 22.6008L138.934 22.6008C138.934 22.7239 138.996 22.7854 139.119 22.7854C139.119 23.1135 138.932 23.7994 138.559 24.8431L137.622 24.8433C137.426 24.8433 137.178 24.595 136.877 24.0983C136.877 23.8157 136.938 23.5651 137.061 23.3463L136.877 22.9704C137 22.2959 137.061 21.7353 137.061 21.2887L134.627 21.2891C134.431 21.2892 134.181 21.0408 133.875 20.5442L133.875 20.3528C133.957 19.6053 134.146 19.2316 134.442 19.2316L135.379 19.2314C135.502 19.2314 135.563 19.2929 135.563 19.4159L135.939 19.2313L136.876 19.2311C136.876 18.9804 136.937 18.8551 137.06 18.8551L136.876 18.4791L136.876 18.11C136.876 17.358 137.249 16.982 137.997 16.9819ZM131.634 25.9723L135.941 26.5321C136.565 26.9968 136.878 27.7441 136.878 28.7741C136.878 30.7474 136.379 31.8093 135.381 31.9599C134.757 31.7868 134.445 31.3494 134.444 30.6476L134.444 30.463C134.444 30.3445 134.567 29.8455 134.813 28.9659L134.813 28.4053L134.629 28.4053L132.01 28.2144L131.634 28.4059C130.887 28.0825 130.513 27.6451 130.513 27.0936C130.636 26.8521 130.698 26.6652 130.698 26.533C130.575 26.5331 130.513 26.4693 130.513 26.3417C131.26 26.2549 131.634 26.1318 131.634 25.9723ZM142.884 15.5044C143.508 15.5043 143.821 15.6272 143.821 15.8733L144.197 15.6887C145.814 16.2034 146.624 17.0759 146.624 18.3064L146.624 19.6121C146.624 20.7286 146.002 21.6014 144.758 22.2306L144.006 22.2307C142.115 22.2311 140.807 21.1102 140.082 18.8682L140.082 18.1231C140.082 17.1341 140.517 16.3844 141.387 15.8738L141.578 15.8738L141.954 16.0651L141.954 15.8737C141.827 15.8737 141.763 15.8122 141.763 15.6892C141.859 15.6891 142.232 15.6275 142.884 15.5044ZM141.955 17.9313L141.955 18.1227C141.955 19.18 142.639 19.9273 144.006 20.3645C144.535 20.3644 144.847 19.8038 144.942 18.6827C144.942 17.9353 144.133 17.5618 142.515 17.5621L142.324 17.5621C142.078 17.5986 141.955 17.7217 141.955 17.9313ZM141.019 23.7284C143.781 23.8554 145.276 23.919 145.504 23.9189L145.88 23.7274C147.748 23.7271 148.683 24.2259 148.683 25.224L148.683 25.4086C148.683 25.5088 148.496 25.6957 148.122 25.9692C142.763 25.8016 140.083 25.5537 140.083 25.2256L140.083 24.1045L141.019 23.7284ZM141.765 27.8435L141.957 27.8434C142.148 27.8434 142.396 28.0917 142.702 28.5884C142.702 28.716 142.64 28.7798 142.517 28.7798C142.518 30.2746 142.828 31.022 143.447 31.0219L144.76 31.2062C145.252 31.083 145.687 31.0214 146.066 31.0214L146.066 31.2059L146.442 31.0213C146.638 31.0213 146.886 31.2696 147.187 31.7663L147.187 32.7028L145.881 33.079L144.2 33.0793C141.953 33.0798 140.83 32.5809 140.829 31.5829L140.829 28.5888C140.838 28.4201 141.15 28.1717 141.765 27.8435ZM161.601 15.4872L161.601 15.6718L161.977 15.4871L162.353 15.6716C162.594 15.5485 162.781 15.487 162.913 15.4869C163.789 16.6079 164.226 17.6058 164.226 18.4808L164.227 19.9779C164.227 20.9304 163.976 21.491 163.475 21.6597C162.477 21.5368 161.978 21.0379 161.978 20.1629L162.169 19.2263C162.041 18.3559 161.852 17.9207 161.601 17.9208L161.232 17.9209C160.562 17.921 159.065 18.0443 156.741 18.2908C156.408 18.2089 156.096 17.899 155.804 17.3613L155.804 17.1699C155.804 16.1719 156.365 15.6727 157.486 15.6725L159.735 15.6721L161.601 15.4872ZM158.983 19.7875L159.175 19.7874C160.173 19.7873 160.672 20.4115 160.672 21.6602L160.672 22.4122C160.672 22.6902 160.609 22.9385 160.481 23.1573C160.609 23.376 160.673 23.6244 160.673 23.9024L160.673 24.6544L161.979 24.6541C162.106 24.6541 162.17 24.7156 162.17 24.8386L162.539 24.654L164.597 24.6536C165.221 24.9269 165.533 25.3621 165.533 25.9591C165.534 26.6199 164.909 26.996 163.661 27.0874L162.915 27.0875C157.925 27.0885 155.43 26.7768 155.43 26.1524L155.245 25.2159C155.478 24.5915 155.976 24.2793 156.742 24.2791L158.424 24.4702L158.424 24.2788C158.424 24.1877 158.362 23.814 158.239 23.1577L158.423 21.2847C158.3 21.0431 158.239 20.8563 158.239 20.7241C158.48 20.1544 158.728 19.8422 158.983 19.7875ZM159.921 27.8332L160.113 27.8332C163.102 27.8326 164.597 28.8304 164.598 30.8265C164.457 33.1963 163.459 34.3814 161.604 34.3817L161.42 34.3818C159.784 34.3821 158.724 33.1974 158.24 30.8277L158.24 30.0825C158.24 29.4126 158.801 28.6628 159.921 27.8332ZM160.298 30.0822L160.298 30.8273C160.298 31.0232 160.672 31.3969 161.419 31.9482C161.875 31.825 162.249 31.5766 162.54 31.2028C162.54 30.4554 161.98 30.0818 160.858 30.0821L160.298 30.0822ZM170.419 15.4992C172.292 16.1733 173.229 17.2327 173.229 18.6774C173.352 18.6774 173.414 18.8004 173.414 19.0465C173.081 20.04 172.334 20.9129 171.172 21.6651L170.612 21.6652C168.616 21.2281 167.617 20.4193 167.617 19.239L167.617 18.1179C167.617 16.9512 168.551 16.0783 170.419 15.4992ZM169.859 17.3655L169.299 18.1176L169.299 19.0473C170.074 19.5484 170.634 19.799 170.981 19.7989L171.541 19.0468L171.541 18.6777C170.884 17.8028 170.324 17.3654 169.859 17.3655ZM167.057 23.5389C172.791 23.9389 175.657 24.4989 175.657 25.2189L175.658 26.1554C175.38 26.1555 175.131 26.3424 174.912 26.7161L173.976 26.5249L173.415 26.525C173.789 27.9331 173.976 29.118 173.977 30.0796L173.977 30.2642C173.762 30.2642 173.45 30.4511 173.04 30.8249C172.265 30.825 171.766 29.4557 171.542 26.7168L171.542 26.5254L171.734 26.5253C171.661 26.0286 171.162 25.7803 170.237 25.7805C170.114 26.022 170.052 26.2089 170.052 26.3411C170.052 26.7284 169.989 27.9133 169.861 29.8958C169.615 29.8958 169.492 30.0189 169.492 30.265L168.18 30.2652C168.18 29.9873 168.118 29.7389 167.995 29.5202C168.245 27.3691 168.37 26.0611 168.37 25.5963L167.434 25.5964C167.265 25.5965 166.953 25.2844 166.497 24.6601L166.497 24.2841C166.748 23.7873 166.934 23.5389 167.057 23.5389ZM179.6 16.2494L179.791 16.2494C180.038 17.1289 180.225 18.0631 180.352 19.052L181.843 19.0517C182.59 19.0516 182.964 19.3614 182.964 19.9812C182.964 20.4825 182.59 20.7332 181.843 20.7334C182.718 21.6401 183.156 22.449 183.156 23.1599C183.156 23.2875 183.092 23.3513 182.965 23.3513L183.156 23.7204C182.673 25.466 181.862 26.3388 180.723 26.3391C178.959 26.3394 177.838 25.2185 177.359 22.9764C177.436 22.2563 177.623 21.6958 177.919 21.2947C177.049 21.2948 176.614 21.1696 176.614 20.9189L176.613 20.543C176.613 19.6725 177.235 19.2372 178.479 19.2369L178.479 17.3707C178.479 16.6233 178.853 16.2496 179.6 16.2494ZM187.448 18.1142L187.824 18.1141C188.198 18.114 188.51 19.0482 188.761 20.9166C188.834 20.9166 189.643 20.855 191.188 20.7316L191.748 21.4766C191.749 22.3516 190.814 22.7893 188.946 22.7897L189.131 24.0953L189.131 24.4713C189.131 25.1366 188.883 25.5719 188.386 25.7771L187.825 25.7772C187.333 25.7773 186.959 23.722 186.703 19.6114C186.58 19.6114 186.519 19.3608 186.518 18.8595L187.448 18.1142ZM179.601 22.0395L179.232 22.6001L179.232 22.9761C179.232 23.6004 179.542 24.0356 180.162 24.2815L181.099 24.2814C181.099 24.1902 181.16 23.8165 181.283 23.1602C181.283 22.5678 180.722 22.1942 179.601 22.0395ZM186.704 26.3379C188.322 26.3376 189.131 26.9595 189.132 28.2037L189.132 29.1402C189.132 30.3844 188.075 31.0066 185.96 31.007L185.769 31.383L185.769 31.5676C187.337 31.4443 188.271 31.3826 188.572 31.3825C189.196 31.5829 189.508 31.9565 189.508 32.5034C188.866 33.1461 187.745 33.52 186.145 33.6252C184.527 33.4249 183.718 32.7392 183.718 31.568C183.718 30.1735 184.9 29.3028 187.265 28.956L187.265 28.58C187.265 28.3294 187.14 28.2041 186.889 28.2041C186.452 28.2042 185.021 28.3298 182.596 28.5809C182.346 28.1753 182.22 27.8632 182.22 27.6444C182.762 26.7739 184.196 26.3384 186.52 26.338L186.704 26.3379ZM195.883 16.8001L196.444 16.8C196.617 16.8091 196.865 17.1212 197.189 17.7364C196.943 18.5294 196.82 19.0284 196.82 19.2335C199.455 20.6685 200.888 21.6025 201.121 22.0354L201.121 22.4114C201.121 22.5891 200.934 22.776 200.56 22.972L199.624 22.9722C197.6 21.9153 196.415 21.2297 196.069 20.9153C195.823 22.2871 195.513 23.2852 195.14 23.9096C194.141 23.8095 193.642 23.4974 193.642 22.9733C194.726 18.8579 195.473 16.8002 195.883 16.8001ZM193.267 25.9607L199.624 25.9595C201.493 25.9592 202.427 26.3965 202.427 27.2715C202.24 27.7683 202.054 28.0167 201.867 28.0167L201.306 28.0168L199.064 27.8327C199.064 27.9557 199.003 28.0173 198.88 28.0173L199.064 28.3932L199.065 31.3874C199.065 31.5651 198.878 31.752 198.504 31.948L197.752 31.9482C197.379 31.8206 197.192 31.4447 197.192 30.8203L197.191 27.833L193.643 27.8337C193.019 27.5832 192.707 27.0842 192.706 26.3368L193.267 25.9607ZM207.682 15.4922L208.427 15.4921C209.676 15.4918 210.549 16.4259 211.046 18.2943L211.046 19.4154C210.363 20.6642 208.929 21.2888 206.746 21.2892L206.746 21.4738L210.301 21.4731C210.971 21.473 211.345 21.7851 211.422 22.4095C211.423 23.1569 210.675 23.5307 209.18 23.531L209.365 23.9001L209.365 25.2126L211.238 25.2122C211.986 25.2121 212.36 25.5857 212.36 26.3331L212.36 26.5177C212.305 26.7775 211.993 27.0282 211.423 27.2698C209.126 27.1426 207.194 27.0792 205.626 27.0795C205.057 26.8381 204.745 26.5898 204.69 26.3346L204.69 25.5894C204.69 25.4071 204.879 25.2203 205.257 25.0288L207.499 25.0284L207.308 24.6524L207.307 23.5313L206.747 23.5314C205.129 23.0806 204.32 22.3333 204.32 21.2897L204.32 20.3532C204.479 19.6377 206.037 19.1383 208.995 18.8552L208.995 18.1101C208.995 17.8276 208.557 17.577 207.682 17.3584C207.145 17.6092 206.146 17.7347 204.688 17.7349L204.319 17.735C203.909 17.3614 203.597 17.1746 203.382 17.1746C203.382 16.1766 203.756 15.6775 204.503 15.6774C205.46 15.5541 206.52 15.4924 207.682 15.4922ZM206.748 28.3918L209.557 28.3913C211.052 28.391 211.8 29.1382 211.8 30.633C211.8 32.5015 211.488 33.4358 210.864 33.4359L210.303 33.436C210.107 33.4361 209.859 33.1877 209.558 32.6911C209.654 31.4423 209.777 30.818 209.927 30.8179C209.804 30.5764 209.742 30.3896 209.742 30.2574L208.245 30.2577C207.935 30.2578 207.375 30.3832 206.564 30.634C205.894 30.3835 205.52 30.0714 205.442 29.6977C205.442 28.8273 205.877 28.3919 206.748 28.3918ZM110.185 39.8728L110.37 39.8728L110.746 41.1784L110.747 43.0514L113.18 43.051C113.358 43.0509 113.545 43.2378 113.741 43.6114L113.741 43.796C113.741 44.4659 113.429 44.842 112.805 44.9241C113.178 45.562 113.365 46.1841 113.365 46.7902C113.115 48.6633 112.179 49.6 110.556 49.6003L110.187 49.6004C108.442 49.0766 107.569 48.2656 107.569 47.1673L107.569 46.9827C107.569 46.372 107.755 45.7476 108.129 45.1095L107.192 45.2943L106.816 45.2944C106.639 45.2944 106.452 45.1076 106.256 44.7339L106.256 44.1734L106.44 43.7974C106.317 43.7974 106.256 43.7359 106.256 43.6128C106.506 43.6128 106.631 43.4874 106.631 43.2368L107.568 43.2366L108.874 43.0518L108.873 41.5547C108.873 40.4336 109.31 39.873 110.185 39.8728ZM109.626 45.8544C109.375 46.1598 109.25 46.4104 109.25 46.6064C109.25 47.1032 109.749 47.4768 110.748 47.7272C111.244 47.5403 111.493 47.3534 111.493 47.1665L111.492 46.606C111.492 46.2915 110.87 46.041 109.626 45.8544ZM109.059 49.9697L109.627 49.9696C109.928 50.2202 110.176 50.3455 110.372 50.3455L110.372 52.4031C110.372 52.6856 110.434 52.9363 110.557 53.155C110.434 53.3966 110.373 53.5834 110.373 53.7156L111.309 53.7154L111.309 51.2818C111.309 50.6119 111.557 50.1743 112.054 49.9692L112.43 49.9691C112.931 49.969 113.182 50.7186 113.182 52.218L113.182 53.715L114.488 53.7148C115.19 53.7147 115.627 54.0268 115.801 54.6511C115.801 55.0248 115.425 55.3985 114.673 55.7724C112.722 55.6451 111.289 55.5816 110.373 55.5818L107.755 55.7737C107.254 55.6462 107.003 55.2725 107.003 54.6527C107.003 54.0284 107.565 53.7161 108.691 53.7159L108.5 53.3399L108.499 50.9064C108.873 50.5007 109.059 50.1885 109.059 49.9697ZM123.68 41.5519C124.55 42.1989 124.986 43.5706 124.986 45.6669C125.237 45.6669 125.362 46.2274 125.363 47.3485C125.235 47.8498 124.862 48.1005 124.242 48.1007C123.358 48.1008 122.733 46.6654 122.368 43.7944L121.992 43.9858C121.764 43.9859 120.267 44.0477 117.501 44.1713C117.004 44.0483 116.756 43.6747 116.755 43.0503L116.755 42.4898C116.755 42.2938 117.004 42.0431 117.5 41.7377C120.895 41.614 122.955 41.5521 123.68 41.5519ZM127.604 41.9272C128.853 41.9269 129.477 43.3601 129.478 46.2266C131.724 46.2262 132.848 46.5997 132.848 47.3471L132.848 47.5385C132.675 48.0535 132.363 48.4273 131.912 48.6598L129.854 48.6602L130.039 50.5332L130.039 51.2783C130.039 52.1533 129.666 52.5909 128.918 52.591C128.08 52.5911 127.581 51.2195 127.42 48.476C127.297 45.8192 127.046 44.0715 126.668 43.233C126.923 42.4582 127.235 42.0229 127.604 41.9272ZM120.311 46.9803L120.871 46.9802C121.409 46.9801 121.908 48.2879 122.369 50.9037C123.431 50.7805 124.242 50.7188 124.803 50.7187C125.427 50.8918 125.739 51.3292 125.74 52.031C125.74 52.9015 124.117 53.337 120.873 53.3376L119.751 53.3378C118.995 53.338 118.434 52.9029 118.07 52.0325C118.229 51.1575 118.664 50.7199 119.375 50.7197L120.127 50.9042L120.127 50.7196C119.749 50.0999 119.559 49.0403 119.559 47.541L120.311 46.9803ZM144.277 41.5617L145.022 41.5616C145.482 41.5615 145.794 42.9947 145.959 45.8612C146.128 45.8612 146.814 45.7357 148.017 45.4849C148.582 45.7263 148.892 45.9746 148.946 46.2298L148.947 46.7903C148.947 47.4147 148.012 47.727 146.144 47.7274L146.144 47.9188C146.144 48.5978 146.27 50.0926 146.521 52.4031C146.279 52.9728 146.029 53.285 145.769 53.3398L145.209 53.3399C144.593 53.34 144.219 51.2824 144.086 47.1672C143.931 47.1673 143.808 45.4218 143.716 41.931L144.277 41.5617ZM138.665 43.9895C139.412 43.9894 139.786 44.4268 139.786 45.3018L139.787 49.7862C139.787 49.9639 139.6 50.1508 139.227 50.3469L138.481 50.347C138.299 50.347 138.112 50.1602 137.921 49.7866L137.92 46.0473C135.924 46.1707 134.864 46.2963 134.741 46.4239C134.172 46.1825 133.859 45.9319 133.805 45.6721L133.805 44.927C133.805 44.4895 135.425 44.177 138.665 43.9895ZM158.317 39.3237L158.317 39.5083L158.686 39.3237L160.368 39.3234C160.614 39.3233 160.865 39.697 161.12 40.4443C160.87 41.21 160.744 41.7068 160.744 41.9346C162.918 42.677 164.04 43.2374 164.108 43.6156C164.108 43.7432 164.044 43.807 163.917 43.8071L164.108 44.1762C164.108 44.3539 163.921 44.5408 163.548 44.7368L163.356 44.7369C162.937 44.7369 161.88 44.3019 160.184 43.4318C159.97 43.4318 159.658 44.1155 159.248 45.4827L158.879 45.6742L158.688 45.6743C158.045 45.6744 157.674 45.4876 157.573 45.1139C157.573 44.6628 158.07 43.2932 159.063 41.0052L158.878 41.0053C157.31 41.1286 156.376 41.1903 156.075 41.1904C155.834 41.0674 155.647 41.0059 155.515 41.0059L155.515 40.0694C155.515 39.6592 156.449 39.4107 158.317 39.3237ZM161.682 45.1131L162.242 45.8582L162.243 47.7244L164.293 47.724C165.041 47.7238 165.415 48.0975 165.415 48.8449C165.415 49.0499 165.041 49.2984 164.294 49.5902C164.162 49.5902 163.975 49.5287 163.733 49.4057C161.997 49.5291 160.876 49.5908 160.37 49.5909C158.629 49.5913 157.759 49.2815 157.758 48.6617C157.945 48.165 158.132 47.9166 158.319 47.9165L160.561 47.9161L160.561 45.6739C160.684 45.3002 161.057 45.1133 161.682 45.1131ZM161.683 50.1512C162.056 50.6023 162.243 51.1013 162.243 51.6482L163.734 51.6479C164.039 51.8985 164.287 52.0238 164.479 52.0238L164.479 52.9534C164.479 53.2041 164.231 53.3295 163.734 53.3296C164.012 53.6667 164.26 54.2888 164.479 55.1956C164.188 56.5674 163.505 57.2534 162.429 57.2536C160.437 56.9623 159.441 56.2151 159.441 55.012L159.626 55.012C159.503 54.7705 159.441 54.5836 159.441 54.4515C159.687 54.0413 159.81 53.6675 159.81 53.3303C159.168 53.3304 158.794 53.1436 158.689 52.77C158.689 52.0226 159.062 51.6488 159.81 51.6487L160.562 51.6485L160.562 50.712C160.685 50.3383 161.058 50.1514 161.683 50.1512ZM161.492 53.6991C161.118 54.1823 160.931 54.556 160.931 54.8203C161.46 55.3215 161.959 55.5721 162.429 55.572L162.613 55.572L162.798 54.6354C162.428 54.0111 161.993 53.699 161.492 53.6991ZM171.238 43.2246C171.912 43.2245 172.348 43.6004 172.544 44.3523C172.544 44.5528 172.232 44.8628 171.607 45.2822L170.671 45.0978L168.244 45.0982L168.244 45.6588C168.245 48.1516 168.68 49.398 169.551 49.3978L169.927 49.3977C170.209 49.3977 170.457 49.3361 170.672 49.213C170.89 49.336 171.141 49.3975 171.424 49.3975L172.545 49.3972C172.545 49.616 172.67 49.9281 172.921 50.3337C172.921 50.5707 172.609 50.9444 171.985 51.455L170.672 51.2706L167.493 51.2712C167.119 50.5011 166.745 48.5051 166.371 45.2832C166.371 43.9114 167.057 43.2254 168.428 43.2252L171.238 43.2246ZM175.722 43.7843L176.098 43.7843C176.395 46.031 176.644 47.1543 176.844 47.1542L178.341 47.154C178.341 46.8714 178.28 46.623 178.156 46.4089L178.341 46.0329L178.156 45.6569C178.306 44.5358 178.555 43.9752 178.901 43.9751C179.776 43.975 180.214 45.9072 180.215 49.7718C180.338 49.7718 180.399 50.4576 180.4 51.8294C180.227 52.4537 179.791 52.766 179.094 52.7661C178.72 52.6431 178.534 52.2695 178.533 51.6451L178.533 49.3961C178.533 49.15 178.408 49.027 178.157 49.027L176.66 49.0273C176.911 50.8046 177.036 51.8026 177.036 52.0214C176.599 52.5182 176.162 52.7667 175.724 52.7668C175.227 52.6438 174.979 52.2702 174.979 51.6458L175.163 51.6458L174.979 51.2698L174.978 49.9642L174.787 49.0277L174.978 49.0276C174.851 48.7861 174.787 48.5993 174.787 48.4671C174.787 47.9567 174.725 46.8334 174.602 45.097L174.786 45.097C174.663 44.8555 174.601 44.6687 174.601 44.5365C174.724 44.0352 175.098 43.7845 175.722 43.7843ZM181.915 40.6045L182.476 40.6044C182.726 40.8595 182.977 43.1039 183.229 47.3376L182.477 47.8983L182.292 47.8983C181.964 47.8984 181.714 47.3994 181.54 46.4014L181.54 44.5352L181.355 43.4073C181.355 43.2843 181.417 43.2227 181.54 43.2227L181.355 42.2862L181.355 41.1651C181.355 40.9828 181.541 40.7959 181.915 40.6045ZM183.038 49.2107C183.416 49.9307 183.605 50.3681 183.605 50.5231C183.419 51.0199 183.23 51.2683 183.038 51.2683C182.291 51.2685 181.917 50.8948 181.917 50.1474C181.994 49.7737 182.368 49.4615 183.038 49.2107Z" fill="black"/>
<path d="M21.8216 16.8652C17.4761 20.6722 14.4182 26.0754 13.7164 31.5105C13.3908 34.032 12.5411 37.0022 13.1778 39.559C13.7537 41.8714 14.7622 43.8404 16.1091 45.8685C16.936 47.1137 18.0483 48.402 18.6431 49.7452" stroke="black" stroke-width="2" stroke-linecap="round"/>
<path d="M7.51855 25.0488C11.5419 25.2508 15.4816 26.3197 19.438 26.9154" stroke="black" stroke-width="2" stroke-linecap="round"/>
<path d="M6.40576 39.1199C8.3757 38.9325 10.2475 38.2996 12.233 38.1148C13.841 37.9651 15.4399 37.9712 17.0538 37.9712" stroke="black" stroke-width="2" stroke-linecap="round"/>
<path d="M281.543 38.0044C281.172 41.7117 280.079 45.8084 277.98 49.0546C276.046 52.0436 273.374 54.1813 270.478 56.3776C268.813 57.6408 267.11 58.9662 265.519 60.2931C264.841 60.859 264.062 61.2498 263.165 61.385" stroke="black" stroke-width="2" stroke-linecap="round"/>
<path d="M266.54 53.7607C267.947 55.0327 269.335 56.482 270.582 57.8834C271.791 59.2431 273.35 60.2459 274.791 61.3849" stroke="black" stroke-width="2" stroke-linecap="round"/>
<path d="M276.104 45.2896C278.918 45.6286 281.073 47.7636 283.501 48.8851C284.712 49.445 285.741 50.2634 286.98 50.7111" stroke="black" stroke-width="2" stroke-linecap="round"/>
</svg>
