<svg width="290" height="74" viewBox="0 0 290 74" fill="none" xmlns="http://www.w3.org/2000/svg">
<path d="M233.727 1.01801C238.679 1.01801 244.356 1.83623 249.288 2.3179C250.257 2.41007 253.183 2.82773 253.793 3.65471C254.318 4.36568 255.599 3.98862 256.308 4.43236C257.305 5.05608 258.464 5.23286 259.455 5.82969C261.242 6.90587 263.172 7.77484 264.687 9.21973C265.47 9.96651 266.585 10.5624 267.444 11.2975C268.266 12.0006 269.143 12.8041 269.865 13.594C270.552 14.3456 270.849 15.2558 271.546 15.9998C272.044 16.5317 272.984 17.3394 273.241 17.9682C273.905 19.5973 274.999 20.9478 275.662 22.5733C276.037 23.4934 275.796 24.7838 275.796 25.7447V29.9974C275.796 35.056 274.36 39.7705 271.923 44.2745C271.273 45.4748 269.663 46.3179 268.587 47.1663C267.241 48.2283 266.194 49.0898 264.66 49.961C260.61 52.2613 256.714 54.5613 252.421 56.5224C248.688 58.2279 245.054 60.0923 241.285 61.7229C239.629 62.4397 237.493 62.9332 235.717 63.3025C232.283 64.0167 228.839 64.9333 225.335 65.3195C216.589 66.283 207.979 67.6526 199.243 68.6488C194.721 69.1644 190.372 69.6404 185.901 70.4714C181.763 71.2406 177.506 72.017 173.286 72.2697C165.233 72.7518 157.234 72.7557 149.158 72.7557H136.099C131.596 72.7557 127.125 72.1671 122.623 71.9902C117.482 71.7883 112.327 71.8808 107.183 71.8808C102.941 71.8808 98.6695 72.0874 94.4734 71.4556C88.5472 70.5632 82.4722 70.4126 76.5187 69.5722C73.9738 69.213 71.5476 68.4618 69.0275 67.9926C66.4709 67.5166 63.9013 67.2072 61.4018 66.5102C55.7267 64.9278 49.7212 63.6717 44.4826 61.0424C40.3975 58.9921 35.9779 56.9444 32.8625 53.7277C29.2722 50.0207 25.6992 45.597 23.7842 40.9573C22.3689 37.5283 22.5738 34.1862 22.5738 30.5685C22.5738 28.0048 23.4281 24.4635 25.7209 22.7191C28.8033 20.3741 31.7728 17.989 35.0278 15.7933C38.8458 13.2178 42.4582 10.8918 46.9169 9.28048C50.5398 7.97125 54.5927 7.60324 58.3757 6.80174C63.6459 5.68513 68.9238 4.70545 74.3265 4.2987C90.4587 3.08415 106.607 1.05917 122.824 1.01801C138.793 0.977486 154.762 1.01801 170.731 1.01801H196.661H217.265H233.727Z" fill="white" stroke="black" stroke-width="2" stroke-linecap="round"/>
<path d="M53.0943 16.9978L54.2154 16.9976C55.1268 16.9974 56.1865 17.5601 57.3944 18.6855C58.3926 19.8565 58.8919 21.1667 58.8922 22.6159L58.8925 24.1129C58.8926 24.8786 57.8948 26.0637 55.899 27.6682L53.4655 28.0446L53.4654 27.8532C53.3424 27.8533 53.2809 27.9171 53.2809 28.0447C50.0361 28.0453 48.4134 26.1725 48.4127 22.4264L48.4125 21.4899C48.4122 20.2093 49.41 18.8989 51.4059 17.5587C52.2307 17.1848 52.7935 16.9979 53.0943 16.9978ZM49.9096 21.8656C49.9102 24.8598 50.9085 26.3566 52.9046 26.3563L53.8411 26.3561C55.5866 26.3558 56.4592 25.7335 56.4589 24.4894L55.1531 23.5531L54.9617 23.5531C54.9619 24.7973 54.463 25.4194 53.465 25.4196L53.2804 25.4197C52.3234 25.4198 51.7605 25.1716 51.5918 24.6749C51.7194 24.6748 51.7832 24.6133 51.7832 24.4903L51.5918 24.4903C51.5918 24.6133 51.5303 24.6749 51.4072 24.6749C50.9104 24.1464 50.6619 23.6474 50.6618 23.178L50.6617 22.6174C50.9393 20.4937 51.8734 19.4317 53.4639 19.4314L54.0244 19.4312C54.1475 19.4312 54.3982 19.8072 54.7766 20.559L54.9611 20.559L54.7766 20.9282C55.0045 20.9418 55.5652 21.5045 56.4586 22.6163C56.6546 22.6163 56.9052 22.7416 57.2106 22.9922L57.2105 22.4248C56.5492 19.9321 55.4872 18.6859 54.0243 18.6861L53.8397 18.6862C51.9894 18.6865 50.6794 19.7463 49.9096 21.8656ZM52.1589 23.1777C52.6147 23.5513 53.05 23.7381 53.4647 23.738L53.4645 22.9929L53.2796 21.1199L53.095 21.1199C52.4707 21.3935 52.1587 22.0794 52.1589 23.1777ZM63.4109 23.5584L64.7167 24.3033C65.464 23.8064 66.1499 23.5579 66.7742 23.5578C68.4376 23.5574 69.559 25.052 70.1383 28.0415L70.1384 28.2329C69.8879 28.9803 69.6396 29.3541 69.3935 29.3541L68.8329 29.3542C68.4091 29.3543 68.0967 28.231 67.8958 25.9843L66.7745 25.2394L66.3985 25.2395C66.2071 25.2395 65.9588 25.4879 65.6536 25.9847C65.7768 27.2288 65.8385 28.1654 65.8387 28.7943L65.2782 29.1635L64.7176 29.1636C64.2209 29.1637 63.9723 28.0427 63.9719 25.8005L63.0353 25.6161C62.411 25.7894 62.0989 26.2247 62.0991 26.9219L62.0995 29.1641C62.0995 29.3601 61.8512 29.6108 61.3545 29.9162L61.1631 29.9162C60.5433 29.9163 60.1078 28.2963 59.8565 25.0561C59.9476 24.6824 60.1959 24.4317 60.6015 24.304L61.7295 24.4952C61.7294 24.1215 62.2899 23.8092 63.4109 23.5584ZM75.4001 18.1216C76.5212 18.1988 77.0818 18.3218 77.0818 18.4904C79.3839 21.6937 80.6945 23.7534 81.0137 24.6693C80.7722 25.239 80.5239 25.5513 80.2687 25.606L79.8928 25.6061C79.7378 25.6061 79.1771 24.9819 78.2108 23.7333C78.211 24.9273 77.3361 25.7387 75.5862 26.1674L73.9046 26.1677C72.592 25.5847 71.7168 24.7121 71.2791 23.5501C71.279 23.1764 71.2175 22.9895 71.0944 22.9896C71.094 20.6471 72.217 19.086 74.4636 18.3063L75.4001 18.1216ZM72.9674 22.6132C73.2182 23.3287 73.6535 23.8276 74.2733 24.1101L75.5858 24.1098C76.2101 23.7907 76.5222 23.2916 76.5221 22.6126L76.5219 21.8606C76.5218 21.1132 76.148 20.5527 75.4005 20.1792L75.0245 20.1793C73.6529 20.8039 72.9672 21.6152 72.9674 22.6132ZM85.155 17.942C87.2058 17.9416 88.514 19.3746 89.0796 22.2411C89.3303 22.241 89.5173 22.9907 89.6406 24.49L90.9531 24.4897C91.7005 24.5671 92.0742 24.7538 92.0743 25.0501L92.0744 25.6106C92.0745 25.9843 91.2633 26.2328 89.6409 26.3562L89.8324 26.7321C89.5002 28.9744 88.5638 30.0956 87.0235 30.0959L86.2784 30.0961C84.9248 30.0963 84.1773 29.1622 84.0356 27.2938C84.0355 26.5236 85.3433 25.6506 87.959 24.6749L87.959 24.4903C87.8359 24.2716 87.7743 24.0209 87.7742 23.7384L87.5897 23.7384C87.134 24.1122 86.6965 24.2991 86.2773 24.2992L84.7802 24.2995C83.3857 24.2997 82.4512 23.1788 81.9768 20.9367L81.9767 20.3762C82.8605 18.7536 83.92 17.9422 85.155 17.942ZM83.8498 20.3758L83.8499 21.121C83.85 21.8 84.16 22.299 84.7799 22.6178L86.0924 22.6176C86.5891 22.3669 86.8374 21.9931 86.8373 21.4964C86.4907 20.2477 86.1169 19.6235 85.7158 19.6235L84.7793 19.6237C84.4057 20.1251 84.0959 20.3758 83.8498 20.3758ZM85.9019 27.6694C85.902 27.8608 86.1527 28.1091 86.654 28.4144L86.8386 28.4143C87.5859 28.0997 87.9595 27.6006 87.9594 26.9171L87.9593 26.5411L87.7748 26.5411C86.5444 27.0153 85.9201 27.3914 85.9019 27.6694ZM94.1577 17.0106L97.521 17.01C98.0224 17.2651 98.2731 17.5749 98.2731 17.9395C98.1456 18.4409 97.772 18.6916 97.1522 18.6917L93.5975 18.6924C93.4198 18.6924 93.2329 18.5056 93.0369 18.1319C93.0367 17.3845 93.4103 17.0108 94.1577 17.0106ZM96.4007 21.31C96.9339 21.3099 97.2465 23.1783 97.3383 26.9153C97.3384 27.248 97.0263 27.5602 96.402 27.852C95.7821 27.6789 95.4722 27.2415 95.472 26.5397L95.4717 24.6735C95.4716 23.9899 95.4076 23.1171 95.2798 22.0553C95.4073 21.5586 95.7809 21.3101 96.4007 21.31ZM103.721 18.3008L105.034 18.3006C106.16 18.3003 106.846 18.8608 107.092 19.9818L107.092 20.3578C107.092 20.5401 106.905 20.727 106.532 20.9184C105.233 20.4219 104.421 20.1737 104.098 20.1738C102.102 20.4339 101.104 21.1815 101.104 22.4165L101.104 22.6079C101.104 24.4263 102.29 25.4856 104.659 25.786C106.482 25.535 107.48 25.4095 107.653 25.4094L107.654 26.1614C107.654 27.1275 106.781 27.6883 105.036 27.8435C102.306 27.844 100.496 26.7233 99.6074 24.4813C99.3566 23.9663 99.2312 23.5904 99.2312 23.3534L99.4158 23.3534L99.2311 22.9843L99.231 22.2323C99.8457 19.6118 101.343 18.3013 103.721 18.3008ZM108.796 29.1553L114.791 29.1542C115.005 29.1542 115.192 29.4663 115.352 30.0906L114.791 31.0272L113.855 30.8428L111.982 30.8432C111.854 30.8432 111.79 30.7794 111.79 30.6518L111.421 30.8433L109.363 30.8437C109.168 30.8437 108.917 30.5931 108.611 30.0919L108.796 29.1553ZM117.243 17.3754C117.99 17.3753 118.364 19.1206 118.365 22.6115C119.112 21.864 119.921 21.4901 120.791 21.49L121.352 21.4899C122.614 21.4896 123.426 22.1116 123.786 23.3556C124.16 23.9981 124.347 24.6224 124.347 25.2286L124.347 26.7256C124.347 27.3728 124.16 27.7465 123.787 27.8468L123.226 27.8469C122.757 27.847 122.444 26.726 122.289 24.4838L121.168 23.3561L120.231 23.3563C119.68 23.3564 119.183 24.6029 118.742 27.0958L118.181 27.4719L117.614 27.472C116.907 27.4722 116.472 24.4189 116.306 18.3121C116.516 17.6877 116.828 17.3755 117.243 17.3754ZM129.985 18.4804C132.606 18.9083 133.916 19.6578 133.916 20.7287L134.101 22.0412C133.545 23.5361 132.422 24.2837 130.731 24.284C128.735 24.1613 127.676 24.0362 127.553 23.9086C127.553 24.0362 127.489 24.1 127.361 24.1001C127.722 25.9731 128.97 26.9093 131.108 26.9089L131.853 26.9088C132.792 26.2843 133.416 25.972 133.726 25.9719L134.102 26.5324L134.102 26.717C134.102 28.2163 132.917 28.9662 130.548 28.9667C129.089 28.9669 127.654 28.156 126.241 26.5339C125.616 24.7977 125.304 23.549 125.303 22.788C125.895 20.5411 126.706 19.4176 127.736 19.4174C127.736 19.2214 128.486 18.9091 129.985 18.4804ZM127.552 21.851C128.04 22.1016 128.726 22.2268 129.61 22.2266L130.916 22.2264C131.335 22.2263 131.772 22.0393 132.228 21.6656C132.228 20.9182 131.417 20.5446 129.794 20.5449C128.299 21.1604 127.552 21.5958 127.552 21.851ZM141.238 21.4861L141.798 21.486C142.135 21.486 142.945 23.1675 144.226 26.5305C143.985 27.1002 143.736 27.4124 143.481 27.4672C142.606 27.4673 142.168 26.9069 142.168 25.7858L141.984 25.7858C141.51 27.1576 140.325 27.8437 138.429 27.8441C136.948 27.8444 135.827 26.4728 135.065 23.7295L135.065 22.9844C135.142 22.237 135.329 21.8632 135.625 21.8632L136.186 21.8631C136.519 21.863 136.831 22.8587 137.123 24.8502C137.748 25.7251 138.247 26.1625 138.62 26.1624C139.992 26.1621 140.678 25.2255 140.677 23.3525L140.862 23.3524L140.677 22.9833L140.677 22.0468C140.677 21.8691 140.864 21.6822 141.238 21.4861ZM146.118 17.5614C146.865 17.5612 147.239 19.3043 147.24 22.7907C149.769 21.423 151.327 20.7391 151.915 20.739C152.107 20.739 152.355 20.9873 152.661 21.484L152.661 21.6686C152.661 21.8873 151.476 22.6372 149.106 23.9182C149.106 24.374 149.856 24.9344 151.356 25.5995C152.103 25.8545 152.477 26.3512 152.477 27.0895L151.725 27.657L151.165 27.6571C150.791 27.6572 149.608 26.9077 147.616 25.4088L147.617 26.3453C147.617 26.7919 147.678 27.3524 147.801 28.0269C147.801 28.3596 147.489 28.6718 146.865 28.9636C146.109 28.9637 145.673 26.5963 145.558 21.8613L145.181 18.4913C145.181 18.1631 145.494 17.8532 146.118 17.5614ZM154.553 17.5598C155.301 17.5597 155.675 19.3028 155.675 22.7891C158.204 21.4214 159.763 20.7375 160.351 20.7374C160.542 20.7374 160.791 20.9857 161.096 21.4824L161.096 21.667C161.096 21.8857 159.911 22.6356 157.542 23.9167C157.542 24.3724 158.292 24.9328 159.791 25.5979C160.539 25.8529 160.912 26.3496 160.913 27.0879L160.161 27.6554L159.6 27.6555C159.226 27.6556 158.044 26.9062 156.052 25.4072L156.052 26.3437C156.052 26.7903 156.114 27.3508 156.237 28.0253C156.237 28.358 155.925 28.6702 155.301 28.962C154.544 28.9621 154.108 26.5947 153.994 21.8597L153.617 18.4897C153.617 18.1615 153.929 17.8516 154.553 17.5598ZM163.173 16.9976L166.537 16.997C167.038 17.2521 167.289 17.562 167.289 17.9265C167.161 18.4279 166.788 18.6786 166.168 18.6787L162.613 18.6794C162.435 18.6794 162.249 18.4926 162.052 18.1189C162.052 17.3715 162.426 16.9978 163.173 16.9976ZM165.416 21.297C165.95 21.2969 166.262 23.1653 166.354 26.9023C166.354 27.235 166.042 27.5472 165.418 27.839C164.798 27.6659 164.488 27.2285 164.488 26.5267L164.487 24.6605C164.487 23.9769 164.423 23.1042 164.295 22.0423C164.423 21.5456 164.797 21.2971 165.416 21.297ZM172.545 14.5486C173.671 14.9996 174.234 16.1228 174.234 17.9184C173.687 18.5429 172.564 18.9783 170.864 19.2247C170.741 19.2247 170.68 19.2885 170.68 19.4161L170.68 19.6007L170.864 19.6007C171.584 19.6005 172.582 19.5388 173.858 19.4155C174.355 19.5385 174.604 19.9122 174.604 20.5365L174.604 20.9125C174.481 21.2862 174.107 21.4731 173.483 21.4732L170.865 21.4737C169.37 21.3464 168.622 20.6607 168.622 19.4165C168.622 17.9172 169.807 17.1673 172.176 17.1668C172.176 16.4194 171.925 16.0458 171.424 16.0459C169.952 16.2968 169.018 16.4223 168.621 16.4224L168.245 15.8619C168.569 14.9869 170.002 14.5491 172.545 14.5486ZM175.732 22.4093C176.302 22.6508 176.612 22.8991 176.662 23.1543L176.477 24.0908L175.732 24.091L174.604 24.2758L174.235 24.0913C174.017 24.2143 173.766 24.2759 173.483 24.276C173.36 24.276 173.299 24.2145 173.299 24.0914C172.811 24.3422 172.125 24.4676 171.241 24.4678L169.744 24.4681C169.462 24.4681 169.211 24.5297 168.992 24.6528C168.495 24.466 168.247 24.2792 168.247 24.0924L168.247 22.9713C169.5 22.5974 171.995 22.41 175.732 22.4093ZM174.605 25.2123C175.37 25.8866 175.808 26.5109 175.917 27.0851C175.918 28.3976 174.858 29.332 172.739 29.8884L172.739 30.2644L173.676 30.2642C173.799 30.2642 173.86 30.3257 173.86 30.4487C173.97 30.4487 174.469 30.2618 175.357 29.8879C176.105 30.0564 176.479 30.307 176.479 30.6397C176.064 31.7608 175.378 32.3215 174.421 32.3217L173.116 32.3219C171.616 32.3222 170.867 31.5112 170.866 29.8888C170.866 28.877 171.802 28.0657 173.675 27.4546L173.86 27.0855L173.675 27.0855C171.693 27.2089 170.508 27.2707 170.121 27.2707L169.929 26.8948L169.929 25.7737C171.415 25.3997 172.973 25.2126 174.605 25.2123ZM187.899 18.1141C188.647 18.1139 189.02 18.6129 189.021 19.6109C189.021 20.1578 187.838 20.4702 185.473 20.5481C185.596 21.2317 185.658 21.7284 185.658 22.0383C185.931 22.0383 186.865 21.9151 188.46 21.6687L188.276 22.0378C188.517 21.9147 188.704 21.8532 188.836 21.8532C189.333 22.0399 189.582 22.2267 189.582 22.4136L189.582 22.7895C189.582 23.66 188.711 24.0954 186.971 24.0957L186.034 24.2804C186.075 24.5311 186.201 24.6564 186.41 24.6563L189.021 24.6559C189.769 24.6557 190.143 25.0293 190.143 25.7767C190.143 26.5241 189.022 26.898 186.78 26.8985C184.911 26.8988 183.977 25.9648 183.976 24.0963C183.976 21.731 183.727 20.5485 183.231 20.5485L183.231 19.7966C183.23 18.9626 184.538 18.4633 187.154 18.2988C187.218 18.2988 187.466 18.2372 187.899 18.1141ZM195.938 18.1126L196.307 18.1125C197.05 18.1124 197.798 21.1018 198.551 27.0808C198.364 27.5822 198.178 27.8328 197.991 27.8329L197.622 27.833C196.747 27.8331 196.309 26.9605 196.309 25.215C196.186 24.9507 196.062 24.3902 195.939 23.5335L195.748 23.5335L193.882 23.7184C194.133 25.1266 194.258 26.2476 194.258 27.0816C194.072 27.583 193.885 27.8337 193.698 27.8337L193.506 27.8337C192.513 27.8339 192.016 26.7744 192.016 24.6553C191.929 24.6553 191.742 23.5958 191.454 21.4767L191.639 21.4767C191.516 21.2124 191.391 20.6518 191.263 19.7951C191.436 19.2801 191.748 18.9063 192.199 18.6738L192.575 18.6737C193.195 18.9653 193.505 19.8995 193.505 21.4763L193.505 21.6677C194.877 21.5717 195.563 21.3848 195.563 21.1068C195.312 20.6511 195.187 20.1521 195.187 19.6098L195.186 18.8578C195.186 18.6664 195.437 18.418 195.938 18.1126ZM205.502 17.1606C206.336 17.1604 206.835 18.4705 206.999 21.091L206.808 21.091L206.999 21.4669L207 24.4611C207 24.6388 206.813 24.8257 206.44 25.0217L206.248 25.0218C205.624 25.0219 205.188 24.7098 204.942 24.0855L204.942 19.9702L204.75 18.6578L202.884 18.8495L200.635 18.85C199.988 18.8501 199.614 18.661 199.513 18.2828L199.513 17.5377L200.45 17.3529C201.329 17.3528 203.013 17.2886 205.502 17.1606ZM200.26 27.6411C200.502 27.7641 200.691 27.8255 200.828 27.8255C201.448 27.8254 203.754 27.7634 207.746 27.6396L207.746 27.8242L208.122 27.6396C208.245 27.6395 208.306 27.7011 208.306 27.8241L208.682 27.6395C209.462 27.89 209.899 28.2021 209.995 28.5757L209.995 28.9449C209.995 29.0725 209.744 29.2594 209.243 29.5056L208.307 29.3212L207.185 29.3214C204.014 29.322 202.081 29.4477 201.389 29.6985C200.391 29.3842 199.891 28.9468 199.891 28.3862C200.137 28.3862 200.26 28.1378 200.26 27.6411ZM213.759 17.5487L214.505 17.5485C214.878 17.5485 215.316 18.9178 215.818 21.6567L217.308 21.6564C217.591 21.6563 217.841 21.5948 218.06 21.4717C218.807 21.7268 219.181 21.9751 219.181 22.2166C219.181 23.0916 218.682 23.5292 217.684 23.5294C218.309 24.2448 218.621 24.8668 218.621 25.3954L218.621 25.956C218.467 27.9521 217.533 28.9503 215.819 28.9506C214.192 28.9509 213.071 28.0169 212.455 26.1485L212.824 23.7149C212.172 23.8426 211.799 23.9065 211.703 23.9065C211.206 23.7197 210.958 23.5329 210.958 23.3461L210.958 22.9701C210.958 22.2227 211.518 21.8489 212.639 21.8487C212.735 21.8487 213.109 21.7848 213.76 21.6571C213.386 20.135 213.199 19.2008 213.199 18.8544C213.322 17.984 213.509 17.5487 213.759 17.5487ZM222.168 19.4133C223.038 19.4131 223.474 20.1604 223.474 21.6552L223.666 22.9677L225.532 22.7828L226.468 22.7826C226.769 23.0286 227.018 23.1516 227.214 23.1516L227.214 23.7122C226.895 24.4596 226.211 24.8334 225.163 24.8336L224.035 24.8338C224.035 25.1392 224.161 26.1987 224.412 28.0125C224.193 28.883 223.945 29.3182 223.667 29.3183L222.915 29.3184C222.482 29.3185 222.172 27.7007 221.984 24.4651C221.784 24.4651 221.597 23.1549 221.423 20.5345C221.674 19.7871 221.922 19.4133 222.168 19.4133ZM214.697 24.4665L214.321 25.2116C214.467 26.3327 214.967 26.8932 215.819 26.893L216.188 26.8929C216.188 26.8155 216.313 26.4417 216.564 25.7718C216.153 24.9014 215.531 24.4663 214.697 24.4665ZM229.29 15.8573L230.227 16.0485L232.845 16.048C235.087 16.0476 236.208 16.4211 236.209 17.1685C236.332 17.8201 236.393 18.4422 236.393 19.0346L236.209 19.4107L236.394 19.4106C236.394 19.2329 236.58 19.046 236.954 18.85L239.764 18.8494L239.763 17.9129C240.009 17.6121 240.132 17.3637 240.132 17.1677L240.324 17.1677C241.071 17.245 241.445 17.4318 241.445 17.728L241.445 20.3462C241.446 24.0832 241.134 25.9517 240.51 25.9518L239.949 25.9519C239.576 25.829 239.389 25.4553 239.389 24.831L239.388 23.5253L239.204 23.5253C237.208 23.5257 236.21 23.2752 236.21 22.7739L236.025 22.774C236.025 24.1138 235.526 24.9251 234.528 25.2078L234.152 25.2079L231.91 25.0238C231.236 25.1469 230.675 25.2086 230.229 25.2087C229.823 24.9581 229.511 24.8328 229.292 24.8329L229.292 23.5272C229.292 23.3996 229.353 23.3358 229.476 23.3358C228.605 20.2552 228.17 18.0131 228.169 16.6094C228.497 16.2357 228.871 16.0488 229.29 16.0487L229.29 15.8573ZM230.227 18.1061L231.165 23.1509L234.152 23.1503C234.402 21.4276 234.527 19.7459 234.527 18.1053L230.227 18.1061ZM236.209 19.9712L236.209 21.6528L236.77 21.2836C237.235 21.2835 238.169 21.4064 239.573 21.6522L239.573 20.9071L236.77 20.9076L236.394 19.9712L236.209 19.9712ZM233.408 27.0743L234.344 27.0741C234.891 29.1931 235.327 30.2526 235.65 30.2526C237.387 30.1292 238.508 30.0675 239.014 30.0674C239.515 30.1903 239.766 30.564 239.766 31.1883C239.593 31.8127 239.155 32.1249 238.454 32.1251L237.148 32.1253C236.524 32.1254 235.589 32.1871 234.345 32.3104C233.347 30.7064 232.848 29.1502 232.847 27.6418C232.847 27.4595 233.034 27.2703 233.408 27.0743ZM87.7974 38.004C88.7955 38.0038 89.2947 38.9402 89.295 40.8133C89.4226 40.8133 89.4864 40.8748 89.4865 40.9978C90.7306 40.8745 91.6648 40.8128 92.2892 40.8127L92.8497 40.8126L93.0345 41.7423L93.0346 42.4942C92.2872 42.5855 91.9135 42.7109 91.9136 42.8704C92.1644 43.677 92.2898 44.2375 92.2899 44.552L92.2899 44.7366C92.2901 45.8622 91.356 46.6121 89.4876 46.9861C87.6145 46.5216 86.6778 45.5853 86.6775 44.1771L86.6774 43.8011L86.8619 43.4319C85.3671 43.4322 84.6197 42.9948 84.6195 42.1198L84.6194 41.5593C84.8154 41.5592 85.0637 41.4339 85.3644 41.1832L87.4221 41.1828L87.0525 38.9407C87.2939 38.371 87.5422 38.0587 87.7974 38.004ZM88.5505 43.9921L88.5505 44.1767C88.5506 44.3544 88.7375 44.5413 89.1112 44.7371L89.8563 44.737C90.107 44.737 90.2323 44.6139 90.2322 44.3678C90.2322 44.1171 90.1068 43.9918 89.8562 43.9919L88.5505 43.9921ZM93.0355 47.17C93.6598 47.1699 93.9721 47.7942 93.9724 49.0429L93.7878 49.0429C93.5782 49.289 91.3338 49.5994 87.0546 49.9739C86.4302 49.7279 86.1179 49.3542 86.1178 48.8529C86.1177 47.9825 87.3025 47.5471 89.6723 47.5466L89.6723 47.7312L93.0355 47.17ZM92.6669 50.3488C93.5374 50.3486 93.9728 51.4719 93.9732 53.7187C93.8138 54.343 93.6271 54.6552 93.4129 54.6553L92.2918 54.6555L91.9155 53.3431L91.9154 52.4065C89.81 52.7806 88.5636 52.9677 88.1762 52.9678L87.424 51.6623C87.6747 51.6622 87.9253 51.4115 88.1758 50.9102C90.1536 50.5361 91.6507 50.349 92.6669 50.3488ZM108.21 42.8673L108.771 42.8672C108.771 43.0586 108.896 43.307 109.147 43.6123L109.148 45.8545C109.148 46.4241 109.335 47.7958 109.709 49.9696C109.467 50.5393 109.217 50.8515 108.957 50.9063L108.588 50.9063C108.055 50.9064 107.617 49.1611 107.274 45.6703L107.466 45.6702L107.274 45.2943C107.402 43.6764 107.714 42.8674 108.21 42.8673ZM98.483 43.2383C99.8547 43.3292 100.541 43.7028 100.541 44.359C100.728 44.2359 101.539 44.1127 102.974 43.9894C103.973 44.9554 104.472 46.4524 104.472 48.4804L104.472 48.8495C104.472 49.4966 104.286 49.8704 103.912 49.9707L103.16 49.9708C102.786 49.9709 102.538 48.7245 102.414 46.2317L101.286 46.2319C101.109 46.232 100.922 46.4188 100.726 46.7926L100.726 46.984C100.726 47.6357 100.79 48.6952 100.918 50.1627L100.166 50.7234L99.7969 50.7234C99.2956 50.7235 98.9833 49.8509 98.8599 48.1054L99.0442 46.9843L99.044 45.6718C99.0439 45.4212 98.8571 45.2959 98.4834 45.2959C98.2099 45.296 97.2734 45.4215 95.6739 45.6724C95.1771 45.5495 94.9287 45.1758 94.9285 44.5515C94.9284 43.6765 95.9879 43.2388 98.107 43.2384L98.483 43.2383ZM121.137 41.5661L121.882 41.5659C122.342 41.5659 122.655 42.9991 122.819 45.8656C122.988 45.8655 123.674 45.7401 124.877 45.4892C125.442 45.7306 125.752 45.979 125.807 46.2342L125.807 46.7947C125.807 47.4191 124.873 47.7314 123.004 47.7318L123.004 47.9232C123.005 48.6022 123.13 50.097 123.381 52.4075C123.14 52.9772 122.889 53.2894 122.629 53.3441L122.069 53.3442C121.454 53.3443 121.08 51.2868 120.947 47.1716C120.792 47.1716 120.668 45.4262 120.576 41.9353L121.137 41.5661ZM115.525 43.9939C116.273 43.9938 116.646 44.4312 116.646 45.3062L116.647 49.7906C116.647 49.9683 116.461 50.1552 116.087 50.3512L115.342 50.3514C115.159 50.3514 114.973 50.1646 114.781 49.7909L114.78 46.0517C112.784 46.1751 111.725 46.3006 111.602 46.4282C111.032 46.1868 110.72 45.9362 110.665 45.6765L110.665 44.9313C110.665 44.4938 112.285 44.1814 115.525 43.9939ZM136.867 42.486C138.229 42.4857 139.041 43.4836 139.301 45.4797L139.301 46.7853C139.009 47.3186 137.825 48.0047 135.747 48.8436C135.747 48.9712 135.683 49.035 135.555 49.0351C135.683 49.2766 135.747 49.4634 135.747 49.5956C137.21 49.4677 138.269 49.4037 138.926 49.4036C139.258 49.4855 139.57 49.7976 139.862 50.3399L139.862 50.5313C139.539 51.2788 138.354 51.6527 136.308 51.6531C134.562 51.225 133.689 50.4755 133.689 49.4045L133.689 49.22C133.689 47.6158 134.874 46.556 137.243 46.0406C137.366 45.799 137.428 45.6122 137.428 45.48C137.305 44.7281 137.118 44.3521 136.867 44.3522L136.491 44.3523C135.37 44.3525 134.31 44.478 133.312 44.7288C132.688 44.5558 132.376 44.1206 132.376 43.4233L132.376 43.2319C132.375 42.7352 133.872 42.4865 136.867 42.486ZM143.04 43.2299L143.976 43.2298C144.724 43.2296 145.098 45.1641 145.098 49.0333C145.221 49.1563 145.283 49.6553 145.283 50.5303C145.283 50.8584 144.971 51.1684 144.347 51.4602C143.599 51.4603 143.226 50.6515 143.225 49.0336C142.979 46.5499 142.855 44.8022 142.855 43.7905C142.978 43.549 143.04 43.3621 143.04 43.2299ZM152.227 41.1706C153.061 41.1704 153.56 42.4806 153.725 45.101L153.533 45.101L153.725 45.477L153.725 48.4711C153.725 48.6488 153.538 48.8357 153.165 49.0317L152.973 49.0318C152.349 49.0319 151.914 48.7198 151.667 48.0955L151.667 43.9803L151.475 42.6678L149.609 42.8596L147.36 42.86C146.713 42.8601 146.339 42.671 146.239 42.2928L146.239 41.5477L147.175 41.3629C148.055 41.3628 149.738 41.2987 152.227 41.1706ZM146.986 51.6511C147.227 51.7741 147.416 51.8356 147.553 51.8355C148.173 51.8354 150.479 51.7735 154.471 51.6497L154.471 51.8342L154.847 51.6496C154.97 51.6496 155.031 51.7111 155.031 51.8341L155.407 51.6495C156.187 51.9 156.624 52.2121 156.72 52.5858L156.72 52.9549C156.72 53.0825 156.47 53.2694 155.968 53.5156L155.032 53.3312L153.911 53.3314C150.739 53.332 148.807 53.4577 148.114 53.7085C147.116 53.3942 146.617 52.9568 146.617 52.3963C146.863 52.3962 146.986 52.1478 146.986 51.6511ZM158.618 40.2465L159.739 40.4309C159.803 40.4309 160.051 40.3693 160.484 40.2462L160.86 40.4307L161.797 40.2459C162.886 40.2457 163.508 41.5536 163.664 44.1694L163.664 44.3608C163.664 45.4272 162.605 46.1133 160.486 46.419L160.486 46.6036C160.782 46.7631 161.841 47.075 163.664 47.5395L163.856 48.2846C163.651 48.909 163.275 49.2212 162.728 49.2214C160.463 49.2218 159.094 48.4746 158.619 46.9799L158.619 46.0434C158.619 44.6717 159.678 43.9856 161.798 43.9852L161.606 43.0487L161.606 42.4882C161.328 42.4882 161.08 42.4267 160.861 42.3037L158.988 42.4887C158.117 42.4888 157.682 41.9284 157.682 40.8073L158.618 40.2465ZM166.466 41.5576L167.594 41.5574C167.594 41.7488 167.717 41.9971 167.963 42.3024L167.964 44.5446L169.461 44.5443L169.46 41.9261C169.501 41.68 169.627 41.557 169.836 41.5569L170.581 41.5568C171.156 41.5567 171.53 43.4866 171.703 47.3466L171.519 47.3467L171.704 47.7226C171.704 48.9713 171.269 49.5957 170.398 49.5959C170.202 49.5959 169.952 49.3453 169.646 48.8441L169.646 46.6019L168.155 46.6022L168.156 46.9781C168.156 47.2561 168.217 47.5045 168.34 47.7232C168.044 48.5983 167.796 49.0358 167.595 49.0359C166.597 49.0361 166.098 48.5371 166.098 47.5391C166.098 47.4115 166.16 47.3477 166.283 47.3476L166.098 46.9785C166.098 46.8509 166.159 46.7871 166.282 46.7871L166.098 46.418L166.097 41.9268C166.133 41.6807 166.256 41.5576 166.466 41.5576ZM166.283 50.7178C166.766 50.8407 167.265 50.9021 167.78 50.902L168.525 50.9019C169.195 50.9018 169.569 51.8998 169.647 53.8958C169.647 56.015 168.9 57.0747 167.406 57.075L165.724 57.0753C163.855 57.0756 162.921 56.2646 162.921 54.6422L162.36 52.2156C162.36 51.3406 163.107 50.9029 164.602 50.9026C165.258 50.9025 165.818 50.8409 166.283 50.7178ZM164.602 52.9603L164.787 54.8264L164.787 55.0178L167.405 55.0173C167.482 53.8962 167.608 53.3357 167.781 53.3356C167.658 53.0941 167.596 52.9073 167.596 52.7751L166.844 52.7753L164.602 52.9603ZM175.284 41.1799L175.469 41.1799L176.405 41.3711C176.406 43.4857 176.716 44.5429 177.336 44.5428L177.712 44.3582C179.084 44.6769 179.769 45.0505 179.77 45.4789L179.77 45.6635C179.478 46.2058 179.166 46.5181 178.833 46.6002C179.33 47.5434 179.579 48.1677 179.579 48.4731C179.296 50.3416 178.426 51.276 176.968 51.2763L176.592 51.2764C174.846 51.2767 173.974 50.2173 173.973 48.0981C173.973 47.4738 174.16 47.1616 174.534 47.1615L174.533 46.7924L173.604 46.9771L173.043 46.9772C173.043 46.7813 172.918 46.5306 172.667 46.2253L172.667 46.0408C172.954 45.1703 173.701 44.7349 174.909 44.7347C174.658 44.197 174.533 43.1989 174.533 41.7406L175.284 41.1799ZM185.744 43.4201C186.742 43.42 187.241 44.4794 187.241 46.5986C187.405 46.5985 187.593 47.7196 187.803 49.9618C187.803 51.0828 187.368 51.6435 186.497 51.6436L186.306 51.6437C185.932 51.6437 185.684 50.648 185.56 48.6565L184.255 48.8413L184.255 51.0835C184.255 51.7534 184.005 52.191 183.503 52.3962L183.319 52.3962C182.571 52.3963 182.198 51.9589 182.197 51.0839L182.382 51.0839L182.197 50.7148C182.197 49.3567 181.948 47.2991 181.451 44.542C181.624 43.9222 182.059 43.6122 182.756 43.6121L182.941 43.6121C182.941 43.7989 183.128 44.0473 183.502 44.3571C183.502 44.4801 183.44 44.5417 183.317 44.5417C183.691 45.4485 183.878 46.1982 183.878 46.7906L184.254 46.7905C184.591 46.7905 184.965 46.6651 185.375 46.4144C185.124 45.8539 184.999 45.0427 184.999 43.9808L184.999 43.7963C185.195 43.7962 185.443 43.6709 185.744 43.4201ZM176.215 47.5372L176.031 47.9132L176.216 49.2188L176.592 49.2187L177.528 49.034L177.528 48.4735C177.455 48.1727 177.017 47.8606 176.215 47.5372ZM193.058 41.1766C193.555 41.3816 193.865 41.7552 193.988 42.2975C193.742 43.0677 193.619 43.5668 193.619 43.7946C195.611 44.7923 196.607 45.7264 196.607 46.5968C196.197 46.9706 195.884 47.1575 195.67 47.1575C194.8 46.7339 194.364 46.4241 194.364 46.2281C194.487 46.2281 194.549 46.1643 194.549 46.0367L194.18 46.2281C193.833 45.8499 193.396 45.6609 192.867 45.661C192.867 45.7886 192.744 45.8524 192.498 45.8525L192.683 46.2284C192.46 47.0989 192.086 47.5342 191.562 47.5343C191.188 47.4569 190.876 47.0832 190.625 46.4134C191.5 44.4262 191.937 43.2412 191.937 42.8584C190.369 42.9863 189.435 43.0503 189.134 43.0504L188.758 42.4899C188.758 41.6149 189.505 41.1773 191 41.177L193.058 41.1766ZM199.969 43.978C200.84 43.9779 201.275 44.7274 201.276 46.2268C201.777 49.2892 202.028 51.3445 202.029 52.3927L201.468 52.7619L200.908 52.762C200.557 52.7621 200.306 52.2654 200.155 51.2719L200.531 51.2719L200.531 51.0805C200.281 51.0805 200.155 51.019 200.155 50.896C200.155 50.1896 200.032 49.5037 199.786 48.8384L199.41 49.0299L197.168 49.0303L196.792 49.2149L196.983 49.5909C196.796 50.0877 196.61 50.3361 196.423 50.3361L194.181 50.3365L194.181 50.5211C194.181 51.1774 194.242 52.2369 194.366 53.6998L193.621 54.445L193.429 54.4451C192.933 54.4452 192.559 53.0758 192.308 50.3369L190.257 50.3373C189.883 50.2143 189.696 49.8406 189.696 49.2163C189.819 48.9747 189.881 48.7879 189.88 48.6557L196.047 48.6545L195.862 48.2786C196.021 47.6588 196.208 47.3488 196.422 47.3488L196.607 47.3488C197.263 47.3486 198.323 47.2846 199.785 47.1568L199.594 45.8511L199.594 44.3541C199.635 44.1034 199.76 43.9781 199.969 43.978ZM203.551 40.6004L204.111 40.6003C204.362 40.8554 204.613 43.0999 204.865 47.3335L204.113 47.8942L203.928 47.8943C203.6 47.8943 203.349 47.3954 203.176 46.3973L203.176 44.5311L202.991 43.4032C202.991 43.2802 203.052 43.2187 203.175 43.2186L202.991 42.2821L202.99 41.161C202.99 40.9788 203.177 40.7919 203.551 40.6004ZM204.674 49.2066C205.052 49.9266 205.241 50.3641 205.241 50.519C205.054 51.0158 204.865 51.2642 204.674 51.2642C203.927 51.2644 203.553 50.8908 203.553 50.1434C203.63 49.7696 204.004 49.4574 204.674 49.2066Z" fill="black"/>
<path d="M21.8216 16.8652C17.4761 20.6722 14.4182 26.0754 13.7164 31.5105C13.3908 34.032 12.5411 37.0022 13.1778 39.559C13.7537 41.8714 14.7622 43.8404 16.1091 45.8685C16.936 47.1137 18.0483 48.402 18.6431 49.7452" stroke="black" stroke-width="2" stroke-linecap="round"/>
<path d="M7.51855 25.0488C11.5419 25.2508 15.4816 26.3197 19.438 26.9154" stroke="black" stroke-width="2" stroke-linecap="round"/>
<path d="M6.40576 39.1199C8.3757 38.9325 10.2475 38.2996 12.233 38.1148C13.841 37.9651 15.4399 37.9712 17.0538 37.9712" stroke="black" stroke-width="2" stroke-linecap="round"/>
<path d="M281.543 38.0044C281.172 41.7117 280.079 45.8084 277.98 49.0546C276.046 52.0436 273.374 54.1813 270.478 56.3776C268.813 57.6408 267.11 58.9662 265.519 60.2931C264.841 60.859 264.062 61.2498 263.165 61.385" stroke="black" stroke-width="2" stroke-linecap="round"/>
<path d="M266.54 53.7607C267.947 55.0327 269.335 56.482 270.582 57.8834C271.791 59.2431 273.35 60.2459 274.791 61.3849" stroke="black" stroke-width="2" stroke-linecap="round"/>
<path d="M276.104 45.2896C278.918 45.6286 281.073 47.7636 283.501 48.8851C284.712 49.445 285.741 50.2634 286.98 50.7111" stroke="black" stroke-width="2" stroke-linecap="round"/>
</svg>
