<svg width="293" height="171" viewBox="0 0 293 171" fill="none" xmlns="http://www.w3.org/2000/svg">
<path d="M76.7816 44.0874C82.2581 35.3041 89.4641 28.085 99.863 25.9135C100.944 25.3717 102.108 25.3277 103.369 25.3277C104.833 25.3277 106.563 24.6926 107.979 24.1563C109.183 23.7004 110.089 23.6055 110.089 22.2526V19.7633C110.089 17.6057 109.212 15.5763 109.212 13.483C109.212 10.8731 109.471 7.89138 111.16 5.80338C112.587 4.04032 115.278 1.11706 117.978 2.25646C118.741 2.57855 119.414 2.73386 120.169 3.06997C121.071 3.47187 121.307 4.33844 122.068 4.76208C123.41 5.50965 124.834 7.87034 125.72 9.23641C127.331 11.7204 128.568 14.5591 129.957 17.1438C130.409 17.9867 131.181 21.7792 132.067 21.8133C133.35 21.8628 134.645 21.8133 135.93 21.8133C138.016 21.8133 142.228 22.8754 142.228 19.9097C142.228 15.6569 141.405 9.79661 145.149 6.87722C146.777 5.60796 148.124 5.4129 150.116 5.4129C151.606 5.4129 154.153 5.09001 155.521 5.85219C157.8 7.12101 159.691 9.9888 160.781 12.2952C161.727 14.2972 162.664 16.0787 163.426 18.1525C164.056 19.8657 164.64 21.3062 164.952 23.1475C165.172 24.4475 166.087 24.7057 167.354 24.742C170.042 24.819 173.092 25.9725 175.535 27.15C179.098 28.8668 183.138 29.8162 186.41 32.1287C191.567 35.772 196.601 39.4948 201.116 43.9409C205.705 48.4599 208.131 53.6898 210.531 59.593C212.758 65.0737 213.912 71.0183 215.562 76.6768C216.327 79.2993 217.11 81.948 217.754 84.6004C218.437 87.4147 219.82 90.0976 220.594 92.9145C221.512 96.2516 221.04 100.558 221.609 103.98C222.299 108.133 220.847 110.319 220.594 114.529C220.082 123.059 215.68 131.081 211.411 138.442C207.237 145.638 202.453 150.126 196.29 155.321C192.668 158.374 190.741 158.78 186.443 160.596C182.986 162.057 180.025 163.637 176.597 165.168C173.966 166.343 170.954 167.233 168.157 167.981C165.679 168.643 161.549 169.466 159.014 169.352C155.72 169.205 153.163 169.763 149.889 169.352C139.815 168.09 127.63 167.921 117.871 165.168C109.493 162.804 102.807 157.643 95.3181 153.082C90.4444 150.114 86.4078 146.721 82.3166 142.767C75.2611 135.947 69.5076 126.379 66.9939 116.848C63.7658 104.609 64.2718 92.1351 64.835 79.5729C65.1019 73.6208 67.1805 67.8623 68.6008 62.1311C70.117 56.0129 73.4546 49.4231 76.7816 44.0874Z" fill="#FF774D" stroke="black" stroke-width="2" stroke-linecap="round"/>
<path d="M115.651 33.0566C115.651 31.42 117.815 30.91 119.113 30.91C119.804 30.91 120.751 30.7762 121.398 31.0638C121.618 31.1613 121.917 31.3254 122.16 31.3254" stroke="black" stroke-width="2" stroke-linecap="round"/>
<path d="M124.059 37.0879C124.405 37.6982 124.745 38.2201 125.42 38.5021C126.006 38.7467 126.72 38.7201 127.346 38.6822C127.765 38.6568 128.094 38.4943 128.453 38.298C128.582 38.2273 128.918 38.131 128.986 37.9955" stroke="black" stroke-width="2" stroke-linecap="round"/>
<path d="M131.622 31.945C131.732 31.6802 132.241 31.4046 132.472 31.2535C132.769 31.0589 133.088 30.9077 133.446 30.9077C133.76 30.9077 134.029 31.0532 134.325 31.143C135.155 31.3942 136.032 31.41 136.88 31.5776C137.249 31.6505 137.471 31.805 137.737 32.0122C137.96 32.1858 138.2 32.334 138.494 32.334" stroke="black" stroke-width="2" stroke-linecap="round"/>
<path d="M267.932 35.1197C275.423 37.4198 283.506 37.1271 291.273 37.1073C289.698 37.1345 287.829 37.7246 286.291 38.0996C284.616 38.5078 282.988 39.0455 281.402 39.7265C279.715 40.451 278.343 41.5406 277.06 42.8263C276.117 43.7707 274.745 44.4129 273.915 45.4294C272.732 46.877 271.368 47.8865 269.778 48.8203C268.686 49.4616 266.923 49.1286 265.692 49.1286C264.711 49.1286 263.971 48.829 263.453 47.8955C262.69 46.5193 261.906 46.6625 260.427 46.6625C256.544 46.6625 249.993 45.8883 247.624 49.8136C246.391 51.8566 244.947 53.6182 243.983 55.7905C243.138 57.6942 243.42 58.993 241.231 58.993C237.181 58.993 235.194 57.7783 231.248 57.2598C229.924 57.0858 228.57 56.3716 229.694 54.9239C230.676 53.6591 228 52.0261 228 50.4986C226.112 54.8229 223.564 59.7678 221.846 64.165C221.452 65.1754 221.038 66.4829 220.923 67.5559C220.846 68.2796 219.413 67.9126 218.94 67.8641C214.02 67.36 208.983 66.0831 204.034 66.0831C202.789 66.0831 203.015 64.1024 202.462 63.2402C201.44 61.6488 200.312 60.1662 199.094 58.7019C197.547 56.8415 196.084 54.4111 193.846 53.2901C192.339 52.535 192 52.6588 192 50.9782C192 50.0669 192.026 48.5263 192.462 47.7414C192.787 47.1545 193.195 45.4485 193.231 44.8129C193.338 42.9276 193.894 41.01 194.393 39.1956C194.743 37.925 194.453 36.8995 195.214 35.702C195.678 34.9703 195.427 34.6402 196.462 34.6402C197.168 34.6402 197.859 34.4875 198.53 34.2634C200.192 33.7083 201.63 33.4071 203.385 33.4071C207.145 33.4071 209.915 34.2508 210.838 29.8792C211.489 26.7934 212.665 24.1082 215.863 23.5256C221.233 22.5474 227.387 23.2344 232.855 23.2344C235.47 23.2344 238.033 23.392 240.615 23.7825C242.576 24.0789 244.88 24.1697 246.735 24.9299C250.416 26.4387 254.146 27.8212 257.846 29.2627C261.521 30.6945 264.152 33.9592 267.932 35.1197Z" fill="white"/>
<path d="M292 37.1063C284.011 37.1063 275.657 37.4917 267.932 35.1197C264.152 33.9592 261.521 30.6945 257.846 29.2627C254.146 27.8212 250.416 26.4387 246.735 24.9299C244.88 24.1697 242.576 24.0789 240.615 23.7825C238.033 23.392 235.47 23.2344 232.855 23.2344C227.387 23.2344 221.233 22.5474 215.863 23.5256C212.665 24.1082 211.489 26.7934 210.838 29.8792C209.915 34.2508 207.145 33.4071 203.385 33.4071C201.63 33.4071 200.192 33.7083 198.53 34.2634C197.859 34.4875 197.168 34.6402 196.462 34.6402C195.427 34.6402 195.678 34.9703 195.214 35.702C194.453 36.8995 194.743 37.925 194.393 39.1956C193.894 41.01 193.338 42.9276 193.231 44.8129C193.195 45.4485 192.787 47.1545 192.462 47.7414C192.026 48.5263 192 50.0669 192 50.9782C192 52.6588 192.339 52.535 193.846 53.2901C196.084 54.4111 197.547 56.8415 199.094 58.7019C200.312 60.1662 201.44 61.6488 202.462 63.2402C203.015 64.1024 202.789 66.0831 204.034 66.0831C208.983 66.0831 214.02 67.36 218.94 67.8641C219.413 67.9126 220.846 68.2796 220.923 67.5559C221.038 66.4829 221.452 65.1754 221.846 64.165C223.564 59.7678 226.112 54.8229 228 50.4986M228 50.4986C228 48.7526 227.698 47.5408 227.402 45.9089C227.23 44.9625 226.202 45.7127 225.538 45.3609C224.644 45.3609 215.202 42.9633 214.308 42.9633C212.747 42.9633 212.75 46.3048 212.154 47.4331C211.302 49.0449 210.69 50.617 209.675 52.1427M228 50.4986C228 52.0261 230.676 53.6591 229.694 54.9239C228.57 56.3716 229.924 57.0858 231.248 57.2598C235.194 57.7783 237.181 58.993 241.231 58.993C243.42 58.993 243.138 57.6942 243.983 55.7905C244.947 53.6182 246.391 51.8566 247.624 49.8136C249.993 45.8883 256.544 46.6625 260.427 46.6625C261.906 46.6625 262.69 46.5193 263.453 47.8955C263.971 48.829 264.711 49.1286 265.692 49.1286C266.923 49.1286 268.686 49.4616 269.778 48.8203C271.368 47.8865 272.732 46.877 273.915 45.4294C274.745 44.4129 276.117 43.7707 277.06 42.8263C278.343 41.5406 279.715 40.451 281.402 39.7265C282.988 39.0455 284.616 38.5078 286.291 38.0996C287.866 37.7157 289.787 37.1063 291.385 37.1063" stroke="black" stroke-width="2" stroke-linecap="round"/>
<path d="M67.3416 127.263C71.0442 128.695 92.1916 134.939 96 136.1C94.3125 136.508 92.6724 137.046 91.0743 137.727C89.3745 138.451 87.9928 139.541 86.6998 140.826C85.75 141.771 70.7786 143.646 69.9422 144.662C66.0293 144.662 59.4293 143.888 57.0424 147.814C55.8002 149.857 54.3449 151.618 53.374 153.79C52.5231 155.694 52.8069 156.993 50.6012 156.993C46.5209 156.993 44.5189 155.778 40.5434 155.26C39.3934 155.11 38.2211 154.558 38.6444 153.482C37.0193 155.921 30.2449 164.589 30.1407 165.556C30.0627 166.28 28.6191 165.913 28.1429 165.864C23.1856 165.36 18.1107 164.083 13.1247 164.083C11.8704 164.083 12.0976 162.102 11.5402 161.24C10.5114 159.649 9.37457 158.166 8.14739 156.702C6.58831 154.842 5.11472 152.411 2.86004 151.29C1.34117 150.535 1 150.659 1 148.978C1 148.067 1.02647 146.526 1.46501 145.741C1.79291 145.154 2.2035 143.448 2.24003 142.813C2.34837 140.928 2.90781 139.01 3.41117 137.196C3.76367 135.925 3.47149 134.899 4.23785 133.702C4.70611 132.97 4.45296 132.64 5.49511 132.64C6.20732 132.64 6.90292 132.488 7.57904 132.263C9.25383 131.708 10.7024 131.407 12.4703 131.407C16.2591 131.407 19.0493 132.251 19.9793 127.879C20.6358 124.793 21.8203 122.108 25.0428 121.526C30.4531 120.547 36.6529 121.234 42.1621 121.234C44.7968 121.234 47.3794 121.392 49.9811 121.782C51.9563 122.079 54.2781 122.17 56.1468 122.93C59.856 124.439 63.6138 125.821 67.3416 127.263Z" fill="white"/>
<path d="M38.9773 152.924C38.5797 153.934 30.2563 164.483 30.1407 165.556C30.0627 166.28 28.6191 165.913 28.1429 165.864C23.1856 165.36 18.1107 164.083 13.1247 164.083C11.8704 164.083 12.0976 162.102 11.5402 161.24C10.5114 159.649 9.37457 158.166 8.14739 156.702C6.58831 154.842 5.11472 152.411 2.86004 151.29C1.34117 150.535 1 150.659 1 148.978C1 148.067 1.02647 146.526 1.46501 145.741C1.79291 145.154 2.2035 143.448 2.24003 142.813C2.34837 140.928 2.90781 139.01 3.41117 137.196C3.76367 135.925 3.47149 134.899 4.23785 133.702C4.70611 132.97 4.45296 132.64 5.49511 132.64C6.20732 132.64 6.90292 132.488 7.57904 132.263C9.25383 131.708 10.7024 131.407 12.4703 131.407C16.2591 131.407 19.0493 132.251 19.9793 127.879C20.6358 124.793 21.8203 122.108 25.0428 121.526C30.4531 120.547 36.6529 121.234 42.1621 121.234C44.7968 121.234 47.3794 121.392 49.9811 121.782C51.9563 122.079 54.2781 122.17 56.1468 122.93C59.856 124.439 63.6138 125.821 67.3416 127.263C71.0442 128.695 92.1916 134.939 96 136.1C94.3125 136.508 92.6724 137.046 91.0743 137.727C89.3745 138.451 87.9927 139.541 86.6998 140.826C85.75 141.771 70.7786 143.646 69.9422 144.662C66.0293 144.662 59.4293 143.888 57.0424 147.814C55.8002 149.857 54.3449 151.618 53.374 153.79C52.5231 155.694 52.8069 156.993 50.6012 156.993C46.5209 156.993 44.5189 155.778 40.5434 155.26C39.2091 155.086 37.845 154.372 38.9773 152.924ZM38.9773 152.924C38.8042 151.977 35.459 143.713 34.7908 143.361C33.8895 143.361 24.3768 140.963 23.4755 140.963C21.9029 140.963 19.4089 142.301 18.8082 143.429C17.9501 145.041 19.8311 148.617 18.8082 150.143" stroke="black" stroke-width="2" stroke-linecap="round"/>
</svg>
