<svg width="334" height="217" viewBox="0 0 334 217" fill="none" xmlns="http://www.w3.org/2000/svg">
<path d="M24.1686 106.332C30.4581 101.619 31.7839 97.5214 38.4005 93.5676C44.8545 93.5676 51.4753 93.2365 57.9843 93.2365C65.4182 93.2365 73.2327 92.3905 80.5878 93.8986C86.2669 95.0631 91.7038 95.2229 97.4658 95.2229C104.278 95.2229 110.842 96.742 117.453 98.5335C121.876 99.7318 126.232 101.301 130.609 102.727C135.423 104.295 140.459 105.418 145.154 107.472C150.932 109.999 155.59 114.355 159.7 119.905C161.919 122.901 163.022 125.856 163.453 129.966C164.192 137.014 164.117 144.756 163.617 151.834C161.778 177.894 146.43 202.734 125.257 208.371C119.959 209.782 114.867 212.058 109.5 213.19C100.823 215.021 91.926 215.789 83.1442 216.353C64.5482 217.549 45.7662 216.897 27.1735 215.93C22.2434 215.674 16.5675 216.547 11.9251 214.054C9.58525 212.798 7.79635 210.104 6.31901 207.636C-0.547039 196.162 -0.315953 181.64 0.264486 168.001C0.727309 157.125 3.45071 146.85 6.88709 136.899C9.24612 130.068 11.7597 123.195 15.2588 117.11C17.7577 112.764 20.4599 109.111 24.1686 106.332Z" fill="#FFAD4C"/>
<path d="M197.579 104.547C203.715 99.7577 205.009 95.5944 211.464 91.5767C217.761 91.5767 224.22 91.2403 230.57 91.2403C237.823 91.2403 245.447 90.3806 252.622 91.9131C258.163 93.0964 263.467 93.2587 269.089 93.2587C275.735 93.2587 282.138 94.8024 288.588 96.6227C292.903 97.8404 297.153 99.4353 301.423 100.884C306.12 102.477 311.034 103.619 315.614 105.705C321.251 108.274 325.795 112.699 329.805 118.339C331.97 121.383 333.045 124.386 333.466 128.562C334.187 135.724 334.114 143.591 333.626 150.783C331.832 177.263 316.859 202.504 296.202 208.232C291.033 209.665 286.065 211.978 280.829 213.129C272.364 214.989 263.684 215.769 255.116 216.343C236.974 217.557 218.65 216.895 200.511 215.913C195.701 215.653 190.163 216.539 185.634 214.007C183.351 212.73 181.606 209.993 180.165 207.484C173.466 195.826 173.692 181.07 174.258 167.21C174.71 156.159 177.367 145.719 180.719 135.607C183.021 128.666 185.473 121.682 188.887 115.498C191.325 111.082 193.961 107.371 197.579 104.547Z" fill="#FFAD4C"/>
<path d="M64.9326 57.087C65.1331 57.6982 65.6435 60.4069 66.6853 60.5231C64.3619 61.1058 62.8634 65.0297 61.9418 66.8791C60.1728 70.4284 60.8966 75.3569 60.8966 79.2361C60.8966 83.6508 61.7596 87.117 64.5145 90.7221C66.6936 93.5735 68.3864 95.7665 71.4771 97.691C74.8536 99.7936 77.9055 100.014 81.7682 100.014C84.5793 100.014 87.6527 100.356 90.4513 99.9818C92.2427 99.7421 94.1895 98.8965 95.8541 98.2073C97.8931 97.363 99.5939 96.3984 101.193 94.8518C102.701 93.3925 103.253 92.0709 104.066 90.1259L104.087 90.0768C106.159 85.1187 106.628 80.37 106.628 75.0257C106.628 72.4114 107.053 68.7902 105.036 66.7661C104.268 65.9959 103.656 65.0354 102.929 64.2334C102.351 63.5954 101.307 62.4131 100.903 61.6846C100.326 60.6416 98.7015 58.9 97.655 58.2001C97.655 49.0098 97.8541 38.9291 97.655 29.7433C97.5683 25.7414 95.7262 22.1445 95.1144 18.2574L95.1091 18.2234C94.9431 17.1677 94.6173 15.0957 93.3135 14.9504C92.0547 14.81 90.8542 15.096 89.6151 15.2246C88.5069 15.3396 87.8475 18.2601 87.5248 19.0156C84.8008 25.3922 83.1832 32.7441 83.1832 39.6968V49.5856C83.1832 50.1955 83.5915 54.163 82.733 54.4091C81.4126 54.7876 79.372 54.4994 78.0216 54.4091C77.0015 54.3408 76.8672 54.1433 76.8156 53.2637C76.7674 52.4411 76.1754 50.8524 75.883 50.0051C75.1988 48.0221 75.4176 45.7893 74.9021 43.7781C74.2663 41.2974 73.4725 38.8449 72.8278 36.3574C72.0131 33.2138 71.8032 29.9137 71.0269 26.7428C70.1626 23.2128 69.4321 19.6646 68.4541 16.1603C68.0266 14.6286 67.3895 10.8698 65.7527 10.1269C62.8339 8.80221 59.9459 14.6178 59.2886 16.4829C58.1744 19.6446 58.8705 23.84 58.8705 27.1461C58.8705 31.616 59.2241 35.7466 60.0926 40.1323C61.2264 45.8576 63.1135 51.5417 64.9326 57.087Z" fill="#AFAFAF" stroke="black" stroke-width="2" stroke-linecap="round"/>
<path d="M66.9327 76.1527C66.8006 75.2679 67.598 73.6063 68.157 72.9323C68.5751 72.5198 68.9311 71.927 69.416 71.5999C69.8264 71.3231 70.2392 71.0289 70.6576 70.7722C70.8187 70.6733 71.3108 70.4495 71.4853 70.3583C71.9995 70.0897 72.5717 69.9799 73.1408 69.9445C73.9686 69.9445 73.9686 69.9445 74.7963 70.3583C75.3707 70.4467 75.9536 70.7934 76.4852 71.0399C77.3048 71.4198 77.9769 72.2183 78.5917 72.86C79.2579 73.5554 79.7107 74.5387 79.8854 75.4852C79.9473 75.8206 79.892 76.2254 79.8854 76.5666C79.8755 77.0785 79.7701 77.57 79.527 78.0096C79.1941 78.6117 79.0057 79.3994 78.5212 79.8775C78.1206 80.2728 77.7232 80.771 77.2795 81.1192C76.3848 81.8213 75.064 82.0705 73.9723 82.4097C73.2125 82.6457 72.532 82.7175 71.4852 82.3607C70.3057 81.9588 69.163 81.4092 68.3597 80.4635C67.7127 79.7018 67.1189 79.0498 66.9327 77.8722C66.7265 77.305 67.0222 76.7521 66.9327 76.1527Z" fill="white" stroke="black" stroke-width="2" stroke-linecap="round"/>
<path d="M87.4071 68.5119C88.047 67.9205 89.6189 67.3678 90.5343 67.1079C91.6882 66.9541 92.1789 67.0478 93.2072 67.1447C94.2483 67.4618 95.6386 67.1079 97.5337 69.945C99.2148 73.256 98.6707 73.6676 98.5243 74.8911C98.388 76.0299 98.1462 77.1774 97.5337 78.1575C97.042 78.9441 96.3711 79.6452 95.6386 80.2143C94.7546 80.901 93.7468 80.9592 92.671 80.9592C91.422 80.9592 90.2682 80.624 89.0976 80.2143C88.1604 79.8863 87.2886 79.4245 86.5885 78.708C85.7759 77.8764 85.444 76.6246 85.2193 75.5112C85.1039 74.9389 85.1464 74.3227 85.1743 73.743C85.1966 73.2789 85.1999 72.8477 85.3217 72.3963C85.6001 71.3644 86.0555 70.3493 86.6458 69.4574C86.8669 69.1233 87.1119 68.7847 87.4071 68.5119Z" fill="white" stroke="black" stroke-width="2" stroke-linecap="round"/>
<path d="M73.1509 70.9458C73.3639 71.0872 73.5813 71.2213 73.7403 71.4253C73.8091 71.5135 73.874 71.6048 73.9387 71.696C74.0161 71.805 74.0726 71.9251 74.1361 72.042C74.212 72.1817 74.2759 72.3275 74.3279 72.4782C74.3875 72.6507 74.4673 72.817 74.5084 72.9953C74.5992 73.3886 74.5782 73.799 74.5723 74.2005C74.5686 74.4567 74.4916 74.7114 74.437 74.9602C74.3721 75.2556 74.2756 75.546 74.1794 75.8326C74.0676 76.1654 73.8812 76.4795 73.6078 76.6994C73.4271 76.8447 73.2376 76.975 73.0531 77.1149C72.8637 77.2586 72.6679 77.4033 72.4514 77.5041C72.0463 77.693 71.6183 77.8124 71.1954 77.9516C70.8726 78.0579 70.5434 78.112 70.2083 78.1679C69.8552 78.2267 69.5061 78.3016 69.1478 78.3202C69.0002 78.3278 68.8518 78.3239 68.7041 78.3239C68.6438 78.3239 68.5942 78.3067 68.5856 78.3822C68.5675 78.5404 68.6316 78.6961 68.7078 78.8297C68.8911 79.151 69.0834 79.464 69.317 79.7511C69.8406 80.3945 70.4381 81.1152 71.2255 81.4414C71.3973 81.5126 71.5949 81.5581 71.7783 81.5824C71.954 81.6057 72.1074 81.6564 72.2747 81.7122C72.3125 81.7248 72.343 81.7388 72.3762 81.7554C72.3762 81.7554 72.3425 81.5547 72.3386 81.5392C72.2718 81.2722 72.2201 81.0039 72.2201 80.7269C72.2201 80.2959 72.3506 79.8883 72.4458 79.4728C72.5626 78.9629 72.6654 78.4455 72.8162 77.9441C72.9428 77.523 73.0643 77.1059 73.337 76.7539C73.5902 76.4272 73.9138 76.2116 74.2941 76.0526C74.764 75.8561 75.2737 75.8581 75.7682 75.7687C76.2269 75.6857 76.6999 75.6783 77.1652 75.6841C77.2941 75.6856 77.3972 75.7305 77.5131 75.7818C77.6637 75.8486 77.8191 75.905 77.97 75.9717C77.9933 75.982 78.2224 76.1084 78.2407 76.0864C78.2831 76.0356 78.2486 75.7765 78.237 75.7141C78.1407 75.1975 77.6787 74.8094 77.325 74.46C77.1265 74.2639 76.9156 74.0651 76.7591 73.8339C76.6288 73.6414 76.5301 73.4258 76.3962 73.2341C76.3811 73.2125 76.2568 72.9968 76.2213 73.0178C76.1972 73.0322 75.6253 70.9458 76.18 73.0912C76.123 73.2058 76.0655 73.3198 76.0013 73.4306C75.8872 73.6276 75.7563 73.8151 75.6253 74.0012C75.4292 74.2799 75.2775 74.5689 75.1063 74.8624C74.8888 75.2353 74.6458 75.5927 74.4031 75.9492C74.1124 76.3763 73.8465 76.8161 73.5401 77.2334C73.2544 77.6224 72.9362 77.9923 72.6169 78.354C72.3479 78.6587 72.0876 78.9614 71.7689 79.2152C71.5688 79.3745 71.4062 79.574 71.1992 79.7247C71.0424 79.8389 70.9256 79.9931 70.778 80.1177C70.643 80.2316 70.5307 80.3712 70.4095 80.4994C70.3785 80.5321 70.3086 80.7146 70.4113 80.6573C70.5592 80.575 70.7024 80.4664 70.8325 80.3584C70.8708 80.3266 70.918 80.3013 70.934 80.2531" stroke="black" stroke-width="2" stroke-linecap="round"/>
<path d="M91.9227 67.373C92.364 67.8517 92.781 68.2853 93.0027 68.8997C93.0873 69.1345 93.1486 69.3637 93.175 69.612C93.2259 70.091 93.1958 70.5903 93.0614 71.0519C92.863 71.7331 92.5664 72.3817 92.0619 72.8863C91.7861 73.1621 91.4664 73.3868 91.1339 73.5896C90.7341 73.8334 90.299 74.0936 89.8573 74.2508C89.2225 74.4768 88.5962 74.662 87.9349 74.7959C87.6607 74.8515 87.3926 74.95 87.1129 74.9733C87.0065 74.9822 86.9051 74.9923 86.8001 75.0116C86.7468 75.0215 86.6695 75.0084 86.6201 75.0295C86.4309 75.1106 87.3382 76.5601 87.4154 76.6979C87.6508 77.1183 87.8137 77.5813 87.9885 78.0293C88.0465 78.1779 88.1048 78.327 88.1507 78.4799C88.1563 78.4987 88.1545 78.3731 88.1545 78.3535C88.1545 77.7075 88.1007 77.0383 88.1762 76.3966C88.184 76.3303 88.3105 76.7174 88.3204 76.7579C88.4425 77.2543 88.5498 77.7536 88.6779 78.2488C88.7652 78.5867 88.8778 78.8903 89.0046 79.2075C89.1091 79.4687 89.3571 79.6736 89.551 79.8675C89.6542 79.9707 89.692 79.6557 89.7067 79.593C89.7755 79.2998 89.9004 79.0205 90.0029 78.7377C90.1656 78.2886 90.3084 77.8337 90.516 77.4012C90.6313 77.161 90.7013 76.9022 90.8096 76.6596C90.9049 76.4461 91.0165 76.2327 91.1198 76.0226C91.371 75.5119 91.6131 74.9808 91.9202 74.501C92.1848 74.0875 92.4968 73.7191 92.9005 73.4339C93.4746 73.0283 94.1518 72.8706 94.8459 72.8441C95.1649 72.832 95.4866 72.8387 95.8059 72.8416C95.9898 72.8432 96.149 72.8607 96.3165 72.9335C96.537 73.0294 96.7846 73.1511 96.9662 73.3113C97.0574 73.3918 97.2098 73.4758 97.3223 73.5258C97.3933 73.5573 97.3887 73.2346 97.39 73.1952C97.3992 72.9044 97.4238 72.5821 97.3645 72.2965C97.2795 71.8877 97.104 71.5137 96.9368 71.1336C96.7017 70.5991 96.4323 70.0463 96.1071 69.561C95.964 69.3474 95.8081 69.1559 95.622 68.9802C95.5391 68.9019 95.4249 68.7489 95.3131 68.7083C95.1878 68.6627 94.0424 68.8126 94.0375 68.874C93.9975 69.3748 95.0713 70.374 95.0527 70.8758C95.0427 71.1459 95.0017 71.418 95.0017 71.6876C95.0017 71.7615 94.9789 71.8125 94.9429 71.8778C94.8412 72.0628 94.6662 72.167 94.4859 72.2672C94.0867 72.4889 93.6694 72.6677 93.2503 72.8467C92.8125 73.0336 92.3956 73.2087 92.0466 73.5322C91.6814 73.8706 91.3757 74.2816 91.0394 74.6491C90.8926 74.8095 90.7385 74.9613 90.5888 75.1189C90.4103 75.3067 90.2707 75.5035 90.0641 75.6652C89.9161 75.7811 89.7823 75.9141 89.625 76.0175C89.5265 76.0823 89.3974 76.1653 89.3263 76.2601C89.2766 76.3264 89.1656 76.4834 89.0966 76.5179" stroke="black" stroke-width="2" stroke-linecap="round"/>
<path d="M59.9406 8.06001C60.1158 7.72788 60.3114 7.0354 61.0317 6.60518C61.752 6.17507 62.2671 6.42332 62.8704 6.42332H64.5576C65.0883 6.42332 66.192 6.40076 66.5782 6.78703C67.1312 7.33996 67.8752 7.83186 68.3463 8.47423C69.2488 9.70495 70.2654 10.8705 71.1195 12.1517C71.2972 12.4182 71.4169 12.8437 71.5085 13.1519C71.5956 13.4451 71.805 13.6831 71.9025 13.9703C72.168 14.7521 72.4954 15.5112 72.7613 16.294C74.3285 20.9086 74.8308 25.8082 75.2618 30.6352C75.522 33.5495 75.6709 36.4933 75.6709 39.4197C75.6709 40.3975 72.7481 40.2201 72.1197 40.2987C70.6653 40.4805 69.2045 40.43 67.7401 40.43C65.3781 40.43 63.0495 40.3868 60.6932 40.2482C60.1244 40.2147 58.2066 40.2441 57.92 39.7026C57.8012 39.4782 57.6759 39.2825 57.6674 38.9752C57.5348 34.2011 57.5764 29.4146 57.5764 24.634C57.5764 21.4325 57.3647 18.162 57.8038 14.9907C58.0546 13.1791 58.7169 11.5953 59.2333 9.85834C59.4212 9.22645 59.6342 8.6405 59.9406 8.06001Z" fill="#6C11A4" stroke="black" stroke-width="2" stroke-linecap="round"/>
<path d="M87.0263 13.6171C87.1561 13.4687 89.4492 10.816 89.6733 11.1521L90.5118 11.152C90.7603 11.152 91.3156 11.1623 91.5423 11.2631C92.2018 11.5562 92.7414 12.2702 93.2396 12.7684C93.9169 13.4458 94.4812 14.1314 94.9672 14.9709C95.0777 15.1618 95.2948 15.2691 95.4017 15.4659C95.5375 15.7161 95.6008 15.9609 95.6946 16.2237C95.8521 16.6645 96.0804 17.2359 96.316 17.6482C96.6151 18.1717 96.6565 18.7135 96.806 19.2899C96.9968 20.0259 97.1175 20.7784 97.2707 21.5227C97.6045 23.144 97.8519 24.776 98.1497 26.3974C98.3007 27.2199 98.5689 28.1298 98.5841 28.9636C98.5986 29.7605 98.5147 30.6602 98.766 31.4287C99.125 32.5271 99.2206 34.0099 99.2206 35.1617V37.2026C99.2206 37.6827 99.4377 38.5368 98.9428 38.7534C97.9677 39.18 97.0388 39.3463 96.0331 39.6576C93.0277 40.5878 89.7534 40.4305 86.6474 40.4305H84.2681C83.4682 40.4305 82.6509 40.6646 81.8687 40.6376C81.5986 40.6283 81.6338 39.7846 81.5807 39.6121C81.3616 38.8998 81.3989 37.9725 81.3989 37.2278V34.4091C81.3989 31.6445 81.8473 28.8633 82.49 26.1852C82.9319 24.3439 83.1426 22.47 83.8489 20.7043C84.3148 19.5396 84.6941 18.285 85.0915 17.0925C85.4824 15.9199 86.2199 14.5387 87.0263 13.6171Z" fill="#6C11A4" stroke="black" stroke-width="2" stroke-linecap="round"/>
<circle cx="61.9665" cy="4.96648" r="3.96648" fill="#FFFF00" stroke="black" stroke-width="2"/>
<circle cx="91.7653" cy="10.7609" r="3.96648" fill="#FFFF00" stroke="black" stroke-width="2"/>
<path d="M84.2703 26.1028C84.0756 25.6362 83.3255 25.0128 82.9631 24.6504C82.7905 24.9093 82.873 25.3361 82.873 25.632C82.873 26.3378 82.8844 27.0448 82.873 27.7505C82.8586 28.6414 82.5688 29.5088 82.4222 30.3798C82.168 31.8908 82.2522 33.4247 81.9715 34.9272C81.862 35.5136 81.9264 36.1508 81.9264 36.7452C81.9264 36.8463 81.8292 37.5125 82.0616 37.3963C82.2812 37.2865 82.4457 37.0341 82.6576 36.9005C82.9755 36.7001 83.1931 36.3816 83.514 36.1793C84.2283 35.729 84.7792 35.0826 85.3771 34.4965C85.5393 34.3375 85.7171 34.3547 85.8729 34.5015C86.1059 34.7212 86.4903 34.7476 86.7593 34.9372C86.9184 35.0494 87.0709 35.1556 87.2451 35.2427C87.4301 35.3352 87.5637 35.4973 87.7409 35.5933C87.9758 35.7205 88.3602 35.7162 88.6224 35.7836C89.0024 35.8813 89.3553 36.0096 89.7042 36.1893C89.7622 36.2192 90.1525 36.465 90.0948 36.3495C90.0318 36.2235 90.0231 36.0707 89.9496 35.9539C89.8527 35.8 89.7874 35.6256 89.7192 35.4581C89.496 34.9104 89.1698 34.404 88.8878 33.8855C88.6078 33.3706 88.3248 32.8557 88.0364 32.3455C87.8941 32.0937 87.6626 31.8606 87.6157 31.5667C87.5778 31.3288 87.7798 31.1496 87.9212 30.9707C88.9483 29.6718 90.2109 28.4977 91.0413 27.0393C91.2398 26.6908 91.3919 26.4179 91.3919 26.0101C91.3919 25.9284 91.4497 25.6259 91.3018 25.652C91.0279 25.7004 90.7904 25.7963 90.5055 25.8323C89.0909 26.0112 87.6862 26.4779 86.4588 27.1996C86.0482 27.441 85.664 27.693 85.317 28.0184C85.1852 28.142 85.2259 28.1029 85.1267 28.0409C85.0283 27.9795 84.9809 27.7453 84.9364 27.6478C84.703 27.1375 84.4863 26.6205 84.2703 26.1028Z" fill="#FFFF00" stroke="black" stroke-width="2" stroke-linecap="round"/>
<path d="M71.1087 14.8941C71.2645 14.5881 71.4268 13.9386 71.7865 13.8291C72.2812 15.8487 72.7774 17.868 73.2691 19.8884C73.3271 20.1264 73.3945 20.3724 73.4395 20.6158C73.5041 20.9653 73.5516 21.3203 73.6087 21.6714C73.6847 22.1387 73.7123 22.6127 73.786 23.0791C73.8298 23.3571 73.817 23.6387 73.817 23.9194V24.4904C73.817 24.6392 73.7735 24.8694 73.8585 24.9968C73.6156 24.9968 73.0115 24.332 72.794 24.2169C72.541 24.0829 72.3615 24.019 72.0778 24.019C71.9617 24.019 71.8982 24.1115 71.8099 24.1743C71.4835 24.4065 71.1971 24.7141 70.8934 24.9756C70.463 25.346 70.067 25.699 69.6013 26.0273C69.2113 26.3022 68.8807 26.7314 68.4694 26.9639C68.445 26.9777 68.4878 26.3893 68.4919 26.3378C68.531 25.8494 68.6245 25.3663 68.6297 24.8654C68.6361 24.2389 68.7723 23.3662 68.4919 22.782C68.2341 22.2448 67.7754 21.8484 67.3576 21.4398C67.0666 21.1553 66.7196 20.9258 66.416 20.6535C65.8329 20.1304 65.328 19.5203 64.8635 18.8906C64.7916 18.7932 64.4605 18.3202 64.7132 18.2922C65.0159 18.2585 65.3093 18.2556 65.6147 18.2471C66.2024 18.2308 66.7904 18.1587 67.3776 18.1244C67.9521 18.0908 68.5277 18.1077 69.1029 18.0718C69.2795 18.0608 69.5031 18.1149 69.6463 17.9791C70.0241 17.6212 70.1599 16.9562 70.36 16.4967C70.5969 15.9527 70.8393 15.4233 71.1087 14.8941Z" fill="#FFFF00" stroke="black" stroke-width="2" stroke-linecap="round"/>
<path d="M58.7738 30.9155C58.5805 30.9323 58.0397 30.8159 57.844 30.8159C57.6852 33.1581 57.8281 35.7282 57.8281 38.0765L57.8281 39.3181C57.8281 39.4206 58.0994 39.7201 58.2421 39.732C58.6708 39.7677 58.4167 39.5544 58.8457 39.6021C59.9906 39.7293 61.162 39.7015 62.3124 39.7015C63.3082 39.7015 64.3041 39.6975 65.2999 39.7015C65.8081 39.7035 66.3097 39.788 66.8161 39.788C66.8161 39.3181 66.5194 38.9042 65.8128 38.4428C65.6473 38.2589 65.5211 37.9592 65.3295 37.8118C65.0082 37.5646 64.7726 37.1998 64.4856 36.9128C63.8778 36.305 63.1639 35.6756 62.8254 34.867C62.6745 34.5064 62.8228 34.2316 62.9957 33.9254C63.3386 33.3179 63.7514 32.7485 64.1376 32.1675C64.5407 31.5611 65.0926 30.9101 65.3546 30.2194C65.4018 30.0948 65.3846 29.9493 65.3846 29.8187C65.3846 29.6871 65.1451 29.7607 65.0741 29.7711C63.8058 29.9583 62.5629 30.3187 61.3029 30.5549C60.4661 30.7118 59.6223 30.8417 58.7738 30.9155Z" fill="#FFFF00" stroke="black" stroke-width="2" stroke-linecap="round"/>
<path d="M78.0497 89.4999C78.3918 87.9698 78.3993 86.5835 79.2766 85.2634C79.4201 85.0474 79.7727 84.4655 80.1294 84.4704C80.4562 84.4749 80.6304 84.7421 80.8272 84.9604C81.2258 85.4028 81.7069 85.7658 82.0904 86.2211C82.5042 86.7122 82.8516 87.256 83.1713 87.8071C83.2446 87.9334 83.1894 87.9646 83.2853 87.7091C83.559 86.9803 83.8915 86.2808 84.3023 85.6153C84.7276 84.9264 85.1806 84.1976 85.7435 83.6061C85.8889 83.4533 86.2419 83.0072 86.5051 83.027C86.749 83.0453 87.0044 83.5138 87.1162 83.6819C87.5097 84.2729 87.8524 84.911 88.1287 85.5618C88.4933 86.4209 88.7645 87.3182 88.9861 88.2214C89.095 88.6654 89.1421 89.1033 89.2232 89.5489C89.2616 89.7595 89.4347 89.7821 89.1961 89.7821C88.4545 90.1443 88.49 90.1846 87.9919 90.8364C87.6821 91.2416 87.2476 91.5358 86.8289 91.8254C86.2854 92.2013 85.7091 92.5909 85.0868 92.8322C84.3351 93.1236 83.5705 93.2671 82.77 93.3534C82.437 93.3893 81.8422 93.4897 81.5614 93.2465C81.2509 92.9775 80.8745 92.7924 80.5353 92.5604C79.7165 92.0006 79.0157 91.2782 78.442 90.48C78.3716 90.3821 77.8313 89.6752 78.0497 89.4999Z" fill="#FF0000"/>
<path d="M78.0497 89.4999C78.3918 87.9698 78.3993 86.5835 79.2766 85.2634C79.4201 85.0474 79.7727 84.4655 80.1294 84.4704C80.4562 84.4749 80.6304 84.7421 80.8272 84.9604C81.2258 85.4028 81.7069 85.7658 82.0904 86.2211C82.5042 86.7122 82.8516 87.256 83.1713 87.8071C83.2446 87.9334 83.1894 87.9646 83.2853 87.7091C83.559 86.9803 83.8915 86.2808 84.3023 85.6153C84.7276 84.9264 85.1806 84.1976 85.7435 83.6061C85.8889 83.4533 86.2419 83.0072 86.5051 83.027C86.749 83.0453 87.0044 83.5138 87.1162 83.6819C87.5097 84.2729 87.8524 84.911 88.1287 85.5618C88.4933 86.4209 88.7645 87.3182 88.9861 88.2214C89.095 88.6654 89.1421 89.1033 89.2232 89.5489C89.2616 89.7595 89.4347 89.7821 89.1961 89.7821M78.0497 89.4999C78.1839 89.3923 78.744 89.4821 78.8843 89.4821C81.5254 89.4821 84.1723 89.45 86.8107 89.589C87.534 89.6272 88.4714 89.7821 89.1961 89.7821M78.0497 89.4999C77.8313 89.6752 78.3716 90.3821 78.442 90.48C79.0157 91.2782 79.7165 92.0006 80.5353 92.5604C80.8745 92.7924 81.2509 92.9775 81.5614 93.2465C81.8422 93.4897 82.437 93.3893 82.77 93.3534C83.5705 93.2671 84.3351 93.1236 85.0868 92.8322C85.7091 92.5909 86.2854 92.2013 86.8289 91.8254C87.2476 91.5358 87.6821 91.2416 87.9919 90.8364C88.49 90.1846 88.4545 90.1443 89.1961 89.7821" stroke="black" stroke-width="2" stroke-linecap="round"/>
<path d="M114.278 67.6008L115.053 67.391L116.27 70.0479L117.198 69.7967C117.405 69.7405 117.481 69.6087 117.425 69.4014L117.058 68.6751C117.052 68.0128 117.331 67.6056 117.892 67.4535C118.229 67.4715 118.468 67.7388 118.607 68.2554L118.859 69.1829L119.475 69.0159L120.291 68.9588L119.999 67.8785C119.849 67.3243 119.956 66.9067 120.321 66.6257L120.943 66.4572L121.767 68.893C122.437 71.3664 121.637 72.9104 119.367 73.5252L119.062 73.6079C118.04 73.8847 117.024 73.6075 116.014 72.7763C115.016 71.1403 114.409 69.9208 114.191 69.1177L113.94 68.1902C113.9 68.0432 114.013 67.8467 114.278 67.6008ZM119.555 71.1493L119.681 71.613C120.367 71.2774 120.673 70.9739 120.6 70.7024L120.474 70.2387C119.799 70.6157 119.493 70.9193 119.555 71.1493ZM117.154 71.4719C117.256 71.6708 117.57 71.8063 118.095 71.8785C118.033 71.6485 118.028 71.4293 118.081 71.2207L117.154 71.4719ZM119.735 74.2571L120.51 74.0473C121.011 75.0893 121.35 75.9384 121.528 76.5944L121.839 76.5102C122.269 76.3937 122.822 76.1891 123.5 75.8964C124.052 75.8884 124.352 75.973 124.4 76.1503L124.442 76.303L124.423 77.4674L120.707 78.4739C118.751 79.0039 117.703 79.0125 117.564 78.4997C117.445 78.0624 117.553 77.6448 117.886 77.2469L119.015 77.1111L119.942 76.8599L119.523 75.3103C119.419 74.6746 119.49 74.3235 119.735 74.2571ZM122.807 65.2908L123.581 65.0809L124.799 67.7379L125.726 67.4866C125.934 67.4305 126.009 67.2987 125.953 67.0913L125.586 66.3651C125.581 65.7028 125.859 65.2956 126.421 65.1434C126.758 65.1615 126.996 65.4288 127.136 65.9453L127.387 66.8728L128.004 66.7059L128.82 66.6487L128.527 65.5685C128.377 65.0142 128.485 64.5966 128.85 64.3156L129.472 64.1471L130.295 66.5829C130.965 69.0563 130.165 70.6004 127.896 71.2152L127.59 71.2979C126.569 71.5747 125.553 71.2974 124.542 70.4662C123.545 68.8303 122.937 67.6108 122.72 66.8077L122.468 65.8802C122.429 65.7331 122.541 65.5367 122.807 65.2908ZM128.084 68.8392L128.209 69.303C128.896 68.9674 129.202 68.6639 129.128 68.3924L129.003 67.9286C128.328 68.3057 128.022 68.6092 128.084 68.8392ZM125.682 69.1619C125.785 69.3608 126.099 69.4963 126.624 69.5685C126.562 69.3385 126.557 69.1192 126.61 68.9107L125.682 69.1619ZM128.264 71.9471L129.039 71.7372C129.54 72.7793 129.879 73.6283 130.056 74.2844L130.368 74.2001C130.797 74.0837 131.351 73.8791 132.028 73.5863C132.581 73.5784 132.881 73.663 132.929 73.8402L132.97 73.9929L132.952 75.1574L129.236 76.1638C127.279 76.6938 126.231 76.7025 126.093 76.1897C125.974 75.7523 126.081 75.3347 126.415 74.9368L127.544 74.8011L128.471 74.5499L128.051 73.0002C127.948 72.3645 128.019 72.0135 128.264 71.9471ZM132.922 62.7209L133.386 62.5953C134.147 62.389 134.602 62.4318 134.75 62.7236C134.805 62.9272 134.841 63.4718 134.859 64.3575C136.051 65.0989 136.668 65.5388 136.71 65.6773L136.835 66.1411C136.739 66.6082 136.486 66.8974 136.075 67.0087C135.289 66.5579 134.868 66.2307 134.813 66.027L134.502 66.1113C134.658 66.6882 134.449 67.1315 133.873 67.4412C133.564 67.525 133.259 67.221 132.958 66.5295C133.127 65.1077 133.19 64.3157 133.146 64.1535L132.994 64.1949C132.841 64.3495 132.648 64.4584 132.414 64.5218L131.798 64.6887C131.651 64.7286 131.454 64.6158 131.208 64.3506C131.012 63.6267 131.584 63.0834 132.922 62.7209ZM137.881 62.0455C138.333 61.923 138.712 62.0956 139.017 62.5635L139.115 63.5324C140.467 64.1617 141.211 64.4579 141.347 64.4212L141.557 65.196C141.605 65.3732 141.389 65.5977 140.908 65.8696L138.87 65.0921C138.973 65.9505 138.674 66.4747 137.973 66.6647C137.825 66.7045 137.629 66.5918 137.383 66.3265C137.29 65.9834 137.323 65.0901 137.483 63.6467C137.289 63.7841 136.751 64.0391 135.869 64.4116C135.54 64.4237 135.279 64.2739 135.085 63.9622C135.12 63.1797 136.052 62.5408 137.881 62.0455ZM138.445 67.1984L139.261 67.1412L139.512 68.0687L139.875 68.8022L140.497 68.6337L142.082 68.3682L142.334 69.2957C142.353 69.6222 141.982 69.8887 141.221 70.0949L137.205 71.1826C136.982 71.1945 136.706 70.9919 136.379 70.5747C136.373 70.2849 136.56 69.959 136.94 69.5972L138.331 69.2204L137.954 67.8291C137.912 67.6745 138.076 67.4643 138.445 67.1984ZM140.239 71.3564L140.703 71.2308C141.732 70.952 142.414 71.4309 142.749 72.6676C142.821 72.9316 143.064 73.4181 143.478 74.1274L142.982 74.7596L142.518 74.8852C142.141 74.9874 141.675 74.2839 141.121 72.7748L140.346 72.9846L139.618 73.3457L139.577 73.193L139.307 73.4299C138.869 73.4394 138.579 73.1859 138.439 72.6694L138.357 72.364C138.937 71.8751 139.564 71.5392 140.239 71.3564Z" fill="black"/>
<path d="M51.8778 105.277C53.4794 105.683 54.2804 106.699 54.2807 108.324L54.2807 108.64C54.2809 109.788 53.7479 110.484 52.6815 110.726L52.8398 111.048L52.84 112.168L53.8009 112.167C54.7619 112.167 55.2424 112.648 55.2426 113.609C54.9223 113.609 54.7622 113.716 54.7622 113.931C53.6958 113.822 52.895 113.767 52.3598 113.767L49.9575 113.768C49.3833 113.768 49.0102 113.555 48.8382 113.129L48.8381 112.649C48.8381 112.293 49.6388 112.08 51.2403 112.01L51.2403 111.687C51.2402 111.445 51.1875 111.232 51.082 111.049C51.1874 110.842 51.2401 110.682 51.2401 110.568C49.9587 110.01 49.3179 108.942 49.3176 107.364C49.7275 105.973 50.4207 105.277 51.3973 105.277L51.8778 105.277ZM50.9172 107.199L50.9172 107.363C50.9174 108.199 51.2378 108.785 51.8785 109.121L52.3589 109.121C52.5738 109.121 52.6812 109.015 52.6812 108.804L52.6809 107.363L51.8781 107.199L50.9172 107.199ZM50.2799 114.729L52.5241 114.728C53.4303 114.728 54.2311 114.888 54.9265 115.208L54.9266 115.853L55.085 116.65L54.9268 116.65L55.085 116.972L55.0852 117.61C55.0853 118.571 54.2319 119.052 52.5249 119.052L51.3998 118.894L51.4 119.855L53.1637 119.855C53.4293 119.855 53.9098 119.962 54.6052 120.177L54.6053 120.816C54.6054 121.351 53.6972 121.619 51.8808 121.619C50.4941 121.322 49.8006 120.735 49.8004 119.856L49.8002 118.572C49.8 117.721 50.2277 117.295 51.0831 117.295L51.88 117.295C52.1222 117.295 52.3371 117.347 52.5246 117.453C52.7003 117.347 52.966 117.294 53.3214 117.294L53.3213 116.492L50.7607 116.492C50.1201 116.492 49.7997 116.172 49.7996 115.531L49.7995 115.209C49.7995 115.057 49.9596 114.897 50.2799 114.729ZM63.1163 106.716L63.2745 106.716L64.0773 106.88C64.0776 108.693 64.3434 109.599 64.8747 109.599L65.1969 109.441C66.3727 109.714 66.9607 110.034 66.9608 110.401L66.9608 110.559C66.7109 111.024 66.4433 111.292 66.1582 111.362C66.5841 112.171 66.7971 112.706 66.7972 112.968C66.5553 114.569 65.8093 115.37 64.5593 115.37L64.2371 115.37C62.741 115.371 61.9928 114.463 61.9924 112.646C61.9923 112.111 62.1524 111.844 62.4727 111.843L62.4727 111.527L61.6758 111.685L61.1954 111.686C61.1953 111.518 61.0879 111.303 60.873 111.041L60.873 110.883C61.1189 110.137 61.7595 109.764 62.7946 109.763C62.5797 109.302 62.4721 108.447 62.4719 107.197L63.1163 106.716ZM72.0815 108.637C72.937 108.636 73.3649 109.545 73.3652 111.361C73.5059 111.361 73.6662 112.322 73.8462 114.244C73.8464 115.205 73.4735 115.685 72.7274 115.685L72.5633 115.685C72.243 115.685 72.0299 114.832 71.9242 113.125L70.805 113.283L70.8054 115.205C70.8055 115.779 70.5907 116.154 70.1611 116.33L70.0029 116.33C69.3623 116.33 69.0419 115.956 69.0417 115.206L69.1999 115.205L69.0417 114.889C69.0415 113.725 68.8282 111.961 68.402 109.598C68.5503 109.067 68.9233 108.801 69.521 108.801L69.6792 108.801C69.6792 108.961 69.8394 109.174 70.1598 109.44C70.1598 109.545 70.1071 109.598 70.0016 109.598C70.3221 110.375 70.4824 111.018 70.4824 111.526L70.8047 111.525C71.0938 111.525 71.4141 111.418 71.7656 111.203C71.5507 110.723 71.4431 110.027 71.4429 109.117L71.4429 108.959C71.6109 108.959 71.8237 108.851 72.0815 108.637ZM63.9142 112.165L63.7561 112.488L63.9145 113.607L64.2367 113.607L65.0394 113.448L65.0394 112.968C64.9768 112.71 64.6018 112.443 63.9142 112.165ZM76.751 106.556C78.7784 106.555 79.7923 107.676 79.7927 109.918C79.7929 110.961 79.045 111.655 77.5489 111.999C76.0997 111.999 75.1386 110.986 74.6656 108.958C74.6654 107.896 75.2004 107.148 76.2706 106.714C76.5909 106.714 76.7511 106.661 76.751 106.556ZM76.271 108.794C76.5055 109.462 76.9314 109.997 77.5486 110.399C77.9783 110.239 78.1931 110.079 78.1931 109.919L78.193 109.596C78.1929 108.78 77.9779 108.3 77.5482 108.155L76.7513 108.155C76.4818 108.155 76.3217 108.368 76.271 108.794ZM83.642 108.312L83.8002 108.312C84.0971 108.312 84.3648 109.328 84.6035 111.359L84.4394 111.359C84.8697 114.167 85.0848 115.771 85.0849 116.169C84.6709 116.49 84.3506 116.65 84.124 116.65C83.4834 116.65 83.1629 115.527 83.1625 113.281C82.9472 111.094 82.7321 109.758 82.5172 109.273C82.5171 108.633 82.892 108.312 83.642 108.312ZM78.1938 113.762L78.5102 113.926L79.1547 113.762C80.5415 113.844 81.2349 113.951 81.2349 114.084L81.3991 114.723C81.3991 115.152 81.0242 115.475 80.2742 115.69L78.6746 115.526L77.3914 115.526L76.2723 115.69C76.2723 115.581 76.2176 115.526 76.1082 115.526C76.1082 115.636 76.0555 115.691 75.95 115.691C75.95 115.476 75.6296 115.261 74.989 115.046L74.9888 114.408C74.9888 114.251 75.1489 114.091 75.4692 113.927L77.2329 113.927L78.1938 113.762ZM92.794 106.553C94.8214 106.552 95.8352 107.673 95.8357 109.915C95.8359 110.958 95.0879 111.652 93.5919 111.996C92.1427 111.996 91.1816 110.983 90.7085 108.955C90.7083 107.893 91.2433 107.145 92.3136 106.711C92.6339 106.711 92.794 106.658 92.794 106.553ZM92.314 108.791C92.5485 109.459 92.9743 109.994 93.5916 110.396C94.0213 110.236 94.2361 110.076 94.2361 109.916L94.236 109.593C94.2358 108.777 94.0209 108.297 93.5912 108.152L92.7943 108.152C92.5248 108.152 92.3647 108.365 92.314 108.791ZM99.685 108.309L99.8432 108.309C100.14 108.309 100.408 109.325 100.646 111.356L100.482 111.356C100.913 114.164 101.128 115.768 101.128 116.166C100.714 116.487 100.394 116.647 100.167 116.647C99.5264 116.647 99.2059 115.524 99.2054 113.278C98.9902 111.091 98.7751 109.755 98.5601 109.27C98.56 108.63 98.935 108.309 99.685 108.309ZM94.2368 113.759L94.5532 113.923L95.1977 113.759C96.5844 113.841 97.2778 113.948 97.2779 114.081L97.442 114.72C97.4421 115.149 97.0672 115.472 96.3172 115.687L94.7176 115.523L93.4344 115.523L92.3153 115.687C92.3152 115.578 92.2605 115.523 92.1512 115.523C92.1512 115.633 92.0985 115.688 91.993 115.688C91.993 115.473 91.6726 115.258 91.0319 115.043L91.0318 114.405C91.0318 114.248 91.1919 114.088 91.5122 113.924L93.2759 113.924L94.2368 113.759ZM104.513 105.584L104.829 105.584C106.755 106.216 107.718 107.179 107.718 108.472L107.877 109.591C107.482 110.981 106.787 111.677 105.791 111.677L105.311 111.677C103.533 111.678 102.412 110.502 101.947 108.15L101.947 107.67C101.946 106.502 102.802 105.807 104.513 105.584ZM110.442 106.385L110.759 106.385C111.157 106.385 111.533 107.828 111.885 110.715C111.99 110.715 112.043 111.569 112.043 113.276L111.405 113.598C110.725 113.598 110.297 112.53 110.121 110.393C109.906 109.104 109.798 108.088 109.798 107.346L109.798 106.708C109.966 106.708 110.181 106.6 110.442 106.385ZM103.552 108.308C104.111 109.484 104.752 110.072 105.474 110.072C106.006 109.923 106.271 109.55 106.271 108.952C105.915 108.027 105.435 107.439 104.829 107.189L104.032 107.189C103.779 107.189 103.618 107.562 103.552 108.308ZM106.758 114.402L107.075 114.401C107.438 114.401 107.706 115.362 107.878 117.284L110.603 117.284C110.818 117.319 110.925 117.426 110.925 117.606L110.925 117.922C110.925 118.672 110.337 119.047 109.162 119.048C107.13 119.048 106.115 118.247 106.114 116.646L105.956 115.04L106.758 114.402Z" fill="black"/>
<path d="M222.397 105.277C223.999 105.683 224.8 106.699 224.8 108.324L224.8 108.64C224.8 109.788 224.267 110.484 223.201 110.726L223.359 111.048L223.36 112.168L224.32 112.167C225.281 112.167 225.762 112.648 225.762 113.609C225.442 113.609 225.282 113.716 225.282 113.931C224.215 113.822 223.415 113.767 222.879 113.767L220.477 113.768C219.903 113.768 219.53 113.555 219.358 113.129L219.358 112.649C219.358 112.293 220.158 112.08 221.76 112.01L221.76 111.687C221.76 111.445 221.707 111.232 221.601 111.049C221.707 110.842 221.76 110.682 221.76 110.568C220.478 110.01 219.837 108.942 219.837 107.364C220.247 105.973 220.94 105.277 221.917 105.277L222.397 105.277ZM221.437 107.199L221.437 107.363C221.437 108.199 221.757 108.785 222.398 109.121L222.878 109.121C223.093 109.121 223.201 109.015 223.201 108.804L223.2 107.363L222.398 107.199L221.437 107.199ZM220.799 114.729L223.044 114.728C223.95 114.728 224.751 114.888 225.446 115.208L225.446 115.853L225.605 116.65L225.446 116.65L225.605 116.972L225.605 117.611C225.605 118.572 224.751 119.052 223.044 119.052L221.919 118.894L221.92 119.855L223.683 119.855C223.949 119.855 224.429 119.962 225.125 120.177L225.125 120.816C225.125 121.351 224.217 121.619 222.4 121.619C221.014 121.322 220.32 120.735 220.32 119.856L220.32 118.573C220.32 117.721 220.747 117.295 221.603 117.295L222.4 117.295C222.642 117.295 222.857 117.347 223.044 117.453C223.22 117.347 223.485 117.295 223.841 117.295L223.841 116.492L221.28 116.492C220.64 116.492 220.319 116.172 220.319 115.531L220.319 115.209C220.319 115.057 220.479 114.897 220.799 114.729ZM233.636 106.716L233.794 106.716L234.597 106.88C234.597 108.693 234.863 109.599 235.394 109.599L235.716 109.441C236.892 109.714 237.48 110.034 237.48 110.401L237.48 110.56C237.23 111.024 236.963 111.292 236.678 111.362C237.104 112.171 237.317 112.706 237.317 112.968C237.075 114.569 236.329 115.37 235.079 115.371L234.757 115.371C233.261 115.371 232.512 114.463 232.512 112.646C232.512 112.111 232.672 111.844 232.992 111.844L232.992 111.527L232.195 111.686L231.715 111.686C231.715 111.518 231.607 111.303 231.393 111.041L231.392 110.883C231.638 110.137 232.279 109.764 233.314 109.763C233.099 109.303 232.992 108.447 232.991 107.197L233.636 106.716ZM242.601 108.637C243.457 108.637 243.884 109.545 243.885 111.361C244.025 111.361 244.186 112.322 244.366 114.244C244.366 115.205 243.993 115.685 243.247 115.685L243.083 115.685C242.763 115.685 242.549 114.832 242.444 113.125L241.325 113.283L241.325 115.205C241.325 115.779 241.11 116.155 240.681 116.33L240.522 116.33C239.882 116.331 239.561 115.956 239.561 115.206L239.719 115.206L239.561 114.889C239.561 113.725 239.348 111.962 238.922 109.598C239.07 109.067 239.443 108.801 240.041 108.801L240.199 108.801C240.199 108.961 240.359 109.174 240.679 109.44C240.679 109.545 240.627 109.598 240.521 109.598C240.842 110.375 241.002 111.018 241.002 111.526L241.324 111.526C241.613 111.526 241.934 111.418 242.285 111.203C242.07 110.723 241.963 110.027 241.962 109.117L241.962 108.959C242.13 108.959 242.343 108.852 242.601 108.637ZM234.434 112.166L234.276 112.488L234.434 113.607L234.756 113.607L235.559 113.449L235.559 112.968C235.496 112.71 235.121 112.443 234.434 112.166ZM247.271 106.556C249.298 106.555 250.312 107.676 250.312 109.918C250.312 110.961 249.565 111.655 248.068 111.999C246.619 111.999 245.658 110.986 245.185 108.958C245.185 107.896 245.72 107.148 246.79 106.714C247.11 106.714 247.271 106.661 247.271 106.556ZM246.791 108.794C247.025 109.462 247.451 109.997 248.068 110.399C248.498 110.239 248.713 110.079 248.713 109.919L248.713 109.596C248.712 108.78 248.497 108.3 248.068 108.155L247.271 108.155C247.001 108.155 246.841 108.368 246.791 108.794ZM254.162 108.312L254.32 108.312C254.617 108.312 254.884 109.328 255.123 111.359L254.959 111.359C255.389 114.167 255.604 115.771 255.604 116.169C255.19 116.49 254.87 116.65 254.644 116.65C254.003 116.65 253.682 115.527 253.682 113.281C253.467 111.094 253.252 109.758 253.037 109.273C253.037 108.633 253.412 108.312 254.162 108.312ZM248.713 113.762L249.03 113.926L249.674 113.762C251.061 113.844 251.754 113.951 251.754 114.084L251.919 114.723C251.919 115.153 251.544 115.475 250.794 115.69L249.194 115.526L247.911 115.526L246.792 115.691C246.792 115.581 246.737 115.527 246.628 115.527C246.628 115.636 246.575 115.691 246.47 115.691C246.47 115.476 246.149 115.261 245.508 115.046L245.508 114.408C245.508 114.251 245.668 114.091 245.989 113.927L247.752 113.927L248.713 113.762ZM262.03 104.947L262.188 104.947C262.594 104.947 262.915 105.963 263.15 107.994L264.755 107.83L265.874 107.83C266.058 107.83 266.273 107.081 266.518 105.585L267.479 105.585L267.638 106.71L267.638 107.349C267.638 110.341 266.891 111.837 265.395 111.837L263.953 111.838C262.563 111.838 261.867 111.198 261.867 109.916C261.656 109.244 261.443 107.961 261.228 106.067C261.376 105.426 261.643 105.053 262.03 104.947ZM270.843 105.749C271.163 106.416 271.323 106.897 271.323 107.19L271.165 107.19L271.323 107.512L271.165 107.829C271.271 108.036 271.324 108.196 271.324 108.309L271.165 108.309L271.324 108.631C271.324 108.737 271.271 108.789 271.166 108.79L271.324 109.592L271.324 110.875C271.324 111.516 271.004 111.836 270.363 111.837L270.205 111.837C270.092 111.837 269.877 111.569 269.56 111.034C269.56 110.921 269.615 110.761 269.724 110.553C269.724 110.491 269.67 109.798 269.56 108.473C269.56 106.657 269.987 105.749 270.843 105.749ZM263.631 109.594L263.314 109.594C263.377 110.023 263.803 110.238 264.592 110.238L265.072 110.238C265.717 110.238 266.039 109.97 266.039 109.435L265.875 109.435C264.968 109.541 264.22 109.594 263.631 109.594ZM268.6 113.12L268.922 113.12C269.778 113.12 270.206 113.868 270.206 115.364C269.815 116.751 269.12 117.444 268.12 117.444C267.722 117.554 267.241 117.609 266.679 117.609L266.679 117.767C266.745 118.087 267.173 118.247 267.962 118.247L270.042 118.247C270.042 118.36 270.097 118.52 270.206 118.727C269.777 119.583 269.134 120.011 268.279 120.011C266.849 120.011 265.781 119.531 265.074 118.57L265.073 117.609C265.073 116.433 266.089 115.845 268.12 115.845L268.6 115.364L268.6 115.042C268.6 114.827 268.493 114.72 268.278 114.72C266.579 114.935 265.618 115.043 265.395 115.043C264.755 114.937 264.434 114.777 264.434 114.562L264.434 113.924C264.754 113.654 264.914 113.439 264.914 113.279C265.121 113.388 265.282 113.443 265.395 113.443C266.914 113.228 267.983 113.12 268.6 113.12ZM276.473 105.425C277.223 105.425 277.651 106.654 277.757 109.111L277.757 109.591C277.758 110.103 276.797 110.478 274.875 110.717L274.717 111.033C274.783 111.674 274.943 111.994 275.197 111.994L276.639 111.994C277.815 111.993 278.403 112.261 278.403 112.796C278.403 113.437 277.655 113.812 276.159 113.921L275.836 113.757C275.629 113.867 275.469 113.922 275.356 113.922C274.524 113.922 273.828 113.334 273.27 112.158L273.269 110.875C273.269 109.484 274.177 108.789 275.994 108.789L276.158 108.789C276.072 107.722 275.911 107.189 275.677 107.189L275.355 107.189C273.484 107.404 272.523 107.512 272.472 107.512L272.15 107.032L272.15 106.709C272.149 105.854 273.057 105.426 274.874 105.426L276.473 105.425ZM282.726 106.707L283.37 107.668L283.37 107.99C283.37 108.096 283.316 108.149 283.206 108.149C283.206 108.254 283.261 108.307 283.371 108.307C283.371 108.522 283.316 108.629 283.207 108.629C283.316 109.883 283.371 110.791 283.371 111.354L283.371 113.117C283.371 113.27 283.211 113.43 282.891 113.598L282.727 113.598C282.086 113.598 281.766 113.118 281.766 112.157L281.766 111.196L279.522 111.513C278.986 111.341 278.719 111.021 278.719 110.552C278.718 109.806 279.361 109.432 280.646 109.432L281.607 109.432L281.607 107.991C281.685 107.135 282.058 106.707 282.726 106.707ZM279.042 114.401C279.577 114.55 279.844 114.923 279.845 115.52L279.845 116.803L280.003 117.126L280.325 116.962L282.892 116.961C283.11 117.008 283.323 117.276 283.53 117.764C283.531 118.24 283.156 118.615 282.406 118.889C282.222 118.78 282.009 118.725 281.767 118.725C281.56 118.834 281.4 118.889 281.287 118.889L281.287 118.725L280.964 118.889L279.845 118.889C278.943 118.89 278.355 118.142 278.081 116.646L278.081 116.001L278.239 116.001C278.134 115.794 278.081 115.634 278.081 115.521C278.319 114.868 278.639 114.495 279.042 114.401Z" fill="black"/>
<path d="M232.137 57.087C232.338 57.6982 232.848 60.4069 233.89 60.5231C231.566 61.1058 230.068 65.0297 229.146 66.8791C227.377 70.4284 228.101 75.3569 228.101 79.2361C228.101 83.6508 228.964 87.117 231.719 90.7221C233.898 93.5735 235.591 95.7665 238.682 97.691C242.058 99.7936 245.11 100.014 248.973 100.014C251.784 100.014 254.857 100.356 257.656 99.9818C259.447 99.7421 261.394 98.8965 263.059 98.2073C265.098 97.363 266.799 96.3984 268.397 94.8518C269.906 93.3925 270.458 92.0709 271.271 90.1259L271.292 90.0768C273.364 85.1187 273.832 80.37 273.832 75.0257C273.832 72.4114 274.258 68.7902 272.24 66.7661C271.473 65.9959 270.86 65.0354 270.134 64.2334C269.556 63.5954 268.511 62.4131 268.108 61.6846C267.53 60.6416 265.906 58.9 264.86 58.2001C264.86 49.0098 265.059 38.9291 264.86 29.7433C264.773 25.7414 262.931 22.1445 262.319 18.2574L262.314 18.2234C262.148 17.1677 261.822 15.0957 260.518 14.9504C259.259 14.81 258.059 15.096 256.82 15.2246C255.711 15.3396 255.052 18.2601 254.729 19.0156C252.005 25.3922 250.388 32.7441 250.388 39.6968V49.5856C250.388 50.1955 250.796 54.163 249.938 54.4091C248.617 54.7876 246.577 54.4994 245.226 54.4091C244.206 54.3408 244.072 54.1433 244.02 53.2637C243.972 52.4411 243.38 50.8524 243.088 50.0051C242.403 48.0221 242.622 45.7893 242.107 43.7781C241.471 41.2974 240.677 38.8449 240.032 36.3574C239.218 33.2138 239.008 29.9137 238.231 26.7428C237.367 23.2128 236.637 19.6646 235.659 16.1603C235.231 14.6286 234.594 10.8698 232.957 10.1269C230.038 8.80221 227.15 14.6178 226.493 16.4829C225.379 19.6446 226.075 23.84 226.075 27.1461C226.075 31.616 226.429 35.7466 227.297 40.1323C228.431 45.8576 230.318 51.5417 232.137 57.087Z" fill="#AFAFAF" stroke="black" stroke-width="2" stroke-linecap="round"/>
<path d="M227.145 8.06001C227.32 7.72788 227.516 7.0354 228.236 6.60518C228.957 6.17507 229.472 6.42332 230.075 6.42332H231.762C232.293 6.42332 233.397 6.40076 233.783 6.78703C234.336 7.33996 235.08 7.83186 235.551 8.47423C236.453 9.70495 237.47 10.8705 238.324 12.1517C238.502 12.4182 238.621 12.8437 238.713 13.1519C238.8 13.4451 239.01 13.6831 239.107 13.9703C239.373 14.7521 239.7 15.5112 239.966 16.294C241.533 20.9086 242.035 25.8082 242.466 30.6352C242.727 33.5495 242.876 36.4933 242.876 39.4197C242.876 40.3975 239.953 40.2201 239.324 40.2987C237.87 40.4805 236.409 40.43 234.945 40.43C232.583 40.43 230.254 40.3868 227.898 40.2482C227.329 40.2147 225.411 40.2441 225.125 39.7026C225.006 39.4782 224.881 39.2825 224.872 38.9752C224.739 34.2011 224.781 29.4146 224.781 24.634C224.781 21.4325 224.569 18.162 225.008 14.9907C225.259 13.1791 225.922 11.5953 226.438 9.85834C226.626 9.22645 226.839 8.6405 227.145 8.06001Z" fill="#6C11A4" stroke="black" stroke-width="2" stroke-linecap="round"/>
<path d="M254.231 13.6171C254.361 13.4687 256.654 10.816 256.878 11.1521L257.716 11.152C257.965 11.152 258.52 11.1623 258.747 11.2631C259.406 11.5562 259.946 12.2702 260.444 12.7684C261.122 13.4458 261.686 14.1314 262.172 14.9709C262.282 15.1618 262.499 15.2691 262.606 15.4659C262.742 15.7161 262.805 15.9609 262.899 16.2237C263.057 16.6645 263.285 17.2359 263.521 17.6482C263.82 18.1717 263.861 18.7135 264.011 19.2899C264.201 20.0259 264.322 20.7784 264.475 21.5227C264.809 23.144 265.056 24.776 265.354 26.3974C265.505 27.2199 265.774 28.1298 265.789 28.9636C265.803 29.7605 265.719 30.6602 265.971 31.4287C266.33 32.5271 266.425 34.0099 266.425 35.1617V37.2026C266.425 37.6827 266.642 38.5368 266.147 38.7534C265.172 39.18 264.243 39.3463 263.238 39.6576C260.232 40.5878 256.958 40.4305 253.852 40.4305H251.473C250.673 40.4305 249.856 40.6646 249.073 40.6376C248.803 40.6283 248.838 39.7846 248.785 39.6121C248.566 38.8998 248.603 37.9725 248.603 37.2278V34.4091C248.603 31.6445 249.052 28.8633 249.695 26.1852C250.137 24.3439 250.347 22.47 251.053 20.7043C251.519 19.5396 251.899 18.285 252.296 17.0925C252.687 15.9199 253.424 14.5387 254.231 13.6171Z" fill="#6C11A4" stroke="black" stroke-width="2" stroke-linecap="round"/>
<circle cx="229.171" cy="4.96648" r="3.96648" fill="#FFFF00" stroke="black" stroke-width="2"/>
<circle cx="258.97" cy="10.7609" r="3.96648" fill="#FFFF00" stroke="black" stroke-width="2"/>
<path d="M251.475 26.1028C251.28 25.6362 250.53 25.0128 250.168 24.6504C249.995 24.9093 250.078 25.3361 250.078 25.632C250.078 26.3378 250.089 27.0448 250.078 27.7505C250.063 28.6414 249.773 29.5088 249.627 30.3798C249.373 31.8908 249.457 33.4247 249.176 34.9272C249.067 35.5136 249.131 36.1508 249.131 36.7452C249.131 36.8463 249.034 37.5125 249.266 37.3963C249.486 37.2865 249.65 37.0341 249.862 36.9005C250.18 36.7001 250.398 36.3816 250.719 36.1793C251.433 35.729 251.984 35.0826 252.582 34.4965C252.744 34.3375 252.922 34.3547 253.077 34.5015C253.31 34.7212 253.695 34.7476 253.964 34.9372C254.123 35.0494 254.275 35.1556 254.45 35.2427C254.635 35.3352 254.768 35.4973 254.946 35.5933C255.18 35.7205 255.565 35.7162 255.827 35.7836C256.207 35.8813 256.56 36.0096 256.909 36.1893C256.967 36.2192 257.357 36.465 257.299 36.3495C257.236 36.2235 257.228 36.0707 257.154 35.9539C257.057 35.8 256.992 35.6256 256.924 35.4581C256.701 34.9104 256.374 34.404 256.092 33.8855C255.812 33.3706 255.529 32.8557 255.241 32.3455C255.099 32.0937 254.867 31.8606 254.82 31.5667C254.782 31.3288 254.984 31.1496 255.126 30.9707C256.153 29.6718 257.415 28.4977 258.246 27.0393C258.444 26.6908 258.597 26.4179 258.597 26.0101C258.597 25.9284 258.654 25.6259 258.506 25.652C258.232 25.7004 257.995 25.7963 257.71 25.8323C256.296 26.0112 254.891 26.4779 253.663 27.1996C253.253 27.441 252.869 27.693 252.522 28.0184C252.39 28.142 252.43 28.1029 252.331 28.0409C252.233 27.9795 252.186 27.7453 252.141 27.6478C251.908 27.1375 251.691 26.6205 251.475 26.1028Z" fill="#FFFF00" stroke="black" stroke-width="2" stroke-linecap="round"/>
<path d="M238.313 14.8941C238.469 14.5881 238.631 13.9386 238.991 13.8291C239.486 15.8487 239.982 17.868 240.474 19.8884C240.532 20.1264 240.599 20.3724 240.644 20.6158C240.709 20.9653 240.756 21.3203 240.813 21.6714C240.889 22.1387 240.917 22.6127 240.991 23.0791C241.034 23.3571 241.022 23.6387 241.022 23.9194V24.4904C241.022 24.6392 240.978 24.8694 241.063 24.9968C240.82 24.9968 240.216 24.332 239.999 24.2169C239.746 24.0829 239.566 24.019 239.282 24.019C239.166 24.019 239.103 24.1115 239.014 24.1743C238.688 24.4065 238.402 24.7141 238.098 24.9756C237.668 25.346 237.272 25.699 236.806 26.0273C236.416 26.3022 236.085 26.7314 235.674 26.9639C235.65 26.9777 235.692 26.3893 235.697 26.3378C235.736 25.8494 235.829 25.3663 235.834 24.8654C235.841 24.2389 235.977 23.3662 235.697 22.782C235.439 22.2448 234.98 21.8484 234.562 21.4398C234.271 21.1553 233.924 20.9258 233.621 20.6535C233.037 20.1304 232.533 19.5203 232.068 18.8906C231.996 18.7932 231.665 18.3202 231.918 18.2922C232.22 18.2585 232.514 18.2556 232.819 18.2471C233.407 18.2308 233.995 18.1587 234.582 18.1244C235.157 18.0908 235.732 18.1077 236.308 18.0718C236.484 18.0608 236.708 18.1149 236.851 17.9791C237.229 17.6212 237.364 16.9562 237.565 16.4967C237.801 15.9527 238.044 15.4233 238.313 14.8941Z" fill="#FFFF00" stroke="black" stroke-width="2" stroke-linecap="round"/>
<path d="M225.978 30.9155C225.785 30.9323 225.244 30.8159 225.049 30.8159C224.89 33.1581 225.033 35.7282 225.033 38.0765L225.033 39.3181C225.033 39.4206 225.304 39.7201 225.447 39.732C225.875 39.7677 225.621 39.5544 226.05 39.6021C227.195 39.7293 228.367 39.7015 229.517 39.7015C230.513 39.7015 231.509 39.6975 232.505 39.7015C233.013 39.7035 233.514 39.788 234.021 39.788C234.021 39.3181 233.724 38.9042 233.017 38.4428C232.852 38.2589 232.726 37.9592 232.534 37.8118C232.213 37.5646 231.977 37.1998 231.69 36.9128C231.082 36.305 230.369 35.6756 230.03 34.867C229.879 34.5064 230.027 34.2316 230.2 33.9254C230.543 33.3179 230.956 32.7485 231.342 32.1675C231.745 31.5611 232.297 30.9101 232.559 30.2194C232.606 30.0948 232.589 29.9493 232.589 29.8187C232.589 29.6871 232.35 29.7607 232.279 29.7711C231.01 29.9583 229.767 30.3187 228.508 30.5549C227.671 30.7118 226.827 30.8417 225.978 30.9155Z" fill="#FFFF00" stroke="black" stroke-width="2" stroke-linecap="round"/>
<path d="M236.663 73.2045C238.554 73.2045 240.445 73.2045 242.336 73.2045C243.043 73.2045 243.772 73.2613 244.475 73.1883C244.632 73.172 245.214 72.9074 245.318 73.0344C245.555 73.3247 245.651 73.8049 245.794 74.1484C246.006 74.6579 246.187 75.1603 246.317 75.7001C246.722 77.3896 247.044 79.1313 247.284 80.8533C247.376 81.5112 247.55 82.0903 247.55 82.7573C247.55 83.2192 247.55 83.681 247.55 84.1429C247.55 84.6985 247.322 84.5804 246.785 84.5804C246.318 84.5804 245.93 84.732 245.681 84.309C245.059 83.2561 245.162 81.7015 245.162 80.5332C245.162 78.9816 245.162 77.43 245.162 75.8783C245.162 75.4739 243.829 75.6839 243.597 75.6839C241.717 75.6839 239.838 75.6839 237.958 75.6839C237.851 75.6839 236.38 75.8067 236.327 75.6353C236.177 75.15 236.311 74.4126 236.311 73.9094C236.311 73.6483 236.188 73.2094 236.514 73.2045C237.341 73.1921 238.17 73.196 238.996 73.2045C239.627 73.211 240.238 73.253 240.842 73.4516C240.949 73.4868 241.307 73.5327 241.353 73.6745C241.479 74.068 241.12 74.223 240.846 74.3875C240.268 74.7336 238.287 75.1634 238.941 75.0276C240.607 74.6818 242.315 74.4509 244.01 74.3389C244.086 74.3339 245.328 74.2983 244.545 74.2983C243.75 74.2983 242.956 74.2983 242.161 74.2983C240.932 74.2983 239.707 74.4442 238.481 74.4442C237.7 74.4442 240.047 74.3936 240.818 74.2619C241.215 74.1942 241.602 74.0752 242.001 74.0229C242.414 73.9686 241.244 74.1158 241.22 74.1201C241.194 74.1248 240.415 74.2961 240.557 74.2983C241.103 74.3071 241.65 74.2983 242.196 74.2983C242.99 74.2983 243.845 74.1559 244.35 74.9344C244.898 75.7785 244.906 77.0009 244.943 77.985C244.992 79.305 244.951 80.6342 244.951 81.9552C244.951 82.1996 244.951 82.444 244.951 82.6885C244.951 83.022 244.951 82.0214 244.951 81.6878C244.951 80.1056 245.076 78.4666 244.842 76.8992C244.833 76.8408 244.81 76.329 244.81 76.7007C244.81 77.5312 244.81 78.3617 244.81 79.1922C244.81 80.0336 244.81 80.8749 244.81 81.7162C244.81 82.2153 244.811 80.6296 244.81 80.5859C244.78 78.6488 244.483 76.6645 243.928 74.8169C243.854 74.5691 243.843 75.3287 243.815 75.5866C243.678 76.8741 243.53 78.1554 243.491 79.4515C243.453 80.7644 243.463 82.0838 243.476 83.3974C243.48 83.8357 243.687 84.1331 243.827 84.5318C243.98 84.9675 244.62 83.0461 244.639 82.9883C244.918 82.1068 245.163 81.2268 245.622 80.4238C245.753 80.1938 246.083 79.4813 246.168 80.1402C246.32 81.3139 246.241 82.5478 246.285 83.7296C246.286 83.7576 246.381 85.6368 246.434 85.6135C246.643 85.5205 246.805 84.5757 246.894 84.3697C247.174 83.7238 247.525 83.0982 247.928 82.5264C248.01 82.4106 248.391 81.7902 248.572 81.8013C248.621 81.8042 248.118 82.6296 248.1 82.6561C247.799 83.0943 247.499 83.5234 247.214 83.9727C247.134 84.0989 247.047 84.1885 246.902 84.2158C246.249 84.3391 245.654 84.8391 245.208 85.3339C245.086 85.4695 244.943 85.6047 244.951 85.3177C244.966 84.7643 245.322 84.2994 245.638 83.8836C245.671 83.8397 246.254 83.0793 246.254 83.4299C246.254 83.9257 245.909 84.4679 245.716 84.9045C245.574 85.2237 245.56 85.1989 245.7 84.9005C245.811 84.6648 245.963 84.4321 246.145 84.2482C246.342 84.0491 246.585 84.0875 246.465 84.4184C246.435 84.5019 246.243 84.7294 246.309 84.8235C246.437 85.0064 247.106 84.7032 247.238 84.6533C247.63 84.505 248.029 84.3371 248.404 84.1469C248.422 84.1379 248.715 83.9202 248.728 83.9565C248.871 84.3456 248.252 85.4629 247.885 85.5851C247.66 85.6603 247.933 85.082 248.049 84.868C248.337 84.3385 248.645 83.8336 249.009 83.3569C249.069 83.2791 249.863 82.4423 249.77 82.6804C249.369 83.7104 248.179 84.5137 247.378 85.1678C247.082 85.4096 246.239 86.1884 246.543 85.9578C247.099 85.536 247.574 85.0106 248.143 84.5966C248.739 84.163 249.364 83.7542 249.993 83.3731C250.038 83.3458 250.778 82.9559 250.738 83.0612C250.463 83.7746 249.735 84.4512 249.275 85.0341C249.068 85.295 248.878 85.5711 248.65 85.812C248.613 85.8516 248.544 85.9531 248.518 85.9052C248.477 85.8325 248.534 85.736 248.564 85.658C248.657 85.4156 248.769 85.1807 248.884 84.9491C249.723 83.271 253.015 78.7234 251.909 80.2253C250.785 81.7502 249.781 83.3011 248.525 84.7263C248.306 84.9754 247.937 85.4807 248.283 84.8802C248.656 84.2333 249.102 83.6432 249.595 83.0895C250.289 82.309 251.115 81.7112 251.87 81.0153C252.05 80.8488 252.145 80.7995 252.256 80.5697" stroke="black" stroke-width="2" stroke-linecap="round"/>
<path d="M244.256 92C247.404 91.3972 250.523 91.8108 253.678 91.8108C253.91 91.8108 254.166 91.7076 254.371 91.5638C255.231 90.9594 256.064 90.4155 256.985 89.9555C258.067 89.4149 259.193 88.9788 260.3 88.5416C260.536 88.4482 260.908 88.4341 261.101 88.2105C261.339 87.9353 261.316 87.9786 260.938 88.0686C260.269 88.2276 259.773 88.8869 259.172 89.2564" stroke="black" stroke-width="2" stroke-linecap="round"/>
<path d="M254.722 73.697C254.639 73.697 254.539 73.7219 254.814 73.6512C256.08 73.3247 257.356 73.0425 258.629 72.748C259.614 72.5204 260.599 72.3723 261.582 72.182C261.644 72.17 261.708 72.1368 261.589 72.1279C261.206 72.0991 260.804 72.1334 260.424 72.1779C258.985 72.3464 257.543 72.8082 256.208 73.4098C255.436 73.7572 256.722 73.6221 256.922 73.6221C258.134 73.6221 259.346 73.6053 260.558 73.6262C261.314 73.6393 262.041 73.6996 262.773 73.9051C263.203 74.0256 263.177 74.2784 262.758 74.4628C260.843 75.3045 258.656 75.2692 256.777 76.1942C256.248 76.4543 255.942 76.1333 255.505 75.7946C255.102 75.4826 254.492 75.1517 254.256 74.6543C254.244 74.6289 255.032 75.1924 255.161 75.291C256.487 76.2989 257.9 76.9993 259.466 77.4428C260.137 77.633 260.815 77.7782 261.498 77.909C261.505 77.9104 262.102 78.0314 262.086 77.9922C262.043 77.8906 261.887 77.7865 261.815 77.7217C261.34 77.2972 260.832 76.9459 260.298 76.6146C259.143 75.8974 257.915 75.3673 256.746 74.6875C256.453 74.5167 255.986 74.1631 255.631 74.1631C255.456 74.1631 255.642 74.4636 255.673 74.4961C256.1 74.9493 256.851 74.987 257.403 75.0247C258.8 75.1198 260.107 74.8599 261.444 74.4462C262.32 74.1753 263.325 73.9497 264.148 73.5139C264.302 73.4325 264.288 73.413 264.125 73.5971C263.659 74.1255 263.223 74.6853 262.789 75.2453C262.186 76.0226 261.629 76.8138 261.184 77.7092C261.175 77.7288 261.097 77.8657 261.142 77.7217C261.303 77.2144 261.599 76.7475 261.887 76.3191C262.514 75.3864 263.183 74.4747 263.873 73.5971C263.943 73.5079 264.284 73.2064 263.969 73.3058C263.081 73.5856 262.302 74.1466 261.375 74.3171C260.905 74.4036 260.385 74.4001 259.909 74.3712C259.507 74.3469 259.916 73.7559 260.02 73.6387C260.69 72.8818 261.527 72.1693 262.361 71.641C262.478 71.5666 263.481 71.0298 263.453 71" stroke="black" stroke-width="2" stroke-linecap="round"/>
<path d="M233.853 65C233.484 65.3766 233.172 65.8242 232.864 66.2594C231.93 67.5801 231.048 68.9453 230.205 70.3394C229.569 71.3931 228.759 72.5599 228.316 73.7481C228.123 74.2673 228.43 74.056 228.727 73.914C229.48 73.5537 230.267 73.1986 231.068 72.9864C231.277 72.9309 231.945 72.7242 232.149 72.9336C232.372 73.1628 232.258 73.9561 232.252 74.2534C232.23 75.2462 231.942 76.1546 231.663 77.089C231.455 77.7869 231.282 78.4957 230.999 79.1629C230.832 79.5573 231.2 79.2732 231.403 79.1855C231.653 79.0774 231.959 78.9031 232.238 78.914C232.758 78.9345 231.627 82.6447 231.533 82.8884C231.3 83.4921 231.099 84.1839 230.801 84.7511C230.752 84.8439 230.953 84.6174 231.027 84.5475C231.302 84.2866 231.584 84.0388 231.896 83.8311C232.469 83.449 233.195 83.0631 233.881 83.0543C234.163 83.0507 234.027 83.6348 233.997 83.8084C233.7 85.5266 232.633 87.2239 231.663 88.5671C231.411 88.9164 231.963 88.1836 231.985 88.1599C232.668 87.4239 233.507 86.794 234.305 86.2217C234.489 86.0899 235.296 85.3763 235.318 85.9502C235.355 86.916 235.05 87.8209 234.702 88.6878C234.655 88.8055 234.263 89.7085 234.387 89.5852C234.409 89.5633 234.682 89.3024 234.702 89.4118C234.806 89.9862 234.648 90.7023 234.606 91.2821C234.602 91.3372 234.548 91.658 234.62 91.7119C234.809 91.8534 235.301 91.7421 235.523 91.7421C235.814 91.7421 235.88 91.9318 235.92 92.2474C235.974 92.6678 235.885 93.1156 235.962 93.5294C235.986 93.6604 236.107 93.7343 236.146 93.8612C236.261 94.2263 236.159 94.6282 236.256 95" stroke="black" stroke-width="2" stroke-linecap="round"/>
</svg>
