<svg width="52" height="102" viewBox="0 0 52 102" fill="none" xmlns="http://www.w3.org/2000/svg">
<path d="M9.13721 57.087C9.33774 57.6982 9.84806 60.4069 10.8899 60.5231C8.56647 61.1058 7.06803 65.0297 6.14636 66.8791C4.37742 70.4284 5.10117 75.3569 5.10117 79.2361C5.10117 83.6508 5.96418 87.117 8.71913 90.7221C10.8982 93.5735 12.591 95.7665 15.6817 97.691C19.0582 99.7936 22.1101 100.014 25.9728 100.014C28.7839 100.014 31.8573 100.356 34.6559 99.9818C36.4473 99.7421 38.3941 98.8965 40.0587 98.2073C42.0977 97.363 43.7985 96.3984 45.3972 94.8518C46.9057 93.3925 47.4581 92.0709 48.271 90.1259L48.2915 90.0768C50.364 85.1187 50.8322 80.37 50.8322 75.0257C50.8322 72.4114 51.2578 68.7902 49.2402 66.7661C48.4725 65.9959 47.8605 65.0354 47.1338 64.2334C46.5557 63.5954 45.5111 62.4131 45.1077 61.6846C44.5302 60.6416 42.9061 58.9 41.8596 58.2001C41.8596 49.0098 42.0587 38.9291 41.8596 29.7433C41.7729 25.7414 39.9308 22.1445 39.319 18.2574L39.3137 18.2234C39.1477 17.1677 38.8219 15.0957 37.5181 14.9504C36.2593 14.81 35.0588 15.096 33.8197 15.2246C32.7115 15.3396 32.0521 18.2601 31.7293 19.0156C29.0053 25.3922 27.3878 32.7441 27.3878 39.6968V49.5856C27.3878 50.1955 27.7961 54.163 26.9376 54.4091C25.6172 54.7876 23.5765 54.4994 22.2262 54.4091C21.2061 54.3408 21.0718 54.1433 21.0202 53.2637C20.972 52.4411 20.3799 50.8524 20.0876 50.0051C19.4034 48.0221 19.6222 45.7893 19.1067 43.7781C18.4708 41.2974 17.677 38.8449 17.0324 36.3574C16.2177 33.2138 16.0077 29.9137 15.2315 26.7428C14.3672 23.2128 13.6367 19.6646 12.6587 16.1603C12.2312 14.6286 11.5941 10.8698 9.95728 10.1269C7.03844 8.80221 4.15044 14.6178 3.4932 16.4829C2.37903 19.6446 3.07512 23.84 3.07512 27.1461C3.07512 31.616 3.42867 35.7466 4.29719 40.1323C5.43099 45.8576 7.31807 51.5417 9.13721 57.087Z" fill="#AFAFAF" stroke="black" stroke-width="2" stroke-linecap="round"/>
<path d="M4.14514 8.06001C4.32043 7.72788 4.51594 7.0354 5.23627 6.60518C5.95659 6.17507 6.47168 6.42332 7.07501 6.42332H8.76221C9.29293 6.42332 10.3965 6.40076 10.7828 6.78703C11.3357 7.33996 12.0798 7.83186 12.5508 8.47423C13.4534 9.70495 14.47 10.8705 15.3241 12.1517C15.5018 12.4182 15.6215 12.8437 15.7131 13.1519C15.8002 13.4451 16.0096 13.6831 16.1071 13.9703C16.3726 14.7521 16.7 15.5112 16.9659 16.294C18.5331 20.9086 19.0354 25.8082 19.4663 30.6352C19.7266 33.5495 19.8755 36.4933 19.8755 39.4197C19.8755 40.3975 16.9527 40.2201 16.3243 40.2987C14.8699 40.4805 13.4091 40.43 11.9447 40.43C9.5827 40.43 7.25406 40.3868 4.89782 40.2482C4.32896 40.2147 2.4112 40.2441 2.12454 39.7026C2.00575 39.4782 1.8805 39.2825 1.87197 38.9752C1.73935 34.2011 1.78104 29.4146 1.78104 24.634C1.78104 21.4325 1.56925 18.162 2.00836 14.9907C2.25919 13.1791 2.92153 11.5953 3.43793 9.85834C3.62579 9.22645 3.83877 8.6405 4.14514 8.06001Z" fill="#6C11A4" stroke="black" stroke-width="2" stroke-linecap="round"/>
<path d="M31.2309 13.6171C31.3607 13.4687 33.6538 10.816 33.8778 11.1521L34.7164 11.152C34.9649 11.152 35.5202 11.1623 35.7469 11.2631C36.4063 11.5562 36.9459 12.2702 37.4442 12.7684C38.1215 13.4458 38.6858 14.1314 39.1718 14.9709C39.2823 15.1618 39.4994 15.2691 39.6062 15.4659C39.7421 15.7161 39.8054 15.9609 39.8992 16.2237C40.0567 16.6645 40.285 17.2359 40.5206 17.6482C40.8197 18.1717 40.8611 18.7135 41.0106 19.2899C41.2014 20.0259 41.3221 20.7784 41.4753 21.5227C41.8091 23.144 42.0565 24.776 42.3543 26.3974C42.5053 27.2199 42.7735 28.1298 42.7887 28.9636C42.8032 29.7605 42.7193 30.6602 42.9705 31.4287C43.3296 32.5271 43.4252 34.0099 43.4252 35.1617V37.2026C43.4252 37.6827 43.6422 38.5368 43.1473 38.7534C42.1723 39.18 41.2434 39.3463 40.2377 39.6576C37.2322 40.5878 33.958 40.4305 30.852 40.4305H28.4727C27.6728 40.4305 26.8555 40.6646 26.0733 40.6376C25.8032 40.6283 25.8384 39.7846 25.7853 39.6121C25.5662 38.8998 25.6035 37.9725 25.6035 37.2278V34.4091C25.6035 31.6445 26.0519 28.8633 26.6946 26.1852C27.1365 24.3439 27.3472 22.47 28.0535 20.7043C28.5194 19.5396 28.8986 18.285 29.2961 17.0925C29.687 15.9199 30.4245 14.5387 31.2309 13.6171Z" fill="#6C11A4" stroke="black" stroke-width="2" stroke-linecap="round"/>
<circle cx="6.17107" cy="4.96648" r="3.96648" fill="#FFFF00" stroke="black" stroke-width="2"/>
<circle cx="35.9699" cy="10.7609" r="3.96648" fill="#FFFF00" stroke="black" stroke-width="2"/>
<path d="M28.4748 26.1028C28.2802 25.6362 27.5301 25.0128 27.1677 24.6504C26.9951 24.9093 27.0776 25.3361 27.0776 25.632C27.0776 26.3378 27.0889 27.0448 27.0776 27.7505C27.0632 28.6414 26.7733 29.5088 26.6268 30.3798C26.3726 31.8908 26.4568 33.4247 26.1761 34.9272C26.0665 35.5136 26.131 36.1508 26.131 36.7452C26.131 36.8463 26.0338 37.5125 26.2662 37.3963C26.4858 37.2865 26.6503 37.0341 26.8622 36.9005C27.1801 36.7001 27.3977 36.3816 27.7186 36.1793C28.4329 35.729 28.9838 35.0826 29.5817 34.4965C29.7439 34.3375 29.9217 34.3547 30.0775 34.5015C30.3105 34.7212 30.6949 34.7476 30.9639 34.9372C31.123 35.0494 31.2755 35.1556 31.4497 35.2427C31.6347 35.3352 31.7683 35.4973 31.9455 35.5933C32.1804 35.7205 32.5648 35.7162 32.827 35.7836C33.207 35.8813 33.5599 36.0096 33.9087 36.1893C33.9667 36.2192 34.3571 36.465 34.2994 36.3495C34.2364 36.2235 34.2277 36.0707 34.1542 35.9539C34.0572 35.8 33.992 35.6256 33.9238 35.4581C33.7006 34.9104 33.3744 34.404 33.0924 33.8855C32.8124 33.3706 32.5294 32.8557 32.241 32.3455C32.0987 32.0937 31.8672 31.8606 31.8203 31.5667C31.7824 31.3288 31.9844 31.1496 32.1258 30.9707C33.1529 29.6718 34.4155 28.4977 35.2459 27.0393C35.4444 26.6908 35.5965 26.4179 35.5965 26.0101C35.5965 25.9284 35.6543 25.6259 35.5064 25.652C35.2324 25.7004 34.995 25.7963 34.7101 25.8323C33.2955 26.0112 31.8908 26.4779 30.6634 27.1996C30.2528 27.441 29.8686 27.693 29.5216 28.0184C29.3898 28.142 29.4305 28.1029 29.3313 28.0409C29.2329 27.9795 29.1855 27.7453 29.1409 27.6478C28.9076 27.1375 28.6909 26.6205 28.4748 26.1028Z" fill="#FFFF00" stroke="black" stroke-width="2" stroke-linecap="round"/>
<path d="M15.3133 14.8941C15.4691 14.5881 15.6314 13.9386 15.9911 13.8291C16.4858 15.8487 16.982 17.868 17.4737 19.8884C17.5316 20.1264 17.599 20.3724 17.6441 20.6158C17.7087 20.9653 17.7562 21.3203 17.8133 21.6714C17.8893 22.1387 17.9169 22.6127 17.9905 23.0791C18.0344 23.3571 18.0216 23.6387 18.0216 23.9194V24.4904C18.0216 24.6392 17.9781 24.8694 18.0631 24.9968C17.8202 24.9968 17.2161 24.332 16.9986 24.2169C16.7456 24.0829 16.5661 24.019 16.2824 24.019C16.1663 24.019 16.1027 24.1115 16.0145 24.1743C15.6881 24.4065 15.4017 24.7141 15.098 24.9756C14.6676 25.346 14.2716 25.699 13.8058 26.0273C13.4159 26.3022 13.0853 26.7314 12.674 26.9639C12.6496 26.9777 12.6924 26.3893 12.6965 26.3378C12.7356 25.8494 12.8291 25.3663 12.8343 24.8654C12.8406 24.2389 12.9769 23.3662 12.6965 22.782C12.4387 22.2448 11.98 21.8484 11.5622 21.4398C11.2712 21.1553 10.9241 20.9258 10.6206 20.6535C10.0375 20.1304 9.53256 19.5203 9.06808 18.8906C8.99617 18.7932 8.66513 18.3202 8.91784 18.2922C9.22049 18.2585 9.51386 18.2556 9.81931 18.2471C10.407 18.2308 10.995 18.1587 11.5822 18.1244C12.1567 18.0908 12.7323 18.1077 13.3075 18.0718C13.4841 18.0608 13.7077 18.1149 13.8509 17.9791C14.2287 17.6212 14.3645 16.9562 14.5646 16.4967C14.8015 15.9527 15.0439 15.4233 15.3133 14.8941Z" fill="#FFFF00" stroke="black" stroke-width="2" stroke-linecap="round"/>
<path d="M2.97836 30.9155C2.78509 30.9323 2.24431 30.8159 2.04856 30.8159C1.88976 33.1581 2.03273 35.7282 2.03273 38.0765L2.03264 39.3181C2.03264 39.4206 2.304 39.7201 2.4467 39.732C2.87534 39.7677 2.62125 39.5544 3.05028 39.6021C4.19521 39.7293 5.36657 39.7015 6.51701 39.7015C7.51283 39.7015 8.50872 39.6975 9.50453 39.7015C10.0127 39.7035 10.5143 39.788 11.0207 39.788C11.0207 39.3181 10.724 38.9042 10.0174 38.4428C9.85187 38.2589 9.72569 37.9592 9.5341 37.8118C9.21275 37.5646 8.97716 37.1998 8.69022 36.9128C8.08241 36.305 7.36851 35.6756 7.03 34.867C6.87905 34.5064 7.02743 34.2316 7.20028 33.9254C7.54323 33.3179 7.95602 32.7485 8.34215 32.1675C8.74529 31.5611 9.29715 30.9101 9.55914 30.2194C9.60638 30.0948 9.58919 29.9493 9.58919 29.8187C9.58919 29.6871 9.34964 29.7607 9.27868 29.7711C8.01036 29.9583 6.76746 30.3187 5.50751 30.5549C4.67066 30.7118 3.82691 30.8417 2.97836 30.9155Z" fill="#FFFF00" stroke="black" stroke-width="2" stroke-linecap="round"/>
<path d="M13.6625 73.2045C15.5538 73.2045 17.4451 73.2045 19.3364 73.2045C20.0428 73.2045 20.7717 73.2613 21.4748 73.1883C21.6318 73.172 22.2139 72.9074 22.3177 73.0344C22.555 73.3247 22.6507 73.8049 22.7938 74.1484C23.0059 74.6579 23.1873 75.1603 23.3167 75.7001C23.7216 77.3896 24.0439 79.1313 24.2844 80.8533C24.3763 81.5112 24.5498 82.0903 24.5498 82.7573C24.5498 83.2192 24.5498 83.681 24.5498 84.1429C24.5498 84.6985 24.322 84.5804 23.7849 84.5804C23.3178 84.5804 22.9303 84.732 22.6806 84.309C22.059 83.2561 22.1616 81.7015 22.1616 80.5332C22.1616 78.9816 22.1616 77.43 22.1616 75.8783C22.1616 75.4739 20.8294 75.6839 20.5968 75.6839C18.7172 75.6839 16.8376 75.6839 14.9581 75.6839C14.8512 75.6839 13.38 75.8067 13.3269 75.6353C13.1767 75.15 13.3113 74.4126 13.3113 73.9094C13.3113 73.6483 13.1876 73.2094 13.5142 73.2045C14.3406 73.1921 15.1697 73.196 15.9961 73.2045C16.6267 73.211 17.2376 73.253 17.8418 73.4516C17.9487 73.4868 18.3075 73.5327 18.353 73.6745C18.4794 74.068 18.1203 74.223 17.8457 74.3875C17.2678 74.7336 15.2872 75.1634 15.9414 75.0276C17.6068 74.6818 19.3152 74.4509 21.0104 74.3389C21.0857 74.3339 22.3285 74.2983 21.545 74.2983C20.7503 74.2983 19.9555 74.2983 19.1608 74.2983C17.9316 74.2983 16.7072 74.4442 15.481 74.4442C14.6996 74.4442 17.0474 74.3936 17.8184 74.2619C18.2147 74.1942 18.6023 74.0752 19.0008 74.0229C19.4138 73.9686 18.244 74.1158 18.2203 74.1201C18.1944 74.1248 17.4148 74.2961 17.557 74.2983C18.103 74.3071 18.6498 74.2983 19.1959 74.2983C19.9896 74.2983 20.8449 74.1559 21.3499 74.9344C21.8975 75.7785 21.9063 77.0009 21.9431 77.985C21.9924 79.305 21.9509 80.6342 21.9509 81.9552C21.9509 82.1996 21.9509 82.444 21.9509 82.6885C21.9509 83.022 21.9509 82.0214 21.9509 81.6878C21.9509 80.1056 22.0761 78.4666 21.8416 76.8992C21.8329 76.8408 21.8104 76.329 21.8104 76.7007C21.8104 77.5312 21.8104 78.3617 21.8104 79.1922C21.8104 80.0336 21.8104 80.8749 21.8104 81.7162C21.8104 82.2153 21.8111 80.6296 21.8104 80.5859C21.7803 78.6488 21.4828 76.6645 20.9285 74.8169C20.8541 74.5691 20.8427 75.3287 20.8153 75.5866C20.6785 76.8741 20.5297 78.1554 20.4914 79.4515C20.4527 80.7644 20.4625 82.0838 20.4758 83.3974C20.4803 83.8357 20.6874 84.1331 20.827 84.5318C20.9797 84.9675 21.6204 83.0461 21.6387 82.9883C21.9177 82.1068 22.1632 81.2268 22.6221 80.4238C22.7535 80.1938 23.0832 79.4813 23.1684 80.1402C23.32 81.3139 23.2408 82.5478 23.2854 83.7296C23.2865 83.7576 23.3812 85.6368 23.4337 85.6135C23.6428 85.5205 23.8049 84.5757 23.8942 84.3697C24.1742 83.7238 24.5255 83.0982 24.9283 82.5264C25.0099 82.4106 25.3909 81.7902 25.5721 81.8013C25.621 81.8042 25.1181 82.6296 25.1 82.6561C24.7993 83.0943 24.4988 83.5234 24.2142 83.9727C24.1342 84.0989 24.0468 84.1885 23.902 84.2158C23.2487 84.3391 22.6543 84.8391 22.2084 85.3339C22.0863 85.4695 21.9431 85.6047 21.9509 85.3177C21.9659 84.7643 22.3225 84.2994 22.6377 83.8836C22.6709 83.8397 23.2542 83.0793 23.2542 83.4299C23.2542 83.9257 22.9092 84.4679 22.7157 84.9045C22.5742 85.2237 22.5597 85.1989 22.7001 84.9005C22.811 84.6648 22.9627 84.4321 23.145 84.2482C23.3422 84.0491 23.5853 84.0875 23.4649 84.4184C23.4345 84.5019 23.2429 84.7294 23.3089 84.8235C23.437 85.0064 24.1058 84.7032 24.2376 84.6533C24.6298 84.505 25.0289 84.3371 25.4044 84.1469C25.4222 84.1379 25.7149 83.9202 25.7282 83.9565C25.871 84.3456 25.2517 85.4629 24.8854 85.5851C24.6601 85.6603 24.933 85.082 25.0492 84.868C25.337 84.3385 25.6447 83.8336 26.0092 83.3569C26.0687 83.2791 26.863 82.4423 26.7701 82.6804C26.3685 83.7104 25.1789 84.5137 24.3781 85.1678C24.0821 85.4096 23.2388 86.1884 23.543 85.9578C24.0995 85.536 24.574 85.0106 25.1429 84.5966C25.7389 84.163 26.3639 83.7542 26.9926 83.3731C27.0377 83.3458 27.7785 82.9559 27.7379 83.0612C27.463 83.7746 26.7355 84.4512 26.2746 85.0341C26.0683 85.295 25.8779 85.5711 25.6502 85.812C25.6128 85.8516 25.5443 85.9531 25.5175 85.9052C25.477 85.8325 25.5344 85.736 25.5643 85.658C25.6574 85.4156 25.7685 85.1807 25.8843 84.9491C26.7233 83.271 30.0148 78.7234 28.9086 80.2253C27.7854 81.7502 26.7813 83.3011 25.5253 84.7263C25.3057 84.9754 24.9373 85.4807 25.2834 84.8802C25.6562 84.2333 26.1023 83.6432 26.5945 83.0895C27.2885 82.309 28.1154 81.7112 28.8695 81.0153C29.05 80.8488 29.1452 80.7995 29.2559 80.5697" stroke="black" stroke-width="2" stroke-linecap="round"/>
<path d="M21.2559 92C24.4037 91.3972 27.5226 91.8108 30.6783 91.8108C30.9099 91.8108 31.166 91.7076 31.3708 91.5638C32.2311 90.9594 33.0644 90.4155 33.9851 89.9555C35.0669 89.4149 36.1927 88.9788 37.2997 88.5416C37.5362 88.4482 37.908 88.4341 38.1011 88.2105C38.3388 87.9353 38.3165 87.9786 37.9377 88.0686C37.2689 88.2276 36.7732 88.8869 36.1715 89.2564" stroke="black" stroke-width="2" stroke-linecap="round"/>
<path d="M31.722 73.697C31.6391 73.697 31.5394 73.7219 31.8136 73.6512C33.0801 73.3247 34.3563 73.0425 35.6292 72.748C36.6137 72.5204 37.5992 72.3723 38.5817 72.182C38.6439 72.17 38.7076 72.1368 38.5893 72.1279C38.2065 72.0991 37.8041 72.1334 37.4244 72.1779C35.9848 72.3464 34.5435 72.8082 33.2077 73.4098C32.4364 73.7572 33.7223 73.6221 33.922 73.6221C35.1337 73.6221 36.3465 73.6053 37.558 73.6262C38.3142 73.6393 39.0407 73.6996 39.7733 73.9051C40.2031 74.0256 40.1775 74.2784 39.758 74.4628C37.843 75.3045 35.6564 75.2692 33.7768 76.1942C33.2484 76.4543 32.942 76.1333 32.5049 75.7946C32.1023 75.4826 31.4916 75.1517 31.256 74.6543C31.244 74.6289 32.0315 75.1924 32.1612 75.291C33.4869 76.2989 34.8996 76.9993 36.4657 77.4428C37.1374 77.633 37.8147 77.7782 38.4976 77.909C38.5051 77.9104 39.1023 78.0314 39.0858 77.9922C39.0431 77.8906 38.8872 77.7865 38.8146 77.7217C38.3399 77.2972 37.8321 76.9459 37.2983 76.6146C36.1431 75.8974 34.915 75.3673 33.7463 74.6875C33.4525 74.5167 32.9857 74.1631 32.631 74.1631C32.4564 74.1631 32.6424 74.4636 32.673 74.4961C33.0996 74.9493 33.8507 74.987 34.4032 75.0247C35.7995 75.1198 37.1066 74.8599 38.4442 74.4462C39.3198 74.1753 40.3249 73.9497 41.1483 73.5139C41.3021 73.4325 41.2879 73.413 41.1254 73.5971C40.659 74.1255 40.2226 74.6853 39.7886 75.2453C39.1861 76.0226 38.6286 76.8138 38.1844 77.7092C38.1747 77.7288 38.0968 77.8657 38.1424 77.7217C38.3029 77.2144 38.5994 76.7475 38.8872 76.3191C39.5138 75.3864 40.183 74.4747 40.8733 73.5971C40.9435 73.5079 41.2838 73.2064 40.9688 73.3058C40.0815 73.5856 39.3021 74.1466 38.3754 74.3171C37.9053 74.4036 37.3855 74.4001 36.9087 74.3712C36.5066 74.3469 36.9157 73.7559 37.0195 73.6387C37.6898 72.8818 38.5271 72.1693 39.3608 71.641C39.4781 71.5666 40.4805 71.0298 40.4532 71" stroke="black" stroke-width="2" stroke-linecap="round"/>
<path d="M10.8534 65C10.4839 65.3766 10.1725 65.8242 9.86439 66.2594C8.92955 67.5801 8.04754 68.9453 7.20529 70.3394C6.56864 71.3931 5.75861 72.5599 5.3162 73.7481C5.12288 74.2673 5.43028 74.056 5.72688 73.914C6.47996 73.5537 7.26747 73.1986 8.06771 72.9864C8.27707 72.9309 8.94517 72.7242 9.14914 72.9336C9.37231 73.1628 9.25823 73.9561 9.25181 74.2534C9.23035 75.2462 8.94159 76.1546 8.66318 77.089C8.45523 77.7869 8.28184 78.4957 7.99926 79.1629C7.83222 79.5573 8.20011 79.2732 8.40309 79.1855C8.65331 79.0774 8.95935 78.9031 9.23812 78.914C9.75791 78.9345 8.6272 82.6447 8.53313 82.8884C8.30013 83.4921 8.09881 84.1839 7.80077 84.7511C7.75203 84.8439 7.95287 84.6174 8.02664 84.5475C8.30212 84.2866 8.58418 84.0388 8.89589 83.8311C9.46923 83.449 10.1946 83.0631 10.8808 83.0543C11.1628 83.0507 11.0272 83.6348 10.9972 83.8084C10.6997 85.5266 9.63348 87.2239 8.66318 88.5671C8.4109 88.9164 8.96291 88.1836 8.98487 88.1599C9.66776 87.4239 10.5067 86.794 11.3052 86.2217C11.4891 86.0899 12.2962 85.3763 12.3182 85.9502C12.3551 86.916 12.0499 87.8209 11.7022 88.6878C11.6549 88.8055 11.2627 89.7085 11.3873 89.5852C11.4095 89.5633 11.6823 89.3024 11.7022 89.4118C11.8064 89.9862 11.6479 90.7023 11.6063 91.2821C11.6024 91.3372 11.548 91.658 11.62 91.7119C11.8089 91.8534 12.3005 91.7421 12.5235 91.7421C12.8143 91.7421 12.8802 91.9318 12.9205 92.2474C12.9742 92.6678 12.8849 93.1156 12.9615 93.5294C12.9858 93.6604 13.1066 93.7343 13.1463 93.8612C13.2606 94.2263 13.1594 94.6282 13.2559 95" stroke="black" stroke-width="2" stroke-linecap="round"/>
</svg>
