<svg width="38" height="49" viewBox="0 0 38 49" fill="none" xmlns="http://www.w3.org/2000/svg">
<path d="M10.6402 15.8301C10.9668 16.2657 11.5172 17.2782 12.0953 17.3938L21.8444 17.5373C22.5421 17.5373 23.2423 17.5566 23.9393 17.5298C24.4481 17.5102 24.9439 17.4552 25.4491 17.4014C25.9528 17.3478 26.4564 17.237 26.959 17.1976C27.5669 17.1499 28.1338 16.8893 28.5782 16.4767C28.7142 16.3504 28.8834 16.2092 29.0614 16.1445C29.1637 16.1073 29.2091 16.0014 29.3162 15.9746C29.4004 15.9536 30.6073 14.7143 30.6642 14.6574C30.6642 13.0383 31.446 11.5955 31.446 9.97714C31.446 8.33272 31.5959 6.72106 31.6415 5.07973C31.6766 3.81512 32.0224 2.34326 33.4006 2.34326C34.0588 2.34326 34.6434 2.53872 35.2684 2.53872C36.233 2.53872 36.3326 2.67971 36.3326 3.61376C36.3326 4.99922 36.3627 6.38778 36.3326 7.77276C36.3026 9.15031 35.7462 10.375 35.7462 11.7689C35.7462 16.3087 35.4561 20.6927 34.4105 25.1363C34.0755 26.5599 34.1825 28.0571 34.1825 29.5125C34.1825 31.3322 35.5507 32.7877 35.5507 34.5293C35.5507 36.6414 35.7361 38.8523 35.453 40.947C35.3218 41.9178 35.3817 42.5998 34.7254 43.3903C34.4494 43.7228 33.1732 45.3092 32.6296 44.8563C31.4031 43.8342 30.6739 41.9582 29.8823 40.6104C29.1677 39.3936 27.7609 37.2373 26.1685 37.331C25.1792 37.3892 24.2139 39.1711 24.2139 39.9806C24.2139 41.1962 23.4875 42.6095 23.0846 43.7378C22.8771 44.3188 22.4146 45.0382 22.0725 45.5704L22.0638 45.5838C21.5344 46.4073 20.3895 48.8466 19.4142 47.5927C18.8578 46.8773 18.7622 46.0422 18.2632 45.258C17.4066 43.912 18.0883 41.6466 17.6116 40.1109C16.6324 36.9554 16.2513 33.5468 14.9186 30.5007C14.4703 29.476 13.6625 28.6178 12.9748 27.7533C12.1029 26.6571 11.312 25.3094 10.2492 24.387C8.831 23.1561 7.36542 21.8017 5.84048 20.7167C3.43825 19.0074 1.9947 15.4014 1.26884 12.6593C1.11598 12.0818 0.792236 9.762 1.19283 9.22787C1.21184 9.20252 2.60195 9.83008 2.71309 9.86855C4.77364 10.5818 6.56225 11.9195 8.22946 13.2674C9.15602 14.0165 9.93152 14.8853 10.6402 15.8301Z" fill="#AFAFAF" stroke="black" stroke-width="2" stroke-linecap="round"/>
<path d="M13.2599 20.2244C13.3948 16.852 16.2385 13.4597 18.8826 11.6292C18.7151 11.2941 18.7102 10.968 18.5145 10.6353C18.241 10.1702 17.6173 9.98037 17.401 9.47577C17.1748 8.94796 16.5553 8.33827 16.0758 8.05858C15.5477 7.75049 15.1505 7.03212 14.6126 6.65978C13.012 5.55165 13.1208 3.59251 14.3458 2.09531C14.7295 1.62629 15.3314 1.61823 15.901 1.69959C16.3791 1.7679 16.7139 2.49714 17.0973 2.75789C18.2926 3.57071 19.6774 4.62587 20.2814 6.0064C20.5044 6.51615 20.8199 6.97983 21.0268 7.49722C21.1255 7.7438 21.2017 8.53422 21.2017 7.90213V6.29168C21.2017 5.23536 21.2033 4.24299 21.4962 3.21802C21.592 2.88248 21.6428 1.8695 21.9563 1.69039C22.7134 1.25777 24.423 0.299162 24.5146 1.85604C24.5892 3.12379 24.6803 4.50545 24.6803 5.84075V9.54939C24.6803 10.3113 24.4407 11.284 25.0115 11.7948C26.1646 12.8265 27.788 13.3208 28.8306 14.5372C29.5909 15.4241 30.388 16.6845 30.7724 17.7949C31.3119 19.3536 31.0792 21.5603 30.5515 23.068C30.1359 24.2555 29.4093 25.4264 28.3981 26.1969C27.3805 26.9722 26.0471 26.8686 24.8459 26.8686C21.4337 26.8686 17.4644 27.2408 14.7415 24.7797C13.19 23.3773 13.1812 22.1901 13.2599 20.2244Z" fill="#AFAFAF" stroke="black" stroke-width="2" stroke-linecap="round"/>
<path d="M16.9395 20.4878C17.741 20.3605 18.524 20.2144 19.3335 20.2144C19.5234 20.2144 19.6322 20.2518 19.771 20.3906C20.014 20.6336 20.1488 21.1498 20.2631 21.4478C20.3659 21.7157 20.4393 21.9524 20.4393 22.2377" stroke="black" stroke-width="2" stroke-linecap="round"/>
<path d="M26.0717 19.0659C25.3817 19.0834 24.7814 19.394 24.103 19.394" stroke="black" stroke-width="2" stroke-linecap="round"/>
</svg>
