<svg width="344" height="201" viewBox="0 0 344 201" fill="none" xmlns="http://www.w3.org/2000/svg">
<path d="M24.1686 90.3317C30.4581 85.6187 31.7839 81.5214 38.4005 77.5676C44.8545 77.5676 51.4753 77.2365 57.9843 77.2365C65.4182 77.2365 73.2327 76.3905 80.5878 77.8986C86.2669 79.0631 91.7038 79.2229 97.4658 79.2229C104.278 79.2229 110.842 80.742 117.453 82.5335C121.876 83.7318 126.232 85.3014 130.609 86.7269C135.423 88.2948 140.459 89.4183 145.154 91.472C150.932 93.9995 155.59 98.3545 159.7 103.905C161.919 106.901 163.022 109.856 163.453 113.966C164.192 121.014 164.117 128.756 163.617 135.834C161.778 161.894 146.43 186.734 125.257 192.371C119.959 193.782 114.867 196.058 109.5 197.19C100.823 199.021 91.926 199.789 83.1442 200.353C64.5482 201.549 45.7662 200.897 27.1735 199.93C22.2434 199.674 16.5675 200.547 11.9251 198.054C9.58525 196.798 7.79635 194.104 6.31901 191.636C-0.547039 180.162 -0.315953 165.64 0.264486 152.001C0.727309 141.125 3.45071 130.85 6.88709 120.899C9.24612 114.068 11.7597 107.195 15.2588 101.11C17.7577 96.7636 20.4599 93.1109 24.1686 90.3317Z" fill="#FFAD4C"/>
<path d="M207.579 88.5467C213.715 83.7577 215.009 79.5944 221.464 75.5767C227.761 75.5767 234.22 75.2403 240.57 75.2403C247.823 75.2403 255.447 74.3806 262.622 75.9131C268.163 77.0964 273.467 77.2587 279.089 77.2587C285.735 77.2587 292.138 78.8024 298.588 80.6227C302.903 81.8404 307.153 83.4353 311.423 84.8837C316.12 86.477 321.034 87.6186 325.614 89.7054C331.251 92.2737 335.795 96.6989 339.805 102.339C341.97 105.383 343.045 108.386 343.466 112.562C344.187 119.724 344.114 127.591 343.626 134.783C341.832 161.263 326.859 186.504 306.202 192.232C301.033 193.665 296.065 195.978 290.829 197.129C282.364 198.989 273.684 199.769 265.116 200.343C246.974 201.557 228.65 200.895 210.511 199.913C205.701 199.653 200.163 200.539 195.634 198.007C193.351 196.73 191.606 193.993 190.165 191.484C183.466 179.826 183.692 165.07 184.258 151.21C184.71 140.159 187.367 129.719 190.719 119.607C193.021 112.666 195.473 105.682 198.887 99.4984C201.325 95.0823 203.961 91.3707 207.579 88.5467Z" fill="#FFAD4C"/>
<path d="M64.6158 48.2365C64.783 48.7463 65.2086 51.0053 66.0775 51.1022C64.1398 51.5882 62.8901 54.8608 62.1214 56.4031C60.6461 59.3632 61.2497 63.4736 61.2497 66.7089C61.2497 70.3907 61.9695 73.2816 64.2671 76.2882C66.0844 78.6663 67.4962 80.4952 70.0739 82.1003C72.8899 83.8539 75.4352 84.0377 78.6567 84.0377C81.0011 84.0377 83.5644 84.323 85.8984 84.0108C87.3924 83.811 89.0161 83.1057 90.4043 82.5309C92.1049 81.8268 93.5233 81.0223 94.8566 79.7324C96.1147 78.5154 96.5754 77.4132 97.2534 75.7911L97.2534 75.791L97.2705 75.75C98.999 71.615 99.3894 67.6546 99.3894 63.1974C99.3894 61.0171 99.7444 57.997 98.0618 56.3089C97.4215 55.6666 96.911 54.8654 96.305 54.1966C95.8228 53.6645 94.9517 52.6784 94.6152 52.0709C94.1336 51.201 92.7791 49.7486 91.9063 49.1648C91.9063 41.5001 92.0723 33.0928 91.9063 25.4318C91.834 22.0943 90.2977 19.0944 89.7874 15.8526L89.783 15.8242C89.6445 14.9437 89.3728 13.2157 88.2855 13.0945C87.2356 12.9774 86.2344 13.2159 85.201 13.3232C84.2767 13.4191 83.7268 15.8548 83.4576 16.4849C81.1858 21.803 79.8368 27.9345 79.8368 33.733V41.9803C79.8368 42.4889 80.1773 45.7979 79.4613 46.0031C78.3601 46.3188 76.6582 46.0784 75.532 46.0031C74.6812 45.9462 74.5692 45.7814 74.5262 45.0479C74.486 44.3618 73.9922 43.0369 73.7484 42.3301C73.1778 40.6764 73.3603 38.8142 72.9303 37.1369C72.4 35.0679 71.738 33.0225 71.2004 30.948C70.5209 28.3262 70.3458 25.5739 69.6984 22.9294C68.9776 19.9853 68.3684 17.0262 67.5527 14.1035C67.1962 12.8261 66.6648 9.69127 65.2997 9.07172C62.8654 7.96691 60.4568 12.8171 59.9087 14.3726C58.9794 17.0095 59.56 20.5085 59.56 23.2657C59.56 26.9936 59.8548 30.4386 60.5792 34.0963C61.5248 38.8712 63.0986 43.6117 64.6158 48.2365Z" fill="#AFAFAF" stroke="black" stroke-width="1.668" stroke-linecap="round"/>
<path d="M66.2839 64.1374C66.1737 63.3995 66.8387 62.0138 67.305 61.4516C67.6536 61.1076 67.9505 60.6132 68.3549 60.3404C68.6972 60.1096 69.0415 59.8642 69.3904 59.6501C69.5249 59.5676 69.9353 59.3809 70.0808 59.3049C70.5096 59.0809 70.9868 58.9893 71.4615 58.9598C72.1518 58.9598 72.1518 58.9598 72.8422 59.3049C73.3212 59.3786 73.8073 59.6678 74.2507 59.8734C74.9342 60.1902 75.4948 60.8561 76.0076 61.3913C76.5632 61.9713 76.9408 62.7914 77.0865 63.5807C77.1381 63.8605 77.092 64.1981 77.0865 64.4826C77.0782 64.9095 76.9903 65.3195 76.7876 65.6861C76.5099 66.1883 76.3528 66.8452 75.9487 67.244C75.6146 67.5736 75.2832 67.9891 74.9132 68.2795C74.167 68.8651 73.0654 69.0729 72.155 69.3558C71.5213 69.5526 70.9538 69.6125 70.0807 69.315C69.097 68.9798 68.144 68.5214 67.474 67.7327C66.9344 67.0974 66.4392 66.5536 66.2839 65.5715C66.1119 65.0985 66.3586 64.6374 66.2839 64.1374Z" fill="white" stroke="black" stroke-width="1.668" stroke-linecap="round"/>
<path d="M83.3594 57.7648C83.893 57.2716 85.204 56.8106 85.9675 56.5939C86.9299 56.4656 87.3391 56.5437 88.1967 56.6246C89.0649 56.889 90.2244 56.5939 91.805 58.9601C93.207 61.7214 92.7532 62.0646 92.6311 63.0851C92.5175 64.0348 92.3158 64.9919 91.805 65.8092C91.395 66.4653 90.8354 67.05 90.2244 67.5246C89.4872 68.0974 88.6467 68.1459 87.7495 68.1459C86.7078 68.1459 85.7456 67.8663 84.7693 67.5246C83.9877 67.2511 83.2606 66.8659 82.6767 66.2684C81.999 65.5748 81.7221 64.5308 81.5348 63.6023C81.4385 63.125 81.474 62.611 81.4972 62.1275C81.5159 61.7405 81.5186 61.3809 81.6201 61.0044C81.8524 60.1438 82.2321 59.2972 82.7245 58.5533C82.9089 58.2747 83.1132 57.9923 83.3594 57.7648Z" fill="white" stroke="black" stroke-width="1.668" stroke-linecap="round"/>
<path d="M71.4697 59.7949C71.6474 59.9128 71.8287 60.0247 71.9613 60.1948C72.0186 60.2684 72.0727 60.3446 72.1267 60.4206C72.1913 60.5115 72.2384 60.6117 72.2914 60.7091C72.3547 60.8257 72.4079 60.9473 72.4513 61.073C72.501 61.2168 72.5676 61.3555 72.6019 61.5042C72.6776 61.8322 72.66 62.1745 72.6552 62.5094C72.6521 62.723 72.5879 62.9355 72.5423 63.1429C72.4882 63.3893 72.4077 63.6315 72.3275 63.8705C72.2343 64.1481 72.0787 64.41 71.8507 64.5934C71.7 64.7146 71.542 64.8233 71.3881 64.94C71.2301 65.0598 71.0668 65.1805 70.8863 65.2646C70.5484 65.4221 70.1915 65.5217 69.8388 65.6378C69.5696 65.7264 69.2951 65.7716 69.0155 65.8181C68.7211 65.8672 68.43 65.9297 68.1311 65.9452C68.008 65.9515 67.8843 65.9483 67.761 65.9483C67.7108 65.9483 67.6694 65.934 67.6622 65.9969C67.6472 66.1288 67.7006 66.2587 67.7642 66.3701C67.917 66.6381 68.0774 66.8991 68.2722 67.1385C68.7089 67.6752 69.2072 68.2762 69.8639 68.5483C70.0072 68.6077 70.172 68.6456 70.3249 68.6659C70.4715 68.6853 70.5994 68.7276 70.7389 68.7741C70.7705 68.7846 70.7959 68.7963 70.8236 68.8102C70.8236 68.8102 70.7955 68.6427 70.7922 68.6298C70.7366 68.4071 70.6935 68.1834 70.6935 67.9524C70.6935 67.593 70.8022 67.253 70.8816 66.9064C70.9791 66.4812 71.0648 66.0497 71.1906 65.6315C71.2962 65.2803 71.3975 64.9325 71.6249 64.6389C71.8361 64.3664 72.106 64.1866 72.4231 64.054C72.8151 63.8901 73.2402 63.8918 73.6525 63.8172C74.0351 63.748 74.4296 63.7418 74.8177 63.7466C74.9251 63.748 75.0111 63.7853 75.1078 63.8282C75.2334 63.8839 75.363 63.9309 75.4888 63.9866C75.5083 63.9952 75.6994 64.1005 75.7146 64.0822C75.75 64.0398 75.7212 63.8238 75.7115 63.7717C75.6312 63.3409 75.2459 63.0172 74.9509 62.7258C74.7854 62.5622 74.6095 62.3964 74.4789 62.2036C74.3703 62.043 74.288 61.8633 74.1763 61.7033C74.1637 61.6854 74.0601 61.5055 74.0305 61.523C74.0103 61.5349 73.5334 59.7949 73.996 61.5842C73.9485 61.6798 73.9005 61.7748 73.847 61.8672C73.7518 62.0316 73.6426 62.1879 73.5334 62.3431C73.3698 62.5756 73.2433 62.8166 73.1005 63.0614C72.9191 63.3724 72.7165 63.6704 72.5141 63.9677C72.2716 64.324 72.0499 64.6907 71.7943 65.0388C71.5561 65.3632 71.2906 65.6717 71.0243 65.9734C70.8 66.2275 70.583 66.4799 70.3171 66.6916C70.1502 66.8245 70.0146 66.9908 69.842 67.1166C69.7112 67.2117 69.6138 67.3404 69.4907 67.4443C69.3781 67.5393 69.2845 67.6557 69.1833 67.7626C69.1575 67.7899 69.0992 67.9421 69.1849 67.8944C69.3082 67.8257 69.4277 67.7351 69.5362 67.645C69.5681 67.6185 69.6074 67.5975 69.6208 67.5572" stroke="black" stroke-width="1.668" stroke-linecap="round"/>
<path d="M87.1256 56.8149C87.4936 57.2142 87.8414 57.5757 88.0263 58.0882C88.0969 58.284 88.148 58.4751 88.17 58.6823C88.2125 59.0817 88.1874 59.4981 88.0752 59.8831C87.9098 60.4513 87.6624 60.9922 87.2417 61.413C87.0116 61.643 86.745 61.8304 86.4677 61.9996C86.1343 62.2029 85.7714 62.4199 85.4031 62.551C84.8736 62.7395 84.3513 62.8939 83.7998 63.0056C83.571 63.0519 83.3475 63.1342 83.1142 63.1536C83.0255 63.161 82.9409 63.1694 82.8534 63.1855C82.8089 63.1937 82.7444 63.1828 82.7032 63.2004C82.5454 63.2681 83.3021 64.4769 83.3665 64.5919C83.5629 64.9425 83.6987 65.3286 83.8445 65.7023C83.8929 65.8262 83.9415 65.9506 83.9797 66.0781C83.9844 66.0937 83.9829 65.989 83.9829 65.9727C83.9829 65.4339 83.938 64.8758 84.001 64.3406C84.0075 64.2853 84.113 64.6082 84.1213 64.6419C84.2231 65.0559 84.3126 65.4723 84.4194 65.8854C84.4923 66.1671 84.5861 66.4204 84.6919 66.6849C84.779 66.9027 84.9859 67.0736 85.1476 67.2353C85.2337 67.3214 85.2652 67.0587 85.2775 67.0064C85.3348 66.7618 85.439 66.5289 85.5244 66.2931C85.6602 65.9185 85.7793 65.5391 85.9524 65.1785C86.0486 64.9781 86.1069 64.7623 86.1973 64.5599C86.2768 64.3819 86.3698 64.2039 86.456 64.0287C86.6654 63.6028 86.8674 63.1598 87.1235 62.7597C87.3442 62.4148 87.6044 62.1076 87.9411 61.8697C88.4199 61.5314 88.9846 61.3999 89.5636 61.3778C89.8296 61.3677 90.0979 61.3733 90.3641 61.3757C90.5175 61.3771 90.6503 61.3916 90.79 61.4524C90.9739 61.5323 91.1805 61.6339 91.3319 61.7675C91.4079 61.8346 91.535 61.9046 91.6289 61.9463C91.6881 61.9726 91.6843 61.7034 91.6853 61.6706C91.693 61.4281 91.7135 61.1593 91.664 60.9211C91.5932 60.5801 91.4468 60.2682 91.3074 59.9513C91.1112 59.5055 90.8866 59.0445 90.6154 58.6397C90.496 58.4615 90.366 58.3018 90.2108 58.1553C90.1417 58.09 90.0464 57.9624 89.9532 57.9285C89.8487 57.8905 88.8934 58.0155 88.8893 58.0667C88.856 58.4844 89.7515 59.3178 89.736 59.7362C89.7277 59.9615 89.6934 60.1884 89.6934 60.4133C89.6934 60.4749 89.6744 60.5175 89.6445 60.5719C89.5596 60.7262 89.4137 60.8131 89.2633 60.8966C88.9304 61.0816 88.5824 61.2307 88.2328 61.38C87.8677 61.5359 87.52 61.6819 87.2289 61.9517C86.9243 62.2339 86.6693 62.5767 86.3889 62.8832C86.2665 63.017 86.1379 63.1436 86.0131 63.275C85.8642 63.4317 85.7478 63.5958 85.5755 63.7306C85.4521 63.8273 85.3405 63.9382 85.2093 64.0244C85.1272 64.0784 85.0195 64.1477 84.9602 64.2267C84.9187 64.282 84.8261 64.413 84.7686 64.4418" stroke="black" stroke-width="1.668" stroke-linecap="round"/>
<path d="M60.4522 7.34778C60.5984 7.07079 60.7615 6.49325 61.3622 6.13445C61.963 5.77573 62.3926 5.98278 62.8958 5.98278H64.3029C64.7455 5.98278 65.6659 5.96396 65.9881 6.28611C66.4492 6.74726 67.0697 7.1575 67.4626 7.69324C68.2153 8.71967 69.0631 9.69172 69.7755 10.7603C69.9237 10.9826 70.0235 11.3374 70.0999 11.5944C70.1726 11.8389 70.3472 12.0374 70.4285 12.2769C70.65 12.929 70.923 13.5621 71.1447 14.2149C72.4518 18.0635 72.8707 22.1498 73.2301 26.1755C73.4472 28.606 73.5714 31.0612 73.5714 33.5018C73.5714 34.3173 71.1338 34.1694 70.6097 34.2349C69.3967 34.3865 68.1784 34.3444 66.957 34.3444C64.9872 34.3444 63.0451 34.3084 61.08 34.1928C60.6055 34.1649 59.0061 34.1893 58.7671 33.7378C58.668 33.5506 58.5635 33.3874 58.5564 33.1311C58.4458 29.1495 58.4806 25.1576 58.4806 21.1705C58.4806 18.5005 58.3039 15.7729 58.6702 13.128C58.8793 11.6171 59.4317 10.2962 59.8624 8.84759C60.0191 8.32059 60.1967 7.83191 60.4522 7.34778Z" fill="#6C11A4" stroke="black" stroke-width="1.668" stroke-linecap="round"/>
<path d="M83.0419 11.9828C83.1502 11.859 85.0627 9.64666 85.2495 9.92695L85.9489 9.92687C86.1561 9.92687 86.6192 9.93551 86.8083 10.0196C87.3583 10.264 87.8083 10.8595 88.2239 11.275C88.7887 11.8399 89.2594 12.4117 89.6647 13.1119C89.7569 13.2711 89.9379 13.3606 90.027 13.5247C90.1403 13.7334 90.1931 13.9376 90.2714 14.1567C90.4027 14.5243 90.5931 15.0009 90.7896 15.3447C91.0391 15.7814 91.0736 16.2332 91.1982 16.7139C91.3573 17.3277 91.458 17.9553 91.5858 18.5761C91.8642 19.9282 92.0705 21.2894 92.3189 22.6416C92.4449 23.3276 92.6685 24.0864 92.6812 24.7818C92.6933 25.4464 92.6233 26.1967 92.8328 26.8377C93.1323 27.7538 93.212 28.9904 93.212 29.9511V31.6531C93.212 32.0536 93.393 32.7659 92.9803 32.9465C92.1671 33.3023 91.3924 33.441 90.5536 33.7006C88.0471 34.4764 85.3164 34.3452 82.726 34.3452H80.7416C80.0745 34.3452 79.3929 34.5404 78.7405 34.5179C78.5153 34.5102 78.5446 33.8065 78.5004 33.6627C78.3176 33.0686 78.3487 32.2952 78.3487 31.6742V29.3233C78.3487 27.0177 78.7226 24.6982 79.2587 22.4646C79.6273 20.9289 79.8029 19.3661 80.392 17.8936C80.7805 16.9222 81.0969 15.8758 81.4284 14.8813C81.7544 13.9033 82.3694 12.7514 83.0419 11.9828Z" fill="#6C11A4" stroke="black" stroke-width="1.668" stroke-linecap="round"/>
<circle cx="62.1421" cy="4.76803" r="3.30805" fill="#FFFF00" stroke="black" stroke-width="1.668"/>
<circle cx="86.9941" cy="9.60055" r="3.30805" fill="#FFFF00" stroke="black" stroke-width="1.668"/>
<path d="M80.7436 22.3959C80.5812 22.0067 79.9556 21.4868 79.6534 21.1846C79.5095 21.4005 79.5782 21.7565 79.5782 22.0032C79.5782 22.5919 79.5877 23.1815 79.5782 23.77C79.5662 24.5131 79.3245 25.2365 79.2023 25.9629C78.9903 27.2231 79.0605 28.5024 78.8264 29.7555C78.735 30.2445 78.7888 30.7759 78.7888 31.2717C78.7888 31.356 78.7077 31.9116 78.9016 31.8147C79.0847 31.7231 79.2219 31.5126 79.3986 31.4011C79.6637 31.234 79.8452 30.9684 80.1129 30.7997C80.7085 30.4241 81.168 29.8851 81.6666 29.3963C81.802 29.2636 81.9502 29.278 82.0802 29.4004C82.2745 29.5837 82.595 29.6056 82.8195 29.7638C82.9521 29.8573 83.0793 29.9459 83.2246 30.0186C83.3789 30.0958 83.4903 30.2309 83.6381 30.311C83.834 30.4171 84.1546 30.4135 84.3732 30.4697C84.6902 30.5512 84.9845 30.6581 85.2754 30.808C85.3238 30.8329 85.6494 31.038 85.6012 30.9417C85.5487 30.8366 85.5414 30.7091 85.4801 30.6117C85.3993 30.4834 85.3449 30.3379 85.288 30.1982C85.1019 29.7414 84.8298 29.3191 84.5946 28.8867C84.3611 28.4573 84.1251 28.0278 83.8846 27.6023C83.7658 27.3923 83.5728 27.1979 83.5337 26.9528C83.5021 26.7544 83.6705 26.6049 83.7885 26.4558C84.645 25.3724 85.6981 24.3932 86.3907 23.1769C86.5562 22.8863 86.683 22.6587 86.683 22.3186C86.683 22.2505 86.7312 21.9982 86.6079 22.0199C86.3794 22.0603 86.1814 22.1403 85.9437 22.1703C84.764 22.3195 83.5925 22.7087 82.5688 23.3106C82.2264 23.512 81.906 23.7222 81.6165 23.9935C81.5066 24.0965 81.5405 24.064 81.4578 24.0123C81.3758 23.961 81.3363 23.7657 81.2991 23.6844C81.1045 23.2588 80.9237 22.8277 80.7436 22.3959Z" fill="#FFFF00" stroke="black" stroke-width="1.668" stroke-linecap="round"/>
<path d="M69.7669 13.0479C69.8968 12.7927 70.0322 12.251 70.3322 12.1597C70.7447 13.8441 71.1586 15.5281 71.5687 17.2131C71.617 17.4116 71.6732 17.6168 71.7108 17.8198C71.7647 18.1113 71.8043 18.4074 71.8519 18.7001C71.9152 19.0899 71.9383 19.4852 71.9997 19.8742C72.0363 20.106 72.0256 20.3409 72.0256 20.575V21.0512C72.0256 21.1753 71.9894 21.3673 72.0602 21.4736C71.8576 21.4736 71.3538 20.9191 71.1724 20.8231C70.9614 20.7114 70.8117 20.6581 70.5751 20.6581C70.4783 20.6581 70.4253 20.7352 70.3517 20.7876C70.0795 20.9812 69.8406 21.2378 69.5873 21.4559C69.2284 21.7648 68.8981 22.0592 68.5097 22.333C68.1844 22.5623 67.9088 22.9202 67.5657 23.1141C67.5453 23.1256 67.5811 22.6349 67.5845 22.592C67.6171 22.1846 67.6951 21.7817 67.6994 21.364C67.7047 20.8415 67.8184 20.1136 67.5845 19.6264C67.3694 19.1784 66.9869 18.8477 66.6384 18.507C66.3957 18.2697 66.1063 18.0783 65.8532 17.8512C65.3668 17.415 64.9457 16.9061 64.5584 16.381C64.4984 16.2997 64.2223 15.9053 64.4331 15.8819C64.6855 15.8538 64.9301 15.8513 65.1849 15.8443C65.675 15.8307 66.1654 15.7705 66.6551 15.7419C67.1343 15.714 67.6143 15.7281 68.0941 15.6981C68.2413 15.6889 68.4278 15.734 68.5473 15.6208C68.8623 15.3223 68.9756 14.7677 69.1425 14.3845C69.34 13.9308 69.5422 13.4892 69.7669 13.0479Z" fill="#FFFF00" stroke="black" stroke-width="1.668" stroke-linecap="round"/>
<path d="M59.4795 26.4095C59.3184 26.4236 58.8673 26.3264 58.7041 26.3264C58.5717 28.2799 58.6909 30.4234 58.6909 32.3818L58.6908 33.4173C58.6908 33.5028 58.9171 33.7526 59.0361 33.7625C59.3936 33.7923 59.1817 33.6144 59.5395 33.6542C60.4944 33.7603 61.4713 33.737 62.4308 33.737C63.2613 33.737 64.0919 33.7337 64.9224 33.737C65.3462 33.7387 65.7645 33.8092 66.1869 33.8092C66.1869 33.4173 65.9394 33.0721 65.3501 32.6873C65.2121 32.534 65.1068 32.284 64.947 32.1611C64.679 31.9549 64.4826 31.6506 64.2432 31.4113C63.7363 30.9044 63.1409 30.3795 62.8586 29.7051C62.7327 29.4043 62.8565 29.1752 63.0006 28.9198C63.2867 28.4131 63.6309 27.9382 63.953 27.4537C64.2892 26.9479 64.7494 26.405 64.9679 25.829C65.0073 25.7251 64.993 25.6037 64.993 25.4948C64.993 25.385 64.7932 25.4464 64.734 25.4551C63.6762 25.6112 62.6397 25.9118 61.5889 26.1088C60.8909 26.2397 60.1872 26.348 59.4795 26.4095Z" fill="#FFFF00" stroke="black" stroke-width="1.668" stroke-linecap="round"/>
<path d="M75.5553 75.2691C75.8406 73.993 75.8468 72.8368 76.5785 71.7358C76.6982 71.5557 76.9923 71.0703 77.2897 71.0744C77.5623 71.0782 77.7076 71.3011 77.8717 71.4831C78.2042 71.8521 78.6054 72.1548 78.9253 72.5346C79.2703 72.9441 79.5601 73.3976 79.8267 73.8572C79.8878 73.9626 79.8418 73.9886 79.9218 73.7755C80.1501 73.1677 80.4274 72.5843 80.77 72.0293C81.1246 71.4547 81.5025 70.8469 81.9719 70.3536C82.0932 70.2262 82.3876 69.8542 82.6071 69.8706C82.8105 69.8859 83.0235 70.2767 83.1168 70.4168C83.4449 70.9097 83.7308 71.4419 83.9612 71.9847C84.2653 72.7011 84.4914 73.4495 84.6762 74.2028C84.7671 74.573 84.8064 74.9383 84.874 75.31C84.906 75.4856 85.0504 75.5044 84.8514 75.5044C84.2329 75.8065 84.2625 75.8401 83.8471 76.3837C83.5888 76.7217 83.2264 76.967 82.8772 77.2085C82.4238 77.522 81.9433 77.8469 81.4242 78.0482C80.7973 78.2912 80.1596 78.4109 79.492 78.4829C79.2143 78.5128 78.7183 78.5966 78.4841 78.3937C78.2251 78.1694 77.9112 78.015 77.6283 77.8215C76.9454 77.3546 76.3609 76.7522 75.8824 76.0865C75.8237 76.0048 75.3731 75.4153 75.5553 75.2691Z" fill="#FF0000"/>
<path d="M75.5553 75.2691C75.8406 73.993 75.8468 72.8368 76.5785 71.7358C76.6982 71.5557 76.9923 71.0703 77.2897 71.0744C77.5623 71.0782 77.7076 71.3011 77.8717 71.4831C78.2042 71.8521 78.6054 72.1548 78.9253 72.5346C79.2703 72.9441 79.5601 73.3976 79.8267 73.8572C79.8878 73.9626 79.8418 73.9886 79.9218 73.7755C80.1501 73.1677 80.4274 72.5843 80.77 72.0293C81.1246 71.4547 81.5025 70.8469 81.9719 70.3536C82.0932 70.2262 82.3876 69.8542 82.6071 69.8706C82.8105 69.8859 83.0235 70.2767 83.1168 70.4168C83.4449 70.9097 83.7308 71.4419 83.9612 71.9847C84.2653 72.7011 84.4914 73.4495 84.6762 74.2028C84.7671 74.573 84.8064 74.9383 84.874 75.31C84.906 75.4856 85.0504 75.5044 84.8514 75.5044M75.5553 75.2691C75.6672 75.1793 76.1344 75.2542 76.2514 75.2542C78.454 75.2542 80.6615 75.2274 82.862 75.3434C83.4652 75.3752 84.247 75.5044 84.8514 75.5044M75.5553 75.2691C75.3731 75.4153 75.8237 76.0048 75.8824 76.0865C76.3609 76.7522 76.9454 77.3546 77.6283 77.8215C77.9112 78.015 78.2251 78.1694 78.4841 78.3937C78.7183 78.5966 79.2143 78.5128 79.492 78.4829C80.1596 78.4109 80.7973 78.2912 81.4242 78.0482C81.9433 77.8469 82.4238 77.522 82.8772 77.2085C83.2264 76.967 83.5888 76.7217 83.8471 76.3837C84.2625 75.8401 84.2329 75.8065 84.8514 75.5044" stroke="black" stroke-width="1.668" stroke-linecap="round"/>
<path d="M105.637 56.513L106.283 56.338L107.298 58.5538L108.072 58.3443C108.245 58.2975 108.308 58.1876 108.261 58.0146L107.955 57.4089C107.951 56.8566 108.183 56.517 108.651 56.3901C108.932 56.4051 109.131 56.6281 109.247 57.0589L109.457 57.8324L109.971 57.6932L110.652 57.6455L110.408 56.7446C110.283 56.2823 110.372 55.9341 110.677 55.6997L111.196 55.5592L111.882 57.5906C112.441 59.6534 111.774 60.9412 109.881 61.4539L109.626 61.5229C108.774 61.7537 107.927 61.5225 107.084 60.8293C106.252 59.4649 105.746 58.4479 105.564 57.7781L105.355 57.0045C105.321 56.8819 105.415 56.718 105.637 56.513ZM110.038 59.4724L110.143 59.8592C110.715 59.5793 110.97 59.3261 110.909 59.0997L110.804 58.713C110.241 59.0274 109.986 59.2806 110.038 59.4724ZM108.035 59.7415C108.12 59.9074 108.382 60.0204 108.82 60.0806C108.769 59.8888 108.765 59.7059 108.809 59.532L108.035 59.7415ZM110.188 62.0644L110.834 61.8893C111.252 62.7584 111.535 63.4665 111.683 64.0136L111.943 63.9434C112.301 63.8463 112.763 63.6756 113.328 63.4315C113.788 63.4248 114.039 63.4954 114.079 63.6432L114.113 63.7706L114.098 64.7417L110.999 65.5811C109.367 66.0231 108.493 66.0303 108.377 65.6027C108.278 65.2379 108.368 64.8896 108.646 64.5578L109.587 64.4446L110.361 64.2351L110.011 62.9427C109.925 62.4125 109.984 62.1197 110.188 62.0644ZM112.75 54.5864L113.396 54.4114L114.411 56.6273L115.185 56.4177C115.358 56.3709 115.421 56.261 115.374 56.0881L115.068 55.4824C115.064 54.93 115.296 54.5904 115.764 54.4635C116.045 54.4786 116.244 54.7015 116.36 55.1323L116.57 55.9058L117.084 55.7666L117.765 55.7189L117.521 54.818C117.396 54.3558 117.485 54.0075 117.79 53.7731L118.308 53.6326L118.995 55.6641C119.554 57.7269 118.887 59.0146 116.994 59.5274L116.739 59.5963C115.887 59.8272 115.04 59.596 114.197 58.9027C113.365 57.5384 112.858 56.5213 112.677 55.8515L112.468 55.0779C112.434 54.9553 112.528 54.7915 112.75 54.5864ZM117.151 57.5458L117.256 57.9326C117.828 57.6527 118.083 57.3996 118.022 57.1732L117.917 56.7864C117.354 57.1009 117.099 57.354 117.151 57.5458ZM115.148 57.8149C115.233 57.9808 115.495 58.0938 115.933 58.154C115.881 57.9622 115.877 57.7793 115.921 57.6054L115.148 57.8149ZM117.301 60.1378L117.947 59.9628C118.365 60.8318 118.648 61.5399 118.796 62.0871L119.055 62.0168C119.414 61.9197 119.876 61.7491 120.441 61.5049C120.901 61.4983 121.152 61.5689 121.192 61.7166L121.226 61.844L121.211 62.8152L118.112 63.6545C116.48 64.0966 115.606 64.1038 115.49 63.6761C115.391 63.3113 115.481 62.9631 115.759 62.6312L116.7 62.518L117.474 62.3085L117.124 61.0161C117.038 60.4859 117.097 60.1931 117.301 60.1378ZM121.186 52.4431L121.573 52.3384C122.208 52.1663 122.587 52.202 122.71 52.4453C122.756 52.6152 122.787 53.0694 122.801 53.808C123.795 54.4263 124.31 54.7933 124.345 54.9088L124.449 55.2955C124.369 55.6851 124.158 55.9263 123.815 56.0192C123.16 55.6432 122.809 55.3703 122.763 55.2004L122.504 55.2707C122.634 55.7518 122.459 56.1215 121.979 56.3799C121.721 56.4497 121.467 56.1962 121.216 55.6195C121.357 54.4337 121.409 53.7732 121.373 53.6379L121.245 53.6724C121.118 53.8014 120.957 53.8922 120.762 53.945L120.248 54.0843C120.126 54.1175 119.962 54.0235 119.757 53.8023C119.593 53.1985 120.07 52.7455 121.186 52.4431ZM125.322 51.8799C125.699 51.7777 126.015 51.9216 126.269 52.3118L126.351 53.1199C127.479 53.6447 128.099 53.8918 128.212 53.8611L128.387 54.5073C128.427 54.6551 128.247 54.8424 127.846 55.0691L126.146 54.4207C126.232 55.1366 125.983 55.5738 125.398 55.7322C125.275 55.7654 125.112 55.6714 124.906 55.4502C124.829 55.164 124.857 54.4191 124.99 53.2152C124.828 53.3298 124.38 53.5425 123.644 53.8532C123.37 53.8633 123.152 53.7383 122.99 53.4783C123.019 52.8258 123.796 52.2929 125.322 51.8799ZM125.792 56.1773L126.473 56.1297L126.682 56.9032L126.985 57.5149L127.503 57.3744L128.826 57.153L129.035 57.9265C129.051 58.1989 128.742 58.421 128.107 58.5931L124.758 59.5002C124.572 59.5101 124.342 59.3411 124.069 58.9932C124.064 58.7515 124.22 58.4797 124.537 58.178L125.697 57.8637L125.383 56.7034C125.348 56.5745 125.484 56.3991 125.792 56.1773ZM127.288 59.6451L127.675 59.5404C128.533 59.3079 129.102 59.7073 129.382 60.7387C129.441 60.9588 129.644 61.3646 129.99 61.9561L129.576 62.4834L129.189 62.5882C128.875 62.6734 128.486 62.0867 128.024 60.8281L127.377 61.0031L126.771 61.3042L126.736 61.1768L126.511 61.3745C126.145 61.3824 125.904 61.171 125.787 60.7402L125.718 60.4855C126.202 60.0777 126.725 59.7976 127.288 59.6451Z" fill="black"/>
<path d="M56.148 92.0658C57.4827 92.4041 58.1502 93.2503 58.1505 94.6045L58.1505 94.8682C58.1507 95.8252 57.7065 96.4047 56.8178 96.6067L56.9497 96.8752L56.9499 97.8079L57.7507 97.8077C58.5515 97.8076 58.9519 98.2079 58.9521 99.0086C58.6851 99.0087 58.5517 99.0982 58.5517 99.2773C57.663 99.1863 56.9957 99.1409 56.5498 99.1409L54.5478 99.1413C54.0693 99.1414 53.7584 98.9641 53.6151 98.6093L53.615 98.2089C53.615 97.9126 54.2822 97.7351 55.6169 97.6763L55.6168 97.4077C55.6168 97.2059 55.5728 97.0285 55.4849 96.8755C55.5727 96.703 55.6167 96.5695 55.6166 96.4751C54.5488 96.0098 54.0148 95.1196 54.0146 93.8045C54.3562 92.6456 54.9338 92.066 55.7476 92.0659L56.148 92.0658ZM55.3476 93.6675L55.3476 93.8042C55.3477 94.5009 55.6147 94.9891 56.1486 95.2689L56.549 95.2689C56.7281 95.2688 56.8176 95.1809 56.8175 95.0051L56.8173 93.804L56.1483 93.6674L55.3476 93.6675ZM54.8165 99.942L56.6866 99.9417C57.4418 99.9415 58.1092 100.075 58.6887 100.342L58.6888 100.879L58.8207 101.543L58.6889 101.543L58.8208 101.811L58.8209 102.344C58.821 103.144 58.1098 103.545 56.6873 103.545L55.7498 103.414L55.7499 104.214L57.2197 104.214C57.441 104.214 57.8414 104.303 58.4209 104.482L58.421 105.015C58.4211 105.461 57.6643 105.684 56.1506 105.684C54.995 105.437 54.4171 104.947 54.4169 104.215L54.4167 103.145C54.4166 102.436 54.773 102.081 55.4859 102.081L56.1499 102.08C56.3517 102.08 56.5308 102.124 56.6871 102.212C56.8335 102.124 57.0549 102.08 57.3511 102.08L57.351 101.411L55.2172 101.412C54.6833 101.412 54.4163 101.145 54.4162 100.611L54.4162 100.343C54.4162 100.216 54.5496 100.082 54.8165 99.942ZM65.5135 93.2652L65.6453 93.2652L66.3143 93.4018C66.3146 94.9122 66.5361 95.6674 66.9788 95.6673L67.2473 95.5354C68.2272 95.7631 68.7171 96.0299 68.7172 96.3359L68.7172 96.4677C68.509 96.8552 68.286 97.0782 68.0484 97.1368C68.4033 97.8106 68.5808 98.2565 68.5809 98.4746C68.3793 99.8093 67.7577 100.477 66.716 100.477L66.4475 100.477C65.2007 100.477 64.5772 99.7205 64.5769 98.2068C64.5768 97.7608 64.7103 97.5378 64.9772 97.5378L64.9771 97.2741L64.3131 97.4061L63.9127 97.4062C63.9127 97.2662 63.8231 97.0872 63.6441 96.8691L63.644 96.7373C63.849 96.1155 64.3828 95.8045 65.2454 95.8043C65.0663 95.4203 64.9767 94.7074 64.9765 93.6657L65.5135 93.2652ZM72.9845 94.8654C73.6974 94.8652 74.054 95.622 74.0543 97.1357C74.1715 97.1357 74.3051 97.9364 74.4551 99.538C74.4553 100.339 74.1445 100.739 73.5227 100.739L73.386 100.739C73.1191 100.739 72.9415 100.028 72.8534 98.6056L71.9208 98.7377L71.9211 100.339C71.9212 100.818 71.7422 101.13 71.3841 101.277L71.2523 101.277C70.7185 101.277 70.4515 100.964 70.4513 100.339L70.5832 100.339L70.4513 100.076C70.4511 99.1058 70.2734 97.6361 69.9182 95.6667C70.0419 95.224 70.3527 95.0026 70.8507 95.0025L70.9826 95.0025C70.9826 95.1359 71.1161 95.3133 71.3831 95.5346C71.3831 95.6225 71.3391 95.6665 71.2513 95.6665C71.5183 96.3142 71.6519 96.8497 71.6519 97.2729L71.9205 97.2728C72.1614 97.2728 72.4283 97.1832 72.7212 97.0041C72.5421 96.6037 72.4525 96.0243 72.4523 95.2659L72.4523 95.134C72.5923 95.134 72.7697 95.0445 72.9845 94.8654ZM66.1784 97.8061L66.0466 98.0747L66.1786 99.0073L66.4472 99.0072L67.1161 98.8753L67.116 98.4749C67.0639 98.2601 66.7514 98.0371 66.1784 97.8061ZM76.8758 93.1313C78.5652 93.1309 79.4101 94.065 79.4105 95.9335C79.4106 96.8027 78.7874 97.3806 77.5407 97.6673C76.333 97.6675 75.5321 96.8229 75.1379 95.1335C75.1377 94.2481 75.5836 93.6247 76.4754 93.2632C76.7423 93.2631 76.8758 93.2191 76.8758 93.1313ZM76.4757 94.9966C76.6712 95.5532 77.0261 95.9991 77.5404 96.3343C77.8985 96.2007 78.0775 96.0672 78.0775 95.9338L78.0774 95.6652C78.0773 94.9849 77.8982 94.5845 77.5401 94.4641L76.876 94.4643C76.6514 94.4643 76.518 94.6417 76.4757 94.9966ZM82.6182 94.595L82.7501 94.595C82.9975 94.5949 83.2206 95.4413 83.4195 97.1339L83.2828 97.134C83.6413 99.4744 83.8206 100.811 83.8206 101.143C83.4756 101.41 83.2087 101.543 83.0199 101.543C82.4861 101.543 82.219 100.607 82.2186 98.7357C82.0392 96.9128 81.86 95.7996 81.6809 95.396C81.6808 94.8621 81.9932 94.5951 82.6182 94.595ZM78.0781 99.1369L78.3418 99.2736L78.8789 99.1367C80.0345 99.2049 80.6123 99.2943 80.6123 99.405L80.7491 99.9372C80.7492 100.295 80.4367 100.564 79.8118 100.743L78.4787 100.607L77.4094 100.607L76.4768 100.744C76.4768 100.652 76.4312 100.607 76.3401 100.607C76.3401 100.698 76.2962 100.744 76.2083 100.744C76.2082 100.565 75.9413 100.386 75.4074 100.207L75.4073 99.6745C75.4073 99.5443 75.5407 99.4108 75.8076 99.274L77.2773 99.2738L78.0781 99.1369ZM90.2449 93.1287C91.9344 93.1284 92.7793 94.0625 92.7796 95.931C92.7798 96.8001 92.1565 97.3781 90.9098 97.6647C89.7021 97.665 88.9012 96.8204 88.507 95.131C88.5068 94.2456 88.9527 93.6221 89.8446 93.2606C90.1115 93.2606 90.2449 93.2166 90.2449 93.1287ZM89.8449 94.994C90.0403 95.5507 90.3952 95.9965 90.9096 96.3317C91.2676 96.1982 91.4466 96.0647 91.4466 95.9312L91.4466 95.6627C91.4464 94.9824 91.2673 94.582 90.9092 94.4616L90.2452 94.4617C90.0206 94.4618 89.8871 94.6392 89.8449 94.994ZM95.9874 94.5925L96.1192 94.5925C96.3666 94.5924 96.5898 95.4387 96.7886 97.1314L96.6519 97.1314C97.0104 99.4719 97.1897 100.808 97.1898 101.14C96.8448 101.407 96.5779 101.541 96.3891 101.541C95.8552 101.541 95.5881 100.605 95.5878 98.7332C95.4084 96.9103 95.2291 95.7971 95.05 95.3935C95.0499 94.8596 95.3624 94.5926 95.9874 94.5925ZM91.4472 99.1344L91.7109 99.271L92.248 99.1342C93.4036 99.2024 93.9814 99.2918 93.9814 99.4024L94.1183 99.9347C94.1183 100.293 93.8059 100.561 93.1809 100.74L91.8479 100.604L90.7785 100.604L89.846 100.741C89.8459 100.65 89.8004 100.604 89.7092 100.604C89.7092 100.696 89.6653 100.741 89.5774 100.741C89.5774 100.562 89.3104 100.383 88.7765 100.204L88.7764 99.672C88.7764 99.5418 88.9098 99.4083 89.1767 99.2715L90.6465 99.2712L91.4472 99.1344ZM100.01 92.3212L100.274 92.3212C101.879 92.8482 102.682 93.6505 102.682 94.728L102.814 95.6606C102.485 96.8195 101.906 97.399 101.076 97.3992L100.675 97.3992C99.1943 97.3995 98.2599 96.4199 97.8721 94.4603L97.872 94.0599C97.8719 93.0866 98.5846 92.5071 100.01 92.3212ZM104.952 92.9893L105.216 92.9892C105.548 92.9891 105.86 94.1919 106.154 96.5974C106.242 96.5974 106.286 97.3087 106.286 98.7312L105.754 98.9998C105.187 99 104.831 98.1097 104.684 96.3291C104.505 95.255 104.415 94.4086 104.415 93.7901L104.415 93.2579C104.555 93.2579 104.734 93.1683 104.952 92.9893ZM99.21 94.5919C99.6757 95.5716 100.21 96.0614 100.812 96.0613C101.255 95.9375 101.476 95.6266 101.476 95.1286C101.179 94.3572 100.779 93.8673 100.274 93.6591L99.6103 93.6592C99.3987 93.6592 99.2653 93.9701 99.21 94.5919ZM101.882 99.6695L102.146 99.6695C102.448 99.6694 102.671 100.47 102.815 102.072L105.085 102.071C105.265 102.101 105.354 102.19 105.354 102.34L105.354 102.603C105.354 103.228 104.864 103.541 103.885 103.541C102.192 103.542 101.345 102.874 101.345 101.54L101.213 100.202L101.882 99.6695Z" fill="black"/>
<path d="M237.248 92.0658C238.582 92.4041 239.25 93.2503 239.25 94.6045L239.25 94.8682C239.25 95.8252 238.806 96.4047 237.917 96.6067L238.049 96.8752L238.05 97.8078L238.85 97.8077C239.651 97.8075 240.052 98.2078 240.052 99.0086C239.785 99.0087 239.651 99.0982 239.651 99.2773C238.763 99.1863 238.095 99.1408 237.649 99.1409L235.647 99.1413C235.169 99.1414 234.858 98.964 234.715 98.6092L234.715 98.2089C234.715 97.9126 235.382 97.7351 236.716 97.6762L236.716 97.4077C236.716 97.2059 236.672 97.0285 236.584 96.8755C236.672 96.7029 236.716 96.5695 236.716 96.4751C235.648 96.0098 235.114 95.1196 235.114 93.8045C235.456 92.6456 236.033 92.066 236.847 92.0659L237.248 92.0658ZM236.447 93.6675L236.447 93.8042C236.447 94.5008 236.714 94.9891 237.248 95.2689L237.649 95.2688C237.828 95.2688 237.917 95.1809 237.917 95.0051L237.917 93.804L237.248 93.6674L236.447 93.6675ZM235.916 99.942L237.786 99.9417C238.541 99.9415 239.209 100.075 239.788 100.342L239.788 100.879L239.92 101.543L239.788 101.543L239.92 101.811L239.92 102.344C239.921 103.144 239.209 103.545 237.787 103.545L236.849 103.414L236.85 104.214L238.319 104.214C238.541 104.214 238.941 104.303 239.52 104.482L239.521 105.015C239.521 105.461 238.764 105.684 237.25 105.684C236.095 105.437 235.517 104.947 235.517 104.215L235.516 103.145C235.516 102.436 235.873 102.081 236.585 102.081L237.25 102.08C237.451 102.08 237.63 102.124 237.787 102.212C237.933 102.124 238.154 102.08 238.451 102.08L238.451 101.411L236.317 101.412C235.783 101.412 235.516 101.145 235.516 100.611L235.516 100.342C235.516 100.216 235.649 100.082 235.916 99.942ZM246.613 93.2652L246.745 93.2652L247.414 93.4018C247.414 94.9122 247.636 95.6674 248.078 95.6673L248.347 95.5354C249.327 95.7631 249.817 96.0299 249.817 96.3359L249.817 96.4677C249.609 96.8551 249.386 97.0782 249.148 97.1368C249.503 97.8106 249.68 98.2565 249.68 98.4746C249.479 99.8093 248.857 100.477 247.816 100.477L247.547 100.477C246.3 100.477 245.677 99.7205 245.677 98.2068C245.676 97.7608 245.81 97.5378 246.077 97.5378L246.077 97.2741L245.413 97.4061L245.012 97.4061C245.012 97.2662 244.923 97.0871 244.744 96.8691L244.744 96.7372C244.949 96.1155 245.482 95.8045 246.345 95.8043C246.166 95.4202 246.076 94.7074 246.076 93.6657L246.613 93.2652ZM254.084 94.8654C254.797 94.8652 255.154 95.622 255.154 97.1357C255.271 97.1356 255.405 97.9364 255.555 99.5379C255.555 100.339 255.244 100.739 254.622 100.739L254.486 100.739C254.219 100.739 254.041 100.028 253.953 98.6056L253.02 98.7376L253.021 100.339C253.021 100.818 252.842 101.13 252.484 101.277L252.352 101.277C251.818 101.277 251.551 100.964 251.551 100.339L251.683 100.339L251.551 100.076C251.551 99.1057 251.373 97.6361 251.018 95.6667C251.141 95.224 251.452 95.0026 251.95 95.0025L252.082 95.0025C252.082 95.1359 252.216 95.3133 252.483 95.5346C252.483 95.6225 252.439 95.6665 252.351 95.6665C252.618 96.3142 252.751 96.8497 252.752 97.2728L253.02 97.2728C253.261 97.2727 253.528 97.1832 253.821 97.0041C253.642 96.6037 253.552 96.0243 253.552 95.2659L253.552 95.134C253.692 95.134 253.869 95.0444 254.084 94.8654ZM247.278 97.8061L247.146 98.0747L247.278 99.0073L247.547 99.0072L248.216 98.8753L248.216 98.4749C248.164 98.26 247.851 98.0371 247.278 97.8061ZM257.975 93.1312C259.665 93.1309 260.51 94.065 260.51 95.9335C260.51 96.8026 259.887 97.3805 258.64 97.6672C257.433 97.6675 256.632 96.8229 256.237 95.1335C256.237 94.2481 256.683 93.6246 257.575 93.2631C257.842 93.2631 257.975 93.2191 257.975 93.1312ZM257.575 94.9965C257.771 95.5531 258.126 95.999 258.64 96.3342C258.998 96.2007 259.177 96.0672 259.177 95.9337L259.177 95.6652C259.177 94.9848 258.998 94.5845 258.64 94.4641L257.976 94.4642C257.751 94.4643 257.618 94.6417 257.575 94.9965ZM263.718 94.595L263.85 94.595C264.097 94.5949 264.32 95.4412 264.519 97.1339L264.382 97.1339C264.741 99.4744 264.92 100.811 264.92 101.143C264.575 101.41 264.308 101.543 264.12 101.543C263.586 101.543 263.319 100.607 263.318 98.7357C263.139 96.9128 262.96 95.7996 262.78 95.396C262.78 94.8621 263.093 94.5951 263.718 94.595ZM259.178 99.1369L259.441 99.2735L259.978 99.1367C261.134 99.2049 261.712 99.2943 261.712 99.4049L261.849 99.9371C261.849 100.295 261.536 100.564 260.911 100.743L259.578 100.607L258.509 100.607L257.576 100.744C257.576 100.652 257.531 100.607 257.44 100.607C257.44 100.698 257.396 100.744 257.308 100.744C257.308 100.565 257.041 100.386 256.507 100.207L256.507 99.6745C256.507 99.5443 256.64 99.4108 256.907 99.274L258.377 99.2737L259.178 99.1369ZM270.275 91.791L270.407 91.791C270.745 91.7909 271.012 92.6372 271.208 94.3299L272.546 94.1929L273.479 94.1928C273.632 94.1927 273.81 93.5693 274.015 92.3226L274.816 92.3224L274.948 93.2599L274.948 93.7921C274.949 96.2856 274.325 97.5325 273.079 97.5327L271.878 97.5329C270.719 97.5331 270.139 96.9994 270.139 95.9317C269.963 95.3718 269.786 94.3025 269.606 92.7238C269.73 92.1899 269.953 91.879 270.275 91.791ZM277.619 92.4586C277.886 93.0152 278.019 93.4155 278.019 93.6597L277.888 93.6597L278.019 93.9282L277.888 94.1919C277.976 94.3645 278.02 94.4979 278.02 94.5923L277.888 94.5923L278.02 94.8609C278.02 94.9488 277.976 94.9927 277.888 94.9927L278.02 95.6616L278.02 96.731C278.02 97.2648 277.753 97.5318 277.219 97.5319L277.088 97.5319C276.993 97.532 276.814 97.309 276.55 96.8631C276.55 96.7687 276.596 96.6352 276.687 96.4627C276.687 96.4106 276.641 95.8328 276.55 94.7293C276.55 93.2156 276.906 92.4587 277.619 92.4586ZM271.609 95.6628L271.345 95.6629C271.397 96.021 271.752 96.1999 272.41 96.1998L272.81 96.1997C273.347 96.1996 273.616 95.9766 273.615 95.5306L273.479 95.5307C272.724 95.6187 272.1 95.6628 271.609 95.6628ZM275.75 98.6015L276.018 98.6015C276.731 98.6013 277.088 99.2246 277.088 100.471C276.763 101.627 276.183 102.205 275.35 102.205C275.018 102.296 274.618 102.342 274.149 102.342L274.149 102.474C274.204 102.741 274.561 102.874 275.218 102.874L276.952 102.874C276.952 102.968 276.997 103.102 277.089 103.274C276.731 103.987 276.195 104.344 275.482 104.344C274.291 104.344 273.401 103.944 272.811 103.143L272.811 102.342C272.811 101.362 273.657 100.872 275.35 100.872L275.75 100.472L275.75 100.203C275.75 100.024 275.661 99.9345 275.482 99.9346C274.066 100.114 273.265 100.204 273.079 100.204C272.545 100.116 272.278 99.9824 272.278 99.8033L272.278 99.2711C272.545 99.0465 272.679 98.8674 272.679 98.7339C272.851 98.8251 272.985 98.8706 273.079 98.8706C274.345 98.6913 275.236 98.6016 275.75 98.6015ZM282.311 92.1892C282.936 92.189 283.293 93.2127 283.381 95.2602L283.381 95.6606C283.381 96.0871 282.58 96.3997 280.979 96.5986L280.847 96.8623C280.903 97.3961 281.036 97.663 281.248 97.663L282.449 97.6628C283.429 97.6626 283.919 97.8855 283.919 98.3314C283.919 98.8653 283.296 99.1779 282.049 99.2693L281.78 99.1326C281.608 99.2238 281.474 99.2694 281.38 99.2694C280.687 99.2695 280.107 98.7797 279.641 97.8L279.641 96.7307C279.641 95.5718 280.398 94.9923 281.911 94.992L282.048 94.9919C281.976 94.1033 281.843 93.659 281.647 93.659L281.379 93.6591C279.82 93.8384 279.019 93.9281 278.977 93.9281L278.708 93.5277L278.708 93.2592C278.708 92.5463 279.464 92.1897 280.978 92.1894L282.311 92.1892ZM287.521 93.2575L288.059 94.0582L288.059 94.3267C288.059 94.4146 288.013 94.4586 287.922 94.4586C287.922 94.5465 287.968 94.5904 288.059 94.5904C288.059 94.7695 288.013 94.859 287.922 94.859C288.013 95.9039 288.059 96.6607 288.059 97.1295L288.059 98.5992C288.059 98.7262 287.926 98.8597 287.659 98.9997L287.522 98.9997C286.989 98.9998 286.722 98.5995 286.721 97.7987L286.721 96.9979L284.851 97.2619C284.405 97.1188 284.182 96.8519 284.182 96.4613C284.182 95.8395 284.717 95.5285 285.788 95.5283L286.589 95.5282L286.589 94.327C286.654 93.6141 286.965 93.2576 287.521 93.2575ZM284.451 99.6692C284.897 99.7928 285.12 100.104 285.12 100.602L285.121 101.671L285.252 101.94L285.521 101.803L287.66 101.802C287.842 101.841 288.019 102.064 288.192 102.471C288.192 102.868 287.88 103.181 287.255 103.409C287.102 103.318 286.924 103.272 286.722 103.272C286.55 103.363 286.416 103.409 286.322 103.409L286.322 103.272L286.053 103.409L285.121 103.409C284.369 103.409 283.879 102.786 283.651 101.539L283.651 101.002L283.783 101.002C283.695 100.83 283.651 100.696 283.651 100.602C283.849 100.058 284.116 99.7474 284.451 99.6692Z" fill="black"/>
<path d="M249.065 48.6105C249.232 49.1203 249.657 51.3794 250.526 51.4762C248.589 51.9622 247.339 55.2348 246.57 56.7771C245.095 59.7373 245.698 63.8476 245.698 67.0829C245.698 70.7647 246.418 73.6556 248.716 76.6622C250.533 79.0404 251.945 80.8693 254.523 82.4744C257.339 84.2279 259.884 84.4118 263.105 84.4118C265.45 84.4118 268.013 84.6971 270.347 84.3848C271.841 84.185 273.465 83.4797 274.853 82.9049C276.554 82.2008 277.972 81.3963 279.305 80.1065C280.563 78.8894 281.024 77.7872 281.702 76.1651L281.702 76.165L281.719 76.1241C283.448 71.989 283.838 68.0286 283.838 63.5714C283.838 61.3911 284.193 58.371 282.511 56.6829C281.87 56.0406 281.36 55.2395 280.754 54.5706C280.272 54.0386 279.4 53.0525 279.064 52.4449C278.582 51.5751 277.228 50.1226 276.355 49.5388C276.355 41.8741 276.521 33.4668 276.355 25.8059C276.283 22.4683 274.746 19.4684 274.236 16.2266L274.232 16.1982C274.093 15.3177 273.822 13.5897 272.734 13.4685C271.684 13.3515 270.683 13.59 269.65 13.6972C268.725 13.7931 268.176 16.2288 267.906 16.8589C265.635 22.177 264.286 28.3085 264.286 34.107V42.3544C264.286 42.863 264.626 46.1719 263.91 46.3771C262.809 46.6928 261.107 46.4525 259.981 46.3771C259.13 46.3202 259.018 46.1554 258.975 45.4219C258.935 44.7358 258.441 43.4109 258.197 42.7042C257.627 41.0504 257.809 39.1882 257.379 37.5109C256.849 35.4419 256.187 33.3966 255.649 31.322C254.97 28.7002 254.795 25.9479 254.147 23.3034C253.426 20.3594 252.817 17.4002 252.001 14.4776C251.645 13.2002 251.114 10.0653 249.748 9.44574C247.314 8.34093 244.906 13.1912 244.357 14.7466C243.428 17.3835 244.009 20.8825 244.009 23.6398C244.009 27.3677 244.304 30.8126 245.028 34.4703C245.974 39.2452 247.547 43.9857 249.065 48.6105Z" fill="#AFAFAF" stroke="black" stroke-width="1.668" stroke-linecap="round"/>
<path d="M244.901 7.7218C245.048 7.44481 245.211 6.86728 245.811 6.50847C246.412 6.14976 246.842 6.3568 247.345 6.3568H248.752C249.195 6.3568 250.115 6.33798 250.437 6.66014C250.898 7.12128 251.519 7.53152 251.912 8.06727C252.665 9.09369 253.512 10.0657 254.225 11.1343C254.373 11.3566 254.473 11.7114 254.549 11.9685C254.622 12.213 254.796 12.4114 254.878 12.651C255.099 13.303 255.372 13.9361 255.594 14.5889C256.901 18.4375 257.32 22.5239 257.679 26.5495C257.896 28.9801 258.021 31.4352 258.021 33.8759C258.021 34.6913 255.583 34.5434 255.059 34.6089C253.846 34.7605 252.628 34.7185 251.406 34.7185C249.436 34.7185 247.494 34.6824 245.529 34.5668C245.055 34.5389 243.455 34.5634 243.216 34.1118C243.117 33.9247 243.013 33.7614 243.006 33.5051C242.895 29.5235 242.93 25.5316 242.93 21.5445C242.93 18.8745 242.753 16.1469 243.119 13.502C243.329 11.9911 243.881 10.6703 244.312 9.22162C244.468 8.69462 244.646 8.20594 244.901 7.7218Z" fill="#6C11A4" stroke="black" stroke-width="1.668" stroke-linecap="round"/>
<path d="M267.491 12.3568C267.599 12.2331 269.511 10.0207 269.698 10.301L270.398 10.3009C270.605 10.3009 271.068 10.3095 271.257 10.3936C271.807 10.638 272.257 11.2335 272.673 11.649C273.237 12.2139 273.708 12.7858 274.113 13.4859C274.206 13.6451 274.387 13.7346 274.476 13.8988C274.589 14.1074 274.642 14.3116 274.72 14.5307C274.851 14.8983 275.042 15.3749 275.238 15.7188C275.488 16.1554 275.522 16.6073 275.647 17.088C275.806 17.7017 275.907 18.3293 276.035 18.9501C276.313 20.3023 276.519 21.6634 276.768 23.0156C276.894 23.7016 277.117 24.4605 277.13 25.1558C277.142 25.8205 277.072 26.5708 277.282 27.2117C277.581 28.1278 277.661 29.3645 277.661 30.3251V32.0271C277.661 32.4276 277.842 33.1399 277.429 33.3205C276.616 33.6763 275.841 33.815 275.002 34.0746C272.496 34.8505 269.765 34.7192 267.175 34.7192H265.19C264.523 34.7192 263.842 34.9144 263.189 34.8919C262.964 34.8842 262.993 34.1805 262.949 34.0367C262.766 33.4427 262.797 32.6692 262.797 32.0482V29.6974C262.797 27.3917 263.171 25.0722 263.707 22.8387C264.076 21.303 264.252 19.7402 264.841 18.2676C265.229 17.2962 265.546 16.2498 265.877 15.2553C266.203 14.2773 266.818 13.1254 267.491 12.3568Z" fill="#6C11A4" stroke="black" stroke-width="1.668" stroke-linecap="round"/>
<circle cx="246.591" cy="5.14205" r="3.30805" fill="#FFFF00" stroke="black" stroke-width="1.668"/>
<circle cx="271.443" cy="9.97457" r="3.30805" fill="#FFFF00" stroke="black" stroke-width="1.668"/>
<path d="M265.192 22.7699C265.03 22.3808 264.404 21.8608 264.102 21.5586C263.958 21.7745 264.027 22.1305 264.027 22.3773C264.027 22.9659 264.036 23.5555 264.027 24.1441C264.015 24.8871 263.773 25.6105 263.651 26.3369C263.439 27.5971 263.509 28.8764 263.275 30.1295C263.184 30.6185 263.238 31.15 263.238 31.6457C263.238 31.73 263.156 32.2856 263.35 32.1887C263.533 32.0971 263.671 31.8866 263.847 31.7752C264.112 31.608 264.294 31.3424 264.562 31.1737C265.157 30.7982 265.617 30.2591 266.115 29.7703C266.251 29.6376 266.399 29.652 266.529 29.7745C266.723 29.9577 267.044 29.9797 267.268 30.1378C267.401 30.2313 267.528 30.32 267.673 30.3926C267.828 30.4698 267.939 30.6049 268.087 30.685C268.283 30.7911 268.603 30.7875 268.822 30.8437C269.139 30.9252 269.433 31.0322 269.724 31.1821C269.773 31.207 270.098 31.412 270.05 31.3157C269.997 31.2106 269.99 31.0831 269.929 30.9857C269.848 30.8574 269.794 30.7119 269.737 30.5722C269.551 30.1154 269.279 29.6931 269.043 29.2607C268.81 28.8313 268.574 28.4018 268.333 27.9763C268.215 27.7663 268.021 27.5719 267.982 27.3268C267.951 27.1284 268.119 26.979 268.237 26.8298C269.094 25.7465 270.147 24.7672 270.839 23.551C271.005 23.2603 271.132 23.0327 271.132 22.6926C271.132 22.6245 271.18 22.3722 271.057 22.394C270.828 22.4343 270.63 22.5143 270.392 22.5443C269.213 22.6935 268.041 23.0827 267.018 23.6846C266.675 23.886 266.355 24.0962 266.065 24.3675C265.955 24.4706 265.989 24.438 265.907 24.3863C265.825 24.3351 265.785 24.1398 265.748 24.0584C265.553 23.6328 265.372 23.2017 265.192 22.7699Z" fill="#FFFF00" stroke="black" stroke-width="1.668" stroke-linecap="round"/>
<path d="M254.216 13.4219C254.346 13.1667 254.481 12.625 254.781 12.5337C255.193 14.2181 255.607 15.9021 256.017 17.5871C256.066 17.7856 256.122 17.9908 256.159 18.1938C256.213 18.4853 256.253 18.7814 256.301 19.0742C256.364 19.4639 256.387 19.8592 256.448 20.2482C256.485 20.48 256.474 20.7149 256.474 20.949V21.4252C256.474 21.5493 256.438 21.7413 256.509 21.8476C256.306 21.8476 255.803 21.2932 255.621 21.1971C255.41 21.0854 255.26 21.0321 255.024 21.0321C254.927 21.0321 254.874 21.1092 254.8 21.1616C254.528 21.3552 254.289 21.6118 254.036 21.8299C253.677 22.1388 253.347 22.4332 252.958 22.707C252.633 22.9363 252.357 23.2942 252.014 23.4881C251.994 23.4996 252.03 23.0089 252.033 22.966C252.066 22.5586 252.144 22.1558 252.148 21.738C252.153 21.2155 252.267 20.4877 252.033 20.0004C251.818 19.5524 251.436 19.2218 251.087 18.881C250.844 18.6437 250.555 18.4523 250.302 18.2253C249.816 17.789 249.394 17.2801 249.007 16.755C248.947 16.6737 248.671 16.2793 248.882 16.2559C249.134 16.2278 249.379 16.2254 249.634 16.2183C250.124 16.2047 250.614 16.1446 251.104 16.116C251.583 16.088 252.063 16.1021 252.543 16.0721C252.69 16.0629 252.877 16.108 252.996 15.9948C253.311 15.6963 253.424 15.1417 253.591 14.7585C253.789 14.3048 253.991 13.8633 254.216 13.4219Z" fill="#FFFF00" stroke="black" stroke-width="1.668" stroke-linecap="round"/>
<path d="M243.928 26.7836C243.767 26.7976 243.316 26.7005 243.153 26.7005C243.02 28.6539 243.14 30.7974 243.14 32.7558L243.14 33.7913C243.14 33.8768 243.366 34.1266 243.485 34.1365C243.842 34.1663 243.63 33.9884 243.988 34.0282C244.943 34.1343 245.92 34.1111 246.88 34.1111C247.71 34.1111 248.541 34.1077 249.371 34.1111C249.795 34.1128 250.213 34.1833 250.636 34.1833C250.636 33.7913 250.388 33.4462 249.799 33.0614C249.661 32.908 249.556 32.658 249.396 32.5351C249.128 32.3289 248.931 32.0246 248.692 31.7853C248.185 31.2784 247.59 30.7535 247.307 30.0791C247.181 29.7784 247.305 29.5492 247.449 29.2938C247.735 28.7872 248.08 28.3122 248.402 27.8278C248.738 27.322 249.198 26.779 249.417 26.203C249.456 26.0991 249.442 25.9777 249.442 25.8688C249.442 25.7591 249.242 25.8204 249.183 25.8291C248.125 25.9852 247.088 26.2858 246.038 26.4828C245.34 26.6137 244.636 26.722 243.928 26.7836Z" fill="#FFFF00" stroke="black" stroke-width="1.668" stroke-linecap="round"/>
<path d="M252.839 62.0524C254.416 62.0524 255.993 62.0524 257.571 62.0524C258.16 62.0524 258.768 62.0998 259.354 62.0389C259.485 62.0253 259.971 61.8046 260.057 61.9105C260.255 62.1526 260.335 62.5532 260.454 62.8396C260.631 63.2645 260.782 63.6835 260.89 64.1337C261.228 65.5427 261.497 66.9954 261.697 68.4315C261.774 68.9802 261.919 69.4632 261.919 70.0195C261.919 70.4047 261.919 70.7898 261.919 71.175C261.919 71.6384 261.729 71.5399 261.281 71.5399C260.891 71.5399 260.568 71.6663 260.36 71.3135C259.841 70.4355 259.927 69.1389 259.927 68.1645C259.927 66.8705 259.927 65.5764 259.927 64.2824C259.927 63.9451 258.816 64.1202 258.622 64.1202C257.054 64.1202 255.487 64.1202 253.919 64.1202C253.83 64.1202 252.603 64.2226 252.559 64.0796C252.433 63.675 252.546 63.0599 252.546 62.6403C252.546 62.4225 252.443 62.0565 252.715 62.0524C253.404 62.042 254.096 62.0453 254.785 62.0524C255.311 62.0578 255.82 62.0928 256.324 62.2585C256.413 62.2878 256.713 62.3261 256.751 62.4443C256.856 62.7725 256.556 62.9018 256.327 63.039C255.845 63.3277 254.194 63.6861 254.739 63.5728C256.128 63.2844 257.553 63.0919 258.967 62.9984C259.03 62.9943 260.066 62.9647 259.413 62.9647C258.75 62.9647 258.087 62.9647 257.424 62.9647C256.399 62.9647 255.378 63.0863 254.355 63.0863C253.704 63.0863 255.662 63.0441 256.305 62.9342C256.635 62.8778 256.958 62.7786 257.291 62.7349C257.635 62.6896 256.66 62.8124 256.64 62.816C256.618 62.8199 255.968 62.9628 256.087 62.9647C256.542 62.9719 256.998 62.9647 257.454 62.9647C258.115 62.9647 258.829 62.8459 259.25 63.4951C259.707 64.1991 259.714 65.2186 259.745 66.0393C259.786 67.1402 259.751 68.2487 259.751 69.3505C259.751 69.5543 259.751 69.7582 259.751 69.962C259.751 70.2402 259.751 69.4057 259.751 69.1275C259.751 67.8079 259.856 66.441 259.66 65.1338C259.653 65.0851 259.634 64.6582 259.634 64.9683C259.634 65.6609 259.634 66.3535 259.634 67.0462C259.634 67.7478 259.634 68.4495 259.634 69.1511C259.634 69.5674 259.635 68.245 259.634 68.2085C259.609 66.5929 259.361 64.9381 258.898 63.3971C258.836 63.1905 258.827 63.8239 258.804 64.0391C258.69 65.1129 258.566 66.1815 258.534 67.2624C258.502 68.3573 258.51 69.4577 258.521 70.5533C258.525 70.9188 258.697 71.1669 258.814 71.4994C258.941 71.8628 259.476 70.2603 259.491 70.2121C259.724 69.4769 259.928 68.743 260.311 68.0733C260.421 67.8815 260.696 67.2872 260.767 67.8368C260.893 68.8157 260.827 69.8447 260.864 70.8304C260.865 70.8537 260.944 72.421 260.988 72.4015C261.162 72.3239 261.297 71.536 261.372 71.3642C261.605 70.8255 261.898 70.3038 262.234 69.8269C262.302 69.7303 262.62 69.2129 262.771 69.2221C262.812 69.2246 262.393 69.913 262.378 69.935C262.127 70.3005 261.876 70.6584 261.639 71.0331C261.572 71.1384 261.499 71.213 261.378 71.2358C260.834 71.3387 260.338 71.7557 259.966 72.1684C259.864 72.2814 259.745 72.3942 259.751 72.1548C259.764 71.6932 260.061 71.3056 260.324 70.9588C260.352 70.9222 260.838 70.288 260.838 70.5804C260.838 70.9939 260.55 71.4461 260.389 71.8102C260.271 72.0765 260.259 72.0557 260.376 71.8068C260.468 71.6103 260.595 71.4163 260.747 71.2629C260.912 71.0968 261.114 71.1288 261.014 71.4048C260.989 71.4744 260.829 71.6642 260.884 71.7426C260.991 71.8952 261.548 71.6423 261.658 71.6007C261.985 71.477 262.318 71.337 262.631 71.1784C262.646 71.1708 262.89 70.9893 262.901 71.0196C263.021 71.344 262.504 72.2759 262.199 72.3778C262.011 72.4405 262.238 71.9583 262.335 71.7798C262.575 71.3382 262.832 70.9171 263.136 70.5195C263.185 70.4546 263.848 69.7567 263.77 69.9553C263.436 70.8144 262.443 71.4843 261.775 72.0298C261.529 72.2315 260.825 72.881 261.079 72.6887C261.543 72.3369 261.939 71.8987 262.413 71.5534C262.91 71.1918 263.432 70.8509 263.956 70.533C263.994 70.5102 264.611 70.1851 264.578 70.2729C264.348 70.8679 263.742 71.4321 263.357 71.9183C263.185 72.1359 263.026 72.3661 262.836 72.5671C262.805 72.6001 262.748 72.6848 262.726 72.6448C262.692 72.5842 262.74 72.5037 262.765 72.4387C262.842 72.2365 262.935 72.0406 263.032 71.8474C263.731 70.4479 266.476 66.6552 265.554 67.9078C264.617 69.1795 263.78 70.4729 262.732 71.6615C262.549 71.8694 262.242 72.2908 262.53 71.7899C262.841 71.2505 263.213 70.7583 263.624 70.2965C264.203 69.6456 264.892 69.147 265.521 68.5666C265.672 68.4278 265.751 68.3866 265.844 68.195" stroke="black" stroke-width="1.668" stroke-linecap="round"/>
<path d="M259.172 77.7281C261.797 77.2254 264.398 77.5703 267.03 77.5703C267.223 77.5703 267.437 77.4842 267.608 77.3643C268.325 76.8602 269.02 76.4066 269.788 76.0229C270.69 75.5721 271.629 75.2084 272.552 74.8438C272.75 74.7659 273.06 74.7542 273.221 74.5676C273.419 74.3381 273.4 74.3742 273.085 74.4493C272.527 74.5819 272.113 75.1318 271.612 75.4399" stroke="black" stroke-width="1.668" stroke-linecap="round"/>
<path d="M267.9 62.4632C267.831 62.4632 267.748 62.4839 267.977 62.425C269.033 62.1527 270.097 61.9173 271.159 61.6717C271.98 61.4818 272.802 61.3584 273.621 61.1997C273.673 61.1896 273.727 61.162 273.628 61.1545C273.309 61.1306 272.973 61.1591 272.656 61.1962C271.456 61.3368 270.254 61.7219 269.14 62.2237C268.496 62.5134 269.569 62.4007 269.735 62.4007C270.746 62.4007 271.757 62.3867 272.768 62.4042C273.398 62.4151 274.004 62.4653 274.615 62.6367C274.974 62.7373 274.952 62.9481 274.603 63.1018C273.005 63.8039 271.182 63.7744 269.614 64.5458C269.173 64.7627 268.918 64.4951 268.553 64.2126C268.218 63.9524 267.708 63.6764 267.512 63.2615C267.502 63.2404 268.159 63.7104 268.267 63.7926C269.372 64.6332 270.551 65.2173 271.857 65.5872C272.417 65.7458 272.982 65.8669 273.551 65.9759C273.558 65.9771 274.056 66.078 274.042 66.0454C274.006 65.9606 273.876 65.8739 273.816 65.8197C273.42 65.4658 272.996 65.1728 272.551 64.8964C271.588 64.2983 270.563 63.8562 269.589 63.2893C269.344 63.1468 268.954 62.8519 268.659 62.8519C268.513 62.8519 268.668 63.1025 268.694 63.1296C269.049 63.5076 269.676 63.5391 270.137 63.5705C271.301 63.6498 272.391 63.433 273.507 63.088C274.237 62.8621 275.075 62.6739 275.762 62.3104C275.89 62.2425 275.878 62.2263 275.743 62.3799C275.354 62.8205 274.99 63.2874 274.628 63.7544C274.126 64.4027 273.661 65.0626 273.29 65.8093C273.282 65.8257 273.217 65.9398 273.255 65.8197C273.389 65.3967 273.636 65.0073 273.876 64.65C274.399 63.8722 274.957 63.1117 275.533 62.3799C275.591 62.3054 275.875 62.054 275.612 62.1369C274.872 62.3703 274.222 62.8382 273.449 62.9804C273.057 63.0525 272.624 63.0496 272.226 63.0255C271.891 63.0052 272.232 62.5123 272.319 62.4146C272.878 61.7833 273.576 61.1891 274.271 60.7484C274.369 60.6864 275.205 60.2387 275.182 60.2139" stroke="black" stroke-width="1.668" stroke-linecap="round"/>
<path d="M250.496 55.21C250.188 55.5241 249.928 55.8973 249.671 56.2603C248.892 57.3618 248.156 58.5003 247.453 59.663C246.923 60.5419 246.247 61.515 245.878 62.5059C245.717 62.9389 245.973 62.7626 246.22 62.6443C246.849 62.3437 247.505 62.0476 248.173 61.8707C248.347 61.8244 248.905 61.652 249.075 61.8266C249.261 62.0177 249.166 62.6794 249.16 62.9273C249.142 63.7553 248.902 64.5129 248.669 65.2922C248.496 65.8743 248.351 66.4654 248.116 67.0218C247.976 67.3508 248.283 67.1138 248.452 67.0407C248.661 66.9506 248.916 66.8051 249.149 66.8143C249.582 66.8313 248.639 69.9256 248.561 70.1289C248.367 70.6324 248.199 71.2094 247.95 71.6824C247.909 71.7598 248.077 71.5709 248.138 71.5126C248.368 71.295 248.603 71.0884 248.863 70.9151C249.342 70.5964 249.947 70.2746 250.519 70.2673C250.754 70.2643 250.641 70.7514 250.616 70.8962C250.368 72.3291 249.479 73.7447 248.669 74.865C248.459 75.1562 248.919 74.5451 248.938 74.5253C249.507 73.9116 250.207 73.3862 250.873 72.9089C251.026 72.799 251.699 72.2038 251.718 72.6825C251.748 73.4879 251.494 74.2426 251.204 74.9656C251.164 75.0638 250.837 75.8169 250.941 75.7141C250.96 75.6958 251.187 75.4782 251.204 75.5694C251.291 76.0485 251.159 76.6457 251.124 77.1292C251.121 77.1753 251.075 77.4428 251.135 77.4877C251.293 77.6058 251.703 77.5129 251.889 77.5129C252.131 77.5129 252.186 77.6711 252.22 77.9343C252.265 78.2849 252.19 78.6585 252.254 79.0035C252.274 79.1128 252.375 79.1744 252.408 79.2803C252.504 79.5847 252.419 79.9199 252.5 80.23" stroke="black" stroke-width="1.668" stroke-linecap="round"/>
</svg>
