<svg width="86" height="65" viewBox="0 0 86 65" fill="none" xmlns="http://www.w3.org/2000/svg">
<path d="M22.936 20.034C27.0332 17.1223 24.7469 14.3128 26.8851 11.4062C28.4619 14.56 32.6254 14.1105 35.5987 14.1105C44.8765 14.1105 53.7049 15.2457 61.6538 9.47465C63.4885 8.14256 66.0715 6.6599 67.5325 4.62452C67.857 3.56652 68.7322 1.32177 68.586 2.19898C68.4373 3.09122 68.0573 3.89351 67.5325 4.62452C67.5085 4.70309 67.4874 4.77511 67.47 4.83883C66.8939 6.95113 65.5122 8.69261 64.9589 10.8268C64.4871 12.6467 64.7443 14.7299 64.7443 16.6001C64.7443 21.9315 67.1354 24.3857 71.6981 27.0092C74.6989 28.7347 78.4317 28.4731 81.8245 28.4138C82.4551 28.2524 83.0738 28.1251 83.6739 28.0394C85.5625 27.7696 84.1397 28.4043 82.794 28.4043C82.4746 28.4043 82.1511 28.4081 81.8245 28.4138C77.9694 29.4005 73.6695 31.6629 70.4533 33.5123C65.9196 36.1191 62.4577 40.3665 58.9495 44.1575C54.4936 48.9728 50.3415 54.1276 47.4458 60.0395C46.4667 62.0385 46.0892 61.5735 45.4069 59.8678C44.8367 58.4423 43.791 56.5563 42.7027 55.4681C38.5872 51.3526 29.6063 50.4412 24.1379 51.2615C19.3203 51.9841 15.176 55.5467 11.8435 58.8931C11.1015 60.5765 10.0453 61.6518 9.20027 63.173C9.13753 63.2859 8.7154 64.1242 8.79248 63.4305C8.97182 61.8165 10.2866 60.4766 11.3607 59.3819L11.3894 59.3527C11.5391 59.2002 11.6904 59.0469 11.8435 58.8931C11.8641 58.8465 11.8844 58.7994 11.9045 58.7518C13.4339 55.124 14.1366 52.1298 14.1366 48.1924C14.1366 43.9987 14.2844 39.4694 10.1017 37.2896C7.24639 35.8016 4.68994 33.7055 1.64559 32.6538C0.468392 32.2471 4.17125 31.5434 4.39274 31.4304C10.8082 28.1598 17.0733 24.2006 22.936 20.034Z" fill="#FF0000"/>
<path d="M26.8851 11.4062C24.7469 14.3128 27.0332 17.1223 22.936 20.034C17.0733 24.2006 10.8082 28.1598 4.39274 31.4304C4.17125 31.5434 0.468392 32.2471 1.64559 32.6538C4.68994 33.7055 7.24639 35.8016 10.1017 37.2896C14.2844 39.4694 14.1366 43.9987 14.1366 48.1924C14.1366 52.1298 13.4339 55.124 11.9045 58.7518C11.1602 60.5173 10.0688 61.6097 9.20027 63.173C9.13753 63.2859 8.7154 64.1242 8.79248 63.4305C8.97342 61.8021 10.3101 60.4527 11.3894 59.3527C14.7966 55.88 19.0989 52.0173 24.1379 51.2615C29.6063 50.4412 38.5872 51.3526 42.7027 55.4681C43.7909 56.5563 44.8367 58.4423 45.4069 59.8678C46.0892 61.5735 46.4667 62.0385 47.4458 60.0395C50.3415 54.1276 54.4936 48.9728 58.9495 44.1575C62.4577 40.3665 65.9196 36.1191 70.4533 33.5123C74.1956 31.3604 79.4052 28.6492 83.6739 28.0394C85.5625 27.7696 84.1397 28.4043 82.794 28.4043C79.1572 28.4043 74.9877 28.9008 71.6981 27.0092C67.1354 24.3857 64.7443 21.9315 64.7443 16.6001C64.7443 14.7299 64.4871 12.6467 64.9589 10.8268C65.5122 8.69261 66.8939 6.95113 67.47 4.83883C67.7214 3.91714 68.7431 1.25663 68.586 2.19898C68.0233 5.57549 64.1475 7.66413 61.6538 9.47465C53.7049 15.2457 44.8765 14.1105 35.5987 14.1105C32.6254 14.1105 28.4619 14.56 26.8851 11.4062Z" stroke="black" stroke-width="2.5" stroke-linecap="round"/>
<path d="M32.6338 22.9062C33.3057 22.9062 33.876 24.9714 34.3447 29.1016C34.1729 30.3828 33.9593 31.0234 33.7041 31.0234H32.8447C32.5635 31.0234 32.2796 30.5234 31.9932 29.5234H32.2041C32.0635 29.2734 31.9932 28.9896 31.9932 28.6719C31.514 28.9583 29.7354 29.2422 26.6572 29.5234C26.3708 29.0547 26.2275 28.6276 26.2275 28.2422V28.0312C26.2275 27.3854 28.0791 26.9583 31.7822 26.75V25.0391C29.5739 25.0391 27.5088 25.1823 25.5869 25.4688L24.9463 24.3984C24.9463 23.4036 25.9437 22.9062 27.9385 22.9062H32.6338ZM34.5557 32.0859C35.2692 32.2839 35.626 32.7839 35.626 33.5859L35.4072 34.4375C33.7458 34.4375 31.8968 34.5807 29.8604 34.8672V34.6484L29.4307 34.8672L29.001 34.6484C28.8604 34.6484 28.79 34.7214 28.79 34.8672C26.9411 34.763 26.0166 34.4766 26.0166 34.0078V32.9453C26.0166 32.7005 26.3708 32.487 27.0791 32.3047C27.4385 32.3047 28.0088 32.375 28.79 32.5156C32.1182 32.375 34.04 32.2318 34.5557 32.0859ZM33.7041 35.2891C34.6989 35.2891 35.1963 36.4297 35.1963 38.7109C35.1963 40.7005 33.7718 41.6953 30.9229 41.6953V42.125L32.4229 42.3359H33.2744L34.7666 41.9141L35.1963 42.5547C35.1963 43.5495 34.7692 44.2604 33.915 44.6875H33.0635C30.501 44.6875 29.2197 44.1172 29.2197 42.9766C28.9333 42.9766 28.79 42.4089 28.79 41.2734C28.79 40.2474 30.2145 39.5339 33.0635 39.1328V38.0703C33.0635 37.7839 32.8499 37.6406 32.4229 37.6406C32.2093 37.6406 30.9281 37.7839 28.5791 38.0703L27.9385 37.2109V36.3594C27.9385 35.7917 29.8604 35.4349 33.7041 35.2891ZM41.2197 22.2422C43.3551 22.6328 44.4229 23.7734 44.4229 25.6641H44.2119L44.4229 26.0938C44.4229 27.5312 42.8551 28.599 39.7197 29.2969C39.7197 29.4427 39.6494 29.5156 39.5088 29.5156C39.6494 30.0833 40.0062 30.3672 40.5791 30.3672C41.8395 30.2266 42.6234 30.1562 42.9307 30.1562L43.5713 31.2266C43.5713 31.9401 42.6442 32.4375 40.79 32.7188C38.5088 32.7188 37.3682 31.4375 37.3682 28.875C37.3682 27.8958 38.9359 26.9688 42.0713 26.0938V25.2344C42.0713 25.0052 41.6442 24.7214 40.79 24.3828C40.6077 24.5234 39.6104 24.6667 37.7979 24.8125C37.1468 24.5365 36.79 24.25 36.7275 23.9531V22.8828C36.7744 22.6016 36.9176 22.4609 37.1572 22.4609C38.3031 22.4609 39.6572 22.388 41.2197 22.2422ZM49.126 24.5938H49.7666C50.626 24.5938 51.0557 27.0182 51.0557 31.8672C50.7171 32.7214 50.4307 33.1484 50.1963 33.1484H49.5557C49.3317 33.1484 49.0479 32.862 48.7041 32.2891V28.6562L48.4854 27.375C48.4854 27.2344 48.5583 27.1641 48.7041 27.1641L48.4854 26.0938V25.875C48.5739 25.0208 48.7874 24.5938 49.126 24.5938ZM47.2041 34.4297C49.3395 34.4297 50.4072 35.3568 50.4072 37.2109V37.4219C50.4072 39.0625 50.0531 39.9896 49.3447 40.2031H49.126C48.2718 40.2031 47.8447 39.776 47.8447 38.9219L48.0557 37.6406V36.7812L46.9932 36.5703C45.0765 36.8568 43.863 37 43.3525 37C42.5869 37 42.1598 36.6432 42.0713 35.9297C42.363 35.0703 42.6494 34.6406 42.9307 34.6406H43.3525C43.4984 34.6406 43.5713 34.7135 43.5713 34.8594C44.3525 34.5729 45.5635 34.4297 47.2041 34.4297ZM52.79 23.9531H53.4307C53.7171 24.2448 54.0036 26.8099 54.29 31.6484L53.4307 32.2891H53.2197C52.8447 32.2891 52.5583 31.7188 52.3604 30.5781V28.4453L52.1494 27.1562C52.1494 27.0156 52.2197 26.9453 52.3604 26.9453L52.1494 25.875V24.5938C52.1494 24.3854 52.363 24.1719 52.79 23.9531ZM54.0713 33.7891C54.5036 34.612 54.7197 35.112 54.7197 35.2891C54.5062 35.8568 54.29 36.1406 54.0713 36.1406C53.2171 36.1406 52.79 35.7135 52.79 34.8594C52.8786 34.4323 53.3057 34.0755 54.0713 33.7891Z" fill="white"/>
</svg>
