<svg width="73" height="55" viewBox="0 0 73 55" fill="none" xmlns="http://www.w3.org/2000/svg">
<path d="M17.285 19.1724C21.1482 16.4252 20.6374 6.81868 22.6534 4.07636C22.6904 1.33431 36.6394 10.7753 39.4428 10.7753C48.1907 10.7753 53.4457 7.63442 60.9406 2.18937C63.0675 0.644151 60.9406 9.01079 60.9406 10.7753C60.9406 15.8056 63.4864 18.2289 66.3151 21.5312C68.0901 23.7514 71.1182 26.3896 71.8839 26.6919C71.9399 26.6895 71.97 26.698 71.9722 26.7181C71.9475 26.7141 71.9179 26.7053 71.8839 26.6919C70.6852 26.7431 57.6534 31.8006 54.4986 35.212C50.2972 39.7553 47.3603 46.1827 44.6301 51.7606C43.7069 53.6467 43.351 53.208 42.7076 51.5986C42.17 50.2536 41.184 48.4742 40.1579 47.4474C36.2774 43.5644 27.8094 42.7046 22.6534 43.4785C17.9022 44.1917 14.3313 47.2691 11.1187 50.5456C8.57627 53.1386 13.2233 44.2978 13.2233 40.5828C13.2233 36.626 13.3627 32.3526 9.41882 30.296C6.72662 28.8921 4.12682 26.7692 1.25635 25.777C0.146388 25.3933 2.93049 24.9505 4.08491 24.3617C10.134 21.2759 11.7571 23.1036 17.285 19.1724Z" fill="#FF0000"/>
<path d="M71.9724 26.7205C71.9724 26.2487 57.8064 31.6352 54.4986 35.212C50.2972 39.7553 47.3603 46.1827 44.6301 51.7606C43.7069 53.6467 43.351 53.208 42.7076 51.5986C42.17 50.2536 41.184 48.4742 40.1579 47.4474C36.2774 43.5644 27.8094 42.7046 22.6534 43.4785C17.9022 44.1917 14.3313 47.2691 11.1187 50.5456C8.57627 53.1386 13.2233 44.2978 13.2233 40.5828C13.2233 36.626 13.3627 32.3526 9.41882 30.296C6.72662 28.8921 4.12682 26.7692 1.25635 25.777C0.146388 25.3933 2.93049 24.9505 4.08491 24.3617C10.134 21.2759 11.7571 23.1036 17.285 19.1724C21.1482 16.4252 20.6374 6.81868 22.6534 4.07636C22.6904 1.33431 36.6394 10.7753 39.4428 10.7753C48.1907 10.7753 53.4457 7.63442 60.9406 2.18937C63.0675 0.644151 60.9406 9.01079 60.9406 10.7753C60.9406 15.8056 63.4864 18.2289 66.3151 21.5312C68.2008 23.89 71.5009 26.7205 72 26.7205" stroke="black" stroke-width="2" stroke-linecap="round"/>
<path d="M31.3203 17.668C31.9082 17.668 32.4072 19.4749 32.8174 23.0889C32.667 24.21 32.4801 24.7705 32.2568 24.7705H31.5049C31.2588 24.7705 31.0104 24.333 30.7598 23.458H30.9443C30.8213 23.2393 30.7598 22.9909 30.7598 22.7129C30.3405 22.9635 28.7842 23.2119 26.0908 23.458C25.8402 23.0479 25.7148 22.6742 25.7148 22.3369V22.1523C25.7148 21.5872 27.335 21.2135 30.5752 21.0312V19.5342C28.6429 19.5342 26.8359 19.6595 25.1543 19.9102L24.5938 18.9736C24.5938 18.1032 25.4665 17.668 27.2119 17.668H31.3203ZM33.002 25.7002C33.6263 25.8734 33.9385 26.3109 33.9385 27.0127L33.7471 27.7578C32.2933 27.7578 30.6755 27.8831 28.8936 28.1338V27.9424L28.5176 28.1338L28.1416 27.9424C28.0186 27.9424 27.957 28.0062 27.957 28.1338C26.3392 28.0426 25.5303 27.792 25.5303 27.3818V26.4521C25.5303 26.238 25.8402 26.0511 26.46 25.8916C26.7744 25.8916 27.2734 25.9531 27.957 26.0762C30.8691 25.9531 32.5508 25.8278 33.002 25.7002ZM32.2568 28.5029C33.1273 28.5029 33.5625 29.501 33.5625 31.4971C33.5625 33.238 32.3161 34.1084 29.8232 34.1084V34.4844L31.1357 34.6689H31.8809L33.1865 34.2998L33.5625 34.8604C33.5625 35.7308 33.1888 36.3529 32.4414 36.7266H31.6963C29.4541 36.7266 28.333 36.2275 28.333 35.2295C28.0824 35.2295 27.957 34.7327 27.957 33.7393C27.957 32.8415 29.2035 32.2171 31.6963 31.8662V30.9365C31.6963 30.6859 31.5094 30.5605 31.1357 30.5605C30.9489 30.5605 29.8278 30.6859 27.7725 30.9365L27.2119 30.1846V29.4395C27.2119 28.9427 28.8936 28.6305 32.2568 28.5029ZM38.833 17.0869C40.7015 17.4287 41.6357 18.4268 41.6357 20.0811H41.4512L41.6357 20.457C41.6357 21.7148 40.264 22.6491 37.5205 23.2598C37.5205 23.3874 37.459 23.4512 37.3359 23.4512C37.459 23.9479 37.7712 24.1963 38.2725 24.1963C39.3753 24.0732 40.0612 24.0117 40.3301 24.0117L40.8906 24.9482C40.8906 25.5726 40.0794 26.0078 38.457 26.2539C36.4609 26.2539 35.4629 25.1328 35.4629 22.8906C35.4629 22.0339 36.8346 21.2227 39.5781 20.457V19.7051C39.5781 19.5046 39.2044 19.2562 38.457 18.96C38.2975 19.083 37.4248 19.2083 35.8389 19.3359C35.2692 19.0944 34.957 18.8438 34.9023 18.584V17.6475C34.9434 17.4014 35.0687 17.2783 35.2783 17.2783C36.2809 17.2783 37.4658 17.2145 38.833 17.0869ZM45.751 19.1445H46.3115C47.0635 19.1445 47.4395 21.266 47.4395 25.5088C47.1432 26.2562 46.8926 26.6299 46.6875 26.6299H46.127C45.931 26.6299 45.6826 26.3792 45.3818 25.8779V22.6992L45.1904 21.5781C45.1904 21.4551 45.2542 21.3936 45.3818 21.3936L45.1904 20.457V20.2656C45.2679 19.5182 45.4548 19.1445 45.751 19.1445ZM44.0693 27.751C45.9378 27.751 46.8721 28.5622 46.8721 30.1846V30.3691C46.8721 31.8047 46.5622 32.6159 45.9424 32.8027H45.751C45.0036 32.8027 44.6299 32.429 44.6299 31.6816L44.8145 30.5605V29.8086L43.8848 29.624C42.2077 29.8747 41.1458 30 40.6992 30C40.0293 30 39.6556 29.6878 39.5781 29.0635C39.8333 28.3115 40.084 27.9355 40.3301 27.9355H40.6992C40.8268 27.9355 40.8906 27.9993 40.8906 28.127C41.5742 27.8763 42.6338 27.751 44.0693 27.751ZM48.957 18.584H49.5176C49.7682 18.8392 50.0189 21.0837 50.2695 25.3174L49.5176 25.8779H49.333C49.0049 25.8779 48.7542 25.3789 48.5811 24.3809V22.5146L48.3965 21.3867C48.3965 21.2637 48.458 21.2021 48.5811 21.2021L48.3965 20.2656V19.1445C48.3965 18.9622 48.5833 18.7754 48.957 18.584ZM50.0781 27.1904C50.4564 27.9105 50.6455 28.348 50.6455 28.5029C50.4587 28.9997 50.2695 29.248 50.0781 29.248C49.3307 29.248 48.957 28.8743 48.957 28.127C49.0345 27.7533 49.4082 27.4411 50.0781 27.1904Z" fill="white"/>
</svg>
