<svg width="224" height="80" viewBox="0 0 224 80" fill="none" xmlns="http://www.w3.org/2000/svg">
<path d="M11.9133 24.1972C8.52096 19.76 3.91501 13.9032 1.15303 9.2675C-0.164299 8.47896 7.35921 10.3511 10.8372 10.3511C14.9609 10.3511 18.9103 11.4347 23.092 11.4347C38.2277 11.4347 53.7784 12.1513 68.8229 11.1538C74.2724 10.7924 79.6938 10.7123 85.1725 10.7123C93.6716 10.7123 102.117 9.7814 110.609 9.62871C123.497 9.39694 136.376 7.83429 149.166 7.02003C154.98 6.64989 160.519 6.01669 166.382 6.01669C171.127 6.01669 175.837 6.08209 180.55 5.63542C189.376 4.79885 198.951 4.56816 207.51 2.92641C209.374 2.56896 212.524 2.04347 214.475 2.04347C217.161 2.04347 219.654 1 222.365 1C224.034 1 221.937 6.4713 221.469 7.10029C219.633 9.56564 218.381 12.5398 216.896 15.127C214.897 18.6077 212.235 21.8892 210.141 25.341C208.02 28.8361 203.882 32.5823 199.978 35.2339C198.226 36.4244 196.232 38.8265 193.881 39.5282C193.129 39.7524 192.135 40.0706 191.609 40.5114C189.204 42.5298 183.302 41.7756 180.042 41.7756H155.861C137.541 41.7756 118.873 42.4705 100.625 41.4144C86.0804 40.5726 71.3957 40.692 56.8073 40.692C49.0916 40.692 41.132 41.0695 33.4337 40.672C30.3702 40.5138 27.4659 39.5256 24.706 38.7255C23.3182 38.3232 22.6027 37.6877 21.8366 36.8794C18.0889 32.9255 15.0727 28.3297 11.9133 24.1972Z" fill="#FF0000" stroke="black" stroke-width="2" stroke-linecap="round"/>
<path d="M98.7007 46.7642C99.0274 47.1998 99.5778 48.2123 100.156 48.3279L109.905 48.4714C110.603 48.4714 111.303 48.4906 112 48.4638C112.509 48.4443 113.004 48.3893 113.51 48.3355C114.013 48.2819 114.517 48.1711 115.02 48.1317C115.627 48.084 116.194 47.8234 116.639 47.4107C116.775 47.2845 116.944 47.1433 117.122 47.0786C117.224 47.0414 117.27 46.9355 117.377 46.9087C117.461 46.8877 118.668 45.6484 118.725 45.5915C118.725 43.9724 119.507 42.5296 119.507 40.9112C119.507 39.2668 119.656 37.6551 119.702 36.0138C119.737 34.7492 120.083 33.2773 121.461 33.2773C122.119 33.2773 122.704 33.4728 123.329 33.4728C124.294 33.4728 124.393 33.6138 124.393 34.5478C124.393 35.9333 124.423 37.3219 124.393 38.7068C124.363 40.0844 123.807 41.3091 123.807 42.703C123.807 47.2427 123.517 51.6267 122.471 56.0704C122.136 57.494 122.243 58.9912 122.243 60.4466C122.243 62.2663 123.611 63.7218 123.611 65.4634C123.611 67.5755 123.797 69.7863 123.514 71.8811C123.382 72.8518 123.442 73.5339 122.786 74.3244C122.51 74.6569 121.234 76.2433 120.69 75.7903C119.464 74.7682 118.734 72.8923 117.943 71.5445C117.228 70.3277 115.821 68.1714 114.229 68.265C113.24 68.3232 112.274 70.1052 112.274 70.9146C112.274 72.1303 111.548 73.5436 111.145 74.6719C110.938 75.2529 110.475 75.9723 110.133 76.5045L110.124 76.5179C109.595 77.3414 108.45 79.7807 107.475 78.5268C106.918 77.8114 106.823 76.9763 106.324 76.1921C105.467 74.8461 106.149 72.5807 105.672 71.0449C104.693 67.8895 104.312 64.4809 102.979 61.4347C102.531 60.4101 101.723 59.5518 101.035 58.6874C100.163 57.5912 99.3725 56.2435 98.3098 55.3211C96.8915 54.0902 95.426 52.7358 93.901 51.6508C91.4988 49.9415 90.0552 46.3355 89.3294 43.5934C89.1765 43.0159 88.8528 40.6961 89.2534 40.162C89.2724 40.1366 90.6625 40.7642 90.7736 40.8026C92.8342 41.5159 94.6228 42.8535 96.29 44.2015C97.2166 44.9506 97.9921 45.8194 98.7007 46.7642Z" fill="#AFAFAF" stroke="black" stroke-width="2" stroke-linecap="round"/>
<path d="M101.32 51.1585C101.455 47.786 104.299 44.3938 106.943 42.5633C106.776 42.2282 106.771 41.902 106.575 41.5694C106.302 41.1043 105.678 40.9145 105.462 40.4099C105.235 39.882 104.616 39.2724 104.136 38.9927C103.608 38.6846 103.211 37.9662 102.673 37.5939C101.073 36.4857 101.181 34.5266 102.406 33.0294C102.79 32.5604 103.392 32.5523 103.962 32.6337C104.44 32.702 104.774 33.4312 105.158 33.692C106.353 34.5048 107.738 35.56 108.342 36.9405C108.565 37.4502 108.88 37.9139 109.087 38.4313C109.186 38.6779 109.262 39.4683 109.262 38.8362V37.2258C109.262 36.1694 109.264 35.1771 109.557 34.1521C109.653 33.8166 109.703 32.8036 110.017 32.6245C110.774 32.1919 112.484 31.2332 112.575 32.7901C112.65 34.0579 112.741 35.4395 112.741 36.7748V40.4835C112.741 41.2454 112.501 42.2181 113.072 42.7289C114.225 43.7606 115.849 44.2549 116.891 45.4713C117.651 46.3582 118.449 47.6185 118.833 48.729C119.372 50.2877 119.14 52.4944 118.612 54.0021C118.196 55.1895 117.47 56.3605 116.459 57.1309C115.441 57.9063 114.108 57.8027 112.906 57.8027C109.494 57.8027 105.525 58.1749 102.802 55.7137C101.251 54.3114 101.242 53.1241 101.32 51.1585Z" fill="#AFAFAF" stroke="black" stroke-width="2" stroke-linecap="round"/>
<path d="M105 51.4219C105.802 51.2946 106.585 51.1484 107.394 51.1484C107.584 51.1484 107.693 51.1859 107.832 51.3246C108.075 51.5677 108.209 52.0839 108.324 52.3819C108.426 52.6498 108.5 52.8864 108.5 53.1718" stroke="black" stroke-width="2" stroke-linecap="round"/>
<path d="M114.132 50C113.442 50.0175 112.842 50.3281 112.164 50.3281" stroke="black" stroke-width="2" stroke-linecap="round"/>
</svg>
