<svg width="188" height="68" viewBox="0 0 188 68" fill="none" xmlns="http://www.w3.org/2000/svg">
<path d="M10.1435 21.0663C7.30134 17.3487 3.44231 12.4417 1.12822 8.55769C0.0245059 7.89701 6.32799 9.46557 9.24201 9.46557C12.697 9.46557 16.006 10.3735 19.5095 10.3735C32.1908 10.3735 45.2197 10.9739 57.8246 10.1381C62.3904 9.83533 66.9326 9.7682 71.5229 9.7682C78.6438 9.7682 85.7199 8.98825 92.8342 8.86032C103.632 8.66613 114.423 7.35689 125.139 6.67467C130.01 6.36455 134.651 5.83403 139.564 5.83403C143.539 5.83403 147.485 5.88883 151.434 5.51459C158.829 4.81368 166.851 4.6204 174.022 3.24488C175.583 2.94539 178.223 2.50512 179.857 2.50512C182.108 2.50512 184.197 1.63086 186.468 1.63086C187.866 1.63086 186.11 6.21493 185.717 6.74192C184.179 8.80748 183.13 11.2993 181.886 13.467C180.211 16.3833 177.981 19.1326 176.226 22.0247C174.449 24.953 170.982 28.0917 167.711 30.3133C166.243 31.3108 164.573 33.3233 162.603 33.9112C161.973 34.0991 161.14 34.3657 160.7 34.735C158.684 36.4261 153.74 35.7942 151.008 35.7942H130.749C115.399 35.7942 99.7582 36.3764 84.4699 35.4916C72.2836 34.7863 59.9802 34.8864 47.7575 34.8864C41.293 34.8864 34.6241 35.2026 28.1742 34.8695C25.6075 34.737 23.1741 33.9091 20.8618 33.2387C19.699 32.9016 19.0996 32.3692 18.4577 31.6919C15.3177 28.3793 12.7906 24.5287 10.1435 21.0663Z" fill="#FF0000" stroke="black" stroke-width="2" stroke-linecap="round"/>
<path d="M82.8572 39.9736C83.1309 40.3386 83.592 41.1869 84.0763 41.2838L92.2445 41.404C92.8291 41.404 93.4157 41.4201 93.9997 41.3976C94.426 41.3812 94.8413 41.3352 95.2647 41.2901C95.6866 41.2452 96.1086 41.1524 96.5297 41.1193C97.0391 41.0794 97.514 40.8611 97.8864 40.5153C98.0003 40.4095 98.1421 40.2912 98.2912 40.237C98.3769 40.2059 98.4149 40.1171 98.5046 40.0947C98.5752 40.0771 99.5864 39.0387 99.634 38.9911C99.634 37.6345 100.289 36.4257 100.289 35.0698C100.289 33.692 100.415 32.3417 100.453 30.9665C100.482 29.907 100.772 28.6738 101.927 28.6738C102.478 28.6738 102.968 28.8376 103.492 28.8376C104.3 28.8376 104.383 28.9557 104.383 29.7383C104.383 30.8991 104.408 32.0625 104.383 33.2229C104.358 34.377 103.892 35.4031 103.892 36.571C103.892 40.3746 103.649 44.0477 102.773 47.7707C102.492 48.9635 102.582 50.2178 102.582 51.4372C102.582 52.9619 103.728 54.1813 103.728 55.6405C103.728 57.4101 103.883 59.2625 103.646 61.0175C103.536 61.8308 103.587 62.4023 103.037 63.0646C102.805 63.3432 101.736 64.6723 101.281 64.2928C100.253 63.4365 99.6422 61.8647 98.979 60.7355C98.3802 59.716 97.2015 57.9094 95.8674 57.9878C95.0385 58.0366 94.2298 59.5296 94.2298 60.2078C94.2298 61.2263 93.6212 62.4104 93.2836 63.3557C93.1097 63.8425 92.7222 64.4452 92.4356 64.8911L92.4356 64.8912L92.4283 64.9024C91.9848 65.5923 91.0255 67.6361 90.2084 66.5855C89.7422 65.9862 89.6621 65.2865 89.244 64.6294C88.5264 63.5017 89.0975 61.6037 88.6981 60.317C87.8777 57.6732 87.5584 54.8173 86.4418 52.2652C86.0662 51.4066 85.3894 50.6876 84.8133 49.9633C84.0827 49.0449 83.42 47.9157 82.5296 47.1429C81.3414 46.1116 80.1135 44.9769 78.8358 44.0678C76.8231 42.6357 75.6137 39.6145 75.0055 37.317C74.8774 36.8332 74.6062 34.8895 74.9418 34.442C74.9578 34.4208 76.1224 34.9466 76.2156 34.9788C77.942 35.5764 79.4405 36.6971 80.8374 37.8265C81.6137 38.4541 82.2634 39.182 82.8572 39.9736Z" fill="#AFAFAF" stroke="black" stroke-width="2" stroke-linecap="round"/>
<path d="M85.0521 43.6553C85.1651 40.8297 87.5477 37.9876 89.7631 36.4539C89.6227 36.1731 89.6186 35.8999 89.4547 35.6212C89.2255 35.2315 88.7029 35.0724 88.5217 34.6497C88.3322 34.2074 87.8132 33.6966 87.4115 33.4623C86.9689 33.2042 86.6361 32.6023 86.1855 32.2903C84.8444 31.3619 84.9356 29.7204 85.9619 28.466C86.2834 28.0731 86.7878 28.0663 87.265 28.1345C87.6656 28.1917 87.946 28.8027 88.2673 29.0212C89.2688 29.7022 90.429 30.5862 90.935 31.7429C91.1219 32.17 91.3862 32.5585 91.5596 32.992C91.6422 33.1985 91.7061 33.8608 91.7061 33.3312V31.9819C91.7061 31.0969 91.7074 30.2654 91.9528 29.4067C92.0331 29.1256 92.0757 28.2768 92.3383 28.1268C92.9726 27.7643 94.405 26.9612 94.4818 28.2656C94.5442 29.3277 94.6206 30.4853 94.6206 31.6041V34.7113C94.6206 35.3497 94.4198 36.1647 94.8981 36.5927C95.8642 37.457 97.2243 37.8712 98.0979 38.8903C98.7348 39.6334 99.4027 40.6894 99.7248 41.6197C100.177 42.9257 99.9818 44.7745 99.5397 46.0377C99.1915 47.0326 98.5827 48.0137 97.7355 48.6592C96.8829 49.3088 95.7657 49.2221 94.7593 49.2221C91.9004 49.2221 88.5749 49.5339 86.2935 47.4718C84.9935 46.2969 84.9862 45.3022 85.0521 43.6553Z" fill="#AFAFAF" stroke="black" stroke-width="2" stroke-linecap="round"/>
<path d="M88.1353 43.8761C88.8069 43.7695 89.4628 43.647 90.1411 43.647C90.3002 43.647 90.3913 43.6783 90.5076 43.7946C90.7112 43.9982 90.8242 44.4307 90.92 44.6804C91.006 44.9048 91.0676 45.1031 91.0676 45.3422" stroke="black" stroke-width="2" stroke-linecap="round"/>
<path d="M95.7866 42.6851C95.2085 42.6997 94.7056 42.96 94.1372 42.96" stroke="black" stroke-width="2" stroke-linecap="round"/>
<path d="M117.792 43.5103H118.061C118.594 43.5103 118.861 43.7788 118.861 44.3159V45.2485H120.199C120.466 45.3364 120.6 45.6034 120.6 46.0493V46.4497C120.242 46.4497 120.062 46.5392 120.062 46.7183C120.261 46.7183 120.44 47.1187 120.6 47.9194V48.4565C120.6 49.2769 119.931 49.8563 118.593 50.1948C117.167 49.8368 116.454 49.1678 116.454 48.188V47.3872L116.591 47.1187C116.145 46.9689 115.922 46.7459 115.922 46.4497C116.163 45.828 116.697 45.5171 117.523 45.5171V44.4478L117.792 43.5103ZM123.002 46.855H123.539C123.806 46.855 124.206 48.5916 124.74 52.0649C124.597 52.4198 124.286 52.5972 123.808 52.5972C123.521 52.5972 123.075 50.8605 122.47 47.3872L123.002 46.855ZM117.792 47.7876V48.0562C117.799 48.1766 118.021 48.354 118.461 48.5884C118.995 48.5884 119.262 48.3654 119.262 47.9194C118.936 47.6525 118.625 47.519 118.329 47.519H118.061C117.882 47.5483 117.792 47.6379 117.792 47.7876ZM121.132 50.4585L121.4 50.8589V51.5278C121.4 51.7264 120.91 51.9494 119.931 52.1968C119.931 52.2912 119.887 52.4246 119.799 52.5972C119.975 53.2157 120.062 53.7511 120.062 54.2036C119.796 54.425 119.662 54.6024 119.662 54.7358C118.861 54.7358 118.461 53.9351 118.461 52.3335C118.028 52.6004 117.449 52.7339 116.723 52.7339C116.596 52.7339 116.462 52.6004 116.322 52.3335V52.1968C116.322 51.3374 117.615 50.8035 120.199 50.5952C120.313 50.5041 120.624 50.4585 121.132 50.4585ZM134.911 45.7856H135.312C135.312 45.9224 135.401 46.0998 135.58 46.3179V47.9194C135.58 48.3263 135.714 49.3062 135.98 50.8589C135.808 51.2658 135.629 51.4888 135.443 51.5278H135.18C134.799 51.5278 134.486 50.2811 134.242 47.7876H134.379L134.242 47.519C134.333 46.3634 134.556 45.7856 134.911 45.7856ZM127.963 46.0493C128.943 46.1144 129.433 46.3813 129.433 46.8501C129.566 46.7622 130.146 46.6743 131.171 46.5864C131.884 47.2765 132.24 48.3459 132.24 49.7944V50.0581C132.24 50.5203 132.107 50.7873 131.84 50.8589H131.303C131.036 50.8589 130.858 49.9686 130.771 48.188H129.965C129.838 48.188 129.704 48.3215 129.564 48.5884V48.7251C129.564 49.1906 129.61 49.9474 129.701 50.9956L129.164 51.396H128.9C128.542 51.396 128.319 50.7726 128.231 49.5259L128.363 48.7251V47.7876C128.363 47.6086 128.23 47.519 127.963 47.519C127.768 47.519 127.099 47.6086 125.956 47.7876C125.601 47.6997 125.424 47.4328 125.424 46.9868C125.424 46.3618 126.181 46.0493 127.694 46.0493H127.963Z" fill="black"/>
</svg>
