<svg width="278" height="68" viewBox="0 0 278 68" fill="none" xmlns="http://www.w3.org/2000/svg">
<path d="M278 36.0266C278 51.359 246.575 68 176.987 68C107.399 68 77.038 63.4615 26 36.0266C26 22.4927 71.7792 9 141.367 9C210.955 9.00019 278 13.5385 278 36.0266Z" fill="white"/>
<path d="M21.5514 34.9394C22.2941 33.4492 23.7015 29.9803 25.5738 29.5107C25.5738 26.8773 23.8853 24.1733 23.2854 21.6883C23.0759 20.82 22.7513 19.7539 22.2887 18.9733C22.0806 18.6222 21.7979 17.747 21.7457 17.3294C21.5712 15.9332 21.0707 14.6137 20.2208 13.521C19.9203 13.1346 19.9209 13.1862 19.3059 13.1862C18.659 13.1862 17.6265 13.1048 17.0372 13.454C16.4811 13.7835 15.4902 13.9997 14.8503 14.116C12.696 14.5077 10.5635 15.0506 8.42352 15.3359C7.14226 15.5068 5.77958 15.7302 4.48117 15.7302C3.67109 15.7302 2.80545 15.6892 2.26453 14.9938C2.00307 14.6576 1.30098 14.1666 1.26778 13.7516C1.19422 12.8321 1 11.9341 1 10.977C1 10.445 2.15897 10.221 2.60669 10.1365C3.71271 9.92782 4.92507 9.41642 5.89447 8.83478C7.97684 7.58536 10.5521 7.10645 12.8419 6.38755C14.1459 5.97817 15.6271 5.41349 17 5.2941C18.3636 5.17553 19.6867 5.23093 21.0539 5.04863C22.0908 4.91039 23.1835 4.88499 24.2301 4.88499H25.6955C26.3518 4.88499 26.8517 5.88447 27.2129 6.35779C27.8144 7.14599 28.3524 8.08504 28.775 8.96867C29.2277 9.91519 29.4298 10.9516 29.861 11.9217C30.1815 12.6428 30.2016 13.6159 30.3296 14.3838C30.4148 14.8952 30.59 15.4487 30.59 15.998C30.59 16.6851 30.8826 17.2939 30.9842 17.9543C31.1054 18.7419 31.4693 19.6053 31.5272 20.3866C31.623 21.68 32.2179 22.8761 32.6281 24.0612C32.8782 24.7837 33.1948 25.3122 33.7215 25.839C33.8212 25.9386 34.171 26.2548 34.1976 26.3745C34.2985 26.8285 36.896 25.8726 37.2845 25.9059C37.681 25.5455 37.7168 24.7527 37.8201 24.262C37.9992 23.411 38.3592 22.6127 38.5565 21.7627C38.9308 20.1501 39.6236 18.5694 40.2152 17.0245C40.5054 16.2669 40.6096 15.446 40.8996 14.6888C41.3369 13.547 41.8109 12.3972 42.1046 11.2076C42.7996 8.39279 44.2252 5.82489 44.3882 2.8915C44.4487 1.80253 44.5049 1.04506 45.7494 1.00215C48.6001 0.90385 50.1381 4.19607 50.1381 6.62558C50.1381 7.32391 49.9005 7.74385 50.6141 7.90499C51.2434 8.04708 51.6818 8.34737 52.2208 8.64139C52.8307 8.97403 53.458 9.10712 53.9465 9.57119C55.7451 11.2799 57.7056 12.6035 59.3022 14.5549C60.7662 16.3442 62.4077 17.7674 63.6611 19.7172C64.3659 20.8136 65 22.0442 65 23.362C65 24.0379 64.66 24.5905 63.9884 24.8348C63.3979 25.0495 62.89 25.696 62.3222 24.9389C61.8512 24.3109 60.8746 23.9098 60.2469 23.4215C59.5617 22.8886 58.8945 22.3444 58.2757 21.7255C57.4806 20.9305 56.5728 20.5328 55.6276 19.9552C54.687 19.3804 53.8684 18.7751 52.9795 18.1402C51.853 17.3355 50.8298 16.288 49.8703 15.3285C49.0988 14.557 49.048 15.9171 48.7248 16.3327C48.1375 17.0878 48.1257 18.1473 47.6537 18.9733C47.2212 19.7301 46.9556 20.6235 46.59 21.428C46.2949 22.0771 45.9457 22.7267 45.6899 23.3917C45.482 23.9323 44.9163 24.7203 44.9163 25.3034C44.9163 26.0457 45.8357 25.356 46.2255 25.6679C48.4437 26.3745 49.2496 26.9819 50.3309 27.9455C51.1743 28.5095 52.483 29.913 52.9484 30.7535C53.2735 31.3405 54.1152 32.2933 54.5811 32.8075C55.1667 33.4537 55.6599 34.2278 56.2786 34.8485C57.9044 36.4795 57.5614 39.3977 57.5614 41.5044C57.5614 45.8111 57.1842 49.6378 55.5141 53.6333L55.4975 53.6729L55.4975 53.6729C54.8424 55.2403 54.3973 56.3053 53.1817 57.4813C51.8934 58.7276 50.5228 59.5049 48.8796 60.1853C47.5382 60.7407 45.9694 61.4222 44.5258 61.6153C42.2706 61.9169 39.7938 61.6413 37.5285 61.6413C34.4158 61.6413 31.9564 61.4636 29.2354 59.7693C26.7448 58.2183 25.3807 56.4512 23.6247 54.1533C21.4046 51.2482 20.7091 48.4549 20.7091 44.8974C20.7091 41.7713 20.1259 37.7997 21.5514 34.9394Z" fill="url(#paint0_linear_254_852)" stroke="black" stroke-width="2" stroke-linecap="round"/>
<path d="M45.1117 49.1441C45.1134 49.1974 45.1376 49.3719 45.0866 49.4037C45.1925 49.7213 45.3076 50.2341 45.3076 50.5682C45.3076 51.1947 45.5368 51.6398 45.3076 52.2357C45.1544 52.634 44.9859 53.2953 44.6406 53.5698C44.3629 53.7905 43.6348 54.1174 43.3065 54.2369C42.7966 54.4225 42.5102 54.5704 41.9724 54.5704C41.2009 54.5704 40.0478 54.1672 39.4864 53.5302C39.0155 52.996 38.724 52.2175 38.6672 51.5137C38.595 50.6194 38.6524 49.6831 38.8459 48.8092C38.9627 48.2814 39.1295 47.7668 39.4711 47.3384C39.6631 47.0974 39.9073 46.7933 40.2051 46.6853C40.6299 46.5311 41.1875 46.5586 41.6355 46.5918C41.821 46.6055 42.0008 46.6761 42.1728 46.7411C42.5026 46.8657 42.8333 46.9918 43.158 47.129C43.5731 47.3044 43.9534 47.5671 44.2716 47.8854C44.541 48.1548 44.8122 48.4326 44.9861 48.7757C45.0423 48.8866 45.1076 49.018 45.1117 49.1441Z" fill="white" stroke="black" stroke-width="2" stroke-linecap="round"/>
<path d="M26.631 41.2293C26.5246 40.5163 27.1671 39.1773 27.6176 38.6342C27.9545 38.3017 28.2414 37.824 28.6321 37.5605C28.9629 37.3374 29.2955 37.1003 29.6327 36.8934C29.7626 36.8138 30.1591 36.6334 30.2997 36.5599C30.7141 36.3435 31.1752 36.2549 31.6338 36.2264C32.3008 36.2264 32.3008 36.2264 32.9679 36.5599C33.4308 36.6311 33.9005 36.9106 34.3289 37.1091C34.9893 37.4153 35.531 38.0587 36.0264 38.5759C36.5633 39.1363 36.9281 39.9287 37.0689 40.6914C37.1188 40.9617 37.0742 41.2879 37.0689 41.5628C37.0609 41.9753 36.976 42.3714 36.7801 42.7257C36.5118 43.2109 36.36 43.8457 35.9696 44.231C35.6467 44.5495 35.3265 44.951 34.969 45.2315C34.248 45.7973 33.1836 45.9982 32.3039 46.2715C31.6916 46.4617 31.1432 46.5195 30.2996 46.2321C29.3492 45.9082 28.4283 45.4653 27.781 44.7032C27.2596 44.0893 26.7811 43.5639 26.631 42.615C26.4648 42.1579 26.7031 41.7124 26.631 41.2293Z" fill="white" stroke="black" stroke-width="2" stroke-linecap="round"/>
<path d="M43.1302 35.0721C43.6458 34.5955 44.9125 34.1501 45.6502 33.9407C46.5801 33.8167 46.9755 33.8923 47.8041 33.9704C48.6431 34.2259 49.7634 33.9407 51.2906 36.227C52.6453 38.8952 52.2069 39.2268 52.0889 40.2128C51.9791 41.1305 51.7842 42.0552 51.2906 42.845C50.8944 43.4789 50.3537 44.0439 49.7634 44.5025C49.0511 45.0559 48.239 45.1028 47.372 45.1028C46.3655 45.1028 45.4358 44.8326 44.4924 44.5025C43.7372 44.2381 43.0346 43.866 42.4705 43.2886C41.8156 42.6185 41.5481 41.6098 41.3671 40.7125C41.2741 40.2513 41.3084 39.7547 41.3308 39.2876C41.3488 38.9136 41.3514 38.5661 41.4496 38.2023C41.674 37.3708 42.0409 36.5528 42.5166 35.834C42.6948 35.5648 42.8923 35.2919 43.1302 35.0721Z" fill="white" stroke="black" stroke-width="2" stroke-linecap="round"/>
<path d="M31.6419 37.0337C31.8136 37.1476 31.9887 37.2557 32.1169 37.4201C32.1723 37.4911 32.2246 37.5648 32.2767 37.6383C32.3391 37.7261 32.3847 37.8229 32.4358 37.9171C32.497 38.0297 32.5484 38.1472 32.5904 38.2686C32.6384 38.4075 32.7027 38.5416 32.7358 38.6853C32.809 39.0022 32.792 39.333 32.7873 39.6565C32.7844 39.8629 32.7223 40.0682 32.6783 40.2687C32.626 40.5067 32.5482 40.7407 32.4707 40.9717C32.3806 41.2399 32.2304 41.493 32.01 41.6702C31.8644 41.7873 31.7118 41.8923 31.5631 42.0051C31.4104 42.1208 31.2526 42.2374 31.0782 42.3187C30.7517 42.4709 30.4069 42.5672 30.066 42.6793C29.8059 42.765 29.5407 42.8086 29.2706 42.8536C28.986 42.901 28.7047 42.9614 28.416 42.9763C28.2971 42.9825 28.1775 42.9794 28.0584 42.9794C28.0098 42.9794 27.9699 42.9655 27.9629 43.0263C27.9484 43.1538 28 43.2792 28.0614 43.3869C28.2091 43.6459 28.3641 43.898 28.5523 44.1294C28.9743 44.6479 29.4557 45.2287 30.0903 45.4916C30.2288 45.5489 30.388 45.5856 30.5358 45.6052C30.6773 45.624 30.801 45.6648 30.9358 45.7098C30.9662 45.7199 30.9908 45.7312 31.0176 45.7446C31.0176 45.7446 30.9904 45.5828 30.9873 45.5704C30.9335 45.3552 30.8918 45.139 30.8918 44.9158C30.8918 44.5685 30.9969 44.24 31.0737 43.9051C31.1678 43.4943 31.2506 43.0773 31.3721 42.6733C31.4742 42.3339 31.5721 41.9978 31.7919 41.7142C31.9959 41.4509 32.2567 41.2771 32.5631 41.149C32.9418 40.9906 33.3526 40.9923 33.751 40.9202C34.1207 40.8533 34.5018 40.8474 34.8768 40.852C34.9806 40.8533 35.0638 40.8894 35.1571 40.9308C35.2785 40.9846 35.4037 41.0301 35.5253 41.0838C35.5441 41.0921 35.7288 41.194 35.7435 41.1763C35.7777 41.1353 35.7498 40.9265 35.7405 40.8763C35.6629 40.4599 35.2906 40.1472 35.0056 39.8656C34.8456 39.7075 34.6756 39.5474 34.5495 39.361C34.4445 39.2059 34.365 39.0322 34.2571 38.8777C34.245 38.8603 34.1448 38.6865 34.1162 38.7034C34.0967 38.715 34.0929 38.7423 34.0828 38.7625C34.037 38.8549 33.9906 38.9467 33.9389 39.036C33.8469 39.1948 33.7414 39.3459 33.6359 39.4959C33.4778 39.7205 33.3556 39.9534 33.2177 40.1899C33.0424 40.4904 32.8466 40.7784 32.651 41.0657C32.4167 41.4098 32.2024 41.7642 31.9555 42.1005C31.7253 42.414 31.4689 42.7121 31.2115 43.0036C30.9948 43.2491 30.7851 43.493 30.5282 43.6976C30.3669 43.826 30.2359 43.9867 30.0691 44.1082C29.9428 44.2002 29.8486 44.3245 29.7297 44.4249C29.6209 44.5166 29.5304 44.6292 29.4327 44.7324C29.4077 44.7588 29.3514 44.9058 29.4342 44.8597C29.5533 44.7934 29.6688 44.7058 29.7736 44.6188C29.8045 44.5932 29.8425 44.5728 29.8554 44.534" stroke="black" stroke-width="2" stroke-linecap="round"/>
<path d="M46.7686 34.1548C47.1241 34.5405 47.4602 34.8899 47.6388 35.3851C47.707 35.5742 47.7564 35.7589 47.7777 35.9591C47.8188 36.345 47.7945 36.7474 47.6861 37.1194C47.5263 37.6684 47.2873 38.191 46.8807 38.5976C46.6584 38.8199 46.4009 39.001 46.1329 39.1644C45.8107 39.3608 45.4601 39.5705 45.1042 39.6973C44.5926 39.8794 44.0879 40.0286 43.555 40.1365C43.334 40.1813 43.118 40.2607 42.8925 40.2795C42.8068 40.2866 42.7251 40.2948 42.6405 40.3103C42.5975 40.3183 42.5353 40.3077 42.4955 40.3247C42.343 40.3901 43.0742 41.5582 43.1363 41.6692C43.3261 42.008 43.4573 42.3811 43.5982 42.7421C43.6449 42.8619 43.6919 42.982 43.7289 43.1052C43.7334 43.1204 43.7319 43.0192 43.7319 43.0034C43.7319 42.4828 43.6886 41.9435 43.7494 41.4264C43.7557 41.373 43.8577 41.685 43.8657 41.7176C43.964 42.1176 44.0505 42.52 44.1537 42.919C44.2241 43.1913 44.3148 43.436 44.417 43.6916C44.5012 43.902 44.7011 44.0672 44.8573 44.2234C44.9405 44.3066 44.971 44.0527 44.9828 44.0022C45.0382 43.7659 45.1389 43.5409 45.2215 43.313C45.3526 42.9511 45.4677 42.5845 45.635 42.236C45.7279 42.0424 45.7843 41.8339 45.8716 41.6383C45.9484 41.4663 46.0383 41.2944 46.1215 41.125C46.3239 40.7135 46.5191 40.2855 46.7665 39.8989C46.9798 39.5656 47.2312 39.2688 47.5565 39.0389C48.0191 38.7121 48.5648 38.585 49.1242 38.5637C49.3813 38.5539 49.6405 38.5593 49.8978 38.5616C50.046 38.5629 50.1743 38.577 50.3092 38.6357C50.487 38.7129 50.6865 38.8111 50.8328 38.9402C50.9063 39.005 51.0291 39.0726 51.1198 39.113C51.177 39.1384 51.1734 38.8783 51.1744 38.8465C51.1818 38.6122 51.2016 38.3525 51.1538 38.1224C51.0853 37.7929 50.9439 37.4915 50.8092 37.1852C50.6197 36.7545 50.4026 36.309 50.1405 35.9179C50.0252 35.7458 49.8996 35.5915 49.7497 35.4499C49.6828 35.3868 49.5908 35.2635 49.5007 35.2308C49.3998 35.1941 49.3462 35.7162 49.3423 35.7657C49.3101 36.1693 49.3058 36.5731 49.2909 36.9775C49.2828 37.1952 49.2497 37.4144 49.2497 37.6317C49.2497 37.6912 49.2313 37.7323 49.2024 37.785C49.1204 37.934 48.9794 38.018 48.8341 38.0987C48.5124 38.2774 48.1761 38.4215 47.8384 38.5657C47.4856 38.7164 47.1496 38.8574 46.8684 39.1181C46.5741 39.3908 46.3277 39.722 46.0567 40.0182C45.9385 40.1475 45.8142 40.2698 45.6936 40.3967C45.5498 40.5481 45.4373 40.7067 45.2708 40.837C45.1515 40.9304 45.0437 41.0376 44.917 41.1209C44.8376 41.1731 44.7335 41.24 44.6763 41.3164C44.6362 41.3698 44.5467 41.4964 44.4911 41.5242" stroke="black" stroke-width="2" stroke-linecap="round"/>
<path d="M74.7373 23.2461H74.8691C75.4062 23.2461 75.6748 23.4691 75.6748 23.915C75.4958 24.4814 75.3167 26.3971 75.1377 29.6621C75.2256 29.8346 75.2695 29.9681 75.2695 30.0625C75.1816 30.235 75.1377 30.3685 75.1377 30.4629H75.4062L77.0078 30.3311L77.1445 31.2686C76.8385 31.5355 76.4365 31.7129 75.9385 31.8008C73.5329 31.6706 72.3301 31.4036 72.3301 31V30.7314C72.418 30.4645 72.6849 30.3311 73.1309 30.3311H73.9365V28.1924C73.9365 28.1012 73.9805 28.0557 74.0684 28.0557C74.0684 27.9678 74.0244 27.9238 73.9365 27.9238C74.0244 27.709 74.0684 26.7292 74.0684 24.9844C73.5345 25.3392 73.0446 25.5166 72.5986 25.5166C72.4196 25.5166 72.3301 25.4271 72.3301 25.248V25.1162C72.3301 24.5628 73.043 24.0273 74.4688 23.5098C74.498 23.334 74.5876 23.2461 74.7373 23.2461ZM81.0361 23.915C82.82 24.68 83.7119 25.9723 83.7119 27.792V28.3242C83.7119 29.3236 82.9095 30.1699 81.3047 30.8633H80.7676C79.166 30.3294 78.3652 29.75 78.3652 29.125C78.1309 29.125 77.9518 28.7686 77.8281 28.0557V26.9863C78.0951 25.0267 78.987 24.0469 80.5039 24.0469C80.5462 24.0469 80.7236 24.0029 81.0361 23.915ZM79.0293 27.2549V27.6553C79.0293 28.3226 79.6087 28.9476 80.7676 29.5303C81.9264 29.387 82.5059 28.8516 82.5059 27.9238V27.6553C82.5059 26.8903 82.1055 26.1774 81.3047 25.5166C80.6569 25.1618 80.3005 24.9844 80.2354 24.9844C79.695 24.9844 79.293 25.7412 79.0293 27.2549ZM86.1387 31.8008H86.5391C86.7181 31.8301 86.8076 31.9196 86.8076 32.0693V32.2012C86.8076 32.4844 86.3617 33.1533 85.4697 34.208C85.4697 34.2959 85.2923 34.4294 84.9375 34.6084H84.8008C84.5339 34.5205 84.4004 34.2536 84.4004 33.8076C84.6152 33.3031 85.1947 32.6341 86.1387 31.8008ZM90.7041 23.915C92.488 24.68 93.3799 25.9723 93.3799 27.792V28.3242C93.3799 29.3236 92.5775 30.1699 90.9727 30.8633H90.4355C88.834 30.3294 88.0332 29.75 88.0332 29.125C87.7988 29.125 87.6198 28.7686 87.4961 28.0557V26.9863C87.763 25.0267 88.6549 24.0469 90.1719 24.0469C90.2142 24.0469 90.3916 24.0029 90.7041 23.915ZM88.6973 27.2549V27.6553C88.6973 28.3226 89.2767 28.9476 90.4355 29.5303C91.5944 29.387 92.1738 28.8516 92.1738 27.9238V27.6553C92.1738 26.8903 91.7734 26.1774 90.9727 25.5166C90.3249 25.1618 89.9684 24.9844 89.9033 24.9844C89.363 24.9844 88.9609 25.7412 88.6973 27.2549ZM97.2764 23.915C99.0602 24.68 99.9521 25.9723 99.9521 27.792V28.3242C99.9521 29.3236 99.1497 30.1699 97.5449 30.8633H97.0078C95.4062 30.3294 94.6055 29.75 94.6055 29.125C94.3711 29.125 94.1921 28.7686 94.0684 28.0557V26.9863C94.3353 25.0267 95.2272 24.0469 96.7441 24.0469C96.7865 24.0469 96.9639 24.0029 97.2764 23.915ZM95.2695 27.2549V27.6553C95.2695 28.3226 95.849 28.9476 97.0078 29.5303C98.1667 29.387 98.7461 28.8516 98.7461 27.9238V27.6553C98.7461 26.8903 98.3457 26.1774 97.5449 25.5166C96.8971 25.1618 96.5407 24.9844 96.4756 24.9844C95.9352 24.9844 95.5332 25.7412 95.2695 27.2549ZM103.849 23.915C105.632 24.68 106.524 25.9723 106.524 27.792V28.3242C106.524 29.3236 105.722 30.1699 104.117 30.8633H103.58C101.979 30.3294 101.178 29.75 101.178 29.125C100.943 29.125 100.764 28.7686 100.641 28.0557V26.9863C100.908 25.0267 101.799 24.0469 103.316 24.0469C103.359 24.0469 103.536 24.0029 103.849 23.915ZM101.842 27.2549V27.6553C101.842 28.3226 102.421 28.9476 103.58 29.5303C104.739 29.387 105.318 28.8516 105.318 27.9238V27.6553C105.318 26.8903 104.918 26.1774 104.117 25.5166C103.469 25.1618 103.113 24.9844 103.048 24.9844C102.507 24.9844 102.105 25.7412 101.842 27.2549ZM108.282 22.5771L108.814 25.3848C108.906 25.3848 108.951 25.3408 108.951 25.2529L109.62 25.3848H111.09L111.354 25.5166V24.0469C111.354 23.3665 111.533 22.9661 111.891 22.8457H112.022C112.146 22.8522 112.325 23.0752 112.56 23.5146V24.7158L112.691 25.3848C112.604 25.3848 112.56 25.4287 112.56 25.5166H112.823C112.996 25.4287 113.129 25.3848 113.224 25.3848V25.5166C113.399 25.4287 113.535 25.3848 113.629 25.3848C114.417 25.4727 114.907 25.5166 115.099 25.5166V25.3848L114.962 24.584V24.3154C115.141 23.8695 115.453 23.6465 115.899 23.6465H116.031C116.031 23.7865 116.121 23.9655 116.3 24.1836C116.388 26.4883 116.477 27.8685 116.568 28.3242H116.432L116.568 28.5928V29.2617C116.568 29.3822 116.345 29.6051 115.899 29.9307H115.631C115.491 29.9307 115.313 29.7516 115.099 29.3936V28.5928C115.099 28.5049 115.143 28.4609 115.23 28.4609L115.099 28.1924V26.8545H114.029C113.938 26.8545 113.893 26.8105 113.893 26.7227L113.629 26.8545C113.538 26.8545 113.492 26.8105 113.492 26.7227L113.224 26.8545L112.56 26.7227V27.123C112.42 28.3698 111.84 28.9932 110.821 28.9932C108.683 28.9932 107.613 28.2803 107.613 26.8545C107.346 25.4059 107.213 24.1592 107.213 23.1143C107.265 22.7562 107.621 22.5771 108.282 22.5771ZM109.083 26.7227V27.2549C109.249 27.2549 109.605 27.3444 110.152 27.5234C110.24 27.5234 110.284 27.4795 110.284 27.3916L110.953 27.5234H111.222L111.354 26.8545H111.09C110.641 26.8545 109.972 26.8105 109.083 26.7227ZM111.354 30.3311C111.686 30.3311 111.954 31.0439 112.159 32.4697H114.962C115.141 32.4958 115.23 32.5837 115.23 32.7334V32.8701C115.23 33.583 114.785 33.9395 113.893 33.9395C113.805 33.9395 113.761 33.8939 113.761 33.8027L113.492 33.9395H112.291C111.223 33.9395 110.689 33.181 110.689 31.6641V31.4004C110.689 30.6875 110.911 30.3311 111.354 30.3311ZM128.062 24.0566C128.368 24.0566 128.591 25.0365 128.731 26.9961C128.845 26.9961 128.935 27.263 129 27.7969H128.863C129.042 28.1973 129.132 28.7751 129.132 29.5303V29.7988L128.463 29.9307C128.463 29.8428 128.419 29.7988 128.331 29.7988V29.9307C128.419 29.9307 128.463 29.9762 128.463 30.0674H128.199C128.069 30.0674 127.936 29.9339 127.799 29.667V29.3984C127.799 29.3105 127.843 29.2666 127.931 29.2666C127.843 29.1755 127.753 28.6416 127.662 27.665L127.394 27.7969H126.729L126.993 29.5303C126.638 29.5303 126.461 29.6637 126.461 29.9307H126.329V29.667H125.929L126.061 29.9307V30.0674C125.862 30.0674 125.462 28.3763 124.859 24.9941C124.859 24.6361 125.037 24.3691 125.392 24.1934H125.929L126.061 24.8574C125.973 24.8574 125.929 24.903 125.929 24.9941C126.082 24.9941 126.215 25.2155 126.329 25.6582V26.0586H126.461V26.1953L126.329 26.459L126.593 26.5957H127.262L127.53 26.459C127.439 26.3483 127.35 25.7266 127.262 24.5938C127.35 24.2357 127.617 24.0566 128.062 24.0566ZM119.522 24.3252V24.457L119.786 24.3252C120.32 24.6182 120.587 25.152 120.587 25.9268C121.482 25.6598 122.149 25.5264 122.589 25.5264C122.882 25.5264 123.149 26.0163 123.39 26.9961C124.07 27.3216 124.56 27.722 124.859 28.1973V28.4658H124.591V28.5977H124.859C124.859 28.7767 124.77 28.8662 124.591 28.8662C124.35 28.8662 124.083 28.7767 123.79 28.5977C123.79 28.6855 123.746 28.7295 123.658 28.7295C123.658 28.5537 123.569 28.4658 123.39 28.4658H123.126C123.126 28.7327 123.08 29.0436 122.989 29.3984H122.857V28.998C122.945 28.998 122.989 28.9541 122.989 28.8662H122.857C122.743 29.3089 122.61 29.5303 122.457 29.5303V29.2666L122.057 29.5303C122.057 29.3773 121.923 29.1559 121.656 28.8662C121.959 28.8662 122.182 28.2868 122.325 27.1279L121.925 26.5957C121.29 26.8626 120.934 26.9961 120.855 26.9961C120.855 26.9082 120.812 26.8643 120.724 26.8643V26.9961C121.524 27.6764 121.925 28.1663 121.925 28.4658L121.656 28.3291L121.788 28.5977V28.7295C121.612 28.7295 121.524 28.819 121.524 28.998L121.256 28.8662V29.1299H120.987C120.987 28.9736 120.676 28.6188 120.055 28.0654C119.967 28.6969 119.923 29.0518 119.923 29.1299H119.786C119.698 29.1299 119.654 29.0859 119.654 28.998C119.299 29.0436 119.122 29.1771 119.122 29.3984C118.992 29.3984 118.858 29.265 118.722 28.998C118.722 28.7865 118.989 27.7627 119.522 25.9268C119.431 25.7542 119.386 25.6208 119.386 25.5264H118.854L118.185 25.6582V25.5264L117.921 25.6582H117.384L117.252 24.9941C117.551 24.6621 118.308 24.4391 119.522 24.3252ZM136.627 24.5938C137.073 24.8607 137.296 26.0179 137.296 28.0654V30.5996L136.358 30.8682C136.358 30.6891 136.271 30.5996 136.095 30.5996V28.0654H135.294L134.356 27.9287C134.125 29.0876 133.637 29.667 132.892 29.667H132.223C130.862 29.667 130.061 28.6872 129.82 26.7275V26.5957C130.087 25.528 130.621 24.9941 131.422 24.9941H131.69C131.778 24.9941 131.822 25.0381 131.822 25.126L132.091 24.9941H132.623C133.378 24.9941 133.956 25.5719 134.356 26.7275H135.558L135.826 26.8643L135.958 26.5957V26.3271C135.958 26.0081 135.914 25.6077 135.826 25.126C135.914 24.7712 136.181 24.5938 136.627 24.5938ZM138.36 24.7256C138.985 24.8428 139.386 26.1774 139.562 28.7295C139.562 30.0641 139.295 30.7314 138.761 30.7314H138.629C138.489 30.7314 138.312 30.554 138.097 30.1992L138.229 28.8662V27.7969C138.229 27.11 138.051 26.3532 137.696 25.5264C137.696 25.0804 137.918 24.8135 138.36 24.7256ZM131.422 26.0586L131.021 26.7275C131.223 27.7952 131.668 28.3291 132.354 28.3291H132.755C133.113 28.1859 133.292 27.875 133.292 27.3965V26.9961C132.934 26.3711 132.311 26.0586 131.422 26.0586ZM151.734 23.5244H152.267C152.595 23.5244 152.818 24.5482 152.936 26.5957C153.056 26.5957 153.546 26.5062 154.405 26.3271C154.809 26.4997 155.03 26.6771 155.069 26.8594V27.2598C155.069 27.7057 154.402 27.9287 153.067 27.9287V28.0654C153.067 28.5505 153.157 29.6182 153.336 31.2686C153.163 31.6755 152.984 31.8984 152.799 31.9375H152.398C151.959 31.9375 151.692 30.4678 151.598 27.5283C151.487 27.5283 151.399 26.2816 151.334 23.7881L151.734 23.5244ZM147.726 25.2578C148.259 25.2578 148.526 25.5703 148.526 26.1953V29.3984C148.526 29.5254 148.393 29.6589 148.126 29.7988H147.594C147.464 29.7988 147.33 29.6654 147.193 29.3984V26.7275C145.768 26.8154 145.011 26.9049 144.923 26.9961C144.516 26.8236 144.293 26.6445 144.254 26.459V25.9268C144.254 25.6143 145.411 25.3913 147.726 25.2578ZM158.824 22.0596C159.27 22.1833 159.493 22.4941 159.493 22.9922V23.5293L159.361 24.4619C160.169 24.9502 160.613 25.305 160.694 25.5264V25.9268C160.694 26.057 160.561 26.1904 160.294 26.3271H159.493C159.493 26.1253 159.316 25.9479 158.961 25.7949C158.961 26.1139 158.694 26.4704 158.16 26.8643H157.623C157.496 26.8643 157.364 26.7308 157.228 26.4639C157.849 24.7158 158.16 23.6921 158.16 23.3926H158.023C157.669 23.3926 157.091 23.4821 156.29 23.6611C155.935 23.5732 155.758 23.3958 155.758 23.1289C155.758 22.5072 156.292 22.1963 157.359 22.1963C157.968 22.1051 158.456 22.0596 158.824 22.0596ZM163.761 22.46C164.125 22.792 164.348 23.5488 164.43 24.7305H166.031C166.031 24.8672 166.119 25.0446 166.295 25.2627V25.5264C166.295 25.6566 166.161 25.79 165.895 25.9268H164.562V28.0654C164.474 28.3324 164.207 28.4658 163.761 28.4658H163.497C163.23 28.4072 163.097 28.0508 163.097 27.3965V25.7949L162.96 25.1309H163.097L162.96 24.8623V22.8604C163.051 22.5934 163.318 22.46 163.761 22.46ZM161.358 29.2617H161.495C163.006 29.5775 163.761 30.3343 163.761 31.5322V31.6641C163.425 32.9108 162.804 33.5342 161.896 33.5342H160.958C159.894 32.8083 159.361 32.097 159.361 31.4004C159.495 29.9746 160.16 29.2617 161.358 29.2617ZM160.826 30.5996C160.826 30.8665 160.782 31 160.694 31C160.916 31.7975 161.183 32.1963 161.495 32.1963C161.974 32.1963 162.285 32.0189 162.428 31.6641V31.2637C162.428 31.1465 162.205 30.9251 161.759 30.5996H160.826ZM178.463 23.5244H178.995C179.324 23.5244 179.547 24.5482 179.664 26.5957C179.785 26.5957 180.274 26.5062 181.134 26.3271C181.537 26.4997 181.759 26.6771 181.798 26.8594V27.2598C181.798 27.7057 181.131 27.9287 179.796 27.9287V28.0654C179.796 28.5505 179.885 29.6182 180.064 31.2686C179.892 31.6755 179.713 31.8984 179.527 31.9375H179.127C178.688 31.9375 178.421 30.4678 178.326 27.5283C178.215 27.5283 178.128 26.2816 178.062 23.7881L178.463 23.5244ZM174.454 25.2578C174.988 25.2578 175.255 25.5703 175.255 26.1953V29.3984C175.255 29.5254 175.121 29.6589 174.854 29.7988H174.322C174.192 29.7988 174.059 29.6654 173.922 29.3984V26.7275C172.496 26.8154 171.739 26.9049 171.651 26.9961C171.244 26.8236 171.021 26.6445 170.982 26.459V25.9268C170.982 25.6143 172.14 25.3913 174.454 25.2578ZM191.573 24.1836H192.242C192.418 24.6816 192.551 25.2611 192.643 25.9219H192.506C192.597 26.0749 192.687 26.4753 192.774 27.123L193.043 26.9912H193.443C193.531 26.9912 193.575 27.0352 193.575 27.123L193.844 26.9912H194.244C194.511 27.0791 194.645 27.346 194.645 27.792C194.527 28.1468 194.127 28.3242 193.443 28.3242H192.911C192.999 29.2129 193.043 29.8818 193.043 30.3311C192.978 30.777 192.844 31 192.643 31H191.974C191.974 30.8535 191.884 30.7184 191.705 30.5947C191.705 29.5758 191.528 27.5283 191.173 24.4521L191.573 24.1836ZM182.755 24.4521C185.16 24.6507 186.363 24.8721 186.363 25.1162C186.63 25.4613 186.764 25.7298 186.764 25.9219H187.164C188.678 25.9219 189.435 26.4118 189.435 27.3916C189.522 27.7367 189.566 28.0931 189.566 28.4609V30.0625C189.566 30.196 189.389 30.3294 189.034 30.4629C188.5 30.2806 188.233 30.1032 188.233 29.9307V27.9238C188.233 27.5397 188.054 27.2728 187.696 27.123C187.524 27.2109 187.39 27.2549 187.296 27.2549H186.896C186.896 27.346 186.852 27.3916 186.764 27.3916C186.764 27.4795 186.808 27.5234 186.896 27.5234C186.896 29.304 186.585 30.1943 185.963 30.1943C185.732 30.1943 185.509 29.8835 185.294 29.2617C185.382 29.2064 185.426 28.181 185.426 26.1855C185.1 26.0098 184.744 25.9219 184.356 25.9219H183.019C182.882 25.9219 182.704 25.7428 182.486 25.3848V25.2529C182.486 25.0088 182.576 24.7419 182.755 24.4521ZM197.33 22.0547H197.867C198.033 22.0547 198.388 22.1882 198.932 22.4551L198.8 22.7188L199.068 22.5869C199.69 22.8538 200.001 23.3877 200.001 24.1885V25.126C199.617 25.8389 199.127 26.1953 198.531 26.1953H198.268C196.822 26.1953 195.976 25.349 195.729 23.6562C195.976 22.5885 196.51 22.0547 197.33 22.0547ZM197.198 23.3877C197.198 23.6546 197.154 23.7881 197.066 23.7881C197.066 24.361 197.467 24.7174 198.268 24.8574H198.399C198.526 24.8574 198.66 24.724 198.8 24.457C198.8 23.7441 198.443 23.3877 197.73 23.3877H197.198ZM195.86 27.5283C198.569 27.7074 200.172 27.7969 200.67 27.7969L201.07 28.3291V28.7295C201.07 28.8695 200.893 29.0485 200.538 29.2666C199.926 29.1755 199.436 29.1299 199.068 29.1299H198.932L199.068 29.7988V31L198.399 31.1367H198.131C197.896 31.1367 197.675 30.4238 197.467 28.998C196.041 28.998 195.328 28.7311 195.328 28.1973C195.501 27.7904 195.678 27.5674 195.86 27.5283ZM196.129 30.4678C196.754 30.4678 197.066 31.0911 197.066 32.3379C198.388 32.5365 199.412 32.7578 200.138 33.002L200.27 33.6709L199.869 34.208C197.197 34.055 195.86 33.7425 195.86 33.2705C195.685 32.3037 195.597 31.6803 195.597 31.4004C195.717 30.7786 195.895 30.4678 196.129 30.4678ZM207.496 23.124H207.896C208.098 23.124 208.232 23.3454 208.297 23.7881C208.297 24.016 208.163 24.5059 207.896 25.2578C209.615 26.7096 210.549 27.5999 210.699 27.9287V28.4658C210.699 28.5928 210.566 28.7262 210.299 28.8662H209.767L207.496 26.7275H207.359C207.359 27.665 207.226 28.4658 206.959 29.1299H206.026C206.026 28.9736 205.937 28.7523 205.758 28.4658C206.406 24.9046 206.985 23.124 207.496 23.124ZM213.102 23.3877C213.635 23.3877 213.902 23.7881 213.902 24.5889C213.902 25.1683 213.948 25.6143 214.039 25.9268H215.909C216.062 25.9268 216.196 26.1497 216.31 26.5957C216.31 27.0384 215.553 27.2598 214.039 27.2598C214.039 27.5332 214.127 28.3356 214.303 29.667L213.771 30.0674H213.639C213.105 30.0674 212.838 29.667 212.838 28.8662L212.569 23.6562L213.102 23.3877ZM219.4 22.5869H219.537C220.52 22.5869 221.098 23.4772 221.271 25.2578V25.3896C221.271 26.2816 220.559 26.7275 219.137 26.7275L219 26.9961C219.326 27.263 219.638 27.3965 219.938 27.3965H220.069C220.271 27.3965 220.449 27.3509 220.602 27.2598C221.048 27.3737 221.271 27.5072 221.271 27.6602V28.3291C221.271 28.5635 220.914 28.7425 220.201 28.8662C218.512 28.8662 217.667 28.1533 217.667 26.7275C217.667 25.8714 218.334 25.3815 219.669 25.2578C219.848 25.2578 219.938 25.1683 219.938 24.9893C219.814 24.3675 219.635 24.0566 219.4 24.0566H218.067V24.3252H217.53L216.998 23.9248C216.998 23.1208 217.398 22.7188 218.199 22.7188C218.531 22.6309 218.932 22.5869 219.4 22.5869ZM224.479 23.2559C224.921 23.3112 225.143 23.5781 225.143 24.0566V25.6582H225.279C226.324 25.6582 227.125 25.7917 227.682 26.0586V26.9961C227.415 26.9961 227.281 27.084 227.281 27.2598L227.013 27.1279H225.279C225.367 27.9157 225.411 28.4056 225.411 28.5977C225.239 29.0046 225.061 29.2275 224.879 29.2666H224.742C224.208 29.2666 223.941 28.9541 223.941 28.3291H224.078L223.941 28.0605C223.854 26.1465 223.81 24.8118 223.81 24.0566C223.81 23.7344 224.033 23.4674 224.479 23.2559ZM222.071 30.0674C223.764 30.0674 224.61 30.6012 224.61 31.6689V32.2012C224.61 33.7148 224.031 34.4717 222.872 34.4717H222.208C222.117 34.4717 222.071 34.4277 222.071 34.3398C221.983 34.3398 221.939 34.3838 221.939 34.4717C220.693 34.3024 220.069 33.9476 220.069 33.4072C219.89 32.2419 219.801 31.3955 219.801 30.8682C219.801 30.3343 220.558 30.0674 222.071 30.0674ZM221.139 31.5371C221.318 32.2956 221.407 32.7839 221.407 33.002H222.472C222.563 33.002 222.608 33.0475 222.608 33.1387C223.051 33.0247 223.272 32.8913 223.272 32.7383V31.9375C223.272 31.6706 222.784 31.5371 221.808 31.5371H221.139ZM235.436 21.5273C235.702 21.7943 235.925 22.416 236.104 23.3926C236.638 23.4935 236.905 23.7165 236.905 24.0615C236.726 24.7939 236.637 25.2822 236.637 25.5264C236.757 25.5264 237.247 26.0163 238.106 26.9961C238.106 27.5299 237.706 27.7969 236.905 27.7969H236.773C236.773 27.6667 236.461 27.3558 235.836 26.8643H235.704C235.551 27.665 235.151 28.0654 234.503 28.0654H234.103L233.971 27.5283C234.257 26.8447 234.701 25.9561 235.304 24.8623H235.172C234.941 24.8623 234.14 25.0397 232.77 25.3945L232.369 24.8623V24.7305C232.369 24.2682 233.08 23.9118 234.503 23.6611V22.8604C234.503 21.9717 234.814 21.5273 235.436 21.5273ZM239.972 22.7285H240.509C240.834 22.7285 241.1 23.3063 241.305 24.4619H241.173C241.261 24.6182 241.305 24.7956 241.305 24.9941H242.774C243.396 24.9941 243.707 25.2611 243.707 25.7949C243.323 26.1497 242.612 26.3271 241.573 26.3271H241.441V26.8643L241.573 28.4658C241.202 28.8206 240.758 28.998 240.24 28.998L239.708 23.1289C239.884 23.1289 239.972 22.9954 239.972 22.7285ZM240.108 29.2617V29.3984L240.372 29.2617H240.509C240.626 29.2617 240.847 29.4847 241.173 29.9307L241.041 30.8633C242.285 31.7552 242.906 32.4665 242.906 32.9971C242.691 33.1761 242.247 33.3096 241.573 33.3975C241.573 33.3096 241.218 32.9548 240.509 32.333C239.952 33.1338 239.596 33.5342 239.439 33.5342H238.639C238.639 33.4398 238.595 33.3063 238.507 33.1338L239.708 30.7314H239.571L237.174 31.1318L236.905 30.7314C236.905 29.8949 237.973 29.4049 240.108 29.2617ZM250.802 24.1885C251.424 24.1885 251.734 24.724 251.734 25.7949V26.7275C253.072 26.7275 253.741 26.9945 253.741 27.5283V27.7969C253.383 27.9759 253.204 28.1094 253.204 28.1973L252.535 28.0654H251.871L252.003 28.7295V30.4678C252.003 30.5947 251.869 30.7282 251.603 30.8682H251.07C250.735 30.8682 250.512 28.9541 250.401 25.126C250.31 25.126 250.265 25.0804 250.265 24.9893C250.447 24.4554 250.626 24.1885 250.802 24.1885ZM246.261 24.7256C246.459 24.7256 246.637 24.7695 246.793 24.8574C246.949 24.7695 247.128 24.7256 247.33 24.7256C248.183 24.7256 248.806 25.3929 249.2 26.7275V27.3965C249.086 28.9102 248.507 29.667 247.462 29.667H246.661C245.147 29.1006 244.391 28.2982 244.391 27.2598C244.391 25.8372 244.924 24.9925 245.992 24.7256H246.261ZM245.729 26.7275V26.9961C245.729 27.7285 246.217 28.2184 247.193 28.4658C247.6 28.2933 247.823 28.1143 247.862 27.9287V26.5957C247.862 26.2897 247.372 26.0228 246.393 25.7949C245.95 25.9186 245.729 26.2295 245.729 26.7275ZM256.563 23.3926H257.765C258.744 23.8353 259.234 24.5026 259.234 25.3945C259.234 26.4492 258.657 27.0726 257.501 27.2646C257.201 27.2646 256.979 27.3086 256.832 27.3965C255.764 27.0775 255.23 26.6315 255.23 26.0586C254.964 25.9707 254.83 25.7038 254.83 25.2578C255.117 24.0143 255.694 23.3926 256.563 23.3926ZM256.432 24.5938L256.3 25.2578V25.3945C256.3 25.5345 256.477 25.7119 256.832 25.9268H257.101L257.765 25.7949V25.5264C257.765 25.0479 257.587 24.737 257.232 24.5938H256.432ZM255.899 28.8662H256.031C256.653 28.8662 256.964 29.488 256.964 30.7314C257.055 30.8649 257.101 31.1318 257.101 31.5322H257.633C257.545 30.6436 257.501 29.9762 257.501 29.5303L257.633 28.8662H258.434C258.681 28.8662 258.904 29.8005 259.103 31.6689C260.079 31.6689 260.567 31.8464 260.567 32.2012C260.359 32.735 260.048 33.002 259.635 33.002C257.74 32.9141 256.629 32.8701 256.3 32.8701L256.031 33.002C255.898 33.002 255.364 32.8685 254.43 32.6016V32.333C254.43 31.7992 254.697 31.5322 255.23 31.5322H255.631L255.499 29.9307V29.667C255.554 29.1331 255.688 28.8662 255.899 28.8662ZM82.1982 38.3184H82.4619C84.0667 38.8457 84.8691 39.6481 84.8691 40.7256L85.001 41.6582C84.6722 42.8171 84.0928 43.3965 83.2627 43.3965H82.8623C81.3812 43.3965 80.4469 42.4167 80.0596 40.457V40.0566C80.0596 39.0833 80.7725 38.5039 82.1982 38.3184ZM87.1396 38.9873H87.4033C87.7354 38.9873 88.0479 40.1901 88.3408 42.5957C88.4287 42.5957 88.4727 43.307 88.4727 44.7295L87.9404 44.998C87.374 44.998 87.0176 44.1077 86.8711 42.3271C86.6921 41.2529 86.6025 40.4066 86.6025 39.7881V39.2559C86.7425 39.2559 86.9215 39.1663 87.1396 38.9873ZM81.3975 40.5889C81.863 41.5687 82.3968 42.0586 82.999 42.0586C83.4417 41.9349 83.6631 41.624 83.6631 41.126C83.3669 40.3545 82.9665 39.8646 82.4619 39.6562H81.7979C81.5863 39.6562 81.4528 39.9671 81.3975 40.5889ZM84.0684 45.667H84.332C84.6348 45.667 84.8577 46.4678 85.001 48.0693H87.2715C87.4505 48.0986 87.54 48.1882 87.54 48.3379V48.6016C87.54 49.2266 87.0501 49.5391 86.0703 49.5391C84.3776 49.5391 83.5312 48.8717 83.5312 47.5371L83.3994 46.1992L84.0684 45.667ZM91.9639 39.6562C92.1364 39.7441 92.2699 39.7881 92.3643 39.7881V40.1885C92.1885 40.8232 92.1006 41.1797 92.1006 41.2578C93.7021 42.2669 94.5029 43.0677 94.5029 43.6602C94.5029 43.8001 94.3255 43.9792 93.9707 44.1973H93.7021L91.4316 42.3271C91.1094 43.486 90.6634 44.0654 90.0938 44.0654C90.0938 43.8864 89.9603 43.7969 89.6934 43.7969V43.5283C90.4453 40.9469 91.2021 39.6562 91.9639 39.6562ZM89.9619 47.2686H90.499C90.5869 47.2686 90.6309 47.3125 90.6309 47.4004L90.8994 47.2686H92.6328C94.9473 47.2686 96.1045 47.446 96.1045 47.8008V48.0693C96.1045 48.5153 95.8815 48.7822 95.4355 48.8701C94.5697 48.6911 93.279 48.6016 91.5635 48.6016H89.5615C89.2946 48.6016 89.1611 48.2907 89.1611 47.6689C89.389 47.402 89.6559 47.2686 89.9619 47.2686ZM100.392 40.0566C100.925 40.0566 101.192 40.3252 101.192 40.8623V41.3945C99.9652 41.5736 98.987 41.6631 98.2578 41.6631V42.9961C98.4596 42.9961 99.2604 42.8626 100.66 42.5957C101.015 42.6836 101.192 42.9505 101.192 43.3965V43.5283C101.192 43.9255 100.302 44.238 98.5215 44.4658C98.7005 44.7555 98.79 45.0225 98.79 45.2666L100.123 45.1299H101.061L101.725 45.2666V46.1992C101.448 46.554 100.47 46.7314 98.79 46.7314H98.5215C97.89 46.7314 97.4456 46.0202 97.1885 44.5977C96.9215 43.7969 96.7881 42.5518 96.7881 40.8623C96.7881 40.5042 97.3659 40.2812 98.5215 40.1934V40.3252L98.79 40.1934H99.5908L100.392 40.0566ZM104.928 40.457H105.597C105.776 41.4303 105.865 42.1432 105.865 42.5957H108.131C108.131 42.7943 108.176 42.9717 108.268 43.1279C108.085 43.6618 107.906 43.9287 107.73 43.9287H106.129V44.1973C106.129 44.4935 106.218 45.1169 106.397 46.0674C106.31 46.6012 106.176 46.8682 105.997 46.8682H105.196C104.698 44.7523 104.431 42.7943 104.396 40.9941L104.928 40.457ZM115.763 40.5938C116.209 40.8607 116.432 42.0179 116.432 44.0654V46.5996L115.494 46.8682C115.494 46.6891 115.406 46.5996 115.23 46.5996V44.0654H114.43L113.492 43.9287C113.261 45.0876 112.773 45.667 112.027 45.667H111.358C109.998 45.667 109.197 44.6872 108.956 42.7275V42.5957C109.223 41.528 109.757 40.9941 110.558 40.9941H110.826C110.914 40.9941 110.958 41.0381 110.958 41.126L111.227 40.9941H111.759C112.514 40.9941 113.092 41.5719 113.492 42.7275H114.693L114.962 42.8643L115.094 42.5957V42.3271C115.094 42.0081 115.05 41.6077 114.962 41.126C115.05 40.7712 115.317 40.5938 115.763 40.5938ZM117.496 40.7256C118.121 40.8428 118.521 42.1774 118.697 44.7295C118.697 46.0641 118.43 46.7314 117.896 46.7314H117.765C117.625 46.7314 117.447 46.554 117.232 46.1992L117.364 44.8662V43.7969C117.364 43.11 117.187 42.3532 116.832 41.5264C116.832 41.0804 117.053 40.8135 117.496 40.7256ZM110.558 42.0586L110.157 42.7275C110.359 43.7952 110.803 44.3291 111.49 44.3291H111.891C112.249 44.1859 112.428 43.875 112.428 43.3965V42.9961C112.07 42.3711 111.446 42.0586 110.558 42.0586ZM125.66 36.9756C126.373 36.9756 126.729 37.6445 126.729 38.9824C126.821 38.9824 126.866 39.0264 126.866 39.1143C127.755 39.0264 128.422 38.9824 128.868 38.9824H129.269L129.4 39.6465V40.1836C128.867 40.2487 128.6 40.3382 128.6 40.4521C128.779 41.0283 128.868 41.4287 128.868 41.6533V41.7852C128.868 42.5892 128.201 43.1247 126.866 43.3916C125.528 43.0596 124.859 42.3906 124.859 41.3848V41.1162L124.991 40.8525C123.924 40.8525 123.39 40.54 123.39 39.915V39.5146C123.53 39.5146 123.707 39.4251 123.922 39.2461H125.392L125.128 37.6445C125.3 37.2376 125.478 37.0146 125.66 36.9756ZM126.197 41.2529V41.3848C126.197 41.5117 126.331 41.6452 126.598 41.7852H127.13C127.309 41.7852 127.398 41.6973 127.398 41.5215C127.398 41.3424 127.309 41.2529 127.13 41.2529H126.197ZM129.4 43.5234C129.846 43.5234 130.069 43.9694 130.069 44.8613H129.938C129.788 45.0371 128.185 45.2585 125.128 45.5254C124.682 45.3496 124.459 45.0827 124.459 44.7246C124.459 44.1029 125.305 43.792 126.998 43.792V43.9238L129.4 43.5234ZM129.137 45.7939C129.758 45.7939 130.069 46.5964 130.069 48.2012C129.955 48.6471 129.822 48.8701 129.669 48.8701H128.868L128.6 47.9326V47.2637C127.096 47.5306 126.205 47.6641 125.929 47.6641L125.392 46.7314C125.571 46.7314 125.75 46.5524 125.929 46.1943C127.341 45.9274 128.411 45.7939 129.137 45.7939ZM140.24 40.4521H140.641C140.641 40.5889 140.73 40.7663 140.909 40.9844V42.5859C140.909 42.9928 141.043 43.9727 141.31 45.5254C141.137 45.9323 140.958 46.1553 140.772 46.1943H140.509C140.128 46.1943 139.815 44.9476 139.571 42.4541H139.708L139.571 42.1855C139.662 41.0299 139.885 40.4521 140.24 40.4521ZM133.292 40.7158C134.272 40.7809 134.762 41.0479 134.762 41.5166C134.895 41.4287 135.475 41.3408 136.5 41.2529C137.213 41.943 137.569 43.0124 137.569 44.4609V44.7246C137.569 45.1868 137.436 45.4538 137.169 45.5254H136.632C136.365 45.5254 136.188 44.6351 136.1 42.8545H135.294C135.167 42.8545 135.034 42.988 134.894 43.2549V43.3916C134.894 43.8571 134.939 44.6139 135.03 45.6621L134.493 46.0625H134.229C133.871 46.0625 133.648 45.4391 133.561 44.1924L133.692 43.3916V42.4541C133.692 42.2751 133.559 42.1855 133.292 42.1855C133.097 42.1855 132.428 42.2751 131.285 42.4541C130.93 42.3662 130.753 42.0993 130.753 41.6533C130.753 41.0283 131.51 40.7158 133.023 40.7158H133.292ZM145.328 39.9248C145.862 39.9248 146.129 40.2812 146.129 40.9941C146.129 41.3848 145.284 41.6077 143.595 41.6631C143.683 42.1514 143.727 42.5062 143.727 42.7275C143.922 42.7275 144.589 42.6396 145.729 42.4639L145.597 42.7275C145.769 42.6396 145.903 42.5957 145.997 42.5957C146.352 42.7292 146.529 42.8626 146.529 42.9961V43.2646C146.529 43.8864 145.908 44.1973 144.664 44.1973L143.995 44.3291C144.024 44.5081 144.114 44.5977 144.264 44.5977H146.129C146.663 44.5977 146.93 44.8646 146.93 45.3984C146.93 45.9323 146.129 46.1992 144.527 46.1992C143.193 46.1992 142.525 45.5319 142.525 44.1973C142.525 42.5078 142.348 41.6631 141.993 41.6631V41.126C141.993 40.5303 142.927 40.1738 144.796 40.0566C144.841 40.0566 145.019 40.0127 145.328 39.9248ZM151.07 39.9248H151.334C151.865 39.9248 152.398 42.0602 152.936 46.3311C152.802 46.6891 152.669 46.8682 152.535 46.8682H152.271C151.646 46.8682 151.334 46.2448 151.334 44.998C151.246 44.8092 151.158 44.4089 151.07 43.7969H150.934L149.601 43.9287C149.78 44.9346 149.869 45.7354 149.869 46.3311C149.736 46.6891 149.602 46.8682 149.469 46.8682H149.332C148.622 46.8682 148.268 46.1113 148.268 44.5977C148.206 44.5977 148.072 43.8408 147.867 42.3271H147.999C147.911 42.1383 147.822 41.738 147.73 41.126C147.854 40.7581 148.077 40.4912 148.399 40.3252H148.668C149.111 40.5335 149.332 41.2008 149.332 42.3271V42.4639C150.312 42.3955 150.802 42.262 150.802 42.0635C150.623 41.738 150.533 41.3815 150.533 40.9941V40.457C150.533 40.3203 150.712 40.1429 151.07 39.9248ZM157.901 39.2461C158.497 39.2461 158.854 40.182 158.971 42.0537H158.834L158.971 42.3223V44.4609C158.971 44.5879 158.837 44.7214 158.57 44.8613H158.434C157.988 44.8613 157.677 44.6383 157.501 44.1924V41.2529L157.364 40.3154L156.031 40.4521H154.425C153.963 40.4521 153.696 40.3171 153.624 40.0469V39.5146L154.293 39.3828C154.921 39.3828 156.124 39.3372 157.901 39.2461ZM154.156 46.7314C154.329 46.8193 154.464 46.8633 154.562 46.8633C155.004 46.8633 156.651 46.8193 159.503 46.7314V46.8633L159.771 46.7314C159.859 46.7314 159.903 46.7754 159.903 46.8633L160.172 46.7314C160.729 46.9105 161.041 47.1335 161.109 47.4004V47.6641C161.109 47.7552 160.93 47.8887 160.572 48.0645L159.903 47.9326H159.103C156.837 47.9326 155.457 48.0221 154.962 48.2012C154.249 47.9766 153.893 47.6641 153.893 47.2637C154.068 47.2637 154.156 47.0863 154.156 46.7314ZM163.668 39.2559H163.8L164.469 39.3926C164.469 40.903 164.69 41.6582 165.133 41.6582L165.401 41.5264C166.381 41.7542 166.871 42.0212 166.871 42.3271V42.459C166.663 42.8464 166.44 43.0693 166.202 43.1279C166.557 43.8018 166.734 44.2477 166.734 44.4658C166.533 45.8005 165.911 46.4678 164.869 46.4678H164.601C163.354 46.4678 162.73 45.7109 162.73 44.1973C162.73 43.7513 162.864 43.5283 163.131 43.5283V43.2646L162.467 43.3965H162.066C162.066 43.2565 161.977 43.0775 161.798 42.8594V42.7275C162.003 42.1058 162.537 41.7949 163.399 41.7949C163.22 41.4108 163.131 40.6979 163.131 39.6562L163.668 39.2559ZM171.139 40.8574C171.852 40.8574 172.208 41.6143 172.208 43.1279C172.325 43.1279 172.459 43.9287 172.608 45.5303C172.608 46.3311 172.298 46.7314 171.676 46.7314H171.539C171.272 46.7314 171.095 46.0202 171.007 44.5977L170.074 44.7295V46.3311C170.074 46.8096 169.895 47.1221 169.537 47.2686H169.405C168.871 47.2686 168.604 46.9561 168.604 46.3311H168.736L168.604 46.0674C168.604 45.0973 168.427 43.6276 168.072 41.6582C168.196 41.2155 168.507 40.9941 169.005 40.9941H169.137C169.137 41.1276 169.27 41.305 169.537 41.5264C169.537 41.6143 169.493 41.6582 169.405 41.6582C169.672 42.306 169.806 42.8415 169.806 43.2646H170.074C170.315 43.2646 170.582 43.1751 170.875 42.9961C170.696 42.5957 170.606 42.0163 170.606 41.2578V41.126C170.746 41.126 170.924 41.0365 171.139 40.8574ZM164.332 43.7969L164.2 44.0654L164.332 44.998H164.601L165.27 44.8662V44.4658C165.217 44.251 164.905 44.028 164.332 43.7969ZM175.562 40.1885C175.797 40.1885 175.974 40.501 176.095 41.126C175.828 41.7249 175.694 42.0814 175.694 42.1953L177.965 44.8662V45.3984C177.877 45.6654 177.61 45.7988 177.164 45.7988C177.001 45.7988 176.69 45.488 176.231 44.8662L175.03 43.7969C174.822 45.0436 174.553 45.667 174.225 45.667H173.961L173.292 45.5303V45.2666C174.164 41.8812 174.832 40.1885 175.294 40.1885H175.562ZM181.437 40.3252C181.922 40.3252 182.278 42.3271 182.506 46.3311L181.974 46.7363H181.573C181.433 46.7363 181.254 46.5573 181.036 46.1992V44.998C181.036 44.1061 180.948 43.6602 180.772 43.6602C180.239 43.6602 179.436 43.7057 178.365 43.7969C177.743 43.7448 177.433 43.4779 177.433 42.9961C177.439 42.8659 177.617 42.6429 177.965 42.3271L178.502 42.459C178.867 42.459 179.623 42.3711 180.772 42.1953L180.636 41.2578V41.126C180.636 40.5921 180.903 40.3252 181.437 40.3252ZM189.732 38.0547C191.067 38.3932 191.734 39.2396 191.734 40.5938V40.8574C191.734 41.8145 191.29 42.3939 190.401 42.5957L190.533 42.8643V43.7969H191.334C192.135 43.7969 192.535 44.1973 192.535 44.998C192.268 44.998 192.135 45.0876 192.135 45.2666C191.246 45.1755 190.579 45.1299 190.133 45.1299H188.131C187.652 45.1299 187.341 44.9525 187.198 44.5977V44.1973C187.198 43.901 187.866 43.7236 189.2 43.665V43.3965C189.2 43.1947 189.156 43.0173 189.068 42.8643C189.156 42.6917 189.2 42.5583 189.2 42.4639C188.132 41.9984 187.599 41.1081 187.599 39.793C187.94 38.6341 188.518 38.0547 189.332 38.0547H189.732ZM188.932 39.6562V39.793C188.932 40.4896 189.199 40.9779 189.732 41.2578H190.133C190.312 41.2578 190.401 41.1699 190.401 40.9941V39.793L189.732 39.6562H188.932ZM188.399 45.9307H190.27C191.025 45.9307 191.692 46.0641 192.271 46.3311V46.8682L192.403 47.5322H192.271L192.403 47.8008V48.333C192.403 49.1338 191.692 49.5342 190.27 49.5342L189.332 49.4023V50.2031H190.802C191.023 50.2031 191.424 50.2926 192.003 50.4717V51.0039C192.003 51.4499 191.246 51.6729 189.732 51.6729C188.577 51.4255 187.999 50.9355 187.999 50.2031V49.1338C187.999 48.4242 188.355 48.0693 189.068 48.0693H189.732C189.934 48.0693 190.113 48.1133 190.27 48.2012C190.416 48.1133 190.637 48.0693 190.934 48.0693V47.4004H188.8C188.266 47.4004 187.999 47.1335 187.999 46.5996V46.3311C187.999 46.2041 188.132 46.0706 188.399 45.9307ZM196.432 40.1836C197.405 40.1836 197.984 40.8965 198.17 42.3223V43.2549C197.962 43.6357 197.115 44.1257 195.631 44.7246C195.631 44.8158 195.585 44.8613 195.494 44.8613C195.585 45.0339 195.631 45.1673 195.631 45.2617C196.676 45.1706 197.433 45.125 197.901 45.125C198.139 45.1836 198.362 45.4066 198.57 45.7939V45.9307C198.339 46.4645 197.493 46.7314 196.031 46.7314C194.785 46.4255 194.161 45.89 194.161 45.125V44.9932C194.161 43.8473 195.007 43.0905 196.7 42.7227C196.788 42.5501 196.832 42.4167 196.832 42.3223C196.744 41.7852 196.611 41.5166 196.432 41.5166H196.163C195.362 41.5166 194.605 41.6061 193.893 41.7852C193.447 41.6615 193.224 41.3506 193.224 40.8525V40.7158C193.224 40.361 194.293 40.1836 196.432 40.1836ZM200.841 40.7158H201.51C202.044 40.7158 202.311 42.0977 202.311 44.8613C202.398 44.9492 202.442 45.3057 202.442 45.9307C202.442 46.165 202.219 46.3864 201.773 46.5947C201.24 46.5947 200.973 46.0169 200.973 44.8613C200.797 43.0872 200.709 41.8389 200.709 41.1162C200.797 40.9437 200.841 40.8102 200.841 40.7158ZM203.927 38.3184L204.596 38.4551H206.466C208.067 38.4551 208.868 38.722 208.868 39.2559C208.956 39.7214 209 40.1657 209 40.5889L208.868 40.8574H209C209 40.7305 209.133 40.597 209.4 40.457H211.407V39.7881C211.583 39.5732 211.671 39.3958 211.671 39.2559H211.808C212.341 39.3112 212.608 39.4447 212.608 39.6562V41.5264C212.608 44.1956 212.385 45.5303 211.939 45.5303H211.539C211.272 45.4424 211.139 45.1755 211.139 44.7295V43.7969H211.007C209.581 43.7969 208.868 43.6178 208.868 43.2598H208.736C208.736 44.2168 208.38 44.7962 207.667 44.998H207.398L205.797 44.8662C205.315 44.9541 204.915 44.998 204.596 44.998C204.306 44.819 204.083 44.7295 203.927 44.7295V43.7969C203.927 43.7057 203.971 43.6602 204.059 43.6602C203.437 41.4596 203.126 39.8581 203.126 38.8555C203.36 38.5885 203.627 38.4551 203.927 38.4551V38.3184ZM204.596 39.9248L205.265 43.5283H207.398C207.577 42.2979 207.667 41.0967 207.667 39.9248H204.596ZM208.868 41.2578V42.459L209.269 42.1953C209.601 42.1953 210.268 42.2832 211.271 42.459V41.9268H209.269L209 41.2578H208.868ZM206.866 46.3311H207.535C207.926 47.8447 208.237 48.6016 208.468 48.6016C209.708 48.5137 210.509 48.4697 210.87 48.4697C211.228 48.5576 211.407 48.8245 211.407 49.2705C211.284 49.7165 210.971 49.9395 210.47 49.9395H209.537C209.091 49.9395 208.424 49.9834 207.535 50.0713C206.822 48.9255 206.466 47.8138 206.466 46.7363C206.466 46.6061 206.599 46.471 206.866 46.3311ZM213.829 48.6016H214.093C214.223 48.6016 214.356 48.7367 214.493 49.0068V49.5391C214.493 49.679 214.316 49.8581 213.961 50.0762H213.692C213.565 50.0762 213.432 49.9411 213.292 49.6709V49.0068C213.425 49.0068 213.604 48.8717 213.829 48.6016ZM215.714 48.6016H215.978C216.108 48.6016 216.241 48.7367 216.378 49.0068V49.5391C216.378 49.679 216.201 49.8581 215.846 50.0762H215.577C215.45 50.0762 215.317 49.9411 215.177 49.6709V49.0068C215.31 49.0068 215.489 48.8717 215.714 48.6016ZM217.599 48.6016H217.862C217.993 48.6016 218.126 48.7367 218.263 49.0068V49.5391C218.263 49.679 218.085 49.8581 217.73 50.0762H217.462C217.335 50.0762 217.201 49.9411 217.062 49.6709V49.0068C217.195 49.0068 217.374 48.8717 217.599 48.6016ZM219.483 48.6016H219.747C219.877 48.6016 220.011 48.7367 220.147 49.0068V49.5391C220.147 49.679 219.97 49.8581 219.615 50.0762H219.347C219.22 50.0762 219.086 49.9411 218.946 49.6709V49.0068C219.08 49.0068 219.259 48.8717 219.483 48.6016ZM221.231 38.8457H221.632C221.811 39.028 221.99 40.6312 222.169 43.6553L221.632 44.0557H221.5C221.266 44.0557 221.087 43.6992 220.963 42.9863V41.6533L220.831 40.8477C220.831 40.7598 220.875 40.7158 220.963 40.7158L220.831 40.0469V39.2461C220.831 39.1159 220.965 38.9824 221.231 38.8457ZM222.032 44.9932C222.302 45.5075 222.438 45.82 222.438 45.9307C222.304 46.2855 222.169 46.4629 222.032 46.4629C221.498 46.4629 221.231 46.196 221.231 45.6621C221.287 45.3952 221.554 45.1722 222.032 44.9932ZM229.669 40.9844L229.806 41.248V41.6533C228.95 42.2523 228.414 42.8757 228.199 43.5234C228.199 44.7702 228.958 45.8835 230.475 46.8633V47.5322C230.475 47.6624 230.34 47.7959 230.069 47.9326C229.402 47.9326 228.512 47.0863 227.398 45.3936L227.13 44.4609V44.0557C227.338 42.0081 228.185 40.9844 229.669 40.9844ZM232.096 39.6562C232.366 40.0306 232.589 40.877 232.765 42.1953H232.901C233.097 42.1953 233.897 42.1058 235.304 41.9268V40.1885C235.304 40.0518 235.481 39.8743 235.836 39.6562C236.37 39.6562 236.637 40.903 236.637 43.3965C236.637 44.819 236.013 45.5303 234.767 45.5303H233.702C232.188 45.5303 231.432 44.4186 231.432 42.1953C231.253 41.4108 231.163 40.7874 231.163 40.3252C231.287 39.8792 231.598 39.6562 232.096 39.6562ZM239.176 39.6562L239.576 40.3252C239.755 43.1344 239.845 44.8695 239.845 45.5303C239.711 45.8883 239.578 46.0674 239.444 46.0674H239.176C238.642 46.0674 238.375 45.7109 238.375 44.998H238.507C238.419 44.8255 238.375 44.6921 238.375 44.5977C238.375 44.041 238.331 42.5713 238.243 40.1885C238.588 39.8337 238.899 39.6562 239.176 39.6562ZM233.033 43.5283V43.9287C233.613 44.1077 234.013 44.1973 234.234 44.1973C235.035 44.1973 235.436 43.9303 235.436 43.3965V43.2598C234.898 43.4388 234.098 43.5283 233.033 43.5283ZM240.929 38.3135H245.206L245.606 38.8457C245.694 38.8457 245.738 38.9792 245.738 39.2461V39.7832C245.738 42.5436 245.382 43.9238 244.669 43.9238C242.175 43.9238 240.929 43.613 240.929 42.9912C240.662 40.6442 240.528 39.2624 240.528 38.8457C240.795 38.8457 240.929 38.6683 240.929 38.3135ZM248.414 38.8457H248.814C248.902 38.8457 249.036 39.0247 249.215 39.3828C248.977 42.7682 248.754 44.4609 248.546 44.4609C248.39 44.5488 248.212 44.5928 248.014 44.5928L247.477 44.3242C247.62 40.6719 247.932 38.8457 248.414 38.8457ZM241.866 39.6465V40.4521C242.042 41.3148 242.13 41.8047 242.13 41.9219V42.3223C242.761 42.3223 243.386 42.4102 244.005 42.5859C244.272 42.166 244.405 41.3652 244.405 40.1836V39.6465H241.866ZM245.206 44.3242V44.4609C245.294 44.4609 245.338 44.4154 245.338 44.3242L246.676 44.4609H247.208C247.566 44.6042 247.745 44.915 247.745 45.3936V46.4629C247.745 47.1335 246.809 47.6673 244.938 48.0645L244.806 48.333L246.007 48.6016C247.11 48.5137 247.69 48.4697 247.745 48.4697C248.1 48.5576 248.277 48.735 248.277 49.002C248.066 49.627 247.532 49.9395 246.676 49.9395H245.475C244.225 49.64 243.6 49.3275 243.6 49.002V48.333C243.6 47.0863 244.358 46.4629 245.875 46.4629C246.318 46.235 246.539 46.0576 246.539 45.9307C245.829 45.8395 245.475 45.75 245.475 45.6621L245.206 45.7939L244.405 45.6621L244.137 45.7939C243.98 45.7061 243.801 45.6621 243.6 45.6621V44.8613C243.6 44.5944 244.135 44.4154 245.206 44.3242ZM250.172 40.0469H250.304C251.212 40.0469 251.97 40.8037 252.579 42.3174C252.644 42.4313 252.732 43.0563 252.843 44.1924C252.381 46.0641 251.668 47 250.704 47H250.572C250.214 46.8665 250.035 46.7331 250.035 46.5996C250.035 46.2155 250.481 45.68 251.373 44.9932C251.552 44.5146 251.642 44.1582 251.642 43.9238C251.642 42.498 251.062 41.5182 249.903 40.9844V40.3154C249.933 40.1364 250.022 40.0469 250.172 40.0469Z" fill="black"/>
<path d="M132.588 55.4766H133.148C133.604 55.4766 134.134 55.758 134.738 56.3208C135.237 56.9064 135.486 57.5615 135.486 58.2861V59.0347C135.486 59.4175 134.987 60.0099 133.989 60.812L132.772 61V60.9043C132.711 60.9043 132.68 60.9362 132.68 61C131.058 61 130.247 60.0635 130.247 58.1904V57.7222C130.247 57.0819 130.746 56.4268 131.744 55.7568C132.156 55.57 132.438 55.4766 132.588 55.4766ZM130.995 57.9102C130.995 59.4072 131.494 60.1558 132.492 60.1558H132.96C133.833 60.1558 134.27 59.8447 134.27 59.2227L133.617 58.7544H133.521C133.521 59.3765 133.271 59.6875 132.772 59.6875H132.68C132.202 59.6875 131.92 59.5633 131.836 59.3149C131.9 59.3149 131.932 59.2842 131.932 59.2227H131.836C131.836 59.2842 131.805 59.3149 131.744 59.3149C131.495 59.0506 131.371 58.8011 131.371 58.5664V58.2861C131.51 57.2243 131.977 56.6934 132.772 56.6934H133.053C133.114 56.6934 133.24 56.8813 133.429 57.2573H133.521L133.429 57.4419C133.543 57.4487 133.823 57.7301 134.27 58.2861C134.368 58.2861 134.493 58.3488 134.646 58.4741V58.1904C134.315 56.944 133.784 56.3208 133.053 56.3208H132.96C132.035 56.3208 131.38 56.8506 130.995 57.9102ZM132.12 58.5664C132.347 58.7533 132.565 58.8467 132.772 58.8467V58.4741L132.68 57.5376H132.588C132.276 57.6743 132.12 58.0173 132.12 58.5664ZM137.746 58.7578L138.398 59.1304C138.772 58.882 139.115 58.7578 139.427 58.7578C140.259 58.7578 140.819 59.5052 141.109 61V61.0957C140.984 61.4694 140.859 61.6562 140.736 61.6562H140.456C140.244 61.6562 140.088 61.0946 139.988 59.9712L139.427 59.5986H139.239C139.144 59.5986 139.019 59.7228 138.867 59.9712C138.928 60.5933 138.959 61.0615 138.959 61.376L138.679 61.5605H138.398C138.15 61.5605 138.026 61 138.026 59.8789L137.558 59.7866C137.245 59.8732 137.089 60.0908 137.089 60.4395V61.5605C137.089 61.6585 136.965 61.7839 136.717 61.9365H136.621C136.311 61.9365 136.094 61.1265 135.968 59.5063C136.014 59.3195 136.138 59.1942 136.341 59.1304L136.905 59.2261C136.905 59.0392 137.185 58.8831 137.746 58.7578ZM143.741 56.0405C144.301 56.0793 144.582 56.1408 144.582 56.2251C145.732 57.827 146.387 58.8569 146.547 59.3149C146.426 59.5998 146.302 59.7559 146.174 59.7832H145.986C145.909 59.7832 145.629 59.471 145.146 58.8467C145.146 59.4437 144.708 59.8493 143.833 60.0635H142.992C142.336 59.7718 141.898 59.3354 141.68 58.7544C141.68 58.5675 141.649 58.4741 141.587 58.4741C141.587 57.3029 142.149 56.5225 143.272 56.1328L143.741 56.0405ZM142.524 58.2861C142.649 58.6439 142.867 58.8934 143.177 59.0347H143.833C144.145 58.8752 144.301 58.6257 144.301 58.2861V57.9102C144.301 57.5365 144.114 57.2562 143.741 57.0693H143.553C142.867 57.3815 142.524 57.7871 142.524 58.2861ZM148.618 55.9517C149.644 55.9517 150.298 56.6683 150.58 58.1016C150.705 58.1016 150.799 58.4764 150.86 59.2261H151.517C151.89 59.2648 152.077 59.3582 152.077 59.5063V59.7866C152.077 59.9735 151.672 60.0977 150.86 60.1592L150.956 60.3472C150.79 61.4683 150.321 62.0288 149.551 62.0288H149.179C148.502 62.0288 148.128 61.5617 148.058 60.6274C148.058 60.2424 148.712 59.806 150.02 59.3184V59.2261C149.958 59.1167 149.927 58.9914 149.927 58.8501H149.835C149.607 59.0369 149.388 59.1304 149.179 59.1304H148.43C147.733 59.1304 147.266 58.5698 147.029 57.4487V57.1685C147.471 56.3573 148.001 55.9517 148.618 55.9517ZM147.965 57.1685V57.541C147.965 57.8805 148.12 58.13 148.43 58.2896H149.086C149.335 58.1642 149.459 57.9774 149.459 57.729C149.286 57.1047 149.099 56.7925 148.898 56.7925H148.43C148.243 57.0431 148.088 57.1685 147.965 57.1685ZM148.991 60.8154C148.991 60.9111 149.116 61.0353 149.367 61.188H149.459C149.833 61.0308 150.02 60.7812 150.02 60.4395V60.2515H149.927C149.312 60.4884 149 60.6764 148.991 60.8154ZM153.12 55.4868H154.801C155.052 55.6144 155.177 55.7694 155.177 55.9517C155.113 56.2023 154.927 56.3276 154.617 56.3276H152.839C152.75 56.3276 152.657 56.2342 152.559 56.0474C152.559 55.6737 152.746 55.4868 153.12 55.4868ZM154.241 57.6367C154.507 57.6367 154.663 58.571 154.709 60.4395C154.709 60.6058 154.553 60.7619 154.241 60.9077C153.931 60.8211 153.776 60.6024 153.776 60.2515V59.3184C153.776 58.9766 153.744 58.5402 153.68 58.0093C153.744 57.7609 153.931 57.6367 154.241 57.6367ZM157.901 56.1328H158.558C159.12 56.1328 159.463 56.4131 159.586 56.9736V57.1616C159.586 57.2528 159.493 57.3462 159.306 57.4419C158.657 57.1935 158.251 57.0693 158.089 57.0693C157.091 57.1992 156.592 57.5729 156.592 58.1904V58.2861C156.592 59.1953 157.185 59.7251 158.37 59.8755C159.281 59.7502 159.78 59.6875 159.867 59.6875V60.0635C159.867 60.5465 159.43 60.8268 158.558 60.9043C157.193 60.9043 156.288 60.3438 155.844 59.2227C155.718 58.9652 155.656 58.7772 155.656 58.6587H155.748L155.656 58.4741V58.0981C155.963 56.7879 156.712 56.1328 157.901 56.1328ZM160.438 61.5605H163.435C163.542 61.5605 163.636 61.7166 163.715 62.0288L163.435 62.4971L162.967 62.4048H162.03C161.966 62.4048 161.935 62.3729 161.935 62.3091L161.75 62.4048H160.721C160.623 62.4048 160.498 62.2795 160.345 62.0288L160.438 61.5605ZM164.662 55.6714C165.036 55.6714 165.223 56.5441 165.223 58.2896C165.596 57.9159 166.001 57.729 166.436 57.729H166.716C167.347 57.729 167.753 58.04 167.933 58.6621C168.12 58.9834 168.213 59.2956 168.213 59.5986V60.3472C168.213 60.6707 168.12 60.8576 167.933 60.9077H167.653C167.418 60.9077 167.262 60.3472 167.185 59.2261L166.624 58.6621H166.156C165.88 58.6621 165.632 59.2853 165.411 60.5317L165.13 60.7197H164.847C164.493 60.7197 164.276 59.193 164.194 56.1396C164.299 55.8275 164.455 55.6714 164.662 55.6714ZM171.033 56.2251C172.343 56.4393 172.999 56.8141 172.999 57.3496L173.091 58.0059C172.813 58.7533 172.251 59.127 171.406 59.127C170.408 59.0654 169.878 59.0028 169.816 58.939C169.816 59.0028 169.785 59.0347 169.721 59.0347C169.901 59.9712 170.525 60.4395 171.594 60.4395H171.966C172.436 60.1273 172.748 59.9712 172.903 59.9712L173.091 60.2515V60.3438C173.091 61.0934 172.498 61.4683 171.313 61.4683C170.584 61.4683 169.867 61.0627 169.16 60.2515C168.848 59.3833 168.692 58.759 168.692 58.3784C168.988 57.255 169.394 56.6934 169.909 56.6934C169.909 56.5954 170.284 56.4393 171.033 56.2251ZM169.816 57.9102C170.06 58.0355 170.403 58.0981 170.845 58.0981H171.498C171.708 58.0981 171.926 58.0047 172.154 57.8179C172.154 57.4442 171.749 57.2573 170.938 57.2573C170.19 57.5649 169.816 57.7826 169.816 57.9102ZM176.659 57.729H176.939C177.108 57.729 177.513 58.5698 178.153 60.2515C178.032 60.5363 177.908 60.6924 177.78 60.7197C177.343 60.7197 177.124 60.4395 177.124 59.8789H177.032C176.795 60.5648 176.202 60.9077 175.254 60.9077C174.514 60.9077 173.953 60.2218 173.573 58.8501V58.4775C173.611 58.1038 173.705 57.917 173.853 57.917H174.133C174.3 57.917 174.456 58.4149 174.602 59.4106C174.914 59.8481 175.163 60.0669 175.35 60.0669C176.036 60.0669 176.379 59.5986 176.379 58.6621H176.471L176.379 58.4775V58.0093C176.379 57.9204 176.472 57.827 176.659 57.729ZM179.1 55.7671C179.473 55.7671 179.66 56.6387 179.66 58.3818C180.925 57.6982 181.704 57.3564 181.998 57.3564C182.094 57.3564 182.218 57.4806 182.371 57.729V57.8213C182.371 57.9307 181.778 58.3055 180.593 58.9458C180.593 59.1737 180.968 59.4539 181.718 59.7866C182.091 59.9142 182.278 60.1626 182.278 60.5317L181.902 60.8154H181.622C181.435 60.8154 180.844 60.4406 179.848 59.6909V60.1592C179.848 60.3825 179.879 60.6628 179.94 61C179.94 61.1663 179.784 61.3224 179.472 61.4683C179.094 61.4683 178.876 60.2845 178.819 57.917L178.631 56.2319C178.631 56.0679 178.787 55.9129 179.1 55.7671ZM183.317 55.7671C183.691 55.7671 183.878 56.6387 183.878 58.3818C185.143 57.6982 185.922 57.3564 186.216 57.3564C186.312 57.3564 186.436 57.4806 186.588 57.729V57.8213C186.588 57.9307 185.996 58.3055 184.811 58.9458C184.811 59.1737 185.186 59.4539 185.936 59.7866C186.309 59.9142 186.496 60.1626 186.496 60.5317L186.12 60.8154H185.84C185.653 60.8154 185.062 60.4406 184.066 59.6909V60.1592C184.066 60.3825 184.097 60.6628 184.158 61C184.158 61.1663 184.002 61.3224 183.69 61.4683C183.312 61.4683 183.094 60.2845 183.037 57.917L182.849 56.2319C182.849 56.0679 183.005 55.9129 183.317 55.7671ZM187.627 55.4868H189.309C189.56 55.6144 189.685 55.7694 189.685 55.9517C189.621 56.2023 189.434 56.3276 189.125 56.3276H187.347C187.258 56.3276 187.165 56.2342 187.067 56.0474C187.067 55.6737 187.254 55.4868 187.627 55.4868ZM188.749 57.6367C189.015 57.6367 189.171 58.571 189.217 60.4395C189.217 60.6058 189.061 60.7619 188.749 60.9077C188.439 60.8211 188.284 60.6024 188.284 60.2515V59.3184C188.284 58.9766 188.252 58.5402 188.188 58.0093C188.252 57.7609 188.439 57.6367 188.749 57.6367Z" fill="black"/>
<defs>
<linearGradient id="paint0_linear_254_852" x1="33" y1="1" x2="39" y2="62" gradientUnits="userSpaceOnUse">
<stop stop-color="#9B9B9B"/>
<stop offset="1" stop-color="#CBCBCB"/>
</linearGradient>
</defs>
</svg>
