<svg width="390" height="368" viewBox="0 0 390 368" fill="none" xmlns="http://www.w3.org/2000/svg">
<path d="M91.8744 208.934C93.2879 206.095 95.6002 204.255 98.7625 203.881C99.8615 203.881 101.465 202.753 102.523 203.043C103.947 203.432 105.992 203.45 107.271 204.23C108.961 205.261 110.436 207.245 111.261 209.231C111.932 210.845 112.421 212.721 111.549 214.385C110.121 217.11 107.277 218.861 104.16 218.861C102.033 218.861 99.9047 218.879 97.7778 218.861C96.4954 218.85 95.0313 218.801 93.8298 218.317C93.3752 218.134 92.8393 217.761 92.4921 217.425C92.0537 217.002 91.5412 216.593 91.2381 216.063C90.68 215.086 90.6528 214.23 90.6528 213.145C90.6528 211.655 91.2148 210.259 91.8744 208.934Z" fill="white" stroke="black" stroke-width="2" stroke-linecap="round"/>
<path d="M110.444 251.467C110.441 252.044 111.01 252.669 110.577 252.995C110.499 253.553 110.501 254.456 110.271 254.948C109.982 255.566 109.405 255.9 108.858 256.313L105.62 258.755L103.711 260.195C103.212 260.571 102.707 260.684 102.206 261.003C100.989 261.777 99.6485 262.3 98.2404 262.543C97.509 262.67 96.3099 260.43 95.8845 259.866C94.2045 257.639 92.2565 255.439 91.3023 252.786C90.7595 251.277 90.1663 250.077 90.7558 248.501C91.1184 247.532 92.8075 246.692 93.5881 246.103C95.6038 244.583 97.594 242.783 99.8302 241.601C100.637 241.174 101.608 240.989 102.364 240.494C102.83 240.189 103.448 240.33 103.914 240.589C104.891 241.13 105.849 242.037 106.515 242.921L108.522 245.581C108.945 246.143 109.665 246.797 109.912 247.462C110.179 248.184 110.163 249.119 110.32 249.876C110.434 250.425 110.447 250.912 110.444 251.467Z" fill="#FFD9D9" stroke="black" stroke-width="2" stroke-linecap="round"/>
<path d="M145.47 216.063C145.727 216.351 146.193 216.654 146.343 217.008C145.79 218.095 144.443 220.56 143.726 221.6C143.129 222.464 142.465 223.216 141.956 224.15C141.36 225.245 140.766 226.454 140.306 227.609C139.762 228.975 138.947 230.534 138.947 232.027C138.947 233.495 138.89 234.976 138.953 236.444C139.02 237.989 139.632 239.845 140.331 241.222C141.171 242.874 142.182 244.57 143.498 245.9C144.443 246.855 145.651 248.006 147.025 248.277C148.146 248.497 149.205 248.698 150.35 248.787C154.607 249.119 158.841 248.643 162.961 247.63C165.517 247.001 167.867 245.809 169.914 244.183C170.856 243.435 171.915 242.215 172.044 240.948C172.354 237.892 172 234.783 171.399 231.803C170.985 229.751 170.617 227.622 169.806 225.681C169.174 224.167 168.249 223.054 167.076 221.911C164.259 219.165 159.994 216.448 155.887 216.448C155.567 216.448 156.253 216.08 156.355 216.025C157.358 215.489 158.278 214.808 159.117 214.047C159.758 213.465 160.654 212.783 161.109 212.031C161.499 211.385 161.361 210.49 161.361 209.773C161.361 208.655 161.349 206.223 160.103 205.549C159.017 204.96 157.111 205.963 156.267 206.482C154.281 207.702 152.361 209.44 150.919 211.247C150.832 211.357 150.207 212.32 150.04 212.025C149.94 211.846 149.838 211.672 149.731 211.496C149.022 210.333 148.372 209.163 147.316 208.249C146.852 207.847 145.632 206.766 144.914 207.216C144.648 207.383 144.346 207.503 144.092 207.689C143.607 208.044 143.777 208.847 143.479 209.331C142.937 210.212 142.017 211.129 142.537 212.299C142.879 213.066 143.305 213.541 143.903 214.165C144.472 214.76 144.923 215.448 145.47 216.063Z" fill="#FFFF00" stroke="black" stroke-width="2" stroke-linecap="round"/>
<path d="M123.18 49.3541C129.341 39.4717 137.449 31.3493 149.149 28.9059C150.366 28.2964 151.675 28.2469 153.094 28.2469C154.741 28.2469 156.687 27.5322 158.281 26.9288C159.635 26.4159 160.655 26.3091 160.655 24.787V21.9861C160.655 19.5586 159.669 17.2752 159.669 14.9199C159.669 11.9835 159.959 8.62861 161.86 6.27933C163.466 4.29564 166.493 1.00657 169.531 2.28855C170.389 2.65094 171.147 2.8257 171.996 3.20387C173.011 3.65606 173.277 4.63107 174.133 5.10772C175.643 5.94884 177.245 8.60494 178.242 10.142C180.054 12.9368 181.447 16.1308 183.009 19.0388C183.518 19.9873 184.386 24.2543 185.383 24.2927C186.827 24.3484 188.284 24.2927 189.73 24.2927C192.076 24.2927 196.815 25.4877 196.815 22.1509C196.815 17.3659 195.89 10.7723 200.103 7.48754C201.935 6.05945 203.45 5.83998 205.691 5.83998C207.367 5.83998 210.233 5.47668 211.773 6.33425C214.336 7.76184 216.464 10.9885 217.69 13.5835C218.754 15.8361 219.809 17.8404 220.667 20.1738C221.375 22.1013 222.033 23.7221 222.384 25.7939C222.631 27.2565 223.66 27.547 225.086 27.5879C228.11 27.6745 231.542 28.9724 234.291 30.2972C238.299 32.2289 242.845 33.297 246.527 35.8989C252.328 39.9982 257.993 44.1868 263.073 49.1893C268.236 54.2738 270.966 60.1581 273.666 66.8C276.172 72.9666 277.471 79.6551 279.327 86.0216C280.188 88.9723 281.068 91.9525 281.793 94.9368C282.561 98.1033 284.118 101.122 284.989 104.291C286.021 108.046 285.49 112.892 286.13 116.741C286.907 121.414 285.273 123.874 284.989 128.611C284.413 138.208 279.46 147.234 274.656 155.516C269.96 163.613 264.578 168.662 257.643 174.507C253.568 177.942 251.4 178.399 246.564 180.442C242.674 182.086 239.343 183.864 235.486 185.586C232.525 186.908 229.137 187.91 225.99 188.751C223.202 189.497 218.555 190.422 215.703 190.294C211.997 190.128 209.119 190.756 205.436 190.294C194.101 188.874 180.391 188.684 169.411 185.586C159.985 182.927 152.461 177.12 144.036 171.988C138.552 168.648 134.01 164.831 129.407 160.382C121.469 152.709 114.995 141.944 112.167 131.22C108.535 117.449 109.104 103.414 109.738 89.2801C110.038 82.5832 112.377 76.1041 113.975 69.6558C115.681 62.772 119.436 55.3575 123.18 49.3541Z" fill="#FF774D" stroke="black" stroke-width="2" stroke-linecap="round"/>
<path d="M329.437 54.6746C337.065 57.0122 345.294 56.7147 353.203 56.6945C351.599 56.7222 349.696 57.322 348.13 57.703C346.424 58.1179 344.767 58.6644 343.152 59.3565C341.434 60.0927 340.038 61.2001 338.731 62.5067C337.771 63.4665 336.374 64.1192 335.529 65.1523C334.325 66.6235 332.936 67.6494 331.317 68.5984C330.205 69.2501 328.41 68.9117 327.157 68.9117C326.158 68.9117 325.404 68.6072 324.877 67.6586C324.1 66.2599 323.302 66.4054 321.796 66.4054C317.842 66.4054 311.172 65.6187 308.76 69.6079C307.505 71.6841 306.034 73.4745 305.053 75.6822C304.193 77.6169 304.48 78.9369 302.251 78.9369C298.127 78.9369 296.104 77.7023 292.087 77.1754C290.738 76.9986 289.36 76.2727 290.504 74.8015C291.504 73.5161 288.779 71.8564 288.779 70.3041C286.857 74.6988 284.262 79.7243 282.514 84.1931C282.112 85.2199 281.691 86.5488 281.574 87.6393C281.495 88.3748 280.036 88.0018 279.555 87.9525C274.545 87.4402 269.417 86.1424 264.378 86.1424C263.11 86.1424 263.34 84.1295 262.777 83.2533C261.737 81.636 260.588 80.1292 259.348 78.641C257.772 76.7503 256.283 74.2803 254.005 73.1411C252.47 72.3736 252.125 72.4995 252.125 70.7914C252.125 69.8653 252.152 68.2996 252.595 67.5019C252.926 66.9055 253.341 65.1717 253.378 64.5257C253.488 62.6097 254.053 60.6609 254.562 58.8169C254.918 57.5256 254.623 56.4834 255.397 55.2664C255.87 54.5227 255.614 54.1873 256.668 54.1873C257.387 54.1873 258.09 54.0321 258.774 53.8044C260.466 53.2402 261.93 52.9341 263.717 52.9341C267.545 52.9341 270.365 53.7916 271.305 49.3487C271.968 46.2126 273.166 43.4837 276.422 42.8916C281.89 41.8975 288.155 42.5957 293.722 42.5957C296.385 42.5957 298.995 42.7558 301.624 43.1526C303.62 43.4539 305.967 43.5462 307.855 44.3188C311.603 45.8522 315.401 47.2572 319.168 48.7222C322.91 50.1773 325.588 53.4952 329.437 54.6746Z" fill="white"/>
<path d="M353.943 56.6936C345.809 56.6936 337.303 57.0852 329.437 54.6746C325.588 53.4952 322.91 50.1773 319.168 48.7222C315.401 47.2572 311.603 45.8522 307.855 44.3188C305.967 43.5462 303.62 43.4539 301.624 43.1526C298.995 42.7558 296.385 42.5957 293.722 42.5957C288.155 42.5957 281.89 41.8975 276.422 42.8916C273.165 43.4837 271.968 46.2126 271.305 49.3487C270.365 53.7916 267.545 52.9341 263.717 52.9341C261.93 52.9341 260.466 53.2402 258.774 53.8044C258.09 54.0321 257.387 54.1873 256.668 54.1873C255.614 54.1873 255.87 54.5227 255.397 55.2664C254.623 56.4834 254.918 57.5256 254.562 58.8169C254.053 60.6609 253.488 62.6097 253.378 64.5257C253.341 65.1717 252.926 66.9055 252.595 67.5019C252.152 68.2996 252.125 69.8653 252.125 70.7914C252.125 72.4995 252.47 72.3736 254.005 73.1411C256.283 74.2803 257.772 76.7503 259.348 78.641C260.588 80.1292 261.737 81.636 262.777 83.2533C263.34 84.1295 263.11 86.1424 264.378 86.1424C269.417 86.1424 274.545 87.4402 279.555 87.9525C280.036 88.0018 281.495 88.3748 281.574 87.6393C281.691 86.5488 282.112 85.2199 282.514 84.1931C284.262 79.7243 286.857 74.6988 288.779 70.3041M288.779 70.3041C288.779 68.5296 288.472 67.2981 288.17 65.6396C287.995 64.6777 286.948 65.4402 286.273 65.0827C285.362 65.0827 275.749 62.646 274.838 62.646C273.249 62.646 273.252 66.042 272.645 67.1886C271.778 68.8266 271.155 70.4244 270.122 71.975M288.779 70.3041C288.779 71.8564 291.504 73.5161 290.504 74.8015C289.36 76.2727 290.738 76.9986 292.087 77.1754C296.104 77.7023 298.127 78.9369 302.251 78.9369C304.48 78.9369 304.193 77.6169 305.053 75.6822C306.034 73.4745 307.505 71.6841 308.76 69.6079C311.172 65.6187 317.842 66.4054 321.796 66.4054C323.302 66.4054 324.1 66.2599 324.877 67.6586C325.404 68.6072 326.158 68.9117 327.157 68.9117C328.41 68.9117 330.205 69.2501 331.317 68.5984C332.936 67.6494 334.325 66.6235 335.529 65.1523C336.374 64.1192 337.771 63.4665 338.731 62.5067C340.038 61.2001 341.434 60.0927 343.152 59.3565C344.767 58.6644 346.424 58.1179 348.13 57.703C349.734 57.3129 351.689 56.6936 353.316 56.6936" stroke="black" stroke-width="2" stroke-linecap="round"/>
<path d="M127.043 146.846C130.785 148.301 152.156 154.647 156.005 155.827C154.299 156.241 152.642 156.788 151.027 157.48C149.309 158.216 147.913 159.324 146.606 160.63C145.646 161.59 130.517 163.496 129.671 164.529C125.717 164.529 119.047 163.742 116.635 167.731C115.38 169.808 113.909 171.598 112.928 173.806C112.068 175.74 112.355 177.06 110.126 177.06C106.002 177.06 103.979 175.826 99.9616 175.299C98.7994 175.147 97.6148 174.586 98.0425 173.492C96.4002 175.971 89.5542 184.78 89.4489 185.763C89.3701 186.498 87.9112 186.125 87.4299 186.076C82.4202 185.564 77.2917 184.266 72.253 184.266C70.9853 184.266 71.215 182.253 70.6517 181.377C69.612 179.76 68.4631 178.253 67.223 176.765C65.6474 174.874 64.1582 172.404 61.8797 171.265C60.3448 170.497 60 170.623 60 168.915C60 167.989 60.0268 166.423 60.4699 165.625C60.8013 165.029 61.2162 163.295 61.2531 162.649C61.3626 160.733 61.928 158.784 62.4367 156.94C62.7929 155.649 62.4976 154.607 63.2721 153.39C63.7453 152.646 63.4895 152.311 64.5426 152.311C65.2624 152.311 65.9654 152.156 66.6486 151.928C68.3411 151.364 69.805 151.058 71.5916 151.058C75.4205 151.058 78.2402 151.915 79.1801 147.472C79.8435 144.336 81.0405 141.607 84.2971 141.015C89.7646 140.021 96.03 140.719 101.597 140.719C104.26 140.719 106.87 140.879 109.499 141.276C111.495 141.577 113.842 141.67 115.73 142.442C119.478 143.976 123.276 145.381 127.043 146.846Z" fill="white"/>
<path d="M98.379 172.925C97.9772 173.952 89.5657 184.672 89.4489 185.763C89.3701 186.498 87.9112 186.125 87.4299 186.076C82.4202 185.564 77.2917 184.266 72.253 184.266C70.9853 184.266 71.215 182.253 70.6517 181.377C69.612 179.76 68.4631 178.253 67.223 176.765C65.6474 174.874 64.1582 172.404 61.8797 171.265C60.3448 170.497 60 170.623 60 168.915C60 167.989 60.0268 166.423 60.4699 165.625C60.8013 165.029 61.2162 163.295 61.2531 162.649C61.3626 160.733 61.928 158.784 62.4367 156.94C62.7929 155.649 62.4976 154.607 63.2721 153.39C63.7453 152.646 63.4895 152.311 64.5426 152.311C65.2624 152.311 65.9654 152.156 66.6486 151.928C68.3411 151.364 69.805 151.058 71.5916 151.058C75.4205 151.058 78.2402 151.915 79.1801 147.472C79.8435 144.336 81.0405 141.607 84.2971 141.015C89.7646 140.021 96.03 140.719 101.597 140.719C104.26 140.719 106.87 140.879 109.499 141.276C111.495 141.577 113.842 141.67 115.73 142.442C119.478 143.976 123.276 145.381 127.043 146.846C130.785 148.301 152.156 154.647 156.005 155.827C154.299 156.241 152.642 156.788 151.027 157.48C149.309 158.216 147.913 159.324 146.606 160.63C145.646 161.59 130.517 163.496 129.671 164.529C125.717 164.529 119.047 163.742 116.635 167.731C115.38 169.808 113.909 171.598 112.928 173.806C112.068 175.74 112.355 177.06 110.126 177.06C106.002 177.06 103.979 175.826 99.9616 175.299C98.6133 175.122 97.2347 174.396 98.379 172.925ZM98.379 172.925C98.2041 171.963 94.8235 163.564 94.1482 163.206C93.2373 163.206 83.6241 160.77 82.7132 160.77C81.124 160.77 78.6036 162.129 77.9965 163.276C77.1294 164.914 79.0303 168.548 77.9965 170.098" stroke="black" stroke-width="2" stroke-linecap="round"/>
<path d="M174.967 62.3125C177.748 62.3125 179.139 64.2383 179.139 68.0898V68.7344C179.139 72.1562 177.643 75.2578 174.651 78.0391C176.362 78.0391 177.217 78.1445 177.217 78.3555L177.85 78.0391C178.084 78.0391 178.408 78.1445 178.822 78.3555L180.744 78.0391C181.596 79.1172 182.022 79.7578 182.022 79.9609C181.678 81.0312 181.037 81.5664 180.1 81.5664L179.455 81.2383C179.244 81.2383 179.139 81.3477 179.139 81.5664C177.342 81.3477 174.135 81.1328 169.518 80.9219L169.19 79.3164V78.6719C173.901 74.7812 176.256 71.7891 176.256 69.6953V67.4453C176.256 66.3359 175.932 65.6953 175.283 65.5234H173.678C172.686 65.5234 171.405 66.5938 169.834 68.7344H169.19C168.658 68.7344 168.338 68.3047 168.229 67.4453C169.268 64.0234 171.084 62.3125 173.678 62.3125H174.967ZM191.373 61.9961C195.655 63.832 197.795 66.9336 197.795 71.3008V72.5781C197.795 74.9766 195.869 77.0078 192.018 78.6719H190.729C186.885 77.3906 184.963 76 184.963 74.5C184.401 74.5 183.971 73.6445 183.674 71.9336V69.3672C184.315 64.6641 186.455 62.3125 190.096 62.3125C190.197 62.3125 190.623 62.207 191.373 61.9961ZM186.557 70.0117V70.9727C186.557 72.5742 187.947 74.0742 190.729 75.4727C193.51 75.1289 194.901 73.8438 194.901 71.6172V70.9727C194.901 69.1367 193.94 67.4258 192.018 65.8398C190.463 64.9883 189.608 64.5625 189.451 64.5625C188.155 64.5625 187.19 66.3789 186.557 70.0117ZM206.186 62.3125C208.967 62.3125 210.358 64.2383 210.358 68.0898V68.7344C210.358 72.1562 208.862 75.2578 205.869 78.0391C207.58 78.0391 208.436 78.1445 208.436 78.3555L209.069 78.0391C209.303 78.0391 209.627 78.1445 210.041 78.3555L211.963 78.0391C212.815 79.1172 213.24 79.7578 213.24 79.9609C212.897 81.0312 212.256 81.5664 211.319 81.5664L210.674 81.2383C210.463 81.2383 210.358 81.3477 210.358 81.5664C208.561 81.3477 205.354 81.1328 200.737 80.9219L200.408 79.3164V78.6719C205.119 74.7812 207.475 71.7891 207.475 69.6953V67.4453C207.475 66.3359 207.151 65.6953 206.502 65.5234H204.897C203.905 65.5234 202.623 66.5938 201.053 68.7344H200.408C199.877 68.7344 199.557 68.3047 199.447 67.4453C200.487 64.0234 202.303 62.3125 204.897 62.3125H206.186ZM219.381 59.7461H221.315C223.08 59.7461 224.256 61.0273 224.842 63.5898V64.8789C224.842 65.6523 224.412 66.5078 223.553 67.4453C225.694 69.1562 226.764 70.9766 226.764 72.9062C225.623 77.3984 223.377 79.6445 220.026 79.6445H219.065C217.143 79.6445 216.072 78.7891 215.854 77.0781V76.75C215.854 76.4453 216.174 76.125 216.815 75.7891C219.033 76 220.319 76.1055 220.67 76.1055C222.592 75.6055 223.553 74.3242 223.553 72.2617C223.553 71.4023 222.807 70.7617 221.315 70.3398C219.627 70.9805 218.557 71.3008 218.104 71.3008C217.244 71.3008 216.709 70.7656 216.498 69.6953C217.576 67.9609 219.072 66.6758 220.987 65.8398L221.947 64.5625C221.947 63.2734 220.987 62.6289 219.065 62.6289H218.748C218.748 62.9023 218.104 63.4375 216.815 64.2344H215.537C215.537 63.8047 215.322 63.5898 214.893 63.5898V62.6289C214.893 61.8008 216.389 60.8398 219.381 59.7461ZM170.209 84.9414C171.92 84.9414 172.776 86.5469 172.776 89.7578C172.994 89.7578 173.104 89.8633 173.104 90.0742C175.237 89.8633 176.838 89.7578 177.908 89.7578H178.869L179.186 91.3516V92.6406C177.905 92.7969 177.264 93.0117 177.264 93.2852C177.694 94.668 177.908 95.6289 177.908 96.168V96.4844C177.908 98.4141 176.307 99.6992 173.104 100.34C169.893 99.543 168.287 97.9375 168.287 95.5234V94.8789L168.604 94.2461C166.041 94.2461 164.76 93.4961 164.76 91.9961V91.0352C165.096 91.0352 165.522 90.8203 166.037 90.3906H169.565L168.932 86.5469C169.346 85.5703 169.772 85.0352 170.209 84.9414ZM171.498 95.207V95.5234C171.498 95.8281 171.819 96.1484 172.459 96.4844H173.737C174.166 96.4844 174.381 96.2734 174.381 95.8516C174.381 95.4219 174.166 95.207 173.737 95.207H171.498ZM179.186 100.656C180.256 100.656 180.791 101.727 180.791 103.867H180.475C180.115 104.289 176.268 104.82 168.932 105.461C167.862 105.039 167.326 104.398 167.326 103.539C167.326 102.047 169.358 101.301 173.42 101.301V101.617L179.186 100.656ZM178.553 106.105C180.045 106.105 180.791 108.031 180.791 111.883C180.518 112.953 180.197 113.488 179.83 113.488H177.908L177.264 111.238V109.633C173.655 110.273 171.518 110.594 170.854 110.594L169.565 108.355C169.994 108.355 170.424 107.926 170.854 107.066C174.244 106.426 176.811 106.105 178.553 106.105ZM205.201 93.2852H206.162C206.162 93.6133 206.377 94.0391 206.807 94.5625V98.4062C206.807 99.3828 207.127 101.734 207.768 105.461C207.354 106.438 206.924 106.973 206.479 107.066H205.846C204.932 107.066 204.182 104.074 203.596 98.0898H203.924L203.596 97.4453C203.815 94.6719 204.35 93.2852 205.201 93.2852ZM188.526 93.918C190.877 94.0742 192.053 94.7148 192.053 95.8398C192.373 95.6289 193.764 95.418 196.225 95.207C197.936 96.8633 198.791 99.4297 198.791 102.906V103.539C198.791 104.648 198.471 105.289 197.83 105.461H196.541C195.901 105.461 195.475 103.324 195.264 99.0508H193.33C193.026 99.0508 192.705 99.3711 192.369 100.012V100.34C192.369 101.457 192.479 103.273 192.697 105.789L191.408 106.75H190.776C189.916 106.75 189.381 105.254 189.17 102.262L189.487 100.34V98.0898C189.487 97.6602 189.166 97.4453 188.526 97.4453C188.057 97.4453 186.451 97.6602 183.709 98.0898C182.858 97.8789 182.432 97.2383 182.432 96.168C182.432 94.668 184.248 93.918 187.881 93.918H188.526ZM213.58 90.0977C217.635 90.0977 219.662 92.3398 219.662 96.8242C219.662 98.9102 218.166 100.297 215.174 100.984C212.276 100.984 210.354 98.957 209.408 94.9023C209.408 92.7773 210.479 91.2812 212.619 90.4141C213.26 90.4141 213.58 90.3086 213.58 90.0977ZM212.619 94.5742C213.088 95.9102 213.94 96.9805 215.174 97.7852C216.033 97.4648 216.463 97.1445 216.463 96.8242V96.1797C216.463 94.5469 216.033 93.5859 215.174 93.2969H213.58C213.041 93.2969 212.721 93.7227 212.619 94.5742ZM227.362 93.6133H227.678C228.272 93.6133 228.807 95.6445 229.283 99.707H228.955C229.815 105.324 230.244 108.531 230.244 109.328C229.416 109.969 228.776 110.289 228.322 110.289C227.041 110.289 226.401 108.043 226.401 103.551C225.971 99.1758 225.541 96.5039 225.112 95.5352C225.112 94.2539 225.862 93.6133 227.362 93.6133ZM216.463 104.512L217.096 104.84L218.385 104.512C221.158 104.676 222.545 104.891 222.545 105.156L222.873 106.434C222.873 107.293 222.123 107.938 220.623 108.367L217.424 108.039H214.858L212.619 108.367C212.619 108.148 212.51 108.039 212.291 108.039C212.291 108.258 212.186 108.367 211.975 108.367C211.975 107.938 211.334 107.508 210.053 107.078V105.801C210.053 105.488 210.373 105.168 211.014 104.84H214.541L216.463 104.512ZM145.002 122.641C145.369 122.641 146.01 122.855 146.924 123.285C147.112 123.285 147.967 123.176 149.49 122.957C154.405 122.957 156.862 124.133 156.862 126.484C156.862 127.367 156.971 128.223 157.19 129.051C157.19 134.184 156.014 136.75 153.662 136.75H151.729C147.666 136.75 145.635 135.469 145.635 132.906C144.783 128.469 144.358 125.582 144.358 124.246C144.787 123.551 145.002 123.016 145.002 122.641ZM161.678 122.641H162.955C162.955 122.961 163.276 123.387 163.916 123.918V129.379C167.557 129.723 169.377 130.363 169.377 131.301V132.262C169.377 132.566 169.053 132.887 168.405 133.223C166.592 133.223 165.205 133.008 164.244 132.578C164.244 132.797 164.135 132.906 163.916 132.906L164.244 133.539V136.434C164.244 136.645 164.135 136.75 163.916 136.75L164.244 137.395V138.355C164.244 138.645 163.709 139.18 162.639 139.961C161.358 139.516 160.717 138.66 160.717 137.395V124.562C160.85 123.281 161.17 122.641 161.678 122.641ZM147.885 126.484C148.401 130.977 148.936 133.223 149.49 133.223C151.381 133.434 152.557 133.539 153.018 133.539C153.447 132.703 153.662 131.527 153.662 130.012V129.695L153.334 126.484C153.123 126.484 153.018 126.594 153.018 126.812L151.412 126.484H147.885ZM173.28 117.824H173.596C173.807 121.465 174.127 123.285 174.557 123.285C175.221 123.285 177.252 123.176 180.651 122.957V120.719L181.295 118.469C182.576 118.469 183.217 119.109 183.217 120.391V122.957H183.533C186.182 122.746 187.572 122.641 187.705 122.641V120.074C187.705 119.77 188.026 119.449 188.666 119.113H190.272C190.701 120.816 190.916 122.848 190.916 125.207V131.301C190.916 132.793 190.166 133.539 188.666 133.539C188.447 133.539 188.022 133.113 187.389 132.262L187.705 129.051V126.168L187.389 125.523C184.397 126.016 182.901 126.336 182.901 126.484C181.674 130.336 179.748 132.262 177.123 132.262L176.479 131.934L175.834 132.262C172.842 131.52 171.346 130.023 171.346 127.773C171.135 125.719 171.03 123.473 171.03 121.035V120.074C171.03 118.574 171.78 117.824 173.28 117.824ZM174.557 126.168C174.557 126.379 174.451 126.484 174.24 126.484C174.623 128.195 175.479 129.051 176.807 129.051C178.479 128.566 179.545 127.82 180.006 126.812V126.168H179.045C178.28 126.168 177.319 126.273 176.162 126.484C175.811 126.273 175.276 126.168 174.557 126.168ZM185.139 133.539H186.428C186.983 133.539 187.408 134.289 187.705 135.789C187.174 143.055 185.783 146.688 183.533 146.688H180.334C177.858 146.688 176.252 143.055 175.518 135.789C175.518 134.93 175.947 134.289 176.807 133.867H177.768C178.408 133.867 178.944 135.469 179.373 138.672H184.494C184.494 138.023 184.604 137.277 184.822 136.434V134.5C185.033 134.5 185.139 134.18 185.139 133.539ZM180.006 141.555V142.199C180.006 142.535 180.436 142.965 181.295 143.488H182.901C183.541 143.27 183.862 142.625 183.862 141.555L183.217 141.883H180.651L180.006 141.555ZM207.627 119.102V119.43L208.272 119.102H208.6C209.795 119.102 210.541 119.637 210.838 120.707C210.58 122.207 210.045 122.957 209.233 122.957L206.994 122.629C206.619 122.848 206.19 122.957 205.705 122.957V123.59C205.705 125.309 206.346 126.168 207.627 126.168C209.065 126.168 210.244 126.488 211.166 127.129L210.838 124.234C210.838 121.773 211.908 120.383 214.049 120.062H215.971C216.19 120.062 216.299 120.172 216.299 120.391L216.944 120.062H218.537C218.85 120.062 219.174 120.383 219.51 121.023V121.668C219.51 123.168 218.655 123.918 216.944 123.918C215.412 123.699 214.557 123.59 214.377 123.59V125.523C214.377 126.805 215.338 127.445 217.26 127.445C217.565 127.445 217.885 127.766 218.221 128.406V128.734C218.221 129.883 217.795 130.629 216.944 130.973H214.694C212.928 130.973 211.752 129.797 211.166 127.445H210.838C210.838 129.156 210.518 130.012 209.877 130.012H208.916C204.424 130.012 202.178 128.195 202.178 124.562V122.629C202.178 122.121 202.498 121.16 203.139 119.746L203.783 120.062V119.43H206.033L207.627 119.102ZM225.604 120.062H225.92C226.256 120.062 226.686 120.492 227.209 121.352C227.42 125.555 227.526 128.336 227.526 129.695H227.209C227.209 129.906 227.315 130.012 227.526 130.012C227.526 130.574 227.205 131.75 226.565 133.539H224.959C224.623 133.539 224.197 133.113 223.682 132.262C223.682 131.777 223.787 131.348 223.998 130.973L223.682 130.328C223.893 129.172 223.998 128.211 223.998 127.445H219.826C219.49 127.445 219.061 127.02 218.537 126.168V125.84C218.678 124.559 219.002 123.918 219.51 123.918H221.115C221.326 123.918 221.432 124.023 221.432 124.234L222.076 123.918H223.682C223.682 123.488 223.787 123.273 223.998 123.273L223.682 122.629V121.996C223.682 120.707 224.322 120.062 225.604 120.062ZM214.694 135.473L222.076 136.434C223.147 137.23 223.682 138.512 223.682 140.277C223.682 143.66 222.826 145.48 221.115 145.738C220.045 145.441 219.51 144.691 219.51 143.488V143.172C219.51 142.969 219.721 142.113 220.143 140.605V139.645H219.826L215.338 139.316L214.694 139.645C213.412 139.09 212.772 138.34 212.772 137.395C212.983 136.98 213.088 136.66 213.088 136.434C212.877 136.434 212.772 136.324 212.772 136.105C214.053 135.957 214.694 135.746 214.694 135.473ZM237.182 118.492L238.143 119.781L237.826 122.98C240.389 125.23 241.67 126.938 241.67 128.102V128.746L240.065 129.074C238.143 127.988 237.182 126.918 237.182 125.863H236.549C236.057 128.004 235.307 129.074 234.299 129.074C233.737 129.074 233.205 128.539 232.705 127.469C234.197 124.305 234.944 122.383 234.944 121.703V121.059C234.553 121.27 233.057 121.59 230.455 122.02C230.088 121.809 229.662 121.703 229.178 121.703V120.414C229.178 119.453 231.846 118.812 237.182 118.492ZM246.791 120.414H247.119C248.705 120.414 249.666 122.125 250.002 125.547C250.002 126.195 250.108 126.941 250.319 127.785H250.002C250.424 129.098 250.635 129.953 250.635 130.352C250.315 131.203 249.994 131.629 249.674 131.629H248.397C247.498 131.629 246.858 128.211 246.475 121.375C246.686 120.961 246.791 120.641 246.791 120.414ZM245.83 133.234C246.643 133.234 247.283 134.301 247.752 136.434V139.316C247.752 142.738 246.686 144.449 244.553 144.449L244.869 143.805C243.541 144.445 242.58 144.766 241.987 144.766C240.494 144.766 239.748 144.445 239.748 143.805L239.104 144.121H238.787L239.104 143.488L238.471 143.805H238.143L236.865 135.801C237.295 135.105 237.51 134.57 237.51 134.195H238.787C239.459 134.195 239.994 135.477 240.393 138.039C240.604 137.828 242.205 137.613 245.197 137.395L244.869 135.156C245.088 133.875 245.408 133.234 245.83 133.234ZM240.709 140.605V140.922C240.709 141.227 241.03 141.547 241.67 141.883H243.276L244.869 141.566V139.645H243.908L244.237 140.277H243.592V139.645L240.709 140.605Z" fill="black"/>
<path d="M150.685 222.928C151.435 222.928 151.862 223.642 151.966 225.069V225.709C153.132 225.709 154.77 225.566 156.88 225.28C156.88 225.42 156.95 225.491 157.091 225.491C157.195 223.782 157.481 222.928 157.95 222.928H158.591C159.018 222.928 159.231 223.712 159.231 225.28C159.231 228.358 158.091 230.139 155.81 230.624C155.955 231.884 156.028 232.668 156.028 232.975H159.231C160.086 233.064 160.513 233.277 160.513 233.616V234.467C160.513 234.67 160.299 234.884 159.872 235.108H156.669L155.169 235.319V235.108L154.739 235.319H150.895C150.182 235.038 149.825 234.54 149.825 233.827C149.825 233.624 150.039 233.41 150.466 233.186H153.888V232.116L153.677 231.045C153.817 231.045 153.888 230.975 153.888 230.834C151.325 230.834 150.044 229.767 150.044 227.631L149.614 224.209C149.755 223.355 150.112 222.928 150.685 222.928ZM152.177 227.842V228.053C152.224 228.34 152.367 228.483 152.606 228.483C155.315 228.483 156.669 228.126 156.669 227.413H156.45C155.518 227.413 154.093 227.556 152.177 227.842ZM152.395 236.608H156.669C157.95 236.608 158.591 237.249 158.591 238.53C158.414 241.519 157.843 243.014 156.88 243.014C156.229 242.738 155.872 242.454 155.81 242.163L156.45 238.741H153.888C152.033 238.741 151.106 238.314 151.106 237.459C151.252 236.892 151.682 236.608 152.395 236.608Z" fill="black"/>
<path d="M164.913 36.9434C164.913 35.102 167.348 34.5281 168.809 34.5281C169.586 34.5281 170.652 34.3776 171.38 34.7012C171.627 34.8109 171.963 34.9956 172.237 34.9956" stroke="black" stroke-width="2" stroke-linecap="round"/>
<path d="M174.373 41.479C174.762 42.1657 175.144 42.7529 175.904 43.0702C176.563 43.3453 177.367 43.3155 178.071 43.2729C178.543 43.2442 178.913 43.0614 179.316 42.8406C179.462 42.7611 179.84 42.6527 179.916 42.5002" stroke="black" stroke-width="2" stroke-linecap="round"/>
<path d="M182.882 35.6925C183.006 35.3946 183.579 35.0845 183.839 34.9144C184.173 34.6955 184.532 34.5254 184.936 34.5254C185.289 34.5254 185.591 34.6891 185.924 34.7901C186.858 35.0728 187.845 35.0906 188.799 35.2791C189.213 35.3611 189.464 35.535 189.763 35.7681C190.014 35.9635 190.283 36.1301 190.614 36.1301" stroke="black" stroke-width="2" stroke-linecap="round"/>
<path d="M181.914 240.361C182.128 240.575 182.759 240.821 182.796 241.159C183.27 241.396 184.473 242.019 184.824 242.421C185.463 243.152 186.271 243.722 187.016 244.327C187.839 244.995 189.212 245.077 190.232 245.332C191.971 245.767 193.761 245.908 195.499 246.393C197.076 246.833 198.656 247.329 200.25 247.702C201.675 248.036 203.209 248.51 204.676 248.51C205.415 248.51 206.135 248.366 206.86 248.221L206.939 248.205C208.438 247.905 209.938 247.508 211.417 247.117L211.581 247.073C214.17 246.389 216.634 245.23 219.003 243.989C221.261 242.807 223.609 241.694 226.03 240.886C227.825 240.288 229.647 239.764 231.448 239.182L231.512 239.161C232.821 238.738 234.142 238.311 235.494 238.046C237.066 237.738 238.574 237.694 240.169 237.694C240.551 237.694 241.133 237.585 241.503 237.708C241.659 237.76 241.606 238.044 241.606 238.168C241.606 238.731 241.652 239.317 241.484 239.863C241.169 240.887 240.526 241.862 239.916 242.727C238.051 245.369 236.025 247.88 233.644 250.087C231.75 251.844 229.776 253.587 227.664 255.082C227.484 255.209 227.157 255.319 227.157 255.575C227.157 255.923 227.015 256.245 226.955 256.584C226.746 257.77 226.819 259.089 226.819 260.292C226.819 262.465 226.799 264.608 226.608 266.775C226.389 269.253 226.229 271.655 225.608 274.075C225.479 274.578 224.74 274.366 224.317 274.366H221.669H209.277C204.603 274.366 199.951 274.294 195.292 273.925C192.55 273.707 189.775 273.53 187.063 273.047C184.968 272.673 182.912 272.093 180.825 271.681C180.067 271.531 179.189 271.172 178.628 270.61C178.44 270.423 178.487 270.198 178.487 269.953C178.487 269.358 178.555 268.761 178.571 268.16C178.59 267.462 178.759 266.773 178.825 266.08C178.943 264.84 179.078 263.604 179.078 262.358V258.241L179.078 258.215C179.079 257.523 179.079 256.912 178.825 256.255C178.645 255.79 178.273 255.6 177.98 255.204C177.093 254.006 175.578 253.451 174.469 252.5C173.595 251.751 172.83 250.707 172.154 249.782C171.218 248.5 170.561 247.067 169.831 245.665C168.633 243.364 167.418 240.841 167.418 238.201C167.418 237.287 167.272 235.447 168.282 234.99C168.558 234.866 168.752 234.652 169.066 234.652C169.441 234.652 169.824 234.633 170.197 234.671C171.006 234.754 171.731 234.738 172.488 235.075C173.435 235.496 174.34 236.037 175.304 236.427C176.912 237.077 178.594 237.69 180.008 238.727C180.682 239.222 181.323 239.77 181.914 240.361Z" fill="#AFAFAF" stroke="black" stroke-width="2" stroke-linecap="round"/>
<path d="M186.072 211.673C186.264 212.258 186.752 214.847 187.748 214.958C185.527 215.515 184.094 219.267 183.213 221.035C181.522 224.428 182.214 229.139 182.214 232.848C182.214 237.068 183.039 240.382 185.673 243.828C187.756 246.554 189.374 248.651 192.329 250.491C195.557 252.501 198.474 252.711 202.167 252.711C204.854 252.711 207.793 253.038 210.468 252.681C212.181 252.451 214.042 251.643 215.633 250.984C217.582 250.177 219.208 249.255 220.737 247.776C222.179 246.381 222.707 245.118 223.484 243.258L223.484 243.258L223.504 243.211C225.485 238.472 225.932 233.932 225.932 228.823C225.932 226.323 226.339 222.862 224.411 220.927C223.677 220.19 223.092 219.272 222.397 218.505C221.844 217.895 220.846 216.765 220.46 216.069C219.908 215.072 218.355 213.407 217.355 212.738C217.355 203.952 217.545 194.315 217.355 185.533C217.272 181.707 215.511 178.269 214.926 174.553L214.921 174.52C214.762 173.511 214.451 171.53 213.204 171.391C212.001 171.257 210.853 171.53 209.669 171.653C208.609 171.763 207.979 174.555 207.67 175.278C205.066 181.373 203.52 188.402 203.52 195.049V204.502C203.52 205.085 203.91 208.878 203.089 209.113C201.827 209.475 199.876 209.2 198.585 209.113C197.61 209.048 197.482 208.859 197.432 208.018C197.386 207.232 196.82 205.713 196.541 204.903C195.887 203.007 196.096 200.873 195.603 198.95C194.995 196.579 194.236 194.234 193.62 191.856C192.841 188.851 192.641 185.696 191.898 182.665C191.072 179.29 190.374 175.898 189.439 172.548C189.03 171.084 188.421 167.49 186.856 166.78C184.066 165.514 181.305 171.073 180.677 172.856C179.612 175.879 180.277 179.89 180.277 183.05C180.277 187.323 180.615 191.272 181.445 195.465C182.529 200.938 184.333 206.372 186.072 211.673Z" fill="#AFAFAF" stroke="black" stroke-width="2" stroke-linecap="round"/>
<path d="M209.909 239.289C209.911 239.352 209.94 239.559 209.88 239.597C210.005 239.974 210.142 240.582 210.142 240.978C210.142 241.722 210.414 242.25 210.142 242.957C209.96 243.429 209.76 244.214 209.35 244.539C209.021 244.801 208.157 245.189 207.768 245.331C207.163 245.551 206.823 245.726 206.185 245.726C205.27 245.726 203.902 245.248 203.236 244.492C202.677 243.859 202.332 242.935 202.264 242.1C202.179 241.039 202.247 239.928 202.476 238.892C202.615 238.266 202.813 237.655 203.218 237.147C203.446 236.861 203.735 236.5 204.089 236.372C204.592 236.189 205.254 236.222 205.785 236.261C206.006 236.277 206.219 236.361 206.423 236.438C206.814 236.586 207.206 236.736 207.592 236.898C208.084 237.107 208.535 237.418 208.913 237.796C209.232 238.115 209.554 238.445 209.76 238.852C209.827 238.984 209.905 239.139 209.909 239.289Z" fill="white" stroke="black" stroke-width="2" stroke-linecap="round"/>
<path d="M187.985 229.9C187.859 229.054 188.621 227.465 189.155 226.821C189.555 226.427 189.895 225.86 190.359 225.547C190.751 225.283 191.146 225.001 191.546 224.756C191.7 224.661 192.17 224.447 192.337 224.36C192.829 224.104 193.376 223.999 193.92 223.965C194.711 223.965 194.711 223.965 195.503 224.36C196.052 224.445 196.609 224.776 197.117 225.012C197.901 225.375 198.543 226.138 199.131 226.752C199.768 227.417 200.201 228.357 200.368 229.262C200.427 229.582 200.374 229.969 200.368 230.295C200.358 230.785 200.257 231.255 200.025 231.675C199.707 232.251 199.527 233.004 199.063 233.461C198.681 233.839 198.301 234.315 197.877 234.648C197.021 235.319 195.758 235.557 194.715 235.881C193.988 236.107 193.338 236.176 192.337 235.835C191.21 235.45 190.117 234.925 189.349 234.021C188.731 233.293 188.163 232.669 187.985 231.544C187.788 231.001 188.071 230.473 187.985 229.9Z" fill="white" stroke="black" stroke-width="2" stroke-linecap="round"/>
<path d="M207.558 222.595C208.17 222.03 209.673 221.501 210.548 221.253C211.651 221.106 212.12 221.195 213.103 221.288C214.099 221.591 215.428 221.253 217.239 223.965C218.846 227.13 218.326 227.524 218.186 228.693C218.056 229.782 217.825 230.879 217.239 231.816C216.769 232.568 216.128 233.238 215.428 233.782C214.583 234.439 213.619 234.495 212.591 234.495C211.397 234.495 210.294 234.174 209.175 233.782C208.279 233.469 207.445 233.027 206.776 232.342C205.999 231.547 205.682 230.351 205.467 229.286C205.357 228.739 205.397 228.15 205.424 227.596C205.445 227.152 205.448 226.74 205.565 226.308C205.831 225.322 206.266 224.352 206.831 223.499C207.042 223.179 207.276 222.856 207.558 222.595Z" fill="white" stroke="black" stroke-width="2" stroke-linecap="round"/>
<path d="M193.929 224.922C194.133 225.058 194.341 225.186 194.493 225.381C194.559 225.465 194.621 225.552 194.682 225.64C194.756 225.744 194.811 225.859 194.871 225.97C194.944 226.104 195.005 226.243 195.055 226.387C195.112 226.552 195.188 226.711 195.227 226.882C195.314 227.258 195.294 227.65 195.288 228.034C195.285 228.279 195.211 228.522 195.159 228.76C195.097 229.042 195.005 229.32 194.913 229.594C194.806 229.912 194.627 230.213 194.366 230.423C194.193 230.562 194.012 230.686 193.836 230.82C193.655 230.957 193.468 231.096 193.261 231.192C192.873 231.373 192.464 231.487 192.06 231.62C191.751 231.721 191.437 231.773 191.116 231.827C190.779 231.883 190.445 231.954 190.102 231.972C189.961 231.98 189.819 231.976 189.678 231.976C189.621 231.976 189.573 231.959 189.565 232.032C189.548 232.183 189.609 232.332 189.682 232.459C189.857 232.767 190.041 233.066 190.264 233.34C190.765 233.955 191.336 234.644 192.089 234.956C192.253 235.024 192.442 235.068 192.617 235.091C192.785 235.113 192.932 235.162 193.092 235.215C193.128 235.227 193.157 235.24 193.189 235.256C193.189 235.256 193.156 235.064 193.153 235.05C193.089 234.794 193.04 234.538 193.04 234.273C193.04 233.861 193.164 233.471 193.255 233.074C193.367 232.587 193.465 232.092 193.609 231.613C193.73 231.21 193.847 230.811 194.107 230.475C194.349 230.163 194.659 229.956 195.022 229.804C195.471 229.617 195.959 229.618 196.431 229.533C196.87 229.454 197.322 229.447 197.767 229.452C197.89 229.454 197.989 229.496 198.1 229.546C198.244 229.609 198.392 229.663 198.536 229.727C198.559 229.737 198.778 229.858 198.795 229.837C198.836 229.788 198.803 229.54 198.792 229.481C198.7 228.987 198.258 228.616 197.92 228.282C197.73 228.094 197.528 227.904 197.379 227.683C197.254 227.499 197.16 227.293 197.032 227.11C197.017 227.089 196.899 226.883 196.865 226.903C196.842 226.917 196.837 226.949 196.825 226.973C196.771 227.083 196.716 227.192 196.654 227.298C196.545 227.486 196.42 227.665 196.295 227.843C196.107 228.11 195.962 228.386 195.799 228.667C195.591 229.023 195.358 229.365 195.126 229.706C194.848 230.114 194.594 230.534 194.301 230.933C194.028 231.305 193.724 231.659 193.419 232.005C193.162 232.296 192.913 232.585 192.608 232.828C192.417 232.98 192.261 233.171 192.064 233.315C191.914 233.424 191.802 233.572 191.661 233.691C191.532 233.799 191.424 233.933 191.309 234.056C191.279 234.087 191.212 234.261 191.31 234.207C191.452 234.128 191.589 234.024 191.713 233.921C191.75 233.89 191.795 233.866 191.81 233.82" stroke="black" stroke-width="2" stroke-linecap="round"/>
<path d="M211.875 221.507C212.297 221.964 212.695 222.379 212.907 222.966C212.988 223.191 213.047 223.41 213.072 223.647C213.121 224.105 213.092 224.583 212.963 225.024C212.774 225.675 212.49 226.295 212.008 226.777C211.744 227.041 211.439 227.256 211.121 227.45C210.738 227.683 210.322 227.932 209.9 228.082C209.293 228.298 208.695 228.475 208.062 228.603C207.8 228.656 207.544 228.75 207.277 228.773C207.175 228.781 207.078 228.791 206.978 228.809C206.927 228.819 206.853 228.806 206.806 228.826C206.625 228.904 207.492 230.29 207.566 230.421C207.791 230.823 207.947 231.266 208.114 231.694C208.169 231.836 208.225 231.979 208.269 232.125C208.274 232.143 208.272 232.023 208.272 232.004C208.272 231.387 208.221 230.747 208.293 230.133C208.301 230.07 208.421 230.44 208.431 230.479C208.548 230.953 208.65 231.431 208.773 231.904C208.856 232.227 208.964 232.517 209.085 232.82C209.185 233.07 209.422 233.266 209.607 233.451C209.706 233.55 209.742 233.249 209.756 233.189C209.822 232.909 209.941 232.642 210.039 232.371C210.195 231.942 210.332 231.507 210.53 231.094C210.64 230.864 210.707 230.617 210.811 230.385C210.902 230.181 211.008 229.977 211.107 229.776C211.347 229.288 211.579 228.78 211.872 228.321C212.125 227.926 212.424 227.574 212.81 227.301C213.358 226.913 214.006 226.762 214.669 226.737C214.974 226.726 215.282 226.732 215.587 226.735C215.763 226.736 215.915 226.753 216.075 226.823C216.286 226.914 216.523 227.031 216.696 227.184C216.783 227.261 216.929 227.341 217.037 227.389C217.105 227.419 217.1 227.11 217.101 227.073C217.11 226.795 217.134 226.487 217.077 226.214C216.996 225.823 216.828 225.465 216.668 225.102C216.443 224.591 216.186 224.062 215.875 223.598C215.738 223.394 215.589 223.211 215.411 223.043C215.332 222.968 215.223 222.822 215.116 222.783C214.996 222.74 214.933 223.359 214.928 223.418C214.89 223.897 214.885 224.376 214.867 224.855C214.857 225.114 214.818 225.374 214.818 225.632C214.818 225.702 214.796 225.751 214.762 225.813C214.665 225.99 214.498 226.09 214.325 226.186C213.944 226.398 213.545 226.568 213.144 226.74C212.725 226.918 212.327 227.086 211.993 227.395C211.644 227.718 211.352 228.111 211.03 228.463C210.89 228.616 210.743 228.761 210.6 228.912C210.429 229.091 210.295 229.28 210.098 229.434C209.956 229.545 209.829 229.672 209.678 229.771C209.584 229.833 209.461 229.912 209.393 230.003C209.345 230.066 209.239 230.216 209.173 230.249" stroke="black" stroke-width="2" stroke-linecap="round"/>
<path d="M352.929 143.023C355.959 140.226 388.551 117.901 391.5 115C391.5 116.989 391.428 116.83 391.844 118.765C393.098 124.604 393.096 150.462 393.936 156.374C394.808 162.514 395.38 168.695 396.283 174.832C397.307 181.789 398.516 188.855 398.716 195.894C398.864 201.094 402 220.113 402 225.313C395.029 224.396 360.135 223.101 353.178 222.098C345.21 220.949 337.248 219.762 329.287 218.565C319.256 217.056 309.06 215.68 299.197 213.278C294.138 212.045 289.2 210.37 284.144 209.117C280.927 208.319 277.699 207.552 274.464 206.83C270.49 205.943 266.536 205.123 262.48 204.732C261.602 204.648 259.912 204.828 261.336 204.044C261.985 203.688 262.514 203.173 263.124 202.755C264.573 201.762 266.173 201.073 267.724 200.262C269.651 199.253 271.512 198.111 273.398 197.029C279.096 193.76 284.759 190.419 290.403 187.057C296.761 183.269 302.739 178.937 308.869 174.797C316.215 169.836 323.369 164.599 330.688 159.598C338.293 154.401 346.145 149.284 352.929 143.023Z" fill="#FFFF00" stroke="black" stroke-width="2" stroke-linecap="round"/>
<path d="M259.7 196.021C261.581 194.203 262.813 193.397 264.984 191.941C265.38 191.675 264.905 193.639 264.643 194.523C264.382 195.404 264.615 196.674 264.615 197.591C264.615 199.269 263.728 200.972 264.984 202.228C265.192 202.345 266.962 203.019 268.166 203.883C268.941 204.206 269.53 204.588 270.112 204.778C271.191 205.131 271.909 205.819 272.782 206.497C273.064 206.715 273.627 206.942 273.229 207.278C272.77 207.667 272.232 207.893 271.674 208.102C269.724 208.83 267.792 209.596 265.851 210.346C264.935 210.7 263.634 210.608 263.457 211.759C263.371 212.319 263.081 212.809 262.896 213.336C262.631 214.094 262.432 214.859 262.058 215.58C261.108 217.412 260.587 219.48 259.7 221.332C259.246 222.283 258.856 222.823 258.031 222.163C257.941 222.091 257.871 221.601 257.833 221.467C257.757 221.201 257.712 220.997 257.712 220.679V218.073C257.712 217.429 257.679 216.501 257.513 215.885C257.461 215.693 257.185 213.526 256.945 214.245C256.518 215.526 255.491 216.547 254.907 217.753C254.297 219.011 253.491 220.111 252.726 221.268C251.617 222.948 250.633 224.816 249.374 226.368C248.567 227.362 247.867 228.561 247.187 229.649C246.601 230.587 245.802 231.484 245.34 232.489C244.842 233.576 243.945 234.435 243.366 235.486C242.818 236.481 242.214 237.523 241.52 238.427C240.855 239.291 238.202 242.173 237.259 240.443C236.495 239.044 238.033 238.703 238.153 237.503C238.218 236.861 239.216 236.102 239.531 235.557C240.646 233.63 242.072 231.919 243.295 230.061C244.988 227.488 246.72 224.987 248.238 222.305C249.511 220.056 251.131 217.953 252.243 215.615C252.841 214.36 253.846 212.874 253.593 211.411C253.514 210.957 252.39 211.17 252.08 211.17C250.027 211.17 247.972 211.042 245.93 211.042H243.338C242.937 211.042 242.152 211.223 242.755 210.836C243.824 210.149 244.819 209.183 245.845 208.414C246.725 207.754 247.633 207.097 248.536 206.468C248.911 206.207 249.786 205.917 249.786 205.36C249.786 204.461 249.286 203.273 248.891 202.484C248.353 201.407 247.784 200.069 247.563 198.891C247.432 198.193 247.473 197.446 247.485 196.739C247.491 196.394 247.663 196.469 247.954 196.469H249.467C249.954 196.469 250.124 196.72 250.56 196.916C251.401 197.295 252.218 198.065 253.114 198.271C254.179 198.517 255.564 199.458 256.675 199.458C258.102 199.458 258.736 196.954 259.7 196.021Z" fill="#FF00E5" stroke="black" stroke-width="2" stroke-linecap="round"/>
<path d="M181.3 164.804C181.468 164.487 181.655 163.825 182.343 163.413C183.032 163.002 183.524 163.24 184.101 163.24H185.714C186.221 163.24 187.276 163.218 187.646 163.587C188.174 164.116 188.886 164.586 189.336 165.2C190.199 166.377 191.171 167.491 191.987 168.716C192.157 168.971 192.271 169.377 192.359 169.672C192.442 169.952 192.642 170.18 192.736 170.454C192.989 171.202 193.302 171.927 193.557 172.676C195.055 177.087 195.535 181.771 195.947 186.386C196.196 189.172 196.338 191.986 196.338 194.784C196.338 195.719 193.544 195.549 192.943 195.624C191.553 195.798 190.156 195.75 188.756 195.75C186.498 195.75 184.272 195.708 182.02 195.576C181.476 195.544 179.642 195.572 179.368 195.054C179.255 194.84 179.135 194.653 179.127 194.359C179 189.795 179.04 185.219 179.04 180.649C179.04 177.588 178.838 174.462 179.257 171.43C179.497 169.698 180.13 168.184 180.624 166.523C180.804 165.919 181.007 165.359 181.3 164.804Z" fill="#6C11A4" stroke="black" stroke-width="2" stroke-linecap="round"/>
<path d="M207.194 170.116C207.318 169.974 209.51 167.438 209.724 167.76L210.526 167.76C210.763 167.76 211.294 167.769 211.511 167.866C212.141 168.146 212.657 168.829 213.133 169.305C213.781 169.952 214.32 170.608 214.785 171.41C214.891 171.593 215.098 171.696 215.2 171.884C215.33 172.123 215.391 172.357 215.48 172.608C215.631 173.029 215.849 173.576 216.074 173.97C216.36 174.47 216.4 174.988 216.543 175.539C216.725 176.243 216.841 176.962 216.987 177.674C217.306 179.224 217.543 180.784 217.827 182.334C217.972 183.12 218.228 183.99 218.243 184.787C218.257 185.549 218.176 186.409 218.417 187.144C218.76 188.194 218.851 189.612 218.851 190.713V192.664C218.851 193.123 219.059 193.939 218.586 194.146C217.653 194.554 216.765 194.713 215.804 195.011C212.931 195.9 209.801 195.75 206.831 195.75H204.557C203.792 195.75 203.011 195.973 202.263 195.948C202.005 195.939 202.038 195.132 201.988 194.967C201.778 194.286 201.814 193.4 201.814 192.688V189.993C201.814 187.35 202.242 184.691 202.857 182.131C203.279 180.371 203.481 178.58 204.156 176.892C204.601 175.778 204.964 174.579 205.344 173.439C205.718 172.318 206.423 170.997 207.194 170.116Z" fill="#6C11A4" stroke="black" stroke-width="2" stroke-linecap="round"/>
<circle cx="183.237" cy="161.847" r="3.74791" fill="#FFFF00" stroke="black" stroke-width="2"/>
<circle cx="211.724" cy="167.386" r="3.74791" fill="#FFFF00" stroke="black" stroke-width="2"/>
<path d="M204.559 182.052C204.373 181.606 203.656 181.01 203.309 180.664C203.144 180.911 203.223 181.319 203.223 181.602C203.223 182.277 203.234 182.953 203.223 183.627C203.209 184.479 202.932 185.308 202.792 186.141C202.549 187.585 202.63 189.052 202.361 190.488C202.256 191.049 202.318 191.658 202.318 192.226C202.318 192.323 202.225 192.96 202.447 192.849C202.657 192.744 202.815 192.502 203.017 192.375C203.321 192.183 203.529 191.878 203.836 191.685C204.519 191.255 205.045 190.637 205.617 190.076C205.772 189.924 205.942 189.941 206.091 190.081C206.314 190.291 206.681 190.316 206.938 190.498C207.09 190.605 207.236 190.706 207.403 190.79C207.58 190.878 207.707 191.033 207.877 191.125C208.101 191.247 208.469 191.242 208.719 191.307C209.083 191.4 209.42 191.523 209.754 191.695C209.809 191.723 210.182 191.958 210.127 191.848C210.067 191.727 210.058 191.581 209.988 191.47C209.896 191.323 209.833 191.156 209.768 190.996C209.555 190.472 209.243 189.988 208.973 189.492C208.705 189 208.435 188.508 208.159 188.02C208.023 187.779 207.802 187.556 207.757 187.276C207.721 187.048 207.914 186.877 208.049 186.706C209.031 185.464 210.238 184.342 211.032 182.947C211.222 182.614 211.367 182.353 211.367 181.963C211.367 181.885 211.422 181.596 211.281 181.621C211.019 181.667 210.792 181.759 210.52 181.793C209.167 181.964 207.824 182.411 206.651 183.101C206.258 183.331 205.891 183.572 205.559 183.883C205.433 184.001 205.472 183.964 205.378 183.905C205.284 183.846 205.238 183.622 205.196 183.529C204.973 183.041 204.765 182.547 204.559 182.052Z" fill="#FFFF00" stroke="black" stroke-width="2" stroke-linecap="round"/>
<path d="M191.977 171.337C192.126 171.044 192.281 170.424 192.625 170.319C193.098 172.25 193.572 174.18 194.042 176.111C194.098 176.339 194.162 176.574 194.205 176.807C194.267 177.141 194.312 177.48 194.367 177.816C194.44 178.263 194.466 178.716 194.536 179.162C194.578 179.428 194.566 179.697 194.566 179.965V180.511C194.566 180.653 194.525 180.873 194.606 180.995C194.373 180.995 193.796 180.36 193.588 180.249C193.346 180.121 193.175 180.06 192.903 180.06C192.792 180.06 192.732 180.149 192.647 180.209C192.335 180.431 192.061 180.725 191.771 180.975C191.36 181.329 190.981 181.666 190.536 181.98C190.163 182.243 189.847 182.653 189.454 182.876C189.43 182.889 189.471 182.326 189.475 182.277C189.513 181.81 189.602 181.348 189.607 180.869C189.613 180.271 189.743 179.436 189.475 178.878C189.229 178.364 188.79 177.985 188.391 177.595C188.113 177.323 187.781 177.103 187.491 176.843C186.933 176.343 186.451 175.76 186.007 175.158C185.938 175.064 185.621 174.612 185.863 174.585C186.152 174.553 186.433 174.551 186.725 174.542C187.287 174.527 187.849 174.458 188.41 174.425C188.959 174.393 189.51 174.409 190.059 174.375C190.228 174.364 190.442 174.416 190.579 174.286C190.94 173.944 191.07 173.308 191.261 172.869C191.488 172.349 191.719 171.843 191.977 171.337Z" fill="#FFFF00" stroke="black" stroke-width="2" stroke-linecap="round"/>
<path d="M180.185 186.653C180 186.669 179.483 186.558 179.296 186.558C179.144 188.797 179.281 191.254 179.281 193.499L179.281 194.686C179.281 194.784 179.54 195.07 179.676 195.082C180.086 195.116 179.843 194.912 180.253 194.958C181.348 195.079 182.468 195.053 183.568 195.053C184.52 195.053 185.472 195.049 186.424 195.053C186.909 195.055 187.389 195.135 187.873 195.135C187.873 194.686 187.589 194.291 186.914 193.849C186.756 193.674 186.635 193.387 186.452 193.246C186.145 193.01 185.919 192.661 185.645 192.387C185.064 191.806 184.382 191.204 184.058 190.431C183.914 190.086 184.056 189.824 184.221 189.531C184.549 188.95 184.943 188.406 185.312 187.85C185.698 187.271 186.225 186.648 186.476 185.988C186.521 185.869 186.505 185.73 186.505 185.605C186.505 185.479 186.276 185.549 186.208 185.559C184.995 185.738 183.807 186.083 182.602 186.309C181.802 186.459 180.996 186.583 180.185 186.653Z" fill="#FFFF00" stroke="black" stroke-width="2" stroke-linecap="round"/>
<path d="M287.998 228.718C289.081 226.754 290.065 221.591 290.645 222.387C293.99 222.806 296.469 224.427 299.788 225.091C302.419 225.617 305.009 226.341 307.603 227.016C308.737 227.311 309.876 227.591 311.007 227.898C311.538 228.042 312.016 228.209 312.569 228.272C313.013 228.323 313.344 228.339 313.727 228.557C314.566 229.037 315.415 229.295 316.383 229.372C316.415 229.375 317.309 229.365 317.125 229.585C316.804 229.971 316.616 230.863 316.472 231.329C315.989 232.885 315.433 234.412 314.899 235.952C314.566 236.914 314.117 237.849 313.856 238.832C313.654 239.594 313.508 240.912 312.761 241.37C312.305 241.65 311.779 242.027 311.236 242.086C310.48 242.168 309.684 242.081 308.932 242.024C306.88 241.868 304.875 241.107 302.886 240.597C299.341 239.688 295.822 238.383 292.518 236.814C290.62 235.912 288.304 234.231 286.078 234.945C285.236 235.216 284.372 235.557 283.582 235.952C283.226 236.13 283.984 235.264 284.21 234.935C285.579 232.94 286.831 230.836 287.998 228.718Z" fill="#05FF00" stroke="black" stroke-width="2" stroke-linecap="round"/>
<path d="M314.034 214.519C313.812 212.287 311.696 207.476 312.625 207.803C315.617 206.251 318.579 206.182 321.689 204.846C324.155 203.788 326.699 202.916 329.218 202.002C330.32 201.602 331.416 201.187 332.523 200.798C333.041 200.616 333.53 200.482 334.021 200.221C334.415 200.011 334.697 199.836 335.136 199.8C336.1 199.719 336.945 199.45 337.787 198.964C337.814 198.949 338.545 198.433 338.519 198.719C338.473 199.22 338.824 200.061 338.969 200.526C339.453 202.082 339.862 203.655 340.295 205.226C340.565 206.207 340.726 207.232 341.069 208.19C341.334 208.932 341.96 210.101 341.605 210.901C341.388 211.39 341.169 211.999 340.755 212.356C340.179 212.851 339.474 213.231 338.821 213.611C337.043 214.646 334.96 215.155 333.032 215.863C329.597 217.124 325.958 218.044 322.347 218.625C320.273 218.958 317.411 218.886 315.983 220.737C315.442 221.437 314.924 222.208 314.497 222.981C314.305 223.33 314.438 222.186 314.438 221.788C314.435 219.368 314.273 216.925 314.034 214.519Z" fill="#05FF00" stroke="black" stroke-width="2" stroke-linecap="round"/>
<path d="M303.057 229.529C302.996 229.469 302.951 229.395 302.89 229.335C302.774 229.221 302.631 229.175 302.485 229.114C302.119 228.963 301.734 228.848 301.344 228.778C300.458 228.618 299.572 228.567 298.677 228.729C298.326 228.793 297.905 228.875 297.712 229.203C297.576 229.434 297.484 229.645 297.481 229.917C297.476 230.395 297.678 230.766 298.016 231.104C298.296 231.383 298.683 231.527 299.057 231.638C299.917 231.895 300.784 232.139 301.64 232.409C302.112 232.557 302.689 232.711 303.057 233.069C303.274 233.28 303.299 233.548 303.299 233.839C303.299 234.021 303.327 234.304 303.201 234.451C302.95 234.743 302.562 234.84 302.222 234.984C301.793 235.166 301.27 235.134 300.815 235.152C300.349 235.171 299.866 235.173 299.402 235.131C299.297 235.121 299.254 235.075 299.159 235.038C298.974 234.965 298.791 234.902 298.598 234.851C298.417 234.803 298.229 234.708 298.06 234.626C297.929 234.561 297.788 234.523 297.655 234.463C297.556 234.418 297.447 234.402 297.365 234.324C297.294 234.255 297.184 234.198 297.095 234.148C296.708 233.93 296.431 233.59 296.075 233.335" stroke="black" stroke-width="2" stroke-linecap="round"/>
<path d="M326.899 206.649C326.815 206.634 326.735 206.599 326.651 206.584C326.491 206.556 326.347 206.599 326.192 206.632C325.805 206.714 325.423 206.838 325.062 207.001C324.241 207.372 323.482 207.832 322.837 208.473C322.585 208.725 322.284 209.031 322.311 209.411C322.33 209.678 322.374 209.904 322.526 210.13C322.793 210.527 323.169 210.717 323.639 210.804C324.028 210.876 324.428 210.775 324.8 210.654C325.654 210.378 326.506 210.088 327.364 209.824C327.837 209.68 328.4 209.479 328.906 209.565C329.204 209.616 329.377 209.822 329.542 210.062C329.645 210.212 329.828 210.429 329.808 210.621C329.767 211.005 329.502 211.304 329.304 211.616C329.053 212.009 328.604 212.279 328.24 212.552C327.867 212.832 327.47 213.107 327.064 213.336C326.972 213.387 326.91 213.374 326.811 213.397C326.618 213.442 326.43 213.493 326.242 213.561C326.066 213.624 325.858 213.653 325.672 213.68C325.527 213.702 325.389 213.75 325.246 213.776C325.139 213.795 325.04 213.844 324.929 213.826C324.831 213.809 324.708 213.825 324.606 213.834C324.164 213.874 323.743 213.75 323.306 213.743" stroke="black" stroke-width="2" stroke-linecap="round"/>
<path d="M301.239 227.178C301.15 227.287 301.132 227.455 301.093 227.585C301.045 227.747 300.987 227.911 300.953 228.075C300.844 228.612 300.674 229.134 300.525 229.662C300.485 229.802 300.462 229.946 300.416 230.085C300.369 230.223 300.303 230.358 300.261 230.497C300.203 230.685 300.113 230.878 300.074 231.07C300.026 231.302 299.927 231.531 299.869 231.763C299.801 232.033 299.76 232.319 299.676 232.584C299.615 232.778 299.588 232.984 299.512 233.172C299.435 233.362 299.354 233.577 299.294 233.772C299.224 234.001 299.11 234.232 299.058 234.463C299.008 234.689 298.894 234.927 298.862 235.154C298.851 235.226 298.832 235.322 298.81 235.391C298.786 235.47 298.717 235.544 298.717 235.628C298.717 235.699 298.691 235.767 298.669 235.833" stroke="black" stroke-width="2" stroke-linecap="round"/>
<path d="M324.859 206.535C324.84 206.674 324.915 206.816 324.95 206.941C324.995 207.098 325.032 207.261 325.091 207.41C325.284 207.896 325.415 208.408 325.568 208.911C325.609 209.045 325.666 209.172 325.7 209.308C325.734 209.445 325.748 209.59 325.786 209.725C325.836 209.907 325.861 210.113 325.93 210.287C326.012 210.497 326.048 210.737 326.122 210.953C326.208 211.205 326.326 211.454 326.395 211.712C326.446 211.901 326.532 212.078 326.567 212.271C326.601 212.467 326.645 212.685 326.698 212.874C326.759 213.095 326.783 213.345 326.862 213.557C326.94 213.764 326.968 214.02 327.061 214.217C327.091 214.279 327.126 214.366 327.144 214.434C327.164 214.51 327.144 214.609 327.19 214.675C327.228 214.731 327.241 214.8 327.257 214.865" stroke="black" stroke-width="2" stroke-linecap="round"/>
<path d="M107.771 255.298C107.771 257.909 107.412 260.014 107.412 262.626C107.412 263.447 107.551 263.779 108.131 264.391C108.492 264.772 108.903 265.651 109.39 265.651H113.028C114.373 265.651 115.617 265.471 116.945 265.471C117.603 265.471 117.952 265.471 118.524 265.83C119.166 266.235 120.151 265.707 120.802 265.471C122.087 265.004 123.113 264.519 124.14 263.492C125.27 262.362 126.658 261.454 126.658 259.715C126.658 258.442 126.478 257.184 126.478 255.937C126.478 255.463 126.202 253.353 126.568 253.06C126.682 252.968 127.198 251.879 127.198 251.71C127.198 251.199 127.805 250.909 127.907 250.451C128.128 249.456 127.909 247.996 127.387 247.214C126.912 246.501 124.929 247.339 124.41 247.743C123.875 248.159 122.932 248.617 122.261 248.553C121.764 248.505 121.275 247.656 120.902 247.304C120.294 246.729 119.027 246.805 118.244 246.544C117.484 246.291 116.604 246.404 115.806 246.404C114.653 246.404 113.744 246.464 112.718 247.034C111.603 247.653 109.829 249.434 109.39 250.641C109.087 251.474 108.628 252.556 108.211 253.329C108.036 253.655 107.862 254.045 107.781 254.409C107.726 254.656 107.771 255.109 107.771 255.298Z" fill="#7CC05B" stroke="black" stroke-width="2" stroke-linecap="round"/>
<path d="M111.009 260.974L112.448 259.535" stroke="black" stroke-width="2" stroke-linecap="round"/>
<path d="M121.981 252.879C122.41 252.832 122.521 252.343 122.521 251.98" stroke="black" stroke-width="2" stroke-linecap="round"/>
<path d="M100.148 257.704C100.577 257.656 100.688 257.167 100.688 256.805" stroke="black" stroke-width="2" stroke-linecap="round"/>
<path d="M78.5854 216.783C80.1883 213.513 82.8102 211.393 86.3961 210.963C87.6423 210.963 89.0938 210.772 90.2935 211.105C91.9089 211.554 93.5313 212.129 94.981 213.027C96.8984 214.216 99.633 214.837 100.569 217.125C101.329 218.983 101.885 221.145 100.896 223.061C99.2756 226.199 96.051 228.217 92.5161 228.217C90.1042 228.217 87.6913 228.238 85.2795 228.217C83.8254 228.204 82.1651 228.147 80.8027 227.59C80.2873 227.379 79.6796 226.949 79.2859 226.563C78.7887 226.075 78.2075 225.605 77.8638 224.994C77.231 223.869 77.2002 222.883 77.2002 221.633C77.2002 219.917 77.8375 218.308 78.5854 216.783Z" fill="white" stroke="black" stroke-width="2" stroke-linecap="round"/>
<path d="M91.4948 219.642C92.2491 219.037 93.1969 218.599 94.1704 218.547C94.6509 218.547 97.2989 218.512 97.2989 219.021C97.2989 219.78 97.2546 220.445 96.709 220.991C96.4601 221.24 96.4457 221.507 96.4457 221.865C96.4457 222.391 96.3588 222.505 95.9927 222.834C95.7286 223.072 95.3749 223.276 95.0447 223.403C94.8523 223.477 94.7112 223.668 94.5022 223.761C94.3757 223.817 94.163 223.889 94.0756 223.998C93.9489 224.156 93.2933 224.069 93.0802 224.188C92.7923 224.348 92.1862 224.519 91.853 224.519C91.1869 224.519 90.5414 224.709 89.8569 224.709H88.5349C88.1402 224.709 87.7695 224.715 87.3973 224.609C87.1884 224.549 87.4061 223.589 87.4341 223.435C87.5895 222.58 88.7937 221.776 89.3934 221.196C90.0188 220.591 90.819 220.185 91.4948 219.642Z" fill="#61011E" stroke="black" stroke-width="2" stroke-linecap="round"/>
<path d="M113 263H114.818" stroke="black" stroke-width="2" stroke-linecap="round"/>
<path d="M337.309 287.139C337.309 280.674 338.816 274.244 338.816 267.777C339.6 266.993 339.691 266.808 340.85 266.808C341.27 266.808 341.992 266.935 342.365 266.728C342.715 266.534 343.239 266.664 343.623 266.648C344.021 266.631 344.338 266.366 344.729 266.326C345.544 266.245 346.323 265.926 347.136 265.845C347.727 265.786 348.231 265.363 348.875 265.363C349.546 265.363 350.248 265.117 350.917 265.025C353.123 264.72 358.076 264.984 360.316 265.024C360.816 265.363 360.861 266.455 360.694 267.379C360.546 268.204 360.373 268.951 360.373 269.786C360.373 270.323 360.123 270.738 360.017 271.249C359.874 271.931 359.892 272.616 359.892 273.309C359.892 274.796 359.731 276.282 359.731 277.776C359.731 286.313 358.731 294.85 358.731 303.387C358.731 313.789 356.892 324.179 356.892 334.579C356.892 340.773 357.208 347.075 356.767 353.252C356.557 356.193 356.339 360.141 353.45 361.67C352.606 362.117 351.893 362.789 351.042 363.275C350.123 363.8 349.7 363.917 348.616 363.917C346.1 363.917 343.283 364.22 340.912 363.347C338.376 362.412 333.618 362.122 333.618 358.54V337.433C333.618 334.774 333.431 332.007 334.028 329.407C334.359 327.964 334.178 326.471 334.456 325.02C334.624 324.143 334.902 323.053 334.902 322.175C334.902 320.783 334.987 319.306 335.294 317.949C335.639 316.42 335.219 314.856 335.669 313.321C336.142 311.704 335.885 309.937 336.257 308.309L336.258 308.307C336.467 307.391 336.667 306.514 336.667 305.571C336.667 302.989 336.988 300.406 336.988 297.805C336.988 296.306 337.309 294.922 337.309 293.417V287.139Z" fill="white" stroke="black" stroke-width="2" stroke-linecap="round"/>
<path d="M52.4445 283.751C52.3855 279.156 52.4445 275.876 52.4445 271.277C52.4445 269.901 51.212 269.74 50.5476 269.574C49.9421 269.423 49.1895 269.559 48.5601 269.559C47.1718 269.559 45.8093 269.568 44.434 269.416C43.8294 269.348 43.3364 268.933 42.7261 268.811C41.4888 268.564 40.277 267.815 39.0987 267.337C37.7682 266.798 36.4357 266.338 35.0481 266.09C34.078 265.917 33.1394 266.158 32.2444 266.158C31.6197 266.158 31.2567 266.881 30.8164 267.277C30.4339 267.622 30.3723 268.246 30.3164 268.777C30.0883 270.944 30.3163 273.099 30.3163 275.277C30.3163 280.099 30 303.783 30 308.599C30 315.713 30.5441 322.767 30.5441 329.887C30.5441 333.734 30.4908 337.532 31.0202 341.344C31.3605 343.794 31.528 346.316 31.7684 348.78C31.8996 350.125 31.8091 351.726 32.1764 353.012C32.8463 355.356 32.3586 357.874 33.0228 360.198C33.4049 361.536 34.1389 362.346 35.1086 363.342C35.5974 363.845 35.9404 364.324 36.5293 364.672C36.9458 364.918 37.2608 365.336 37.6855 365.594C38.1235 365.861 38.5981 365.949 39.0534 366.169C40.932 367.073 43.5081 366.307 45.4013 365.7C46.0869 365.48 46.7877 365.364 47.4795 365.171C48.2619 364.953 48.9273 364.447 49.6937 364.189C50.7141 363.844 51.6378 363.643 52.5049 362.979C53.0667 362.55 53.6388 362.426 53.6687 361.619C53.6858 361.157 53.6687 360.691 53.6687 360.229V350.329V316.927C53.6687 314.241 53.9023 311.437 53.6385 308.765C53.5021 307.384 53.5464 306.011 53.5327 304.624C53.513 302.634 53.1246 300.692 53.1246 298.699C53.1246 296.538 53.006 294.418 52.8854 292.263L52.8828 292.215C52.8088 290.893 52.8704 289.57 52.7845 288.248C52.6874 286.751 52.4637 285.25 52.4445 283.751Z" fill="white" stroke="black" stroke-width="2" stroke-linecap="round"/>
<path d="M52.7282 353.893C52.7282 330.187 52.2939 304.56 52.408 280.855C52.9605 279.198 56.3251 278.36 58.0976 278.295C60.3449 278.211 62.2678 277.014 64.5693 277.014C67.5143 277.014 70.517 276.539 73.4413 276.232C77.1279 275.846 80.8896 275.724 84.5535 275.201C91.887 274.153 99.0906 273.647 106.493 273.245C115.651 272.749 124.685 271.336 133.874 271.254C144.51 271.159 155.122 270.614 165.77 270.614H305.553C315.861 270.614 326.579 271.157 336.667 273.494C338.983 274.031 338.516 274.915 338.516 277.014C338.516 279.573 338.054 282.217 337.805 284.766C337.377 289.159 337.765 293.571 337.236 297.959C336.346 305.346 335.064 312.726 334.996 320.183C334.928 327.661 334.996 335.143 334.996 342.621C334.996 347.92 335.731 353.947 334.285 359.12C333.932 360.382 331.776 359.903 330.693 359.903H64.3204C63.0655 359.903 52.8513 360.792 52.7282 359.191C52.5939 357.447 52.7282 355.644 52.7282 353.893Z" fill="white"/>
<path d="M339.927 269.426C335.739 264.974 342.871 261.54 346.816 260.778C350.517 259.567 360.732 259.206 360.815 263.984C360.907 269.241 354.014 273.207 347.957 272.74C345.264 272.532 341.609 271.214 339.927 269.426Z" fill="white"/>
<path d="M51.2695 273.773C55.5307 269.392 49.1229 265.538 45.1911 264.71C41.5108 263.438 30.6378 263.208 30.4747 267.983C30.2951 273.238 37.1212 277.319 43.1851 276.953C45.8808 276.79 49.5575 275.533 51.2695 273.773Z" fill="white"/>
<path d="M52.7282 353.893C52.7282 330.187 52.2939 304.56 52.408 280.855C52.9605 279.198 56.3251 278.36 58.0976 278.295C60.3449 278.211 62.2678 277.014 64.5693 277.014C67.5143 277.014 70.517 276.539 73.4413 276.232C77.1279 275.846 80.8896 275.724 84.5535 275.201C91.887 274.153 99.0906 273.647 106.493 273.245C115.651 272.749 124.685 271.336 133.874 271.254C144.51 271.159 155.122 270.614 165.77 270.614H305.553C315.861 270.614 326.579 271.157 336.667 273.494C338.983 274.031 338.516 274.915 338.516 277.014C338.516 279.573 338.054 282.217 337.805 284.766C337.377 289.159 337.765 293.571 337.236 297.959C336.346 305.346 335.064 312.726 334.996 320.183C334.928 327.661 334.996 335.143 334.996 342.621C334.996 347.92 335.731 353.947 334.285 359.12C333.932 360.382 331.776 359.903 330.693 359.903H64.3204C63.0655 359.903 52.8513 360.792 52.7282 359.191C52.5939 357.447 52.7282 355.644 52.7282 353.893Z" stroke="black" stroke-width="2" stroke-linecap="round"/>
<path d="M339.927 269.426C335.739 264.974 342.871 261.54 346.816 260.778C350.517 259.567 360.732 259.206 360.815 263.984C360.907 269.241 354.014 273.207 347.957 272.74C345.264 272.532 341.609 271.214 339.927 269.426Z" stroke="black" stroke-width="2" stroke-linecap="round"/>
<path d="M51.2695 273.773C55.5307 269.392 49.1229 265.538 45.1911 264.71C41.5108 263.438 30.6378 263.208 30.4747 267.983C30.2951 273.238 37.1212 277.319 43.1851 276.953C45.8808 276.79 49.5575 275.533 51.2695 273.773Z" stroke="black" stroke-width="2" stroke-linecap="round"/>
<path d="M310.239 337.61C310.147 341.498 309.938 345.386 309.938 349.273C309.938 349.765 309.909 350.247 310.048 350.724C310.089 350.865 310.137 351.008 310.151 351.156C310.16 351.261 310.239 351.346 310.239 351.438C310.239 352.533 312.43 352.592 313.08 352.613C315.449 352.691 317.831 352.618 320.201 352.618C321.862 352.618 323.524 352.618 325.185 352.618C325.596 352.618 325.597 351.962 325.663 351.691C325.846 350.938 326.018 350.162 326.145 349.398C326.246 348.794 326.356 348.191 326.451 347.587C326.603 346.617 326.818 345.633 326.89 344.653C326.978 343.468 327.172 342.306 327.301 341.127C327.351 340.673 327.311 340.193 327.311 339.736C327.311 339.136 327.311 338.536 327.311 337.935C327.311 337.627 327.369 337.25 327.301 336.946C327.239 336.664 326.883 336.617 326.628 336.578C325.324 336.378 324.026 336.406 322.7 336.406C319.041 336.406 315.382 336.406 311.723 336.406C311.369 336.406 311.062 336.535 310.712 336.535C310.59 336.535 310.422 336.547 310.306 336.581C310.259 336.594 310.215 336.718 310.153 336.75C310.002 336.83 310.024 336.842 310.024 337.032C310.024 337.21 310.024 337.389 310.024 337.567" stroke="#FF0000" stroke-width="2" stroke-linecap="round"/>
<path d="M312.354 339.285C312.622 339.502 312.917 339.709 313.138 339.976C313.179 340.026 313.22 340.072 313.271 340.113" stroke="#FF0000" stroke-width="2" stroke-linecap="round"/>
<path d="M310.669 342.862C311.138 342.492 311.654 342.187 312.163 341.874C313.01 341.353 313.82 340.772 314.67 340.256C315.032 340.037 315.416 339.847 315.759 339.598C315.864 339.523 315.967 339.448 316.08 339.385C316.114 339.366 316.131 339.359 316.153 339.329" stroke="#FF0000" stroke-width="2" stroke-linecap="round"/>
<path d="M312.384 342.064C312.395 342.524 312.492 343.085 312.84 343.421C312.972 343.548 313.143 343.674 313.309 343.754C313.473 343.834 313.674 343.827 313.852 343.822C313.988 343.819 314.08 343.77 314.196 343.705C314.337 343.626 314.483 343.554 314.629 343.485C314.84 343.384 315.063 343.365 315.26 343.232C315.403 343.135 315.597 342.959 315.618 342.777C315.645 342.543 315.642 342.271 315.533 342.057C315.455 341.905 315.385 341.753 315.288 341.609C315.206 341.487 315.117 341.367 315.03 341.251" stroke="#FF0000" stroke-width="2" stroke-linecap="round"/>
<path d="M311.911 347.948C312.08 347.839 312.277 347.751 312.461 347.672C313.043 347.422 313.639 347.206 314.224 346.963C314.786 346.73 315.303 346.44 315.828 346.135C316.336 345.84 316.855 345.567 317.371 345.287C317.573 345.177 317.764 345.057 317.952 344.925C318.171 344.773 318.413 344.648 318.649 344.524C318.886 344.398 319.12 344.268 319.349 344.129C319.46 344.061 319.568 343.992 319.687 343.941" stroke="#FF0000" stroke-width="2" stroke-linecap="round"/>
<path d="M316.567 349.056C316.625 348.916 316.727 348.833 316.856 348.755C317.116 348.599 317.408 348.482 317.691 348.378C317.953 348.281 318.217 348.19 318.484 348.11C318.587 348.079 318.72 348.06 318.811 348C318.891 347.947 318.894 348.124 318.906 348.176C318.951 348.363 318.983 348.553 319.021 348.742C319.051 348.887 319.111 349.018 319.148 349.16C319.178 349.275 319.195 349.385 319.234 349.498C319.261 349.575 319.238 349.669 319.251 349.749C319.268 349.861 319.266 349.969 319.302 350.076" stroke="#FF0000" stroke-width="2" stroke-linecap="round"/>
<path d="M318.962 347.504C319.058 347.37 319.251 347.287 319.389 347.207C319.662 347.049 319.94 346.897 320.224 346.76C320.629 346.564 321.064 346.405 321.487 346.251C321.707 346.171 322.032 346.025 322.223 346.237C322.349 346.377 322.467 346.532 322.553 346.701C322.629 346.85 322.66 347.016 322.703 347.177C322.771 347.437 322.791 347.686 322.791 347.954C322.791 348.159 322.791 348.364 322.791 348.568" stroke="#FF0000" stroke-width="2" stroke-linecap="round"/>
<path d="M321.49 339.994C321.665 340.293 321.858 340.581 322.062 340.861C322.203 341.056 322.363 341.234 322.514 341.422C322.727 341.687 322.914 341.973 323.116 342.247C323.546 342.827 323.952 343.422 324.366 344.013C324.688 344.472 325.049 344.901 325.365 345.363C325.542 345.621 325.709 345.876 325.901 346.123C326.033 346.292 326.117 346.492 326.255 346.656C326.306 346.717 326.345 346.777 326.383 346.845C326.399 346.872 326.416 346.914 326.443 346.927" stroke="#FF0000" stroke-width="2" stroke-linecap="round"/>
<path d="M132.633 295.32H133.273C133.982 295.32 134.336 296.745 134.336 299.594H134.555L136.688 299.375L136.477 296.812C136.477 296.589 136.76 296.305 137.328 295.961H137.969C138.505 295.961 138.932 298.951 139.25 304.93C138.786 305.216 138.359 305.359 137.969 305.359C137.26 305.359 136.906 304.078 136.906 301.516H136.688C135.427 301.656 134.643 301.727 134.336 301.727V301.945C134.336 302.289 134.479 303.284 134.766 304.93H134.555L134.766 305.359C134.766 305.583 134.482 305.87 133.914 306.219H133.055C132.341 306.219 131.984 302.87 131.984 296.172C132.198 295.604 132.414 295.32 132.633 295.32ZM125.367 295.531H125.578C125.578 295.755 125.721 296.039 126.008 296.383V296.602L125.578 298.094C128 299.807 129.211 301.018 129.211 301.727C128.997 302.299 128.784 302.586 128.57 302.586H127.711C126.435 301.477 125.44 300.693 124.727 300.234C124.503 302.083 123.859 303.008 122.797 303.008H122.586C122.263 303.008 122.049 302.654 121.945 301.945C122.914 297.669 124.055 295.531 125.367 295.531ZM149.75 293.609H149.961L151.031 293.828C151.031 296.245 151.385 297.453 152.094 297.453L152.523 297.242C154.091 297.607 154.875 298.034 154.875 298.523V298.734C154.542 299.354 154.185 299.711 153.805 299.805C154.372 300.883 154.656 301.596 154.656 301.945C154.333 304.081 153.339 305.148 151.672 305.148H151.242C149.247 305.148 148.25 303.938 148.25 301.516C148.25 300.802 148.464 300.445 148.891 300.445V300.023L147.828 300.234H147.188C147.188 300.01 147.044 299.724 146.758 299.375V299.164C147.086 298.169 147.94 297.672 149.32 297.672C149.034 297.057 148.891 295.917 148.891 294.25L149.75 293.609ZM161.703 296.172C162.844 296.172 163.414 297.383 163.414 299.805C163.602 299.805 163.815 301.086 164.055 303.648C164.055 304.93 163.557 305.57 162.562 305.57H162.344C161.917 305.57 161.633 304.432 161.492 302.156L160 302.367V304.93C160 305.695 159.714 306.195 159.141 306.43H158.93C158.076 306.43 157.648 305.93 157.648 304.93H157.859L157.648 304.508C157.648 302.956 157.365 300.604 156.797 297.453C156.995 296.745 157.492 296.391 158.289 296.391H158.5C158.5 296.604 158.714 296.888 159.141 297.242C159.141 297.383 159.07 297.453 158.93 297.453C159.357 298.49 159.57 299.346 159.57 300.023H160C160.385 300.023 160.812 299.88 161.281 299.594C160.995 298.953 160.852 298.026 160.852 296.812V296.602C161.076 296.602 161.359 296.458 161.703 296.172ZM150.812 300.875L150.602 301.305L150.812 302.797H151.242L152.312 302.586V301.945C152.229 301.602 151.729 301.245 150.812 300.875ZM166.43 292.102C167.284 292.102 167.711 293.74 167.711 297.016C169.549 297.302 170.763 297.445 171.352 297.445L173.484 297.234V297.445L173.914 297.234H174.344C174.562 297.234 174.846 297.518 175.195 298.086V299.156C175.195 299.359 174.982 299.573 174.555 299.797H172.633C172.154 299.797 171.797 299.867 171.562 300.008C167.427 300.008 165.359 298.727 165.359 296.164V295.734H165.578L165.359 295.305V292.742C165.359 292.414 165.716 292.201 166.43 292.102ZM165.789 301.508H166.43C166.576 301.508 166.648 301.578 166.648 301.719L167.07 301.508H167.289C167.43 301.508 167.5 301.578 167.5 301.719C167.641 301.719 167.711 301.648 167.711 301.508L168.781 301.719C168.932 301.719 169.146 301.648 169.422 301.508L169.852 301.719C170.138 301.719 170.281 301.648 170.281 301.508L172.414 301.719H174.766C175.115 302.005 175.401 302.148 175.625 302.148V303.43C175.625 303.82 174.771 304.107 173.062 304.289L171.992 304.07H166.648C165.878 304.07 165.378 303.786 165.148 303.219V302.359C165.576 302.005 165.789 301.721 165.789 301.508ZM167.93 305.141C168.591 305.141 169.018 306.211 169.211 308.352C170.883 308.492 172.094 308.562 172.844 308.562H174.344L174.555 309.414C174.555 310.555 173.984 311.125 172.844 311.125C168.995 311.125 167.07 310.414 167.07 308.992C166.93 308.461 166.859 307.818 166.859 307.062V306.211C166.859 306.018 167.216 305.661 167.93 305.141ZM186.766 289.961C187.906 289.961 188.477 291.031 188.477 293.172C188.622 293.172 188.695 293.242 188.695 293.383C190.117 293.242 191.185 293.172 191.898 293.172H192.539L192.75 294.234V295.094C191.896 295.198 191.469 295.341 191.469 295.523C191.755 296.445 191.898 297.086 191.898 297.445V297.656C191.898 298.943 190.831 299.799 188.695 300.227C186.555 299.695 185.484 298.625 185.484 297.016V296.586L185.695 296.164C183.987 296.164 183.133 295.664 183.133 294.664V294.023C183.357 294.023 183.641 293.88 183.984 293.594H186.336L185.914 291.031C186.19 290.38 186.474 290.023 186.766 289.961ZM187.625 296.805V297.016C187.625 297.219 187.839 297.432 188.266 297.656H189.117C189.404 297.656 189.547 297.516 189.547 297.234C189.547 296.948 189.404 296.805 189.117 296.805H187.625ZM192.75 300.438C193.464 300.438 193.82 301.151 193.82 302.578H193.609C193.37 302.859 190.805 303.214 185.914 303.641C185.201 303.359 184.844 302.932 184.844 302.359C184.844 301.365 186.198 300.867 188.906 300.867V301.078L192.75 300.438ZM192.328 304.07C193.323 304.07 193.82 305.354 193.82 307.922C193.638 308.635 193.424 308.992 193.18 308.992H191.898L191.469 307.492V306.422C189.062 306.849 187.638 307.062 187.195 307.062L186.336 305.57C186.622 305.57 186.909 305.284 187.195 304.711C189.456 304.284 191.167 304.07 192.328 304.07ZM199.617 294.039H202.18C202.18 294.32 202.323 294.461 202.609 294.461V295.102C202.609 296.102 201.612 296.602 199.617 296.602H198.547V296.383C198.365 296.529 197.867 296.602 197.055 296.602C197.195 296.836 197.266 297.193 197.266 297.672C197.88 297.385 199.018 297.242 200.68 297.242H202.391C202.599 297.242 202.812 297.456 203.031 297.883V298.734C203.026 298.932 202.672 299.219 201.969 299.594H199.828L197.695 299.805V301.086C198.122 301.086 198.62 301.156 199.188 301.297C199.677 301.297 200.888 301.156 202.82 300.875L203.25 301.516C203.25 302.797 202.609 303.438 201.328 303.438H196.625C196.042 303.438 195.471 300.802 194.914 295.531C194.914 294.646 196.482 294.148 199.617 294.039ZM200.68 304.508H200.898C201.185 304.508 201.398 305.292 201.539 306.859H201.328C201.469 307.135 201.539 307.349 201.539 307.5H205.812C206.016 307.5 206.229 307.714 206.453 308.141C206.453 309.135 205.599 309.633 203.891 309.633C203.677 309.779 203.25 309.852 202.609 309.852V309.633L202.18 309.852H201.969C201.823 309.852 201.75 309.779 201.75 309.633C201.021 309.919 199.383 310.062 196.836 310.062C196.549 309.594 196.406 309.167 196.406 308.781C196.406 308.068 197.263 307.711 198.977 307.711H199.398V307.281C199.398 306.964 199.328 306.68 199.188 306.43C199.188 305.148 199.685 304.508 200.68 304.508ZM222.734 295.523H223.375C223.375 295.742 223.518 296.026 223.805 296.375V298.938C223.805 299.589 224.018 301.156 224.445 303.641C224.169 304.292 223.883 304.648 223.586 304.711H223.164C222.555 304.711 222.055 302.716 221.664 298.727H221.883L221.664 298.297C221.81 296.448 222.167 295.523 222.734 295.523ZM211.617 295.945C213.185 296.049 213.969 296.477 213.969 297.227C214.182 297.086 215.109 296.945 216.75 296.805C217.891 297.909 218.461 299.62 218.461 301.938V302.359C218.461 303.099 218.247 303.526 217.82 303.641H216.961C216.534 303.641 216.25 302.216 216.109 299.367H214.82C214.617 299.367 214.404 299.581 214.18 300.008V300.227C214.18 300.971 214.253 302.182 214.398 303.859L213.539 304.5H213.117C212.544 304.5 212.188 303.503 212.047 301.508L212.258 300.227V298.727C212.258 298.44 212.044 298.297 211.617 298.297C211.305 298.297 210.234 298.44 208.406 298.727C207.839 298.586 207.555 298.159 207.555 297.445C207.555 296.445 208.766 295.945 211.188 295.945H211.617ZM228.32 293.398C231.023 293.398 232.375 294.893 232.375 297.883C232.375 299.273 231.378 300.198 229.383 300.656C227.451 300.656 226.169 299.305 225.539 296.602C225.539 295.185 226.253 294.188 227.68 293.609C228.107 293.609 228.32 293.539 228.32 293.398ZM227.68 296.383C227.992 297.273 228.56 297.987 229.383 298.523C229.956 298.31 230.242 298.096 230.242 297.883V297.453C230.242 296.365 229.956 295.724 229.383 295.531H228.32C227.961 295.531 227.747 295.815 227.68 296.383ZM237.508 295.742H237.719C238.115 295.742 238.471 297.096 238.789 299.805H238.57C239.143 303.549 239.43 305.688 239.43 306.219C238.878 306.646 238.451 306.859 238.148 306.859C237.294 306.859 236.867 305.362 236.867 302.367C236.581 299.451 236.294 297.669 236.008 297.023C236.008 296.169 236.508 295.742 237.508 295.742ZM230.242 303.008L230.664 303.227L231.523 303.008C233.372 303.117 234.297 303.26 234.297 303.438L234.516 304.289C234.516 304.862 234.016 305.292 233.016 305.578L230.883 305.359H229.172L227.68 305.578C227.68 305.432 227.607 305.359 227.461 305.359C227.461 305.505 227.391 305.578 227.25 305.578C227.25 305.292 226.823 305.005 225.969 304.719V303.867C225.969 303.659 226.182 303.445 226.609 303.227H228.961L230.242 303.008ZM249.922 293.609H250.133L251.203 293.828C251.203 296.245 251.557 297.453 252.266 297.453L252.695 297.242C254.263 297.607 255.047 298.034 255.047 298.523V298.734C254.714 299.354 254.357 299.711 253.977 299.805C254.544 300.883 254.828 301.596 254.828 301.945C254.505 304.081 253.51 305.148 251.844 305.148H251.414C249.419 305.148 248.422 303.938 248.422 301.516C248.422 300.802 248.635 300.445 249.062 300.445V300.023L248 300.234H247.359C247.359 300.01 247.216 299.724 246.93 299.375V299.164C247.258 298.169 248.112 297.672 249.492 297.672C249.206 297.057 249.062 295.917 249.062 294.25L249.922 293.609ZM261.875 296.172C263.016 296.172 263.586 297.383 263.586 299.805C263.773 299.805 263.987 301.086 264.227 303.648C264.227 304.93 263.729 305.57 262.734 305.57H262.516C262.089 305.57 261.805 304.432 261.664 302.156L260.172 302.367V304.93C260.172 305.695 259.885 306.195 259.312 306.43H259.102C258.247 306.43 257.82 305.93 257.82 304.93H258.031L257.82 304.508C257.82 302.956 257.536 300.604 256.969 297.453C257.167 296.745 257.664 296.391 258.461 296.391H258.672C258.672 296.604 258.885 296.888 259.312 297.242C259.312 297.383 259.242 297.453 259.102 297.453C259.529 298.49 259.742 299.346 259.742 300.023H260.172C260.557 300.023 260.984 299.88 261.453 299.594C261.167 298.953 261.023 298.026 261.023 296.812V296.602C261.247 296.602 261.531 296.458 261.875 296.172ZM250.984 300.875L250.773 301.305L250.984 302.797H251.414L252.484 302.586V301.945C252.401 301.602 251.901 301.245 250.984 300.875ZM265.961 292.953H266.602C266.888 293.245 267.174 295.81 267.461 300.648L266.602 301.289H266.391C266.016 301.289 265.729 300.719 265.531 299.578V297.445L265.32 296.156C265.32 296.016 265.391 295.945 265.531 295.945L265.32 294.875V293.594C265.32 293.385 265.534 293.172 265.961 292.953ZM267.242 302.789C267.674 303.612 267.891 304.112 267.891 304.289C267.677 304.857 267.461 305.141 267.242 305.141C266.388 305.141 265.961 304.714 265.961 303.859C266.049 303.432 266.477 303.076 267.242 302.789ZM89.4531 316.961C90.5938 316.961 91.1641 318.031 91.1641 320.172C91.3099 320.172 91.3828 320.242 91.3828 320.383C92.8047 320.242 93.8724 320.172 94.5859 320.172H95.2266L95.4375 321.234V322.094C94.5833 322.198 94.1562 322.341 94.1562 322.523C94.4427 323.445 94.5859 324.086 94.5859 324.445V324.656C94.5859 325.943 93.5182 326.799 91.3828 327.227C89.2422 326.695 88.1719 325.625 88.1719 324.016V323.586L88.3828 323.164C86.6745 323.164 85.8203 322.664 85.8203 321.664V321.023C86.0443 321.023 86.3281 320.88 86.6719 320.594H89.0234L88.6016 318.031C88.8776 317.38 89.1615 317.023 89.4531 316.961ZM90.3125 323.805V324.016C90.3125 324.219 90.526 324.432 90.9531 324.656H91.8047C92.0911 324.656 92.2344 324.516 92.2344 324.234C92.2344 323.948 92.0911 323.805 91.8047 323.805H90.3125ZM95.4375 327.438C96.151 327.438 96.5078 328.151 96.5078 329.578H96.2969C96.0573 329.859 93.4922 330.214 88.6016 330.641C87.888 330.359 87.5312 329.932 87.5312 329.359C87.5312 328.365 88.8854 327.867 91.5938 327.867V328.078L95.4375 327.438ZM95.0156 331.07C96.0104 331.07 96.5078 332.354 96.5078 334.922C96.3255 335.635 96.112 335.992 95.8672 335.992H94.5859L94.1562 334.492V333.422C91.75 333.849 90.3255 334.062 89.8828 334.062L89.0234 332.57C89.3099 332.57 89.5964 332.284 89.8828 331.711C92.1432 331.284 93.8542 331.07 95.0156 331.07ZM112.781 322.523H113.422C113.422 322.742 113.565 323.026 113.852 323.375V325.938C113.852 326.589 114.065 328.156 114.492 330.641C114.216 331.292 113.93 331.648 113.633 331.711H113.211C112.602 331.711 112.102 329.716 111.711 325.727H111.93L111.711 325.297C111.857 323.448 112.214 322.523 112.781 322.523ZM101.664 322.945C103.232 323.049 104.016 323.477 104.016 324.227C104.229 324.086 105.156 323.945 106.797 323.805C107.938 324.909 108.508 326.62 108.508 328.938V329.359C108.508 330.099 108.294 330.526 107.867 330.641H107.008C106.581 330.641 106.297 329.216 106.156 326.367H104.867C104.664 326.367 104.451 326.581 104.227 327.008V327.227C104.227 327.971 104.299 329.182 104.445 330.859L103.586 331.5H103.164C102.591 331.5 102.234 330.503 102.094 328.508L102.305 327.227V325.727C102.305 325.44 102.091 325.297 101.664 325.297C101.352 325.297 100.281 325.44 98.4531 325.727C97.8854 325.586 97.6016 325.159 97.6016 324.445C97.6016 323.445 98.8125 322.945 101.234 322.945H101.664ZM127.555 321.039H128.406C128.932 321.039 129.289 322.677 129.477 325.953C129.669 325.953 130.453 325.81 131.828 325.523C132.474 325.799 132.828 326.083 132.891 326.375V327.016C132.891 327.729 131.823 328.086 129.688 328.086V328.305C129.688 329.081 129.831 330.789 130.117 333.43C129.841 334.081 129.555 334.438 129.258 334.5H128.617C127.914 334.5 127.487 332.148 127.336 327.445C127.159 327.445 127.018 325.451 126.914 321.461L127.555 321.039ZM121.141 323.812C121.995 323.812 122.422 324.312 122.422 325.312V330.438C122.422 330.641 122.208 330.854 121.781 331.078H120.93C120.721 331.078 120.508 330.865 120.289 330.438V326.164C118.008 326.305 116.797 326.448 116.656 326.594C116.005 326.318 115.648 326.031 115.586 325.734V324.883C115.586 324.383 117.438 324.026 121.141 323.812ZM140.828 322.094C141.073 322.094 141.5 322.237 142.109 322.523C142.234 322.523 142.805 322.451 143.82 322.305C147.096 322.305 148.734 323.089 148.734 324.656C148.734 325.245 148.807 325.815 148.953 326.367C148.953 329.789 148.169 331.5 146.602 331.5H145.312C142.604 331.5 141.25 330.646 141.25 328.938C140.682 325.979 140.398 324.055 140.398 323.164C140.685 322.701 140.828 322.344 140.828 322.094ZM151.945 322.094H152.797C152.797 322.307 153.01 322.591 153.438 322.945V326.586C155.865 326.815 157.078 327.242 157.078 327.867V328.508C157.078 328.711 156.862 328.924 156.43 329.148C155.221 329.148 154.297 329.005 153.656 328.719C153.656 328.865 153.583 328.938 153.438 328.938L153.656 329.359V331.289C153.656 331.43 153.583 331.5 153.438 331.5L153.656 331.93V332.57C153.656 332.763 153.299 333.12 152.586 333.641C151.732 333.344 151.305 332.773 151.305 331.93V323.375C151.393 322.521 151.607 322.094 151.945 322.094ZM142.75 324.656C143.094 327.651 143.451 329.148 143.82 329.148C145.081 329.289 145.865 329.359 146.172 329.359C146.458 328.802 146.602 328.018 146.602 327.008V326.797L146.383 324.656C146.242 324.656 146.172 324.729 146.172 324.875L145.102 324.656H142.75ZM159.68 318.883H159.891C160.031 321.31 160.245 322.523 160.531 322.523C160.974 322.523 162.328 322.451 164.594 322.305V320.812L165.023 319.312C165.878 319.312 166.305 319.74 166.305 320.594V322.305H166.516C168.281 322.164 169.208 322.094 169.297 322.094V320.383C169.297 320.18 169.51 319.966 169.938 319.742H171.008C171.294 320.878 171.438 322.232 171.438 323.805V327.867C171.438 328.862 170.938 329.359 169.938 329.359C169.792 329.359 169.508 329.076 169.086 328.508L169.297 326.367V324.445L169.086 324.016C167.091 324.344 166.094 324.557 166.094 324.656C165.276 327.224 163.992 328.508 162.242 328.508L161.812 328.289L161.383 328.508C159.388 328.013 158.391 327.016 158.391 325.516C158.25 324.146 158.18 322.648 158.18 321.023V320.383C158.18 319.383 158.68 318.883 159.68 318.883ZM160.531 324.445C160.531 324.586 160.461 324.656 160.32 324.656C160.576 325.797 161.146 326.367 162.031 326.367C163.146 326.044 163.857 325.547 164.164 324.875V324.445H163.523C163.013 324.445 162.372 324.516 161.602 324.656C161.367 324.516 161.01 324.445 160.531 324.445ZM167.586 329.359H168.445C168.815 329.359 169.099 329.859 169.297 330.859C168.943 335.703 168.016 338.125 166.516 338.125H164.383C162.732 338.125 161.661 335.703 161.172 330.859C161.172 330.286 161.458 329.859 162.031 329.578H162.672C163.099 329.578 163.456 330.646 163.742 332.781H167.156C167.156 332.349 167.229 331.852 167.375 331.289V330C167.516 330 167.586 329.786 167.586 329.359ZM164.164 334.703V335.133C164.164 335.357 164.451 335.643 165.023 335.992H166.094C166.521 335.846 166.734 335.417 166.734 334.703L166.305 334.922H164.594L164.164 334.703ZM175.32 320.398C178.023 320.398 179.375 321.893 179.375 324.883C179.375 326.273 178.378 327.198 176.383 327.656C174.451 327.656 173.169 326.305 172.539 323.602C172.539 322.185 173.253 321.188 174.68 320.609C175.107 320.609 175.32 320.539 175.32 320.398ZM174.68 323.383C174.992 324.273 175.56 324.987 176.383 325.523C176.956 325.31 177.242 325.096 177.242 324.883V324.453C177.242 323.365 176.956 322.724 176.383 322.531H175.32C174.961 322.531 174.747 322.815 174.68 323.383ZM184.508 322.742H184.719C185.115 322.742 185.471 324.096 185.789 326.805H185.57C186.143 330.549 186.43 332.688 186.43 333.219C185.878 333.646 185.451 333.859 185.148 333.859C184.294 333.859 183.867 332.362 183.867 329.367C183.581 326.451 183.294 324.669 183.008 324.023C183.008 323.169 183.508 322.742 184.508 322.742ZM177.242 330.008L177.664 330.227L178.523 330.008C180.372 330.117 181.297 330.26 181.297 330.438L181.516 331.289C181.516 331.862 181.016 332.292 180.016 332.578L177.883 332.359H176.172L174.68 332.578C174.68 332.432 174.607 332.359 174.461 332.359C174.461 332.505 174.391 332.578 174.25 332.578C174.25 332.292 173.823 332.005 172.969 331.719V330.867C172.969 330.659 173.182 330.445 173.609 330.227H175.961L177.242 330.008ZM197.562 319.734V319.953L197.992 319.734H198.211C199.008 319.734 199.505 320.091 199.703 320.805C199.531 321.805 199.174 322.305 198.633 322.305L197.141 322.086C196.891 322.232 196.604 322.305 196.281 322.305V322.727C196.281 323.872 196.708 324.445 197.562 324.445C198.521 324.445 199.307 324.659 199.922 325.086L199.703 323.156C199.703 321.516 200.417 320.589 201.844 320.375H203.125C203.271 320.375 203.344 320.448 203.344 320.594L203.773 320.375H204.836C205.044 320.375 205.26 320.589 205.484 321.016V321.445C205.484 322.445 204.914 322.945 203.773 322.945C202.753 322.799 202.182 322.727 202.062 322.727V324.016C202.062 324.87 202.703 325.297 203.984 325.297C204.188 325.297 204.401 325.51 204.625 325.938V326.156C204.625 326.922 204.341 327.419 203.773 327.648H202.273C201.096 327.648 200.312 326.865 199.922 325.297H199.703C199.703 326.438 199.49 327.008 199.062 327.008H198.422C195.427 327.008 193.93 325.797 193.93 323.375V322.086C193.93 321.747 194.143 321.107 194.57 320.164L195 320.375V319.953H196.5L197.562 319.734ZM209.547 320.375H209.758C209.982 320.375 210.268 320.661 210.617 321.234C210.758 324.036 210.828 325.891 210.828 326.797H210.617C210.617 326.938 210.688 327.008 210.828 327.008C210.828 327.383 210.615 328.167 210.188 329.359H209.117C208.893 329.359 208.609 329.076 208.266 328.508C208.266 328.185 208.336 327.898 208.477 327.648L208.266 327.219C208.406 326.448 208.477 325.807 208.477 325.297H205.695C205.471 325.297 205.185 325.013 204.836 324.445V324.227C204.93 323.372 205.146 322.945 205.484 322.945H206.555C206.695 322.945 206.766 323.016 206.766 323.156L207.195 322.945H208.266C208.266 322.659 208.336 322.516 208.477 322.516L208.266 322.086V321.664C208.266 320.805 208.693 320.375 209.547 320.375ZM202.273 330.648L207.195 331.289C207.909 331.82 208.266 332.674 208.266 333.852C208.266 336.107 207.695 337.32 206.555 337.492C205.841 337.294 205.484 336.794 205.484 335.992V335.781C205.484 335.646 205.625 335.076 205.906 334.07V333.43H205.695L202.703 333.211L202.273 333.43C201.419 333.06 200.992 332.56 200.992 331.93C201.133 331.654 201.203 331.44 201.203 331.289C201.062 331.289 200.992 331.216 200.992 331.07C201.846 330.971 202.273 330.831 202.273 330.648ZM215.992 317.617C218.268 318.482 219.406 319.763 219.406 321.461C218.87 323.456 217.945 324.453 216.633 324.453C213.784 324.12 212.359 322.695 212.359 320.18C212.359 318.857 213.57 318.003 215.992 317.617ZM214.711 320.18V320.609C214.852 321.75 215.492 322.32 216.633 322.32C216.914 321.852 217.055 321.424 217.055 321.039C216.826 320.326 216.398 319.969 215.773 319.969L214.711 320.18ZM212.781 325.734H220.266C220.469 325.734 220.682 325.948 220.906 326.375V327.234C220.906 327.438 220.549 327.721 219.836 328.086C219.055 327.945 218.484 327.875 218.125 327.875C217.193 327.875 215.982 327.945 214.492 328.086L211.93 327.656V327.445C211.93 327.305 212 327.234 212.141 327.234L211.93 326.805V326.164C212.154 326.164 212.438 326.021 212.781 325.734ZM215.133 330.008L216.203 330.227H219.195C219.909 330.565 220.266 331.846 220.266 334.07C220.266 335.065 219.552 335.562 218.125 335.562V335.352C217.828 335.492 217.044 335.635 215.773 335.781V335.992C215.773 336.195 215.987 336.409 216.414 336.633C216.94 336.633 217.938 336.49 219.406 336.203C219.979 336.349 220.266 336.779 220.266 337.492C219.979 338.346 219.195 338.773 217.914 338.773H216.633C214.492 338.773 213.422 337.703 213.422 335.562C213.422 334.448 214.562 333.737 216.844 333.43H217.914V332.578C214.352 332.578 212.57 332.292 212.57 331.719L212.359 330.867C212.885 330.477 213.81 330.19 215.133 330.008ZM234.828 319.523C236.964 319.523 238.031 320.451 238.031 322.305V322.523C238.031 326.799 237.177 328.938 235.469 328.938C234.88 328.938 234.31 329.008 233.758 329.148C233.508 329.008 233.224 328.938 232.906 328.938C232.63 329.078 232.417 329.148 232.266 329.148V328.938L231.836 329.148H230.977C230.096 329.148 229.242 326.37 228.414 320.812C228.414 319.953 229.839 319.523 232.688 319.523H234.828ZM241.883 320.172H242.312C243.026 320.536 243.383 321.104 243.383 321.875C243.383 322.031 243.31 322.247 243.164 322.523L243.383 323.805V324.227H245.516C245.812 324.289 246.099 324.646 246.375 325.297C246.089 325.76 245.945 326.117 245.945 326.367H245.305L243.805 326.586C243.805 326.44 243.734 326.367 243.594 326.367V328.078C243.594 329.786 243.31 330.641 242.742 330.641H241.672C241.672 330.422 241.529 330.138 241.242 329.789V324.875L241.031 323.805H241.242L241.031 323.375V321.664C241.031 320.898 241.315 320.401 241.883 320.172ZM230.766 322.094C231.479 324.865 231.836 326.432 231.836 326.797H232.688C234.542 326.797 235.469 326.51 235.469 325.938C235.609 325.167 235.68 324.526 235.68 324.016V321.875H231.836L230.766 322.094ZM235.898 331.5H236.539C236.966 332.094 237.464 333.305 238.031 335.133C239.318 334.846 240.531 334.703 241.672 334.703L242.094 335.352V336.203C242.094 336.745 240.74 337.172 238.031 337.484C236.531 337.484 235.534 336.13 235.039 333.422C235.216 332.141 235.503 331.5 235.898 331.5ZM253.25 319.312C253.818 319.453 254.315 319.523 254.742 319.523C255.018 319.383 255.234 319.312 255.391 319.312C255.391 319.536 255.531 319.823 255.812 320.172V321.234C255.812 321.521 255.102 321.734 253.68 321.875L253.25 321.664C253.099 321.664 252.885 321.734 252.609 321.875L251.75 321.664C250.469 321.779 249.828 321.992 249.828 322.305V323.164C249.828 323.414 250.469 323.698 251.75 324.016C251.896 324.016 251.969 323.945 251.969 323.805L253.039 324.016L255.172 323.805L255.812 324.656V325.727C255.484 325.727 255.057 325.94 254.531 326.367L253.461 326.156H251.75C249.188 326.156 247.906 325.086 247.906 322.945V321.664H247.477C247.477 321.523 247.547 321.453 247.688 321.453L247.477 321.023C247.477 320.258 247.76 319.758 248.328 319.523H248.547C248.688 319.523 248.758 319.596 248.758 319.742L249.188 319.523H251.109C251.786 319.523 252.5 319.453 253.25 319.312ZM248.117 327.008L250.258 327.227H256.031C256.458 327.367 256.672 327.794 256.672 328.508V329.148C256.672 329.435 256.529 329.578 256.242 329.578H254.32C253.893 329.578 253.68 329.648 253.68 329.789L252.609 329.578H251.109C250.396 329.578 249.328 329.505 247.906 329.359C247.906 329.078 247.763 328.938 247.477 328.938V328.289C247.477 327.773 247.69 327.346 248.117 327.008ZM248.977 330.43H253.891C255.031 330.43 255.602 331.286 255.602 333C255.602 334.177 254.104 334.961 251.109 335.352C251.109 335.633 251.323 335.773 251.75 335.773C251.896 335.773 251.969 335.703 251.969 335.562L253.039 335.773C254.128 335.773 255.409 335.633 256.883 335.352L257.094 335.773V336.414C257.094 337.555 255.956 338.125 253.68 338.125L253.25 337.914L252.82 338.125L252.391 337.914C252.25 337.914 252.18 337.984 252.18 338.125C249.758 337.797 248.547 336.943 248.547 335.562V335.352C248.547 333.987 249.971 333.13 252.82 332.781V332.57H249.188C248.943 332.57 248.729 332.214 248.547 331.5C248.833 331.036 248.977 330.68 248.977 330.43ZM269.734 322.961C270.448 323.357 270.805 323.927 270.805 324.672C270.805 324.812 270.732 324.883 270.586 324.883C270.732 325.768 270.945 328.404 271.227 332.789C271.086 333.065 271.016 333.279 271.016 333.43H270.375L269.305 333.219C269.164 330.542 269.023 328.904 268.883 328.305H265.461V327.445C265.461 326.591 266.031 326.164 267.172 326.164H268.883L268.664 324.672V324.031C268.664 323.839 269.021 323.482 269.734 322.961ZM260.977 323.602C260.977 323.888 261.758 324.102 263.32 324.242C264.284 325.081 264.927 326.362 265.25 328.086C264.677 329.794 263.82 330.648 262.68 330.648H262.039C259.477 330.112 258.195 328.688 258.195 326.375C258.57 325.115 259.141 324.333 259.906 324.031C260.37 323.745 260.727 323.602 260.977 323.602ZM260.336 326.164V326.594C260.518 327.875 261.159 328.516 262.258 328.516H262.68L263.32 328.086C262.992 326.664 262.281 325.953 261.188 325.953L260.336 326.164ZM278.297 319.547L278.727 320.188V321.68L278.297 322.32V322.75C279.995 323.526 281.135 324.307 281.719 325.094C281.719 325.859 281.362 326.289 280.648 326.383C280.023 326.18 278.956 325.536 277.445 324.453H277.016C276.734 325.453 276.451 325.953 276.164 325.953C276.164 325.807 276.094 325.734 275.953 325.734V325.953C276.094 325.953 276.164 326.023 276.164 326.164H275.094C274.891 326.164 274.677 325.951 274.453 325.523C274.453 325.383 274.526 325.312 274.672 325.312L274.453 324.883C275.594 323.07 276.164 322.003 276.164 321.68H272.961C272.758 321.68 272.544 321.466 272.32 321.039V320.398C272.32 320.044 272.604 319.831 273.172 319.758C273.438 319.758 275.146 319.688 278.297 319.547ZM281.5 327.664C282.151 327.935 282.508 328.219 282.57 328.516C282.57 329.51 281.93 330.008 280.648 330.008V329.797C280.398 329.938 280.115 330.008 279.797 330.008L280.008 331.078V332.57C279.784 332.57 279.5 332.714 279.156 333H278.297C278.297 332.714 278.156 332.57 277.875 332.57V330.008H276.375C276.057 330.008 275.773 330.081 275.523 330.227C274.102 330.049 273.391 329.763 273.391 329.367V329.156C273.391 329.016 273.461 328.945 273.602 328.945L273.391 328.516V328.305L274.883 327.875V328.086C275.159 327.945 275.372 327.875 275.523 327.875C275.81 327.875 275.953 327.945 275.953 328.086C278.573 327.805 280.422 327.664 281.5 327.664ZM274.672 333H275.312C275.786 333 276.214 333.997 276.594 335.992H277.656C278.443 335.992 279.44 335.919 280.648 335.773C280.924 335.919 281.138 335.992 281.289 335.992V336.203L281.078 336.633C281.359 336.633 281.5 336.703 281.5 336.844C281.5 337.516 280.719 337.943 279.156 338.125H277.016C275.229 338.125 274.234 336.844 274.031 334.281C274.219 333.427 274.432 333 274.672 333ZM290.719 321.883C291.005 322.346 291.148 322.773 291.148 323.164V323.586C290.93 324.299 289.148 324.656 285.805 324.656V326.367C285.805 328.789 286.375 330 287.516 330H290.289C290.435 330 290.721 330.286 291.148 330.859C291.148 332 290.721 332.57 289.867 332.57C289.049 332.57 288.549 332.641 288.367 332.781C285.659 332.448 284.305 331.737 284.305 330.648C283.878 329.315 283.664 328.102 283.664 327.008V323.164L284.516 322.094L286.016 322.305C288.734 322.023 290.302 321.883 290.719 321.883ZM296.062 321.883C296.635 322.591 296.922 324.016 296.922 326.156H299.273L300.344 326.367V327.867C300.198 328.294 299.768 328.508 299.055 328.508H296.922V331.93C296.922 332.924 296.422 333.422 295.422 333.422L294.781 332.57V326.586C294.781 325.758 294.711 324.617 294.57 323.164C294.805 322.31 295.302 321.883 296.062 321.883ZM302.086 319.953H302.727C303.013 320.245 303.299 322.81 303.586 327.648L302.727 328.289H302.516C302.141 328.289 301.854 327.719 301.656 326.578V324.445L301.445 323.156C301.445 323.016 301.516 322.945 301.656 322.945L301.445 321.875V320.594C301.445 320.385 301.659 320.172 302.086 319.953ZM303.367 329.789C303.799 330.612 304.016 331.112 304.016 331.289C303.802 331.857 303.586 332.141 303.367 332.141C302.513 332.141 302.086 331.714 302.086 330.859C302.174 330.432 302.602 330.076 303.367 329.789Z" fill="black"/>
</svg>
