<svg width="390" height="348" viewBox="0 0 390 348" fill="none" xmlns="http://www.w3.org/2000/svg">
<path d="M62.5437 263.505C64.33 259.918 67.2521 257.592 71.2482 257.12C72.6371 257.12 74.663 255.694 76 256.06C77.8003 256.552 80.3844 256.575 82 257.56C84.1369 258.864 86 261.37 87.0432 263.881C87.8905 265.92 88.5092 268.291 87.4071 270.393C85.6017 273.837 82.0081 276.05 78.0687 276.05C75.3807 276.05 72.6917 276.073 70.0039 276.05C68.3833 276.036 66.5331 275.974 65.0148 275.362C64.4403 275.131 63.7631 274.66 63.3243 274.236C62.7703 273.7 62.1226 273.184 61.7396 272.514C61.0344 271.279 61 270.198 61 268.827C61 266.944 61.7102 265.179 62.5437 263.505Z" fill="white" stroke="black" stroke-width="2.5" stroke-linecap="round"/>
<path d="M86.0105 317.255C86.0069 317.984 86.7254 318.773 86.1781 319.186C86.0793 319.891 86.0828 321.032 85.792 321.653C85.4263 322.435 84.6972 322.857 84.0068 323.378L79.9142 326.465L77.5023 328.284C76.8718 328.759 76.2324 328.903 75.6 329.305C74.0618 330.283 72.368 330.944 70.5886 331.252C69.6642 331.412 68.1489 328.581 67.6113 327.869C65.4883 325.054 63.0267 322.274 61.8208 318.922C61.1348 317.014 60.3853 315.499 61.1302 313.507C61.5883 312.281 63.7229 311.22 64.7094 310.476C67.2566 308.555 69.7716 306.28 72.5976 304.786C73.6173 304.247 74.8447 304.013 75.7998 303.388C76.389 303.002 77.1695 303.181 77.7581 303.507C78.9925 304.192 80.2032 305.338 81.0457 306.455L83.5811 309.817C84.1167 310.527 85.0265 311.352 85.3378 312.193C85.6757 313.105 85.6548 314.287 85.854 315.245C85.9981 315.938 86.0139 316.553 86.0105 317.255Z" fill="#FFD9D9" stroke="black" stroke-width="2.5" stroke-linecap="round"/>
<path d="M130.273 272.514C130.598 272.878 131.186 273.261 131.376 273.709C130.678 275.082 128.975 278.197 128.069 279.511C127.315 280.603 126.475 281.554 125.832 282.734C125.079 284.117 124.329 285.645 123.747 287.105C123.06 288.831 122.03 290.801 122.03 292.687C122.03 294.544 121.958 296.415 122.038 298.269C122.122 300.222 122.895 302.567 123.779 304.307C124.84 306.395 126.118 308.539 127.781 310.22C128.975 311.426 130.502 312.881 132.238 313.223C133.654 313.502 134.993 313.755 136.44 313.868C141.82 314.287 147.17 313.686 152.376 312.405C155.607 311.61 158.576 310.105 161.163 308.05C162.354 307.104 163.692 305.563 163.855 303.961C164.247 300.099 163.8 296.17 163.04 292.404C162.517 289.812 162.052 287.122 161.027 284.668C160.228 282.755 159.059 281.349 157.576 279.904C154.017 276.435 148.628 273.001 143.438 273.001C143.033 273.001 143.9 272.535 144.029 272.466C145.296 271.788 146.459 270.928 147.519 269.966C148.329 269.231 149.462 268.369 150.036 267.419C150.529 266.602 150.355 265.472 150.355 264.565C150.355 263.153 150.339 260.079 148.766 259.227C147.392 258.483 144.985 259.75 143.917 260.406C141.408 261.948 138.981 264.144 137.159 266.428C137.049 266.567 136.259 267.784 136.049 267.411C135.921 267.185 135.793 266.965 135.657 266.743C134.761 265.273 133.941 263.795 132.606 262.639C132.02 262.131 130.478 260.766 129.57 261.334C129.234 261.544 128.852 261.697 128.532 261.931C127.919 262.38 128.134 263.395 127.757 264.007C127.072 265.12 125.91 266.278 126.567 267.757C126.998 268.727 127.537 269.327 128.292 270.116C129.012 270.867 129.582 271.737 130.273 272.514Z" fill="#FFFF00" stroke="black" stroke-width="2.5" stroke-linecap="round"/>
<path d="M99.5771 61.842C107.364 49.3535 117.61 39.089 132.395 36.0014C133.932 35.2311 135.588 35.1686 137.381 35.1686C139.462 35.1686 141.921 34.2654 143.935 33.5029C145.647 32.8548 146.935 32.7198 146.935 30.7962V27.2568C146.935 24.189 145.689 21.3035 145.689 18.3271C145.689 14.6163 146.056 10.3767 148.459 7.40784C150.487 4.90103 154.313 0.744594 158.152 2.36465C159.237 2.82261 160.195 3.04344 161.267 3.52134C162.55 4.09279 162.886 5.32491 163.968 5.92727C165.876 6.9902 167.901 10.3467 169.16 12.2891C171.451 15.821 173.21 19.8572 175.184 23.5322C175.828 24.7308 176.924 30.1231 178.184 30.1716C180.01 30.242 181.85 30.1716 183.677 30.1716C186.643 30.1716 192.632 31.6817 192.632 27.465C192.632 21.4181 191.462 13.0856 196.786 8.93468C199.101 7.12999 201.016 6.85263 203.848 6.85263C205.966 6.85263 209.587 6.39353 211.534 7.47725C214.773 9.28132 217.461 13.3589 219.011 16.6383C220.356 19.4849 221.689 22.0178 222.773 24.9665C223.668 27.4023 224.499 29.4505 224.942 32.0686C225.256 33.917 226.556 34.2841 228.358 34.3357C232.179 34.4452 236.516 36.0853 239.99 37.7596C245.055 40.2006 250.799 41.5504 255.453 44.8385C262.784 50.0188 269.943 55.312 276.363 61.6338C282.887 68.0591 286.337 75.4952 289.748 83.8886C292.916 91.6815 294.557 100.134 296.903 108.179C297.99 111.908 299.103 115.674 300.019 119.445C300.99 123.447 302.956 127.262 304.057 131.267C305.362 136.012 304.691 142.135 305.5 147C306.482 152.905 304.417 156.014 304.057 162C303.33 174.128 297.071 185.534 291 196C285.065 206.232 278.264 212.613 269.5 220C264.351 224.34 261.611 224.918 255.5 227.5C250.584 229.578 246.374 231.824 241.5 234C237.759 235.671 233.477 236.937 229.5 238C225.976 238.942 220.104 240.112 216.5 239.95C211.816 239.74 208.18 240.533 203.525 239.95C189.201 238.155 171.876 237.915 158 234C146.088 230.64 136.581 223.301 125.933 216.816C119.004 212.596 113.264 207.772 107.447 202.149C97.4153 192.453 89.2346 178.849 85.6604 165.297C81.0707 147.894 81.7901 130.159 82.5909 112.297C82.9704 103.834 85.9258 95.6464 87.9453 87.4975C90.1011 78.7983 94.8467 69.4286 99.5771 61.842Z" fill="#FF774D" stroke="black" stroke-width="2.5" stroke-linecap="round"/>
<path d="M357.7 68.5654C367.34 71.5194 377.739 71.1435 387.733 71.118C385.706 71.1529 383.302 71.9109 381.323 72.3924C379.167 72.9167 377.073 73.6073 375.032 74.4819C372.861 75.4123 371.097 76.8118 369.445 78.463C368.233 79.6759 366.467 80.5006 365.398 81.8062C363.877 83.6654 362.122 84.9618 360.076 86.1611C358.671 86.9847 356.403 86.557 354.819 86.557C353.556 86.557 352.604 86.1722 351.938 84.9734C350.956 83.2059 349.947 83.3898 348.045 83.3898C343.048 83.3898 334.619 82.3955 331.571 87.4368C329.984 90.0606 328.126 92.3231 326.886 95.1129C325.799 97.5579 326.162 99.2259 323.345 99.2259C318.134 99.2259 315.577 97.6659 310.5 97C308.796 96.7765 307.054 95.8592 308.5 94C309.763 92.3756 306.321 90.2783 306.321 88.3166C303.891 93.8702 300.612 100.221 298.403 105.868C297.895 107.166 297.363 108.845 297.215 110.223C297.115 111.153 295.272 110.681 294.664 110.619C288.333 109.972 281.852 108.332 275.484 108.332C273.882 108.332 274.173 105.788 273.461 104.681C272.147 102.637 270.695 100.733 269.128 98.852C267.137 96.4627 265.255 93.3414 262.375 91.9017C260.436 90.9318 260 91.0909 260 88.9324C260 87.7621 260.034 85.7835 260.594 84.7754C261.013 84.0217 261.537 81.8307 261.584 81.0144C261.722 78.5931 262.436 76.1304 263.079 73.8001C263.529 72.1682 263.156 70.8512 264.135 69.3132C264.733 68.3735 264.41 67.9495 265.741 67.9495C266.65 67.9495 267.539 67.7535 268.402 67.4656C270.541 66.7527 272.391 66.3659 274.648 66.3659C279.487 66.3659 283.05 67.4495 284.238 61.835C285.076 57.8719 286.589 54.4232 290.705 53.675C297.614 52.4187 305.532 53.3011 312.567 53.3011C315.932 53.3011 319.23 53.5034 322.553 54.0049C325.075 54.3857 328.04 54.5022 330.427 55.4786C335.164 57.4164 339.963 59.1919 344.723 61.0432C349.452 62.8821 352.837 67.0749 357.7 68.5654Z" fill="white"/>
<path d="M388.669 71.1168C378.39 71.1168 367.641 71.6117 357.7 68.5654C352.837 67.0749 349.452 62.8821 344.723 61.0432C339.963 59.1919 335.164 57.4164 330.427 55.4786C328.04 54.5022 325.075 54.3857 322.553 54.0049C319.23 53.5034 315.932 53.3011 312.567 53.3011C305.532 53.3011 297.614 52.4187 290.705 53.675C286.589 54.4232 285.076 57.8719 284.238 61.835C283.05 67.4495 279.487 66.3659 274.648 66.3659C272.391 66.3659 270.541 66.7527 268.402 67.4656C267.539 67.7535 266.65 67.9495 265.741 67.9495C264.41 67.9495 264.733 68.3735 264.135 69.3132C263.156 70.8512 263.529 72.1682 263.079 73.8001C262.436 76.1304 261.722 78.5931 261.584 81.0144C261.537 81.8307 261.013 84.0217 260.594 84.7754C260.034 85.7835 260 87.7621 260 88.9324C260 91.0909 260.436 90.9318 262.375 91.9017C265.255 93.3414 267.137 96.4627 269.128 98.852C270.695 100.733 272.147 102.637 273.461 104.681C274.173 105.788 273.882 108.332 275.484 108.332C281.852 108.332 288.333 109.972 294.664 110.619C295.272 110.681 297.115 111.153 297.215 110.223C297.363 108.845 297.895 107.166 298.403 105.868C300.612 100.221 303.891 93.8702 306.321 88.3166M306.321 88.3166C306.321 86.0742 305.932 84.5179 305.551 82.422C305.33 81.2065 304.007 82.17 303.154 81.7182C302.002 81.7182 289.854 78.6389 288.703 78.6389C286.695 78.6389 286.699 82.9305 285.932 84.3795C284.836 86.4495 284.049 88.4686 282.742 90.4281M306.321 88.3166C306.321 90.2783 309.763 92.3756 308.5 94C307.054 95.8592 308.796 96.7765 310.5 97C315.577 97.6659 318.134 99.2259 323.345 99.2259C326.162 99.2259 325.799 97.5579 326.886 95.1129C328.126 92.3231 329.984 90.0606 331.571 87.4368C334.619 82.3955 343.048 83.3898 348.045 83.3898C349.947 83.3898 350.956 83.2059 351.938 84.9734C352.604 86.1722 353.556 86.557 354.819 86.557C356.403 86.557 358.671 86.9847 360.076 86.1611C362.122 84.9618 363.877 83.6654 365.398 81.8062C366.467 80.5006 368.233 79.6759 369.445 78.463C371.097 76.8118 372.861 75.4123 375.032 74.4819C377.073 73.6073 379.167 72.9167 381.323 72.3924C383.349 71.8995 385.821 71.1168 387.877 71.1168" stroke="black" stroke-width="2.5" stroke-linecap="round"/>
<path d="M105.723 185.043C110.452 186.882 137.459 194.902 142.323 196.392C140.167 196.917 138.073 197.607 136.032 198.482C133.861 199.412 132.097 200.812 130.445 202.463C129.233 203.676 110.113 206.084 109.045 207.39C104.048 207.39 95.6188 206.396 92.5706 211.437C90.9841 214.061 89.1257 216.323 87.8857 219.113C86.7991 221.558 87.1616 223.226 84.3446 223.226C79.1338 223.226 76.5771 221.666 71.5 221C70.0314 220.807 68.5343 220.099 69.0749 218.717C66.9995 221.849 58.3481 232.981 58.215 234.223C58.1154 235.153 56.2718 234.681 55.6636 234.619C49.3327 233.972 42.8518 232.332 36.4842 232.332C34.8823 232.332 35.1726 229.788 34.4607 228.681C33.1469 226.637 31.695 224.733 30.1278 222.852C28.1367 220.463 26.2548 217.341 23.3754 215.902C21.4357 214.932 21 215.091 21 212.932C21 211.762 21.0338 209.784 21.5939 208.775C22.0126 208.022 22.537 205.831 22.5836 205.014C22.722 202.593 23.4364 200.13 24.0793 197.8C24.5294 196.168 24.1563 194.851 25.135 193.313C25.733 192.373 25.4097 191.95 26.7406 191.95C27.6502 191.95 28.5385 191.753 29.402 191.466C31.5408 190.753 33.3907 190.366 35.6484 190.366C40.4871 190.366 44.0504 191.449 45.2381 185.835C46.0765 181.872 47.5892 178.423 51.7045 177.675C58.6139 176.419 66.5316 177.301 73.5672 177.301C76.9319 177.301 80.2302 177.503 83.5528 178.005C86.0753 178.386 89.0404 178.502 91.4269 179.479C96.1637 181.416 100.963 183.192 105.723 185.043Z" fill="white"/>
<path d="M69.5 218C68.9922 219.298 58.3626 232.845 58.215 234.223C58.1154 235.153 56.2718 234.681 55.6636 234.619C49.3327 233.972 42.8518 232.332 36.4842 232.332C34.8823 232.332 35.1726 229.788 34.4607 228.681C33.1469 226.637 31.695 224.733 30.1278 222.852C28.1367 220.463 26.2548 217.341 23.3754 215.902C21.4357 214.932 21 215.091 21 212.932C21 211.762 21.0338 209.784 21.5939 208.775C22.0126 208.022 22.537 205.831 22.5836 205.014C22.722 202.593 23.4364 200.13 24.0793 197.8C24.5294 196.168 24.1563 194.851 25.135 193.313C25.733 192.373 25.4097 191.95 26.7406 191.95C27.6502 191.95 28.5385 191.753 29.402 191.466C31.5408 190.753 33.3907 190.366 35.6484 190.366C40.4871 190.366 44.0504 191.449 45.2381 185.835C46.0765 181.872 47.5892 178.423 51.7045 177.675C58.6139 176.419 66.5316 177.301 73.5672 177.301C76.9319 177.301 80.2302 177.503 83.5528 178.005C86.0753 178.386 89.0404 178.502 91.4269 179.479C96.1637 181.416 100.963 183.192 105.723 185.043C110.452 186.882 137.459 194.902 142.323 196.392C140.167 196.917 138.073 197.607 136.032 198.482C133.861 199.412 132.097 200.812 130.445 202.463C129.233 203.676 110.113 206.084 109.045 207.39C104.048 207.39 95.6188 206.396 92.5706 211.437C90.9841 214.061 89.1257 216.323 87.8857 219.113C86.7991 221.558 87.1616 223.226 84.3446 223.226C79.1338 223.226 76.5771 221.666 71.5 221C69.7961 220.777 68.054 219.859 69.5 218ZM69.5 218C69.279 216.784 65.0069 206.17 64.1535 205.718C63.0025 205.718 50.8541 202.639 49.703 202.639C47.6947 202.639 44.5096 204.357 43.7425 205.806C42.6466 207.876 45.0488 212.469 43.7425 214.428" stroke="black" stroke-width="2.5" stroke-linecap="round"/>
<path d="M161.572 82.5312C164.817 82.5312 166.439 84.778 166.439 89.2715V90.0234C166.439 94.0156 164.694 97.6341 161.203 100.879C163.199 100.879 164.197 101.002 164.197 101.248L164.936 100.879C165.209 100.879 165.587 101.002 166.07 101.248L168.312 100.879C169.306 102.137 169.803 102.884 169.803 103.121C169.402 104.37 168.654 104.994 167.561 104.994L166.809 104.611C166.562 104.611 166.439 104.739 166.439 104.994C164.343 104.739 160.602 104.488 155.215 104.242L154.832 102.369V101.617C160.328 97.0781 163.076 93.5872 163.076 91.1445V88.5195C163.076 87.2253 162.698 86.4779 161.941 86.2773H160.068C158.911 86.2773 157.416 87.526 155.584 90.0234H154.832C154.212 90.0234 153.839 89.5221 153.711 88.5195C154.923 84.5273 157.042 82.5312 160.068 82.5312H161.572ZM180.713 82.1621C185.708 84.304 188.205 87.9225 188.205 93.0176V94.5078C188.205 97.306 185.958 99.6758 181.465 101.617H179.961C175.477 100.122 173.234 98.5 173.234 96.75C172.578 96.75 172.077 95.752 171.73 93.7559V90.7617C172.478 85.2747 174.975 82.5312 179.223 82.5312C179.341 82.5312 179.838 82.4082 180.713 82.1621ZM175.094 91.5137V92.6348C175.094 94.5033 176.716 96.2533 179.961 97.8848C183.206 97.4837 184.828 95.9844 184.828 93.3867V92.6348C184.828 90.4928 183.707 88.4967 181.465 86.6465C179.651 85.653 178.653 85.1562 178.471 85.1562C176.958 85.1562 175.832 87.2754 175.094 91.5137ZM197.994 82.5312C201.239 82.5312 202.861 84.778 202.861 89.2715V90.0234C202.861 94.0156 201.116 97.6341 197.625 100.879C199.621 100.879 200.619 101.002 200.619 101.248L201.357 100.879C201.631 100.879 202.009 101.002 202.492 101.248L204.734 100.879C205.728 102.137 206.225 102.884 206.225 103.121C205.824 104.37 205.076 104.994 203.982 104.994L203.23 104.611C202.984 104.611 202.861 104.739 202.861 104.994C200.765 104.739 197.023 104.488 191.637 104.242L191.254 102.369V101.617C196.75 97.0781 199.498 93.5872 199.498 91.1445V88.5195C199.498 87.2253 199.12 86.4779 198.363 86.2773H196.49C195.333 86.2773 193.838 87.526 192.006 90.0234H191.254C190.634 90.0234 190.26 89.5221 190.133 88.5195C191.345 84.5273 193.464 82.5312 196.49 82.5312H197.994ZM213.389 79.5371H215.645C217.704 79.5371 219.076 81.0319 219.76 84.0215V85.5254C219.76 86.4277 219.258 87.4258 218.256 88.5195C220.753 90.5156 222.002 92.6393 222.002 94.8906C220.671 100.132 218.051 102.752 214.141 102.752H213.02C210.777 102.752 209.529 101.754 209.273 99.7578V99.375C209.273 99.0195 209.647 98.6458 210.395 98.2539C212.983 98.5 214.482 98.623 214.893 98.623C217.135 98.0397 218.256 96.5449 218.256 94.1387C218.256 93.1361 217.385 92.3887 215.645 91.8965C213.676 92.6439 212.427 93.0176 211.898 93.0176C210.896 93.0176 210.271 92.3932 210.025 91.1445C211.283 89.1211 213.029 87.6217 215.262 86.6465L216.383 85.1562C216.383 83.6523 215.262 82.9004 213.02 82.9004H212.65C212.65 83.2194 211.898 83.8438 210.395 84.7734H208.904C208.904 84.2721 208.654 84.0215 208.152 84.0215V82.9004C208.152 81.9342 209.898 80.8132 213.389 79.5371ZM156.021 109.932C158.018 109.932 159.016 111.805 159.016 115.551C159.271 115.551 159.398 115.674 159.398 115.92C161.887 115.674 163.755 115.551 165.004 115.551H166.125L166.494 117.41V118.914C164.999 119.096 164.252 119.347 164.252 119.666C164.753 121.279 165.004 122.4 165.004 123.029V123.398C165.004 125.65 163.135 127.149 159.398 127.896C155.652 126.967 153.779 125.094 153.779 122.277V121.525L154.148 120.787C151.159 120.787 149.664 119.912 149.664 118.162V117.041C150.056 117.041 150.553 116.79 151.154 116.289H155.27L154.531 111.805C155.014 110.665 155.511 110.041 156.021 109.932ZM157.525 121.908V122.277C157.525 122.633 157.899 123.007 158.646 123.398H160.137C160.638 123.398 160.889 123.152 160.889 122.66C160.889 122.159 160.638 121.908 160.137 121.908H157.525ZM166.494 128.266C167.743 128.266 168.367 129.514 168.367 132.012H167.998C167.579 132.504 163.09 133.124 154.531 133.871C153.283 133.379 152.658 132.632 152.658 131.629C152.658 129.888 155.028 129.018 159.768 129.018V129.387L166.494 128.266ZM165.756 134.623C167.497 134.623 168.367 136.87 168.367 141.363C168.048 142.612 167.674 143.236 167.246 143.236H165.004L164.252 140.611V138.738C160.041 139.486 157.548 139.859 156.773 139.859L155.27 137.248C155.771 137.248 156.272 136.747 156.773 135.744C160.729 134.997 163.723 134.623 165.756 134.623ZM196.846 119.666H197.967C197.967 120.049 198.217 120.546 198.719 121.156V125.641C198.719 126.78 199.092 129.523 199.84 133.871C199.357 135.01 198.855 135.635 198.336 135.744H197.598C196.531 135.744 195.656 132.253 194.973 125.271H195.355L194.973 124.52C195.228 121.284 195.852 119.666 196.846 119.666ZM177.391 120.404C180.134 120.587 181.506 121.334 181.506 122.646C181.88 122.4 183.502 122.154 186.373 121.908C188.369 123.84 189.367 126.835 189.367 130.891V131.629C189.367 132.923 188.993 133.671 188.246 133.871H186.742C185.995 133.871 185.498 131.378 185.252 126.393H182.996C182.641 126.393 182.267 126.766 181.875 127.514V127.896C181.875 129.2 182.003 131.319 182.258 134.254L180.754 135.375H180.016C179.013 135.375 178.389 133.63 178.143 130.139L178.512 127.896V125.271C178.512 124.77 178.138 124.52 177.391 124.52C176.844 124.52 174.971 124.77 171.771 125.271C170.778 125.025 170.281 124.278 170.281 123.029C170.281 121.279 172.4 120.404 176.639 120.404H177.391ZM206.621 115.947C211.352 115.947 213.717 118.563 213.717 123.795C213.717 126.229 211.971 127.846 208.48 128.648C205.099 128.648 202.857 126.283 201.754 121.553C201.754 119.074 203.003 117.328 205.5 116.316C206.247 116.316 206.621 116.193 206.621 115.947ZM205.5 121.17C206.047 122.729 207.04 123.977 208.48 124.916C209.483 124.542 209.984 124.169 209.984 123.795V123.043C209.984 121.138 209.483 120.017 208.48 119.68H206.621C205.992 119.68 205.618 120.176 205.5 121.17ZM222.699 120.049H223.068C223.761 120.049 224.385 122.419 224.941 127.158H224.559C225.561 133.712 226.062 137.453 226.062 138.383C225.096 139.13 224.349 139.504 223.82 139.504C222.326 139.504 221.578 136.883 221.578 131.643C221.077 126.538 220.576 123.421 220.074 122.291C220.074 120.796 220.949 120.049 222.699 120.049ZM209.984 132.764L210.723 133.146L212.227 132.764C215.462 132.955 217.08 133.206 217.08 133.516L217.463 135.006C217.463 136.008 216.588 136.76 214.838 137.262L211.105 136.879H208.111L205.5 137.262C205.5 137.007 205.372 136.879 205.117 136.879C205.117 137.134 204.994 137.262 204.748 137.262C204.748 136.76 204.001 136.259 202.506 135.758V134.268C202.506 133.903 202.88 133.529 203.627 133.146H207.742L209.984 132.764ZM126.613 154.914C127.042 154.914 127.789 155.165 128.855 155.666C129.074 155.666 130.072 155.538 131.85 155.283C137.583 155.283 140.449 156.655 140.449 159.398C140.449 160.428 140.577 161.426 140.832 162.393C140.832 168.381 139.46 171.375 136.717 171.375H134.461C129.721 171.375 127.352 169.88 127.352 166.891C126.358 161.714 125.861 158.346 125.861 156.787C126.363 155.976 126.613 155.352 126.613 154.914ZM146.068 154.914H147.559C147.559 155.288 147.932 155.785 148.68 156.404V162.775C152.927 163.176 155.051 163.924 155.051 165.018V166.139C155.051 166.494 154.673 166.868 153.916 167.26C151.801 167.26 150.184 167.009 149.062 166.508C149.062 166.763 148.935 166.891 148.68 166.891L149.062 167.629V171.006C149.062 171.252 148.935 171.375 148.68 171.375L149.062 172.127V173.248C149.062 173.585 148.438 174.21 147.189 175.121C145.695 174.602 144.947 173.604 144.947 172.127V157.156C145.102 155.661 145.476 154.914 146.068 154.914ZM129.977 159.398C130.578 164.639 131.202 167.26 131.85 167.26C134.055 167.506 135.427 167.629 135.965 167.629C136.466 166.654 136.717 165.282 136.717 163.514V163.145L136.334 159.398C136.088 159.398 135.965 159.526 135.965 159.781L134.092 159.398H129.977ZM159.604 149.295H159.973C160.219 153.542 160.592 155.666 161.094 155.666C161.868 155.666 164.238 155.538 168.203 155.283V152.672L168.955 150.047C170.45 150.047 171.197 150.794 171.197 152.289V155.283H171.566C174.656 155.037 176.279 154.914 176.434 154.914V151.92C176.434 151.564 176.807 151.191 177.555 150.799H179.428C179.929 152.786 180.18 155.156 180.18 157.908V165.018C180.18 166.758 179.305 167.629 177.555 167.629C177.299 167.629 176.803 167.132 176.064 166.139L176.434 162.393V159.029L176.064 158.277C172.574 158.852 170.828 159.225 170.828 159.398C169.397 163.892 167.15 166.139 164.088 166.139L163.336 165.756L162.584 166.139C159.093 165.273 157.348 163.527 157.348 160.902C157.102 158.505 156.979 155.885 156.979 153.041V151.92C156.979 150.17 157.854 149.295 159.604 149.295ZM161.094 159.029C161.094 159.275 160.971 159.398 160.725 159.398C161.171 161.395 162.169 162.393 163.719 162.393C165.669 161.827 166.913 160.957 167.451 159.781V159.029H166.33C165.437 159.029 164.316 159.152 162.967 159.398C162.557 159.152 161.932 159.029 161.094 159.029ZM173.439 167.629H174.943C175.59 167.629 176.087 168.504 176.434 170.254C175.814 178.73 174.191 182.969 171.566 182.969H167.834C164.945 182.969 163.072 178.73 162.215 170.254C162.215 169.251 162.716 168.504 163.719 168.012H164.84C165.587 168.012 166.212 169.88 166.713 173.617H172.688C172.688 172.861 172.815 171.99 173.07 171.006V168.75C173.316 168.75 173.439 168.376 173.439 167.629ZM167.451 176.98V177.732C167.451 178.124 167.952 178.626 168.955 179.236H170.828C171.576 178.981 171.949 178.229 171.949 176.98L171.197 177.363H168.203L167.451 176.98ZM199.676 150.785V151.168L200.428 150.785H200.811C202.205 150.785 203.076 151.41 203.422 152.658C203.121 154.408 202.497 155.283 201.549 155.283L198.938 154.9C198.5 155.156 197.999 155.283 197.434 155.283V156.021C197.434 158.027 198.181 159.029 199.676 159.029C201.353 159.029 202.729 159.403 203.805 160.15L203.422 156.773C203.422 153.902 204.671 152.28 207.168 151.906H209.41C209.665 151.906 209.793 152.034 209.793 152.289L210.545 151.906H212.404C212.769 151.906 213.147 152.28 213.539 153.027V153.779C213.539 155.529 212.541 156.404 210.545 156.404C208.758 156.149 207.76 156.021 207.551 156.021V158.277C207.551 159.772 208.672 160.52 210.914 160.52C211.27 160.52 211.643 160.893 212.035 161.641V162.023C212.035 163.363 211.538 164.234 210.545 164.635H207.92C205.86 164.635 204.488 163.263 203.805 160.52H203.422C203.422 162.516 203.048 163.514 202.301 163.514H201.18C195.939 163.514 193.318 161.395 193.318 157.156V154.9C193.318 154.308 193.692 153.187 194.439 151.537L195.191 151.906V151.168H197.816L199.676 150.785ZM220.648 151.906H221.018C221.41 151.906 221.911 152.408 222.521 153.41C222.768 158.314 222.891 161.559 222.891 163.145H222.521C222.521 163.391 222.645 163.514 222.891 163.514C222.891 164.17 222.517 165.542 221.77 167.629H219.896C219.505 167.629 219.008 167.132 218.406 166.139C218.406 165.574 218.529 165.072 218.775 164.635L218.406 163.883C218.652 162.534 218.775 161.413 218.775 160.52H213.908C213.516 160.52 213.015 160.023 212.404 159.029V158.646C212.568 157.152 212.947 156.404 213.539 156.404H215.412C215.658 156.404 215.781 156.527 215.781 156.773L216.533 156.404H218.406C218.406 155.903 218.529 155.652 218.775 155.652L218.406 154.9V154.162C218.406 152.658 219.154 151.906 220.648 151.906ZM207.92 169.885L216.533 171.006C217.782 171.936 218.406 173.43 218.406 175.49C218.406 179.437 217.408 181.561 215.412 181.861C214.163 181.515 213.539 180.64 213.539 179.236V178.867C213.539 178.63 213.785 177.632 214.277 175.873V174.752H213.908L208.672 174.369L207.92 174.752C206.425 174.105 205.678 173.23 205.678 172.127C205.924 171.644 206.047 171.27 206.047 171.006C205.801 171.006 205.678 170.878 205.678 170.623C207.173 170.45 207.92 170.204 207.92 169.885ZM234.156 150.074L235.277 151.578L234.908 155.311C237.898 157.936 239.393 159.927 239.393 161.285V162.037L237.52 162.42C235.277 161.153 234.156 159.904 234.156 158.674H233.418C232.844 161.171 231.969 162.42 230.793 162.42C230.137 162.42 229.517 161.796 228.934 160.547C230.674 156.855 231.545 154.613 231.545 153.82V153.068C231.089 153.314 229.344 153.688 226.309 154.189C225.88 153.943 225.383 153.82 224.818 153.82V152.316C224.818 151.195 227.931 150.448 234.156 150.074ZM245.367 152.316H245.75C247.6 152.316 248.721 154.312 249.113 158.305C249.113 159.061 249.236 159.932 249.482 160.916H249.113C249.605 162.447 249.852 163.445 249.852 163.91C249.478 164.904 249.104 165.4 248.73 165.4H247.24C246.192 165.4 245.445 161.413 244.998 153.438C245.244 152.954 245.367 152.581 245.367 152.316ZM244.246 167.273C245.194 167.273 245.941 168.518 246.488 171.006V174.369C246.488 178.361 245.244 180.357 242.756 180.357L243.125 179.605C241.576 180.353 240.454 180.727 239.762 180.727C238.021 180.727 237.15 180.353 237.15 179.605L236.398 179.975H236.029L236.398 179.236L235.66 179.605H235.277L233.787 170.268C234.288 169.456 234.539 168.832 234.539 168.395H236.029C236.813 168.395 237.438 169.889 237.902 172.879C238.148 172.633 240.017 172.382 243.508 172.127L243.125 169.516C243.38 168.021 243.754 167.273 244.246 167.273ZM238.271 175.873V176.242C238.271 176.598 238.645 176.971 239.393 177.363H241.266L243.125 176.994V174.752H242.004L242.387 175.49H241.635V174.752L238.271 175.873Z" fill="black"/>
<path d="M136.924 281.373C137.861 281.373 138.395 282.265 138.525 284.049V284.85C139.984 284.85 142.031 284.671 144.668 284.312C144.668 284.488 144.756 284.576 144.932 284.576C145.062 282.441 145.42 281.373 146.006 281.373H146.807C147.34 281.373 147.607 282.353 147.607 284.312C147.607 288.16 146.182 290.387 143.33 290.992C143.512 292.568 143.604 293.548 143.604 293.932H147.607C148.675 294.042 149.209 294.309 149.209 294.732V295.797C149.209 296.051 148.942 296.318 148.408 296.598H144.404L142.529 296.861V296.598L141.992 296.861H137.188C136.296 296.51 135.85 295.888 135.85 294.996C135.85 294.742 136.117 294.475 136.65 294.195H140.928V292.857L140.664 291.52C140.84 291.52 140.928 291.432 140.928 291.256C137.725 291.256 136.123 289.921 136.123 287.252L135.586 282.975C135.762 281.907 136.208 281.373 136.924 281.373ZM138.789 287.516V287.779C138.848 288.137 139.027 288.316 139.326 288.316C142.712 288.316 144.404 287.87 144.404 286.979H144.131C142.965 286.979 141.185 287.158 138.789 287.516ZM139.062 298.473H144.404C146.006 298.473 146.807 299.273 146.807 300.875C146.585 304.612 145.872 306.48 144.668 306.48C143.854 306.135 143.408 305.781 143.33 305.416L144.131 301.139H140.928C138.61 301.139 137.451 300.605 137.451 299.537C137.633 298.827 138.171 298.473 139.062 298.473Z" fill="black"/>
<path d="M154.844 46.1584C154.844 43.8314 157.92 43.1062 159.767 43.1062C160.749 43.1062 162.096 42.916 163.016 43.325C163.328 43.4636 163.753 43.6969 164.099 43.6969" stroke="black" stroke-width="2.5" stroke-linecap="round"/>
<path d="M166.798 51.8901C167.29 52.7579 167.773 53.4999 168.734 53.901C169.566 54.2487 170.582 54.2109 171.472 54.157C172.068 54.1209 172.536 53.8899 173.046 53.6108C173.229 53.5103 173.707 53.3733 173.803 53.1806" stroke="black" stroke-width="2.5" stroke-linecap="round"/>
<path d="M177.552 44.5774C177.709 44.2009 178.432 43.809 178.76 43.5942C179.183 43.3175 179.636 43.1025 180.146 43.1025C180.593 43.1025 180.974 43.3095 181.396 43.4371C182.575 43.7943 183.823 43.8167 185.028 44.055C185.552 44.1586 185.869 44.3784 186.247 44.673C186.565 44.9199 186.905 45.1305 187.323 45.1305" stroke="black" stroke-width="2.5" stroke-linecap="round"/>
<path d="M176.328 303.22C176.599 303.491 177.396 303.802 177.443 304.228C178.042 304.528 179.561 305.316 180.006 305.824C180.814 306.747 181.834 307.467 182.776 308.233C183.815 309.077 185.551 309.18 186.84 309.502C189.038 310.052 191.299 310.23 193.496 310.843C195.489 311.399 197.485 312.026 199.499 312.498C201.301 312.919 203.238 313.518 205.093 313.518C206.027 313.518 206.936 313.336 207.853 313.152L207.952 313.132C209.847 312.754 211.742 312.252 213.611 311.758L213.819 311.703C217.091 310.838 220.205 309.373 223.198 307.805C226.051 306.311 229.019 304.904 232.078 303.884C234.347 303.128 236.649 302.466 238.924 301.731L239.006 301.704C240.66 301.17 242.33 300.63 244.038 300.295C246.025 299.906 247.93 299.85 249.946 299.85C250.428 299.85 251.164 299.713 251.631 299.868C251.828 299.934 251.761 300.293 251.761 300.449C251.761 301.161 251.82 301.901 251.607 302.591C251.209 303.885 250.397 305.117 249.626 306.21C247.269 309.548 244.709 312.722 241.701 315.511C239.306 317.731 236.811 319.934 234.143 321.823C233.915 321.984 233.502 322.123 233.502 322.446C233.502 322.886 233.323 323.293 233.247 323.721C232.983 325.221 233.075 326.887 233.075 328.408C233.075 331.153 233.05 333.862 232.808 336.6C232.531 339.732 232.329 342.767 231.545 345.825C231.381 346.461 230.448 346.193 229.913 346.193H226.567H210.907C205 346.193 199.122 346.102 193.235 345.635C189.769 345.36 186.263 345.137 182.835 344.526C180.187 344.053 177.59 343.32 174.952 342.799C173.994 342.61 172.885 342.156 172.175 341.447C171.938 341.21 171.997 340.926 171.997 340.616C171.997 339.864 172.084 339.109 172.104 338.35C172.128 337.469 172.341 336.598 172.424 335.722C172.574 334.155 172.745 332.593 172.745 331.018V325.816L172.745 325.783C172.745 324.908 172.745 324.136 172.424 323.306C172.197 322.718 171.727 322.478 171.357 321.977C170.235 320.464 168.321 319.762 166.919 318.56C165.815 317.614 164.849 316.295 163.995 315.126C162.811 313.506 161.981 311.695 161.058 309.923C159.545 307.015 158.009 303.827 158.009 300.491C158.009 299.335 157.825 297.01 159.101 296.433C159.45 296.276 159.695 296.006 160.091 296.006C160.566 296.006 161.049 295.982 161.521 296.03C162.543 296.135 163.459 296.115 164.416 296.54C165.614 297.072 166.756 297.756 167.975 298.249C170.006 299.07 172.133 299.845 173.919 301.155C174.771 301.78 175.581 302.473 176.328 303.22Z" fill="#AFAFAF" stroke="black" stroke-width="2.5" stroke-linecap="round"/>
<path d="M181.583 266.967C181.825 267.706 182.442 270.978 183.701 271.118C180.894 271.822 179.083 276.563 177.97 278.797C175.833 283.085 176.707 289.039 176.707 293.726C176.707 299.059 177.75 303.246 181.078 307.602C183.711 311.047 185.756 313.696 189.489 316.021C193.569 318.561 197.256 318.827 201.922 318.827C205.318 318.827 209.031 319.241 212.412 318.788C214.576 318.499 216.928 317.477 218.939 316.645C221.403 315.625 223.457 314.459 225.389 312.591C227.211 310.828 227.878 309.231 228.861 306.882L228.861 306.881L228.885 306.822C231.389 300.832 231.955 295.095 231.955 288.639C231.955 285.481 232.469 281.106 230.032 278.661C229.104 277.73 228.365 276.57 227.487 275.601C226.788 274.83 225.526 273.402 225.039 272.522C224.341 271.261 222.379 269.158 221.115 268.312C221.115 257.209 221.355 245.031 221.115 233.933C221.01 229.099 218.785 224.753 218.046 220.057L218.039 220.016C217.839 218.741 217.445 216.238 215.87 216.062C214.349 215.892 212.899 216.238 211.402 216.393C210.063 216.532 209.267 220.06 208.877 220.973C205.586 228.677 203.632 237.559 203.632 245.958V257.905C203.632 258.642 204.125 263.435 203.088 263.732C201.492 264.189 199.027 263.841 197.396 263.732C196.163 263.65 196.001 263.411 195.939 262.348C195.881 261.354 195.165 259.435 194.812 258.411C193.986 256.016 194.25 253.318 193.627 250.889C192.859 247.892 191.9 244.929 191.121 241.924C190.137 238.126 189.883 234.139 188.946 230.308C187.901 226.044 187.019 221.757 185.837 217.524C185.321 215.673 184.551 211.132 182.574 210.235C179.048 208.634 175.559 215.66 174.765 217.913C173.419 221.733 174.259 226.802 174.259 230.796C174.259 236.196 174.687 241.186 175.736 246.484C177.106 253.401 179.385 260.268 181.583 266.967Z" fill="#AFAFAF" stroke="black" stroke-width="2.5" stroke-linecap="round"/>
<path d="M211.706 301.865C211.709 301.945 211.745 302.207 211.669 302.254C211.827 302.73 212 303.499 212 304C212 304.939 212.344 305.607 212 306.5C211.77 307.097 211.518 308.088 211 308.5C210.584 308.831 209.492 309.321 209 309.5C208.236 309.778 207.806 310 207 310C205.843 310 204.115 309.396 203.273 308.441C202.567 307.64 202.13 306.473 202.045 305.418C201.937 304.077 202.023 302.673 202.313 301.363C202.488 300.572 202.738 299.8 203.25 299.158C203.538 298.797 203.904 298.341 204.351 298.179C204.987 297.948 205.823 297.989 206.495 298.039C206.773 298.059 207.043 298.165 207.3 298.263C207.795 298.449 208.291 298.639 208.777 298.844C209.4 299.107 209.97 299.501 210.447 299.978C210.851 300.382 211.257 300.799 211.518 301.313C211.602 301.479 211.7 301.676 211.706 301.865Z" fill="white" stroke="black" stroke-width="2.5" stroke-linecap="round"/>
<path d="M184 290C183.84 288.931 184.804 286.924 185.479 286.11C185.984 285.611 186.414 284.895 187 284.5C187.496 284.166 187.995 283.81 188.5 283.5C188.695 283.381 189.289 283.11 189.5 283C190.121 282.676 190.812 282.543 191.5 282.5C192.5 282.5 192.5 282.5 193.5 283C194.194 283.107 194.898 283.526 195.54 283.823C196.531 284.282 197.343 285.247 198.085 286.022C198.89 286.862 199.437 288.05 199.648 289.194C199.723 289.599 199.656 290.088 199.648 290.5C199.636 291.119 199.509 291.712 199.215 292.243C198.813 292.971 198.585 293.923 198 294.5C197.516 294.978 197.036 295.58 196.5 296C195.419 296.848 193.823 297.149 192.505 297.559C191.587 297.844 190.765 297.931 189.5 297.5C188.075 297.015 186.694 296.351 185.724 295.208C184.942 294.288 184.225 293.5 184 292.078C183.751 291.392 184.108 290.724 184 290Z" fill="white" stroke="black" stroke-width="2.5" stroke-linecap="round"/>
<path d="M208.735 280.769C209.508 280.054 211.407 279.387 212.513 279.073C213.907 278.887 214.5 279 215.742 279.117C217 279.5 218.68 279.073 220.969 282.5C223 286.5 222.343 286.997 222.166 288.475C222.001 289.851 221.709 291.238 220.969 292.422C220.375 293.372 219.565 294.219 218.68 294.906C217.612 295.736 216.394 295.806 215.094 295.806C213.586 295.806 212.192 295.401 210.778 294.906C209.645 294.51 208.592 293.952 207.746 293.087C206.765 292.082 206.364 290.57 206.092 289.225C205.953 288.533 206.004 287.789 206.038 287.088C206.065 286.528 206.069 286.007 206.216 285.462C206.552 284.215 207.102 282.989 207.815 281.911C208.083 281.507 208.379 281.098 208.735 280.769Z" fill="white" stroke="black" stroke-width="2.5" stroke-linecap="round"/>
<path d="M191.512 283.71C191.769 283.881 192.032 284.043 192.224 284.289C192.307 284.396 192.385 284.506 192.463 284.616C192.557 284.748 192.625 284.893 192.702 285.034C192.794 285.203 192.871 285.379 192.934 285.561C193.006 285.77 193.102 285.971 193.152 286.186C193.261 286.661 193.236 287.157 193.229 287.642C193.225 287.951 193.131 288.259 193.065 288.56C192.987 288.917 192.871 289.267 192.754 289.614C192.619 290.016 192.394 290.395 192.064 290.661C191.845 290.836 191.617 290.994 191.394 291.163C191.165 291.336 190.928 291.511 190.667 291.633C190.177 291.861 189.66 292.006 189.149 292.174C188.759 292.302 188.362 292.367 187.957 292.435C187.53 292.506 187.108 292.597 186.676 292.619C186.497 292.628 186.318 292.623 186.14 292.623C186.067 292.623 186.007 292.603 185.996 292.694C185.975 292.885 186.052 293.073 186.144 293.235C186.365 293.623 186.598 294.001 186.88 294.348C187.513 295.125 188.234 295.996 189.186 296.39C189.393 296.476 189.632 296.531 189.853 296.56C190.066 296.588 190.251 296.649 190.453 296.717C190.499 296.732 190.536 296.749 190.576 296.769C190.576 296.769 190.535 296.527 190.53 296.508C190.45 296.185 190.387 295.861 190.387 295.527C190.387 295.006 190.545 294.513 190.66 294.011C190.801 293.395 190.925 292.77 191.107 292.165C191.26 291.656 191.407 291.152 191.737 290.727C192.042 290.332 192.433 290.072 192.893 289.879C193.461 289.642 194.076 289.644 194.674 289.536C195.228 289.436 195.799 289.427 196.361 289.434C196.517 289.436 196.642 289.49 196.782 289.552C196.964 289.633 197.151 289.701 197.334 289.782C197.362 289.794 197.639 289.947 197.661 289.92C197.712 289.859 197.67 289.546 197.656 289.471C197.54 288.846 196.982 288.378 196.555 287.955C196.315 287.719 196.06 287.478 195.871 287.199C195.713 286.966 195.594 286.706 195.432 286.474C195.414 286.448 195.264 286.188 195.221 286.213C195.192 286.23 195.186 286.271 195.171 286.302C195.102 286.44 195.033 286.578 194.955 286.712C194.817 286.95 194.659 287.176 194.501 287.401C194.264 287.738 194.081 288.087 193.874 288.442C193.611 288.892 193.318 289.324 193.025 289.755C192.673 290.271 192.352 290.802 191.982 291.306C191.637 291.776 191.252 292.223 190.867 292.66C190.542 293.028 190.227 293.394 189.842 293.7C189.6 293.893 189.404 294.134 189.154 294.316C188.964 294.454 188.823 294.64 188.645 294.791C188.482 294.928 188.346 295.097 188.2 295.252C188.162 295.291 188.078 295.512 188.202 295.442C188.381 295.343 188.554 295.212 188.711 295.081C188.757 295.043 188.814 295.012 188.834 294.954" stroke="black" stroke-width="2.5" stroke-linecap="round"/>
<path d="M214.19 279.394C214.723 279.972 215.227 280.496 215.494 281.238C215.597 281.522 215.671 281.798 215.703 282.098C215.764 282.677 215.728 283.28 215.565 283.838C215.326 284.661 214.967 285.445 214.358 286.054C214.025 286.387 213.639 286.659 213.237 286.904C212.754 287.198 212.228 287.513 211.695 287.703C210.928 287.976 210.171 288.199 209.372 288.361C209.041 288.428 208.717 288.547 208.379 288.575C208.25 288.586 208.128 288.598 208.001 288.622C207.937 288.634 207.843 288.618 207.784 288.643C207.555 288.741 208.651 290.492 208.744 290.659C209.029 291.167 209.226 291.726 209.437 292.267C209.507 292.447 209.577 292.627 209.633 292.812C209.64 292.834 209.637 292.683 209.637 292.659C209.637 291.879 209.572 291.07 209.664 290.295C209.673 290.215 209.826 290.683 209.838 290.731C209.985 291.331 210.115 291.934 210.27 292.533C210.375 292.941 210.511 293.308 210.664 293.691C210.791 294.006 211.09 294.254 211.324 294.488C211.449 294.613 211.495 294.232 211.513 294.156C211.596 293.802 211.747 293.465 211.87 293.123C212.067 292.581 212.24 292.031 212.49 291.509C212.63 291.218 212.714 290.906 212.845 290.613C212.96 290.355 213.095 290.097 213.22 289.843C213.523 289.226 213.816 288.584 214.187 288.005C214.506 287.505 214.883 287.06 215.371 286.716C216.065 286.226 216.883 286.035 217.721 286.003C218.107 285.988 218.495 285.997 218.881 286C219.103 286.002 219.296 286.023 219.498 286.111C219.764 286.227 220.063 286.374 220.283 286.568C220.393 286.665 220.577 286.766 220.713 286.827C220.799 286.865 220.793 286.475 220.795 286.427C220.806 286.076 220.836 285.687 220.764 285.342C220.661 284.848 220.449 284.396 220.247 283.937C219.963 283.291 219.638 282.623 219.245 282.037C219.072 281.779 218.884 281.547 218.659 281.335C218.559 281.241 218.421 281.056 218.286 281.007C218.134 280.952 218.054 281.734 218.048 281.809C218 282.414 217.994 283.019 217.971 283.625C217.959 283.952 217.909 284.28 217.909 284.606C217.909 284.695 217.882 284.757 217.839 284.836C217.716 285.059 217.504 285.185 217.286 285.306C216.804 285.574 216.3 285.79 215.794 286.006C215.265 286.232 214.761 286.444 214.339 286.834C213.898 287.243 213.529 287.74 213.123 288.184C212.945 288.378 212.759 288.561 212.578 288.751C212.363 288.978 212.194 289.216 211.944 289.411C211.766 289.551 211.604 289.712 211.414 289.837C211.295 289.915 211.139 290.015 211.053 290.13C210.993 290.21 210.859 290.4 210.775 290.441" stroke="black" stroke-width="2.5" stroke-linecap="round"/>
<path d="M392.442 180.212C396.271 176.678 400.481 173.666 404.208 170C404.208 172.514 404.117 172.313 404.642 174.758C406.227 182.137 407.818 189.614 408.879 197.084C409.981 204.843 410.703 212.654 411.845 220.41C413.139 229.201 414.667 238.13 414.92 247.027C415.106 253.598 419.07 277.632 419.07 284.204C410.26 283.045 401.549 281.408 392.757 280.141C382.687 278.689 372.626 277.188 362.565 275.675C349.889 273.769 337.005 272.03 324.541 268.994C318.147 267.437 311.907 265.32 305.518 263.736C301.452 262.727 297.374 261.758 293.285 260.846C288.263 259.725 283.266 258.688 278.14 258.195C277.031 258.088 274.895 258.316 276.695 257.326C277.515 256.875 278.184 256.225 278.955 255.696C280.786 254.442 282.808 253.571 284.767 252.546C287.202 251.271 289.555 249.828 291.938 248.461C299.139 244.329 306.294 240.108 313.427 235.858C321.462 231.071 329.017 225.598 336.763 220.366C346.046 214.096 355.087 207.479 364.336 201.158C373.947 194.591 383.87 188.125 392.442 180.212Z" fill="#FFFF00" stroke="black" stroke-width="2.5" stroke-linecap="round"/>
<path d="M274.628 247.187C277.003 244.889 278.561 243.871 281.305 242.031C281.805 241.695 281.205 244.177 280.874 245.294C280.544 246.407 280.838 248.012 280.838 249.171C280.838 251.292 279.718 253.444 281.305 255.031C281.568 255.179 283.805 256.031 285.325 257.122C286.305 257.531 287.05 258.013 287.784 258.253C289.149 258.7 290.056 259.569 291.159 260.425C291.515 260.701 292.226 260.987 291.724 261.412C291.144 261.904 290.464 262.19 289.759 262.453C287.295 263.374 284.853 264.342 282.4 265.289C281.242 265.737 279.599 265.621 279.375 267.075C279.266 267.783 278.899 268.402 278.666 269.068C278.331 270.026 278.08 270.992 277.607 271.904C276.407 274.219 275.747 276.832 274.628 279.173C274.053 280.374 273.561 281.057 272.518 280.223C272.404 280.132 272.316 279.513 272.267 279.344C272.171 279.008 272.115 278.749 272.115 278.348V275.054C272.115 274.241 272.073 273.067 271.863 272.29C271.798 272.047 271.448 269.308 271.145 270.217C270.606 271.835 269.309 273.126 268.57 274.65C267.799 276.24 266.78 277.63 265.814 279.092C264.413 281.215 263.169 283.576 261.578 285.536C260.558 286.793 259.673 288.308 258.814 289.683C258.073 290.868 257.064 292.002 256.481 293.273C255.851 294.645 254.718 295.732 253.986 297.06C253.293 298.316 252.53 299.634 251.652 300.775C250.812 301.868 247.46 305.51 246.267 303.324C245.303 301.556 247.247 301.124 247.398 299.609C247.479 298.797 248.742 297.837 249.139 297.15C250.548 294.714 252.351 292.552 253.896 290.203C256.035 286.952 258.224 283.791 260.142 280.403C261.751 277.56 263.799 274.902 265.204 271.949C265.959 270.362 267.229 268.485 266.909 266.636C266.81 266.062 265.389 266.33 264.998 266.33C262.403 266.33 259.806 266.169 257.226 266.169H253.95C253.443 266.169 252.452 266.398 253.214 265.909C254.564 265.04 255.822 263.82 257.118 262.848C258.23 262.014 259.378 261.184 260.519 260.389C260.993 260.059 262.099 259.693 262.099 258.989C262.099 257.852 261.466 256.351 260.968 255.354C260.288 253.994 259.569 252.302 259.29 250.813C259.124 249.932 259.176 248.987 259.191 248.094C259.198 247.658 259.416 247.753 259.783 247.753H261.695C262.31 247.753 262.526 248.07 263.077 248.318C264.14 248.796 265.173 249.769 266.305 250.031C267.65 250.341 269.4 251.531 270.805 251.531C272.607 251.531 273.409 248.366 274.628 247.187Z" fill="#FF00E5" stroke="black" stroke-width="2.5" stroke-linecap="round"/>
<path d="M175.552 207.738C175.764 207.336 176 206.5 176.87 205.98C177.74 205.461 178.363 205.76 179.092 205.76H181.13C181.771 205.76 183.104 205.733 183.571 206.2C184.239 206.868 185.138 207.462 185.707 208.238C186.797 209.725 188.025 211.133 189.057 212.681C189.272 213.003 189.417 213.517 189.527 213.889C189.633 214.243 189.885 214.531 190.003 214.878C190.324 215.822 190.72 216.739 191.041 217.685C192.934 223.26 193.541 229.179 194.062 235.011C194.376 238.532 194.556 242.088 194.556 245.623C194.556 246.805 191.025 246.59 190.266 246.685C188.509 246.905 186.744 246.844 184.975 246.844C182.121 246.844 179.308 246.792 176.461 246.624C175.774 246.584 173.457 246.619 173.111 245.965C172.967 245.694 172.816 245.458 172.806 245.086C172.646 239.319 172.696 233.536 172.696 227.761C172.696 223.893 172.44 219.942 172.971 216.111C173.274 213.922 174.074 212.009 174.698 209.91C174.925 209.147 175.182 208.439 175.552 207.738Z" fill="#6C11A4" stroke="black" stroke-width="2.5" stroke-linecap="round"/>
<path d="M208.274 214.451C208.431 214.271 211.202 211.067 211.472 211.473L212.485 211.473C212.786 211.473 213.456 211.485 213.73 211.607C214.527 211.961 215.179 212.823 215.781 213.425C216.599 214.244 217.281 215.072 217.868 216.086C218.001 216.317 218.264 216.446 218.393 216.684C218.557 216.986 218.633 217.282 218.747 217.6C218.937 218.132 219.213 218.823 219.497 219.321C219.859 219.953 219.909 220.608 220.089 221.304C220.32 222.193 220.466 223.102 220.651 224.001C221.054 225.96 221.353 227.932 221.713 229.891C221.895 230.884 222.219 231.983 222.238 232.991C222.255 233.954 222.154 235.04 222.457 235.969C222.891 237.296 223.006 239.087 223.006 240.479V242.944C223.006 243.524 223.269 244.556 222.671 244.818C221.493 245.333 220.371 245.534 219.156 245.91C215.525 247.034 211.569 246.844 207.817 246.844H204.942C203.976 246.844 202.989 247.127 202.044 247.094C201.717 247.083 201.76 246.064 201.696 245.855C201.431 244.995 201.476 243.874 201.476 242.975V239.569C201.476 236.23 202.018 232.87 202.794 229.634C203.328 227.41 203.583 225.146 204.436 223.013C204.999 221.606 205.457 220.09 205.937 218.649C206.409 217.233 207.3 215.564 208.274 214.451Z" fill="#6C11A4" stroke="black" stroke-width="2.5" stroke-linecap="round"/>
<circle cx="178" cy="204" r="4.75" fill="#FFFF00" stroke="black" stroke-width="2.5"/>
<circle cx="214" cy="211" r="4.75" fill="#FFFF00" stroke="black" stroke-width="2.5"/>
<path d="M204.945 229.534C204.71 228.971 203.803 228.218 203.366 227.78C203.157 228.093 203.257 228.608 203.257 228.966C203.257 229.818 203.271 230.672 203.257 231.525C203.239 232.601 202.889 233.649 202.712 234.701C202.405 236.527 202.507 238.38 202.168 240.195C202.035 240.904 202.113 241.673 202.113 242.392C202.113 242.514 201.996 243.318 202.277 243.178C202.542 243.045 202.741 242.74 202.997 242.579C203.381 242.337 203.644 241.952 204.031 241.708C204.894 241.164 205.56 240.383 206.282 239.675C206.478 239.483 206.693 239.504 206.881 239.681C207.162 239.946 207.627 239.978 207.952 240.207C208.144 240.343 208.328 240.471 208.539 240.576C208.762 240.688 208.924 240.884 209.138 241C209.421 241.154 209.886 241.148 210.203 241.23C210.662 241.348 211.088 241.503 211.51 241.72C211.58 241.756 212.051 242.053 211.981 241.914C211.905 241.761 211.895 241.577 211.806 241.436C211.689 241.25 211.61 241.039 211.528 240.837C211.258 240.175 210.864 239.563 210.523 238.937C210.185 238.315 209.843 237.693 209.495 237.076C209.323 236.772 209.043 236.49 208.986 236.135C208.941 235.848 209.185 235.632 209.356 235.415C210.596 233.846 212.122 232.428 213.125 230.666C213.365 230.245 213.549 229.915 213.549 229.422C213.549 229.324 213.618 228.958 213.44 228.99C213.109 229.048 212.822 229.164 212.478 229.208C210.769 229.424 209.072 229.988 207.589 230.859C207.093 231.151 206.629 231.456 206.209 231.849C206.05 231.998 206.099 231.951 205.979 231.876C205.861 231.802 205.803 231.519 205.75 231.401C205.468 230.784 205.206 230.16 204.945 229.534Z" fill="#FFFF00" stroke="black" stroke-width="2.5" stroke-linecap="round"/>
<path d="M189.045 215.994C189.233 215.624 189.429 214.839 189.863 214.707C190.461 217.147 191.06 219.586 191.655 222.027C191.725 222.315 191.806 222.612 191.86 222.906C191.938 223.328 191.996 223.757 192.065 224.181C192.157 224.746 192.19 225.318 192.279 225.882C192.332 226.218 192.316 226.558 192.316 226.897V227.587C192.316 227.767 192.264 228.045 192.367 228.199C192.073 228.199 191.343 227.396 191.081 227.256C190.775 227.095 190.558 227.017 190.215 227.017C190.075 227.017 189.998 227.129 189.892 227.205C189.497 227.486 189.151 227.857 188.784 228.173C188.265 228.621 187.786 229.047 187.223 229.444C186.752 229.776 186.353 230.294 185.856 230.575C185.826 230.592 185.878 229.881 185.883 229.819C185.93 229.229 186.043 228.645 186.05 228.04C186.057 227.283 186.222 226.229 185.883 225.523C185.572 224.874 185.018 224.395 184.513 223.902C184.161 223.558 183.742 223.281 183.375 222.952C182.671 222.32 182.061 221.583 181.5 220.822C181.413 220.704 181.013 220.133 181.318 220.099C181.684 220.058 182.038 220.055 182.407 220.044C183.117 220.025 183.828 219.938 184.537 219.896C185.231 219.856 185.926 219.876 186.621 219.833C186.835 219.819 187.105 219.885 187.278 219.721C187.734 219.288 187.898 218.485 188.14 217.93C188.426 217.273 188.719 216.633 189.045 215.994Z" fill="#FFFF00" stroke="black" stroke-width="2.5" stroke-linecap="round"/>
<path d="M174.143 235.349C173.909 235.369 173.256 235.228 173.019 235.228C172.827 238.058 173 241.163 173 244L173 245.5C173 245.624 173.328 245.986 173.5 246C174.018 246.043 173.711 245.786 174.229 245.843C175.613 245.997 177.028 245.963 178.418 245.963C179.621 245.963 180.824 245.958 182.027 245.963C182.641 245.966 183.247 246.068 183.858 246.068C183.858 245.5 183.5 245 182.646 244.443C182.446 244.22 182.294 243.858 182.063 243.68C181.674 243.382 181.39 242.941 181.043 242.594C180.309 241.86 179.446 241.1 179.037 240.123C178.855 239.687 179.034 239.355 179.243 238.985C179.657 238.251 180.156 237.563 180.623 236.861C181.11 236.129 181.776 235.342 182.093 234.508C182.15 234.357 182.129 234.182 182.129 234.024C182.129 233.865 181.84 233.954 181.754 233.966C180.222 234.192 178.72 234.628 177.198 234.913C176.187 235.103 175.168 235.26 174.143 235.349Z" fill="#FFFF00" stroke="black" stroke-width="2.5" stroke-linecap="round"/>
<path d="M310.388 288.507C311.756 286.025 313 279.5 313.733 280.506C317.96 281.035 321.093 283.084 325.287 283.923C328.612 284.588 331.885 285.503 335.163 286.356C336.596 286.729 338.035 287.083 339.465 287.471C340.136 287.653 340.74 287.863 341.439 287.943C342 288.007 342.418 288.027 342.901 288.304C343.963 288.91 345.035 289.235 346.259 289.333C346.299 289.336 347.429 289.324 347.197 289.602C346.79 290.09 346.553 291.217 346.37 291.805C345.76 293.772 345.058 295.703 344.383 297.648C343.962 298.864 343.395 300.045 343.065 301.288C342.81 302.25 342.625 303.916 341.682 304.495C341.105 304.848 340.44 305.325 339.754 305.4C338.799 305.503 337.793 305.393 336.842 305.321C334.25 305.125 331.715 304.162 329.202 303.518C324.723 302.369 320.275 300.72 316.1 298.737C313.702 297.598 310.775 295.473 307.962 296.376C306.897 296.718 305.806 297.149 304.807 297.648C304.357 297.874 305.316 296.778 305.601 296.363C307.332 293.842 308.913 291.183 310.388 288.507Z" fill="#05FF00" stroke="black" stroke-width="2.5" stroke-linecap="round"/>
<path d="M343.29 270.563C343.01 267.743 340.335 261.663 341.509 262.077C345.291 260.115 349.033 260.027 352.964 258.34C356.08 257.003 359.295 255.901 362.479 254.745C363.871 254.24 365.257 253.715 366.655 253.224C367.31 252.994 367.927 252.825 368.548 252.494C369.046 252.229 369.403 252.009 369.957 251.962C371.176 251.86 372.243 251.52 373.307 250.907C373.341 250.887 374.265 250.236 374.232 250.596C374.174 251.229 374.617 252.292 374.8 252.88C375.413 254.846 375.929 256.834 376.476 258.82C376.818 260.06 377.021 261.354 377.454 262.565C377.789 263.502 378.581 264.98 378.132 265.991C377.858 266.609 377.581 267.379 377.057 267.83C376.329 268.456 375.439 268.935 374.614 269.415C372.367 270.724 369.734 271.367 367.298 272.261C362.957 273.855 358.358 275.018 353.795 275.752C351.174 276.173 347.558 276.082 345.753 278.421C345.07 279.306 344.415 280.28 343.876 281.257C343.632 281.698 343.801 280.252 343.8 279.749C343.797 276.691 343.592 273.604 343.29 270.563Z" fill="#05FF00" stroke="black" stroke-width="2.5" stroke-linecap="round"/>
<path d="M329.418 289.532C329.342 289.455 329.284 289.363 329.207 289.287C329.061 289.142 328.88 289.085 328.695 289.008C328.233 288.816 327.747 288.671 327.253 288.582C326.134 288.381 325.014 288.316 323.883 288.521C323.44 288.602 322.908 288.706 322.663 289.12C322.491 289.411 322.376 289.678 322.372 290.022C322.366 290.626 322.621 291.095 323.048 291.522C323.401 291.875 323.89 292.057 324.363 292.197C325.451 292.521 326.546 292.83 327.628 293.171C328.223 293.359 328.954 293.553 329.418 294.005C329.693 294.272 329.725 294.61 329.725 294.978C329.725 295.209 329.76 295.565 329.6 295.751C329.283 296.121 328.793 296.243 328.363 296.425C327.821 296.655 327.16 296.614 326.584 296.638C325.996 296.662 325.385 296.664 324.799 296.611C324.666 296.599 324.612 296.54 324.493 296.493C324.259 296.401 324.027 296.321 323.783 296.257C323.554 296.196 323.317 296.077 323.104 295.972C322.937 295.891 322.76 295.842 322.592 295.766C322.467 295.71 322.328 295.69 322.226 295.591C322.135 295.504 321.996 295.432 321.884 295.368C321.395 295.094 321.045 294.663 320.595 294.342" stroke="black" stroke-width="2.5" stroke-linecap="round"/>
<path d="M359.547 260.618C359.441 260.598 359.341 260.555 359.234 260.536C359.032 260.5 358.85 260.555 358.654 260.596C358.165 260.7 357.682 260.857 357.225 261.063C356.189 261.532 355.229 262.113 354.415 262.923C354.095 263.241 353.715 263.628 353.749 264.109C353.773 264.446 353.829 264.731 354.021 265.017C354.358 265.518 354.834 265.759 355.427 265.869C355.919 265.96 356.425 265.832 356.894 265.68C357.974 265.33 359.05 264.963 360.135 264.631C360.732 264.448 361.444 264.194 362.083 264.303C362.461 264.367 362.679 264.628 362.887 264.931C363.018 265.12 363.249 265.395 363.223 265.638C363.172 266.122 362.837 266.5 362.586 266.895C362.27 267.391 361.702 267.732 361.241 268.078C360.77 268.432 360.269 268.779 359.755 269.068C359.639 269.133 359.562 269.116 359.436 269.145C359.192 269.202 358.955 269.267 358.718 269.352C358.495 269.432 358.232 269.469 357.997 269.503C357.814 269.53 357.64 269.591 357.458 269.624C357.323 269.649 357.198 269.71 357.057 269.687C356.934 269.667 356.778 269.686 356.649 269.697C356.091 269.748 355.559 269.592 355.006 269.582" stroke="black" stroke-width="2.5" stroke-linecap="round"/>
<path d="M327.12 286.561C327.008 286.698 326.986 286.91 326.937 287.075C326.875 287.28 326.802 287.486 326.76 287.694C326.621 288.373 326.407 289.032 326.218 289.699C326.168 289.876 326.139 290.059 326.081 290.233C326.022 290.409 325.938 290.579 325.885 290.754C325.812 290.992 325.698 291.236 325.648 291.479C325.588 291.772 325.463 292.062 325.39 292.354C325.304 292.696 325.252 293.057 325.146 293.392C325.069 293.637 325.034 293.897 324.938 294.134C324.841 294.375 324.738 294.647 324.663 294.893C324.575 295.182 324.43 295.474 324.365 295.767C324.302 296.051 324.157 296.353 324.116 296.64C324.103 296.73 324.079 296.852 324.052 296.939C324.02 297.039 323.934 297.132 323.934 297.239C323.934 297.328 323.901 297.414 323.873 297.497" stroke="black" stroke-width="2.5" stroke-linecap="round"/>
<path d="M356.97 260.473C356.945 260.649 357.04 260.828 357.085 260.987C357.141 261.185 357.188 261.391 357.263 261.579C357.506 262.194 357.672 262.84 357.866 263.476C357.917 263.645 357.989 263.806 358.032 263.978C358.075 264.15 358.093 264.334 358.14 264.504C358.204 264.734 358.236 264.994 358.322 265.215C358.427 265.48 358.473 265.783 358.566 266.056C358.674 266.375 358.823 266.689 358.91 267.016C358.974 267.254 359.084 267.479 359.127 267.723C359.171 267.97 359.227 268.245 359.293 268.484C359.371 268.763 359.401 269.079 359.501 269.347C359.599 269.609 359.634 269.932 359.752 270.181C359.79 270.26 359.834 270.37 359.857 270.455C359.883 270.552 359.857 270.677 359.915 270.76C359.963 270.83 359.98 270.918 360 271" stroke="black" stroke-width="2.5" stroke-linecap="round"/>
<path d="M82.6333 322.096C82.6333 325.396 82.1787 328.056 82.1787 331.356C82.1787 332.394 82.3544 332.813 83.0879 333.587C83.544 334.069 84.0631 335.179 84.6791 335.179H89.2757C90.976 335.179 92.5478 334.951 94.226 334.951C95.0583 334.951 95.4993 334.951 96.2212 335.406C97.0335 335.917 98.2782 335.25 99.1004 334.951C100.724 334.361 102.02 333.749 103.318 332.451C104.747 331.023 106.501 329.875 106.501 327.677C106.501 326.069 106.273 324.48 106.273 322.904C106.273 322.304 105.924 319.638 106.387 319.267C106.531 319.151 107.182 317.776 107.182 317.562C107.182 316.916 107.95 316.55 108.079 315.971C108.359 314.713 108.081 312.868 107.422 311.88C106.822 310.979 104.316 312.038 103.659 312.549C102.984 313.074 101.793 313.653 100.944 313.572C100.316 313.512 99.6985 312.439 99.2267 311.993C98.4579 311.267 96.8576 311.364 95.8676 311.034C94.9067 310.713 93.7955 310.857 92.7863 310.857C91.3299 310.857 90.1805 310.932 88.8843 311.652C87.4756 312.435 85.2339 314.685 84.6791 316.211C84.2963 317.264 83.7153 318.631 83.189 319.608C82.9672 320.02 82.7482 320.512 82.646 320.972C82.5763 321.285 82.6333 321.857 82.6333 322.096Z" fill="#7CC05B" stroke="black" stroke-width="2.5" stroke-linecap="round"/>
<path d="M86.7246 329.269L88.5431 327.45" stroke="black" stroke-width="2.5" stroke-linecap="round"/>
<path d="M100.59 319.04C101.131 318.98 101.272 318.362 101.272 317.903" stroke="black" stroke-width="2.5" stroke-linecap="round"/>
<path d="M73 325.137C73.5411 325.076 73.6819 324.458 73.6819 324" stroke="black" stroke-width="2.5" stroke-linecap="round"/>
<path d="M45.7505 273.423C47.7761 269.291 51.0895 266.613 55.6209 266.069C57.1958 266.069 59.0301 265.827 60.5462 266.249C62.5876 266.816 64.6379 267.543 66.4698 268.678C68.8929 270.18 72.3487 270.965 73.5316 273.856C74.4923 276.205 75.194 278.936 73.9442 281.357C71.8969 285.324 67.8221 287.873 63.3549 287.873C60.307 287.873 57.2578 287.899 54.2099 287.873C52.3723 287.857 50.2742 287.785 48.5525 287.081C47.9012 286.815 47.1332 286.272 46.6357 285.783C46.0075 285.167 45.273 284.572 44.8386 283.8C44.039 282.378 44 281.133 44 279.553C44 277.384 44.8053 275.352 45.7505 273.423Z" fill="white" stroke="black" stroke-width="2.5" stroke-linecap="round"/>
<path d="M62.0639 277.038C63.0171 276.272 64.2148 275.719 65.445 275.653C66.0523 275.653 69.3986 275.609 69.3986 276.252C69.3986 277.212 69.3426 278.052 68.6531 278.742C68.3386 279.056 68.3203 279.395 68.3203 279.847C68.3203 280.511 68.2105 280.655 67.7479 281.071C67.4142 281.372 66.9672 281.63 66.5499 281.79C66.3068 281.884 66.1285 282.125 65.8644 282.243C65.7045 282.314 65.4357 282.404 65.3252 282.542C65.1652 282.742 64.3366 282.632 64.0673 282.782C63.7035 282.984 62.9375 283.201 62.5165 283.201C61.6748 283.201 60.859 283.441 59.994 283.441H58.3234C57.8246 283.441 57.3562 283.449 56.8857 283.314C56.6219 283.239 56.8969 282.025 56.9323 281.83C57.1286 280.75 58.6505 279.735 59.4083 279.001C60.1986 278.236 61.2099 277.724 62.0639 277.038Z" fill="#61011E" stroke="black" stroke-width="2.5" stroke-linecap="round"/>
</svg>
