<svg width="391" height="368" viewBox="0 0 391 368" fill="none" xmlns="http://www.w3.org/2000/svg">
<path d="M92.8744 208.434C94.2879 205.595 96.6002 203.755 99.7625 203.381C100.861 203.381 102.465 202.253 103.523 202.543C104.947 202.932 106.992 202.95 108.271 203.73C109.961 204.761 111.436 206.745 112.261 208.731C112.932 210.345 113.421 212.221 112.549 213.885C111.121 216.61 108.277 218.361 105.16 218.361C103.033 218.361 100.905 218.379 98.7778 218.361C97.4954 218.35 96.0313 218.301 94.8298 217.817C94.3752 217.634 93.8393 217.261 93.4921 216.925C93.0537 216.502 92.5412 216.093 92.2381 215.563C91.68 214.586 91.6528 213.73 91.6528 212.645C91.6528 211.155 92.2148 209.759 92.8744 208.434Z" fill="white" stroke="black" stroke-width="2" stroke-linecap="round"/>
<path d="M111.444 250.967C111.441 251.544 112.01 252.169 111.577 252.495C111.499 253.053 111.501 253.956 111.271 254.448C110.982 255.066 110.405 255.4 109.858 255.813L106.62 258.255L104.711 259.695C104.212 260.071 103.707 260.184 103.206 260.503C101.989 261.277 100.649 261.8 99.2404 262.043C98.509 262.17 97.3099 259.93 96.8845 259.366C95.2045 257.139 93.2565 254.939 92.3023 252.286C91.7595 250.777 91.1663 249.577 91.7558 248.001C92.1184 247.032 93.8075 246.192 94.5881 245.603C96.6038 244.083 98.594 242.283 100.83 241.101C101.637 240.674 102.608 240.489 103.364 239.994C103.83 239.689 104.448 239.83 104.914 240.089C105.891 240.63 106.849 241.537 107.515 242.421L109.522 245.081C109.945 245.643 110.665 246.297 110.912 246.962C111.179 247.684 111.163 248.619 111.32 249.376C111.434 249.925 111.447 250.412 111.444 250.967Z" fill="#FFD9D9" stroke="black" stroke-width="2" stroke-linecap="round"/>
<path d="M146.47 215.563C146.727 215.851 147.193 216.154 147.343 216.508C146.79 217.595 145.443 220.06 144.726 221.1C144.129 221.964 143.465 222.716 142.956 223.65C142.36 224.745 141.766 225.954 141.306 227.109C140.762 228.475 139.947 230.034 139.947 231.527C139.947 232.995 139.89 234.476 139.953 235.944C140.02 237.489 140.632 239.345 141.331 240.722C142.171 242.374 143.182 244.07 144.498 245.4C145.443 246.355 146.651 247.506 148.025 247.777C149.146 247.997 150.205 248.198 151.35 248.287C155.607 248.619 159.841 248.143 163.961 247.13C166.517 246.501 168.867 245.309 170.914 243.683C171.856 242.935 172.915 241.715 173.044 240.448C173.354 237.392 173 234.283 172.399 231.303C171.985 229.251 171.617 227.122 170.806 225.181C170.174 223.667 169.249 222.554 168.076 221.411C165.259 218.665 160.994 215.948 156.887 215.948C156.567 215.948 157.253 215.58 157.355 215.525C158.358 214.989 159.278 214.308 160.117 213.547C160.758 212.965 161.654 212.283 162.109 211.531C162.499 210.885 162.361 209.99 162.361 209.273C162.361 208.155 162.349 205.723 161.103 205.049C160.017 204.46 158.111 205.463 157.267 205.982C155.281 207.202 153.361 208.94 151.919 210.747C151.832 210.857 151.207 211.82 151.04 211.525C150.94 211.346 150.838 211.172 150.731 210.996C150.022 209.833 149.372 208.663 148.316 207.749C147.852 207.347 146.632 206.266 145.914 206.716C145.648 206.883 145.346 207.003 145.092 207.189C144.607 207.544 144.777 208.347 144.479 208.831C143.937 209.712 143.017 210.629 143.537 211.799C143.879 212.566 144.305 213.041 144.903 213.665C145.472 214.26 145.923 214.948 146.47 215.563Z" fill="#FFFF00" stroke="black" stroke-width="2" stroke-linecap="round"/>
<path d="M124.18 48.8541C130.341 38.9717 138.449 30.8493 150.149 28.4059C151.366 27.7964 152.675 27.7469 154.094 27.7469C155.741 27.7469 157.687 27.0322 159.281 26.4288C160.635 25.9159 161.655 25.8091 161.655 24.287V21.4861C161.655 19.0586 160.669 16.7752 160.669 14.4199C160.669 11.4835 160.959 8.12861 162.86 5.77933C164.466 3.79564 167.493 0.506574 170.531 1.78855C171.389 2.15094 172.147 2.3257 172.996 2.70387C174.011 3.15606 174.277 4.13107 175.133 4.60772C176.643 5.44884 178.245 8.10494 179.242 9.64196C181.054 12.4368 182.447 15.6308 184.009 18.5388C184.518 19.4873 185.386 23.7543 186.383 23.7927C187.827 23.8484 189.284 23.7927 190.73 23.7927C193.076 23.7927 197.815 24.9877 197.815 21.6509C197.815 16.8659 196.89 10.2723 201.103 6.98754C202.935 5.55945 204.45 5.33998 206.691 5.33998C208.367 5.33998 211.233 4.97668 212.773 5.83425C215.336 7.26184 217.464 10.4885 218.69 13.0835C219.754 15.3361 220.809 17.3404 221.667 19.6738C222.375 21.6013 223.033 23.2221 223.384 25.2939C223.631 26.7565 224.66 27.047 226.086 27.0879C229.11 27.1745 232.542 28.4724 235.291 29.7972C239.299 31.7289 243.845 32.797 247.527 35.3989C253.328 39.4982 258.993 43.6868 264.073 48.6893C269.236 53.7738 271.966 59.6581 274.666 66.3C277.172 72.4666 278.471 79.1551 280.327 85.5216C281.188 88.4723 282.068 91.4525 282.793 94.4368C283.561 97.6033 285.118 100.622 285.989 103.791C287.021 107.546 286.49 112.392 287.13 116.241C287.907 120.914 286.273 123.374 285.989 128.111C285.413 137.708 280.46 146.734 275.656 155.016C270.96 163.113 265.578 168.162 258.643 174.007C254.568 177.442 252.4 177.899 247.564 179.942C243.674 181.586 240.343 183.364 236.486 185.086C233.525 186.408 230.137 187.41 226.99 188.251C224.202 188.997 219.555 189.922 216.703 189.794C212.997 189.628 210.119 190.256 206.436 189.794C195.101 188.374 181.391 188.184 170.411 185.086C160.985 182.427 153.461 176.62 145.036 171.488C139.552 168.148 135.01 164.331 130.407 159.882C122.469 152.209 115.995 141.444 113.167 130.72C109.535 116.949 110.104 102.914 110.738 88.7801C111.038 82.0832 113.377 75.6041 114.975 69.1558C116.681 62.272 120.436 54.8575 124.18 48.8541Z" fill="#FF774D" stroke="black" stroke-width="2" stroke-linecap="round"/>
<path d="M330.437 54.1746C338.065 56.5122 346.294 56.2147 354.203 56.1945C352.599 56.2222 350.696 56.822 349.13 57.203C347.424 57.6179 345.767 58.1644 344.152 58.8565C342.434 59.5927 341.038 60.7001 339.731 62.0067C338.771 62.9665 337.374 63.6192 336.529 64.6523C335.325 66.1235 333.936 67.1494 332.317 68.0984C331.205 68.7501 329.41 68.4117 328.157 68.4117C327.158 68.4117 326.404 68.1072 325.877 67.1586C325.1 65.7599 324.302 65.9054 322.796 65.9054C318.842 65.9054 312.172 65.1187 309.76 69.1079C308.505 71.1841 307.034 72.9745 306.053 75.1822C305.193 77.1169 305.48 78.4369 303.251 78.4369C299.127 78.4369 297.104 77.2023 293.087 76.6754C291.738 76.4986 290.36 75.7727 291.504 74.3015C292.504 73.0161 289.779 71.3564 289.779 69.8041C287.857 74.1988 285.262 79.2243 283.514 83.6931C283.112 84.7199 282.691 86.0488 282.574 87.1393C282.495 87.8748 281.036 87.5018 280.555 87.4525C275.545 86.9402 270.417 85.6424 265.378 85.6424C264.11 85.6424 264.34 83.6295 263.777 82.7533C262.737 81.136 261.588 79.6292 260.348 78.141C258.772 76.2503 257.283 73.7803 255.005 72.6411C253.47 71.8736 253.125 71.9995 253.125 70.2914C253.125 69.3653 253.152 67.7996 253.595 67.0019C253.926 66.4055 254.341 64.6717 254.378 64.0257C254.488 62.1097 255.053 60.1609 255.562 58.3169C255.918 57.0256 255.623 55.9834 256.397 54.7664C256.87 54.0227 256.614 53.6873 257.668 53.6873C258.387 53.6873 259.09 53.5321 259.774 53.3044C261.466 52.7402 262.93 52.4341 264.717 52.4341C268.545 52.4341 271.365 53.2916 272.305 48.8487C272.968 45.7126 274.166 42.9837 277.422 42.3916C282.89 41.3975 289.155 42.0957 294.722 42.0957C297.385 42.0957 299.995 42.2558 302.624 42.6526C304.62 42.9539 306.967 43.0462 308.855 43.8188C312.603 45.3522 316.401 46.7572 320.168 48.2222C323.91 49.6773 326.588 52.9952 330.437 54.1746Z" fill="white"/>
<path d="M354.943 56.1936C346.809 56.1936 338.303 56.5852 330.437 54.1746C326.588 52.9952 323.91 49.6773 320.168 48.2222C316.401 46.7572 312.603 45.3522 308.855 43.8188C306.967 43.0462 304.62 42.9539 302.624 42.6526C299.995 42.2558 297.385 42.0957 294.722 42.0957C289.155 42.0957 282.89 41.3975 277.422 42.3916C274.165 42.9837 272.968 45.7126 272.305 48.8487C271.365 53.2916 268.545 52.4341 264.717 52.4341C262.93 52.4341 261.466 52.7402 259.774 53.3044C259.09 53.5321 258.387 53.6873 257.668 53.6873C256.614 53.6873 256.87 54.0227 256.397 54.7664C255.623 55.9834 255.918 57.0256 255.562 58.3169C255.053 60.1609 254.488 62.1097 254.378 64.0257C254.341 64.6717 253.926 66.4055 253.595 67.0019C253.152 67.7996 253.125 69.3653 253.125 70.2914C253.125 71.9995 253.47 71.8736 255.005 72.6411C257.283 73.7803 258.772 76.2503 260.348 78.141C261.588 79.6292 262.737 81.136 263.777 82.7533C264.34 83.6295 264.11 85.6424 265.378 85.6424C270.417 85.6424 275.545 86.9402 280.555 87.4525C281.036 87.5018 282.495 87.8748 282.574 87.1393C282.691 86.0488 283.112 84.7199 283.514 83.6931C285.262 79.2243 287.857 74.1988 289.779 69.8041M289.779 69.8041C289.779 68.0296 289.472 66.7981 289.17 65.1396C288.995 64.1777 287.948 64.9402 287.273 64.5827C286.362 64.5827 276.749 62.146 275.838 62.146C274.249 62.146 274.252 65.542 273.645 66.6886C272.778 68.3266 272.155 69.9244 271.122 71.475M289.779 69.8041C289.779 71.3564 292.504 73.0161 291.504 74.3015C290.36 75.7727 291.738 76.4986 293.087 76.6754C297.104 77.2023 299.127 78.4369 303.251 78.4369C305.48 78.4369 305.193 77.1169 306.053 75.1822C307.034 72.9745 308.505 71.1841 309.76 69.1079C312.172 65.1187 318.842 65.9054 322.796 65.9054C324.302 65.9054 325.1 65.7599 325.877 67.1586C326.404 68.1072 327.158 68.4117 328.157 68.4117C329.41 68.4117 331.205 68.7501 332.317 68.0984C333.936 67.1494 335.325 66.1235 336.529 64.6523C337.374 63.6192 338.771 62.9665 339.731 62.0067C341.038 60.7001 342.434 59.5927 344.152 58.8565C345.767 58.1644 347.424 57.6179 349.13 57.203C350.734 56.8129 352.689 56.1936 354.316 56.1936" stroke="black" stroke-width="2" stroke-linecap="round"/>
<path d="M128.043 146.346C131.785 147.801 153.156 154.147 157.005 155.327C155.299 155.741 153.642 156.288 152.027 156.98C150.309 157.716 148.913 158.824 147.606 160.13C146.646 161.09 131.517 162.996 130.671 164.029C126.717 164.029 120.047 163.242 117.635 167.231C116.38 169.308 114.909 171.098 113.928 173.306C113.068 175.24 113.355 176.56 111.126 176.56C107.002 176.56 104.979 175.326 100.962 174.799C99.7994 174.647 98.6148 174.086 99.0425 172.992C97.4002 175.471 90.5542 184.28 90.4489 185.263C90.3701 185.998 88.9112 185.625 88.4299 185.576C83.4202 185.064 78.2917 183.766 73.253 183.766C71.9853 183.766 72.215 181.753 71.6517 180.877C70.612 179.26 69.4631 177.753 68.223 176.265C66.6474 174.374 65.1582 171.904 62.8797 170.765C61.3448 169.997 61 170.123 61 168.415C61 167.489 61.0268 165.923 61.4699 165.125C61.8013 164.529 62.2162 162.795 62.2531 162.149C62.3626 160.233 62.928 158.284 63.4367 156.44C63.7929 155.149 63.4976 154.107 64.2721 152.89C64.7453 152.146 64.4895 151.811 65.5426 151.811C66.2624 151.811 66.9654 151.656 67.6486 151.428C69.3411 150.864 70.805 150.558 72.5916 150.558C76.4205 150.558 79.2402 151.415 80.1801 146.972C80.8435 143.836 82.0405 141.107 85.2971 140.515C90.7646 139.521 97.03 140.219 102.597 140.219C105.26 140.219 107.87 140.379 110.499 140.776C112.495 141.077 114.842 141.17 116.73 141.942C120.478 143.476 124.276 144.881 128.043 146.346Z" fill="white"/>
<path d="M99.379 172.425C98.9772 173.452 90.5657 184.172 90.4489 185.263C90.3701 185.998 88.9112 185.625 88.4299 185.576C83.4202 185.064 78.2917 183.766 73.253 183.766C71.9853 183.766 72.215 181.753 71.6517 180.877C70.612 179.26 69.4631 177.753 68.223 176.265C66.6474 174.374 65.1582 171.904 62.8797 170.765C61.3448 169.997 61 170.123 61 168.415C61 167.489 61.0268 165.923 61.4699 165.125C61.8013 164.529 62.2162 162.795 62.2531 162.149C62.3626 160.233 62.928 158.284 63.4367 156.44C63.7929 155.149 63.4976 154.107 64.2721 152.89C64.7453 152.146 64.4895 151.811 65.5426 151.811C66.2624 151.811 66.9654 151.656 67.6486 151.428C69.3411 150.864 70.805 150.558 72.5916 150.558C76.4205 150.558 79.2402 151.415 80.1801 146.972C80.8435 143.836 82.0405 141.107 85.2971 140.515C90.7646 139.521 97.03 140.219 102.597 140.219C105.26 140.219 107.87 140.379 110.499 140.776C112.495 141.077 114.842 141.17 116.73 141.942C120.478 143.476 124.276 144.881 128.043 146.346C131.785 147.801 153.156 154.147 157.005 155.327C155.299 155.741 153.642 156.288 152.027 156.98C150.309 157.716 148.913 158.824 147.606 160.13C146.646 161.09 131.517 162.996 130.671 164.029C126.717 164.029 120.047 163.242 117.635 167.231C116.38 169.308 114.909 171.098 113.928 173.306C113.068 175.24 113.355 176.56 111.126 176.56C107.002 176.56 104.979 175.326 100.962 174.799C99.6133 174.622 98.2347 173.896 99.379 172.425ZM99.379 172.425C99.2041 171.463 95.8235 163.064 95.1482 162.706C94.2373 162.706 84.6241 160.27 83.7132 160.27C82.124 160.27 79.6036 161.629 78.9965 162.776C78.1294 164.414 80.0303 168.048 78.9965 169.598" stroke="black" stroke-width="2" stroke-linecap="round"/>
<path d="M175.967 61.8125C178.748 61.8125 180.139 63.7383 180.139 67.5898V68.2344C180.139 71.6562 178.643 74.7578 175.651 77.5391C177.362 77.5391 178.217 77.6445 178.217 77.8555L178.85 77.5391C179.084 77.5391 179.408 77.6445 179.822 77.8555L181.744 77.5391C182.596 78.6172 183.022 79.2578 183.022 79.4609C182.678 80.5312 182.037 81.0664 181.1 81.0664L180.455 80.7383C180.244 80.7383 180.139 80.8477 180.139 81.0664C178.342 80.8477 175.135 80.6328 170.518 80.4219L170.19 78.8164V78.1719C174.901 74.2812 177.256 71.2891 177.256 69.1953V66.9453C177.256 65.8359 176.932 65.1953 176.283 65.0234H174.678C173.686 65.0234 172.405 66.0938 170.834 68.2344H170.19C169.658 68.2344 169.338 67.8047 169.229 66.9453C170.268 63.5234 172.084 61.8125 174.678 61.8125H175.967ZM192.373 61.4961C196.655 63.332 198.795 66.4336 198.795 70.8008V72.0781C198.795 74.4766 196.869 76.5078 193.018 78.1719H191.729C187.885 76.8906 185.963 75.5 185.963 74C185.401 74 184.971 73.1445 184.674 71.4336V68.8672C185.315 64.1641 187.455 61.8125 191.096 61.8125C191.197 61.8125 191.623 61.707 192.373 61.4961ZM187.557 69.5117V70.4727C187.557 72.0742 188.947 73.5742 191.729 74.9727C194.51 74.6289 195.901 73.3438 195.901 71.1172V70.4727C195.901 68.6367 194.94 66.9258 193.018 65.3398C191.463 64.4883 190.608 64.0625 190.451 64.0625C189.155 64.0625 188.19 65.8789 187.557 69.5117ZM207.186 61.8125C209.967 61.8125 211.358 63.7383 211.358 67.5898V68.2344C211.358 71.6562 209.862 74.7578 206.869 77.5391C208.58 77.5391 209.436 77.6445 209.436 77.8555L210.069 77.5391C210.303 77.5391 210.627 77.6445 211.041 77.8555L212.963 77.5391C213.815 78.6172 214.24 79.2578 214.24 79.4609C213.897 80.5312 213.256 81.0664 212.319 81.0664L211.674 80.7383C211.463 80.7383 211.358 80.8477 211.358 81.0664C209.561 80.8477 206.354 80.6328 201.737 80.4219L201.408 78.8164V78.1719C206.119 74.2812 208.475 71.2891 208.475 69.1953V66.9453C208.475 65.8359 208.151 65.1953 207.502 65.0234H205.897C204.905 65.0234 203.623 66.0938 202.053 68.2344H201.408C200.877 68.2344 200.557 67.8047 200.447 66.9453C201.487 63.5234 203.303 61.8125 205.897 61.8125H207.186ZM220.381 59.2461H222.315C224.08 59.2461 225.256 60.5273 225.842 63.0898V64.3789C225.842 65.1523 225.412 66.0078 224.553 66.9453C226.694 68.6562 227.764 70.4766 227.764 72.4062C226.623 76.8984 224.377 79.1445 221.026 79.1445H220.065C218.143 79.1445 217.072 78.2891 216.854 76.5781V76.25C216.854 75.9453 217.174 75.625 217.815 75.2891C220.033 75.5 221.319 75.6055 221.67 75.6055C223.592 75.1055 224.553 73.8242 224.553 71.7617C224.553 70.9023 223.807 70.2617 222.315 69.8398C220.627 70.4805 219.557 70.8008 219.104 70.8008C218.244 70.8008 217.709 70.2656 217.498 69.1953C218.576 67.4609 220.072 66.1758 221.987 65.3398L222.947 64.0625C222.947 62.7734 221.987 62.1289 220.065 62.1289H219.748C219.748 62.4023 219.104 62.9375 217.815 63.7344H216.537C216.537 63.3047 216.322 63.0898 215.893 63.0898V62.1289C215.893 61.3008 217.389 60.3398 220.381 59.2461ZM171.209 84.4414C172.92 84.4414 173.776 86.0469 173.776 89.2578C173.994 89.2578 174.104 89.3633 174.104 89.5742C176.237 89.3633 177.838 89.2578 178.908 89.2578H179.869L180.186 90.8516V92.1406C178.905 92.2969 178.264 92.5117 178.264 92.7852C178.694 94.168 178.908 95.1289 178.908 95.668V95.9844C178.908 97.9141 177.307 99.1992 174.104 99.8398C170.893 99.043 169.287 97.4375 169.287 95.0234V94.3789L169.604 93.7461C167.041 93.7461 165.76 92.9961 165.76 91.4961V90.5352C166.096 90.5352 166.522 90.3203 167.037 89.8906H170.565L169.932 86.0469C170.346 85.0703 170.772 84.5352 171.209 84.4414ZM172.498 94.707V95.0234C172.498 95.3281 172.819 95.6484 173.459 95.9844H174.737C175.166 95.9844 175.381 95.7734 175.381 95.3516C175.381 94.9219 175.166 94.707 174.737 94.707H172.498ZM180.186 100.156C181.256 100.156 181.791 101.227 181.791 103.367H181.475C181.115 103.789 177.268 104.32 169.932 104.961C168.862 104.539 168.326 103.898 168.326 103.039C168.326 101.547 170.358 100.801 174.42 100.801V101.117L180.186 100.156ZM179.553 105.605C181.045 105.605 181.791 107.531 181.791 111.383C181.518 112.453 181.197 112.988 180.83 112.988H178.908L178.264 110.738V109.133C174.655 109.773 172.518 110.094 171.854 110.094L170.565 107.855C170.994 107.855 171.424 107.426 171.854 106.566C175.244 105.926 177.811 105.605 179.553 105.605ZM206.201 92.7852H207.162C207.162 93.1133 207.377 93.5391 207.807 94.0625V97.9062C207.807 98.8828 208.127 101.234 208.768 104.961C208.354 105.938 207.924 106.473 207.479 106.566H206.846C205.932 106.566 205.182 103.574 204.596 97.5898H204.924L204.596 96.9453C204.815 94.1719 205.35 92.7852 206.201 92.7852ZM189.526 93.418C191.877 93.5742 193.053 94.2148 193.053 95.3398C193.373 95.1289 194.764 94.918 197.225 94.707C198.936 96.3633 199.791 98.9297 199.791 102.406V103.039C199.791 104.148 199.471 104.789 198.83 104.961H197.541C196.901 104.961 196.475 102.824 196.264 98.5508H194.33C194.026 98.5508 193.705 98.8711 193.369 99.5117V99.8398C193.369 100.957 193.479 102.773 193.697 105.289L192.408 106.25H191.776C190.916 106.25 190.381 104.754 190.17 101.762L190.487 99.8398V97.5898C190.487 97.1602 190.166 96.9453 189.526 96.9453C189.057 96.9453 187.451 97.1602 184.709 97.5898C183.858 97.3789 183.432 96.7383 183.432 95.668C183.432 94.168 185.248 93.418 188.881 93.418H189.526ZM214.58 89.5977C218.635 89.5977 220.662 91.8398 220.662 96.3242C220.662 98.4102 219.166 99.7969 216.174 100.484C213.276 100.484 211.354 98.457 210.408 94.4023C210.408 92.2773 211.479 90.7812 213.619 89.9141C214.26 89.9141 214.58 89.8086 214.58 89.5977ZM213.619 94.0742C214.088 95.4102 214.94 96.4805 216.174 97.2852C217.033 96.9648 217.463 96.6445 217.463 96.3242V95.6797C217.463 94.0469 217.033 93.0859 216.174 92.7969H214.58C214.041 92.7969 213.721 93.2227 213.619 94.0742ZM228.362 93.1133H228.678C229.272 93.1133 229.807 95.1445 230.283 99.207H229.955C230.815 104.824 231.244 108.031 231.244 108.828C230.416 109.469 229.776 109.789 229.322 109.789C228.041 109.789 227.401 107.543 227.401 103.051C226.971 98.6758 226.541 96.0039 226.112 95.0352C226.112 93.7539 226.862 93.1133 228.362 93.1133ZM217.463 104.012L218.096 104.34L219.385 104.012C222.158 104.176 223.545 104.391 223.545 104.656L223.873 105.934C223.873 106.793 223.123 107.438 221.623 107.867L218.424 107.539H215.858L213.619 107.867C213.619 107.648 213.51 107.539 213.291 107.539C213.291 107.758 213.186 107.867 212.975 107.867C212.975 107.438 212.334 107.008 211.053 106.578V105.301C211.053 104.988 211.373 104.668 212.014 104.34H215.541L217.463 104.012ZM146.002 122.141C146.369 122.141 147.01 122.355 147.924 122.785C148.112 122.785 148.967 122.676 150.49 122.457C155.405 122.457 157.862 123.633 157.862 125.984C157.862 126.867 157.971 127.723 158.19 128.551C158.19 133.684 157.014 136.25 154.662 136.25H152.729C148.666 136.25 146.635 134.969 146.635 132.406C145.783 127.969 145.358 125.082 145.358 123.746C145.787 123.051 146.002 122.516 146.002 122.141ZM162.678 122.141H163.955C163.955 122.461 164.276 122.887 164.916 123.418V128.879C168.557 129.223 170.377 129.863 170.377 130.801V131.762C170.377 132.066 170.053 132.387 169.405 132.723C167.592 132.723 166.205 132.508 165.244 132.078C165.244 132.297 165.135 132.406 164.916 132.406L165.244 133.039V135.934C165.244 136.145 165.135 136.25 164.916 136.25L165.244 136.895V137.855C165.244 138.145 164.709 138.68 163.639 139.461C162.358 139.016 161.717 138.16 161.717 136.895V124.062C161.85 122.781 162.17 122.141 162.678 122.141ZM148.885 125.984C149.401 130.477 149.936 132.723 150.49 132.723C152.381 132.934 153.557 133.039 154.018 133.039C154.447 132.203 154.662 131.027 154.662 129.512V129.195L154.334 125.984C154.123 125.984 154.018 126.094 154.018 126.312L152.412 125.984H148.885ZM174.28 117.324H174.596C174.807 120.965 175.127 122.785 175.557 122.785C176.221 122.785 178.252 122.676 181.651 122.457V120.219L182.295 117.969C183.576 117.969 184.217 118.609 184.217 119.891V122.457H184.533C187.182 122.246 188.572 122.141 188.705 122.141V119.574C188.705 119.27 189.026 118.949 189.666 118.613H191.272C191.701 120.316 191.916 122.348 191.916 124.707V130.801C191.916 132.293 191.166 133.039 189.666 133.039C189.447 133.039 189.022 132.613 188.389 131.762L188.705 128.551V125.668L188.389 125.023C185.397 125.516 183.901 125.836 183.901 125.984C182.674 129.836 180.748 131.762 178.123 131.762L177.479 131.434L176.834 131.762C173.842 131.02 172.346 129.523 172.346 127.273C172.135 125.219 172.03 122.973 172.03 120.535V119.574C172.03 118.074 172.78 117.324 174.28 117.324ZM175.557 125.668C175.557 125.879 175.451 125.984 175.24 125.984C175.623 127.695 176.479 128.551 177.807 128.551C179.479 128.066 180.545 127.32 181.006 126.312V125.668H180.045C179.28 125.668 178.319 125.773 177.162 125.984C176.811 125.773 176.276 125.668 175.557 125.668ZM186.139 133.039H187.428C187.983 133.039 188.408 133.789 188.705 135.289C188.174 142.555 186.783 146.188 184.533 146.188H181.334C178.858 146.188 177.252 142.555 176.518 135.289C176.518 134.43 176.947 133.789 177.807 133.367H178.768C179.408 133.367 179.944 134.969 180.373 138.172H185.494C185.494 137.523 185.604 136.777 185.822 135.934V134C186.033 134 186.139 133.68 186.139 133.039ZM181.006 141.055V141.699C181.006 142.035 181.436 142.465 182.295 142.988H183.901C184.541 142.77 184.862 142.125 184.862 141.055L184.217 141.383H181.651L181.006 141.055ZM208.627 118.602V118.93L209.272 118.602H209.6C210.795 118.602 211.541 119.137 211.838 120.207C211.58 121.707 211.045 122.457 210.233 122.457L207.994 122.129C207.619 122.348 207.19 122.457 206.705 122.457V123.09C206.705 124.809 207.346 125.668 208.627 125.668C210.065 125.668 211.244 125.988 212.166 126.629L211.838 123.734C211.838 121.273 212.908 119.883 215.049 119.562H216.971C217.19 119.562 217.299 119.672 217.299 119.891L217.944 119.562H219.537C219.85 119.562 220.174 119.883 220.51 120.523V121.168C220.51 122.668 219.655 123.418 217.944 123.418C216.412 123.199 215.557 123.09 215.377 123.09V125.023C215.377 126.305 216.338 126.945 218.26 126.945C218.565 126.945 218.885 127.266 219.221 127.906V128.234C219.221 129.383 218.795 130.129 217.944 130.473H215.694C213.928 130.473 212.752 129.297 212.166 126.945H211.838C211.838 128.656 211.518 129.512 210.877 129.512H209.916C205.424 129.512 203.178 127.695 203.178 124.062V122.129C203.178 121.621 203.498 120.66 204.139 119.246L204.783 119.562V118.93H207.033L208.627 118.602ZM226.604 119.562H226.92C227.256 119.562 227.686 119.992 228.209 120.852C228.42 125.055 228.526 127.836 228.526 129.195H228.209C228.209 129.406 228.315 129.512 228.526 129.512C228.526 130.074 228.205 131.25 227.565 133.039H225.959C225.623 133.039 225.197 132.613 224.682 131.762C224.682 131.277 224.787 130.848 224.998 130.473L224.682 129.828C224.893 128.672 224.998 127.711 224.998 126.945H220.826C220.49 126.945 220.061 126.52 219.537 125.668V125.34C219.678 124.059 220.002 123.418 220.51 123.418H222.115C222.326 123.418 222.432 123.523 222.432 123.734L223.076 123.418H224.682C224.682 122.988 224.787 122.773 224.998 122.773L224.682 122.129V121.496C224.682 120.207 225.322 119.562 226.604 119.562ZM215.694 134.973L223.076 135.934C224.147 136.73 224.682 138.012 224.682 139.777C224.682 143.16 223.826 144.98 222.115 145.238C221.045 144.941 220.51 144.191 220.51 142.988V142.672C220.51 142.469 220.721 141.613 221.143 140.105V139.145H220.826L216.338 138.816L215.694 139.145C214.412 138.59 213.772 137.84 213.772 136.895C213.983 136.48 214.088 136.16 214.088 135.934C213.877 135.934 213.772 135.824 213.772 135.605C215.053 135.457 215.694 135.246 215.694 134.973ZM238.182 117.992L239.143 119.281L238.826 122.48C241.389 124.73 242.67 126.438 242.67 127.602V128.246L241.065 128.574C239.143 127.488 238.182 126.418 238.182 125.363H237.549C237.057 127.504 236.307 128.574 235.299 128.574C234.737 128.574 234.205 128.039 233.705 126.969C235.197 123.805 235.944 121.883 235.944 121.203V120.559C235.553 120.77 234.057 121.09 231.455 121.52C231.088 121.309 230.662 121.203 230.178 121.203V119.914C230.178 118.953 232.846 118.312 238.182 117.992ZM247.791 119.914H248.119C249.705 119.914 250.666 121.625 251.002 125.047C251.002 125.695 251.108 126.441 251.319 127.285H251.002C251.424 128.598 251.635 129.453 251.635 129.852C251.315 130.703 250.994 131.129 250.674 131.129H249.397C248.498 131.129 247.858 127.711 247.475 120.875C247.686 120.461 247.791 120.141 247.791 119.914ZM246.83 132.734C247.643 132.734 248.283 133.801 248.752 135.934V138.816C248.752 142.238 247.686 143.949 245.553 143.949L245.869 143.305C244.541 143.945 243.58 144.266 242.987 144.266C241.494 144.266 240.748 143.945 240.748 143.305L240.104 143.621H239.787L240.104 142.988L239.471 143.305H239.143L237.865 135.301C238.295 134.605 238.51 134.07 238.51 133.695H239.787C240.459 133.695 240.994 134.977 241.393 137.539C241.604 137.328 243.205 137.113 246.197 136.895L245.869 134.656C246.088 133.375 246.408 132.734 246.83 132.734ZM241.709 140.105V140.422C241.709 140.727 242.03 141.047 242.67 141.383H244.276L245.869 141.066V139.145H244.908L245.237 139.777H244.592V139.145L241.709 140.105Z" fill="black"/>
<path d="M152.242 222.191C152.898 222.191 153.272 222.815 153.363 224.064V224.625C154.384 224.625 155.817 224.499 157.663 224.249C157.663 224.372 157.725 224.433 157.848 224.433C157.939 222.938 158.189 222.191 158.6 222.191H159.16C159.534 222.191 159.721 222.877 159.721 224.249C159.721 226.942 158.723 228.5 156.726 228.924C156.854 230.027 156.918 230.713 156.918 230.982H159.721C160.468 231.059 160.842 231.246 160.842 231.542V232.288C160.842 232.465 160.655 232.652 160.281 232.848H157.478L156.166 233.033V232.848L155.79 233.033H152.427C151.802 232.787 151.49 232.351 151.49 231.727C151.49 231.549 151.677 231.362 152.051 231.167H155.045V230.23L154.86 229.293C154.983 229.293 155.045 229.232 155.045 229.109C152.803 229.109 151.682 228.175 151.682 226.306L151.306 223.312C151.429 222.565 151.741 222.191 152.242 222.191ZM153.548 226.491V226.675C153.589 226.926 153.714 227.051 153.924 227.051C156.294 227.051 157.478 226.739 157.478 226.115H157.287C156.471 226.115 155.225 226.24 153.548 226.491ZM153.739 234.161H157.478C158.6 234.161 159.16 234.721 159.16 235.842C159.005 238.458 158.506 239.766 157.663 239.766C157.093 239.525 156.781 239.276 156.726 239.021L157.287 236.027H155.045C153.422 236.027 152.611 235.653 152.611 234.906C152.739 234.409 153.115 234.161 153.739 234.161Z" fill="black"/>
<path d="M165.913 36.4434C165.913 34.602 168.348 34.0281 169.809 34.0281C170.586 34.0281 171.652 33.8776 172.38 34.2012C172.627 34.3109 172.963 34.4956 173.237 34.4956" stroke="black" stroke-width="2" stroke-linecap="round"/>
<path d="M175.373 40.979C175.762 41.6657 176.144 42.2529 176.904 42.5702C177.563 42.8453 178.367 42.8155 179.071 42.7729C179.543 42.7442 179.913 42.5614 180.316 42.3406C180.462 42.2611 180.84 42.1527 180.916 42.0002" stroke="black" stroke-width="2" stroke-linecap="round"/>
<path d="M183.882 35.1925C184.006 34.8946 184.579 34.5845 184.839 34.4144C185.173 34.1955 185.532 34.0254 185.936 34.0254C186.289 34.0254 186.591 34.1891 186.924 34.2901C187.858 34.5728 188.845 34.5906 189.799 34.7791C190.213 34.8611 190.464 35.035 190.763 35.2681C191.014 35.4635 191.283 35.6301 191.614 35.6301" stroke="black" stroke-width="2" stroke-linecap="round"/>
<path d="M182.914 239.861C183.128 240.075 183.759 240.321 183.796 240.659C184.27 240.896 185.473 241.519 185.824 241.921C186.463 242.652 187.271 243.222 188.016 243.827C188.839 244.495 190.212 244.577 191.232 244.832C192.971 245.267 194.761 245.408 196.499 245.893C198.076 246.333 199.656 246.829 201.25 247.202C202.675 247.536 204.209 248.01 205.676 248.01C206.415 248.01 207.135 247.866 207.86 247.721L207.939 247.705C209.438 247.405 210.938 247.008 212.417 246.617L212.581 246.573C215.17 245.889 217.634 244.73 220.003 243.489C222.261 242.307 224.609 241.194 227.03 240.386C228.825 239.788 230.647 239.264 232.448 238.682L232.512 238.661C233.821 238.238 235.142 237.811 236.494 237.546C238.066 237.238 239.574 237.194 241.169 237.194C241.551 237.194 242.133 237.085 242.503 237.208C242.659 237.26 242.606 237.544 242.606 237.668C242.606 238.231 242.652 238.817 242.484 239.363C242.169 240.387 241.526 241.362 240.916 242.227C239.051 244.869 237.025 247.38 234.644 249.587C232.75 251.344 230.776 253.087 228.664 254.582C228.484 254.709 228.157 254.819 228.157 255.075C228.157 255.423 228.015 255.745 227.955 256.084C227.746 257.27 227.819 258.589 227.819 259.792C227.819 261.965 227.799 264.108 227.608 266.275C227.389 268.753 227.229 271.155 226.608 273.575C226.479 274.078 225.74 273.866 225.317 273.866H222.669H210.277C205.603 273.866 200.951 273.794 196.292 273.425C193.55 273.207 190.775 273.03 188.063 272.547C185.968 272.173 183.912 271.593 181.825 271.181C181.067 271.031 180.189 270.672 179.628 270.11C179.44 269.923 179.487 269.698 179.487 269.453C179.487 268.858 179.555 268.261 179.571 267.66C179.59 266.962 179.759 266.273 179.825 265.58C179.943 264.34 180.078 263.104 180.078 261.858V257.741L180.078 257.715C180.079 257.023 180.079 256.412 179.825 255.755C179.645 255.29 179.273 255.1 178.98 254.704C178.093 253.506 176.578 252.951 175.469 252C174.595 251.251 173.83 250.207 173.154 249.282C172.218 248 171.561 246.567 170.831 245.165C169.633 242.864 168.418 240.341 168.418 237.701C168.418 236.787 168.272 234.947 169.282 234.49C169.558 234.366 169.752 234.152 170.066 234.152C170.441 234.152 170.824 234.133 171.197 234.171C172.006 234.254 172.731 234.238 173.488 234.575C174.435 234.996 175.34 235.537 176.304 235.927C177.912 236.577 179.594 237.19 181.008 238.227C181.682 238.722 182.323 239.27 182.914 239.861Z" fill="#AFAFAF" stroke="black" stroke-width="2" stroke-linecap="round"/>
<path d="M187.072 211.173C187.264 211.758 187.752 214.347 188.748 214.458C186.527 215.015 185.094 218.767 184.213 220.535C182.522 223.928 183.214 228.639 183.214 232.348C183.214 236.568 184.039 239.882 186.673 243.328C188.756 246.054 190.374 248.151 193.329 249.991C196.557 252.001 199.474 252.211 203.167 252.211C205.854 252.211 208.793 252.538 211.468 252.181C213.181 251.951 215.042 251.143 216.633 250.484C218.582 249.677 220.208 248.755 221.737 247.276C223.179 245.881 223.707 244.618 224.484 242.758L224.504 242.711C226.485 237.972 226.932 233.432 226.932 228.323C226.932 225.823 227.339 222.362 225.411 220.427C224.677 219.69 224.092 218.772 223.397 218.005C222.844 217.395 221.846 216.265 221.46 215.569C220.908 214.572 219.355 212.907 218.355 212.238C218.355 203.452 218.545 193.815 218.355 185.033C218.272 181.207 216.511 177.769 215.926 174.053L215.921 174.02C215.762 173.011 215.451 171.03 214.204 170.891C213.001 170.757 211.853 171.03 210.669 171.153C209.609 171.263 208.979 174.055 208.67 174.778C206.066 180.873 204.52 187.902 204.52 194.549V204.002C204.52 204.585 204.91 208.378 204.089 208.613C202.827 208.975 200.876 208.7 199.585 208.613C198.61 208.548 198.482 208.359 198.432 207.518C198.386 206.732 197.82 205.213 197.541 204.403C196.887 202.507 197.096 200.373 196.603 198.45C195.995 196.079 195.236 193.734 194.62 191.356C193.841 188.351 193.641 185.196 192.898 182.165C192.072 178.79 191.374 175.398 190.439 172.048C190.03 170.584 189.421 166.99 187.856 166.28C185.066 165.014 182.305 170.573 181.677 172.356C180.612 175.379 181.277 179.39 181.277 182.55C181.277 186.823 181.615 190.772 182.445 194.965C183.529 200.438 185.333 205.872 187.072 211.173Z" fill="#AFAFAF" stroke="black" stroke-width="2" stroke-linecap="round"/>
<path d="M210.909 238.789C210.911 238.852 210.94 239.059 210.88 239.097C211.005 239.474 211.142 240.082 211.142 240.478C211.142 241.222 211.414 241.75 211.142 242.457C210.96 242.929 210.76 243.714 210.35 244.039C210.021 244.301 209.157 244.689 208.768 244.831C208.163 245.051 207.823 245.226 207.185 245.226C206.27 245.226 204.902 244.748 204.236 243.992C203.677 243.359 203.332 242.435 203.264 241.6C203.179 240.539 203.247 239.428 203.476 238.392C203.615 237.766 203.813 237.155 204.218 236.647C204.446 236.361 204.735 236 205.089 235.872C205.592 235.689 206.254 235.722 206.785 235.761C207.006 235.777 207.219 235.861 207.423 235.938C207.814 236.086 208.206 236.236 208.592 236.398C209.084 236.607 209.535 236.918 209.913 237.296C210.232 237.615 210.554 237.945 210.76 238.352C210.827 238.484 210.905 238.639 210.909 238.789Z" fill="white" stroke="black" stroke-width="2" stroke-linecap="round"/>
<path d="M188.985 229.4C188.859 228.554 189.621 226.965 190.155 226.321C190.555 225.927 190.895 225.36 191.359 225.047C191.751 224.783 192.146 224.501 192.546 224.256C192.7 224.161 193.17 223.947 193.337 223.86C193.829 223.604 194.376 223.499 194.92 223.465C195.711 223.465 195.711 223.465 196.503 223.86C197.052 223.945 197.609 224.276 198.117 224.512C198.901 224.875 199.543 225.638 200.131 226.252C200.768 226.917 201.201 227.857 201.368 228.762C201.427 229.082 201.374 229.469 201.368 229.795C201.358 230.285 201.257 230.755 201.025 231.175C200.707 231.751 200.527 232.504 200.063 232.961C199.681 233.339 199.301 233.815 198.877 234.148C198.021 234.819 196.758 235.057 195.715 235.381C194.988 235.607 194.338 235.676 193.337 235.335C192.21 234.95 191.117 234.425 190.349 233.521C189.731 232.793 189.163 232.169 188.985 231.044C188.788 230.501 189.071 229.973 188.985 229.4Z" fill="white" stroke="black" stroke-width="2" stroke-linecap="round"/>
<path d="M208.558 222.095C209.17 221.53 210.673 221.001 211.548 220.753C212.651 220.606 213.12 220.695 214.103 220.788C215.099 221.091 216.428 220.753 218.239 223.465C219.846 226.63 219.326 227.024 219.186 228.193C219.056 229.282 218.825 230.379 218.239 231.316C217.769 232.068 217.128 232.738 216.428 233.282C215.583 233.939 214.619 233.995 213.591 233.995C212.397 233.995 211.294 233.674 210.175 233.282C209.279 232.969 208.445 232.527 207.776 231.842C206.999 231.047 206.682 229.851 206.467 228.786C206.357 228.239 206.397 227.65 206.424 227.096C206.445 226.652 206.448 226.24 206.565 225.808C206.831 224.822 207.266 223.852 207.831 222.999C208.042 222.679 208.276 222.356 208.558 222.095Z" fill="white" stroke="black" stroke-width="2" stroke-linecap="round"/>
<path d="M194.929 224.422C195.133 224.558 195.341 224.686 195.493 224.881C195.559 224.965 195.621 225.052 195.682 225.14C195.756 225.244 195.811 225.359 195.871 225.47C195.944 225.604 196.005 225.743 196.055 225.887C196.112 226.052 196.188 226.211 196.227 226.382C196.314 226.758 196.294 227.15 196.288 227.534C196.285 227.779 196.211 228.022 196.159 228.26C196.097 228.542 196.005 228.82 195.913 229.094C195.806 229.412 195.627 229.713 195.366 229.923C195.193 230.062 195.012 230.186 194.836 230.32C194.655 230.457 194.468 230.596 194.261 230.692C193.873 230.873 193.464 230.987 193.06 231.12C192.751 231.221 192.437 231.273 192.116 231.327C191.779 231.383 191.445 231.454 191.102 231.472C190.961 231.48 190.819 231.476 190.678 231.476C190.621 231.476 190.573 231.459 190.565 231.532C190.548 231.683 190.609 231.832 190.682 231.959C190.857 232.267 191.041 232.566 191.264 232.84C191.765 233.455 192.336 234.144 193.089 234.456C193.253 234.524 193.442 234.568 193.617 234.591C193.785 234.613 193.932 234.662 194.092 234.715C194.128 234.727 194.157 234.74 194.189 234.756C194.189 234.756 194.156 234.564 194.153 234.55C194.089 234.294 194.04 234.038 194.04 233.773C194.04 233.361 194.164 232.971 194.255 232.574C194.367 232.087 194.465 231.592 194.609 231.113C194.73 230.71 194.847 230.311 195.107 229.975C195.349 229.663 195.659 229.456 196.022 229.304C196.471 229.117 196.959 229.118 197.431 229.033C197.87 228.954 198.322 228.947 198.767 228.952C198.89 228.954 198.989 228.996 199.1 229.046C199.244 229.109 199.392 229.163 199.536 229.227C199.559 229.237 199.778 229.358 199.795 229.337C199.836 229.288 199.803 229.04 199.792 228.981C199.7 228.487 199.258 228.116 198.92 227.782C198.73 227.594 198.528 227.404 198.379 227.183C198.254 226.999 198.16 226.793 198.032 226.61C198.017 226.589 197.899 226.383 197.865 226.403C197.842 226.417 197.837 226.449 197.825 226.473C197.771 226.583 197.716 226.692 197.654 226.798C197.545 226.986 197.42 227.165 197.295 227.343C197.107 227.61 196.962 227.886 196.799 228.167C196.591 228.523 196.358 228.865 196.126 229.206C195.848 229.614 195.594 230.034 195.301 230.433C195.028 230.805 194.724 231.159 194.419 231.505C194.162 231.796 193.913 232.085 193.608 232.328C193.417 232.48 193.261 232.671 193.064 232.815C192.914 232.924 192.802 233.072 192.661 233.191C192.532 233.299 192.424 233.433 192.309 233.556C192.279 233.587 192.212 233.761 192.31 233.707C192.452 233.628 192.589 233.524 192.713 233.421C192.75 233.39 192.795 233.366 192.81 233.32" stroke="black" stroke-width="2" stroke-linecap="round"/>
<path d="M212.875 221.007C213.297 221.464 213.695 221.879 213.907 222.466C213.988 222.691 214.047 222.91 214.072 223.147C214.121 223.605 214.092 224.083 213.963 224.524C213.774 225.175 213.49 225.795 213.008 226.277C212.744 226.541 212.439 226.756 212.121 226.95C211.738 227.183 211.322 227.432 210.9 227.582C210.293 227.798 209.695 227.975 209.062 228.103C208.8 228.156 208.544 228.25 208.277 228.273C208.175 228.281 208.078 228.291 207.978 228.309C207.927 228.319 207.853 228.306 207.806 228.326C207.625 228.404 208.492 229.79 208.566 229.921C208.791 230.323 208.947 230.766 209.114 231.194C209.169 231.336 209.225 231.479 209.269 231.625C209.274 231.643 209.272 231.523 209.272 231.504C209.272 230.887 209.221 230.247 209.293 229.633C209.301 229.57 209.421 229.94 209.431 229.979C209.548 230.453 209.65 230.931 209.773 231.404C209.856 231.727 209.964 232.017 210.085 232.32C210.185 232.57 210.422 232.766 210.607 232.951C210.706 233.05 210.742 232.749 210.756 232.689C210.822 232.409 210.941 232.142 211.039 231.871C211.195 231.442 211.332 231.007 211.53 230.594C211.64 230.364 211.707 230.117 211.811 229.885C211.902 229.681 212.008 229.477 212.107 229.276C212.347 228.788 212.579 228.28 212.872 227.821C213.125 227.426 213.424 227.074 213.81 226.801C214.358 226.413 215.006 226.262 215.669 226.237C215.974 226.226 216.282 226.232 216.587 226.235C216.763 226.236 216.915 226.253 217.075 226.323C217.286 226.414 217.523 226.531 217.696 226.684C217.783 226.761 217.929 226.841 218.037 226.889C218.105 226.919 218.1 226.61 218.101 226.573C218.11 226.295 218.134 225.987 218.077 225.714C217.996 225.323 217.828 224.965 217.668 224.602C217.443 224.091 217.186 223.562 216.875 223.098C216.738 222.894 216.589 222.711 216.411 222.543C216.332 222.468 216.223 222.322 216.116 222.283C215.996 222.24 215.933 222.859 215.928 222.918C215.89 223.397 215.885 223.876 215.867 224.355C215.857 224.614 215.818 224.874 215.818 225.132C215.818 225.202 215.796 225.251 215.762 225.313C215.665 225.49 215.498 225.59 215.325 225.686C214.944 225.898 214.545 226.068 214.144 226.24C213.725 226.418 213.327 226.586 212.993 226.895C212.644 227.218 212.352 227.611 212.03 227.963C211.89 228.116 211.743 228.261 211.6 228.412C211.429 228.591 211.295 228.78 211.098 228.934C210.956 229.045 210.829 229.172 210.678 229.271C210.584 229.333 210.461 229.412 210.393 229.503C210.345 229.566 210.239 229.716 210.173 229.749" stroke="black" stroke-width="2" stroke-linecap="round"/>
<path d="M353.929 142.523C356.959 139.726 389.551 117.401 392.5 114.5C392.5 116.489 392.428 116.33 392.844 118.265C394.098 124.104 394.096 149.962 394.936 155.874C395.808 162.014 396.38 168.195 397.283 174.332C398.307 181.289 399.516 188.355 399.716 195.394C399.864 200.594 403 219.613 403 224.813C396.029 223.896 361.135 222.601 354.178 221.598C346.21 220.449 338.248 219.262 330.287 218.065C320.256 216.556 310.06 215.18 300.197 212.778C295.138 211.545 290.2 209.87 285.144 208.617C281.927 207.819 278.699 207.052 275.464 206.33C271.49 205.443 267.536 204.623 263.48 204.232C262.602 204.148 260.912 204.328 262.336 203.544C262.985 203.188 263.514 202.673 264.124 202.255C265.573 201.262 267.173 200.573 268.724 199.762C270.651 198.753 272.512 197.611 274.398 196.529C280.096 193.26 285.759 189.919 291.403 186.557C297.761 182.769 303.739 178.437 309.869 174.297C317.215 169.336 324.369 164.099 331.688 159.098C339.293 153.901 347.145 148.784 353.929 142.523Z" fill="#FFFF00" stroke="black" stroke-width="2" stroke-linecap="round"/>
<path d="M260.7 195.521C262.581 193.703 263.813 192.897 265.984 191.441C266.38 191.175 265.905 193.139 265.643 194.023C265.382 194.904 265.615 196.174 265.615 197.091C265.615 198.769 264.728 200.472 265.984 201.728C266.192 201.845 267.962 202.519 269.166 203.383C269.941 203.706 270.53 204.088 271.112 204.278C272.191 204.631 272.909 205.319 273.782 205.997C274.064 206.215 274.627 206.442 274.229 206.778C273.77 207.167 273.232 207.393 272.674 207.602C270.724 208.33 268.792 209.096 266.851 209.846C265.935 210.2 264.634 210.108 264.457 211.259C264.371 211.819 264.081 212.309 263.896 212.836C263.631 213.594 263.432 214.359 263.058 215.08C262.108 216.912 261.587 218.98 260.7 220.832C260.246 221.783 259.856 222.323 259.031 221.663C258.941 221.591 258.871 221.101 258.833 220.967C258.757 220.701 258.712 220.497 258.712 220.179V217.573C258.712 216.929 258.679 216.001 258.513 215.385C258.461 215.193 258.185 213.026 257.945 213.745C257.518 215.026 256.491 216.047 255.907 217.253C255.297 218.511 254.491 219.611 253.726 220.768C252.617 222.448 251.633 224.316 250.374 225.868C249.567 226.862 248.867 228.061 248.187 229.149C247.601 230.087 246.802 230.984 246.34 231.989C245.842 233.076 244.945 233.935 244.366 234.986C243.818 235.981 243.214 237.023 242.52 237.927C241.855 238.791 239.202 241.673 238.259 239.943C237.495 238.544 239.033 238.203 239.153 237.003C239.218 236.361 240.216 235.602 240.531 235.057C241.646 233.13 243.072 231.419 244.295 229.561C245.988 226.988 247.72 224.487 249.238 221.805C250.511 219.556 252.131 217.453 253.243 215.115C253.841 213.86 254.846 212.374 254.593 210.911C254.514 210.457 253.39 210.67 253.08 210.67C251.027 210.67 248.972 210.542 246.93 210.542H244.338C243.937 210.542 243.152 210.723 243.755 210.336C244.824 209.649 245.819 208.683 246.845 207.914C247.725 207.254 248.633 206.597 249.536 205.968C249.911 205.707 250.786 205.417 250.786 204.86C250.786 203.961 250.286 202.773 249.891 201.984C249.353 200.907 248.784 199.569 248.563 198.391C248.432 197.693 248.473 196.946 248.485 196.239C248.491 195.894 248.663 195.969 248.954 195.969H250.467C250.954 195.969 251.124 196.22 251.56 196.416C252.401 196.795 253.218 197.565 254.114 197.771C255.179 198.017 256.564 198.958 257.675 198.958C259.102 198.958 259.736 196.454 260.7 195.521Z" fill="#FF00E5" stroke="black" stroke-width="2" stroke-linecap="round"/>
<path d="M182.3 164.304C182.468 163.987 182.655 163.325 183.343 162.913C184.032 162.502 184.524 162.74 185.101 162.74H186.714C187.221 162.74 188.276 162.718 188.646 163.087C189.174 163.616 189.886 164.086 190.336 164.7C191.199 165.877 192.171 166.991 192.987 168.216C193.157 168.471 193.271 168.877 193.359 169.172C193.442 169.452 193.642 169.68 193.736 169.954C193.989 170.702 194.302 171.427 194.557 172.176C196.055 176.587 196.535 181.271 196.947 185.886C197.196 188.672 197.338 191.486 197.338 194.284C197.338 195.219 194.544 195.049 193.943 195.124C192.553 195.298 191.156 195.25 189.756 195.25C187.498 195.25 185.272 195.208 183.02 195.076C182.476 195.044 180.642 195.072 180.368 194.554C180.255 194.34 180.135 194.153 180.127 193.859C180 189.295 180.04 184.719 180.04 180.149C180.04 177.088 179.838 173.962 180.257 170.93C180.497 169.198 181.13 167.684 181.624 166.023C181.804 165.419 182.007 164.859 182.3 164.304Z" fill="#6C11A4" stroke="black" stroke-width="2" stroke-linecap="round"/>
<path d="M208.194 169.616C208.318 169.474 210.51 166.938 210.724 167.26L211.526 167.26C211.763 167.26 212.294 167.269 212.511 167.366C213.141 167.646 213.657 168.329 214.133 168.805C214.781 169.452 215.32 170.108 215.785 170.91C215.891 171.093 216.098 171.196 216.2 171.384C216.33 171.623 216.391 171.857 216.48 172.108C216.631 172.529 216.849 173.076 217.074 173.47C217.36 173.97 217.4 174.488 217.543 175.039C217.725 175.743 217.841 176.462 217.987 177.174C218.306 178.724 218.543 180.284 218.827 181.834C218.972 182.62 219.228 183.49 219.243 184.287C219.257 185.049 219.176 185.909 219.417 186.644C219.76 187.694 219.851 189.112 219.851 190.213V192.164C219.851 192.623 220.059 193.439 219.586 193.646C218.653 194.054 217.765 194.213 216.804 194.511C213.931 195.4 210.801 195.25 207.831 195.25H205.557C204.792 195.25 204.011 195.473 203.263 195.448C203.005 195.439 203.038 194.632 202.988 194.467C202.778 193.786 202.814 192.9 202.814 192.188V189.493C202.814 186.85 203.242 184.191 203.857 181.631C204.279 179.871 204.481 178.08 205.156 176.392C205.601 175.278 205.964 174.079 206.344 172.939C206.718 171.818 207.423 170.497 208.194 169.616Z" fill="#6C11A4" stroke="black" stroke-width="2" stroke-linecap="round"/>
<circle cx="184.237" cy="161.347" r="3.74791" fill="#FFFF00" stroke="black" stroke-width="2"/>
<circle cx="212.724" cy="166.886" r="3.74791" fill="#FFFF00" stroke="black" stroke-width="2"/>
<path d="M205.559 181.552C205.373 181.106 204.656 180.51 204.309 180.164C204.144 180.411 204.223 180.819 204.223 181.102C204.223 181.777 204.234 182.453 204.223 183.127C204.209 183.979 203.932 184.808 203.792 185.641C203.549 187.085 203.63 188.552 203.361 189.988C203.256 190.549 203.318 191.158 203.318 191.726C203.318 191.823 203.225 192.46 203.447 192.349C203.657 192.244 203.815 192.002 204.017 191.875C204.321 191.683 204.529 191.378 204.836 191.185C205.519 190.755 206.045 190.137 206.617 189.576C206.772 189.424 206.942 189.441 207.091 189.581C207.314 189.791 207.681 189.816 207.938 189.998C208.09 190.105 208.236 190.206 208.403 190.29C208.58 190.378 208.707 190.533 208.877 190.625C209.101 190.747 209.469 190.742 209.719 190.807C210.083 190.9 210.42 191.023 210.754 191.195C210.809 191.223 211.182 191.458 211.127 191.348C211.067 191.227 211.058 191.081 210.988 190.97C210.896 190.823 210.833 190.656 210.768 190.496C210.555 189.972 210.243 189.488 209.973 188.992C209.705 188.5 209.435 188.008 209.159 187.52C209.023 187.279 208.802 187.056 208.757 186.776C208.721 186.548 208.914 186.377 209.049 186.206C210.031 184.964 211.238 183.842 212.032 182.447C212.222 182.114 212.367 181.853 212.367 181.463C212.367 181.385 212.422 181.096 212.281 181.121C212.019 181.167 211.792 181.259 211.52 181.293C210.167 181.464 208.824 181.911 207.651 182.601C207.258 182.831 206.891 183.072 206.559 183.383C206.433 183.501 206.472 183.464 206.378 183.405C206.284 183.346 206.238 183.122 206.196 183.029C205.973 182.541 205.765 182.047 205.559 181.552Z" fill="#FFFF00" stroke="black" stroke-width="2" stroke-linecap="round"/>
<path d="M192.977 170.837C193.126 170.544 193.281 169.924 193.625 169.819C194.098 171.75 194.572 173.68 195.042 175.611C195.098 175.839 195.162 176.074 195.205 176.307C195.267 176.641 195.312 176.98 195.367 177.316C195.44 177.763 195.466 178.216 195.536 178.662C195.578 178.928 195.566 179.197 195.566 179.465V180.011C195.566 180.153 195.525 180.373 195.606 180.495C195.373 180.495 194.796 179.86 194.588 179.749C194.346 179.621 194.175 179.56 193.903 179.56C193.792 179.56 193.732 179.649 193.647 179.709C193.335 179.931 193.061 180.225 192.771 180.475C192.36 180.829 191.981 181.166 191.536 181.48C191.163 181.743 190.847 182.153 190.454 182.376C190.43 182.389 190.471 181.826 190.475 181.777C190.513 181.31 190.602 180.848 190.607 180.369C190.613 179.771 190.743 178.936 190.475 178.378C190.229 177.864 189.79 177.485 189.391 177.095C189.113 176.823 188.781 176.603 188.491 176.343C187.933 175.843 187.451 175.26 187.007 174.658C186.938 174.564 186.621 174.112 186.863 174.085C187.152 174.053 187.433 174.051 187.725 174.042C188.287 174.027 188.849 173.958 189.41 173.925C189.959 173.893 190.51 173.909 191.059 173.875C191.228 173.864 191.442 173.916 191.579 173.786C191.94 173.444 192.07 172.808 192.261 172.369C192.488 171.849 192.719 171.343 192.977 170.837Z" fill="#FFFF00" stroke="black" stroke-width="2" stroke-linecap="round"/>
<path d="M181.185 186.153C181 186.169 180.483 186.058 180.296 186.058C180.144 188.297 180.281 190.754 180.281 192.999L180.281 194.186C180.281 194.284 180.54 194.57 180.676 194.582C181.086 194.616 180.843 194.412 181.253 194.458C182.348 194.579 183.468 194.553 184.568 194.553C185.52 194.553 186.472 194.549 187.424 194.553C187.909 194.555 188.389 194.635 188.873 194.635C188.873 194.186 188.589 193.791 187.914 193.349C187.756 193.174 187.635 192.887 187.452 192.746C187.145 192.51 186.919 192.161 186.645 191.887C186.064 191.306 185.382 190.704 185.058 189.931C184.914 189.586 185.056 189.324 185.221 189.031C185.549 188.45 185.943 187.906 186.312 187.35C186.698 186.771 187.225 186.148 187.476 185.488C187.521 185.369 187.505 185.23 187.505 185.105C187.505 184.979 187.276 185.049 187.208 185.059C185.995 185.238 184.807 185.583 183.602 185.809C182.802 185.959 181.996 186.083 181.185 186.153Z" fill="#FFFF00" stroke="black" stroke-width="2" stroke-linecap="round"/>
<path d="M288.998 228.218C290.081 226.254 291.065 221.091 291.645 221.887C294.99 222.306 297.469 223.927 300.788 224.591C303.419 225.117 306.009 225.841 308.603 226.516C309.737 226.811 310.876 227.091 312.007 227.398C312.538 227.542 313.016 227.709 313.569 227.772C314.013 227.823 314.344 227.839 314.727 228.057C315.566 228.537 316.415 228.795 317.383 228.872C317.415 228.875 318.309 228.865 318.125 229.085C317.804 229.471 317.616 230.363 317.472 230.829C316.989 232.385 316.433 233.912 315.899 235.452C315.566 236.414 315.117 237.349 314.856 238.332C314.654 239.094 314.508 240.412 313.761 240.87C313.305 241.15 312.779 241.527 312.236 241.586C311.48 241.668 310.684 241.581 309.932 241.524C307.88 241.368 305.875 240.607 303.886 240.097C300.341 239.188 296.822 237.883 293.518 236.314C291.62 235.412 289.304 233.731 287.078 234.445C286.236 234.716 285.372 235.057 284.582 235.452C284.226 235.63 284.984 234.764 285.21 234.435C286.579 232.44 287.831 230.336 288.998 228.218Z" fill="#05FF00" stroke="black" stroke-width="2" stroke-linecap="round"/>
<path d="M315.034 214.019C314.812 211.787 312.696 206.976 313.625 207.303C316.617 205.751 319.579 205.682 322.689 204.346C325.155 203.288 327.699 202.416 330.218 201.502C331.32 201.102 332.416 200.687 333.523 200.298C334.041 200.116 334.53 199.982 335.021 199.721C335.415 199.511 335.697 199.336 336.136 199.3C337.1 199.219 337.945 198.95 338.787 198.464C338.814 198.449 339.545 197.933 339.519 198.219C339.473 198.72 339.824 199.561 339.969 200.026C340.453 201.582 340.862 203.155 341.295 204.726C341.565 205.707 341.726 206.732 342.069 207.69C342.334 208.432 342.96 209.601 342.605 210.401C342.388 210.89 342.169 211.499 341.755 211.856C341.179 212.351 340.474 212.731 339.821 213.111C338.043 214.146 335.96 214.655 334.032 215.363C330.597 216.624 326.958 217.544 323.347 218.125C321.273 218.458 318.411 218.386 316.983 220.237C316.442 220.937 315.924 221.708 315.497 222.481C315.305 222.83 315.438 221.686 315.438 221.288C315.435 218.868 315.273 216.425 315.034 214.019Z" fill="#05FF00" stroke="black" stroke-width="2" stroke-linecap="round"/>
<path d="M304.057 229.029C303.996 228.969 303.951 228.895 303.89 228.835C303.774 228.721 303.631 228.675 303.485 228.614C303.119 228.463 302.734 228.348 302.344 228.278C301.458 228.118 300.572 228.067 299.677 228.229C299.326 228.293 298.905 228.375 298.712 228.703C298.576 228.934 298.484 229.145 298.481 229.417C298.476 229.895 298.678 230.266 299.016 230.604C299.296 230.883 299.683 231.027 300.057 231.138C300.917 231.395 301.784 231.639 302.64 231.909C303.112 232.057 303.689 232.211 304.057 232.569C304.274 232.78 304.299 233.048 304.299 233.339C304.299 233.521 304.327 233.804 304.201 233.951C303.95 234.243 303.562 234.34 303.222 234.484C302.793 234.666 302.27 234.634 301.815 234.652C301.349 234.671 300.866 234.673 300.402 234.631C300.297 234.621 300.254 234.575 300.159 234.538C299.974 234.465 299.791 234.402 299.598 234.351C299.417 234.303 299.229 234.208 299.06 234.126C298.929 234.061 298.788 234.023 298.655 233.963C298.556 233.918 298.447 233.902 298.365 233.824C298.294 233.755 298.184 233.698 298.095 233.648C297.708 233.43 297.431 233.09 297.075 232.835" stroke="black" stroke-width="2" stroke-linecap="round"/>
<path d="M327.899 206.149C327.815 206.134 327.735 206.099 327.651 206.084C327.491 206.056 327.347 206.099 327.192 206.132C326.805 206.214 326.423 206.338 326.062 206.501C325.241 206.872 324.482 207.332 323.837 207.973C323.585 208.225 323.284 208.531 323.311 208.911C323.33 209.178 323.374 209.404 323.526 209.63C323.793 210.027 324.169 210.217 324.639 210.304C325.028 210.376 325.428 210.275 325.8 210.154C326.654 209.878 327.506 209.588 328.364 209.324C328.837 209.18 329.4 208.979 329.906 209.065C330.204 209.116 330.377 209.322 330.542 209.562C330.645 209.712 330.828 209.929 330.808 210.121C330.767 210.505 330.502 210.804 330.304 211.116C330.053 211.509 329.604 211.779 329.24 212.052C328.867 212.332 328.47 212.607 328.064 212.836C327.972 212.887 327.91 212.874 327.811 212.897C327.618 212.942 327.43 212.993 327.242 213.061C327.066 213.124 326.858 213.153 326.672 213.18C326.527 213.202 326.389 213.25 326.246 213.276C326.139 213.295 326.04 213.344 325.929 213.326C325.831 213.309 325.708 213.325 325.606 213.334C325.164 213.374 324.743 213.25 324.306 213.243" stroke="black" stroke-width="2" stroke-linecap="round"/>
<path d="M302.239 226.678C302.15 226.787 302.132 226.955 302.093 227.085C302.045 227.247 301.987 227.411 301.953 227.575C301.844 228.112 301.674 228.634 301.525 229.162C301.485 229.302 301.462 229.446 301.416 229.585C301.369 229.723 301.303 229.858 301.261 229.997C301.203 230.185 301.113 230.378 301.074 230.57C301.026 230.802 300.927 231.031 300.869 231.263C300.801 231.533 300.76 231.819 300.676 232.084C300.615 232.278 300.588 232.484 300.512 232.672C300.435 232.862 300.354 233.077 300.294 233.272C300.224 233.501 300.11 233.732 300.058 233.963C300.008 234.189 299.894 234.427 299.862 234.654C299.851 234.726 299.832 234.822 299.81 234.891C299.786 234.97 299.717 235.044 299.717 235.128C299.717 235.199 299.691 235.267 299.669 235.333" stroke="black" stroke-width="2" stroke-linecap="round"/>
<path d="M325.859 206.035C325.84 206.174 325.915 206.316 325.95 206.441C325.995 206.598 326.032 206.761 326.091 206.91C326.284 207.396 326.415 207.908 326.568 208.411C326.609 208.545 326.666 208.672 326.7 208.808C326.734 208.945 326.748 209.09 326.786 209.225C326.836 209.407 326.861 209.613 326.93 209.787C327.012 209.997 327.048 210.237 327.122 210.453C327.208 210.705 327.326 210.954 327.395 211.212C327.446 211.401 327.532 211.578 327.567 211.771C327.601 211.967 327.645 212.185 327.698 212.374C327.759 212.595 327.783 212.845 327.862 213.057C327.94 213.264 327.968 213.52 328.061 213.717C328.091 213.779 328.126 213.866 328.144 213.934C328.164 214.01 328.144 214.109 328.19 214.175C328.228 214.231 328.241 214.3 328.257 214.365" stroke="black" stroke-width="2" stroke-linecap="round"/>
<path d="M108.771 254.798C108.771 257.409 108.412 259.514 108.412 262.126C108.412 262.947 108.551 263.279 109.131 263.891C109.492 264.272 109.903 265.151 110.39 265.151H114.028C115.373 265.151 116.617 264.971 117.945 264.971C118.603 264.971 118.952 264.971 119.524 265.33C120.166 265.735 121.151 265.207 121.802 264.971C123.087 264.504 124.113 264.019 125.14 262.992C126.27 261.862 127.658 260.954 127.658 259.215C127.658 257.942 127.478 256.684 127.478 255.437C127.478 254.963 127.202 252.853 127.568 252.56C127.682 252.468 128.198 251.379 128.198 251.21C128.198 250.699 128.805 250.409 128.907 249.951C129.128 248.956 128.909 247.496 128.387 246.714C127.912 246.001 125.929 246.839 125.41 247.243C124.875 247.659 123.932 248.117 123.261 248.053C122.764 248.005 122.275 247.156 121.902 246.804C121.294 246.229 120.027 246.305 119.244 246.044C118.484 245.791 117.604 245.904 116.806 245.904C115.653 245.904 114.744 245.964 113.718 246.534C112.603 247.153 110.829 248.934 110.39 250.141C110.087 250.974 109.628 252.056 109.211 252.829C109.036 253.155 108.862 253.545 108.781 253.909C108.726 254.156 108.771 254.609 108.771 254.798Z" fill="#7CC05B" stroke="black" stroke-width="2" stroke-linecap="round"/>
<path d="M112.009 260.474L113.448 259.035" stroke="black" stroke-width="2" stroke-linecap="round"/>
<path d="M122.981 252.379C123.41 252.332 123.521 251.843 123.521 251.48" stroke="black" stroke-width="2" stroke-linecap="round"/>
<path d="M101.148 257.204C101.577 257.156 101.688 256.667 101.688 256.305" stroke="black" stroke-width="2" stroke-linecap="round"/>
<path d="M79.5854 216.283C81.1883 213.013 83.8102 210.893 87.3961 210.463C88.6423 210.463 90.0938 210.272 91.2935 210.605C92.9089 211.054 94.5313 211.629 95.981 212.527C97.8984 213.716 100.633 214.337 101.569 216.625C102.329 218.483 102.885 220.645 101.896 222.561C100.276 225.699 97.051 227.717 93.5161 227.717C91.1042 227.717 88.6913 227.738 86.2795 227.717C84.8254 227.704 83.1651 227.647 81.8027 227.09C81.2873 226.879 80.6796 226.449 80.2859 226.063C79.7887 225.575 79.2075 225.105 78.8638 224.494C78.231 223.369 78.2002 222.383 78.2002 221.133C78.2002 219.417 78.8375 217.808 79.5854 216.283Z" fill="white" stroke="black" stroke-width="2" stroke-linecap="round"/>
<path d="M92.4948 219.142C93.2491 218.537 94.1969 218.099 95.1704 218.047C95.6509 218.047 98.2989 218.012 98.2989 218.521C98.2989 219.28 98.2546 219.945 97.709 220.491C97.4601 220.74 97.4457 221.007 97.4457 221.365C97.4457 221.891 97.3588 222.005 96.9927 222.334C96.7286 222.572 96.3749 222.776 96.0447 222.903C95.8523 222.977 95.7112 223.168 95.5022 223.261C95.3757 223.317 95.163 223.389 95.0756 223.498C94.9489 223.656 94.2933 223.569 94.0802 223.688C93.7923 223.848 93.1862 224.019 92.853 224.019C92.1869 224.019 91.5414 224.209 90.8569 224.209H89.5349C89.1402 224.209 88.7695 224.215 88.3973 224.109C88.1884 224.049 88.4061 223.089 88.4341 222.935C88.5895 222.08 89.7937 221.276 90.3934 220.696C91.0188 220.091 91.819 219.685 92.4948 219.142Z" fill="#61011E" stroke="black" stroke-width="2" stroke-linecap="round"/>
<path d="M114 262.5H115.818" stroke="black" stroke-width="2" stroke-linecap="round"/>
<path d="M338.309 286.639C338.309 280.174 339.816 273.744 339.816 267.277C340.6 266.493 340.691 266.308 341.85 266.308C342.27 266.308 342.992 266.435 343.365 266.228C343.715 266.034 344.239 266.164 344.623 266.148C345.021 266.131 345.338 265.866 345.729 265.826C346.544 265.745 347.323 265.426 348.136 265.345C348.727 265.286 349.231 264.863 349.875 264.863C350.546 264.863 351.248 264.617 351.917 264.525C354.123 264.22 359.076 264.484 361.316 264.524C361.816 264.863 361.861 265.955 361.694 266.879C361.546 267.704 361.373 268.451 361.373 269.286C361.373 269.823 361.123 270.238 361.017 270.749C360.874 271.431 360.892 272.116 360.892 272.809C360.892 274.296 360.731 275.782 360.731 277.276C360.731 285.813 359.731 294.35 359.731 302.887C359.731 313.289 357.892 323.679 357.892 334.079C357.892 340.273 358.208 346.575 357.767 352.752C357.557 355.693 357.339 359.641 354.45 361.17C353.606 361.617 352.893 362.289 352.042 362.775C351.123 363.3 350.7 363.417 349.616 363.417C347.1 363.417 344.283 363.72 341.912 362.847C339.376 361.912 334.618 361.622 334.618 358.04V336.933C334.618 334.274 334.431 331.507 335.028 328.907C335.359 327.464 335.178 325.971 335.456 324.52C335.624 323.643 335.902 322.553 335.902 321.675C335.902 320.283 335.987 318.806 336.294 317.449C336.639 315.92 336.219 314.356 336.669 312.821C337.142 311.204 336.885 309.437 337.257 307.809L337.258 307.807C337.467 306.891 337.667 306.014 337.667 305.071C337.667 302.489 337.988 299.906 337.988 297.305C337.988 295.806 338.309 294.422 338.309 292.917V286.639Z" fill="white" stroke="black" stroke-width="2" stroke-linecap="round"/>
<path d="M53.4445 283.251C53.3855 278.656 53.4445 275.376 53.4445 270.777C53.4445 269.401 52.212 269.24 51.5476 269.074C50.9421 268.923 50.1895 269.059 49.5601 269.059C48.1718 269.059 46.8093 269.068 45.434 268.916C44.8294 268.848 44.3364 268.433 43.7261 268.311C42.4888 268.064 41.277 267.315 40.0987 266.837C38.7682 266.298 37.4357 265.838 36.0481 265.59C35.078 265.417 34.1394 265.658 33.2444 265.658C32.6197 265.658 32.2567 266.381 31.8164 266.777C31.4339 267.122 31.3723 267.746 31.3164 268.277C31.0883 270.444 31.3163 272.599 31.3163 274.777C31.3163 279.599 31 303.283 31 308.099C31 315.213 31.5441 322.267 31.5441 329.387C31.5441 333.234 31.4908 337.032 32.0202 340.844C32.3605 343.294 32.528 345.816 32.7684 348.28C32.8996 349.625 32.8091 351.226 33.1764 352.512C33.8463 354.856 33.3586 357.374 34.0228 359.698C34.4049 361.036 35.1389 361.846 36.1086 362.842C36.5974 363.345 36.9404 363.824 37.5293 364.172C37.9458 364.418 38.2608 364.836 38.6855 365.094C39.1235 365.361 39.5981 365.449 40.0534 365.669C41.932 366.573 44.5081 365.807 46.4013 365.2C47.0869 364.98 47.7877 364.864 48.4795 364.671C49.2619 364.453 49.9273 363.947 50.6937 363.689C51.7141 363.344 52.6378 363.143 53.5049 362.479C54.0667 362.05 54.6388 361.926 54.6687 361.119C54.6858 360.657 54.6687 360.191 54.6687 359.729V349.829V316.427C54.6687 313.741 54.9023 310.937 54.6385 308.265C54.5021 306.884 54.5464 305.511 54.5327 304.124C54.513 302.134 54.1246 300.192 54.1246 298.199C54.1246 296.038 54.006 293.918 53.8854 291.763L53.8828 291.715C53.8088 290.393 53.8704 289.07 53.7845 287.748C53.6874 286.251 53.4637 284.75 53.4445 283.251Z" fill="white" stroke="black" stroke-width="2" stroke-linecap="round"/>
<path d="M53.7282 353.393C53.7282 329.687 53.2939 304.06 53.408 280.355C53.9605 278.698 57.3251 277.86 59.0976 277.795C61.3449 277.711 63.2678 276.514 65.5693 276.514C68.5143 276.514 71.517 276.039 74.4413 275.732C78.1279 275.346 81.8896 275.224 85.5535 274.701C92.887 273.653 100.091 273.147 107.493 272.745C116.651 272.249 125.685 270.836 134.874 270.754C145.51 270.659 156.122 270.114 166.77 270.114H306.553C316.861 270.114 327.579 270.657 337.667 272.994C339.983 273.531 339.516 274.415 339.516 276.514C339.516 279.073 339.054 281.717 338.805 284.266C338.377 288.659 338.765 293.071 338.236 297.459C337.346 304.846 336.064 312.226 335.996 319.683C335.928 327.161 335.996 334.643 335.996 342.121C335.996 347.42 336.731 353.447 335.285 358.62C334.932 359.882 332.776 359.403 331.693 359.403H65.3204C64.0655 359.403 53.8513 360.292 53.7282 358.691C53.5939 356.947 53.7282 355.144 53.7282 353.393Z" fill="white"/>
<path d="M340.927 268.926C336.739 264.474 343.871 261.04 347.816 260.278C351.517 259.067 361.732 258.706 361.815 263.484C361.907 268.741 355.014 272.707 348.957 272.24C346.264 272.032 342.609 270.714 340.927 268.926Z" fill="white"/>
<path d="M52.2695 273.273C56.5307 268.892 50.1229 265.038 46.1911 264.21C42.5108 262.938 31.6378 262.708 31.4747 267.483C31.2951 272.738 38.1212 276.819 44.1851 276.453C46.8808 276.29 50.5575 275.033 52.2695 273.273Z" fill="white"/>
<path d="M53.7282 353.393C53.7282 329.687 53.2939 304.06 53.408 280.355C53.9605 278.698 57.3251 277.86 59.0976 277.795C61.3449 277.711 63.2678 276.514 65.5693 276.514C68.5143 276.514 71.517 276.039 74.4413 275.732C78.1279 275.346 81.8896 275.224 85.5535 274.701C92.887 273.653 100.091 273.147 107.493 272.745C116.651 272.249 125.685 270.836 134.874 270.754C145.51 270.659 156.122 270.114 166.77 270.114H306.553C316.861 270.114 327.579 270.657 337.667 272.994C339.983 273.531 339.516 274.415 339.516 276.514C339.516 279.073 339.054 281.717 338.805 284.266C338.377 288.659 338.765 293.071 338.236 297.459C337.346 304.846 336.064 312.226 335.996 319.683C335.928 327.161 335.996 334.643 335.996 342.121C335.996 347.42 336.731 353.447 335.285 358.62C334.932 359.882 332.776 359.403 331.693 359.403H65.3204C64.0655 359.403 53.8513 360.292 53.7282 358.691C53.5939 356.947 53.7282 355.144 53.7282 353.393Z" stroke="black" stroke-width="2" stroke-linecap="round"/>
<path d="M340.927 268.926C336.739 264.474 343.871 261.04 347.816 260.278C351.517 259.067 361.732 258.706 361.815 263.484C361.907 268.741 355.014 272.707 348.957 272.24C346.264 272.032 342.609 270.714 340.927 268.926Z" stroke="black" stroke-width="2" stroke-linecap="round"/>
<path d="M52.2695 273.273C56.5307 268.892 50.1229 265.038 46.1911 264.21C42.5108 262.938 31.6378 262.708 31.4747 267.483C31.2951 272.738 38.1212 276.819 44.1851 276.453C46.8808 276.29 50.5575 275.033 52.2695 273.273Z" stroke="black" stroke-width="2" stroke-linecap="round"/>
<path d="M311.239 337.11C311.147 340.998 310.938 344.886 310.938 348.773C310.938 349.265 310.909 349.747 311.048 350.224C311.089 350.365 311.137 350.508 311.151 350.656C311.16 350.761 311.239 350.846 311.239 350.938C311.239 352.033 313.43 352.092 314.08 352.113C316.449 352.191 318.831 352.118 321.201 352.118C322.862 352.118 324.524 352.118 326.185 352.118C326.596 352.118 326.597 351.462 326.663 351.191C326.846 350.438 327.018 349.662 327.145 348.898C327.246 348.294 327.356 347.691 327.451 347.087C327.603 346.117 327.818 345.133 327.89 344.153C327.978 342.968 328.172 341.806 328.301 340.627C328.351 340.173 328.311 339.693 328.311 339.236C328.311 338.636 328.311 338.036 328.311 337.435C328.311 337.127 328.369 336.75 328.301 336.446C328.239 336.164 327.883 336.117 327.628 336.078C326.324 335.878 325.026 335.906 323.7 335.906C320.041 335.906 316.382 335.906 312.723 335.906C312.369 335.906 312.062 336.035 311.712 336.035C311.59 336.035 311.422 336.047 311.306 336.081C311.259 336.094 311.215 336.218 311.153 336.25C311.002 336.33 311.024 336.342 311.024 336.532C311.024 336.71 311.024 336.889 311.024 337.067" stroke="#FF0000" stroke-width="2" stroke-linecap="round"/>
<path d="M313.354 338.785C313.622 339.002 313.917 339.209 314.138 339.476C314.179 339.526 314.22 339.572 314.271 339.613" stroke="#FF0000" stroke-width="2" stroke-linecap="round"/>
<path d="M311.669 342.362C312.138 341.992 312.654 341.687 313.163 341.374C314.01 340.853 314.82 340.272 315.67 339.756C316.032 339.537 316.416 339.347 316.759 339.098C316.864 339.023 316.967 338.948 317.08 338.885C317.114 338.866 317.131 338.859 317.153 338.829" stroke="#FF0000" stroke-width="2" stroke-linecap="round"/>
<path d="M313.384 341.564C313.395 342.024 313.492 342.585 313.84 342.921C313.972 343.048 314.143 343.174 314.309 343.254C314.473 343.334 314.674 343.327 314.852 343.322C314.988 343.319 315.08 343.27 315.196 343.205C315.337 343.126 315.483 343.054 315.629 342.985C315.84 342.884 316.063 342.865 316.26 342.732C316.403 342.635 316.597 342.459 316.618 342.277C316.645 342.043 316.642 341.771 316.533 341.557C316.455 341.405 316.385 341.253 316.288 341.109C316.206 340.987 316.117 340.867 316.03 340.751" stroke="#FF0000" stroke-width="2" stroke-linecap="round"/>
<path d="M312.911 347.448C313.08 347.339 313.277 347.251 313.461 347.172C314.043 346.922 314.639 346.706 315.224 346.463C315.786 346.23 316.303 345.94 316.828 345.635C317.336 345.34 317.855 345.067 318.371 344.787C318.573 344.677 318.764 344.557 318.952 344.425C319.171 344.273 319.413 344.148 319.649 344.024C319.886 343.898 320.12 343.768 320.349 343.629C320.46 343.561 320.568 343.492 320.687 343.441" stroke="#FF0000" stroke-width="2" stroke-linecap="round"/>
<path d="M317.567 348.556C317.625 348.416 317.727 348.333 317.856 348.255C318.116 348.099 318.408 347.982 318.691 347.878C318.953 347.781 319.217 347.69 319.484 347.61C319.587 347.579 319.72 347.56 319.811 347.5C319.891 347.447 319.894 347.624 319.906 347.676C319.951 347.863 319.983 348.053 320.021 348.242C320.051 348.387 320.111 348.518 320.148 348.66C320.178 348.775 320.195 348.885 320.234 348.998C320.261 349.075 320.238 349.169 320.251 349.249C320.268 349.361 320.266 349.469 320.302 349.576" stroke="#FF0000" stroke-width="2" stroke-linecap="round"/>
<path d="M319.962 347.004C320.058 346.87 320.251 346.787 320.389 346.707C320.662 346.549 320.94 346.397 321.224 346.26C321.629 346.064 322.064 345.905 322.487 345.751C322.707 345.671 323.032 345.525 323.223 345.737C323.349 345.877 323.467 346.032 323.553 346.201C323.629 346.35 323.66 346.516 323.703 346.677C323.771 346.937 323.791 347.186 323.791 347.454C323.791 347.659 323.791 347.864 323.791 348.068" stroke="#FF0000" stroke-width="2" stroke-linecap="round"/>
<path d="M322.49 339.494C322.665 339.793 322.858 340.081 323.062 340.361C323.203 340.556 323.363 340.734 323.514 340.922C323.727 341.187 323.914 341.473 324.116 341.747C324.546 342.327 324.952 342.922 325.366 343.513C325.688 343.972 326.049 344.401 326.365 344.863C326.542 345.121 326.709 345.376 326.901 345.623C327.033 345.792 327.117 345.992 327.255 346.156C327.306 346.217 327.345 346.277 327.383 346.345C327.399 346.372 327.416 346.414 327.443 346.427" stroke="#FF0000" stroke-width="2" stroke-linecap="round"/>
<path d="M141.429 294.155H141.989C142.609 294.155 142.919 295.402 142.919 297.895H143.11L144.977 297.703L144.792 295.461C144.792 295.265 145.04 295.017 145.537 294.716H146.098C146.567 294.716 146.941 297.332 147.219 302.563C146.813 302.814 146.439 302.939 146.098 302.939C145.478 302.939 145.168 301.818 145.168 299.576H144.977C143.874 299.699 143.188 299.761 142.919 299.761V299.952C142.919 300.253 143.044 301.123 143.295 302.563H143.11L143.295 302.939C143.295 303.135 143.047 303.386 142.55 303.691H141.798C141.174 303.691 140.861 300.761 140.861 294.9C141.048 294.404 141.237 294.155 141.429 294.155ZM135.071 294.34H135.256C135.256 294.536 135.381 294.784 135.632 295.085V295.276L135.256 296.582C137.375 298.081 138.435 299.141 138.435 299.761C138.248 300.262 138.061 300.513 137.874 300.513H137.122C136.006 299.542 135.135 298.856 134.511 298.455C134.315 300.073 133.752 300.882 132.822 300.882H132.638C132.355 300.882 132.168 300.572 132.077 299.952C132.925 296.211 133.923 294.34 135.071 294.34ZM156.406 292.658H156.591L157.527 292.85C157.527 294.964 157.837 296.021 158.457 296.021L158.833 295.837C160.205 296.156 160.891 296.53 160.891 296.958V297.143C160.599 297.685 160.287 297.997 159.954 298.079C160.451 299.022 160.699 299.647 160.699 299.952C160.417 301.821 159.546 302.755 158.088 302.755H157.712C155.966 302.755 155.094 301.695 155.094 299.576C155.094 298.952 155.281 298.64 155.654 298.64V298.271L154.725 298.455H154.164C154.164 298.259 154.039 298.008 153.788 297.703V297.519C154.075 296.648 154.823 296.213 156.03 296.213C155.78 295.675 155.654 294.677 155.654 293.219L156.406 292.658ZM166.865 294.9C167.863 294.9 168.362 295.96 168.362 298.079C168.526 298.079 168.713 299.2 168.923 301.442C168.923 302.563 168.488 303.124 167.617 303.124H167.426C167.052 303.124 166.804 302.128 166.681 300.137L165.375 300.321V302.563C165.375 303.233 165.124 303.671 164.623 303.876H164.438C163.691 303.876 163.317 303.438 163.317 302.563H163.502L163.317 302.194C163.317 300.836 163.069 298.779 162.572 296.021C162.745 295.402 163.181 295.092 163.878 295.092H164.062C164.062 295.279 164.249 295.527 164.623 295.837C164.623 295.96 164.562 296.021 164.438 296.021C164.812 296.928 164.999 297.678 164.999 298.271H165.375C165.712 298.271 166.086 298.145 166.496 297.895C166.245 297.334 166.12 296.523 166.12 295.461V295.276C166.316 295.276 166.564 295.151 166.865 294.9ZM157.336 299.016L157.151 299.392L157.336 300.697H157.712L158.648 300.513V299.952C158.576 299.651 158.138 299.339 157.336 299.016ZM171.001 291.339C171.748 291.339 172.122 292.772 172.122 295.639C173.731 295.889 174.793 296.015 175.308 296.015L177.174 295.83V296.015L177.55 295.83H177.926C178.117 295.83 178.366 296.078 178.671 296.575V297.512C178.671 297.689 178.484 297.876 178.11 298.072H176.429C176.009 298.072 175.697 298.134 175.492 298.257C171.874 298.257 170.064 297.136 170.064 294.894V294.518H170.256L170.064 294.142V291.899C170.064 291.612 170.377 291.425 171.001 291.339ZM170.44 299.569H171.001C171.129 299.569 171.192 299.631 171.192 299.754L171.562 299.569H171.753C171.876 299.569 171.938 299.631 171.938 299.754C172.061 299.754 172.122 299.692 172.122 299.569L173.059 299.754C173.191 299.754 173.378 299.692 173.619 299.569L173.995 299.754C174.246 299.754 174.371 299.692 174.371 299.569L176.237 299.754H178.295C178.6 300.005 178.851 300.13 179.047 300.13V301.251C179.047 301.593 178.299 301.843 176.805 302.003L175.868 301.812H171.192C170.518 301.812 170.08 301.563 169.88 301.066V300.314C170.254 300.005 170.44 299.756 170.44 299.569ZM172.313 302.748C172.892 302.748 173.266 303.685 173.435 305.558C174.897 305.681 175.957 305.742 176.613 305.742H177.926L178.11 306.487C178.11 307.485 177.611 307.984 176.613 307.984C173.245 307.984 171.562 307.362 171.562 306.118C171.438 305.653 171.377 305.09 171.377 304.43V303.685C171.377 303.516 171.689 303.204 172.313 302.748ZM188.795 289.466C189.793 289.466 190.292 290.402 190.292 292.275C190.42 292.275 190.483 292.337 190.483 292.46C191.728 292.337 192.662 292.275 193.286 292.275H193.847L194.031 293.205V293.957C193.284 294.048 192.91 294.174 192.91 294.333C193.161 295.14 193.286 295.7 193.286 296.015V296.199C193.286 297.325 192.352 298.075 190.483 298.448C188.61 297.983 187.674 297.047 187.674 295.639V295.263L187.858 294.894C186.364 294.894 185.616 294.456 185.616 293.581V293.021C185.812 293.021 186.061 292.895 186.361 292.645H188.419L188.05 290.402C188.291 289.833 188.54 289.521 188.795 289.466ZM189.547 295.454V295.639C189.547 295.816 189.734 296.003 190.107 296.199H190.853C191.103 296.199 191.229 296.076 191.229 295.83C191.229 295.579 191.103 295.454 190.853 295.454H189.547ZM194.031 298.633C194.656 298.633 194.968 299.257 194.968 300.506H194.783C194.574 300.752 192.329 301.062 188.05 301.436C187.425 301.189 187.113 300.816 187.113 300.314C187.113 299.444 188.298 299.009 190.668 299.009V299.193L194.031 298.633ZM193.662 301.812C194.533 301.812 194.968 302.935 194.968 305.182C194.808 305.806 194.621 306.118 194.407 306.118H193.286L192.91 304.806V303.869C190.805 304.243 189.558 304.43 189.171 304.43L188.419 303.124C188.67 303.124 188.92 302.873 189.171 302.372C191.149 301.998 192.646 301.812 193.662 301.812ZM200.04 293.034H202.282C202.282 293.28 202.408 293.403 202.658 293.403V293.964C202.658 294.839 201.785 295.276 200.04 295.276H199.104V295.085C198.944 295.213 198.509 295.276 197.798 295.276C197.921 295.481 197.982 295.794 197.982 296.213C198.52 295.962 199.516 295.837 200.97 295.837H202.467C202.649 295.837 202.836 296.024 203.027 296.397V297.143C203.023 297.316 202.713 297.566 202.098 297.895H200.225L198.358 298.079V299.2C198.732 299.2 199.167 299.262 199.664 299.385C200.092 299.385 201.152 299.262 202.843 299.016L203.219 299.576C203.219 300.697 202.658 301.258 201.537 301.258H197.422C196.911 301.258 196.412 298.952 195.925 294.34C195.925 293.565 197.297 293.13 200.04 293.034ZM200.97 302.194H201.161C201.412 302.194 201.599 302.88 201.722 304.252H201.537C201.66 304.493 201.722 304.68 201.722 304.812H205.461C205.639 304.812 205.826 304.999 206.021 305.373C206.021 306.243 205.274 306.679 203.779 306.679C203.592 306.806 203.219 306.87 202.658 306.87V306.679L202.282 306.87H202.098C201.97 306.87 201.906 306.806 201.906 306.679C201.268 306.929 199.835 307.055 197.606 307.055C197.356 306.645 197.23 306.271 197.23 305.934C197.23 305.309 197.98 304.997 199.479 304.997H199.849V304.621C199.849 304.343 199.787 304.095 199.664 303.876C199.664 302.755 200.099 302.194 200.97 302.194ZM220.268 294.333H220.828C220.828 294.524 220.953 294.773 221.204 295.078V297.32C221.204 297.89 221.391 299.262 221.765 301.436C221.523 302.005 221.272 302.317 221.013 302.372H220.644C220.11 302.372 219.673 300.627 219.331 297.136H219.522L219.331 296.76C219.459 295.142 219.771 294.333 220.268 294.333ZM210.54 294.702C211.912 294.793 212.598 295.167 212.598 295.823C212.785 295.7 213.596 295.577 215.031 295.454C216.029 296.42 216.528 297.917 216.528 299.945V300.314C216.528 300.962 216.341 301.335 215.968 301.436H215.216C214.842 301.436 214.594 300.189 214.471 297.696H213.343C213.165 297.696 212.978 297.883 212.782 298.257V298.448C212.782 299.1 212.846 300.16 212.974 301.627L212.222 302.188H211.853C211.351 302.188 211.039 301.315 210.916 299.569L211.101 298.448V297.136C211.101 296.885 210.914 296.76 210.54 296.76C210.267 296.76 209.33 296.885 207.73 297.136C207.234 297.013 206.985 296.639 206.985 296.015C206.985 295.14 208.045 294.702 210.164 294.702H210.54ZM225.155 292.474C227.521 292.474 228.703 293.782 228.703 296.397C228.703 297.614 227.83 298.423 226.085 298.824C224.394 298.824 223.273 297.642 222.722 295.276C222.722 294.037 223.346 293.164 224.595 292.658C224.968 292.658 225.155 292.597 225.155 292.474ZM224.595 295.085C224.868 295.864 225.365 296.489 226.085 296.958C226.586 296.771 226.837 296.584 226.837 296.397V296.021C226.837 295.069 226.586 294.508 226.085 294.34H225.155C224.841 294.34 224.654 294.588 224.595 295.085ZM233.194 294.524H233.379C233.725 294.524 234.037 295.709 234.315 298.079H234.124C234.625 301.356 234.876 303.227 234.876 303.691C234.393 304.065 234.019 304.252 233.755 304.252C233.007 304.252 232.634 302.942 232.634 300.321C232.383 297.769 232.132 296.211 231.882 295.646C231.882 294.898 232.319 294.524 233.194 294.524ZM226.837 300.882L227.206 301.073L227.958 300.882C229.576 300.978 230.385 301.103 230.385 301.258L230.576 302.003C230.576 302.504 230.139 302.88 229.264 303.131L227.397 302.939H225.9L224.595 303.131C224.595 303.003 224.531 302.939 224.403 302.939C224.403 303.067 224.342 303.131 224.219 303.131C224.219 302.88 223.845 302.63 223.098 302.379V301.634C223.098 301.451 223.285 301.265 223.658 301.073H225.716L226.837 300.882ZM244.057 292.658H244.241L245.178 292.85C245.178 294.964 245.488 296.021 246.107 296.021L246.483 295.837C247.855 296.156 248.541 296.53 248.541 296.958V297.143C248.249 297.685 247.937 297.997 247.604 298.079C248.101 299.022 248.35 299.647 248.35 299.952C248.067 301.821 247.197 302.755 245.738 302.755H245.362C243.617 302.755 242.744 301.695 242.744 299.576C242.744 298.952 242.931 298.64 243.305 298.64V298.271L242.375 298.455H241.814C241.814 298.259 241.689 298.008 241.438 297.703V297.519C241.726 296.648 242.473 296.213 243.681 296.213C243.43 295.675 243.305 294.677 243.305 293.219L244.057 292.658ZM254.516 294.9C255.514 294.9 256.013 295.96 256.013 298.079C256.177 298.079 256.364 299.2 256.573 301.442C256.573 302.563 256.138 303.124 255.268 303.124H255.076C254.702 303.124 254.454 302.128 254.331 300.137L253.025 300.321V302.563C253.025 303.233 252.775 303.671 252.273 303.876H252.089C251.341 303.876 250.968 303.438 250.968 302.563H251.152L250.968 302.194C250.968 300.836 250.719 298.779 250.223 296.021C250.396 295.402 250.831 295.092 251.528 295.092H251.713C251.713 295.279 251.9 295.527 252.273 295.837C252.273 295.96 252.212 296.021 252.089 296.021C252.463 296.928 252.649 297.678 252.649 298.271H253.025C253.363 298.271 253.736 298.145 254.146 297.895C253.896 297.334 253.771 296.523 253.771 295.461V295.276C253.966 295.276 254.215 295.151 254.516 294.9ZM244.986 299.016L244.802 299.392L244.986 300.697H245.362L246.299 300.513V299.952C246.226 299.651 245.788 299.339 244.986 299.016ZM258.091 292.084H258.651C258.902 292.339 259.153 294.584 259.403 298.817L258.651 299.378H258.467C258.139 299.378 257.888 298.879 257.715 297.881V296.015L257.53 294.887C257.53 294.764 257.592 294.702 257.715 294.702L257.53 293.766V292.645C257.53 292.462 257.717 292.275 258.091 292.084ZM259.212 300.69C259.59 301.41 259.779 301.848 259.779 302.003C259.592 302.5 259.403 302.748 259.212 302.748C258.465 302.748 258.091 302.374 258.091 301.627C258.168 301.253 258.542 300.941 259.212 300.69ZM103.646 313.466C104.645 313.466 105.144 314.402 105.144 316.275C105.271 316.275 105.335 316.337 105.335 316.46C106.579 316.337 107.513 316.275 108.138 316.275H108.698L108.883 317.205V317.957C108.135 318.048 107.762 318.174 107.762 318.333C108.012 319.14 108.138 319.7 108.138 320.015V320.199C108.138 321.325 107.203 322.075 105.335 322.448C103.462 321.983 102.525 321.047 102.525 319.639V319.263L102.71 318.894C101.215 318.894 100.468 318.456 100.468 317.581V317.021C100.664 317.021 100.912 316.895 101.213 316.645H103.271L102.901 314.402C103.143 313.833 103.391 313.521 103.646 313.466ZM104.398 319.454V319.639C104.398 319.816 104.585 320.003 104.959 320.199H105.704C105.955 320.199 106.08 320.076 106.08 319.83C106.08 319.579 105.955 319.454 105.704 319.454H104.398ZM108.883 322.633C109.507 322.633 109.819 323.257 109.819 324.506H109.635C109.425 324.752 107.181 325.062 102.901 325.436C102.277 325.189 101.965 324.816 101.965 324.314C101.965 323.444 103.15 323.009 105.52 323.009V323.193L108.883 322.633ZM108.514 325.812C109.384 325.812 109.819 326.935 109.819 329.182C109.66 329.806 109.473 330.118 109.259 330.118H108.138L107.762 328.806V327.869C105.656 328.243 104.41 328.43 104.022 328.43L103.271 327.124C103.521 327.124 103.772 326.873 104.022 326.372C106 325.998 107.497 325.812 108.514 325.812ZM124.059 318.333H124.619C124.619 318.524 124.744 318.773 124.995 319.078V321.32C124.995 321.89 125.182 323.262 125.556 325.436C125.314 326.005 125.063 326.317 124.804 326.372H124.435C123.901 326.372 123.464 324.627 123.122 321.136H123.313L123.122 320.76C123.25 319.142 123.562 318.333 124.059 318.333ZM114.331 318.702C115.703 318.793 116.389 319.167 116.389 319.823C116.576 319.7 117.387 319.577 118.822 319.454C119.82 320.42 120.319 321.917 120.319 323.945V324.314C120.319 324.962 120.132 325.335 119.759 325.436H119.007C118.633 325.436 118.385 324.189 118.262 321.696H117.134C116.956 321.696 116.769 321.883 116.573 322.257V322.448C116.573 323.1 116.637 324.16 116.765 325.627L116.013 326.188H115.644C115.142 326.188 114.83 325.315 114.707 323.569L114.892 322.448V321.136C114.892 320.885 114.705 320.76 114.331 320.76C114.058 320.76 113.121 320.885 111.521 321.136C111.025 321.013 110.776 320.639 110.776 320.015C110.776 319.14 111.836 318.702 113.955 318.702H114.331ZM136.985 317.034H137.73C138.191 317.034 138.503 318.467 138.667 321.334C138.836 321.334 139.521 321.209 140.725 320.958C141.29 321.2 141.6 321.448 141.654 321.703V322.264C141.654 322.888 140.72 323.2 138.852 323.2V323.392C138.852 324.071 138.977 325.565 139.228 327.876C138.986 328.446 138.735 328.758 138.476 328.812H137.915C137.3 328.812 136.926 326.755 136.794 322.64C136.639 322.64 136.516 320.894 136.425 317.403L136.985 317.034ZM131.373 319.461C132.12 319.461 132.494 319.898 132.494 320.773V325.258C132.494 325.436 132.307 325.622 131.934 325.818H131.188C131.006 325.818 130.819 325.632 130.628 325.258V321.519C128.632 321.642 127.572 321.767 127.449 321.895C126.88 321.653 126.567 321.402 126.513 321.143V320.397C126.513 319.96 128.133 319.648 131.373 319.461ZM148.6 317.957C148.814 317.957 149.188 318.082 149.721 318.333C149.83 318.333 150.329 318.269 151.218 318.142C154.084 318.142 155.518 318.827 155.518 320.199C155.518 320.714 155.581 321.213 155.709 321.696C155.709 324.69 155.023 326.188 153.651 326.188H152.523C150.154 326.188 148.969 325.44 148.969 323.945C148.472 321.357 148.224 319.673 148.224 318.894C148.474 318.488 148.6 318.176 148.6 317.957ZM158.327 317.957H159.072C159.072 318.144 159.259 318.392 159.633 318.702V321.888C161.757 322.088 162.818 322.462 162.818 323.009V323.569C162.818 323.747 162.629 323.934 162.251 324.13C161.194 324.13 160.385 324.005 159.824 323.754C159.824 323.882 159.76 323.945 159.633 323.945L159.824 324.314V326.003C159.824 326.126 159.76 326.188 159.633 326.188L159.824 326.563V327.124C159.824 327.293 159.512 327.605 158.888 328.061C158.14 327.801 157.767 327.302 157.767 326.563V319.078C157.844 318.331 158.031 317.957 158.327 317.957ZM150.281 320.199C150.582 322.82 150.894 324.13 151.218 324.13C152.321 324.253 153.007 324.314 153.275 324.314C153.526 323.827 153.651 323.141 153.651 322.257V322.072L153.46 320.199C153.337 320.199 153.275 320.263 153.275 320.391L152.339 320.199H150.281ZM165.095 315.147H165.279C165.402 317.271 165.589 318.333 165.84 318.333C166.227 318.333 167.412 318.269 169.395 318.142V316.836L169.771 315.523C170.518 315.523 170.892 315.897 170.892 316.645V318.142H171.076C172.621 318.019 173.432 317.957 173.51 317.957V316.46C173.51 316.282 173.697 316.095 174.07 315.899H175.007C175.257 316.893 175.383 318.078 175.383 319.454V323.009C175.383 323.879 174.945 324.314 174.07 324.314C173.943 324.314 173.694 324.066 173.325 323.569L173.51 321.696V320.015L173.325 319.639C171.58 319.926 170.707 320.113 170.707 320.199C169.992 322.446 168.868 323.569 167.337 323.569L166.961 323.378L166.585 323.569C164.84 323.136 163.967 322.264 163.967 320.951C163.844 319.753 163.782 318.442 163.782 317.021V316.46C163.782 315.585 164.22 315.147 165.095 315.147ZM165.84 320.015C165.84 320.138 165.778 320.199 165.655 320.199C165.879 321.197 166.378 321.696 167.152 321.696C168.128 321.414 168.75 320.979 169.019 320.391V320.015H168.458C168.011 320.015 167.451 320.076 166.776 320.199C166.571 320.076 166.259 320.015 165.84 320.015ZM172.013 324.314H172.765C173.088 324.314 173.337 324.752 173.51 325.627C173.2 329.865 172.389 331.984 171.076 331.984H169.21C167.765 331.984 166.829 329.865 166.4 325.627C166.4 325.126 166.651 324.752 167.152 324.506H167.713C168.087 324.506 168.399 325.44 168.649 327.309H171.637C171.637 326.93 171.701 326.495 171.828 326.003V324.875C171.951 324.875 172.013 324.688 172.013 324.314ZM169.019 328.99V329.366C169.019 329.562 169.269 329.813 169.771 330.118H170.707C171.081 329.991 171.268 329.615 171.268 328.99L170.892 329.182H169.395L169.019 328.99ZM178.78 316.474C181.146 316.474 182.328 317.782 182.328 320.397C182.328 321.614 181.455 322.423 179.71 322.824C178.019 322.824 176.898 321.642 176.347 319.276C176.347 318.037 176.971 317.164 178.22 316.658C178.593 316.658 178.78 316.597 178.78 316.474ZM178.22 319.085C178.493 319.864 178.99 320.489 179.71 320.958C180.211 320.771 180.462 320.584 180.462 320.397V320.021C180.462 319.069 180.211 318.508 179.71 318.34H178.78C178.466 318.34 178.279 318.588 178.22 319.085ZM186.819 318.524H187.004C187.35 318.524 187.662 319.709 187.94 322.079H187.749C188.25 325.356 188.501 327.227 188.501 327.691C188.018 328.065 187.644 328.252 187.38 328.252C186.632 328.252 186.259 326.942 186.259 324.321C186.008 321.769 185.757 320.211 185.507 319.646C185.507 318.898 185.944 318.524 186.819 318.524ZM180.462 324.882L180.831 325.073L181.583 324.882C183.201 324.978 184.01 325.103 184.01 325.258L184.201 326.003C184.201 326.504 183.764 326.88 182.889 327.131L181.022 326.939H179.525L178.22 327.131C178.22 327.003 178.156 326.939 178.028 326.939C178.028 327.067 177.967 327.131 177.844 327.131C177.844 326.88 177.47 326.63 176.723 326.379V325.634C176.723 325.451 176.91 325.265 177.283 325.073H179.341L180.462 324.882ZM198.242 315.893V316.084L198.618 315.893H198.81C199.507 315.893 199.942 316.205 200.115 316.829C199.965 317.704 199.653 318.142 199.179 318.142L197.873 317.95C197.654 318.078 197.404 318.142 197.121 318.142V318.511C197.121 319.513 197.495 320.015 198.242 320.015C199.081 320.015 199.769 320.201 200.307 320.575L200.115 318.887C200.115 317.451 200.74 316.64 201.988 316.453H203.109C203.237 316.453 203.301 316.517 203.301 316.645L203.677 316.453H204.606C204.789 316.453 204.978 316.64 205.174 317.014V317.39C205.174 318.265 204.675 318.702 203.677 318.702C202.784 318.575 202.285 318.511 202.18 318.511V319.639C202.18 320.386 202.74 320.76 203.861 320.76C204.039 320.76 204.226 320.947 204.422 321.32V321.512C204.422 322.182 204.174 322.617 203.677 322.817H202.364C201.334 322.817 200.648 322.132 200.307 320.76H200.115C200.115 321.758 199.928 322.257 199.555 322.257H198.994C196.374 322.257 195.063 321.197 195.063 319.078V317.95C195.063 317.654 195.25 317.093 195.624 316.269L196 316.453V316.084H197.312L198.242 315.893ZM208.729 316.453H208.913C209.109 316.453 209.36 316.704 209.665 317.205C209.788 319.657 209.85 321.279 209.85 322.072H209.665C209.665 322.195 209.727 322.257 209.85 322.257C209.85 322.585 209.663 323.271 209.289 324.314H208.353C208.157 324.314 207.908 324.066 207.607 323.569C207.607 323.287 207.669 323.036 207.792 322.817L207.607 322.441C207.73 321.767 207.792 321.206 207.792 320.76H205.358C205.162 320.76 204.912 320.511 204.606 320.015V319.823C204.688 319.076 204.878 318.702 205.174 318.702H206.11C206.233 318.702 206.295 318.764 206.295 318.887L206.671 318.702H207.607C207.607 318.451 207.669 318.326 207.792 318.326L207.607 317.95V317.581C207.607 316.829 207.981 316.453 208.729 316.453ZM202.364 325.442L206.671 326.003C207.295 326.468 207.607 327.215 207.607 328.245C207.607 330.218 207.108 331.28 206.11 331.431C205.486 331.257 205.174 330.82 205.174 330.118V329.934C205.174 329.815 205.297 329.316 205.543 328.437V327.876H205.358L202.74 327.685L202.364 327.876C201.617 327.552 201.243 327.115 201.243 326.563C201.366 326.322 201.428 326.135 201.428 326.003C201.305 326.003 201.243 325.939 201.243 325.812C201.991 325.725 202.364 325.602 202.364 325.442ZM214.368 314.04C216.36 314.797 217.355 315.918 217.355 317.403C216.886 319.149 216.077 320.021 214.929 320.021C212.436 319.73 211.189 318.483 211.189 316.282C211.189 315.125 212.249 314.377 214.368 314.04ZM213.247 316.282V316.658C213.37 317.656 213.931 318.155 214.929 318.155C215.175 317.745 215.298 317.371 215.298 317.034C215.097 316.41 214.724 316.098 214.177 316.098L213.247 316.282ZM211.559 321.143H218.107C218.285 321.143 218.472 321.329 218.668 321.703V322.455C218.668 322.633 218.356 322.881 217.731 323.2C217.048 323.077 216.549 323.016 216.234 323.016C215.419 323.016 214.359 323.077 213.056 323.2L210.813 322.824V322.64C210.813 322.517 210.875 322.455 210.998 322.455L210.813 322.079V321.519C211.009 321.519 211.258 321.393 211.559 321.143ZM213.616 324.882L214.553 325.073H217.171C217.795 325.369 218.107 326.491 218.107 328.437C218.107 329.307 217.483 329.742 216.234 329.742V329.558C215.975 329.681 215.289 329.806 214.177 329.934V330.118C214.177 330.296 214.364 330.483 214.737 330.679C215.198 330.679 216.07 330.553 217.355 330.303C217.857 330.43 218.107 330.806 218.107 331.431C217.857 332.178 217.171 332.552 216.05 332.552H214.929C213.056 332.552 212.119 331.615 212.119 329.742C212.119 328.767 213.117 328.145 215.113 327.876H216.05V327.131C212.933 327.131 211.374 326.88 211.374 326.379L211.189 325.634C211.65 325.292 212.459 325.041 213.616 324.882ZM230.85 315.708C232.718 315.708 233.652 316.519 233.652 318.142V318.333C233.652 322.075 232.905 323.945 231.41 323.945C230.895 323.945 230.396 324.007 229.913 324.13C229.694 324.007 229.446 323.945 229.168 323.945C228.926 324.068 228.74 324.13 228.607 324.13V323.945L228.231 324.13H227.479C226.709 324.13 225.962 321.699 225.237 316.836C225.237 316.084 226.484 315.708 228.977 315.708H230.85ZM237.022 316.275H237.398C238.023 316.594 238.335 317.091 238.335 317.766C238.335 317.902 238.271 318.091 238.144 318.333L238.335 319.454V319.823H240.201C240.461 319.878 240.712 320.19 240.953 320.76C240.702 321.165 240.577 321.478 240.577 321.696H240.017L238.704 321.888C238.704 321.76 238.643 321.696 238.52 321.696V323.193C238.52 324.688 238.271 325.436 237.774 325.436H236.838C236.838 325.244 236.713 324.996 236.462 324.69V320.391L236.277 319.454H236.462L236.277 319.078V317.581C236.277 316.911 236.526 316.476 237.022 316.275ZM227.295 317.957C227.919 320.382 228.231 321.753 228.231 322.072H228.977C230.599 322.072 231.41 321.822 231.41 321.32C231.533 320.646 231.595 320.085 231.595 319.639V317.766H228.231L227.295 317.957ZM231.786 326.188H232.347C232.72 326.707 233.156 327.767 233.652 329.366C234.778 329.116 235.84 328.99 236.838 328.99L237.207 329.558V330.303C237.207 330.777 236.022 331.15 233.652 331.424C232.34 331.424 231.467 330.239 231.034 327.869C231.189 326.748 231.44 326.188 231.786 326.188ZM246.969 315.523C247.465 315.646 247.901 315.708 248.274 315.708C248.516 315.585 248.705 315.523 248.842 315.523C248.842 315.719 248.965 315.97 249.211 316.275V317.205C249.211 317.456 248.589 317.643 247.345 317.766L246.969 317.581C246.837 317.581 246.65 317.643 246.408 317.766L245.656 317.581C244.535 317.681 243.975 317.868 243.975 318.142V318.894C243.975 319.112 244.535 319.361 245.656 319.639C245.784 319.639 245.848 319.577 245.848 319.454L246.784 319.639L248.65 319.454L249.211 320.199V321.136C248.924 321.136 248.55 321.323 248.09 321.696L247.153 321.512H245.656C243.414 321.512 242.293 320.575 242.293 318.702V317.581H241.917C241.917 317.458 241.979 317.396 242.102 317.396L241.917 317.021C241.917 316.351 242.165 315.913 242.662 315.708H242.854C242.977 315.708 243.038 315.772 243.038 315.899L243.414 315.708H245.096C245.688 315.708 246.312 315.646 246.969 315.523ZM242.478 322.257L244.351 322.448H249.402C249.776 322.571 249.963 322.945 249.963 323.569V324.13C249.963 324.381 249.838 324.506 249.587 324.506H247.905C247.532 324.506 247.345 324.567 247.345 324.69L246.408 324.506H245.096C244.471 324.506 243.537 324.442 242.293 324.314C242.293 324.068 242.168 323.945 241.917 323.945V323.378C241.917 322.927 242.104 322.553 242.478 322.257ZM243.229 325.251H247.529C248.527 325.251 249.026 326.001 249.026 327.5C249.026 328.53 247.716 329.216 245.096 329.558C245.096 329.804 245.283 329.927 245.656 329.927C245.784 329.927 245.848 329.865 245.848 329.742L246.784 329.927C247.737 329.927 248.858 329.804 250.147 329.558L250.332 329.927V330.487C250.332 331.485 249.336 331.984 247.345 331.984L246.969 331.8L246.593 331.984L246.217 331.8C246.094 331.8 246.032 331.861 246.032 331.984C243.913 331.697 242.854 330.95 242.854 329.742V329.558C242.854 328.364 244.1 327.614 246.593 327.309V327.124H243.414C243.2 327.124 243.013 326.812 242.854 326.188C243.104 325.782 243.229 325.47 243.229 325.251ZM261.393 318.716C262.017 319.062 262.329 319.561 262.329 320.213C262.329 320.336 262.265 320.397 262.138 320.397C262.265 321.172 262.452 323.478 262.698 327.315C262.575 327.557 262.514 327.744 262.514 327.876H261.953L261.017 327.691C260.894 325.349 260.771 323.916 260.647 323.392H257.653V322.64C257.653 321.892 258.152 321.519 259.15 321.519H260.647L260.456 320.213V319.652C260.456 319.484 260.768 319.172 261.393 318.716ZM253.729 319.276C253.729 319.527 254.413 319.714 255.78 319.837C256.623 320.571 257.186 321.692 257.469 323.2C256.967 324.695 256.218 325.442 255.22 325.442H254.659C252.417 324.973 251.296 323.727 251.296 321.703C251.624 320.6 252.123 319.917 252.793 319.652C253.199 319.402 253.511 319.276 253.729 319.276ZM253.169 321.519V321.895C253.328 323.016 253.889 323.576 254.851 323.576H255.22L255.78 323.2C255.493 321.956 254.871 321.334 253.914 321.334L253.169 321.519ZM268.885 315.729L269.261 316.289V317.595L268.885 318.155V318.531C270.37 319.21 271.368 319.894 271.879 320.582C271.879 321.252 271.567 321.628 270.942 321.71C270.396 321.532 269.461 320.969 268.14 320.021H267.764C267.518 320.896 267.269 321.334 267.019 321.334C267.019 321.206 266.957 321.143 266.834 321.143V321.334C266.957 321.334 267.019 321.396 267.019 321.519H266.082C265.904 321.519 265.717 321.332 265.521 320.958C265.521 320.835 265.585 320.773 265.713 320.773L265.521 320.397C266.52 318.812 267.019 317.877 267.019 317.595H264.216C264.038 317.595 263.851 317.408 263.655 317.034V316.474C263.655 316.164 263.904 315.977 264.4 315.913C264.633 315.913 266.128 315.852 268.885 315.729ZM271.688 322.831C272.257 323.068 272.569 323.316 272.624 323.576C272.624 324.447 272.063 324.882 270.942 324.882V324.697C270.724 324.82 270.475 324.882 270.197 324.882L270.382 325.818V327.124C270.186 327.124 269.938 327.249 269.637 327.5H268.885C268.885 327.249 268.762 327.124 268.516 327.124V324.882H267.203C266.925 324.882 266.677 324.946 266.458 325.073C265.214 324.918 264.592 324.668 264.592 324.321V324.137C264.592 324.014 264.653 323.952 264.776 323.952L264.592 323.576V323.392L265.897 323.016V323.2C266.139 323.077 266.326 323.016 266.458 323.016C266.709 323.016 266.834 323.077 266.834 323.2C269.126 322.954 270.744 322.831 271.688 322.831ZM265.713 327.5H266.273C266.688 327.5 267.062 328.373 267.395 330.118H268.324C269.012 330.118 269.885 330.054 270.942 329.927C271.184 330.054 271.371 330.118 271.503 330.118V330.303L271.318 330.679C271.564 330.679 271.688 330.74 271.688 330.863C271.688 331.451 271.004 331.825 269.637 331.984H267.764C266.201 331.984 265.33 330.863 265.152 328.621C265.316 327.874 265.503 327.5 265.713 327.5ZM279.754 317.772C280.005 318.178 280.13 318.552 280.13 318.894V319.263C279.938 319.887 278.38 320.199 275.454 320.199V321.696C275.454 323.815 275.953 324.875 276.951 324.875H279.378C279.506 324.875 279.756 325.126 280.13 325.627C280.13 326.625 279.756 327.124 279.009 327.124C278.293 327.124 277.856 327.186 277.696 327.309C275.326 327.017 274.142 326.395 274.142 325.442C273.768 324.276 273.581 323.214 273.581 322.257V318.894L274.326 317.957L275.639 318.142C278.018 317.896 279.389 317.772 279.754 317.772ZM284.43 317.772C284.931 318.392 285.182 319.639 285.182 321.512H287.239L288.176 321.696V323.009C288.048 323.382 287.672 323.569 287.048 323.569H285.182V326.563C285.182 327.434 284.744 327.869 283.869 327.869L283.309 327.124V321.888C283.309 321.163 283.247 320.165 283.124 318.894C283.329 318.146 283.764 317.772 284.43 317.772ZM289.7 316.084H290.261C290.511 316.339 290.762 318.584 291.013 322.817L290.261 323.378H290.076C289.748 323.378 289.497 322.879 289.324 321.881V320.015L289.14 318.887C289.14 318.764 289.201 318.702 289.324 318.702L289.14 317.766V316.645C289.14 316.462 289.326 316.275 289.7 316.084ZM290.821 324.69C291.2 325.41 291.389 325.848 291.389 326.003C291.202 326.5 291.013 326.748 290.821 326.748C290.074 326.748 289.7 326.374 289.7 325.627C289.778 325.253 290.151 324.941 290.821 324.69Z" fill="black"/>
</svg>
