<svg width="95" height="102" viewBox="0 0 95 102" fill="none" xmlns="http://www.w3.org/2000/svg">
<path d="M8.93262 57.087C9.13315 57.6982 9.64347 60.4069 10.6853 60.5231C8.36188 61.1058 6.86344 65.0297 5.94177 66.8791C4.17283 70.4284 4.89658 75.3569 4.89658 79.2361C4.89658 83.6508 5.75959 87.117 8.51454 90.7221C10.6936 93.5735 12.3864 95.7665 15.4771 97.691C18.8536 99.7936 21.9055 100.014 25.7682 100.014C28.5793 100.014 31.6527 100.356 34.4513 99.9818C36.2427 99.7421 38.1895 98.8965 39.8541 98.2073C41.8931 97.363 43.5939 96.3984 45.1926 94.8518C46.7011 93.3925 47.2535 92.0709 48.0664 90.1259L48.087 90.0768C50.1594 85.1187 50.6276 80.37 50.6276 75.0257C50.6276 72.4114 51.0532 68.7902 49.0357 66.7661C48.2679 65.9959 47.6559 65.0354 46.9292 64.2334C46.3511 63.5954 45.3066 62.4131 44.9031 61.6846C44.3256 60.6416 42.7015 58.9 41.655 58.2001C41.655 49.0098 41.8541 38.9291 41.655 29.7433C41.5683 25.7414 39.7262 22.1445 39.1144 18.2574L39.1091 18.2234C38.9431 17.1677 38.6173 15.0957 37.3135 14.9504C36.0547 14.81 34.8542 15.096 33.6151 15.2246C32.5069 15.3396 31.8475 18.2601 31.5248 19.0156C28.8008 25.3922 27.1832 32.7441 27.1832 39.6968V49.5856C27.1832 50.1955 27.5915 54.163 26.733 54.4091C25.4126 54.7876 23.372 54.4994 22.0216 54.4091C21.0015 54.3408 20.8672 54.1433 20.8156 53.2637C20.7674 52.4411 20.1754 50.8524 19.883 50.0051C19.1988 48.0221 19.4176 45.7893 18.9021 43.7781C18.2663 41.2974 17.4725 38.8449 16.8278 36.3574C16.0131 33.2138 15.8032 29.9137 15.0269 26.7428C14.1626 23.2128 13.4321 19.6646 12.4541 16.1603C12.0266 14.6286 11.3895 10.8698 9.75269 10.1269C6.83385 8.80221 3.94585 14.6178 3.28861 16.4829C2.17444 19.6446 2.87053 23.84 2.87053 27.1461C2.87053 31.616 3.22408 35.7466 4.0926 40.1323C5.2264 45.8576 7.11348 51.5417 8.93262 57.087Z" fill="#AFAFAF" stroke="black" stroke-width="2" stroke-linecap="round"/>
<path d="M10.9327 76.1527C10.8006 75.2679 11.598 73.6063 12.157 72.9323C12.5751 72.5198 12.9311 71.927 13.416 71.5999C13.8264 71.3231 14.2392 71.0289 14.6576 70.7722C14.8187 70.6733 15.3108 70.4495 15.4853 70.3583C15.9995 70.0897 16.5717 69.9799 17.1408 69.9445C17.9686 69.9445 17.9686 69.9445 18.7963 70.3583C19.3707 70.4467 19.9536 70.7934 20.4852 71.0399C21.3048 71.4198 21.9769 72.2183 22.5917 72.86C23.2579 73.5554 23.7107 74.5387 23.8854 75.4852C23.9473 75.8206 23.892 76.2254 23.8854 76.5666C23.8755 77.0785 23.7701 77.57 23.527 78.0096C23.1941 78.6117 23.0057 79.3994 22.5212 79.8775C22.1206 80.2728 21.7232 80.771 21.2795 81.1192C20.3848 81.8213 19.064 82.0705 17.9723 82.4097C17.2125 82.6457 16.532 82.7175 15.4852 82.3607C14.3057 81.9588 13.163 81.4092 12.3597 80.4635C11.7127 79.7018 11.1189 79.0498 10.9327 77.8722C10.7265 77.305 11.0222 76.7521 10.9327 76.1527Z" fill="white" stroke="black" stroke-width="2" stroke-linecap="round"/>
<path d="M31.4071 68.5119C32.047 67.9205 33.6189 67.3678 34.5343 67.1079C35.6882 66.9541 36.1789 67.0478 37.2072 67.1447C38.2483 67.4618 39.6386 67.1079 41.5337 69.945C43.2148 73.256 42.6707 73.6676 42.5243 74.8911C42.388 76.0299 42.1462 77.1774 41.5337 78.1575C41.042 78.9441 40.3711 79.6452 39.6386 80.2143C38.7546 80.901 37.7468 80.9592 36.671 80.9592C35.422 80.9592 34.2682 80.624 33.0976 80.2143C32.1604 79.8863 31.2886 79.4245 30.5885 78.708C29.7759 77.8764 29.444 76.6246 29.2193 75.5112C29.1039 74.9389 29.1464 74.3227 29.1743 73.743C29.1966 73.2789 29.1999 72.8477 29.3217 72.3963C29.6001 71.3644 30.0555 70.3493 30.6458 69.4574C30.8669 69.1233 31.1119 68.7847 31.4071 68.5119Z" fill="white" stroke="black" stroke-width="2" stroke-linecap="round"/>
<path d="M17.1509 70.9458C17.3639 71.0872 17.5813 71.2213 17.7403 71.4253C17.8091 71.5135 17.874 71.6048 17.9387 71.696C18.0161 71.805 18.0726 71.9251 18.1361 72.042C18.212 72.1817 18.2759 72.3275 18.3279 72.4782C18.3875 72.6507 18.4673 72.817 18.5084 72.9953C18.5992 73.3886 18.5782 73.799 18.5723 74.2005C18.5686 74.4567 18.4916 74.7114 18.437 74.9602C18.3721 75.2556 18.2756 75.546 18.1794 75.8326C18.0676 76.1654 17.8812 76.4795 17.6078 76.6994C17.4271 76.8447 17.2376 76.975 17.0531 77.1149C16.8637 77.2586 16.6679 77.4033 16.4514 77.5041C16.0463 77.693 15.6183 77.8124 15.1954 77.9516C14.8726 78.0579 14.5434 78.112 14.2083 78.1679C13.8552 78.2267 13.5061 78.3016 13.1478 78.3202C13.0002 78.3278 12.8518 78.3239 12.7041 78.3239C12.6438 78.3239 12.5942 78.3067 12.5856 78.3822C12.5675 78.5404 12.6316 78.6961 12.7078 78.8297C12.8911 79.151 13.0834 79.464 13.317 79.7511C13.8406 80.3945 14.4381 81.1152 15.2255 81.4414C15.3973 81.5126 15.5949 81.5581 15.7783 81.5824C15.954 81.6057 16.1074 81.6564 16.2747 81.7122C16.3125 81.7248 16.343 81.7388 16.3762 81.7554C16.3762 81.7554 16.3425 81.5547 16.3386 81.5392C16.2718 81.2722 16.2201 81.0039 16.2201 80.7269C16.2201 80.2959 16.3506 79.8883 16.4458 79.4728C16.5626 78.9629 16.6654 78.4455 16.8162 77.9441C16.9428 77.523 17.0643 77.1059 17.337 76.7539C17.5902 76.4272 17.9138 76.2116 18.2941 76.0526C18.764 75.8561 19.2737 75.8581 19.7682 75.7687C20.2269 75.6857 20.6999 75.6783 21.1652 75.6841C21.2941 75.6856 21.3972 75.7305 21.5131 75.7818C21.6637 75.8486 21.8191 75.905 21.97 75.9717C21.9933 75.982 22.2224 76.1084 22.2407 76.0864C22.2831 76.0356 22.2486 75.7765 22.237 75.7141C22.1407 75.1975 21.6787 74.8094 21.325 74.46C21.1265 74.2639 20.9156 74.0651 20.7591 73.8339C20.6288 73.6414 20.5301 73.4258 20.3962 73.2341C20.3811 73.2125 20.2568 72.9968 20.2213 73.0178C20.1972 73.0322 19.6253 70.9458 20.18 73.0912C20.123 73.2058 20.0655 73.3198 20.0013 73.4306C19.8872 73.6276 19.7563 73.8151 19.6253 74.0012C19.4292 74.2799 19.2775 74.5689 19.1063 74.8624C18.8888 75.2353 18.6458 75.5927 18.4031 75.9492C18.1124 76.3763 17.8465 76.8161 17.5401 77.2334C17.2544 77.6224 16.9362 77.9923 16.6169 78.354C16.3479 78.6587 16.0876 78.9614 15.7689 79.2152C15.5688 79.3745 15.4062 79.574 15.1992 79.7247C15.0424 79.8389 14.9256 79.9931 14.778 80.1177C14.643 80.2316 14.5307 80.3712 14.4095 80.4994C14.3785 80.5321 14.3086 80.7146 14.4113 80.6573C14.5592 80.575 14.7024 80.4664 14.8325 80.3584C14.8708 80.3266 14.918 80.3013 14.934 80.2531" stroke="black" stroke-width="2" stroke-linecap="round"/>
<path d="M35.9227 67.373C36.364 67.8517 36.781 68.2853 37.0027 68.8997C37.0873 69.1345 37.1486 69.3637 37.175 69.612C37.2259 70.091 37.1958 70.5903 37.0614 71.0519C36.863 71.7331 36.5664 72.3817 36.0619 72.8863C35.7861 73.1621 35.4664 73.3868 35.1339 73.5896C34.7341 73.8334 34.299 74.0936 33.8573 74.2508C33.2225 74.4768 32.5962 74.662 31.9349 74.7959C31.6607 74.8515 31.3926 74.95 31.1129 74.9733C31.0065 74.9822 30.9051 74.9923 30.8001 75.0116C30.7468 75.0215 30.6695 75.0084 30.6201 75.0295C30.4309 75.1106 31.3382 76.5601 31.4154 76.6979C31.6508 77.1183 31.8137 77.5813 31.9885 78.0293C32.0465 78.1779 32.1048 78.327 32.1507 78.4799C32.1563 78.4987 32.1545 78.3731 32.1545 78.3535C32.1545 77.7075 32.1007 77.0383 32.1762 76.3966C32.184 76.3303 32.3105 76.7174 32.3204 76.7579C32.4425 77.2543 32.5498 77.7536 32.6779 78.2488C32.7652 78.5867 32.8778 78.8903 33.0046 79.2075C33.1091 79.4687 33.3571 79.6736 33.551 79.8675C33.6542 79.9707 33.692 79.6557 33.7067 79.593C33.7755 79.2998 33.9004 79.0205 34.0029 78.7377C34.1656 78.2886 34.3084 77.8337 34.516 77.4012C34.6313 77.161 34.7013 76.9022 34.8096 76.6596C34.9049 76.4461 35.0165 76.2327 35.1198 76.0226C35.371 75.5119 35.6131 74.9808 35.9202 74.501C36.1848 74.0875 36.4968 73.7191 36.9005 73.4339C37.4746 73.0283 38.1518 72.8706 38.8459 72.8441C39.1649 72.832 39.4866 72.8387 39.8059 72.8416C39.9898 72.8432 40.149 72.8607 40.3165 72.9335C40.537 73.0294 40.7846 73.1511 40.9662 73.3113C41.0574 73.3918 41.2098 73.4758 41.3223 73.5258C41.3933 73.5573 41.3887 73.2346 41.39 73.1952C41.3992 72.9044 41.4238 72.5821 41.3645 72.2965C41.2795 71.8877 41.104 71.5137 40.9368 71.1336C40.7017 70.5991 40.4323 70.0463 40.1071 69.561C39.964 69.3474 39.8081 69.1559 39.622 68.9802C39.5391 68.9019 39.4249 68.7489 39.3131 68.7083C39.1878 68.6627 38.0424 68.8126 38.0375 68.874C37.9975 69.3748 39.0713 70.374 39.0527 70.8758C39.0427 71.1459 39.0017 71.418 39.0017 71.6876C39.0017 71.7615 38.9789 71.8125 38.9429 71.8778C38.8412 72.0628 38.6662 72.167 38.4859 72.2672C38.0867 72.4889 37.6694 72.6677 37.2503 72.8467C36.8125 73.0336 36.3956 73.2087 36.0466 73.5322C35.6814 73.8706 35.3757 74.2816 35.0394 74.6491C34.8926 74.8095 34.7385 74.9613 34.5888 75.1189C34.4103 75.3067 34.2707 75.5035 34.0641 75.6652C33.9161 75.7811 33.7823 75.9141 33.625 76.0175C33.5265 76.0823 33.3974 76.1653 33.3263 76.2601C33.2766 76.3264 33.1656 76.4834 33.0966 76.5179" stroke="black" stroke-width="2" stroke-linecap="round"/>
<path d="M3.94055 8.06001C4.11584 7.72788 4.31135 7.0354 5.03168 6.60518C5.752 6.17507 6.26709 6.42332 6.87042 6.42332H8.55762C9.08834 6.42332 10.192 6.40076 10.5782 6.78703C11.1312 7.33996 11.8752 7.83186 12.3463 8.47423C13.2488 9.70495 14.2654 10.8705 15.1195 12.1517C15.2972 12.4182 15.4169 12.8437 15.5085 13.1519C15.5956 13.4451 15.805 13.6831 15.9025 13.9703C16.168 14.7521 16.4954 15.5112 16.7613 16.294C18.3285 20.9086 18.8308 25.8082 19.2618 30.6352C19.522 33.5495 19.6709 36.4933 19.6709 39.4197C19.6709 40.3975 16.7481 40.2201 16.1197 40.2987C14.6653 40.4805 13.2045 40.43 11.7401 40.43C9.37811 40.43 7.04947 40.3868 4.69323 40.2482C4.12437 40.2147 2.20661 40.2441 1.91995 39.7026C1.80116 39.4782 1.67591 39.2825 1.66738 38.9752C1.53476 34.2011 1.57645 29.4146 1.57645 24.634C1.57645 21.4325 1.36466 18.162 1.80377 14.9907C2.0546 13.1791 2.71694 11.5953 3.23334 9.85834C3.4212 9.22645 3.63418 8.6405 3.94055 8.06001Z" fill="#6C11A4" stroke="black" stroke-width="2" stroke-linecap="round"/>
<path d="M31.0263 13.6171C31.1561 13.4687 33.4492 10.816 33.6733 11.1521L34.5118 11.152C34.7603 11.152 35.3156 11.1623 35.5423 11.2631C36.2018 11.5562 36.7414 12.2702 37.2396 12.7684C37.9169 13.4458 38.4812 14.1314 38.9672 14.9709C39.0777 15.1618 39.2948 15.2691 39.4017 15.4659C39.5375 15.7161 39.6008 15.9609 39.6946 16.2237C39.8521 16.6645 40.0804 17.2359 40.316 17.6482C40.6151 18.1717 40.6565 18.7135 40.806 19.2899C40.9968 20.0259 41.1175 20.7784 41.2707 21.5227C41.6045 23.144 41.8519 24.776 42.1497 26.3974C42.3007 27.2199 42.5689 28.1298 42.5841 28.9636C42.5986 29.7605 42.5147 30.6602 42.766 31.4287C43.125 32.5271 43.2206 34.0099 43.2206 35.1617V37.2026C43.2206 37.6827 43.4377 38.5368 42.9428 38.7534C41.9677 39.18 41.0388 39.3463 40.0331 39.6576C37.0277 40.5878 33.7534 40.4305 30.6474 40.4305H28.2681C27.4682 40.4305 26.6509 40.6646 25.8687 40.6376C25.5986 40.6283 25.6338 39.7846 25.5807 39.6121C25.3616 38.8998 25.3989 37.9725 25.3989 37.2278V34.4091C25.3989 31.6445 25.8473 28.8633 26.49 26.1852C26.9319 24.3439 27.1426 22.47 27.8489 20.7043C28.3148 19.5396 28.6941 18.285 29.0915 17.0925C29.4824 15.9199 30.2199 14.5387 31.0263 13.6171Z" fill="#6C11A4" stroke="black" stroke-width="2" stroke-linecap="round"/>
<circle cx="5.96648" cy="4.96648" r="3.96648" fill="#FFFF00" stroke="black" stroke-width="2"/>
<circle cx="35.7653" cy="10.7609" r="3.96648" fill="#FFFF00" stroke="black" stroke-width="2"/>
<path d="M28.2703 26.1028C28.0756 25.6362 27.3255 25.0128 26.9631 24.6504C26.7905 24.9093 26.873 25.3361 26.873 25.632C26.873 26.3378 26.8844 27.0448 26.873 27.7505C26.8586 28.6414 26.5688 29.5088 26.4222 30.3798C26.168 31.8908 26.2522 33.4247 25.9715 34.9272C25.862 35.5136 25.9264 36.1508 25.9264 36.7452C25.9264 36.8463 25.8292 37.5125 26.0616 37.3963C26.2812 37.2865 26.4457 37.0341 26.6576 36.9005C26.9755 36.7001 27.1931 36.3816 27.514 36.1793C28.2283 35.729 28.7792 35.0826 29.3771 34.4965C29.5393 34.3375 29.7171 34.3547 29.8729 34.5015C30.1059 34.7212 30.4903 34.7476 30.7593 34.9372C30.9184 35.0494 31.0709 35.1556 31.2451 35.2427C31.4301 35.3352 31.5637 35.4973 31.7409 35.5933C31.9758 35.7205 32.3602 35.7162 32.6224 35.7836C33.0024 35.8813 33.3553 36.0096 33.7042 36.1893C33.7622 36.2192 34.1525 36.465 34.0948 36.3495C34.0318 36.2235 34.0231 36.0707 33.9496 35.9539C33.8527 35.8 33.7874 35.6256 33.7192 35.4581C33.496 34.9104 33.1698 34.404 32.8878 33.8855C32.6078 33.3706 32.3248 32.8557 32.0364 32.3455C31.8941 32.0937 31.6626 31.8606 31.6157 31.5667C31.5778 31.3288 31.7798 31.1496 31.9212 30.9707C32.9483 29.6718 34.2109 28.4977 35.0413 27.0393C35.2398 26.6908 35.3919 26.4179 35.3919 26.0101C35.3919 25.9284 35.4497 25.6259 35.3018 25.652C35.0279 25.7004 34.7904 25.7963 34.5055 25.8323C33.0909 26.0112 31.6862 26.4779 30.4588 27.1996C30.0482 27.441 29.664 27.693 29.317 28.0184C29.1852 28.142 29.2259 28.1029 29.1267 28.0409C29.0283 27.9795 28.9809 27.7453 28.9364 27.6478C28.703 27.1375 28.4863 26.6205 28.2703 26.1028Z" fill="#FFFF00" stroke="black" stroke-width="2" stroke-linecap="round"/>
<path d="M15.1087 14.8941C15.2645 14.5881 15.4268 13.9386 15.7865 13.8291C16.2812 15.8487 16.7774 17.868 17.2691 19.8884C17.3271 20.1264 17.3945 20.3724 17.4395 20.6158C17.5041 20.9653 17.5516 21.3203 17.6087 21.6714C17.6847 22.1387 17.7123 22.6127 17.786 23.0791C17.8298 23.3571 17.817 23.6387 17.817 23.9194V24.4904C17.817 24.6392 17.7735 24.8694 17.8585 24.9968C17.6156 24.9968 17.0115 24.332 16.794 24.2169C16.541 24.0829 16.3615 24.019 16.0778 24.019C15.9617 24.019 15.8982 24.1115 15.8099 24.1743C15.4835 24.4065 15.1971 24.7141 14.8934 24.9756C14.463 25.346 14.067 25.699 13.6013 26.0273C13.2113 26.3022 12.8807 26.7314 12.4694 26.9639C12.445 26.9777 12.4878 26.3893 12.4919 26.3378C12.531 25.8494 12.6245 25.3663 12.6297 24.8654C12.6361 24.2389 12.7723 23.3662 12.4919 22.782C12.2341 22.2448 11.7754 21.8484 11.3576 21.4398C11.0666 21.1553 10.7196 20.9258 10.416 20.6535C9.83288 20.1304 9.32797 19.5203 8.86349 18.8906C8.79158 18.7932 8.46054 18.3202 8.71325 18.2922C9.0159 18.2585 9.30927 18.2556 9.61472 18.2471C10.2024 18.2308 10.7904 18.1587 11.3776 18.1244C11.9521 18.0908 12.5277 18.1077 13.1029 18.0718C13.2795 18.0608 13.5031 18.1149 13.6463 17.9791C14.0241 17.6212 14.1599 16.9562 14.36 16.4967C14.5969 15.9527 14.8393 15.4233 15.1087 14.8941Z" fill="#FFFF00" stroke="black" stroke-width="2" stroke-linecap="round"/>
<path d="M2.77377 30.9155C2.5805 30.9323 2.03972 30.8159 1.84397 30.8159C1.68517 33.1581 1.82814 35.7282 1.82814 38.0765L1.82805 39.3181C1.82805 39.4206 2.09941 39.7201 2.24211 39.732C2.67075 39.7677 2.41666 39.5544 2.84569 39.6021C3.99062 39.7293 5.16198 39.7015 6.31242 39.7015C7.30824 39.7015 8.30413 39.6975 9.29994 39.7015C9.80807 39.7035 10.3097 39.788 10.8161 39.788C10.8161 39.3181 10.5194 38.9042 9.8128 38.4428C9.64728 38.2589 9.5211 37.9592 9.32951 37.8118C9.00816 37.5646 8.77257 37.1998 8.48563 36.9128C7.87782 36.305 7.16392 35.6756 6.82541 34.867C6.67446 34.5064 6.82284 34.2316 6.99569 33.9254C7.33864 33.3179 7.75143 32.7485 8.13756 32.1675C8.5407 31.5611 9.09256 30.9101 9.35455 30.2194C9.40179 30.0948 9.3846 29.9493 9.3846 29.8187C9.3846 29.6871 9.14505 29.7607 9.07409 29.7711C7.80577 29.9583 6.56287 30.3187 5.30292 30.5549C4.46607 30.7118 3.62232 30.8417 2.77377 30.9155Z" fill="#FFFF00" stroke="black" stroke-width="2" stroke-linecap="round"/>
<path d="M22.0497 89.4999C22.3918 87.9698 22.3993 86.5835 23.2766 85.2634C23.4201 85.0474 23.7727 84.4655 24.1294 84.4704C24.4562 84.4749 24.6304 84.7421 24.8272 84.9604C25.2258 85.4028 25.7069 85.7658 26.0904 86.2211C26.5042 86.7122 26.8516 87.256 27.1713 87.8071C27.2446 87.9334 27.1894 87.9646 27.2853 87.7091C27.559 86.9803 27.8915 86.2808 28.3023 85.6153C28.7276 84.9264 29.1806 84.1976 29.7435 83.6061C29.8889 83.4533 30.2419 83.0072 30.5051 83.027C30.749 83.0453 31.0044 83.5138 31.1162 83.6819C31.5097 84.2729 31.8524 84.911 32.1287 85.5618C32.4933 86.4209 32.7645 87.3182 32.9861 88.2214C33.095 88.6654 33.1421 89.1033 33.2232 89.5489C33.2616 89.7595 33.4347 89.7821 33.1961 89.7821C32.4545 90.1443 32.49 90.1846 31.9919 90.8364C31.6821 91.2416 31.2476 91.5358 30.8289 91.8254C30.2854 92.2013 29.7091 92.5909 29.0868 92.8322C28.3351 93.1236 27.5705 93.2671 26.77 93.3534C26.437 93.3893 25.8422 93.4897 25.5614 93.2465C25.2509 92.9775 24.8745 92.7924 24.5353 92.5604C23.7165 92.0006 23.0157 91.2782 22.442 90.48C22.3716 90.3821 21.8313 89.6752 22.0497 89.4999Z" fill="#FF0000"/>
<path d="M22.0497 89.4999C22.3918 87.9698 22.3993 86.5835 23.2766 85.2634C23.4201 85.0474 23.7727 84.4655 24.1294 84.4704C24.4562 84.4749 24.6304 84.7421 24.8272 84.9604C25.2258 85.4028 25.7069 85.7658 26.0904 86.2211C26.5042 86.7122 26.8516 87.256 27.1713 87.8071C27.2446 87.9334 27.1894 87.9646 27.2853 87.7091C27.559 86.9803 27.8915 86.2808 28.3023 85.6153C28.7276 84.9264 29.1806 84.1976 29.7435 83.6061C29.8889 83.4533 30.2419 83.0072 30.5051 83.027C30.749 83.0453 31.0044 83.5138 31.1162 83.6819C31.5097 84.2729 31.8524 84.911 32.1287 85.5618C32.4933 86.4209 32.7645 87.3182 32.9861 88.2214C33.095 88.6654 33.1421 89.1033 33.2232 89.5489C33.2616 89.7595 33.4347 89.7821 33.1961 89.7821M22.0497 89.4999C22.1839 89.3923 22.744 89.4821 22.8843 89.4821C25.5254 89.4821 28.1723 89.45 30.8107 89.589C31.534 89.6272 32.4714 89.7821 33.1961 89.7821M22.0497 89.4999C21.8313 89.6752 22.3716 90.3821 22.442 90.48C23.0157 91.2782 23.7165 92.0006 24.5353 92.5604C24.8745 92.7924 25.2509 92.9775 25.5614 93.2465C25.8422 93.4897 26.437 93.3893 26.77 93.3534C27.5705 93.2671 28.3351 93.1236 29.0868 92.8322C29.7091 92.5909 30.2854 92.2013 30.8289 91.8254C31.2476 91.5358 31.6821 91.2416 31.9919 90.8364C32.49 90.1846 32.4545 90.1443 33.1961 89.7821" stroke="black" stroke-width="2" stroke-linecap="round"/>
<path d="M58.2779 67.6008L59.0528 67.391L60.2702 70.0479L61.1977 69.7967C61.4051 69.7405 61.4807 69.6087 61.4245 69.4014L61.0578 68.6751C61.0525 68.0128 61.3307 67.6056 61.8925 67.4535C62.2292 67.4715 62.4676 67.7388 62.6075 68.2554L62.8587 69.1829L63.4751 69.0159L64.2913 68.9588L63.9987 67.8785C63.8486 67.3243 63.9561 66.9067 64.3211 66.6257L64.9432 66.4572L65.7668 68.893C66.4368 71.3664 65.6369 72.9104 63.3671 73.5252L63.0617 73.6079C62.0399 73.8847 61.0239 73.6075 60.0136 72.7763C59.0161 71.1403 58.4086 69.9208 58.191 69.1177L57.9398 68.1902C57.9 68.0432 58.0127 67.8467 58.2779 67.6008ZM63.5552 71.1493L63.6808 71.613C64.3669 71.2774 64.6732 70.9739 64.5997 70.7024L64.4741 70.2387C63.7992 70.6157 63.4929 70.9193 63.5552 71.1493ZM61.1537 71.4719C61.2561 71.6708 61.57 71.8063 62.0955 71.8785C62.0332 71.6485 62.0284 71.4293 62.0812 71.2207L61.1537 71.4719ZM63.7353 74.2571L64.5101 74.0473C65.0109 75.0893 65.3501 75.9384 65.5278 76.5944L65.8389 76.5102C66.2687 76.3937 66.8224 76.1891 67.4999 75.8964C68.0522 75.8884 68.3523 75.973 68.4003 76.1503L68.4417 76.303L68.4232 77.4674L64.7075 78.4739C62.7506 79.0039 61.7028 79.0125 61.5639 78.4997C61.4454 78.0624 61.5529 77.6448 61.8862 77.2469L63.015 77.1111L63.9425 76.8599L63.5228 75.3103C63.4194 74.6746 63.4902 74.3235 63.7353 74.2571ZM66.8066 65.2908L67.5814 65.0809L68.7988 67.7379L69.7263 67.4866C69.9337 67.4305 70.0093 67.2987 69.9531 67.0913L69.5865 66.3651C69.5811 65.7028 69.8593 65.2956 70.4211 65.1434C70.7579 65.1615 70.9962 65.4288 71.1361 65.9453L71.3873 66.8728L72.0038 66.7059L72.8199 66.6487L72.5274 65.5685C72.3772 65.0142 72.4847 64.5966 72.8497 64.3156L73.4718 64.1471L74.2955 66.5829C74.9654 69.0563 74.1655 70.6004 71.8957 71.2152L71.5903 71.2979C70.5685 71.5747 69.5525 71.2974 68.5423 70.4662C67.5447 68.8303 66.9372 67.6108 66.7197 66.8077L66.4684 65.8802C66.4286 65.7331 66.5413 65.5367 66.8066 65.2908ZM72.0838 68.8392L72.2094 69.303C72.8956 68.9674 73.2019 68.6639 73.1283 68.3924L73.0027 67.9286C72.3278 68.3057 72.0215 68.6092 72.0838 68.8392ZM69.6823 69.1619C69.7847 69.3608 70.0987 69.4963 70.6241 69.5685C70.5618 69.3385 70.557 69.1192 70.6098 68.9107L69.6823 69.1619ZM72.2639 71.9471L73.0387 71.7372C73.5395 72.7793 73.8788 73.6283 74.0565 74.2844L74.3675 74.2001C74.7973 74.0837 75.351 73.8791 76.0285 73.5863C76.5808 73.5784 76.8809 73.663 76.9289 73.8402L76.9703 73.9929L76.9518 75.1574L73.2361 76.1638C71.2793 76.6938 70.2314 76.7025 70.0925 76.1897C69.974 75.7523 70.0815 75.3347 70.4148 74.9368L71.5436 74.8011L72.4711 74.5499L72.0514 73.0002C71.948 72.3645 72.0189 72.0135 72.2639 71.9471ZM76.9221 62.7209L77.3858 62.5953C78.1475 62.389 78.6022 62.4318 78.75 62.7236C78.8052 62.9272 78.8414 63.4718 78.8587 64.3575C80.051 65.0989 80.668 65.5388 80.7095 65.6773L80.8351 66.1411C80.7391 66.6082 80.4856 66.8974 80.0746 67.0087C79.2888 66.5579 78.8683 66.2307 78.8131 66.027L78.5021 66.1113C78.6583 66.6882 78.4486 67.1315 77.8728 67.4412C77.5636 67.525 77.2587 67.221 76.9581 66.5295C77.1274 65.1077 77.1901 64.3157 77.1462 64.1535L76.9935 64.1949C76.8411 64.3495 76.6481 64.4584 76.4143 64.5218L75.7978 64.6887C75.6508 64.7286 75.4543 64.6158 75.2085 64.3506C75.0124 63.6267 75.5836 63.0834 76.9221 62.7209ZM81.8809 62.0455C82.3333 61.923 82.7119 62.0956 83.0167 62.5635L83.1152 63.5324C84.4674 64.1617 85.2114 64.4579 85.3471 64.4212L85.557 65.196C85.605 65.3732 85.3886 65.5977 84.9078 65.8696L82.87 65.0921C82.973 65.9505 82.6738 66.4747 81.9725 66.6647C81.8255 66.7045 81.629 66.5918 81.3831 66.3265C81.2902 65.9834 81.3235 65.0901 81.4829 63.6467C81.2894 63.7841 80.7514 64.0391 79.8689 64.4116C79.5404 64.4237 79.2792 64.2739 79.0855 63.9622C79.1204 63.1797 80.0522 62.5408 81.8809 62.0455ZM82.4449 67.1984L83.2611 67.1412L83.5123 68.0687L83.8749 68.8022L84.497 68.6337L86.0823 68.3682L86.3335 69.2957C86.3532 69.6222 85.9822 69.8887 85.2206 70.0949L81.2051 71.1826C80.9817 71.1945 80.7063 70.9919 80.3788 70.5747C80.3731 70.2849 80.5601 69.959 80.9396 69.5972L82.3309 69.2204L81.954 67.8291C81.9122 67.6745 82.0758 67.4643 82.4449 67.1984ZM84.2389 71.3564L84.7026 71.2308C85.732 70.952 86.4141 71.4309 86.7491 72.6676C86.8205 72.9316 87.0636 73.4181 87.4783 74.1274L86.9818 74.7596L86.5181 74.8852C86.141 74.9874 85.6753 74.2839 85.1208 72.7748L84.346 72.9846L83.6182 73.3457L83.5769 73.193L83.3072 73.4299C82.8686 73.4394 82.5794 73.1859 82.4395 72.6694L82.3568 72.364C82.9366 71.8751 83.564 71.5392 84.2389 71.3564Z" fill="black"/>
</svg>
