<svg width="219" height="508" viewBox="0 0 219 508" fill="none" xmlns="http://www.w3.org/2000/svg">
<path d="M17.9812 342.264C15.3452 334.356 8.19202 327.71 8.19202 319.108C7.74393 317.764 7.14924 316.156 6.66437 314.847C6.23819 313.696 5.25783 312.637 4.93569 311.51C4.19478 308.917 3.12203 306.674 2.48337 303.992C2.04336 302.144 1.31752 300.581 1.31752 298.565V294.685C1.31752 290.278 0.494569 285.173 1.49842 280.956C1.96934 278.979 3.30521 277.337 3.48842 275.047C3.53646 274.446 4.36253 274.623 4.57387 274.042C4.76201 273.524 4.80875 272.926 5.01609 272.434C5.21109 271.97 5.17152 271.181 5.65932 270.986C5.91457 270.884 6.26511 270.669 6.38295 270.403C6.79667 269.473 6.68531 268.015 7.14679 267.207C7.49897 266.591 7.83022 266.959 7.83022 266.001C7.83022 265.708 7.72665 265.169 7.91062 264.916C8.33239 264.336 8.16831 263.647 8.21214 262.946C8.30929 261.392 8.61996 259.801 8.91942 258.268L8.95587 258.081C8.95587 254.03 6.15615 248.345 5.2171 244.332C4.71662 242.194 3.39707 240.493 3.1266 238.262C2.94777 236.787 2.76478 235.41 2.76478 233.92V227.407C2.76478 224.03 2.2693 220.307 2.84519 216.995C3.13205 215.346 3.79718 214.032 4.25225 212.553C5.05253 209.952 6.27904 207.517 7.18699 204.894C8.31172 201.645 9.80833 198.503 11.1268 195.326C13.0331 190.733 14.5419 184.7 16.4268 180.224C15.9571 179.331 16.602 174.218 15.9783 173.456C13.6653 170.629 14.5029 165.937 14.5029 162.339C14.5029 159.202 16.5371 158.053 18.4204 155.674C19.798 153.934 23.1471 152.857 24.1774 150.968C25.297 148.916 37.9784 146.763 39.9186 145.728C42.556 144.321 45.1886 144.518 47.8553 143.566C50.252 142.71 53.0455 141.505 55.6395 141.505H58.5903C60.699 141.505 62.2953 140.22 64.2377 140.131C67.8015 139.969 71.4025 140.131 74.9727 140.131H80.8235C82.6958 140.131 82.1866 140.94 84.0436 140.94C84.2195 140.06 84.4218 139.595 84.737 138.793C85.0488 137.999 85.4497 137.864 85.9056 137.217C86.1869 136.817 86.2531 136.382 86.4219 135.939C86.6047 135.459 87.1076 135.255 87.3731 134.825C87.7541 134.208 88.3568 133.962 88.7455 133.358C89.2423 132.585 90.1939 132.084 90.8789 131.523C91.1495 131.302 91.1466 130.911 91.4496 130.667C92.2391 130.032 93.2314 129.525 94.1537 129.118C95.4494 128.546 96.7332 127.754 98.0264 127.107C100.783 125.729 104.186 123.729 106.687 121.853C107.672 121.115 110 117.247 112.826 116.727C113.377 116.727 113.6 116.817 114.151 116.791C115.516 116.727 116.88 116.581 118.242 116.461C119.277 116.37 120.319 116.326 121.358 116.282L121.571 116.273C122.725 116.224 123.87 116.15 125.026 116.15H136.308C137.176 116.15 138.055 116.189 138.922 116.132C139.371 116.102 139.815 116.024 140.266 116.007C140.592 115.995 140.92 116.002 141.247 116.002C141.653 116.002 142.05 115.987 142.447 116.09C142.855 116.195 143.243 116.354 143.639 116.495C144.17 116.684 144.695 116.817 145.242 116.92C145.356 116.941 145.461 117 145.571 117.036C145.74 117.093 145.915 117.136 146.083 117.196C146.197 117.238 146.243 117.24 146.319 117.341C147.435 118.35 148.742 119.114 149.934 120.041C150.532 120.506 151.938 121.513 152.665 121.604C153.782 121.743 155.505 121.806 156.483 122.365C157.082 122.707 157.96 123.043 158.657 123.085C159.535 123.138 159.991 123.889 160.777 124.063C162.626 124.474 164.254 125.754 166.009 126.4C169.123 127.548 171.071 130.304 173.659 132.27C174.443 132.867 175.195 133.961 175.779 134.771C176.151 135.288 176.615 136.033 177.124 136.415C177.463 136.669 177.505 137.098 177.69 137.355C187.434 135.86 198.219 136.926 208.117 136.926H224.398C228.208 136.926 231.592 139.693 234.802 141.429C236.3 142.239 237.028 143.335 238.542 144.023C239.637 144.521 240.802 144.587 241.543 145.524C242.302 146.482 243.658 145.57 244.316 146.338C245.115 147.271 246.641 147.86 247.598 148.73C248.683 149.716 250.238 151.178 251.591 151.63C252.913 152.07 252.741 171.016 252.741 172.388C253.028 176.124 255.82 180.603 257.759 183.796C258.7 185.346 258.177 189.744 259.619 190.609C260.451 191.108 261.112 195.163 261.27 196.19C261.399 197.028 261.293 197.945 261.293 198.794C261.293 200.419 262.131 200.664 262.131 202.212C262.131 206.232 262.968 210.267 262.968 214.35V241.207C262.968 242.719 264.69 243.227 265.014 244.765C265.555 247.336 264.67 249.862 265.665 252.438C266.29 254.056 266.402 257.191 267.479 258.484C269.074 260.398 270.905 263.69 271.548 266.134C271.883 267.407 273.056 268.432 273.617 269.715C274.225 271.104 275.119 272.233 275.71 273.668C276.785 276.278 277.187 279.183 277.942 281.923C278.606 284.327 278.035 287.607 278.035 290.084C278.035 294.172 277.427 301.224 277.617 302.338C279.213 307.128 278.035 314.21 278.035 319.266C278.035 320.967 278.872 322.509 278.872 324.336C278.872 325.451 279.66 326.07 279.71 327.358C279.767 328.857 282.375 330.966 283.104 332.241C284.431 334.563 287.52 336.846 289.313 338.938C291.152 341.084 290.173 346.142 290.173 348.797C290.173 356.594 284.644 363.837 277.012 365.632C273.135 366.545 268.541 366.376 264.549 366.376C260.453 366.376 255.349 367.24 251.434 366.144C246.761 364.835 245.389 363.596 245.389 358.47C245.389 356.26 245.3 354.029 245.389 351.82C245.438 350.597 246.226 349.303 246.226 347.96C246.226 345.092 248.829 342.569 249.737 339.845C250.456 337.688 249.993 334.929 249.993 332.683V327.451C249.993 324.848 248.828 322.643 248.737 320.104C248.581 315.733 247.79 311.714 246.691 307.594C245.886 304.575 245.728 301.237 245.342 298.153C245.119 296.371 244.824 294.753 244.665 293.039C244.258 292.555 243.76 292.112 243.203 291.689C241.721 290.563 240.339 287.697 239.622 286.108C238.495 283.612 236.66 281.841 235.855 279.225C235.511 278.108 235.343 276.944 235.343 275.761C235.343 266.663 234.948 256.666 234.948 247.509C234.831 246.689 234.551 246.666 233.855 246.253C233.17 245.846 233.378 245.221 232.995 244.625C232.291 243.53 231.019 242.42 230.112 241.416C226.558 237.489 225.354 235.959 223.206 231.185C220.389 231.498 219.075 236.484 217.997 238.487C216.613 241.057 215.146 243.156 214.184 246.044C213.636 247.685 212.671 249.303 211.905 250.857C211.199 252.289 209.552 253.712 209.045 255.066C208.757 255.832 208.794 256.564 208.37 257.321C207.859 258.237 206.907 258.727 206.557 259.74C206.064 261.162 204.888 262.193 204.185 263.599C203.417 265.134 202.325 266.806 201.86 268.436C201.462 269.827 199.915 270.404 199.767 271.97C199.633 273.393 198.588 274.063 198.511 275.365C198.419 276.931 198.093 278.472 198.093 280.016V310.919C198.093 314.362 198.295 317.209 199.767 320.336C201.144 323.263 201.441 325.448 201.441 328.707C202.699 330.3 205.649 338.42 206.743 340.101C209.107 343.732 212.483 346.585 215.067 350.03C217.552 353.343 221.188 356.255 224.229 359.052C226.163 360.831 228.402 363.244 230.553 364.377C231.007 364.615 232.679 367.376 232.925 367.958C233.617 369.592 234.925 371.456 234.925 373.329C234.925 377.558 235.343 381.628 235.343 385.862V405.952C235.343 409.429 234.129 412.157 233.576 415.532C233.269 417.413 233.135 419.359 232.646 421.206C232.116 423.21 231.158 424.629 231.158 426.787C231.158 428.85 229.969 430.544 229.484 432.484C229.088 434.068 227.952 436.033 227.81 437.53C227.679 438.898 227.339 441.1 226.763 442.366C226.37 443.231 226.73 444.152 226.507 445.04C226.276 445.965 225.925 447.326 225.717 448.365V463.689C225.717 470.446 224.239 479.327 226.972 485.476C228.101 488.016 227.81 491.655 227.81 494.452V523.495C227.81 525.294 227.121 525.006 225.531 525.006H211.812C208.259 525.006 201.633 526.324 199.069 523.657C196.821 521.319 198.093 515.11 198.093 512.031C198.093 507.998 197.756 503.779 196.442 500.056C195.448 497.241 196.293 494.006 194.768 491.336C193.605 489.302 193.211 485.776 193.07 483.477C192.803 479.112 190.238 475.148 190.14 470.595C190.103 468.86 190.14 467.121 190.14 465.386C190.14 464.702 190.754 464.517 190.931 463.898C191.593 461.582 191.611 459.051 192.279 456.713C193.079 453.915 193.983 451.133 194.884 448.365C195.57 446.255 195.927 441.724 193.907 438.134C192.635 435.937 190.761 433.454 189.094 431.53C186.879 428.975 185.23 426.126 182.513 423.903C179.4 421.356 177.536 417.851 175.049 414.742C173.142 412.358 173.461 411.169 173.398 408.138C173.295 403.196 171.862 398.284 171.329 393.396C170.983 390.225 170.812 386.899 170.213 383.769C169.811 381.67 169.213 379.84 169.213 377.677C169 374.247 166.646 393.775 166.074 400.069C165.727 403.884 164.692 407.222 164.609 411.068C164.51 415.623 162.965 419.849 162.539 424.322C161.66 433.555 157.947 442.117 155.633 451.039C155.008 453.452 152.963 455.087 152.145 457.294C151.624 458.701 151.427 459.723 150.243 461.387C148.927 463.723 143.839 473.836 142.844 479.803C142.625 481.118 141.325 481.89 141.147 483.407C140.964 484.966 139.627 485.414 139.17 486.686C138.455 488.679 137.753 490.68 137.403 492.778C136.785 496.487 135.729 500.04 135.729 503.66V523.611C135.729 524.757 136.101 526.646 135.636 527.75C135.15 528.905 134.337 529.61 133.125 529.61H109.546C106.124 529.61 111.453 520.297 111.453 519.402V495.429C111.453 493.401 110.616 491.778 110.616 489.871C110.616 488.178 109.838 486.696 109.779 485.151C109.724 483.726 110.469 480.022 109.57 478.943C108.604 477.783 108.245 476.086 107.779 474.687C107.086 472.607 106.012 471.406 106.012 469.107C106.012 466.735 105.548 463.818 106.105 461.48C106.432 460.105 107.405 458.856 107.779 457.387C108.19 455.776 109.36 452.588 109.36 450.923V440.878C109.36 439.626 108.523 439.675 108.523 438.46C108.523 437.596 108.254 436.475 107.779 435.762C107.4 435.193 107.686 433.799 107.686 433.111C107.686 431.435 107.299 429.661 106.803 428.066C104.531 420.763 102.846 413.415 101.175 405.976C100.057 400.993 98.9692 394.233 100.803 389.303C102.18 385.605 100.97 381.107 102.245 377.282C103.892 372.342 103.88 366.881 105.687 361.912C106.633 359.309 107.5 354.747 107.175 354.052C106.5 352.247 106.523 342.099 106.338 341.031C105.984 338.989 105.594 337.176 105.594 335.078C105.594 333.562 104.54 332.276 104.245 330.8C103.932 329.234 103.762 327.604 103.408 326.056C103.224 325.256 102.531 324.718 102.292 323.94C101.841 322.476 101.661 320.738 101.431 319.243C101.132 317.298 100.342 316.097 99.8269 314.244C99.0016 311.273 99.2958 310.06 96.3622 308.593C95.471 308.148 94.8748 306.776 94.0602 306.105C93.3557 305.525 92.8177 305.151 91.9907 304.803C91.1163 304.435 91.0199 303.436 90.1073 303.176C87.5525 302.446 86.3483 300.095 84.2708 298.571C81.9577 296.875 79.961 294.959 78.2949 292.619C76.9507 290.731 75.5933 288.87 74.2954 286.945C73.5255 285.803 72.3655 285.116 71.5981 283.922C70.6296 282.416 69.8894 280.746 68.7381 279.365C65.873 275.927 63.7853 271.964 60.9949 268.413C58.4359 265.156 59.7229 257.526 59.7229 253.224C55.3467 261.101 55.739 264.53 48.3605 269.449C48.3605 277.354 46.8174 304.805 45.8411 312.615C45.0409 319.017 45.0974 325.483 45.0974 332.133C45.0974 335.355 46.6556 338.717 47.811 341.721C48.2365 342.828 48.6112 344.338 48.7155 345.521C48.7951 346.422 49.641 347.119 49.8814 348.053C50.0781 348.818 50.3252 350.27 50.5246 350.586C50.9268 351.224 52.6406 353.517 53.1377 354.646C53.3564 355.143 53.7607 355.679 54.0624 356.094C54.33 356.462 54.0771 356.904 54.5247 357.239C54.8669 357.496 55.2807 357.495 55.59 357.822C55.9631 358.217 55.826 358.612 55.9921 359.069C56.1615 359.535 56.7948 359.696 57.0373 360.154C57.5232 361.072 57.6101 361.757 58.4846 362.446C59.9562 363.605 60.2552 364.138 61.0173 365.903C61.3174 366.598 61.9877 366.899 62.2635 367.652C62.5832 368.524 62.6397 369.479 63.2686 370.205C65.2272 372.464 66.4445 376.143 66.4445 379.089C66.4445 383.111 65.9091 386.676 62.5852 389.099C56.5555 393.496 48.0986 392.46 41.1174 391.753C37.8406 391.421 33.1088 390.292 30.5041 388.034C28.0604 385.916 26.6447 384.415 26.6447 381.2V372.858C26.6447 369.713 26.8652 367.211 27.8708 364.194C28.1988 363.211 28.4085 361.291 27.8708 360.335C27.2242 359.185 26.825 357.147 26.0618 356.214C24.9913 354.906 23.4063 352.735 23.0064 351.068C22.6153 349.439 21.4702 347.542 20.6345 346.063C19.9066 344.775 18.4556 343.687 17.9812 342.264Z" fill="#AFAFAF"/>
<path d="M112.826 116.727C113.818 120.832 114.806 125.019 115.501 129.186C115.631 129.967 116.114 130.576 116.289 131.346C116.579 132.621 117.316 133.709 117.648 134.961C117.955 136.122 118.807 137.005 119.115 138.113C119.454 139.334 120.049 140.616 120.692 141.728C121.069 142.381 121.168 143.096 121.507 143.725C121.823 144.313 122.324 144.758 122.594 145.397C123.038 146.448 123.766 147.197 124.116 148.278C124.469 149.37 125.624 150.411 126.073 151.512C126.369 152.239 126.712 152.885 127.241 153.414M112.826 116.727C110 117.247 107.672 121.115 106.687 121.853C104.186 123.729 100.783 125.729 98.0264 127.107C96.7332 127.754 95.4494 128.546 94.1537 129.118C93.2314 129.525 92.2391 130.032 91.4496 130.667C91.1466 130.911 91.1495 131.302 90.8789 131.523C90.1939 132.084 89.2423 132.585 88.7455 133.358C88.3568 133.962 87.7541 134.208 87.3731 134.825C87.1076 135.255 86.6047 135.459 86.4219 135.939C86.2531 136.382 86.1869 136.817 85.9056 137.217C85.4497 137.864 85.0488 137.999 84.737 138.793C84.4218 139.595 84.2195 140.06 84.0436 140.94M112.826 116.727C113.377 116.727 113.6 116.817 114.151 116.791C115.516 116.727 116.88 116.581 118.242 116.461C119.277 116.37 120.319 116.326 121.358 116.282L121.571 116.273C122.725 116.224 123.87 116.15 125.026 116.15H136.308C137.176 116.15 138.055 116.189 138.922 116.132C139.371 116.102 139.815 116.024 140.266 116.007C140.592 115.995 140.92 116.002 141.247 116.002C141.653 116.002 142.05 115.987 142.447 116.09C142.855 116.195 143.243 116.354 143.639 116.495C144.17 116.684 144.695 116.817 145.242 116.92C145.356 116.941 145.461 117 145.571 117.036C145.74 117.093 145.915 117.136 146.083 117.196C146.197 117.238 146.243 117.24 146.319 117.341M139.471 146.565C139.471 144.642 140.742 143.053 140.938 141.184C141.064 139.988 141.826 139.324 141.93 138.127C142.017 137.131 142.406 136.181 142.406 135.192C142.406 134.563 142.781 134.252 143.031 133.738C143.399 132.98 143.43 132.058 143.792 131.292C144.528 129.73 145.14 127.705 145.558 126.033C145.899 124.67 146.319 123.067 146.319 121.672V117.341M146.319 117.341C147.435 118.35 148.742 119.114 149.934 120.041C150.532 120.506 151.938 121.513 152.665 121.604C153.782 121.743 155.505 121.806 156.483 122.365C157.082 122.707 157.96 123.043 158.657 123.085C159.535 123.138 159.991 123.889 160.777 124.063C162.626 124.474 164.254 125.754 166.009 126.4C169.123 127.548 171.071 130.304 173.659 132.27C174.443 132.867 175.195 133.961 175.779 134.771C176.151 135.288 176.615 136.033 177.124 136.415C177.463 136.669 177.505 137.098 177.69 137.355M177.69 137.355C173.757 137.96 170.052 139.551 165.991 140.131C164.082 140.404 160.342 142.872 158.894 143.998C158.09 144.624 156.169 144.225 155.205 144.252C153.183 144.31 151.717 146.084 149.507 146.084M177.69 137.355C187.434 135.86 198.219 136.926 208.117 136.926H224.398C228.208 136.926 231.592 139.693 234.802 141.429C236.3 142.239 237.028 143.335 238.542 144.023C239.637 144.521 240.802 144.587 241.543 145.524C242.302 146.482 243.658 145.57 244.316 146.338C245.115 147.271 246.641 147.86 247.598 148.73C248.683 149.716 250.238 151.178 251.591 151.63C252.913 152.07 252.741 171.016 252.741 172.388M84.0436 140.94C84.9186 140.94 86.6712 142.946 87.4629 143.311C88.7209 143.892 90.0844 144.191 91.355 144.736C92.613 145.275 93.3935 146.254 94.7383 146.771C95.9648 147.243 97.0948 147.572 98.1979 148.399C99.2606 149.196 100.46 150.064 101.454 150.892C102.391 151.672 104.031 151.447 105.092 152.037C107.427 153.334 109.642 155.7 112.418 155.7M84.0436 140.94C82.1866 140.94 82.6958 140.131 80.8235 140.131H74.9727C71.4025 140.131 67.8015 139.969 64.2377 140.131C62.2953 140.22 60.699 141.505 58.5903 141.505H55.6395C53.0455 141.505 50.252 142.71 47.8553 143.566C45.1886 144.518 42.556 144.321 39.9186 145.728C37.9784 146.763 25.297 148.916 24.1774 150.968C23.1471 152.857 19.798 153.934 18.4204 155.674C16.5371 158.053 14.5029 159.202 14.5029 162.339C14.5029 165.937 13.6653 170.629 15.9783 173.456C16.602 174.218 15.9571 179.331 16.4268 180.224M252.741 172.388C252.741 178.434 252.921 173.132 252.075 179.052M252.741 172.388C253.028 176.124 255.82 180.603 257.759 183.796C258.7 185.346 258.177 189.744 259.619 190.609C260.451 191.108 261.112 195.163 261.27 196.19C261.399 197.028 261.293 197.945 261.293 198.794C261.293 200.419 262.131 200.664 262.131 202.212C262.131 206.232 262.968 210.267 262.968 214.35V241.207C262.968 242.719 264.69 243.227 265.014 244.765C265.555 247.336 264.67 249.862 265.665 252.438C266.29 254.056 266.402 257.191 267.479 258.484C269.074 260.398 270.905 263.69 271.548 266.134C271.883 267.407 273.056 268.432 273.617 269.715C274.225 271.104 275.119 272.233 275.71 273.668C276.785 276.278 277.187 279.183 277.942 281.923C278.606 284.327 278.035 287.607 278.035 290.084C278.035 294.172 277.427 301.224 277.617 302.338C279.213 307.128 278.035 314.21 278.035 319.266C278.035 320.967 278.872 322.509 278.872 324.336C278.872 325.451 279.66 326.07 279.71 327.358C279.767 328.857 282.375 330.966 283.104 332.241C284.431 334.563 287.52 336.846 289.313 338.938C291.152 341.084 290.173 346.142 290.173 348.797C290.173 356.594 284.644 363.837 277.012 365.632C273.135 366.545 268.541 366.376 264.549 366.376C260.453 366.376 255.349 367.24 251.434 366.144C246.761 364.835 245.389 363.596 245.389 358.47C245.389 356.26 245.3 354.029 245.389 351.82C245.438 350.597 246.226 349.303 246.226 347.96C246.226 345.092 248.829 342.569 249.737 339.845C250.456 337.688 249.993 334.929 249.993 332.683V327.451C249.993 324.848 248.828 322.643 248.737 320.104C248.581 315.733 247.79 311.714 246.691 307.594C245.886 304.575 245.728 301.237 245.342 298.153C245.119 296.371 244.824 294.753 244.665 293.039C244.258 292.555 243.76 292.112 243.203 291.689C241.721 290.563 240.339 287.697 239.622 286.108C238.495 283.612 236.66 281.841 235.855 279.225C235.511 278.108 235.343 276.944 235.343 275.761C235.343 266.663 234.948 256.666 234.948 247.509M16.4268 180.224C16.8247 180.98 19.9944 188.647 20.4555 189.224C21.5562 190.599 21.6913 192.476 22.6432 193.904M16.4268 180.224C14.5419 184.7 13.0331 190.733 11.1268 195.326C9.80833 198.503 8.31172 201.645 7.18699 204.894C6.27904 207.517 5.05253 209.952 4.25225 212.553C3.79718 214.032 3.13205 215.346 2.84519 216.995C2.2693 220.307 2.76478 224.03 2.76478 227.407V233.92C2.76478 235.41 2.94777 236.787 3.1266 238.262C3.39707 240.493 4.71662 242.194 5.2171 244.332C6.15615 248.345 8.95587 254.03 8.95587 258.081M70.5746 199.351C69.2294 200.36 70.0809 205.565 70.0809 207.14V214.27C70.0809 217.186 69.144 219.602 68.6 222.443C68.1065 225.02 68.2478 227.664 67.5853 230.204C66.9355 232.695 66.4384 235.063 65.8849 237.609C65.4319 239.693 64.8125 240.827 63.9926 242.765C63.3305 244.33 60.5608 251.715 59.7229 253.224M59.7229 253.224C55.3467 261.101 55.739 264.53 48.3605 269.449M59.7229 253.224C59.7229 257.526 58.4359 265.156 60.9949 268.413C63.7853 271.964 65.873 275.927 68.7381 279.365C69.8894 280.746 70.6296 282.416 71.5981 283.922C72.3655 285.116 73.5255 285.803 74.2954 286.945C75.5933 288.87 76.9507 290.731 78.2949 292.619C79.961 294.959 81.9577 296.875 84.2708 298.571C86.3483 300.095 87.5525 302.446 90.1073 303.176C91.0199 303.436 91.1163 304.435 91.9907 304.803C92.8177 305.151 93.3557 305.525 94.0602 306.105C94.8748 306.776 95.471 308.148 96.3622 308.593C99.2958 310.06 99.0016 311.273 99.8269 314.244C100.342 316.097 101.132 317.298 101.431 319.243C101.661 320.738 101.841 322.476 102.292 323.94C102.531 324.718 103.224 325.256 103.408 326.056C103.762 327.604 103.932 329.234 104.245 330.8C104.54 332.276 105.594 333.562 105.594 335.078C105.594 337.176 105.984 338.989 106.338 341.031C106.523 342.099 106.5 352.247 107.175 354.052C107.5 354.747 106.633 359.309 105.687 361.912C103.88 366.881 103.892 372.342 102.245 377.282C100.97 381.107 102.18 385.605 100.803 389.303C98.9692 394.233 100.057 400.993 101.175 405.976C102.846 413.415 104.531 420.763 106.803 428.066C107.299 429.661 107.686 431.435 107.686 433.111C107.686 433.799 107.4 435.193 107.779 435.762C108.254 436.475 108.523 437.596 108.523 438.46C108.523 439.675 109.36 439.626 109.36 440.878V450.923C109.36 452.588 108.19 455.776 107.779 457.387C107.405 458.856 106.432 460.105 106.105 461.48C105.548 463.818 106.012 466.735 106.012 469.107C106.012 471.406 107.086 472.607 107.779 474.687C108.245 476.086 108.604 477.783 109.57 478.943C110.469 480.022 109.724 483.726 109.779 485.151C109.838 486.696 110.616 488.178 110.616 489.871C110.616 491.778 111.453 493.401 111.453 495.429V519.402C111.453 520.297 106.124 529.61 109.546 529.61H133.125C134.337 529.61 135.15 528.905 135.636 527.75C136.101 526.646 135.729 524.757 135.729 523.611V503.66C135.729 500.04 136.785 496.487 137.403 492.778C137.753 490.68 138.455 488.679 139.17 486.686C139.627 485.414 140.964 484.966 141.147 483.407C141.325 481.89 142.625 481.118 142.844 479.803C143.839 473.836 148.927 463.723 150.243 461.387C151.427 459.723 151.624 458.701 152.145 457.294C152.963 455.087 155.008 453.452 155.633 451.039C157.947 442.117 161.66 433.555 162.539 424.322C162.965 419.849 164.51 415.623 164.609 411.068C164.692 407.222 165.727 403.884 166.074 400.069C166.646 393.775 169 374.247 169.213 377.677C169.213 379.84 169.811 381.67 170.213 383.769C170.812 386.899 170.983 390.225 171.329 393.396C171.862 398.284 173.295 403.196 173.398 408.138C173.461 411.169 173.142 412.358 175.049 414.742C177.536 417.851 179.4 421.356 182.513 423.903C185.23 426.126 186.879 428.975 189.094 431.53C190.761 433.454 192.635 435.937 193.907 438.134M48.3605 269.449C47.9268 263.724 46.4268 264.224 45.821 261.579M48.3605 269.449C48.3605 277.354 46.8174 304.805 45.8411 312.615C45.0409 319.017 45.0974 325.483 45.0974 332.133C45.0974 335.355 46.6556 338.717 47.811 341.721C48.2365 342.828 48.6112 344.338 48.7155 345.521C48.7951 346.422 49.641 347.119 49.8814 348.053C50.0781 348.818 50.3252 350.27 50.5246 350.586C50.9268 351.224 52.6406 353.517 53.1377 354.646C53.3564 355.143 53.7607 355.679 54.0624 356.094C54.33 356.462 54.0771 356.904 54.5247 357.239C54.8669 357.496 55.2807 357.495 55.59 357.822C55.9631 358.217 55.826 358.612 55.9921 359.069C56.1615 359.535 56.7948 359.696 57.0373 360.154C57.5232 361.072 57.6101 361.757 58.4846 362.446C59.9562 363.605 60.2552 364.138 61.0173 365.903C61.3174 366.598 61.9877 366.899 62.2635 367.652C62.5832 368.524 62.6397 369.479 63.2686 370.205C65.2272 372.464 66.4445 376.143 66.4445 379.089C66.4445 383.111 65.9091 386.676 62.5852 389.099C56.5555 393.496 48.0986 392.46 41.1174 391.753C37.8406 391.421 33.1088 390.292 30.5041 388.034C28.0604 385.916 26.6447 384.415 26.6447 381.2V372.858C26.6447 369.713 26.8652 367.211 27.8708 364.194C28.1988 363.211 28.4085 361.291 27.8708 360.335C27.2242 359.185 26.825 357.147 26.0618 356.214C24.9913 354.906 23.4063 352.735 23.0064 351.068C22.6153 349.439 21.4702 347.542 20.6345 346.063C19.9066 344.775 18.4556 343.687 17.9812 342.264C15.3452 334.356 8.19202 327.71 8.19202 319.108C7.74393 317.764 7.14924 316.156 6.66437 314.847C6.23819 313.696 5.25783 312.637 4.93569 311.51C4.19478 308.917 3.12203 306.674 2.48337 303.992C2.04336 302.144 1.31752 300.581 1.31752 298.565V294.685C1.31752 290.278 0.494569 285.173 1.49842 280.956C1.96934 278.979 3.30521 277.337 3.48842 275.047C3.53646 274.446 4.36253 274.623 4.57387 274.042C4.76201 273.524 4.80875 272.926 5.01609 272.434C5.21109 271.97 5.17152 271.181 5.65932 270.986C5.91457 270.884 6.26511 270.669 6.38295 270.403C6.79667 269.473 6.68531 268.015 7.14679 267.207C7.49897 266.591 7.83022 266.959 7.83022 266.001C7.83022 265.708 7.72665 265.169 7.91062 264.916C8.33239 264.336 8.16831 263.647 8.21214 262.946C8.30929 261.392 8.61996 259.801 8.91942 258.268L8.95587 258.081M8.95587 258.081C9.44971 255.551 10.5781 253.336 10.7248 250.725C10.7988 249.406 11.0403 248.066 12.5338 247.83M215.5 202.747C215.5 211.779 218.433 219.433 222.089 227.558L223.206 231.185M223.206 231.185C225.354 235.959 226.558 237.489 230.112 241.416C231.019 242.42 232.291 243.53 232.995 244.625C233.378 245.221 233.17 245.846 233.855 246.253C234.551 246.666 234.831 246.689 234.948 247.509M223.206 231.185C220.389 231.498 219.075 236.484 217.997 238.487C216.613 241.057 215.146 243.156 214.184 246.044C213.636 247.685 212.671 249.303 211.905 250.857C211.199 252.289 209.552 253.712 209.045 255.066C208.757 255.832 208.794 256.564 208.37 257.321C207.859 258.237 206.907 258.727 206.557 259.74C206.064 261.162 204.888 262.193 204.185 263.599C203.417 265.134 202.325 266.806 201.86 268.436C201.462 269.827 199.915 270.404 199.767 271.97C199.633 273.393 198.588 274.063 198.511 275.365C198.419 276.931 198.093 278.472 198.093 280.016V310.919C198.093 314.362 198.295 317.209 199.767 320.336C201.144 323.263 201.441 325.448 201.441 328.707C202.699 330.3 205.649 338.42 206.743 340.101C209.107 343.732 212.483 346.585 215.067 350.03C217.552 353.343 221.188 356.255 224.229 359.052C226.163 360.831 228.402 363.244 230.553 364.377C231.007 364.615 232.679 367.376 232.925 367.958C233.617 369.592 234.925 371.456 234.925 373.329C234.925 377.558 235.343 381.628 235.343 385.862V405.952C235.343 409.429 234.129 412.157 233.576 415.532C233.269 417.413 233.135 419.359 232.646 421.206C232.116 423.21 231.158 424.629 231.158 426.787C231.158 428.85 229.969 430.544 229.484 432.484C229.088 434.068 227.952 436.033 227.81 437.53C227.679 438.898 227.339 441.1 226.763 442.366C226.37 443.231 226.73 444.152 226.507 445.04C226.276 445.965 225.925 447.326 225.717 448.365M234.948 247.509C235.366 250.437 239.947 250.782 239.947 254.205M225.717 448.365V463.689C225.717 470.446 224.239 479.327 226.972 485.476C228.101 488.016 227.81 491.655 227.81 494.452V523.495C227.81 525.294 227.121 525.006 225.531 525.006H211.812C208.259 525.006 201.633 526.324 199.069 523.657C196.821 521.319 198.093 515.11 198.093 512.031C198.093 507.998 197.756 503.779 196.442 500.056C195.448 497.241 196.293 494.006 194.768 491.336C193.605 489.302 193.211 485.776 193.07 483.477C192.803 479.112 190.238 475.148 190.14 470.595C190.103 468.86 190.14 467.121 190.14 465.386C190.14 464.702 190.754 464.517 190.931 463.898C191.593 461.582 191.611 459.051 192.279 456.713C193.079 453.915 193.983 451.133 194.884 448.365C195.57 446.255 195.927 441.724 193.907 438.134M225.717 448.365V447.993M193.907 438.134C196.362 442.374 199.038 445.807 200.604 450.504" stroke="black" stroke-width="2" stroke-linecap="round"/>
<path d="M139.356 344.482C129.195 346.814 118.882 348.229 108.513 348.229C106.487 348.229 110.188 355.554 112.424 356.863C114.979 358.359 116.604 360.407 119.651 360.792C123.187 361.239 126.319 362.635 129.562 364.054C131.106 364.729 133.154 364.904 134.789 365.435C135.958 365.815 138.137 366.387 139.332 366.387C145.425 366.387 150.986 369.294 156.471 371.721C159.81 373.198 162.571 375.87 165.911 377.197C168.338 378.161 171.091 377.959 173.657 377.959C175.697 377.959 176.816 378.01 177.871 376.03C178.533 374.785 179.393 373.642 180.013 372.387C180.851 370.693 181.79 369.185 182.555 367.483C183.097 366.278 184.438 365.431 184.792 364.149C186.04 359.628 190.558 356.414 192.255 352.03C193.084 349.886 194.143 347.821 195.315 345.816C196.293 344.141 197.458 343.423 197.599 341.435C197.673 340.376 198.6 339.551 198.964 338.577C199.85 336.21 200.546 333.61 200.895 331.101C201.14 329.339 199.934 330.11 199.058 330.363C195.286 331.453 191.736 335.232 187.758 335.53C186.341 335.636 185.179 336.34 183.615 336.387C180.513 336.479 177.301 338.301 174.174 338.697C168.759 339.381 163.33 339.607 157.93 340.482C151.638 341.503 145.561 343.058 139.356 344.482Z" fill="#FF0000" stroke="black" stroke-width="2" stroke-linecap="round"/>
<path d="M130.04 165.804V179.657C130.04 185.432 131.697 190.921 131.697 196.778C131.697 198.601 131.752 200.432 131.697 202.255C131.641 204.075 128.775 205.347 127.785 206.788C125.656 209.884 121.697 212.606 118.419 214.497C117.246 215.174 116.124 216.091 115.105 216.983C113.852 218.079 112.371 218.409 110.986 219.261C108.768 220.625 106.314 221.463 103.944 222.551C100.467 224.149 97.9105 224.208 94.1643 224.208C90.8012 224.208 86.87 224.89 83.97 223.15C82.4983 222.267 79.4199 222.697 78.3091 221.309C77.8574 220.744 76.5253 220.48 75.7778 220.48M133.768 204.326C139.249 207.686 145.107 208.317 151.303 209.435C154.323 209.979 157.449 209.813 160.461 210.332C162.522 210.687 164.084 211.368 166.214 211.368H201.699C203.175 211.368 205.74 209.934 207.106 209.25C208.281 208.663 208.362 207.225 209.753 207.225C210.316 207.225 211.236 206.066 211.732 205.661C214.116 203.71 216.096 201.577 217.853 198.941M34.2429 267.259C34.2429 273.043 37.3461 278.446 37.4992 284.265C37.5545 286.365 37.4992 288.475 37.4992 290.576C37.4992 293.94 35.5716 296.844 34.1022 299.783C33.6498 300.687 33.6599 301.577 33.4388 302.516C33.1589 303.706 32.3742 304.041 32.072 305.25M104.658 249.121C104.961 249.928 107.867 249.496 108.469 249.496C112.236 249.496 116.013 249.581 119.778 249.475C124.345 249.346 129.289 247.011 133.316 244.997C133.813 244.748 134.264 244.662 134.722 244.664M134.722 244.664C135.172 244.666 135.629 244.752 136.148 244.851C140.877 245.757 145.397 247.085 150.227 247.413C156.881 247.865 163.596 247.621 170.263 247.621M134.722 244.664C134.754 246.485 134.853 248.284 135.065 250.037C135.419 252.952 136.443 255.892 136.523 258.868C136.596 261.576 137.599 263.817 137.648 266.532C137.702 269.567 138.168 272.586 138.695 275.602M134.722 244.664C134.639 239.862 135.024 234.907 135.024 230.231V218.755M107.657 275.737C110.651 277.83 112.315 279.111 115.905 279.111H122.736C124.89 279.111 127.688 279.571 129.692 278.695C130.634 278.283 131.178 277.543 132.233 277.32C132.923 277.174 133.672 277.185 134.232 276.695C134.605 276.369 136.025 276.046 136.584 275.919L136.648 275.904C137.307 275.753 137.993 275.658 138.695 275.602M138.695 275.602C141.373 275.388 144.294 275.737 146.853 275.737C152.695 275.737 158.484 275.335 164.264 274.613M138.695 275.602C139.277 278.934 139.933 282.264 140.189 285.609C140.651 291.668 140.649 297.705 140.647 303.774L140.647 304.177M115.905 307.228C116.964 313.373 128.222 310.173 131.775 309.102C133.926 308.453 134.798 307.221 136.898 306.561C137.671 306.318 137.493 305.492 138.21 305.332C138.737 305.215 139.649 304.938 140.064 304.583C140.244 304.428 140.439 304.294 140.647 304.177M140.647 304.177C143.884 302.37 150.286 304.994 153.372 305.895C156.789 306.891 160.008 306.853 163.515 306.853H172.512M140.647 304.177L140.647 304.978M172.892 144.608C173.712 145.373 174.084 147.065 174.1 148.176C174.108 148.755 174.1 149.334 174.1 149.913C174.1 150.692 174.177 150.891 173.556 151.369C172.476 152.199 170.724 152.571 169.445 153.005C168.837 153.212 168.095 153.262 167.459 153.421M170.236 159.096C170.311 157.863 172.024 156.954 172.919 156.373C173.896 155.737 175.297 155.112 176.487 155.112C177.419 155.112 178.117 155.719 178.634 156.493C178.956 156.977 179.22 157.487 179.6 157.935C179.853 158.235 180.015 158.036 180.015 158.492M177.239 144.246C177.346 145.801 177.971 147.163 178.634 148.525L178.656 148.571C178.993 149.265 179.489 150.284 180.384 150.396C181.129 150.489 181.694 151.007 182.49 151.007C183.181 151.007 183.918 150.872 184.483 151.248M38.1537 213.547C38.6306 214.778 38.6267 216.314 38.7372 217.618C38.8325 218.742 38.8781 219.863 38.8781 220.992C38.8781 222.353 38.6132 223.574 37.5232 224.493C35.346 226.329 32.6391 227.472 30.4268 229.242M31.9963 232.743C32.6644 232.589 33.3928 231.917 33.9012 231.482C34.8511 230.67 35.8545 230.047 37.0604 229.678C38.6847 229.18 40.6847 229.338 41.8159 230.691C42.7107 231.761 43.858 233.08 44.083 234.487C44.177 235.074 44.2925 236.226 44.6733 236.607M44.794 215.599C42.9337 217.9 43.4659 220.959 43.4659 223.715C43.4659 224.141 43.4255 224.592 43.4659 225.016C43.5305 225.695 44.9067 226.45 45.4927 226.772L45.5452 226.8C46.7689 227.473 48.2504 227.552 49.6233 227.552C50.3946 227.552 51.2438 227.648 51.9709 227.887C52.956 228.211 54.1516 228.035 55.1771 228.035" stroke="black" stroke-width="2" stroke-linecap="round"/>
<path d="M104.583 68.9672C104.825 69.7056 105.442 72.978 106.701 73.1183C103.894 73.8223 102.083 78.5628 100.97 80.797C98.8328 85.0849 99.7071 91.0391 99.7071 95.7255C99.7071 101.059 100.75 105.246 104.078 109.602C106.711 113.047 108.756 115.696 112.489 118.021C116.569 120.561 120.256 120.827 124.922 120.827C128.318 120.827 132.031 121.241 135.412 120.788C137.576 120.499 139.928 119.477 141.939 118.645C144.403 117.625 146.457 116.459 148.389 114.591C150.211 112.828 150.878 111.231 151.861 108.882L151.861 108.881L151.885 108.822C154.389 102.832 154.955 97.0954 154.955 90.6389C154.955 87.4806 155.469 83.1058 153.032 80.6606C152.104 79.7301 151.365 78.5696 150.487 77.6008C149.788 76.83 148.526 75.4016 148.039 74.5215C147.341 73.2615 145.379 71.1575 144.115 70.3119C144.115 59.2091 144.355 47.0307 144.115 35.9333C144.01 31.0986 141.785 26.7531 141.046 22.0572L141.039 22.0161C140.839 20.7407 140.445 18.2375 138.87 18.0619C137.349 17.8924 135.899 18.2379 134.402 18.3933C133.063 18.5322 132.267 22.0604 131.877 22.9732C128.586 30.6767 126.632 39.5586 126.632 47.958V59.9048C126.632 60.6415 127.125 65.4347 126.088 65.732C124.492 66.1892 122.027 65.8411 120.396 65.732C119.163 65.6496 119.001 65.4109 118.939 64.3483C118.881 63.3545 118.165 61.4352 117.812 60.4115C116.986 58.0159 117.25 55.3185 116.627 52.8888C115.859 49.8917 114.9 46.9289 114.121 43.9238C113.137 40.126 112.883 36.1391 111.946 32.3084C110.901 28.0437 110.019 23.7572 108.837 19.5236C108.321 17.6732 107.551 13.1322 105.574 12.2347C102.048 10.6344 98.5586 17.6602 97.7645 19.9134C96.4185 23.7331 97.2595 28.8015 97.2595 32.7956C97.2595 38.1957 97.6866 43.1859 98.7358 48.4842C100.106 55.401 102.385 62.2679 104.583 68.9672Z" fill="#AFAFAF" stroke="black" stroke-width="2" stroke-linecap="round"/>
<path d="M98.552 9.7377C98.7638 9.33646 99 8.49987 99.8702 7.98012C100.74 7.4605 101.363 7.76042 102.092 7.76042H104.13C104.771 7.76042 106.104 7.73316 106.571 8.19982C107.239 8.86781 108.138 9.46207 108.707 10.2381C109.797 11.725 111.025 13.133 112.057 14.6809C112.272 15.0029 112.417 15.5169 112.527 15.8892C112.633 16.2434 112.885 16.5309 113.003 16.8779C113.324 17.8224 113.72 18.7395 114.041 19.6851C115.934 25.26 116.541 31.1793 117.062 37.0107C117.376 40.5315 117.556 44.088 117.556 47.6234C117.556 48.8046 114.025 48.5904 113.266 48.6852C111.509 48.9049 109.744 48.8439 107.975 48.8439C105.121 48.8439 102.308 48.7917 99.4613 48.6242C98.7741 48.5838 96.4573 48.6193 96.1109 47.9651C95.9674 47.6941 95.8161 47.4576 95.8058 47.0863C95.6456 41.3187 95.696 35.5362 95.696 29.7607C95.696 25.893 95.4401 21.9419 95.9706 18.1106C96.2736 15.9221 97.0738 14.0087 97.6977 11.9103C97.9246 11.1469 98.1819 10.439 98.552 9.7377Z" fill="#6C11A4" stroke="black" stroke-width="2" stroke-linecap="round"/>
<path d="M131.274 16.4507C131.431 16.2714 134.202 13.0666 134.472 13.4727L135.485 13.4725C135.786 13.4725 136.456 13.4851 136.73 13.6068C137.527 13.9609 138.179 14.8235 138.781 15.4254C139.599 16.2437 140.281 17.072 140.868 18.0862C141.001 18.3168 141.264 18.4465 141.393 18.6843C141.557 18.9865 141.633 19.2823 141.747 19.5997C141.937 20.1322 142.213 20.8226 142.497 21.3206C142.859 21.9531 142.909 22.6077 143.089 23.304C143.32 24.1931 143.466 25.1022 143.651 26.0014C144.054 27.9601 144.353 29.9318 144.713 31.8905C144.895 32.8842 145.219 33.9835 145.238 34.9907C145.255 35.9535 145.154 37.0404 145.457 37.9688C145.891 39.2958 146.006 41.0872 146.006 42.4788V44.9443C146.006 45.5244 146.269 46.5562 145.671 46.8178C144.493 47.3332 143.371 47.5341 142.156 47.9102C138.525 49.034 134.569 48.8439 130.817 48.8439H127.942C126.976 48.8439 125.989 49.1267 125.044 49.0941C124.717 49.0829 124.76 48.0636 124.696 47.8553C124.431 46.9947 124.476 45.8744 124.476 44.9748V41.5694C124.476 38.2296 125.018 34.8697 125.794 31.6342C126.328 29.4097 126.583 27.1459 127.436 25.0128C127.999 23.6056 128.457 22.0899 128.937 20.6493C129.409 19.2327 130.3 17.564 131.274 16.4507Z" fill="#6C11A4" stroke="black" stroke-width="2" stroke-linecap="round"/>
<circle cx="101" cy="6" r="5" fill="#FFFF00" stroke="black" stroke-width="2"/>
<circle cx="137" cy="13" r="5" fill="#FFFF00" stroke="black" stroke-width="2"/>
<path d="M127.945 31.5344C127.71 30.9707 126.803 30.2176 126.366 29.7798C126.157 30.0925 126.257 30.6082 126.257 30.9657C126.257 31.8184 126.271 32.6724 126.257 33.525C126.239 34.6014 125.889 35.6492 125.712 36.7015C125.405 38.5269 125.507 40.3801 125.168 42.1952C125.035 42.9036 125.113 43.6734 125.113 44.3915C125.113 44.5137 124.996 45.3185 125.277 45.1781C125.542 45.0454 125.741 44.7405 125.997 44.5791C126.381 44.337 126.644 43.9522 127.031 43.7078C127.894 43.1638 128.56 42.383 129.282 41.6749C129.478 41.4827 129.693 41.5035 129.881 41.6809C130.162 41.9463 130.627 41.9782 130.952 42.2073C131.144 42.3428 131.328 42.4711 131.539 42.5764C131.762 42.6882 131.924 42.8839 132.138 42.9999C132.421 43.1536 132.886 43.1484 133.203 43.2298C133.662 43.3479 134.088 43.5028 134.51 43.7199C134.58 43.756 135.051 44.0531 134.981 43.9135C134.905 43.7613 134.895 43.5766 134.806 43.4356C134.689 43.2496 134.61 43.0389 134.528 42.8366C134.258 42.1749 133.864 41.5631 133.523 40.9367C133.185 40.3147 132.843 39.6926 132.495 39.0762C132.323 38.772 132.043 38.4904 131.986 38.1354C131.941 37.848 132.185 37.6315 132.356 37.4154C133.596 35.8462 135.122 34.4277 136.125 32.6658C136.365 32.2448 136.549 31.9152 136.549 31.4225C136.549 31.3238 136.618 30.9583 136.44 30.9899C136.109 31.0483 135.822 31.1642 135.478 31.2077C133.769 31.4238 132.072 31.9876 130.589 32.8594C130.093 33.1512 129.629 33.4556 129.209 33.8487C129.05 33.998 129.099 33.9508 128.979 33.8759C128.861 33.8017 128.803 33.5188 128.75 33.401C128.468 32.7844 128.206 32.1599 127.945 31.5344Z" fill="#FFFF00" stroke="black" stroke-width="2" stroke-linecap="round"/>
<path d="M112.045 17.9936C112.233 17.624 112.429 16.8393 112.863 16.707C113.461 19.147 114.06 21.5864 114.655 24.0272C114.725 24.3148 114.806 24.612 114.86 24.9061C114.938 25.3283 114.996 25.7572 115.065 26.1813C115.157 26.7459 115.19 27.3184 115.279 27.882C115.332 28.2178 115.316 28.558 115.316 28.8971V29.5869C115.316 29.7667 115.264 30.0449 115.367 30.1988C115.073 30.1988 114.343 29.3956 114.081 29.2565C113.775 29.0947 113.558 29.0175 113.215 29.0175C113.075 29.0175 112.998 29.1292 112.892 29.205C112.497 29.4856 112.151 29.8572 111.784 30.1731C111.265 30.6207 110.786 31.0471 110.223 31.4437C109.752 31.7758 109.353 32.2942 108.856 32.5751C108.826 32.5918 108.878 31.881 108.883 31.8188C108.93 31.2287 109.043 30.6452 109.05 30.04C109.057 29.2831 109.222 28.2288 108.883 27.523C108.572 26.874 108.018 26.3951 107.513 25.9015C107.161 25.5578 106.742 25.2805 106.375 24.9516C105.671 24.3196 105.061 23.5825 104.5 22.8219C104.413 22.7041 104.013 22.1328 104.318 22.0988C104.684 22.0582 105.038 22.0546 105.407 22.0444C106.117 22.0247 106.828 21.9376 107.537 21.8962C108.231 21.8556 108.926 21.8761 109.621 21.8326C109.835 21.8193 110.105 21.8846 110.278 21.7207C110.734 21.2883 110.898 20.4849 111.14 19.9298C111.426 19.2726 111.719 18.633 112.045 17.9936Z" fill="#FFFF00" stroke="black" stroke-width="2" stroke-linecap="round"/>
<path d="M97.1425 37.3488C96.909 37.3691 96.2557 37.2285 96.0192 37.2285C95.8274 40.0582 96.0001 43.1631 96.0001 46L96 47.5C96 47.6238 96.3278 47.9856 96.5002 48C97.0181 48.0432 96.7111 47.7855 97.2294 47.8431C98.6126 47.9968 100.028 47.9632 101.418 47.9632C102.621 47.9632 103.824 47.9583 105.027 47.9632C105.641 47.9656 106.247 48.0677 106.858 48.0677C106.858 47.5 106.5 47 105.646 46.4426C105.446 46.2204 105.294 45.8583 105.063 45.6802C104.674 45.3816 104.39 44.9408 104.043 44.5942C103.309 43.8599 102.446 43.0995 102.037 42.1226C101.855 41.687 102.034 41.355 102.243 40.9851C102.657 40.2512 103.156 39.5632 103.623 38.8614C104.11 38.1287 104.776 37.3423 105.093 36.5078C105.15 36.3574 105.129 36.1816 105.129 36.0238C105.129 35.8648 104.84 35.9537 104.754 35.9663C103.222 36.1924 101.72 36.6278 100.198 36.9132C99.187 37.1028 98.1677 37.2597 97.1425 37.3488Z" fill="#FFFF00" stroke="black" stroke-width="2" stroke-linecap="round"/>
<path d="M112 91.0558C112 88.7288 115.077 88.0036 116.923 88.0036C117.905 88.0036 119.252 87.8135 120.172 88.2224C120.484 88.3611 120.909 88.5944 121.255 88.5944" stroke="black" stroke-width="2" stroke-linecap="round"/>
<path d="M122.954 95.7876C123.446 96.6553 123.929 97.3974 124.89 97.7985C125.722 98.1461 126.739 98.1084 127.628 98.0545C128.224 98.0183 128.692 97.7873 129.202 97.5083C129.385 97.4077 129.863 97.2708 129.96 97.0781" stroke="black" stroke-width="2" stroke-linecap="round"/>
<path d="M131.708 88.4749C131.865 88.0984 132.588 87.7065 132.917 87.4916C133.339 87.2149 133.793 87 134.303 87C134.749 87 135.131 87.2069 135.552 87.3346C136.732 87.6918 137.979 87.7142 139.185 87.9525C139.709 88.0561 140.025 88.2759 140.404 88.5704C140.721 88.8173 141.061 89.0279 141.479 89.0279" stroke="black" stroke-width="2" stroke-linecap="round"/>
<path d="M92.4766 186.266C93.2786 186.266 93.776 187.688 93.9688 190.531H96.7422C96.9661 190.531 97.2526 190.818 97.6016 191.391V192.031C97.6016 192.125 97.2448 192.479 96.5312 193.094V193.312C96.8177 193.656 96.9609 193.94 96.9609 194.164H97.3828C97.3828 193.643 98.3802 193.216 100.375 192.883L100.164 190.961L101.016 190.109H101.656C102.323 190.109 102.82 192.602 103.148 197.586C102.878 198.232 102.594 198.586 102.297 198.648H102.086C101.232 198.648 100.805 198.008 100.805 196.727L100.586 195.445L98.0234 195.875C97.7474 195.734 97.5339 195.664 97.3828 195.664V197.156C96.6901 198.151 95.9089 198.648 95.0391 198.648H93.9688C92.4948 198.648 91.4974 197.581 90.9766 195.445V194.594C90.9766 194.208 91.1198 193.781 91.4062 193.312H91.1953L89.9141 193.523C89.2005 193.237 88.8438 192.81 88.8438 192.242C88.8438 191.247 89.8411 190.75 91.8359 190.75C91.6901 190.604 91.5469 189.464 91.4062 187.328C91.4062 186.953 91.763 186.599 92.4766 186.266ZM104.859 189.891C106.141 189.891 106.781 191.529 106.781 194.805C106.927 194.805 107 195.445 107 196.727V196.945C107 197.68 106.786 198.107 106.359 198.227H105.5C104.974 198.227 104.477 195.661 104.008 190.531L104.859 189.891ZM93.3281 194.164L93.1172 195.234C93.3984 195.948 93.8958 196.305 94.6094 196.305H94.8203C95.1068 196.305 95.25 196.161 95.25 195.875C95.25 194.734 94.7526 194.164 93.7578 194.164H93.3281ZM103.148 199.078C104.201 199.078 104.844 200.003 105.078 201.852C105.078 203.336 103.654 204.404 100.805 205.055V205.273C100.805 205.555 101.018 205.695 101.445 205.695C102.607 205.414 103.531 205.13 104.219 204.844C104.792 205.057 105.078 205.271 105.078 205.484V206.125C105.078 206.964 103.794 207.604 101.227 208.047H100.164C99.1641 207.557 98.6641 206.703 98.6641 205.484V204.633C99.2005 203.352 99.9141 202.711 100.805 202.711C102.086 202.216 102.727 201.859 102.727 201.641H102.508C100.018 201.781 98.4531 201.852 97.8125 201.852C97.3854 201.331 97.1719 200.833 97.1719 200.359L98.2422 199.289C98.3828 199.289 98.4531 199.362 98.4531 199.508C99.0156 199.362 100.581 199.219 103.148 199.078Z" fill="black"/>
<path d="M171.789 185.758C172.362 186.352 172.648 187.062 172.648 187.891V188.75L172.43 189.172C173.997 190.677 174.781 191.604 174.781 191.953H174.57L174.781 192.383C174.781 192.586 174.568 192.799 174.141 193.023C173.823 193.023 173.182 192.594 172.219 191.734H172.008L171.578 193.023H171.148L170.086 192.805V192.594C170.086 192.417 170.299 190.992 170.727 188.32V187.891L168.164 188.109L167.734 187.469V187.039C168.021 186.471 168.234 186.188 168.375 186.188C169.016 186.188 170.154 186.044 171.789 185.758ZM181.398 186.609H182.258C182.727 186.609 183.01 187.607 183.109 189.602L185.672 189.391H185.891V190.031L185.672 190.453H186.102C186.102 190.74 185.888 190.883 185.461 190.883L185.672 191.312H183.539V191.523C183.539 191.831 183.609 192.615 183.75 193.875C183.609 194.443 183.253 194.727 182.68 194.727C181.971 194.727 181.474 192.234 181.188 187.25C181.328 186.974 181.398 186.76 181.398 186.609ZM176.914 187.25C177.487 187.797 177.844 188.724 177.984 190.031C179.266 190.698 179.906 191.482 179.906 192.383C179.62 192.383 179.477 192.523 179.477 192.805H178.625C177.906 192.237 177.479 191.953 177.344 191.953L176.492 193.445H175.633C175.352 193.445 175.211 193.305 175.211 193.023V192.383L176.062 189.172H175.852C175.492 189.172 174.852 189.315 173.93 189.602C173.357 189.388 173.07 189.174 173.07 188.961V188.75C173.07 187.896 173.711 187.469 174.992 187.469C175.523 187.323 176.164 187.25 176.914 187.25ZM178.414 196.008H179.266C181.401 196.008 182.469 197.289 182.469 199.852C182.469 201.102 181.544 201.885 179.695 202.203C179.57 202.203 179 201.99 177.984 201.562V201.773C177.125 201.773 176.484 200.565 176.062 198.148C176.625 196.721 177.409 196.008 178.414 196.008ZM178.195 197.508L177.984 198.57C177.984 199.612 178.768 200.182 180.336 200.281L180.758 199.641V198.789C180.263 197.935 179.622 197.508 178.836 197.508H178.195Z" fill="black"/>
</svg>
